G04 DipTrace 2.4.0.2*
%INiota.GTL*%
%MOMM*%
%ADD14C,0.508*%
%ADD15C,0.305*%
%ADD16C,0.203*%
%ADD17C,0.356*%
%ADD19R,1.3X1.5*%
%ADD20R,1.5X1.3*%
%ADD21R,1.5X1.5*%
%ADD22C,1.5*%
%ADD23R,1.6X0.8*%
%ADD24R,1.6X1.0*%
%ADD25R,2.0X2.0*%
%ADD26C,2.0*%
%ADD28R,2.0X1.1*%
%ADD29R,0.6X2.0*%
%ADD30C,1.0*%
%FSLAX53Y53*%
G04*
G71*
G90*
G75*
G01*
%LNTop*%
%LPD*%
X19486Y15156D2*
D14*
Y18266D1*
X11281D1*
X19486Y15156D2*
X29473D1*
X30490Y14139D1*
X31644D1*
X31711Y14206D1*
X29616Y12456D2*
X31189D1*
X31760Y13028D1*
Y14158D1*
X31711Y14206D1*
X19486Y32871D2*
D15*
X19536D1*
Y34141D1*
X20171Y34776D1*
X21764D1*
X18111Y38456D2*
D14*
Y36685D1*
X17631Y36205D1*
X16613D1*
X16661Y36156D1*
X32111Y38456D2*
Y36715D1*
X31601Y36205D1*
X30710D1*
X30661Y36156D1*
X16661D2*
Y34776D1*
X30661D2*
Y36156D1*
X15936Y15706D2*
D15*
X16044D1*
Y16996D1*
Y19536D2*
X13821D1*
X12551Y20806D1*
Y32236D1*
X11281Y33506D1*
X13311Y15706D2*
X13711Y16106D1*
X15936Y15706D2*
X14111D1*
X13711Y16106D1*
X28961Y29656D2*
X16461D1*
X30331Y27156D2*
Y30966D1*
X24299Y36999D1*
Y38269D1*
X23981Y38586D1*
X22711D1*
X28346Y17856D2*
Y19774D1*
X32236Y23664D1*
Y29061D1*
X34141Y30966D1*
X29616Y17856D2*
Y19774D1*
X32871Y23029D1*
Y27156D1*
X34141Y28426D1*
X13311Y40156D2*
X11616D1*
X13311Y41856D2*
X15186D1*
X18111D2*
X27311D1*
X18111Y40156D2*
X19836D1*
X20171Y40491D1*
X25251D1*
X25586Y40156D1*
X27311D1*
X23664Y34776D2*
Y35734D1*
X22711Y36686D1*
D30*
X19486Y18266D3*
Y32871D3*
Y18266D3*
X16661Y34776D3*
X30661D3*
X16044Y16996D3*
Y19536D3*
X30331Y27156D3*
X28346Y19774D3*
X29616D3*
X11616Y40156D3*
X15186Y41856D3*
X26521Y27156D3*
X22711Y19536D3*
X26521Y22711D3*
X16044Y38586D3*
X20171D3*
X26521Y32871D3*
X17631Y19536D3*
X29379Y38586D3*
X22711Y27156D3*
X17631Y32871D3*
Y16996D3*
Y27156D3*
X14456Y12551D3*
X34141D3*
X25251Y38586D3*
X22711Y13821D3*
X10627Y43746D2*
D16*
X34797D1*
X10468Y43546D2*
X34952D1*
X10401Y43347D2*
X35022D1*
X10389Y43147D2*
X35035D1*
X10389Y42947D2*
X35035D1*
X10389Y42748D2*
X11877D1*
X14747D2*
X14963D1*
X15410D2*
X16676D1*
X19546D2*
X25878D1*
X28744D2*
X30677D1*
X33547D2*
X35035D1*
X10389Y42548D2*
X11877D1*
X15803D2*
X16676D1*
X19546D2*
X25878D1*
X28744D2*
X30677D1*
X33547D2*
X35035D1*
X10389Y42348D2*
X11877D1*
X15978D2*
X16676D1*
X28744D2*
X30677D1*
X33547D2*
X35035D1*
X10389Y42149D2*
X11877D1*
X16073D2*
X16676D1*
X28744D2*
X30677D1*
X33547D2*
X35035D1*
X10389Y41949D2*
X11877D1*
X16117D2*
X16676D1*
X28744D2*
X30677D1*
X33547D2*
X35035D1*
X10389Y41749D2*
X11877D1*
X16114D2*
X16676D1*
X28744D2*
X30677D1*
X33547D2*
X35035D1*
X10389Y41550D2*
X11877D1*
X16070D2*
X16676D1*
X28744D2*
X30677D1*
X33547D2*
X35035D1*
X10389Y41350D2*
X11877D1*
X15968D2*
X16676D1*
X28744D2*
X30677D1*
X33547D2*
X35035D1*
X10389Y41150D2*
X11877D1*
X15787D2*
X16676D1*
X28744D2*
X30677D1*
X33547D2*
X35035D1*
X10389Y40951D2*
X11144D1*
X14747D2*
X15039D1*
X15334D2*
X16676D1*
X28744D2*
X30677D1*
X33547D2*
X35035D1*
X10389Y40751D2*
X10903D1*
X14747D2*
X16676D1*
X28744D2*
X30677D1*
X33547D2*
X35035D1*
X10389Y40551D2*
X10770D1*
X14747D2*
X16676D1*
X28744D2*
X30677D1*
X33547D2*
X35035D1*
X10389Y40352D2*
X10703D1*
X14747D2*
X16676D1*
X28744D2*
X30677D1*
X33547D2*
X35035D1*
X10389Y40152D2*
X10681D1*
X14747D2*
X16676D1*
X28744D2*
X30677D1*
X33547D2*
X35035D1*
X10389Y39952D2*
X10703D1*
X14747D2*
X16676D1*
X28744D2*
X30677D1*
X33547D2*
X35035D1*
X10389Y39753D2*
X10776D1*
X14747D2*
X16676D1*
X20253D2*
X25167D1*
X28744D2*
X30677D1*
X33547D2*
X35035D1*
X10389Y39553D2*
X10909D1*
X14747D2*
X16676D1*
X19546D2*
X21526D1*
X23895D2*
X25878D1*
X28744D2*
X30677D1*
X33547D2*
X35035D1*
X10389Y39353D2*
X11160D1*
X14747D2*
X16676D1*
X19546D2*
X21526D1*
X23895D2*
X25878D1*
X28744D2*
X30677D1*
X33547D2*
X35035D1*
X10389Y39154D2*
X11877D1*
X14747D2*
X16676D1*
X19546D2*
X21526D1*
X23895D2*
X25878D1*
X28744D2*
X30677D1*
X33547D2*
X35035D1*
X10389Y38954D2*
X11877D1*
X14747D2*
X16676D1*
X19546D2*
X21526D1*
X24434D2*
X25878D1*
X28744D2*
X30677D1*
X33547D2*
X35035D1*
X10389Y38754D2*
X11877D1*
X14747D2*
X16676D1*
X19546D2*
X21526D1*
X24634D2*
X25878D1*
X28744D2*
X30677D1*
X33547D2*
X35035D1*
X10389Y38555D2*
X11877D1*
X14747D2*
X16676D1*
X19546D2*
X21526D1*
X24808D2*
X25878D1*
X28744D2*
X30677D1*
X33547D2*
X35035D1*
X10389Y38355D2*
X11877D1*
X14747D2*
X16676D1*
X19546D2*
X21526D1*
X24878D2*
X25878D1*
X28744D2*
X30677D1*
X33547D2*
X35035D1*
X10389Y38155D2*
X11877D1*
X14747D2*
X16676D1*
X19546D2*
X21526D1*
X24887D2*
X25878D1*
X28744D2*
X30677D1*
X33547D2*
X35035D1*
X10389Y37956D2*
X11877D1*
X14747D2*
X16676D1*
X19546D2*
X21526D1*
X24887D2*
X25878D1*
X28744D2*
X30677D1*
X33547D2*
X35035D1*
X10389Y37756D2*
X11877D1*
X14747D2*
X16676D1*
X19546D2*
X21526D1*
X24887D2*
X25878D1*
X28744D2*
X30677D1*
X33547D2*
X35035D1*
X10389Y37556D2*
X11877D1*
X14747D2*
X16676D1*
X19546D2*
X21526D1*
X24887D2*
X25878D1*
X28744D2*
X30677D1*
X33547D2*
X35035D1*
X10389Y37357D2*
X17421D1*
X18800D2*
X21526D1*
X24887D2*
X31422D1*
X32801D2*
X35035D1*
X10389Y37157D2*
X10913D1*
X11651D2*
X13675D1*
X18800D2*
X21526D1*
X24963D2*
X27676D1*
X32801D2*
X33772D1*
X34511D2*
X35035D1*
X10389Y36957D2*
X10534D1*
X12025D2*
X13675D1*
X18800D2*
X21526D1*
X25163D2*
X27676D1*
X32801D2*
X33395D1*
X34885D2*
X35035D1*
X12222Y36758D2*
X13675D1*
X18800D2*
X21526D1*
X25360D2*
X27676D1*
X32801D2*
X33198D1*
X12349Y36558D2*
X13675D1*
X18788D2*
X21526D1*
X25560D2*
X27676D1*
X32782D2*
X33075D1*
X12422Y36358D2*
X13675D1*
X18715D2*
X21526D1*
X25760D2*
X27676D1*
X32696D2*
X32998D1*
X12460Y36159D2*
X13675D1*
X18550D2*
X21526D1*
X25959D2*
X27676D1*
X32522D2*
X32964D1*
X12463Y35959D2*
X13675D1*
X18350D2*
X21526D1*
X26159D2*
X27676D1*
X32322D2*
X32960D1*
X12431Y35759D2*
X13675D1*
X18150D2*
X20679D1*
X26359D2*
X27676D1*
X32122D2*
X32992D1*
X12358Y35560D2*
X13675D1*
X17827D2*
X20679D1*
X24748D2*
X24916D1*
X26559D2*
X27676D1*
X31796D2*
X33062D1*
X12241Y35360D2*
X13675D1*
X17747D2*
X20679D1*
X24748D2*
X25116D1*
X26759D2*
X27676D1*
X31745D2*
X33179D1*
X10389Y35160D2*
X10509D1*
X12057D2*
X13675D1*
X17747D2*
X19734D1*
X24748D2*
X25316D1*
X26959D2*
X27676D1*
X31745D2*
X33366D1*
X34917D2*
X35035D1*
X10389Y34961D2*
X10840D1*
X11724D2*
X15747D1*
X17576D2*
X19534D1*
X24748D2*
X25516D1*
X27158D2*
X29744D1*
X31577D2*
X33699D1*
X34584D2*
X35035D1*
X10389Y34761D2*
X15728D1*
X17595D2*
X19334D1*
X24748D2*
X25716D1*
X27358D2*
X29728D1*
X31596D2*
X35035D1*
X10389Y34561D2*
X10770D1*
X11794D2*
X15753D1*
X17570D2*
X19134D1*
X24748D2*
X25916D1*
X27558D2*
X29754D1*
X31570D2*
X33630D1*
X34654D2*
X35035D1*
X12092Y34362D2*
X15826D1*
X17497D2*
X18995D1*
X24748D2*
X26115D1*
X27758D2*
X29827D1*
X31498D2*
X33331D1*
X12263Y34162D2*
X15962D1*
X17360D2*
X18950D1*
X20380D2*
X20679D1*
X24748D2*
X26315D1*
X27958D2*
X29963D1*
X31358D2*
X33160D1*
X12374Y33962D2*
X16226D1*
X17097D2*
X18950D1*
X20180D2*
X20679D1*
X24748D2*
X26512D1*
X28158D2*
X30223D1*
X31098D2*
X33049D1*
X12438Y33763D2*
X18950D1*
X20123D2*
X20679D1*
X24748D2*
X26712D1*
X28357D2*
X32986D1*
X12463Y33563D2*
X18868D1*
X20123D2*
X26912D1*
X28557D2*
X32957D1*
X12457Y33363D2*
X18696D1*
X20279D2*
X27111D1*
X28757D2*
X32967D1*
X12444Y33164D2*
X18601D1*
X20374D2*
X27311D1*
X28957D2*
X33008D1*
X12644Y32964D2*
X18557D1*
X20415D2*
X22338D1*
X23083D2*
X27511D1*
X29157D2*
X33090D1*
X12844Y32764D2*
X18557D1*
X20415D2*
X21913D1*
X23511D2*
X27711D1*
X29353D2*
X33224D1*
X13034Y32565D2*
X18604D1*
X20367D2*
X21688D1*
X23736D2*
X27911D1*
X29553D2*
X33436D1*
X34847D2*
X35035D1*
X13123Y32365D2*
X18706D1*
X20269D2*
X21535D1*
X23885D2*
X28111D1*
X29753D2*
X33890D1*
X34393D2*
X35035D1*
X13139Y32165D2*
X18884D1*
X20088D2*
X21437D1*
X23987D2*
X28310D1*
X29953D2*
X35035D1*
X13139Y31966D2*
X19340D1*
X19632D2*
X21374D1*
X24050D2*
X28510D1*
X30153D2*
X33525D1*
X34758D2*
X35035D1*
X13139Y31766D2*
X21342D1*
X24082D2*
X28710D1*
X30352D2*
X33274D1*
X13139Y31566D2*
X21339D1*
X24082D2*
X28910D1*
X30552D2*
X33122D1*
X13139Y31367D2*
X21367D1*
X24056D2*
X29110D1*
X30752D2*
X33027D1*
X13139Y31167D2*
X21427D1*
X23996D2*
X29310D1*
X30882D2*
X32973D1*
X13139Y30967D2*
X15027D1*
X17897D2*
X21526D1*
X23898D2*
X28412D1*
X30917D2*
X32957D1*
X13139Y30768D2*
X15027D1*
X17897D2*
X21668D1*
X23755D2*
X28066D1*
X30917D2*
X32973D1*
X13139Y30568D2*
X15027D1*
X17897D2*
X21884D1*
X23539D2*
X27860D1*
X30917D2*
X32922D1*
X13139Y30368D2*
X15027D1*
X17897D2*
X22271D1*
X23152D2*
X27720D1*
X30917D2*
X32722D1*
X13139Y30169D2*
X15027D1*
X30917D2*
X32523D1*
X13139Y29969D2*
X15027D1*
X30917D2*
X32323D1*
X13139Y29769D2*
X15027D1*
X30917D2*
X32123D1*
X13139Y29570D2*
X15027D1*
X30917D2*
X31923D1*
X13139Y29370D2*
X15027D1*
X30917D2*
X31742D1*
X13139Y29170D2*
X15027D1*
X30917D2*
X31660D1*
X13139Y28971D2*
X15027D1*
X17897D2*
X27705D1*
X30917D2*
X31650D1*
X13139Y28771D2*
X15027D1*
X17897D2*
X27838D1*
X30917D2*
X31650D1*
X13139Y28571D2*
X15027D1*
X17897D2*
X28034D1*
X30917D2*
X31650D1*
X13139Y28372D2*
X15027D1*
X17897D2*
X28348D1*
X29572D2*
X29744D1*
X30917D2*
X31650D1*
X13139Y28172D2*
X29744D1*
X30917D2*
X31650D1*
X13139Y27972D2*
X29744D1*
X30917D2*
X31650D1*
X13139Y27773D2*
X29636D1*
X31028D2*
X31650D1*
X13139Y27573D2*
X29497D1*
X31164D2*
X31650D1*
X13139Y27373D2*
X29424D1*
X31241D2*
X31650D1*
X13139Y27174D2*
X29398D1*
X31266D2*
X31650D1*
X13139Y26974D2*
X29414D1*
X31247D2*
X31650D1*
X13139Y26774D2*
X29481D1*
X31183D2*
X31650D1*
X13139Y26575D2*
X29605D1*
X31057D2*
X31650D1*
X13139Y26375D2*
X29836D1*
X30828D2*
X31650D1*
X13139Y26175D2*
X31650D1*
X13139Y25976D2*
X15931D1*
X16989D2*
X28431D1*
X29490D2*
X31650D1*
X13139Y25776D2*
X15578D1*
X17345D2*
X28076D1*
X29845D2*
X31650D1*
X13139Y25576D2*
X15366D1*
X17557D2*
X27866D1*
X30054D2*
X31650D1*
X13139Y25377D2*
X15223D1*
X17700D2*
X27724D1*
X30197D2*
X31650D1*
X13139Y25177D2*
X15125D1*
X17795D2*
X27625D1*
X30295D2*
X31650D1*
X13139Y24977D2*
X15065D1*
X17858D2*
X27565D1*
X30359D2*
X31650D1*
X13139Y24778D2*
X15033D1*
X17890D2*
X27533D1*
X30391D2*
X31650D1*
X13139Y24578D2*
X15030D1*
X17893D2*
X27530D1*
X30394D2*
X31650D1*
X13139Y24378D2*
X15055D1*
X17868D2*
X27555D1*
X30368D2*
X31650D1*
X13139Y24179D2*
X15109D1*
X17814D2*
X27609D1*
X30314D2*
X31650D1*
X13139Y23979D2*
X15198D1*
X17722D2*
X22401D1*
X23022D2*
X27698D1*
X30222D2*
X31650D1*
X13139Y23779D2*
X15331D1*
X17592D2*
X21935D1*
X23489D2*
X27831D1*
X30092D2*
X31530D1*
X13139Y23580D2*
X15525D1*
X17399D2*
X21700D1*
X23723D2*
X28025D1*
X29899D2*
X31330D1*
X13139Y23380D2*
X15832D1*
X17091D2*
X21545D1*
X23875D2*
X28333D1*
X29591D2*
X31130D1*
X13139Y23180D2*
X21443D1*
X23980D2*
X30930D1*
X13139Y22981D2*
X21377D1*
X24047D2*
X30731D1*
X13139Y22781D2*
X21342D1*
X24082D2*
X30531D1*
X13139Y22581D2*
X21339D1*
X24085D2*
X30331D1*
X13139Y22382D2*
X21364D1*
X24059D2*
X30131D1*
X33045D2*
X33468D1*
X34815D2*
X35035D1*
X13139Y22182D2*
X21421D1*
X23999D2*
X29934D1*
X32846D2*
X35035D1*
X13139Y21982D2*
X21516D1*
X23907D2*
X29735D1*
X32646D2*
X35035D1*
X13139Y21783D2*
X21656D1*
X23768D2*
X29535D1*
X32446D2*
X33487D1*
X34796D2*
X35035D1*
X13139Y21583D2*
X21865D1*
X23558D2*
X29335D1*
X32246D2*
X33252D1*
X13139Y21383D2*
X22227D1*
X23194D2*
X29135D1*
X32046D2*
X33109D1*
X13139Y21184D2*
X28935D1*
X31850D2*
X33021D1*
X13196Y20984D2*
X28735D1*
X31650D2*
X32970D1*
X13396Y20784D2*
X28536D1*
X31450D2*
X32957D1*
X13595Y20585D2*
X27904D1*
X31250D2*
X32979D1*
X13795Y20385D2*
X15683D1*
X16403D2*
X27647D1*
X31050D2*
X33036D1*
X13995Y20185D2*
X15379D1*
X16707D2*
X27511D1*
X30850D2*
X33135D1*
X16859Y19986D2*
X27438D1*
X30651D2*
X33293D1*
X16945Y19786D2*
X27413D1*
X30552D2*
X33560D1*
X34723D2*
X35035D1*
X16977Y19586D2*
X27432D1*
X30530D2*
X35035D1*
X16967Y19387D2*
X27498D1*
X30463D2*
X32957D1*
X16910Y19187D2*
X25072D1*
X30352D2*
X32957D1*
X16796Y18987D2*
X18903D1*
X20069D2*
X25072D1*
X30352D2*
X32957D1*
X20256Y18788D2*
X25072D1*
X30352D2*
X32957D1*
X20361Y18588D2*
X25072D1*
X30352D2*
X32957D1*
X20412Y18388D2*
X25072D1*
X30352D2*
X32957D1*
X20418Y18189D2*
X25072D1*
X30352D2*
X32957D1*
X20377Y17989D2*
X25072D1*
X30352D2*
X32957D1*
X20288Y17789D2*
X25072D1*
X30352D2*
X32957D1*
X16761Y17590D2*
X18798D1*
X20174D2*
X25072D1*
X30352D2*
X32957D1*
X16888Y17390D2*
X18798D1*
X20174D2*
X25072D1*
X30352D2*
X32957D1*
X16958Y17190D2*
X18798D1*
X20174D2*
X25072D1*
X30352D2*
X32957D1*
X16980Y16991D2*
X18798D1*
X20174D2*
X25072D1*
X30352D2*
X30528D1*
X32896D2*
X35035D1*
X16954Y16791D2*
X18798D1*
X20174D2*
X25072D1*
X30352D2*
X30528D1*
X32896D2*
X35035D1*
X16885Y16591D2*
X18798D1*
X20174D2*
X25072D1*
X30352D2*
X30528D1*
X32896D2*
X35035D1*
X17170Y16392D2*
X18798D1*
X20174D2*
X30528D1*
X32896D2*
X35035D1*
X17170Y16192D2*
X18798D1*
X20174D2*
X30528D1*
X32896D2*
X35035D1*
X17170Y15992D2*
X18252D1*
X20719D2*
X30528D1*
X32896D2*
X35035D1*
X17170Y15793D2*
X18252D1*
X29696D2*
X30528D1*
X32896D2*
X35035D1*
X17170Y15593D2*
X18252D1*
X30000D2*
X30528D1*
X32896D2*
X35035D1*
X17170Y15393D2*
X18252D1*
X30200D2*
X30528D1*
X32896D2*
X35035D1*
X17170Y15194D2*
X18252D1*
X30400D2*
X30525D1*
X32896D2*
X35035D1*
X17170Y14994D2*
X18252D1*
X32896D2*
X35035D1*
X17170Y14794D2*
X18252D1*
X32896D2*
X35035D1*
X17170Y14595D2*
X18252D1*
X32896D2*
X35035D1*
X17170Y14395D2*
X18252D1*
X20719D2*
X29268D1*
X32896D2*
X35035D1*
X17170Y14195D2*
X29468D1*
X32896D2*
X35035D1*
X17170Y13996D2*
X29668D1*
X32896D2*
X35035D1*
X17170Y13796D2*
X25072D1*
X32896D2*
X35035D1*
X14896Y13596D2*
X25072D1*
X32896D2*
X35035D1*
X14896Y13397D2*
X25072D1*
X32896D2*
X35035D1*
X14896Y13197D2*
X25072D1*
X32896D2*
X35035D1*
X12926Y12997D2*
X25072D1*
X32449D2*
X35035D1*
X12926Y12798D2*
X25072D1*
X32408D2*
X35035D1*
X12926Y12598D2*
X25072D1*
X32294D2*
X35035D1*
X12926Y12398D2*
X25072D1*
X32097D2*
X35035D1*
X12926Y12199D2*
X25072D1*
X31897D2*
X35035D1*
X12926Y11999D2*
X25072D1*
X31697D2*
X35035D1*
X12926Y11799D2*
X25072D1*
X31333D2*
X35035D1*
X12926Y11600D2*
X25072D1*
X30352D2*
X35035D1*
X12926Y11400D2*
X25072D1*
X30352D2*
X35035D1*
X12929Y11200D2*
X25072D1*
X30352D2*
X35035D1*
X12929Y11001D2*
X35032D1*
X12996Y10801D2*
X34968D1*
X13132Y10601D2*
X34832D1*
X13469Y10402D2*
X34502D1*
X15698Y37321D2*
X17446D1*
X17443Y37494D1*
X16697Y37492D1*
X16700Y39421D1*
X16697Y39496D1*
X16700Y41121D1*
X16697Y41196D1*
Y42821D1*
X19526D1*
Y42424D1*
X25419Y42423D1*
X25898D1*
X25897Y42821D1*
X28726D1*
X28723Y40892D1*
X28726Y40816D1*
X28723Y39192D1*
X28726Y39177D1*
Y37492D1*
X25897D1*
Y39588D1*
X25586Y39589D1*
X25485Y39598D1*
X25388Y39625D1*
X25296Y39669D1*
X25227Y39718D1*
X25017Y39924D1*
X20408D1*
X20237Y39755D1*
X20159Y39690D1*
X20071Y39640D1*
X19976Y39607D1*
X19892Y39592D1*
X19529Y39589D1*
X19526Y39192D1*
Y37492D1*
X18781D1*
X18780Y36685D1*
X18772Y36584D1*
X18749Y36485D1*
X18712Y36391D1*
X18660Y36304D1*
X18584Y36212D1*
X18104Y35732D1*
X18027Y35666D1*
X17941Y35613D1*
X17848Y35572D1*
X17747Y35547D1*
X17798Y35558D1*
X17726Y35494D1*
Y34992D1*
X17551D1*
X17574Y34839D1*
X17570Y34675D1*
X17553Y34575D1*
X17526Y34477D1*
X17487Y34383D1*
X17439Y34294D1*
X17381Y34211D1*
X17314Y34135D1*
X17239Y34067D1*
X17156Y34007D1*
X17068Y33957D1*
X16975Y33917D1*
X16878Y33888D1*
X16778Y33869D1*
X16677Y33862D1*
X16576Y33866D1*
X16475Y33881D1*
X16377Y33907D1*
X16283Y33944D1*
X16193Y33991D1*
X16109Y34047D1*
X16031Y34113D1*
X15962Y34187D1*
X15901Y34268D1*
X15849Y34355D1*
X15808Y34448D1*
X15777Y34544D1*
X15756Y34644D1*
X15747Y34745D1*
X15749Y34846D1*
X15774Y34993D1*
X15055Y34992D1*
X13697D1*
Y37321D1*
X15826Y37320D1*
X29698Y37321D2*
X31443Y37324D1*
Y37492D1*
X30697D1*
X30700Y39421D1*
X30697Y39496D1*
X30700Y41121D1*
X30697Y41196D1*
Y42821D1*
X33526D1*
X33523Y40892D1*
X33526Y40816D1*
X33523Y39192D1*
X33526Y39116D1*
Y37492D1*
X32781D1*
X32780Y36715D1*
X32772Y36614D1*
X32749Y36515D1*
X32712Y36421D1*
X32660Y36334D1*
X32584Y36242D1*
X32074Y35732D1*
X31997Y35666D1*
X31911Y35613D1*
X31768Y35558D1*
X31726Y35494D1*
Y34992D1*
X31551D1*
X31574Y34839D1*
X31570Y34675D1*
X31553Y34575D1*
X31526Y34477D1*
X31487Y34383D1*
X31439Y34294D1*
X31381Y34211D1*
X31314Y34135D1*
X31239Y34067D1*
X31156Y34007D1*
X31068Y33957D1*
X30975Y33917D1*
X30878Y33888D1*
X30778Y33869D1*
X30677Y33862D1*
X30576Y33866D1*
X30475Y33881D1*
X30377Y33907D1*
X30283Y33944D1*
X30193Y33991D1*
X30109Y34047D1*
X30031Y34113D1*
X29962Y34187D1*
X29901Y34268D1*
X29849Y34355D1*
X29808Y34448D1*
X29777Y34544D1*
X29756Y34644D1*
X29747Y34745D1*
X29749Y34846D1*
X29774Y34993D1*
X29055Y34992D1*
X27697D1*
Y37321D1*
X29826Y37320D1*
X32873Y15271D2*
X32876Y15068D1*
Y13142D1*
X32429D1*
X32421Y12926D1*
X32398Y12828D1*
X32361Y12733D1*
X32309Y12646D1*
X32233Y12555D1*
X31662Y11984D1*
X31585Y11917D1*
X31499Y11864D1*
X31405Y11824D1*
X31307Y11798D1*
X31189Y11788D1*
X30329D1*
X30331Y11042D1*
X28902Y11045D1*
X28858Y11042D1*
X25092D1*
Y13871D1*
X29812D1*
X29194Y14489D1*
X26631Y14488D1*
X20702D1*
X20701Y14242D1*
X18272D1*
Y16071D1*
X18820D1*
X18818Y16983D1*
Y17595D1*
X17964Y17598D1*
X16730D1*
X16786Y17530D1*
X16841Y17445D1*
X16886Y17354D1*
X16920Y17258D1*
X16944Y17160D1*
X16958Y16996D1*
X16953Y16895D1*
X16936Y16795D1*
X16908Y16697D1*
X16870Y16603D1*
X16826Y16523D1*
X17151Y16521D1*
X17148Y14892D1*
X17151Y14812D1*
Y13792D1*
X14876Y13789D1*
Y13142D1*
X12906D1*
X12907Y11287D1*
X12910Y10998D1*
X12985Y10773D1*
X13124Y10584D1*
X13314Y10446D1*
X13537Y10372D1*
X14026Y10369D1*
X34240Y10368D1*
X34427Y10370D1*
X34652Y10445D1*
X34841Y10584D1*
X34979Y10774D1*
X35053Y10997D1*
X35056Y11486D1*
Y17103D1*
X32977Y17102D1*
Y19431D1*
X35054D1*
X35056Y20085D1*
X34951Y19969D1*
X34827Y19865D1*
X34689Y19779D1*
X34541Y19713D1*
X34385Y19668D1*
X34225Y19645D1*
X34063Y19644D1*
X33902Y19667D1*
X33746Y19711D1*
X33597Y19777D1*
X33459Y19862D1*
X33335Y19966D1*
X33226Y20086D1*
X33135Y20221D1*
X33063Y20366D1*
X33012Y20520D1*
X32984Y20680D1*
X32977Y20842D1*
X32993Y21004D1*
X33032Y21161D1*
X33092Y21312D1*
X33173Y21453D1*
X33272Y21581D1*
X33388Y21695D1*
X33519Y21791D1*
X33662Y21868D1*
X33814Y21924D1*
X33972Y21959D1*
X34134Y21971D1*
X34296Y21961D1*
X34455Y21928D1*
X34608Y21873D1*
X34752Y21798D1*
X34884Y21704D1*
X35001Y21592D1*
X35056Y21526D1*
Y22629D1*
X34966Y22524D1*
X34810Y22393D1*
X34635Y22292D1*
X34445Y22222D1*
X34245Y22186D1*
X34042D1*
X33843Y22221D1*
X33652Y22290D1*
X33476Y22390D1*
X33320Y22520D1*
X33246Y22602D1*
X30525Y19880D1*
X30531Y19774D1*
X30525Y19672D1*
X30508Y19572D1*
X30481Y19475D1*
X30442Y19381D1*
X30394Y19292D1*
X30329Y19202D1*
X30331Y17444D1*
Y16442D1*
X28902Y16445D1*
X28553Y16442D1*
X27632Y16445D1*
X27283Y16442D1*
X26362Y16445D1*
X26318Y16442D1*
X25092D1*
Y19271D1*
X27583D1*
X27534Y19353D1*
X27493Y19445D1*
X27462Y19542D1*
X27441Y19641D1*
X27432Y19742D1*
X27434Y19844D1*
X27448Y19944D1*
X27472Y20043D1*
X27507Y20138D1*
X27553Y20229D1*
X27608Y20314D1*
X27672Y20392D1*
X27745Y20463D1*
X27825Y20525D1*
X27912Y20578D1*
X28003Y20622D1*
X28099Y20654D1*
X28198Y20676D1*
X28299Y20687D1*
X28454Y20681D1*
X29524Y21754D1*
X31671Y23900D1*
X31669Y27825D1*
Y29061D1*
X31678Y29162D1*
X31705Y29260D1*
X31749Y29351D1*
X31798Y29421D1*
X32194Y29821D1*
X33022Y30649D1*
X32995Y30760D1*
X32977Y30962D1*
X32993Y31164D1*
X33045Y31360D1*
X33130Y31544D1*
X33245Y31710D1*
X33388Y31855D1*
X33553Y31972D1*
X33737Y32058D1*
X33932Y32112D1*
X34134Y32131D1*
X34336Y32114D1*
X34532Y32063D1*
X34717Y31979D1*
X34884Y31864D1*
X35028Y31721D1*
X35057Y31684D1*
X35056Y32785D1*
X34966Y32684D1*
X34810Y32553D1*
X34635Y32452D1*
X34445Y32382D1*
X34245Y32346D1*
X34042D1*
X33843Y32381D1*
X33652Y32450D1*
X33476Y32550D1*
X33320Y32680D1*
X33189Y32835D1*
X33088Y33010D1*
X33017Y33201D1*
X32982Y33400D1*
X32981Y33603D1*
X33015Y33803D1*
X33084Y33994D1*
X33184Y34170D1*
X33314Y34326D1*
X33468Y34457D1*
X33643Y34559D1*
X33833Y34629D1*
X34033Y34666D1*
X34236Y34667D1*
X34435Y34633D1*
X34626Y34565D1*
X34803Y34465D1*
X34959Y34336D1*
X35057Y34224D1*
X35056Y35329D1*
X34966Y35224D1*
X34810Y35093D1*
X34635Y34992D1*
X34445Y34922D1*
X34245Y34886D1*
X34042D1*
X33843Y34921D1*
X33652Y34990D1*
X33476Y35090D1*
X33320Y35220D1*
X33189Y35375D1*
X33088Y35550D1*
X33017Y35741D1*
X32982Y35940D1*
X32981Y36143D1*
X33015Y36343D1*
X33084Y36534D1*
X33184Y36710D1*
X33314Y36866D1*
X33468Y36997D1*
X33643Y37099D1*
X33833Y37169D1*
X34033Y37206D1*
X34236Y37207D1*
X34435Y37173D1*
X34626Y37105D1*
X34803Y37005D1*
X34959Y36876D1*
X35057Y36764D1*
X35056Y42443D1*
X35053Y43231D1*
X35052Y43317D1*
X34977Y43542D1*
X34838Y43731D1*
X34648Y43869D1*
X34425Y43943D1*
X33937Y43946D1*
X11183Y43944D1*
X10996Y43942D1*
X10771Y43867D1*
X10582Y43728D1*
X10444Y43538D1*
X10370Y43315D1*
X10367Y42827D1*
Y36765D1*
X10454Y36866D1*
X10608Y36997D1*
X10783Y37099D1*
X10973Y37169D1*
X11173Y37206D1*
X11376Y37207D1*
X11575Y37173D1*
X11766Y37105D1*
X11943Y37005D1*
X12099Y36876D1*
X12230Y36721D1*
X12333Y36546D1*
X12404Y36357D1*
X12441Y36157D1*
X12446Y36046D1*
X12428Y35844D1*
X12376Y35648D1*
X12290Y35465D1*
X12174Y35298D1*
X12031Y35155D1*
X11865Y35038D1*
X11681Y34953D1*
X11486Y34900D1*
X11284Y34882D1*
X11082Y34899D1*
X10886Y34951D1*
X10702Y35036D1*
X10535Y35152D1*
X10392Y35295D1*
X10366Y35327D1*
X10367Y34228D1*
X10454Y34326D1*
X10608Y34457D1*
X10783Y34559D1*
X10973Y34629D1*
X11173Y34666D1*
X11376Y34667D1*
X11575Y34633D1*
X11766Y34565D1*
X11943Y34465D1*
X12099Y34336D1*
X12230Y34181D1*
X12333Y34006D1*
X12404Y33817D1*
X12441Y33617D1*
X12446Y33506D1*
X12428Y33304D1*
X12402Y33190D1*
X12952Y32637D1*
X13017Y32559D1*
X13067Y32471D1*
X13101Y32376D1*
X13116Y32292D1*
X13118Y31729D1*
Y21043D1*
X14058Y20102D1*
X15328Y20103D1*
X15443Y20226D1*
X15523Y20288D1*
X15609Y20341D1*
X15701Y20384D1*
X15797Y20417D1*
X15896Y20439D1*
X15997Y20450D1*
X16098Y20449D1*
X16199Y20438D1*
X16298Y20415D1*
X16394Y20381D1*
X16485Y20337D1*
X16571Y20284D1*
X16651Y20221D1*
X16723Y20149D1*
X16786Y20070D1*
X16841Y19985D1*
X16886Y19894D1*
X16920Y19798D1*
X16944Y19700D1*
X16958Y19536D1*
X16953Y19435D1*
X16936Y19335D1*
X16908Y19237D1*
X16870Y19143D1*
X16821Y19054D1*
X16732Y18936D1*
X18865Y18935D1*
X18965Y19018D1*
X19052Y19071D1*
X19143Y19114D1*
X19239Y19147D1*
X19338Y19169D1*
X19439Y19180D1*
X19541Y19179D1*
X19641Y19168D1*
X19740Y19145D1*
X19836Y19111D1*
X19928Y19067D1*
X20014Y19014D1*
X20093Y18951D1*
X20165Y18879D1*
X20229Y18800D1*
X20283Y18715D1*
X20328Y18624D1*
X20363Y18528D1*
X20386Y18430D1*
X20401Y18266D1*
X20395Y18165D1*
X20378Y18065D1*
X20351Y17967D1*
X20312Y17873D1*
X20264Y17784D1*
X20153Y17642D1*
X20155Y16068D1*
X20701Y16071D1*
X20704Y15825D1*
X29473D1*
X29574Y15817D1*
X29672Y15794D1*
X29767Y15757D1*
X29854Y15705D1*
X29945Y15629D1*
X30549Y15026D1*
X30547Y15366D1*
Y17171D1*
X32876D1*
X32875Y15042D1*
X21648Y39651D2*
X23876D1*
Y39153D1*
X24082Y39144D1*
X24180Y39117D1*
X24271Y39073D1*
X24341Y39025D1*
X24700Y38670D1*
X24765Y38592D1*
X24815Y38504D1*
X24848Y38408D1*
X24863Y38325D1*
X24866Y37761D1*
Y37232D1*
X27571Y34529D1*
X30732Y31367D1*
X30797Y31289D1*
X30847Y31201D1*
X30881Y31106D1*
X30896Y31022D1*
X30898Y30459D1*
Y27874D1*
X31010Y27769D1*
X31074Y27690D1*
X31128Y27605D1*
X31173Y27514D1*
X31208Y27418D1*
X31231Y27320D1*
X31246Y27156D1*
X31240Y27055D1*
X31223Y26955D1*
X31196Y26857D1*
X31157Y26763D1*
X31109Y26674D1*
X31051Y26591D1*
X30984Y26515D1*
X30909Y26447D1*
X30826Y26387D1*
X30738Y26337D1*
X30645Y26297D1*
X30548Y26268D1*
X30448Y26249D1*
X30347Y26242D1*
X30246Y26246D1*
X30145Y26261D1*
X30047Y26287D1*
X29953Y26324D1*
X29863Y26371D1*
X29779Y26427D1*
X29701Y26493D1*
X29632Y26567D1*
X29571Y26648D1*
X29519Y26735D1*
X29478Y26828D1*
X29447Y26924D1*
X29426Y27024D1*
X29417Y27125D1*
X29419Y27226D1*
X29433Y27327D1*
X29457Y27425D1*
X29492Y27521D1*
X29538Y27611D1*
X29593Y27696D1*
X29657Y27775D1*
X29763Y27871D1*
X29764Y28492D1*
X29633Y28411D1*
X29448Y28328D1*
X29253Y28272D1*
X29052Y28245D1*
X28849Y28246D1*
X28648Y28277D1*
X28454Y28336D1*
X28271Y28422D1*
X28101Y28533D1*
X27949Y28668D1*
X27819Y28823D1*
X27711Y28995D1*
X27666Y29089D1*
X17876D1*
Y28242D1*
X15047D1*
Y31071D1*
X17876D1*
Y30224D1*
X27668Y30223D1*
X27732Y30356D1*
X27845Y30525D1*
X27980Y30676D1*
X28136Y30805D1*
X28309Y30912D1*
X28495Y30992D1*
X28691Y31045D1*
X28893Y31069D1*
X29095Y31065D1*
X29295Y31031D1*
X29489Y30969D1*
X29555Y30939D1*
X24729Y35767D1*
X24728Y33612D1*
X22599Y33615D1*
X22524Y33612D1*
X20699D1*
Y34211D1*
X20403Y34209D1*
X20103Y33907D1*
Y33548D1*
X20229Y33405D1*
X20283Y33320D1*
X20328Y33229D1*
X20363Y33133D1*
X20386Y33035D1*
X20401Y32871D1*
X20395Y32770D1*
X20378Y32670D1*
X20351Y32572D1*
X20312Y32478D1*
X20264Y32389D1*
X20206Y32306D1*
X20139Y32230D1*
X20064Y32162D1*
X19981Y32102D1*
X19893Y32052D1*
X19800Y32012D1*
X19703Y31983D1*
X19603Y31964D1*
X19502Y31957D1*
X19401Y31961D1*
X19300Y31976D1*
X19202Y32002D1*
X19108Y32039D1*
X19018Y32086D1*
X18934Y32142D1*
X18856Y32208D1*
X18787Y32282D1*
X18726Y32363D1*
X18674Y32450D1*
X18633Y32543D1*
X18602Y32639D1*
X18581Y32739D1*
X18572Y32840D1*
X18574Y32941D1*
X18588Y33042D1*
X18612Y33140D1*
X18647Y33236D1*
X18693Y33326D1*
X18748Y33411D1*
X18812Y33490D1*
X18885Y33561D1*
X18968Y33625D1*
X18969Y34141D1*
X18978Y34242D1*
X19005Y34340D1*
X19049Y34431D1*
X19098Y34501D1*
X19494Y34901D1*
X19770Y35177D1*
X19848Y35242D1*
X19936Y35292D1*
X20032Y35326D1*
X20116Y35341D1*
X20701Y35343D1*
X20699Y35941D1*
X21546D1*
X21550Y37751D1*
X21547Y37826D1*
Y39651D1*
X21648D1*
X17876Y24636D2*
X17864Y24474D1*
X17834Y24315D1*
X17786Y24160D1*
X17720Y24011D1*
X17638Y23871D1*
X17540Y23742D1*
X17428Y23624D1*
X17304Y23520D1*
X17168Y23431D1*
X17023Y23358D1*
X16871Y23302D1*
X16713Y23264D1*
X16552Y23245D1*
X16389Y23243D1*
X16228Y23261D1*
X16070Y23297D1*
X15917Y23351D1*
X15771Y23422D1*
X15634Y23509D1*
X15508Y23611D1*
X15394Y23727D1*
X15295Y23856D1*
X15211Y23995D1*
X15143Y24142D1*
X15093Y24296D1*
X15061Y24456D1*
X15047Y24617D1*
X15052Y24779D1*
X15075Y24940D1*
X15117Y25097D1*
X15176Y25248D1*
X15253Y25391D1*
X15345Y25525D1*
X15452Y25647D1*
X15572Y25756D1*
X15704Y25851D1*
X15845Y25930D1*
X15995Y25992D1*
X16151Y26037D1*
X16312Y26063D1*
X16474Y26071D1*
X16636Y26060D1*
X16795Y26031D1*
X16951Y25984D1*
X17099Y25919D1*
X17240Y25837D1*
X17370Y25740D1*
X17488Y25629D1*
X17593Y25505D1*
X17683Y25370D1*
X17756Y25225D1*
X17813Y25073D1*
X17852Y24916D1*
X17872Y24755D1*
X17876Y24636D1*
X30376D2*
X30364Y24474D1*
X30334Y24315D1*
X30286Y24160D1*
X30220Y24011D1*
X30138Y23871D1*
X30040Y23742D1*
X29928Y23624D1*
X29804Y23520D1*
X29668Y23431D1*
X29523Y23358D1*
X29371Y23302D1*
X29213Y23264D1*
X29052Y23245D1*
X28889Y23243D1*
X28728Y23261D1*
X28570Y23297D1*
X28417Y23351D1*
X28271Y23422D1*
X28134Y23509D1*
X28008Y23611D1*
X27894Y23727D1*
X27795Y23856D1*
X27711Y23995D1*
X27643Y24142D1*
X27593Y24296D1*
X27561Y24456D1*
X27547Y24617D1*
X27552Y24779D1*
X27575Y24940D1*
X27617Y25097D1*
X27676Y25248D1*
X27753Y25391D1*
X27845Y25525D1*
X27952Y25647D1*
X28072Y25756D1*
X28204Y25851D1*
X28345Y25930D1*
X28495Y25992D1*
X28651Y26037D1*
X28812Y26063D1*
X28974Y26071D1*
X29136Y26060D1*
X29295Y26031D1*
X29451Y25984D1*
X29599Y25919D1*
X29740Y25837D1*
X29870Y25740D1*
X29988Y25629D1*
X30093Y25505D1*
X30183Y25370D1*
X30256Y25225D1*
X30313Y25073D1*
X30352Y24916D1*
X30372Y24755D1*
X30376Y24636D1*
X24062Y31555D2*
X24032Y31354D1*
X23972Y31161D1*
X23884Y30978D1*
X23770Y30810D1*
X23632Y30662D1*
X23473Y30536D1*
X23297Y30435D1*
X23108Y30361D1*
X22910Y30316D1*
X22708Y30301D1*
X22506Y30317D1*
X22308Y30363D1*
X22120Y30437D1*
X21944Y30539D1*
X21786Y30666D1*
X21649Y30816D1*
X21535Y30984D1*
X21448Y31167D1*
X21389Y31361D1*
X21360Y31562D1*
X21361Y31764D1*
X21392Y31965D1*
X21453Y32158D1*
X21542Y32340D1*
X21657Y32507D1*
X21796Y32655D1*
X21955Y32781D1*
X22132Y32881D1*
X22321Y32954D1*
X22519Y32997D1*
X22721Y33011D1*
X22923Y32994D1*
X23121Y32948D1*
X23309Y32872D1*
X23484Y32769D1*
X23641Y32642D1*
X23778Y32492D1*
X23891Y32323D1*
X23977Y32140D1*
X24035Y31945D1*
X24063Y31744D1*
X24062Y31555D1*
Y22555D2*
X24032Y22354D1*
X23972Y22161D1*
X23884Y21978D1*
X23770Y21810D1*
X23632Y21662D1*
X23473Y21536D1*
X23297Y21435D1*
X23108Y21361D1*
X22910Y21316D1*
X22708Y21301D1*
X22506Y21317D1*
X22308Y21363D1*
X22120Y21437D1*
X21944Y21539D1*
X21786Y21666D1*
X21649Y21816D1*
X21535Y21984D1*
X21448Y22167D1*
X21389Y22361D1*
X21360Y22562D1*
X21361Y22764D1*
X21392Y22965D1*
X21453Y23158D1*
X21542Y23340D1*
X21657Y23507D1*
X21796Y23655D1*
X21955Y23781D1*
X22132Y23881D1*
X22321Y23954D1*
X22519Y23997D1*
X22721Y24011D1*
X22923Y23994D1*
X23121Y23948D1*
X23309Y23872D1*
X23484Y23769D1*
X23641Y23642D1*
X23778Y23492D1*
X23891Y23323D1*
X23977Y23140D1*
X24035Y22945D1*
X24063Y22744D1*
X24062Y22555D1*
X11998Y42821D2*
X14726D1*
Y42646D1*
X14843Y42704D1*
X14939Y42737D1*
X15038Y42759D1*
X15139Y42770D1*
X15241Y42769D1*
X15341Y42758D1*
X15440Y42735D1*
X15536Y42701D1*
X15628Y42657D1*
X15714Y42604D1*
X15793Y42541D1*
X15865Y42469D1*
X15929Y42390D1*
X15983Y42305D1*
X16028Y42214D1*
X16063Y42118D1*
X16086Y42020D1*
X16101Y41856D1*
X16095Y41755D1*
X16078Y41655D1*
X16051Y41557D1*
X16012Y41463D1*
X15964Y41374D1*
X15906Y41291D1*
X15839Y41215D1*
X15764Y41147D1*
X15681Y41087D1*
X15593Y41037D1*
X15500Y40997D1*
X15403Y40968D1*
X15303Y40949D1*
X15202Y40942D1*
X15101Y40946D1*
X15000Y40961D1*
X14902Y40987D1*
X14808Y41024D1*
X14726Y41066D1*
X14723Y39192D1*
X14726Y39177D1*
Y37492D1*
X11897D1*
Y39286D1*
X11733Y39249D1*
X11632Y39242D1*
X11531Y39246D1*
X11430Y39261D1*
X11332Y39287D1*
X11238Y39324D1*
X11148Y39371D1*
X11064Y39427D1*
X10986Y39493D1*
X10917Y39567D1*
X10856Y39648D1*
X10804Y39735D1*
X10763Y39828D1*
X10732Y39924D1*
X10711Y40024D1*
X10702Y40125D1*
X10704Y40226D1*
X10718Y40327D1*
X10742Y40425D1*
X10777Y40521D1*
X10823Y40611D1*
X10878Y40696D1*
X10942Y40775D1*
X11015Y40846D1*
X11095Y40908D1*
X11182Y40961D1*
X11273Y41004D1*
X11369Y41037D1*
X11468Y41059D1*
X11569Y41070D1*
X11671Y41069D1*
X11771Y41058D1*
X11897Y41025D1*
Y42821D1*
X11998D1*
X18865Y18936D2*
X18965Y19018D1*
X19052Y19071D1*
X19143Y19114D1*
X19239Y19147D1*
X19338Y19169D1*
X19439Y19180D1*
X19541Y19179D1*
X19641Y19168D1*
X19740Y19145D1*
X19836Y19111D1*
X19928Y19067D1*
X20014Y19014D1*
X20093Y18951D1*
X20165Y18879D1*
X20229Y18800D1*
X20283Y18715D1*
X20328Y18624D1*
X20363Y18528D1*
X20386Y18430D1*
X20401Y18266D1*
X20395Y18165D1*
X20378Y18065D1*
X20351Y17967D1*
X20312Y17873D1*
X20264Y17784D1*
X20153Y17642D1*
X14761Y37321D2*
D17*
Y34992D1*
X13697Y36156D2*
X14761D1*
X28761Y37321D2*
Y34992D1*
X27697Y36156D2*
X28761D1*
X31711Y17171D2*
Y16106D1*
X30547D2*
X32876D1*
X33318Y21630D2*
X34965Y19983D1*
Y21630D2*
X33318Y19983D1*
X13711Y14206D2*
Y13142D1*
X15461Y25656D2*
X17461Y23656D1*
Y25656D2*
X15461Y23656D1*
X27961Y25656D2*
X29961Y23656D1*
Y25656D2*
X27961Y23656D1*
X13311Y38456D2*
Y37492D1*
X11897Y38456D2*
X14726D1*
X27311D2*
Y37492D1*
X25897Y38456D2*
X28726D1*
X25806Y19271D2*
Y16442D1*
X25092Y17856D2*
X25806D1*
Y13871D2*
Y11042D1*
X25092Y12456D2*
X25806D1*
X27076Y13871D2*
Y11042D1*
X28346Y13871D2*
Y11042D1*
D19*
X16661Y36156D3*
X14761D3*
X30661D3*
X28761D3*
D20*
X31711Y14206D3*
Y16106D3*
X22711Y38586D3*
Y36686D3*
D21*
X34141Y18266D3*
D22*
Y20806D3*
Y23346D3*
Y25886D3*
Y28426D3*
Y30966D3*
Y33506D3*
Y36046D3*
D21*
X11281Y18266D3*
D22*
Y20806D3*
Y23346D3*
Y25886D3*
Y28426D3*
Y30966D3*
Y33506D3*
Y36046D3*
D23*
X15936Y14606D3*
Y15706D3*
D24*
X19486Y15156D3*
D20*
X13711Y14206D3*
Y16106D3*
D19*
X23664Y34776D3*
X21764D3*
D25*
X16461Y29656D3*
D26*
X28961D3*
X16461Y24656D3*
X28961D3*
D28*
X13311Y41856D3*
Y40156D3*
Y38456D3*
X18111D3*
Y40156D3*
Y41856D3*
X27311D3*
Y40156D3*
Y38456D3*
X32111D3*
Y40156D3*
Y41856D3*
D29*
X29616Y17856D3*
X28346D3*
X27076D3*
X25806D3*
Y12456D3*
X27076D3*
X28346D3*
X29616D3*
M02*
