G04 DipTrace 2.4.0.2*
%INiota.GTO*%
%MOMM*%
%ADD10C,0.25*%
%ADD12C,0.076*%
%ADD17C,0.356*%
%ADD18C,1.27*%
%ADD27O,0.601X0.6*%
%ADD57C,0.157*%
%FSLAX53Y53*%
G04*
G71*
G90*
G75*
G01*
%LNTopSilk*%
%LPD*%
X17712Y36806D2*
D10*
Y35507D1*
X31712Y36806D2*
Y35507D1*
X32361Y13156D2*
X31062D1*
X22062Y39536D2*
X23361D1*
X14854Y16426D2*
X20569D1*
Y13886D1*
X14854D1*
Y16426D1*
X19162Y27156D2*
G02X19162Y27156I3550J0D01*
G01*
X16711Y23356D2*
Y21156D1*
X28711D1*
Y23356D1*
X16711Y30957D2*
Y33156D1*
X28711D1*
Y30957D1*
X16711Y25956D2*
Y28356D1*
X28711D2*
Y25956D1*
X18412Y42656D2*
X13011D1*
X18412Y37656D2*
X13011D1*
D27*
X11995Y42809D3*
X32412Y42656D2*
D10*
X27011D1*
X32412Y37656D2*
X27011D1*
D27*
X25995Y42809D3*
X30211Y16456D2*
D10*
X25211D1*
X30211Y13856D2*
X25211D1*
Y16456D2*
Y13856D1*
X30211Y15657D2*
Y16456D1*
Y14656D2*
Y13856D1*
Y15657D2*
G03X30211Y14656I0J-500D01*
G01*
D18*
X34141Y11281D3*
X20082Y43908D2*
D12*
X20234D1*
X20021Y43832D2*
X20302D1*
X20918D2*
X21450D1*
X22362D2*
D3*
X22590D2*
D3*
X19971Y43756D2*
X20357D1*
X20806D2*
X21610D1*
X22356D2*
X22362D1*
X22518D2*
X22590D1*
X19956Y43680D2*
X20225D1*
X20707D2*
X21730D1*
X22337D2*
X22590D1*
X19976Y43604D2*
X20082D1*
X20614D2*
X21822D1*
X22303D2*
X22631D1*
X20039Y43528D2*
X20285D1*
X20690D2*
X21862D1*
X22268D2*
X22685D1*
X20193Y43452D2*
X20465D1*
X20766D2*
X21886D1*
X22271D2*
X22749D1*
X20419Y43376D2*
X20600D1*
X20842D2*
X21898D1*
X22327D2*
X22818D1*
X20690Y43300D2*
X20717D1*
X20918D2*
X21903D1*
X22405D2*
X22879D1*
X20538Y43224D2*
X20848D1*
X20994D2*
X21409D1*
X21490D2*
X21904D1*
X22496D2*
X22929D1*
X20614Y43148D2*
X21899D1*
X22590D2*
X22942D1*
X20689Y43072D2*
X21886D1*
X22417D2*
X22915D1*
X20763Y42996D2*
X21832D1*
X22240D2*
X22839D1*
X20827Y42920D2*
X21703D1*
X22076D2*
X22742D1*
X20877Y42844D2*
X21518D1*
X21932D2*
X22628D1*
X20918Y42768D2*
X21298D1*
X21786D2*
X22497D1*
X21618Y42692D2*
X22355D1*
X21425Y42616D2*
X22210D1*
X21222Y42540D2*
X22321D1*
X23350D2*
X23426D1*
X21272Y42464D2*
X22419D1*
X23303D2*
X23455D1*
X21325Y42388D2*
X22506D1*
X23259D2*
X23487D1*
X21383Y42312D2*
X21906D1*
X22058D2*
X22587D1*
X23218D2*
X23523D1*
X20766Y42236D2*
D3*
X21436D2*
X22665D1*
X23179D2*
X23566D1*
X20769Y42160D2*
X20842D1*
X21222D2*
D3*
X21478D2*
X21830D1*
X21982D2*
X22744D1*
X23135D2*
X23625D1*
X23958D2*
D3*
X20778Y42084D2*
X20886D1*
X21193D2*
X21222D1*
X21477D2*
X21830D1*
X21982D2*
X22832D1*
X23075D2*
X23708D1*
X23806D2*
X23882D1*
X20538Y42008D2*
D3*
X20797D2*
X20952D1*
X21158D2*
X21222D1*
X21464D2*
X22935D1*
X22991D2*
X23922D1*
X20567Y41932D2*
X20690D1*
X20820D2*
X21042D1*
X21116D2*
X21225D1*
X21440D2*
X21742D1*
X21909D2*
X23186D1*
X23437D2*
X23975D1*
X20602Y41856D2*
X21237D1*
X21403D2*
X21720D1*
X21922D2*
X22745D1*
X22879D2*
X23167D1*
X23457D2*
X24034D1*
X20647Y41780D2*
X21263D1*
X21318D2*
X21688D1*
X21952D2*
X22606D1*
X22775D2*
X23147D1*
X23480D2*
X23882D1*
X20702Y41704D2*
X21646D1*
X22003D2*
X22484D1*
X22664D2*
X23134D1*
X23502D2*
X23958D1*
X20760Y41628D2*
X21598D1*
X22066D2*
X22383D1*
X22564D2*
X23128D1*
X20817Y41552D2*
X21547D1*
X22137D2*
X22294D1*
X22487D2*
X23130D1*
X20883Y41476D2*
X21483D1*
X22210D2*
D3*
X22422D2*
X23141D1*
X20970Y41400D2*
X21397D1*
X22365D2*
X23185D1*
X24186D2*
X24414D1*
X21070Y41324D2*
X21298D1*
X22316D2*
X23235D1*
X24017D2*
X24607D1*
X22274Y41248D2*
X23045D1*
X23197D2*
X23283D1*
X23887D2*
X24767D1*
X22243Y41172D2*
X23043D1*
X23195D2*
X23329D1*
X23791D2*
X24246D1*
X24293D2*
X24895D1*
X22222Y41096D2*
X23033D1*
X23185D2*
X23380D1*
X23755D2*
X24041D1*
X24505D2*
X24997D1*
X22204Y41020D2*
X22590D1*
X22815D2*
X23015D1*
X23167D2*
X23440D1*
X23753D2*
X23951D1*
X24186D2*
X24338D1*
X24664D2*
X25076D1*
X22181Y40944D2*
X22517D1*
X22879D2*
X22995D1*
X23147D2*
X23508D1*
X23768D2*
X23905D1*
X24262D2*
X24360D1*
X24786D2*
X25136D1*
X22160Y40868D2*
X22453D1*
X22929D2*
X22981D1*
X23134D2*
X23580D1*
X23797D2*
X24040D1*
X24114D2*
X24376D1*
X24879D2*
X25182D1*
X22143Y40792D2*
X22397D1*
X22970D2*
D3*
X23130D2*
X23658D1*
X23837D2*
X24344D1*
X24953D2*
X25215D1*
X22124Y40716D2*
X22435D1*
X23137D2*
X23745D1*
X23883D2*
X24238D1*
X25022D2*
X25234D1*
X22095Y40640D2*
X22567D1*
X23157D2*
X23847D1*
X23923D2*
X24103D1*
X24938D2*
X25243D1*
X22058Y40564D2*
X22754D1*
X23191D2*
X23958D1*
X24828D2*
X25247D1*
X22174Y40488D2*
X22970D1*
X23245D2*
X24157D1*
X24656D2*
X25248D1*
X22303Y40412D2*
X22932D1*
X23324D2*
X24418D1*
X24405D2*
X25246D1*
X22438Y40336D2*
X22900D1*
X23423D2*
X25233D1*
X22362Y40260D2*
X22868D1*
X23542D2*
X25208D1*
X22286Y40184D2*
X22834D1*
X23685D2*
X25125D1*
X22407Y40108D2*
X22797D1*
X23853D2*
X25008D1*
X22514Y40032D2*
X22758D1*
X24034D2*
X24870D1*
X22473Y39956D2*
X22514D1*
X22666D2*
X22714D1*
X22438Y39880D2*
X22514D1*
X22666D2*
D3*
X22451Y20730D2*
X23059D1*
X22439Y20654D2*
X23095D1*
X22421Y20578D2*
X23119D1*
X22401Y20502D2*
X23140D1*
X22387Y20426D2*
X23163D1*
X22378Y20350D2*
X23185D1*
X22363Y20274D2*
X23203D1*
X21159Y20198D2*
X21311D1*
X22342D2*
X23221D1*
X24199D2*
X24351D1*
X21083Y20122D2*
X21437D1*
X22278D2*
X23283D1*
X24087D2*
X24439D1*
X21008Y20046D2*
X21603D1*
X22087D2*
X23470D1*
X23925D2*
X24533D1*
X20935Y19970D2*
X21821D1*
X21803D2*
X23736D1*
X23699D2*
X24626D1*
X20871Y19894D2*
X24699D1*
X20820Y19818D2*
X24753D1*
X20806Y19742D2*
X24751D1*
X20832Y19666D2*
X24716D1*
X20876Y19590D2*
X24674D1*
X20928Y19514D2*
X24625D1*
X20980Y19438D2*
X24568D1*
X21034Y19362D2*
X24513D1*
X21095Y19286D2*
X24466D1*
X21159Y19210D2*
X24452D1*
X21112Y19134D2*
X24467D1*
X21068Y19058D2*
X24493D1*
X21021Y18982D2*
X24530D1*
X20966Y18906D2*
X22533D1*
X23044D2*
X24576D1*
X20836Y18830D2*
X22404D1*
X23164D2*
X24692D1*
X20667Y18754D2*
X22301D1*
X23263D2*
X24852D1*
X20497Y18678D2*
X22222D1*
X23342D2*
X25017D1*
X20354Y18602D2*
X22159D1*
X23402D2*
X25157D1*
X20290Y18526D2*
X22116D1*
X23448D2*
X25221D1*
X20267Y18450D2*
X22091D1*
X23480D2*
X25244D1*
X20255Y18374D2*
X22080D1*
X23499D2*
X25255D1*
X20250Y18298D2*
X22075D1*
X23506D2*
X25260D1*
X20249Y18222D2*
X22075D1*
X23500D2*
X25262D1*
X20255Y18146D2*
X22085D1*
X23480D2*
X25258D1*
X20272Y18070D2*
X22106D1*
X23449D2*
X25248D1*
X20374Y17994D2*
X22140D1*
X23404D2*
X25185D1*
X20529Y17918D2*
X22194D1*
X23345D2*
X25036D1*
X20700Y17842D2*
X22270D1*
X23271D2*
X24875D1*
X20838Y17766D2*
X22356D1*
X23194D2*
X24740D1*
X20943Y17690D2*
X22443D1*
X23123D2*
X24646D1*
X20988Y17614D2*
X22527D1*
X23094D2*
X24580D1*
X21025Y17538D2*
X22480D1*
X23104D2*
X24530D1*
X21049Y17462D2*
X22437D1*
X23127D2*
X24493D1*
X21063Y17386D2*
X22396D1*
X23158D2*
X24466D1*
X21045Y17310D2*
X22357D1*
X23194D2*
X24478D1*
X21015Y17234D2*
X22318D1*
X23231D2*
X24525D1*
X20972Y17158D2*
X22280D1*
X23268D2*
X24577D1*
X20918Y17082D2*
X22242D1*
X23306D2*
X24628D1*
X20865Y17006D2*
X22207D1*
X23344D2*
X24679D1*
X20818Y16930D2*
X22176D1*
X23379D2*
X24725D1*
X20805Y16854D2*
X22149D1*
X23410D2*
X24760D1*
X20832Y16778D2*
X22122D1*
X23439D2*
X24744D1*
X20879Y16702D2*
X22095D1*
X23474D2*
X24675D1*
X20942Y16626D2*
X21614D1*
X21919D2*
X22071D1*
X23515D2*
X23667D1*
X23881D2*
X24593D1*
X21024Y16550D2*
X21526D1*
X24010D2*
X24502D1*
X21144Y16474D2*
X21403D1*
X24147D2*
X24386D1*
X21323Y16398D2*
X21224D1*
X24314D2*
X24230D1*
X20082Y43908D2*
X20021Y43832D1*
X19971Y43756D1*
X19956Y43680D1*
X19976Y43604D1*
X20039Y43528D1*
X20193Y43452D1*
X20419Y43376D1*
X20690Y43300D1*
X20538Y43224D1*
X20614Y43148D1*
X20689Y43072D1*
X20763Y42996D1*
X20827Y42920D1*
X20877Y42844D1*
X20918Y42768D1*
X20234Y43908D2*
X20302Y43832D1*
X20357Y43756D1*
X20225Y43680D1*
X20082Y43604D1*
X20285Y43528D1*
X20465Y43452D1*
X20600Y43376D1*
X20717Y43300D1*
X20848Y43224D1*
X20994Y43148D1*
X20918Y43832D2*
X20806Y43756D1*
X20707Y43680D1*
X20614Y43604D1*
X20690Y43528D1*
X20766Y43452D1*
X20842Y43376D1*
X20918Y43300D1*
X20994Y43224D1*
X20918Y43148D1*
X21450Y43832D2*
X21610Y43756D1*
X21730Y43680D1*
X21822Y43604D1*
X21862Y43528D1*
X21886Y43452D1*
X21898Y43376D1*
X21903Y43300D1*
X21904Y43224D1*
X21899Y43148D1*
X21886Y43072D1*
X21832Y42996D1*
X21703Y42920D1*
X21518Y42844D1*
X21298Y42768D1*
X22362Y43832D2*
X22356Y43756D1*
X22337Y43680D1*
X22303Y43604D1*
X22268Y43528D1*
X22271Y43452D1*
X22327Y43376D1*
X22405Y43300D1*
X22496Y43224D1*
X22590Y43148D1*
X22417Y43072D1*
X22240Y42996D1*
X22076Y42920D1*
X21932Y42844D1*
X21786Y42768D1*
X21618Y42692D1*
X21425Y42616D1*
X21222Y42540D1*
X21272Y42464D1*
X21325Y42388D1*
X21383Y42312D1*
X21436Y42236D1*
X21478Y42160D1*
X21477Y42084D1*
X21464Y42008D1*
X21440Y41932D1*
X21403Y41856D1*
X21318Y41780D1*
X21222Y41704D1*
X22590Y43832D2*
X22518Y43756D1*
X22438Y43680D1*
X22590D2*
X22631Y43604D1*
X22685Y43528D1*
X22749Y43452D1*
X22818Y43376D1*
X22879Y43300D1*
X22929Y43224D1*
X22942Y43148D1*
X22915Y43072D1*
X22839Y42996D1*
X22742Y42920D1*
X22628Y42844D1*
X22497Y42768D1*
X22355Y42692D1*
X22210Y42616D1*
X22321Y42540D1*
X22419Y42464D1*
X22506Y42388D1*
X22587Y42312D1*
X22665Y42236D1*
X22744Y42160D1*
X22832Y42084D1*
X22935Y42008D1*
X23046Y41932D1*
X21450Y43300D2*
X21409Y43224D1*
X21374Y43148D1*
X21450Y43300D2*
X21490Y43224D1*
X21526Y43148D1*
X23350Y42540D2*
X23303Y42464D1*
X23259Y42388D1*
X23218Y42312D1*
X23179Y42236D1*
X23135Y42160D1*
X23075Y42084D1*
X22991Y42008D1*
X22894Y41932D1*
X23426Y42540D2*
X23455Y42464D1*
X23487Y42388D1*
X23523Y42312D1*
X23566Y42236D1*
X23625Y42160D1*
X23708Y42084D1*
X23806Y42008D1*
X21982Y42388D2*
X21906Y42312D1*
X21982Y42388D2*
X22058Y42312D1*
X20766Y42236D2*
X20769Y42160D1*
X20778Y42084D1*
X20797Y42008D1*
X20820Y41932D1*
X20842Y41856D1*
Y42160D2*
X20886Y42084D1*
X20952Y42008D1*
X21042Y41932D1*
X21146Y41856D1*
X21222Y42160D2*
X21193Y42084D1*
X21158Y42008D1*
X21116Y41932D1*
X21070Y41856D1*
X21830Y42236D2*
Y42160D1*
Y42084D1*
X21982Y42236D2*
Y42160D1*
Y42084D1*
X23958Y42160D2*
X23806Y42084D2*
X23730Y42008D1*
X23882Y42084D2*
X23922Y42008D1*
X23975Y41932D1*
X24034Y41856D1*
X23882Y41780D1*
X23958Y41704D1*
X20538Y42008D2*
X20567Y41932D1*
X20602Y41856D1*
X20647Y41780D1*
X20702Y41704D1*
X20760Y41628D1*
X20817Y41552D1*
X20883Y41476D1*
X20970Y41400D1*
X21070Y41324D1*
X21222Y42008D2*
X21225Y41932D1*
X21237Y41856D1*
X21263Y41780D1*
X21298Y41704D1*
X20690Y41932D2*
X20766Y41856D1*
X21754Y42008D2*
X21742Y41932D1*
X21720Y41856D1*
X21688Y41780D1*
X21646Y41704D1*
X21598Y41628D1*
X21547Y41552D1*
X21483Y41476D1*
X21397Y41400D1*
X21298Y41324D1*
X21906Y42008D2*
X21909Y41932D1*
X21922Y41856D1*
X21952Y41780D1*
X22003Y41704D1*
X22066Y41628D1*
X22137Y41552D1*
X22210Y41476D1*
X23198Y42008D2*
X23186Y41932D1*
X23167Y41856D1*
X23147Y41780D1*
X23134Y41704D1*
X23128Y41628D1*
X23130Y41552D1*
X23141Y41476D1*
X23185Y41400D1*
X23235Y41324D1*
X23283Y41248D1*
X23329Y41172D1*
X23380Y41096D1*
X23440Y41020D1*
X23508Y40944D1*
X23580Y40868D1*
X23658Y40792D1*
X23745Y40716D1*
X23847Y40640D1*
X23958Y40564D1*
X23426Y42008D2*
X23437Y41932D1*
X23457Y41856D1*
X23480Y41780D1*
X23502Y41704D1*
X22894Y41932D2*
X22745Y41856D1*
X22606Y41780D1*
X22484Y41704D1*
X22383Y41628D1*
X22294Y41552D1*
X22210Y41476D1*
X22970Y41932D2*
X22879Y41856D1*
X22775Y41780D1*
X22664Y41704D1*
X22564Y41628D1*
X22487Y41552D1*
X22422Y41476D1*
X22365Y41400D1*
X22316Y41324D1*
X22274Y41248D1*
X22243Y41172D1*
X22222Y41096D1*
X22204Y41020D1*
X22181Y40944D1*
X22160Y40868D1*
X22143Y40792D1*
X22124Y40716D1*
X22095Y40640D1*
X22058Y40564D1*
X22174Y40488D1*
X22303Y40412D1*
X22438Y40336D1*
X22362Y40260D1*
X22286Y40184D1*
X22407Y40108D1*
X22514Y40032D1*
X22473Y39956D1*
X22438Y39880D1*
X24186Y41400D2*
X24017Y41324D1*
X23887Y41248D1*
X23791Y41172D1*
X23755Y41096D1*
X23753Y41020D1*
X23768Y40944D1*
X23797Y40868D1*
X23837Y40792D1*
X23883Y40716D1*
X23923Y40640D1*
X23958Y40564D1*
X24414Y41400D2*
X24607Y41324D1*
X24767Y41248D1*
X24895Y41172D1*
X24997Y41096D1*
X25076Y41020D1*
X25136Y40944D1*
X25182Y40868D1*
X25215Y40792D1*
X25234Y40716D1*
X25243Y40640D1*
X25247Y40564D1*
X25248Y40488D1*
X25246Y40412D1*
X25233Y40336D1*
X25208Y40260D1*
X25125Y40184D1*
X25008Y40108D1*
X24870Y40032D1*
X23046Y41324D2*
X23045Y41248D1*
X23043Y41172D1*
X23033Y41096D1*
X23015Y41020D1*
X22995Y40944D1*
X22981Y40868D1*
X22970Y40792D1*
X23198Y41324D2*
X23197Y41248D1*
X23195Y41172D1*
X23185Y41096D1*
X23167Y41020D1*
X23147Y40944D1*
X23134Y40868D1*
X23130Y40792D1*
X23137Y40716D1*
X23157Y40640D1*
X23191Y40564D1*
X23245Y40488D1*
X23324Y40412D1*
X23423Y40336D1*
X23542Y40260D1*
X23685Y40184D1*
X23853Y40108D1*
X24034Y40032D1*
X24490Y41248D2*
X24246Y41172D1*
X24041Y41096D1*
X23951Y41020D1*
X23905Y40944D1*
X24040Y40868D1*
X24186Y40792D1*
X24034Y41248D2*
X24293Y41172D1*
X24505Y41096D1*
X24664Y41020D1*
X24786Y40944D1*
X24879Y40868D1*
X24953Y40792D1*
X25022Y40716D1*
X24938Y40640D1*
X24828Y40564D1*
X24656Y40488D1*
X24405Y40412D1*
X24110Y40336D1*
X22666Y41096D2*
X22590Y41020D1*
X22517Y40944D1*
X22453Y40868D1*
X22397Y40792D1*
X22435Y40716D1*
X22567Y40640D1*
X22754Y40564D1*
X22970Y40488D1*
X22932Y40412D1*
X22900Y40336D1*
X22868Y40260D1*
X22834Y40184D1*
X22797Y40108D1*
X22758Y40032D1*
X22714Y39956D1*
X22666Y39880D1*
X22742Y41096D2*
X22815Y41020D1*
X22879Y40944D1*
X22929Y40868D1*
X22970Y40792D1*
X24186Y41020D2*
X24262Y40944D1*
X24114Y40868D1*
X23958Y40792D1*
X24338Y41020D2*
X24360Y40944D1*
X24376Y40868D1*
X24344Y40792D1*
X24238Y40716D1*
X24103Y40640D1*
X23958Y40564D1*
X24157Y40488D1*
X24418Y40412D1*
X24718Y40336D1*
X22514Y39956D2*
Y39880D1*
X22666Y40032D2*
Y39956D1*
Y39880D1*
X22451Y20730D2*
X22439Y20654D1*
X22421Y20578D1*
X22401Y20502D1*
X22387Y20426D1*
X22378Y20350D1*
X22363Y20274D1*
X22342Y20198D1*
X22278Y20122D1*
X22087Y20046D1*
X21803Y19970D1*
X21463Y19894D1*
X23059Y20730D2*
X23095Y20654D1*
X23119Y20578D1*
X23140Y20502D1*
X23163Y20426D1*
X23185Y20350D1*
X23203Y20274D1*
X23221Y20198D1*
X23283Y20122D1*
X23470Y20046D1*
X23736Y19970D1*
X24047Y19894D1*
X21159Y20198D2*
X21083Y20122D1*
X21008Y20046D1*
X20935Y19970D1*
X20871Y19894D1*
X20820Y19818D1*
X20806Y19742D1*
X20832Y19666D1*
X20876Y19590D1*
X20928Y19514D1*
X20980Y19438D1*
X21034Y19362D1*
X21095Y19286D1*
X21159Y19210D1*
X21112Y19134D1*
X21068Y19058D1*
X21021Y18982D1*
X20966Y18906D1*
X20836Y18830D1*
X20667Y18754D1*
X20497Y18678D1*
X20354Y18602D1*
X20290Y18526D1*
X20267Y18450D1*
X20255Y18374D1*
X20250Y18298D1*
X20249Y18222D1*
X20255Y18146D1*
X20272Y18070D1*
X20374Y17994D1*
X20529Y17918D1*
X20700Y17842D1*
X20838Y17766D1*
X20943Y17690D1*
X20988Y17614D1*
X21025Y17538D1*
X21049Y17462D1*
X21063Y17386D1*
X21045Y17310D1*
X21015Y17234D1*
X20972Y17158D1*
X20918Y17082D1*
X20865Y17006D1*
X20818Y16930D1*
X20805Y16854D1*
X20832Y16778D1*
X20879Y16702D1*
X20942Y16626D1*
X21024Y16550D1*
X21144Y16474D1*
X21323Y16398D1*
X21539Y16322D1*
X21311Y20198D2*
X21437Y20122D1*
X21603Y20046D1*
X21821Y19970D1*
X22071Y19894D1*
X24199Y20198D2*
X24087Y20122D1*
X23925Y20046D1*
X23699Y19970D1*
X23439Y19894D1*
X24351Y20198D2*
X24439Y20122D1*
X24533Y20046D1*
X24626Y19970D1*
X24699Y19894D1*
X24753Y19818D1*
X24751Y19742D1*
X24716Y19666D1*
X24674Y19590D1*
X24625Y19514D1*
X24568Y19438D1*
X24513Y19362D1*
X24466Y19286D1*
X24452Y19210D1*
X24467Y19134D1*
X24493Y19058D1*
X24530Y18982D1*
X24576Y18906D1*
X24692Y18830D1*
X24852Y18754D1*
X25017Y18678D1*
X25157Y18602D1*
X25221Y18526D1*
X25244Y18450D1*
X25255Y18374D1*
X25260Y18298D1*
X25262Y18222D1*
X25258Y18146D1*
X25248Y18070D1*
X25185Y17994D1*
X25036Y17918D1*
X24875Y17842D1*
X24740Y17766D1*
X24646Y17690D1*
X24580Y17614D1*
X24530Y17538D1*
X24493Y17462D1*
X24466Y17386D1*
X24478Y17310D1*
X24525Y17234D1*
X24577Y17158D1*
X24628Y17082D1*
X24679Y17006D1*
X24725Y16930D1*
X24760Y16854D1*
X24744Y16778D1*
X24675Y16702D1*
X24593Y16626D1*
X24502Y16550D1*
X24386Y16474D1*
X24230Y16398D1*
X24047Y16322D1*
X22679Y18982D2*
X22533Y18906D1*
X22404Y18830D1*
X22301Y18754D1*
X22222Y18678D1*
X22159Y18602D1*
X22116Y18526D1*
X22091Y18450D1*
X22080Y18374D1*
X22075Y18298D1*
Y18222D1*
X22085Y18146D1*
X22106Y18070D1*
X22140Y17994D1*
X22194Y17918D1*
X22270Y17842D1*
X22356Y17766D1*
X22443Y17690D1*
X22527Y17614D1*
X22480Y17538D1*
X22437Y17462D1*
X22396Y17386D1*
X22357Y17310D1*
X22318Y17234D1*
X22280Y17158D1*
X22242Y17082D1*
X22207Y17006D1*
X22176Y16930D1*
X22149Y16854D1*
X22122Y16778D1*
X22095Y16702D1*
X22071Y16626D1*
X22907Y18982D2*
X23044Y18906D1*
X23164Y18830D1*
X23263Y18754D1*
X23342Y18678D1*
X23402Y18602D1*
X23448Y18526D1*
X23480Y18450D1*
X23499Y18374D1*
X23506Y18298D1*
X23500Y18222D1*
X23480Y18146D1*
X23449Y18070D1*
X23404Y17994D1*
X23345Y17918D1*
X23271Y17842D1*
X23194Y17766D1*
X23123Y17690D1*
X23094Y17614D1*
X23104Y17538D1*
X23127Y17462D1*
X23158Y17386D1*
X23194Y17310D1*
X23231Y17234D1*
X23268Y17158D1*
X23306Y17082D1*
X23344Y17006D1*
X23379Y16930D1*
X23410Y16854D1*
X23439Y16778D1*
X23474Y16702D1*
X23515Y16626D1*
X21691Y16702D2*
X21614Y16626D1*
X21526Y16550D1*
X21403Y16474D1*
X21224Y16398D1*
X21007Y16322D1*
X21843Y16702D2*
X21919Y16626D1*
X23743Y16702D2*
X23667Y16626D1*
X23743Y16702D2*
X23881Y16626D1*
X24010Y16550D1*
X24147Y16474D1*
X24314Y16398D1*
X24503Y16322D1*
X30727Y33506D2*
D57*
X31164D1*
X31310Y33556D1*
X31360Y33604D1*
X31408Y33701D1*
Y33798D1*
X31360Y33895D1*
X31310Y33944D1*
X31164Y33993D1*
X30727D1*
Y32972D1*
X31068Y33506D2*
X31408Y32972D1*
X31722Y33993D2*
X32402Y32972D1*
Y33993D2*
X31722Y32972D1*
X31045Y31453D2*
Y30432D1*
X31385D1*
X31531Y30481D1*
X31629Y30578D1*
X31677Y30676D1*
X31725Y30820D1*
Y31064D1*
X31677Y31210D1*
X31629Y31307D1*
X31531Y31404D1*
X31385Y31453D1*
X31045D1*
X32039Y31257D2*
X32137Y31307D1*
X32283Y31452D1*
Y30432D1*
X30727Y28913D2*
Y27892D1*
X31068D1*
X31214Y27941D1*
X31311Y28038D1*
X31360Y28136D1*
X31408Y28280D1*
Y28524D1*
X31360Y28670D1*
X31311Y28767D1*
X31214Y28864D1*
X31068Y28913D1*
X30727D1*
X31771Y28669D2*
Y28717D1*
X31819Y28815D1*
X31868Y28863D1*
X31965Y28912D1*
X32160D1*
X32256Y28863D1*
X32304Y28815D1*
X32354Y28717D1*
Y28621D1*
X32304Y28523D1*
X32208Y28378D1*
X31722Y27892D1*
X32402D1*
X30727Y26373D2*
Y25352D1*
X31068D1*
X31214Y25401D1*
X31311Y25498D1*
X31360Y25596D1*
X31408Y25740D1*
Y25984D1*
X31360Y26130D1*
X31311Y26227D1*
X31214Y26324D1*
X31068Y26373D1*
X30727D1*
X31819Y26372D2*
X32353D1*
X32062Y25983D1*
X32208D1*
X32304Y25935D1*
X32353Y25886D1*
X32402Y25740D1*
Y25644D1*
X32353Y25498D1*
X32256Y25400D1*
X32110Y25352D1*
X31964D1*
X31819Y25400D1*
X31771Y25450D1*
X31722Y25546D1*
X30727Y23833D2*
Y22812D1*
X31068D1*
X31214Y22861D1*
X31311Y22958D1*
X31360Y23056D1*
X31408Y23200D1*
Y23444D1*
X31360Y23590D1*
X31311Y23687D1*
X31214Y23784D1*
X31068Y23833D1*
X30727D1*
X32208Y22812D2*
Y23832D1*
X31722Y23152D1*
X32450D1*
X32091Y21050D2*
X32043Y21147D1*
X31945Y21244D1*
X31849Y21293D1*
X31654D1*
X31557Y21244D1*
X31460Y21147D1*
X31411Y21050D1*
X31362Y20904D1*
Y20660D1*
X31411Y20516D1*
X31460Y20418D1*
X31557Y20321D1*
X31654Y20272D1*
X31849D1*
X31945Y20321D1*
X32043Y20418D1*
X32091Y20516D1*
Y20660D1*
X31849D1*
X31310Y18752D2*
X30825D1*
X30777Y18315D1*
X30825Y18363D1*
X30971Y18412D1*
X31116D1*
X31262Y18363D1*
X31360Y18266D1*
X31408Y18120D1*
Y18024D1*
X31360Y17878D1*
X31262Y17780D1*
X31116Y17732D1*
X30971D1*
X30825Y17780D1*
X30777Y17830D1*
X30727Y17926D1*
X31722Y18753D2*
X32110Y17732D1*
X32499Y18753D1*
X13726Y32972D2*
X13336Y33993D1*
X12947Y32972D1*
X13093Y33312D2*
X13580D1*
X14331Y33992D2*
X14185Y33943D1*
X14088Y33797D1*
X14039Y33555D1*
Y33409D1*
X14088Y33166D1*
X14185Y33020D1*
X14331Y32972D1*
X14428D1*
X14574Y33020D1*
X14670Y33166D1*
X14720Y33409D1*
Y33555D1*
X14670Y33797D1*
X14574Y33943D1*
X14428Y33992D1*
X14331D1*
X14670Y33797D2*
X14088Y33166D1*
X12947Y31453D2*
Y30432D1*
X13288D1*
X13434Y30481D1*
X13531Y30578D1*
X13580Y30676D1*
X13628Y30820D1*
Y31064D1*
X13580Y31210D1*
X13531Y31307D1*
X13434Y31404D1*
X13288Y31453D1*
X12947D1*
X14234Y31452D2*
X14088Y31403D1*
X13990Y31257D1*
X13942Y31015D1*
Y30869D1*
X13990Y30626D1*
X14088Y30480D1*
X14234Y30432D1*
X14330D1*
X14476Y30480D1*
X14573Y30626D1*
X14622Y30869D1*
Y31015D1*
X14573Y31257D1*
X14476Y31403D1*
X14330Y31452D1*
X14234D1*
X14573Y31257D2*
X13990Y30626D1*
X12947Y28913D2*
Y27892D1*
X13288D1*
X13434Y27941D1*
X13531Y28038D1*
X13580Y28136D1*
X13628Y28280D1*
Y28524D1*
X13580Y28670D1*
X13531Y28767D1*
X13434Y28864D1*
X13288Y28913D1*
X12947D1*
X14524Y28912D2*
X14039D1*
X13991Y28475D1*
X14039Y28523D1*
X14185Y28572D1*
X14330D1*
X14476Y28523D1*
X14574Y28426D1*
X14622Y28280D1*
Y28184D1*
X14574Y28038D1*
X14476Y27940D1*
X14330Y27892D1*
X14185D1*
X14039Y27940D1*
X13991Y27990D1*
X13942Y28086D1*
X12947Y26373D2*
Y25352D1*
X13288D1*
X13434Y25401D1*
X13531Y25498D1*
X13580Y25596D1*
X13628Y25740D1*
Y25984D1*
X13580Y26130D1*
X13531Y26227D1*
X13434Y26324D1*
X13288Y26373D1*
X12947D1*
X14524Y26227D2*
X14476Y26323D1*
X14330Y26372D1*
X14234D1*
X14088Y26323D1*
X13990Y26177D1*
X13942Y25935D1*
Y25692D1*
X13990Y25498D1*
X14088Y25400D1*
X14234Y25352D1*
X14282D1*
X14427Y25400D1*
X14524Y25498D1*
X14573Y25644D1*
Y25692D1*
X14524Y25838D1*
X14427Y25935D1*
X14282Y25983D1*
X14234D1*
X14088Y25935D1*
X13990Y25838D1*
X13942Y25692D1*
X12947Y23833D2*
Y22812D1*
X13288D1*
X13434Y22861D1*
X13531Y22958D1*
X13580Y23056D1*
X13628Y23200D1*
Y23444D1*
X13580Y23590D1*
X13531Y23687D1*
X13434Y23784D1*
X13288Y23833D1*
X12947D1*
X14136Y22812D2*
X14622Y23832D1*
X13942D1*
X13045Y18752D2*
X13578D1*
X13288Y18363D1*
X13434D1*
X13530Y18315D1*
X13578Y18266D1*
X13628Y18120D1*
Y18024D1*
X13578Y17878D1*
X13482Y17780D1*
X13336Y17732D1*
X13190D1*
X13045Y17780D1*
X12997Y17830D1*
X12947Y17926D1*
X13942Y18753D2*
X14330Y17732D1*
X14719Y18753D1*
X15130Y18752D2*
X15664D1*
X15373Y18363D1*
X15519D1*
X15615Y18315D1*
X15664Y18266D1*
X15713Y18120D1*
Y18024D1*
X15664Y17878D1*
X15567Y17780D1*
X15421Y17732D1*
X15275D1*
X15130Y17780D1*
X15082Y17830D1*
X15032Y17926D1*
X15707Y13046D2*
D17*
Y10749D1*
X17070Y13046D2*
X16850Y12937D1*
X16632Y12717D1*
X16521Y12500D1*
X16413Y12172D1*
Y11623D1*
X16521Y11297D1*
X16632Y11077D1*
X16850Y10860D1*
X17070Y10749D1*
X17507D1*
X17724Y10860D1*
X17944Y11077D1*
X18053Y11297D1*
X18161Y11623D1*
Y12172D1*
X18053Y12500D1*
X17944Y12717D1*
X17724Y12937D1*
X17507Y13046D1*
X17070D1*
X19633D2*
Y10749D1*
X18867Y13046D2*
X20398D1*
X22855Y10749D2*
X21979Y13046D1*
X21104Y10749D1*
X21433Y11515D2*
X22527D1*
X12947Y21293D2*
D57*
Y20272D1*
X13288D1*
X13434Y20321D1*
X13531Y20418D1*
X13580Y20516D1*
X13628Y20660D1*
Y20904D1*
X13580Y21050D1*
X13531Y21147D1*
X13434Y21244D1*
X13288Y21293D1*
X12947D1*
X14184Y21292D2*
X14039Y21243D1*
X13990Y21147D1*
Y21049D1*
X14039Y20952D1*
X14136Y20903D1*
X14330Y20855D1*
X14476Y20806D1*
X14573Y20709D1*
X14621Y20612D1*
Y20466D1*
X14573Y20370D1*
X14524Y20320D1*
X14378Y20272D1*
X14184D1*
X14039Y20320D1*
X13990Y20370D1*
X13942Y20466D1*
Y20612D1*
X13990Y20709D1*
X14088Y20806D1*
X14232Y20855D1*
X14427Y20903D1*
X14524Y20952D1*
X14573Y21049D1*
Y21147D1*
X14524Y21243D1*
X14378Y21292D1*
X14184D1*
M02*
