G04 DipTrace 3.0.0.2*
G04 iota.GTS*
%MOMM*%
G04 #@! TF.FileFunction,Soldermask,Top*
G04 #@! TF.Part,Single*
%ADD29C,2.54*%
%ADD33C,1.8*%
%ADD38C,1.2*%
%ADD40R,0.8X2.2*%
%ADD42R,2.2X1.3*%
%ADD44C,2.2*%
%ADD46R,2.2X2.2*%
%ADD48R,1.8X1.2*%
%ADD50R,1.8X1.0*%
%ADD52C,1.7*%
%ADD54R,1.7X1.7*%
%ADD56R,1.7X1.5*%
%ADD58R,1.5X1.7*%
%FSLAX35Y35*%
G04*
G71*
G90*
G75*
G01*
G04 TopMask*
%LPD*%
D58*
X1666129Y3615629D3*
X1476129D3*
X3066129D3*
X2876129D3*
D56*
X3171129Y1420629D3*
Y1610629D3*
X2271129Y3858629D3*
Y3668629D3*
D54*
X3414129Y1826629D3*
D52*
Y2080629D3*
Y2334629D3*
Y2588629D3*
Y2842629D3*
Y3096629D3*
Y3350629D3*
Y3604629D3*
D54*
X1128129Y1826629D3*
D52*
Y2080629D3*
Y2334629D3*
Y2588629D3*
Y2842629D3*
Y3096629D3*
Y3350629D3*
Y3604629D3*
D50*
X1593629Y1460629D3*
Y1570629D3*
D48*
X1948629Y1515629D3*
D56*
X1371129Y1420629D3*
Y1610629D3*
D58*
X2366379Y3477629D3*
X2176379D3*
D46*
X1646129Y2965629D3*
D44*
X2896129D3*
X1646129Y2465629D3*
X2896129D3*
D33*
X2271129Y3165629D3*
Y2265629D3*
D42*
X1331129Y4185629D3*
Y4015629D3*
Y3845629D3*
X1811129D3*
Y4015629D3*
Y4185629D3*
X2731129D3*
Y4015629D3*
Y3845629D3*
X3211129D3*
Y4015629D3*
Y4185629D3*
D40*
X2961629Y1785629D3*
X2834629D3*
X2707629D3*
X2580629D3*
Y1245629D3*
X2707629D3*
X2834629D3*
X2961629D3*
D29*
X3414129Y1128129D3*
D38*
D3*
D29*
X1128129Y4303129D3*
D38*
D3*
M02*
