G04 DipTrace 2.4.0.2*
%INiota.GTO*%
%MOMM*%
%ADD10C,0.25*%
%ADD12C,0.076*%
%ADD18C,1.27*%
%ADD26O,0.601X0.6*%
%ADD53C,0.157*%
%FSLAX53Y53*%
G04*
G71*
G90*
G75*
G01*
%LNTopSilk*%
%LPD*%
X17712Y36806D2*
D10*
Y35507D1*
X31712Y36806D2*
Y35507D1*
X32361Y13156D2*
X31062D1*
X22062Y38056D2*
X23361D1*
X15171Y16426D2*
X20251D1*
Y13886D1*
X15171D1*
Y16426D1*
X19711Y24156D2*
X25712D1*
Y30156D1*
X19711D1*
Y24156D1*
X18412Y42656D2*
X13011D1*
X18412Y37656D2*
X13011D1*
D26*
X11995Y42809D3*
X32412Y42656D2*
D10*
X27011D1*
X32412Y37656D2*
X27011D1*
D26*
X25995Y42809D3*
X30211Y16456D2*
D10*
X25211D1*
X30211Y13856D2*
X25211D1*
Y16456D2*
Y13856D1*
X30211Y15657D2*
Y16456D1*
Y14656D2*
Y13856D1*
Y15657D2*
G03X30211Y14656I0J-500D01*
G01*
D18*
X34141Y11281D3*
X22424Y43749D2*
D12*
X23108D1*
X22412Y43673D2*
X23134D1*
X22394Y43597D2*
X23157D1*
X22374Y43521D2*
X23174D1*
X22357Y43445D2*
X23192D1*
X21284Y43369D2*
D3*
X22339D2*
X23216D1*
X24248D2*
X24324D1*
X21173Y43293D2*
X21436D1*
X22286D2*
X23272D1*
X24099D2*
X24403D1*
X21076Y43217D2*
X21630D1*
X22120D2*
X23441D1*
X23931D2*
X24488D1*
X20992Y43141D2*
X21862D1*
X21877D2*
X23703D1*
X23723D2*
X24579D1*
X20926Y43065D2*
X24659D1*
X20878Y42989D2*
X24720D1*
X20875Y42913D2*
X24721D1*
X20901Y42837D2*
X24676D1*
X20941Y42761D2*
X24616D1*
X20994Y42685D2*
X24551D1*
X21047Y42609D2*
X24493D1*
X21093Y42533D2*
X24449D1*
X21108Y42457D2*
X24452D1*
X21090Y42381D2*
X24473D1*
X21062Y42305D2*
X24504D1*
X20978Y42229D2*
X22606D1*
X23017D2*
X24584D1*
X20794Y42153D2*
X22441D1*
X23137D2*
X24755D1*
X20602Y42077D2*
X22318D1*
X23236D2*
X24939D1*
X20432Y42001D2*
X22229D1*
X23314D2*
X25103D1*
X20351Y41925D2*
X22164D1*
X23374D2*
X25182D1*
X20322Y41849D2*
X22141D1*
X23418D2*
X25211D1*
X20307Y41773D2*
X22129D1*
X23449D2*
X25226D1*
X20301Y41697D2*
X22127D1*
X23440D2*
X25232D1*
X20301Y41621D2*
X22137D1*
X23416D2*
X25227D1*
X20331Y41545D2*
X22160D1*
X23375D2*
X25210D1*
X20470Y41469D2*
X22218D1*
X23317D2*
X25100D1*
X20662Y41393D2*
X22290D1*
X23244D2*
X24938D1*
X20838Y41317D2*
X22366D1*
X23169D2*
X24773D1*
X20967Y41241D2*
X22436D1*
X23104D2*
X24650D1*
X21023Y41165D2*
X22465D1*
X23088D2*
X24567D1*
X21064Y41089D2*
X22455D1*
X23107D2*
X24506D1*
X21093Y41013D2*
X22432D1*
X23134D2*
X24453D1*
X21081Y40937D2*
X22401D1*
X23168D2*
X24400D1*
X21034Y40861D2*
X22366D1*
X23204D2*
X24476D1*
X20983Y40785D2*
X22329D1*
X23242D2*
X24549D1*
X20935Y40709D2*
X22291D1*
X23279D2*
X24615D1*
X20896Y40633D2*
X22253D1*
X23317D2*
X24673D1*
X20868Y40557D2*
X22215D1*
X23355D2*
X24726D1*
X20880Y40481D2*
X22179D1*
X23395D2*
X24780D1*
X20929Y40405D2*
X22148D1*
X23440D2*
X24678D1*
X20994Y40329D2*
X21740D1*
X21892D2*
X22120D1*
X23488D2*
X23640D1*
X23792D2*
X24579D1*
X21075Y40253D2*
X21588D1*
X23944D2*
X24489D1*
X21175Y40177D2*
X21436D1*
X24096D2*
X24405D1*
X21284Y40101D2*
D3*
X24248D2*
X24324D1*
X19764Y39721D2*
X19992D1*
X20296D2*
X20676D1*
X21056D2*
X21284D1*
X21512D2*
X21968D1*
X22576D2*
X22880D1*
X23260D2*
X23488D1*
X23716D2*
X23868D1*
X24096D2*
X24248D1*
X24400D2*
X24780D1*
X25008D2*
X25236D1*
X25540D2*
X25768D1*
X19703Y39645D2*
X20062D1*
X20296D2*
X20788D1*
X20869D2*
X21396D1*
X21477D2*
X22003D1*
X22541D2*
X22910D1*
X23190D2*
X23600D1*
X23680D2*
X23868D1*
X24096D2*
X24248D1*
X24400D2*
X25838D1*
X19659Y39569D2*
X20114D1*
X20296D2*
X22025D1*
X22519D2*
X22912D1*
X23138D2*
X23869D1*
X24096D2*
X24248D1*
X24400D2*
X25889D1*
X19634Y39493D2*
X19771D1*
X19986D2*
X20130D1*
X20296D2*
X20448D1*
X20670D2*
X21664D1*
X21968D2*
X22036D1*
X22505D2*
X22917D1*
X23122D2*
X23197D1*
X23482D2*
X23874D1*
X24090D2*
X24248D1*
X24400D2*
X24552D1*
X24856D2*
X25008D1*
X25365D2*
X25899D1*
X19624Y39417D2*
X19784D1*
X19972D2*
X20135D1*
X20296D2*
X20372D1*
X20656D2*
X21664D1*
X21968D2*
X22041D1*
X22488D2*
X22931D1*
X23114D2*
X23244D1*
X23468D2*
X23888D1*
X24076D2*
X24248D1*
X24400D2*
X24552D1*
X24859D2*
X24932D1*
X25289D2*
X25876D1*
X19631Y39341D2*
X19844D1*
X19913D2*
X20127D1*
X20296D2*
X20519D1*
X20597D2*
X21056D1*
X21284D2*
X21396D1*
X21477D2*
X21664D1*
X21968D2*
X22043D1*
X22460D2*
X22576D1*
X22804D2*
X22943D1*
X23110D2*
X23357D1*
X23409D2*
X23948D1*
X24017D2*
X24248D1*
X24400D2*
X24552D1*
X24871D2*
X25079D1*
X25122D2*
X25540D1*
X25844D2*
D3*
X19654Y39265D2*
X20103D1*
X20296D2*
X20752D1*
X20904D2*
X21664D1*
X21968D2*
X22044D1*
X22424D2*
X22951D1*
X23109D2*
X23564D1*
X23716D2*
X24248D1*
X24400D2*
X24552D1*
X24897D2*
X25884D1*
X19688Y39189D2*
X20068D1*
X20296D2*
X20752D1*
X20980D2*
X21664D1*
X21968D2*
X22044D1*
X22500D2*
X22956D1*
X23108D2*
X23564D1*
X23792D2*
X24248D1*
X24400D2*
X24552D1*
X24932D2*
X25312D1*
X25464D2*
X25920D1*
X20296Y39113D2*
X20372D1*
X20296Y39037D2*
X20375D1*
X22424D2*
X22576D1*
X20296Y38961D2*
X20387D1*
X22410D2*
X22576D1*
X20296Y38885D2*
X20413D1*
X20524D2*
X20600D1*
X21056D2*
X21208D1*
X21816D2*
X21892D1*
X22196D2*
X22272D1*
X22384D2*
X22576D1*
X23716D2*
X23868D1*
X24476D2*
X24552D1*
X24932D2*
X25008D1*
X20296Y38809D2*
X20752D1*
X20904D2*
X21304D1*
X21711D2*
X22804D1*
X23032D2*
X23184D1*
X23547D2*
X23964D1*
X24371D2*
X25104D1*
X20296Y38733D2*
X21382D1*
X21633D2*
X22818D1*
X22983D2*
X23198D1*
X23424D2*
X24042D1*
X24293D2*
X25182D1*
X20296Y38657D2*
X20463D1*
X20676D2*
X20828D1*
X21056D2*
X21410D1*
X21609D2*
X21755D1*
X22044D2*
X22196D1*
X22418D2*
X22845D1*
X22933D2*
X23225D1*
X23336D2*
X23488D1*
X23716D2*
X24070D1*
X24269D2*
X24400D1*
X24704D2*
X25210D1*
X20296Y38581D2*
X20419D1*
X20676D2*
X21425D1*
X21597D2*
X21711D1*
X22044D2*
X22120D1*
X22404D2*
X22576D1*
X22731D2*
X24085D1*
X24257D2*
X24400D1*
X24705D2*
X25224D1*
X20296Y38505D2*
X20393D1*
X20676D2*
X21432D1*
X21591D2*
X21685D1*
X22047D2*
X22267D1*
X22345D2*
X22576D1*
X22741D2*
X23400D1*
X23570D2*
X24092D1*
X24251D2*
X24400D1*
X24710D2*
X25225D1*
X20296Y38429D2*
X20381D1*
X20676D2*
X21435D1*
X21589D2*
X21673D1*
X22059D2*
X22576D1*
X22760D2*
X23046D1*
X23184D2*
X23381D1*
X23584D2*
X24095D1*
X24249D2*
X24400D1*
X24724D2*
X25215D1*
X20296Y38353D2*
X20375D1*
X20676D2*
X21436D1*
X21589D2*
X21667D1*
X22085D2*
X22576D1*
X22782D2*
X22997D1*
X23184D2*
X23358D1*
X23644D2*
X24096D1*
X24248D2*
X24400D1*
X24783D2*
X25156D1*
X20296Y38277D2*
X20372D1*
X20676D2*
X20828D1*
X21056D2*
X21436D1*
X21588D2*
X21664D1*
X22120D2*
X22576D1*
X22804D2*
X22956D1*
X23184D2*
X23336D1*
X23716D2*
X24096D1*
X24248D2*
X24400D1*
X24856D2*
X25084D1*
X22932Y23588D2*
X23084D1*
X22871Y23512D2*
X23192D1*
X24148D2*
X24680D1*
X26048D2*
D3*
X26352D2*
D3*
X22827Y23436D2*
X23008D1*
X23160D2*
X23277D1*
X23975D2*
X24932D1*
X26045D2*
X26048D1*
X26314D2*
X26352D1*
X22798Y23360D2*
X22858D1*
X23008D2*
X23242D1*
X23826D2*
X25114D1*
X26037D2*
X26124D1*
X26280D2*
X26356D1*
X22797Y23284D2*
X22951D1*
X23084D2*
X23135D1*
X23692D2*
X25250D1*
X25999D2*
X26160D1*
X26243D2*
X26368D1*
X22823Y23208D2*
X23087D1*
X23768D2*
X25309D1*
X25744D2*
X25820D1*
X25915D2*
X26399D1*
X22891Y23132D2*
X23279D1*
X23844D2*
X25351D1*
X25795D2*
X26452D1*
X23072Y23056D2*
X23479D1*
X23921D2*
X25385D1*
X25851D2*
X26526D1*
X23351Y22980D2*
X23635D1*
X23999D2*
X25411D1*
X25928D2*
X26614D1*
X23692Y22904D2*
X23773D1*
X24082D2*
X25427D1*
X26031D2*
X26705D1*
X23540Y22828D2*
X23957D1*
X24165D2*
X24694D1*
X24894D2*
X25434D1*
X26149D2*
X26780D1*
X23619Y22752D2*
X24221D1*
X24238D2*
X24721D1*
X24792D2*
X25435D1*
X26257D2*
X26837D1*
X23702Y22676D2*
X25423D1*
X26352D2*
X26859D1*
X23790Y22600D2*
X25399D1*
X26107D2*
X26776D1*
X23877Y22524D2*
X25332D1*
X25864D2*
X26671D1*
X23965Y22448D2*
X25164D1*
X25648D2*
X26549D1*
X24057Y22372D2*
X24911D1*
X25472D2*
X26412D1*
X24148Y22296D2*
X24604D1*
X25314D2*
X26261D1*
X25138Y22220D2*
X26106D1*
X24923Y22144D2*
X25958D1*
X24687Y22068D2*
X25820D1*
X27416D2*
D3*
X24452Y21992D2*
X25669D1*
X25820D2*
X25967D1*
X27367D2*
X27416D1*
X24528Y21916D2*
X25595D1*
X25747D2*
X26086D1*
X27316D2*
X27489D1*
X24604Y21840D2*
X25529D1*
X25681D2*
X26187D1*
X27264D2*
X27555D1*
X24680Y21764D2*
X25474D1*
X25626D2*
X26283D1*
X27214D2*
X27610D1*
X23844Y21688D2*
D3*
X24756D2*
X25428D1*
X25583D2*
X26381D1*
X27163D2*
X27658D1*
X23856Y21612D2*
X23920D1*
X24528D2*
D3*
X24832D2*
X25386D1*
X25550D2*
X26481D1*
X27112D2*
X27705D1*
X23875Y21536D2*
X23971D1*
X24481D2*
X24528D1*
X24908D2*
X25346D1*
X25529D2*
X26583D1*
X27062D2*
X27766D1*
X28100D2*
X28176D1*
X23892Y21460D2*
X24030D1*
X24435D2*
X24528D1*
X24861D2*
X25308D1*
X25510D2*
X26692D1*
X27008D2*
X27850D1*
X27913D2*
X28147D1*
X23540Y21384D2*
D3*
X23900D2*
X24115D1*
X24380D2*
X24529D1*
X24817D2*
X25270D1*
X25488D2*
X26808D1*
X26944D2*
X27358D1*
X27504D2*
X28155D1*
X23581Y21308D2*
X23768D1*
X23876D2*
X24235D1*
X24309D2*
X24532D1*
X24771D2*
X25231D1*
X25470D2*
X26689D1*
X26863D2*
X27248D1*
X27527D2*
X28200D1*
X23633Y21232D2*
X24543D1*
X24710D2*
X25193D1*
X25460D2*
X26552D1*
X26760D2*
X27167D1*
X27565D2*
X28252D1*
X23688Y21156D2*
X24569D1*
X24626D2*
X25152D1*
X25481D2*
X26402D1*
X26638D2*
X27111D1*
X27618D2*
X28176D1*
X23741Y21080D2*
X25104D1*
X25521D2*
X26257D1*
X26511D2*
X27074D1*
X27737D2*
X28100D1*
X23795Y21004D2*
X25046D1*
X25582D2*
X26129D1*
X26396D2*
X27053D1*
X27872D2*
X28176D1*
X23858Y20928D2*
X24978D1*
X25659D2*
X26026D1*
X26296D2*
X27043D1*
X23929Y20852D2*
X24903D1*
X25739D2*
X25953D1*
X26209D2*
X27039D1*
X24018Y20776D2*
X24816D1*
X25820D2*
X25896D1*
X26131D2*
X27037D1*
X24135Y20700D2*
X24710D1*
X26062D2*
X27036D1*
X27188D2*
D3*
X28480D2*
X28860D1*
X24285Y20624D2*
X24585D1*
X26007D2*
X27033D1*
X27188D2*
X27264D1*
X28299D2*
X29079D1*
X19969Y20548D2*
X20273D1*
X24452D2*
D3*
X25960D2*
X27023D1*
X27188D2*
X27279D1*
X28148D2*
X29265D1*
X19938Y20472D2*
X20269D1*
X25918D2*
X27002D1*
X27185D2*
X27311D1*
X28037D2*
X29418D1*
X19941Y20396D2*
X20258D1*
X25878D2*
X26973D1*
X27176D2*
X27361D1*
X27954D2*
X28283D1*
X29009D2*
X29545D1*
X15789Y20320D2*
X16017D1*
X19954D2*
X20232D1*
X25840D2*
X26942D1*
X27157D2*
X27425D1*
X27918D2*
X28182D1*
X29148D2*
X29647D1*
X15789Y20244D2*
X16017D1*
X19969D2*
X20197D1*
X25804D2*
X26343D1*
X26656D2*
X26915D1*
X27138D2*
X27496D1*
X27923D2*
X28131D1*
X28556D2*
X28632D1*
X29269D2*
X29725D1*
X15789Y20168D2*
X16017D1*
X25773D2*
X26258D1*
X26732D2*
X26899D1*
X27125D2*
X27572D1*
X27943D2*
X28215D1*
X28632D2*
X28702D1*
X29371D2*
X29791D1*
X15789Y20092D2*
X16017D1*
X25747D2*
X26181D1*
X26808D2*
X26890D1*
X27118D2*
X27657D1*
X27976D2*
X28409D1*
X28449D2*
X28752D1*
X29456D2*
X29855D1*
X15789Y20016D2*
X16017D1*
X25720D2*
X26114D1*
X26884D2*
D3*
X27114D2*
X27752D1*
X28024D2*
X28768D1*
X29524D2*
X29913D1*
X15485Y19940D2*
X16397D1*
X17005D2*
X17613D1*
X18297D2*
X18525D1*
X18677D2*
X19285D1*
X19969D2*
X20273D1*
X20957D2*
X21565D1*
X21945D2*
X22173D1*
X22932D2*
X23160D1*
X23692D2*
X24224D1*
X25696D2*
X26048D1*
X27113D2*
X27850D1*
X28093D2*
X28597D1*
X29578D2*
X29955D1*
X15485Y19864D2*
X16397D1*
X16894D2*
X17721D1*
X18297D2*
X19393D1*
X19969D2*
X20273D1*
X20846D2*
X21681D1*
X21945D2*
X22173D1*
X22932D2*
X23160D1*
X23596D2*
X24293D1*
X25683D2*
X26168D1*
X27116D2*
X27952D1*
X28176D2*
X28310D1*
X29600D2*
X29980D1*
X15485Y19788D2*
X16397D1*
X16799D2*
X17809D1*
X18297D2*
X19481D1*
X19969D2*
X20273D1*
X20751D2*
X21793D1*
X21945D2*
X22173D1*
X22932D2*
X23160D1*
X23519D2*
X24347D1*
X25676D2*
X26327D1*
X27124D2*
X28068D1*
X29538D2*
X29992D1*
X15485Y19712D2*
X16397D1*
X16724D2*
X17263D1*
X17352D2*
X17875D1*
X18297D2*
X18935D1*
X19024D2*
X19546D1*
X19969D2*
X20273D1*
X20677D2*
X21717D1*
X21945D2*
X22173D1*
X22932D2*
X23160D1*
X23491D2*
X23872D1*
X23996D2*
X24292D1*
X25701D2*
X26503D1*
X27170D2*
X28218D1*
X29391D2*
X29997D1*
X15789Y19636D2*
X16017D1*
X16672D2*
X17101D1*
X17507D2*
X17923D1*
X18297D2*
X18773D1*
X19179D2*
X19595D1*
X19969D2*
X20273D1*
X20618D2*
X20960D1*
X21489D2*
X21641D1*
X21945D2*
X22173D1*
X22932D2*
X23160D1*
X23476D2*
X23774D1*
X24148D2*
X24224D1*
X25804D2*
X26650D1*
X27243D2*
X28441D1*
X29148D2*
X29999D1*
X15789Y19560D2*
X16017D1*
X16634D2*
X16971D1*
X17613D2*
X17957D1*
X18297D2*
X18643D1*
X19284D2*
X19629D1*
X19969D2*
X20273D1*
X20594D2*
X20896D1*
X21945D2*
X22173D1*
X22932D2*
X23160D1*
X23472D2*
X23692D1*
X25953D2*
X26765D1*
X27339D2*
X28770D1*
X28777D2*
X29996D1*
X15789Y19484D2*
X16017D1*
X16603D2*
X16904D1*
X17681D2*
X17977D1*
X18297D2*
X18576D1*
X19353D2*
X19648D1*
X19969D2*
X20273D1*
X20573D2*
X20851D1*
X21945D2*
X22173D1*
X22932D2*
X23160D1*
X23476D2*
X23893D1*
X26124D2*
X26749D1*
X27454D2*
X29984D1*
X15789Y19408D2*
X16017D1*
X16578D2*
X16878D1*
X17731D2*
X17986D1*
X18297D2*
X18549D1*
X19403D2*
X19658D1*
X19969D2*
X20273D1*
X20552D2*
X20826D1*
X21945D2*
X22173D1*
X22930D2*
X23160D1*
X23508D2*
X24077D1*
X26075D2*
X26719D1*
X27589D2*
X29959D1*
X15789Y19332D2*
X16017D1*
X16565D2*
X16866D1*
X17745D2*
X17990D1*
X18297D2*
X18535D1*
X19417D2*
X19662D1*
X19969D2*
X20273D1*
X20540D2*
X20814D1*
X21945D2*
X22173D1*
X22920D2*
X23160D1*
X23602D2*
X24224D1*
X26025D2*
X26688D1*
X27743D2*
X29886D1*
X15789Y19256D2*
X16017D1*
X16567D2*
X16870D1*
X17744D2*
X17991D1*
X18297D2*
X18532D1*
X19421D2*
X19663D1*
X19969D2*
X20273D1*
X20545D2*
X20811D1*
X21945D2*
X22175D1*
X22899D2*
X23160D1*
X23739D2*
X24328D1*
X25972D2*
X26048D1*
X26200D2*
X26657D1*
X27921D2*
X29779D1*
X15789Y19180D2*
X16021D1*
X16585D2*
X16890D1*
X17731D2*
X17989D1*
X18297D2*
X18536D1*
X19395D2*
X19661D1*
X19969D2*
X20273D1*
X20559D2*
X20817D1*
X21945D2*
X22187D1*
X22868D2*
X23160D1*
X23892D2*
X24404D1*
X26200D2*
X26620D1*
X28120D2*
X29633D1*
X15789Y19104D2*
X16031D1*
X16613D2*
X16923D1*
X17684D2*
X17979D1*
X18297D2*
X18572D1*
X19337D2*
X19651D1*
X19969D2*
X20273D1*
X20579D2*
X20861D1*
X21947D2*
X22209D1*
X22830D2*
X23160D1*
X24015D2*
X24429D1*
X26200D2*
X26352D1*
X26504D2*
X26578D1*
X28328D2*
X29468D1*
X15789Y19028D2*
X16083D1*
X16647D2*
X17019D1*
X17523D2*
X17956D1*
X18297D2*
X18707D1*
X19190D2*
X19627D1*
X19969D2*
X20273D1*
X20606D2*
X21017D1*
X21565D2*
D3*
X21957D2*
X22285D1*
X22747D2*
X23160D1*
X23540D2*
D3*
X24104D2*
X24439D1*
X26200D2*
X26276D1*
X26504D2*
X26543D1*
X15792Y18952D2*
X16187D1*
X16689D2*
X17256D1*
X17259D2*
X17913D1*
X18297D2*
X18929D1*
X18961D2*
X19586D1*
X19969D2*
X20273D1*
X20641D2*
X21263D1*
X21310D2*
X21641D1*
X21979D2*
X22476D1*
X22554D2*
X23160D1*
X23481D2*
X23692D1*
X24148D2*
X24440D1*
X26200D2*
D3*
X26504D2*
X26521D1*
X15805Y18876D2*
X16281D1*
X16749D2*
X17848D1*
X18297D2*
X19523D1*
X19969D2*
X20273D1*
X20689D2*
X21717D1*
X22011D2*
X23160D1*
X23429D2*
X24403D1*
X26504D2*
D3*
X15835Y18800D2*
X16353D1*
X16838D2*
X17760D1*
X18297D2*
X19446D1*
X19969D2*
X20273D1*
X20759D2*
X21793D1*
X22055D2*
X23160D1*
X23476D2*
X24340D1*
X15884Y18724D2*
X16378D1*
X16954D2*
X17653D1*
X18297D2*
X18525D1*
X18677D2*
X19366D1*
X19969D2*
X20273D1*
X20851D2*
X21641D1*
X22111D2*
X22780D1*
X22932D2*
X23160D1*
X23542D2*
X24251D1*
X15941Y18648D2*
X16397D1*
X17081D2*
X17537D1*
X18297D2*
X18525D1*
X18753D2*
X19285D1*
X19969D2*
X20273D1*
X20957D2*
X21489D1*
X22173D2*
X22628D1*
X22932D2*
X23160D1*
X23616D2*
X24148D1*
X18297Y18572D2*
X18525D1*
X18297Y18496D2*
X18525D1*
X18297Y18420D2*
X18525D1*
X18297Y18344D2*
X18525D1*
X18297Y18268D2*
X18525D1*
X18297Y18192D2*
X18525D1*
X18297Y18116D2*
X18525D1*
X18297Y18040D2*
X18525D1*
X18297Y17964D2*
X18525D1*
X16106Y13607D2*
X16942D1*
X20362D2*
X21882D1*
X22338D2*
X22566D1*
X16106Y13531D2*
X16942D1*
X18234D2*
X18462D1*
X20362D2*
X21846D1*
X22222D2*
X22566D1*
X16106Y13455D2*
X16942D1*
X18085D2*
X18465D1*
X20362D2*
X21806D1*
X22110D2*
X22566D1*
X16106Y13379D2*
X16942D1*
X17946D2*
X18475D1*
X20362D2*
X21958D1*
X22186D2*
X22566D1*
X16106Y13303D2*
X16942D1*
X17825D2*
X18493D1*
X20362D2*
X21900D1*
X22087D2*
X22566D1*
X16106Y13227D2*
X16942D1*
X17727D2*
X18512D1*
X20362D2*
X21856D1*
X22008D2*
X22566D1*
X16107Y13151D2*
X16942D1*
X17651D2*
X18525D1*
X20362D2*
X21863D1*
X21944D2*
X22566D1*
X16113Y13075D2*
X16942D1*
X17594D2*
X18504D1*
X20362D2*
X22566D1*
X16126Y12999D2*
X16562D1*
X16714D2*
X16942D1*
X17586D2*
X18419D1*
X20362D2*
X20970D1*
X21228D2*
X21198D1*
X21314D2*
X22566D1*
X16186Y12923D2*
X16182D1*
X16711D2*
X16942D1*
X17626D2*
X18310D1*
X18614D2*
X18842D1*
X19070D2*
X19146D1*
X19298D2*
X19526D1*
X20362D2*
X20818D1*
X21125D2*
X22566D1*
X16699Y12847D2*
X16942D1*
X17713D2*
X18200D1*
X18477D2*
X18873D1*
X19227D2*
X19663D1*
X21085D2*
X21882D1*
X16106Y12771D2*
X16562D1*
X16673D2*
X16942D1*
X17816D2*
X18100D1*
X18357D2*
X18873D1*
X19146D2*
X19784D1*
X21063D2*
X21882D1*
X16106Y12695D2*
X16942D1*
X17930D2*
X18006D1*
X18256D2*
X18875D1*
X18994D2*
D3*
X19176D2*
X19885D1*
X21053D2*
X21882D1*
X16106Y12619D2*
X16942D1*
X18170D2*
X18891D1*
X18959D2*
X19070D1*
X19166D2*
X19973D1*
X21048D2*
X21882D1*
X16106Y12543D2*
X16939D1*
X18098D2*
X20052D1*
X21047D2*
X21350D1*
X21578D2*
X21882D1*
X16106Y12467D2*
X16926D1*
X18041D2*
X20120D1*
X21046D2*
X21882D1*
X16106Y12391D2*
X16901D1*
X17994D2*
X18781D1*
X19452D2*
X20176D1*
X21274D2*
X21882D1*
X16106Y12315D2*
X16838D1*
X17952D2*
X18661D1*
X19091D2*
X19374D1*
X19491D2*
X20220D1*
X21046D2*
X21122D1*
X21238D2*
X21882D1*
X16106Y12239D2*
X16770D1*
X16942D2*
D3*
X17915D2*
X18562D1*
X18845D2*
X20255D1*
X21046D2*
X21882D1*
X16106Y12163D2*
X16710D1*
X16852D2*
X16942D1*
X17886D2*
X18486D1*
X18669D2*
X18918D1*
X19298D2*
X20283D1*
X21046D2*
X21882D1*
X16106Y12087D2*
X16698D1*
X16750D2*
X16942D1*
X17869D2*
X18430D1*
X18597D2*
X18769D1*
X18918D2*
X19298D1*
X19462D2*
X19587D1*
X19739D2*
X20310D1*
X21046D2*
X21882D1*
X16106Y12011D2*
X16522D1*
X16638D2*
X16942D1*
X17860D2*
X18386D1*
X18538D2*
X18706D1*
X18857D2*
X19309D1*
X19478D2*
X19631D1*
X19784D2*
X20334D1*
X21046D2*
X21882D1*
X16106Y11935D2*
X16942D1*
X17857D2*
X18661D1*
X18813D2*
X19348D1*
X19492D2*
X19661D1*
X19809D2*
X20349D1*
X21046D2*
X21882D1*
X16106Y11859D2*
X16942D1*
X17855D2*
X18310D1*
X18462D2*
X18631D1*
X18783D2*
X18929D1*
X19146D2*
X19431D1*
X19476D2*
X19662D1*
X19821D2*
X20356D1*
X21046D2*
X21882D1*
X16106Y11783D2*
X16942D1*
X17855D2*
X18310D1*
X18462D2*
X18634D1*
X18782D2*
X18968D1*
X19222D2*
X19635D1*
X19824D2*
X20360D1*
X21046D2*
X21882D1*
X16106Y11707D2*
X16942D1*
X17854D2*
X18310D1*
X18462D2*
X18652D1*
X18809D2*
X19051D1*
X19111D2*
X19568D1*
X19816D2*
X20358D1*
X21046D2*
X21882D1*
X16106Y11631D2*
X16942D1*
X17855D2*
X18686D1*
X18881D2*
X19477D1*
X19796D2*
X20349D1*
X21046D2*
X21882D1*
X16106Y11555D2*
X16942D1*
X17857D2*
X18422D1*
X18503D2*
X18734D1*
X18988D2*
X19374D1*
X19764D2*
X20331D1*
X21046D2*
X21882D1*
X16106Y11479D2*
X16337D1*
X16483D2*
X16942D1*
X17867D2*
X18869D1*
X19133D2*
X19070D1*
X19256D2*
X19638D1*
X19724D2*
X20308D1*
X21046D2*
X21882D1*
X16106Y11403D2*
X16349D1*
X16471D2*
X16942D1*
X17888D2*
X18194D1*
X18275D2*
X19065D1*
X19100D2*
X20283D1*
X21046D2*
X21882D1*
X16106Y11327D2*
X16375D1*
X16445D2*
X16942D1*
X17920D2*
X20248D1*
X21046D2*
X21882D1*
X16106Y11251D2*
X16942D1*
X17962D2*
X18726D1*
X18807D2*
X20204D1*
X21046D2*
X21882D1*
X16106Y11175D2*
X16942D1*
X18010D2*
X18400D1*
X18524D2*
X18918D1*
X19298D2*
X20157D1*
X21046D2*
X21882D1*
X16106Y11099D2*
X16942D1*
X18061D2*
X18427D1*
X18498D2*
X20105D1*
X21046D2*
X21882D1*
X16106Y11023D2*
X16942D1*
X18123D2*
X20041D1*
X21046D2*
X21882D1*
X16106Y10947D2*
X16942D1*
X18203D2*
X19957D1*
X21046D2*
X21882D1*
X16106Y10871D2*
X16942D1*
X18294D2*
X19844D1*
X21046D2*
X21882D1*
X16106Y10795D2*
X16942D1*
X18386D2*
X18462D1*
X18644D2*
X19701D1*
X21046D2*
X21882D1*
X16106Y10719D2*
X16942D1*
X18733D2*
X19540D1*
X21046D2*
X21882D1*
X16106Y10643D2*
X16942D1*
X18842D2*
X19374D1*
X21046D2*
X21882D1*
X22424Y43749D2*
X22412Y43673D1*
X22394Y43597D1*
X22374Y43521D1*
X22357Y43445D1*
X22339Y43369D1*
X22286Y43293D1*
X22120Y43217D1*
X21877Y43141D1*
X21588Y43065D1*
X23108Y43749D2*
X23134Y43673D1*
X23157Y43597D1*
X23174Y43521D1*
X23192Y43445D1*
X23216Y43369D1*
X23272Y43293D1*
X23441Y43217D1*
X23703Y43141D1*
X24020Y43065D1*
X21284Y43369D2*
X21173Y43293D1*
X21076Y43217D1*
X20992Y43141D1*
X20926Y43065D1*
X20878Y42989D1*
X20875Y42913D1*
X20901Y42837D1*
X20941Y42761D1*
X20994Y42685D1*
X21047Y42609D1*
X21093Y42533D1*
X21108Y42457D1*
X21090Y42381D1*
X21062Y42305D1*
X20978Y42229D1*
X20794Y42153D1*
X20602Y42077D1*
X20432Y42001D1*
X20351Y41925D1*
X20322Y41849D1*
X20307Y41773D1*
X20301Y41697D1*
Y41621D1*
X20331Y41545D1*
X20470Y41469D1*
X20662Y41393D1*
X20838Y41317D1*
X20967Y41241D1*
X21023Y41165D1*
X21064Y41089D1*
X21093Y41013D1*
X21081Y40937D1*
X21034Y40861D1*
X20983Y40785D1*
X20935Y40709D1*
X20896Y40633D1*
X20868Y40557D1*
X20880Y40481D1*
X20929Y40405D1*
X20994Y40329D1*
X21075Y40253D1*
X21175Y40177D1*
X21284Y40101D1*
X24248Y43369D2*
X24099Y43293D1*
X23931Y43217D1*
X23723Y43141D1*
X23488Y43065D1*
X24324Y43369D2*
X24403Y43293D1*
X24488Y43217D1*
X24579Y43141D1*
X24659Y43065D1*
X24720Y42989D1*
X24721Y42913D1*
X24676Y42837D1*
X24616Y42761D1*
X24551Y42685D1*
X24493Y42609D1*
X24449Y42533D1*
X24452Y42457D1*
X24473Y42381D1*
X24504Y42305D1*
X24584Y42229D1*
X24755Y42153D1*
X24939Y42077D1*
X25103Y42001D1*
X25182Y41925D1*
X25211Y41849D1*
X25226Y41773D1*
X25232Y41697D1*
X25227Y41621D1*
X25210Y41545D1*
X25100Y41469D1*
X24938Y41393D1*
X24773Y41317D1*
X24650Y41241D1*
X24567Y41165D1*
X24506Y41089D1*
X24453Y41013D1*
X24400Y40937D1*
X24476Y40861D1*
X24549Y40785D1*
X24615Y40709D1*
X24673Y40633D1*
X24726Y40557D1*
X24780Y40481D1*
X24678Y40405D1*
X24579Y40329D1*
X24489Y40253D1*
X24405Y40177D1*
X24324Y40101D1*
X21436Y43293D2*
X21630Y43217D1*
X21862Y43141D1*
X22120Y43065D1*
X22804Y42305D2*
X22606Y42229D1*
X22441Y42153D1*
X22318Y42077D1*
X22229Y42001D1*
X22164Y41925D1*
X22141Y41849D1*
X22129Y41773D1*
X22127Y41697D1*
X22137Y41621D1*
X22160Y41545D1*
X22218Y41469D1*
X22290Y41393D1*
X22366Y41317D1*
X22436Y41241D1*
X22465Y41165D1*
X22455Y41089D1*
X22432Y41013D1*
X22401Y40937D1*
X22366Y40861D1*
X22329Y40785D1*
X22291Y40709D1*
X22253Y40633D1*
X22215Y40557D1*
X22179Y40481D1*
X22148Y40405D1*
X22120Y40329D1*
X22880Y42305D2*
X23017Y42229D1*
X23137Y42153D1*
X23236Y42077D1*
X23314Y42001D1*
X23374Y41925D1*
X23418Y41849D1*
X23449Y41773D1*
X23440Y41697D1*
X23416Y41621D1*
X23375Y41545D1*
X23317Y41469D1*
X23244Y41393D1*
X23169Y41317D1*
X23104Y41241D1*
X23088Y41165D1*
X23107Y41089D1*
X23134Y41013D1*
X23168Y40937D1*
X23204Y40861D1*
X23242Y40785D1*
X23279Y40709D1*
X23317Y40633D1*
X23355Y40557D1*
X23395Y40481D1*
X23440Y40405D1*
X23488Y40329D1*
X21892Y40405D2*
X21740Y40329D1*
X21588Y40253D1*
X21436Y40177D1*
X21284Y40101D1*
X21816Y40405D2*
X21892Y40329D1*
X23716Y40405D2*
X23640Y40329D1*
Y40405D2*
X23792Y40329D1*
X23944Y40253D1*
X24096Y40177D1*
X24248Y40101D1*
X19764Y39721D2*
X19703Y39645D1*
X19659Y39569D1*
X19634Y39493D1*
X19624Y39417D1*
X19631Y39341D1*
X19654Y39265D1*
X19688Y39189D1*
X19992Y39721D2*
X20062Y39645D1*
X20114Y39569D1*
X20130Y39493D1*
X20135Y39417D1*
X20127Y39341D1*
X20103Y39265D1*
X20068Y39189D1*
X20296Y39721D2*
Y39645D1*
Y39569D1*
Y39493D1*
Y39417D1*
Y39341D1*
Y39265D1*
Y39189D1*
Y39113D1*
Y39037D1*
Y38961D1*
Y38885D1*
Y38809D1*
Y38733D1*
Y38657D1*
Y38581D1*
Y38505D1*
Y38429D1*
Y38353D1*
Y38277D1*
X20676Y39721D2*
X20788Y39645D1*
X20904Y39569D1*
X21056Y39721D2*
X20869Y39645D1*
X20676Y39569D1*
X21284Y39721D2*
X21396Y39645D1*
X21512Y39569D1*
Y39721D2*
X21477Y39645D1*
X21436Y39569D1*
X21968Y39721D2*
X22003Y39645D1*
X22025Y39569D1*
X22036Y39493D1*
X22041Y39417D1*
X22043Y39341D1*
X22044Y39265D1*
Y39189D1*
X22576Y39721D2*
X22541Y39645D1*
X22519Y39569D1*
X22505Y39493D1*
X22488Y39417D1*
X22460Y39341D1*
X22424Y39265D1*
X22500Y39189D1*
X22880Y39721D2*
X22910Y39645D1*
X22912Y39569D1*
X22917Y39493D1*
X22931Y39417D1*
X22943Y39341D1*
X22951Y39265D1*
X22956Y39189D1*
X23260Y39721D2*
X23190Y39645D1*
X23138Y39569D1*
X23122Y39493D1*
X23114Y39417D1*
X23110Y39341D1*
X23109Y39265D1*
X23108Y39189D1*
X23488Y39721D2*
X23600Y39645D1*
X23716Y39569D1*
Y39721D2*
X23680Y39645D1*
X23640Y39569D1*
X23868Y39721D2*
Y39645D1*
X23869Y39569D1*
X23874Y39493D1*
X23888Y39417D1*
X23948Y39341D1*
X24020Y39265D1*
X24096Y39721D2*
Y39645D1*
Y39569D1*
X24090Y39493D1*
X24076Y39417D1*
X24017Y39341D1*
X23944Y39265D1*
X24248Y39721D2*
Y39645D1*
Y39569D1*
Y39493D1*
Y39417D1*
Y39341D1*
Y39265D1*
Y39189D1*
X24400Y39721D2*
Y39645D1*
Y39569D1*
Y39493D1*
Y39417D1*
Y39341D1*
Y39265D1*
Y39189D1*
X24780Y39721D2*
X24856Y39645D1*
X25008Y39721D2*
X24932Y39645D1*
X25236Y39721D2*
X25312Y39645D1*
X25540Y39721D2*
X25464Y39645D1*
X25768Y39721D2*
X25838Y39645D1*
X25889Y39569D1*
X25899Y39493D1*
X25876Y39417D1*
X25844Y39341D1*
X25884Y39265D1*
X25920Y39189D1*
X19764Y39569D2*
X19771Y39493D1*
X19784Y39417D1*
X19844Y39341D1*
X19916Y39265D1*
X19992Y39569D2*
X19986Y39493D1*
X19972Y39417D1*
X19913Y39341D1*
X19840Y39265D1*
X20524Y39569D2*
X20448Y39493D1*
X20372Y39417D1*
X20519Y39341D1*
X20676Y39265D1*
Y39569D2*
X20670Y39493D1*
X20656Y39417D1*
X20597Y39341D1*
X20524Y39265D1*
X21664Y39569D2*
Y39493D1*
Y39417D1*
Y39341D1*
Y39265D1*
Y39189D1*
X21968Y39569D2*
Y39493D1*
Y39417D1*
Y39341D1*
Y39265D1*
Y39189D1*
X23184Y39569D2*
X23197Y39493D1*
X23244Y39417D1*
X23357Y39341D1*
X23488Y39265D1*
Y39569D2*
X23482Y39493D1*
X23468Y39417D1*
X23409Y39341D1*
X23336Y39265D1*
X24552Y39569D2*
Y39493D1*
Y39417D1*
Y39341D1*
Y39265D1*
Y39189D1*
X24856Y39569D2*
Y39493D1*
X24859Y39417D1*
X24871Y39341D1*
X24897Y39265D1*
X24932Y39189D1*
X25084Y39569D2*
X25008Y39493D1*
X24932Y39417D1*
X25079Y39341D1*
X25236Y39265D1*
X25388Y39569D2*
X25365Y39493D1*
X25289Y39417D1*
X25122Y39341D1*
X24932Y39265D1*
X21132Y39417D2*
X21056Y39341D1*
X21132Y39265D1*
X21208Y39417D2*
X21284Y39341D1*
X21208Y39265D1*
X21436Y39417D2*
X21396Y39341D1*
X21360Y39265D1*
X21436Y39417D2*
X21477Y39341D1*
X21512Y39265D1*
X22652Y39417D2*
X22576Y39341D1*
X22652Y39265D1*
X22728Y39417D2*
X22804Y39341D1*
X22728Y39265D1*
X25616Y39417D2*
X25540Y39341D1*
X25692Y39265D1*
X20752Y39341D2*
Y39265D1*
Y39189D1*
Y39113D1*
X20372D1*
X20375Y39037D1*
X20387Y38961D1*
X20413Y38885D1*
X20448Y38809D1*
X20828Y39341D2*
X20904Y39265D1*
X20980Y39189D1*
X23564Y39341D2*
Y39265D1*
Y39189D1*
X23640Y39341D2*
X23716Y39265D1*
X23792Y39189D1*
X25388Y39265D2*
X25312Y39189D1*
X25388Y39265D2*
X25464Y39189D1*
X22424Y39037D2*
X22410Y38961D1*
X22384Y38885D1*
X22348Y38809D1*
X22576Y39037D2*
Y38961D1*
Y38885D1*
Y38809D1*
X22804D1*
X22818Y38733D1*
X22845Y38657D1*
X22880Y38581D1*
X20524Y38885D2*
X20448Y38809D1*
X20600Y38885D2*
X20752Y38809D1*
X21056Y38885D2*
X20904Y38809D1*
X21208Y38885D2*
X21304Y38809D1*
X21382Y38733D1*
X21410Y38657D1*
X21425Y38581D1*
X21432Y38505D1*
X21435Y38429D1*
X21436Y38353D1*
Y38277D1*
X21816Y38885D2*
X21711Y38809D1*
X21633Y38733D1*
X21609Y38657D1*
X21597Y38581D1*
X21591Y38505D1*
X21589Y38429D1*
Y38353D1*
X21588Y38277D1*
X21892Y38885D2*
X21968Y38809D1*
X22196Y38885D2*
X22120Y38809D1*
X22272Y38885D2*
X22348Y38809D1*
X23716Y38885D2*
X23547Y38809D1*
X23424Y38733D1*
X23336Y38657D1*
X23260Y38581D1*
X23868Y38885D2*
X23964Y38809D1*
X24042Y38733D1*
X24070Y38657D1*
X24085Y38581D1*
X24092Y38505D1*
X24095Y38429D1*
X24096Y38353D1*
Y38277D1*
X24476Y38885D2*
X24371Y38809D1*
X24293Y38733D1*
X24269Y38657D1*
X24257Y38581D1*
X24251Y38505D1*
X24249Y38429D1*
X24248Y38353D1*
Y38277D1*
X24552Y38885D2*
X24628Y38809D1*
X24932Y38885D2*
X24856Y38809D1*
X25008Y38885D2*
X25104Y38809D1*
X25182Y38733D1*
X25210Y38657D1*
X25224Y38581D1*
X25225Y38505D1*
X25215Y38429D1*
X25156Y38353D1*
X25084Y38277D1*
X23032Y38809D2*
X22983Y38733D1*
X22933Y38657D1*
X22880Y38581D1*
X23184Y38809D2*
X23198Y38733D1*
X23225Y38657D1*
X23260Y38581D1*
X20524Y38733D2*
X20463Y38657D1*
X20419Y38581D1*
X20393Y38505D1*
X20381Y38429D1*
X20375Y38353D1*
X20372Y38277D1*
X20676Y38733D2*
Y38657D1*
Y38581D1*
Y38505D1*
Y38429D1*
Y38353D1*
Y38277D1*
X20904Y38733D2*
X20828Y38657D1*
X20904Y38581D1*
X20980Y38733D2*
X21056Y38657D1*
X20980Y38581D1*
X21816Y38733D2*
X21755Y38657D1*
X21711Y38581D1*
X21685Y38505D1*
X21673Y38429D1*
X21667Y38353D1*
X21664Y38277D1*
X22044Y38733D2*
Y38657D1*
Y38581D1*
X22047Y38505D1*
X22059Y38429D1*
X22085Y38353D1*
X22120Y38277D1*
X22272Y38733D2*
X22196Y38657D1*
X22120Y38581D1*
X22267Y38505D1*
X22424Y38429D1*
Y38733D2*
X22418Y38657D1*
X22404Y38581D1*
X22345Y38505D1*
X22272Y38429D1*
X23564Y38733D2*
X23488Y38657D1*
X23564Y38581D1*
X23640Y38733D2*
X23716Y38657D1*
X24400Y38733D2*
Y38657D1*
Y38581D1*
Y38505D1*
Y38429D1*
Y38353D1*
Y38277D1*
X24704Y38733D2*
Y38657D1*
X24705Y38581D1*
X24710Y38505D1*
X24724Y38429D1*
X24783Y38353D1*
X24856Y38277D1*
X22576Y38657D2*
Y38581D1*
Y38505D1*
Y38429D1*
Y38353D1*
Y38277D1*
X22728Y38657D2*
X22731Y38581D1*
X22741Y38505D1*
X22760Y38429D1*
X22782Y38353D1*
X22804Y38277D1*
X23412Y38581D2*
X23400Y38505D1*
X23381Y38429D1*
X23358Y38353D1*
X23336Y38277D1*
X23564Y38581D2*
X23570Y38505D1*
X23584Y38429D1*
X23644Y38353D1*
X23716Y38277D1*
X23108Y38505D2*
X23046Y38429D1*
X22997Y38353D1*
X22956Y38277D1*
X23184Y38505D2*
Y38429D1*
Y38353D1*
Y38277D1*
X20904Y38353D2*
X20828Y38277D1*
X20980Y38353D2*
X21056Y38277D1*
X22932Y23588D2*
X22871Y23512D1*
X22827Y23436D1*
X22798Y23360D1*
X22797Y23284D1*
X22823Y23208D1*
X22891Y23132D1*
X23072Y23056D1*
X23351Y22980D1*
X23692Y22904D1*
X23540Y22828D1*
X23619Y22752D1*
X23702Y22676D1*
X23790Y22600D1*
X23877Y22524D1*
X23965Y22448D1*
X24057Y22372D1*
X24148Y22296D1*
X23084Y23588D2*
X23192Y23512D1*
X23277Y23436D1*
X23242Y23360D1*
X23135Y23284D1*
X23008Y23208D1*
X23249Y23132D1*
X23468Y23056D1*
X23632Y22980D1*
X23772Y22904D1*
X23957Y22828D1*
X24221Y22752D1*
X24528Y22676D1*
X24148Y23512D2*
X23975Y23436D1*
X23826Y23360D1*
X23692Y23284D1*
X23768Y23208D1*
X23844Y23132D1*
X23921Y23056D1*
X23999Y22980D1*
X24082Y22904D1*
X24165Y22828D1*
X24238Y22752D1*
X24300Y22676D1*
X24680Y23512D2*
X24932Y23436D1*
X25114Y23360D1*
X25250Y23284D1*
X25309Y23208D1*
X25351Y23132D1*
X25385Y23056D1*
X25411Y22980D1*
X25427Y22904D1*
X25434Y22828D1*
X25435Y22752D1*
X25423Y22676D1*
X25399Y22600D1*
X25332Y22524D1*
X25164Y22448D1*
X24911Y22372D1*
X24604Y22296D1*
X26048Y23512D2*
X26045Y23436D1*
X26037Y23360D1*
X25999Y23284D1*
X25915Y23208D1*
X25820Y23132D1*
X26352Y23512D2*
X26314Y23436D1*
X26280Y23360D1*
X26243Y23284D1*
X26200Y23208D1*
X23084Y23512D2*
X23008Y23436D1*
X23084Y23512D2*
X23160Y23436D1*
X26352D2*
X26356Y23360D1*
X26368Y23284D1*
X26399Y23208D1*
X26452Y23132D1*
X26526Y23056D1*
X26614Y22980D1*
X26705Y22904D1*
X26780Y22828D1*
X26837Y22752D1*
X26859Y22676D1*
X26776Y22600D1*
X26671Y22524D1*
X26549Y22448D1*
X26412Y22372D1*
X26261Y22296D1*
X26106Y22220D1*
X25958Y22144D1*
X25820Y22068D1*
X25967Y21992D1*
X26086Y21916D1*
X26187Y21840D1*
X26283Y21764D1*
X26381Y21688D1*
X26481Y21612D1*
X26583Y21536D1*
X26692Y21460D1*
X26808Y21384D1*
X26689Y21308D1*
X26552Y21232D1*
X26402Y21156D1*
X26257Y21080D1*
X26129Y21004D1*
X26026Y20928D1*
X25953Y20852D1*
X25896Y20776D1*
X22780Y23436D2*
X22858Y23360D1*
X22951Y23284D1*
X23087Y23208D1*
X23279Y23132D1*
X23479Y23056D1*
X23635Y22980D1*
X23773Y22904D1*
X23957Y22828D1*
X24221Y22752D1*
X24528Y22676D1*
X23008Y23360D2*
X23084Y23284D1*
X26124Y23360D2*
X26160Y23284D1*
X26200Y23208D1*
X25744D2*
X25795Y23132D1*
X25851Y23056D1*
X25928Y22980D1*
X26031Y22904D1*
X26149Y22828D1*
X26257Y22752D1*
X26352Y22676D1*
X26107Y22600D1*
X25864Y22524D1*
X25648Y22448D1*
X25472Y22372D1*
X25314Y22296D1*
X25138Y22220D1*
X24923Y22144D1*
X24687Y22068D1*
X24452Y21992D1*
X24528Y21916D1*
X24604Y21840D1*
X24680Y21764D1*
X24756Y21688D1*
X24832Y21612D1*
X24908Y21536D1*
X24861Y21460D1*
X24817Y21384D1*
X24771Y21308D1*
X24710Y21232D1*
X24626Y21156D1*
X24528Y21080D1*
X25820Y23208D2*
X25896Y23132D1*
X24680Y22904D2*
X24694Y22828D1*
X24721Y22752D1*
X24756Y22676D1*
X24984Y22904D2*
X24894Y22828D1*
X24792Y22752D1*
X24680Y22676D1*
X27416Y22068D2*
X27367Y21992D1*
X27316Y21916D1*
X27264Y21840D1*
X27214Y21764D1*
X27163Y21688D1*
X27112Y21612D1*
X27062Y21536D1*
X27008Y21460D1*
X26944Y21384D1*
X26863Y21308D1*
X26760Y21232D1*
X26638Y21156D1*
X26511Y21080D1*
X26396Y21004D1*
X26296Y20928D1*
X26209Y20852D1*
X26131Y20776D1*
X26062Y20700D1*
X26007Y20624D1*
X25960Y20548D1*
X25918Y20472D1*
X25878Y20396D1*
X25840Y20320D1*
X25804Y20244D1*
X25773Y20168D1*
X25747Y20092D1*
X25720Y20016D1*
X25696Y19940D1*
X25683Y19864D1*
X25676Y19788D1*
X25701Y19712D1*
X25804Y19636D1*
X25953Y19560D1*
X26124Y19484D1*
X26075Y19408D1*
X26025Y19332D1*
X25972Y19256D1*
X25744Y22068D2*
X25669Y21992D1*
X25595Y21916D1*
X25529Y21840D1*
X25474Y21764D1*
X25428Y21688D1*
X25386Y21612D1*
X25346Y21536D1*
X25308Y21460D1*
X25270Y21384D1*
X25231Y21308D1*
X25193Y21232D1*
X25152Y21156D1*
X25104Y21080D1*
X25046Y21004D1*
X24978Y20928D1*
X24903Y20852D1*
X24816Y20776D1*
X24710Y20700D1*
X24585Y20624D1*
X24452Y20548D1*
X25820Y21992D2*
X25747Y21916D1*
X25681Y21840D1*
X25626Y21764D1*
X25583Y21688D1*
X25550Y21612D1*
X25529Y21536D1*
X25510Y21460D1*
X25488Y21384D1*
X25470Y21308D1*
X25460Y21232D1*
X25481Y21156D1*
X25521Y21080D1*
X25582Y21004D1*
X25659Y20928D1*
X25739Y20852D1*
X25820Y20776D1*
X27416Y21992D2*
X27489Y21916D1*
X27555Y21840D1*
X27610Y21764D1*
X27658Y21688D1*
X27705Y21612D1*
X27766Y21536D1*
X27850Y21460D1*
X27948Y21384D1*
X23844Y21688D2*
X23856Y21612D1*
X23875Y21536D1*
X23892Y21460D1*
X23900Y21384D1*
X23876Y21308D1*
X23844Y21232D1*
X23920Y21612D2*
X23971Y21536D1*
X24030Y21460D1*
X24115Y21384D1*
X24235Y21308D1*
X24376Y21232D1*
X24528Y21612D2*
X24481Y21536D1*
X24435Y21460D1*
X24380Y21384D1*
X24309Y21308D1*
X24224Y21232D1*
X24528Y21536D2*
Y21460D1*
X24529Y21384D1*
X24532Y21308D1*
X24543Y21232D1*
X24569Y21156D1*
X24604Y21080D1*
X28100Y21536D2*
X27913Y21460D1*
X27720Y21384D1*
X28176Y21536D2*
X28147Y21460D1*
X28155Y21384D1*
X28200Y21308D1*
X28252Y21232D1*
X28176Y21156D1*
X28100Y21080D1*
X28176Y21004D1*
X23540Y21384D2*
X23581Y21308D1*
X23633Y21232D1*
X23688Y21156D1*
X23741Y21080D1*
X23795Y21004D1*
X23858Y20928D1*
X23929Y20852D1*
X24018Y20776D1*
X24135Y20700D1*
X24285Y20624D1*
X24452Y20548D1*
X27492Y21460D2*
X27358Y21384D1*
X27248Y21308D1*
X27167Y21232D1*
X27111Y21156D1*
X27074Y21080D1*
X27053Y21004D1*
X27043Y20928D1*
X27039Y20852D1*
X27037Y20776D1*
X27036Y20700D1*
X27033Y20624D1*
X27023Y20548D1*
X27002Y20472D1*
X26973Y20396D1*
X26942Y20320D1*
X26915Y20244D1*
X26899Y20168D1*
X26890Y20092D1*
X26884Y20016D1*
X27492Y21460D2*
X27504Y21384D1*
X27527Y21308D1*
X27565Y21232D1*
X27618Y21156D1*
X27737Y21080D1*
X27872Y21004D1*
X23768Y21308D2*
X23844Y21232D1*
X27188Y20700D2*
Y20624D1*
Y20548D1*
X27185Y20472D1*
X27176Y20396D1*
X27157Y20320D1*
X27138Y20244D1*
X27125Y20168D1*
X27118Y20092D1*
X27114Y20016D1*
X27113Y19940D1*
X27116Y19864D1*
X27124Y19788D1*
X27170Y19712D1*
X27243Y19636D1*
X27339Y19560D1*
X27454Y19484D1*
X27589Y19408D1*
X27743Y19332D1*
X27921Y19256D1*
X28120Y19180D1*
X28328Y19104D1*
X28480Y20700D2*
X28299Y20624D1*
X28148Y20548D1*
X28037Y20472D1*
X27954Y20396D1*
X27918Y20320D1*
X27923Y20244D1*
X27943Y20168D1*
X27976Y20092D1*
X28024Y20016D1*
X28093Y19940D1*
X28176Y19864D1*
X28860Y20700D2*
X29079Y20624D1*
X29265Y20548D1*
X29418Y20472D1*
X29545Y20396D1*
X29647Y20320D1*
X29725Y20244D1*
X29791Y20168D1*
X29855Y20092D1*
X29913Y20016D1*
X29955Y19940D1*
X29980Y19864D1*
X29992Y19788D1*
X29997Y19712D1*
X29999Y19636D1*
X29996Y19560D1*
X29984Y19484D1*
X29959Y19408D1*
X29886Y19332D1*
X29779Y19256D1*
X29633Y19180D1*
X29468Y19104D1*
X27264Y20624D2*
X27279Y20548D1*
X27311Y20472D1*
X27361Y20396D1*
X27425Y20320D1*
X27496Y20244D1*
X27572Y20168D1*
X27657Y20092D1*
X27752Y20016D1*
X27850Y19940D1*
X27952Y19864D1*
X28068Y19788D1*
X28218Y19712D1*
X28441Y19636D1*
X28770Y19560D1*
X29164Y19484D1*
X19969Y20548D2*
X19938Y20472D1*
X19941Y20396D1*
X19954Y20320D1*
X19969Y20244D1*
X20273Y20548D2*
X20269Y20472D1*
X20258Y20396D1*
X20232Y20320D1*
X20197Y20244D1*
X28404Y20472D2*
X28283Y20396D1*
X28182Y20320D1*
X28131Y20244D1*
X28215Y20168D1*
X28409Y20092D1*
X28632Y20016D1*
X28860Y20472D2*
X29009Y20396D1*
X29148Y20320D1*
X29269Y20244D1*
X29371Y20168D1*
X29456Y20092D1*
X29524Y20016D1*
X29578Y19940D1*
X29600Y19864D1*
X29538Y19788D1*
X29391Y19712D1*
X29148Y19636D1*
X28777Y19560D1*
X28328Y19484D1*
X15789Y20320D2*
Y20244D1*
Y20168D1*
Y20092D1*
Y20016D1*
Y19940D1*
X15485D1*
Y19864D1*
Y19788D1*
Y19712D1*
Y19636D1*
X15789D1*
Y19560D1*
Y19484D1*
Y19408D1*
Y19332D1*
Y19256D1*
Y19180D1*
Y19104D1*
Y19028D1*
X15792Y18952D1*
X15805Y18876D1*
X15835Y18800D1*
X15884Y18724D1*
X15941Y18648D1*
X16017Y20320D2*
Y20244D1*
Y20168D1*
Y20092D1*
Y20016D1*
Y19940D1*
X16397D1*
Y19864D1*
Y19788D1*
Y19712D1*
Y19636D1*
X16017D1*
Y19560D1*
Y19484D1*
Y19408D1*
Y19332D1*
Y19256D1*
X16021Y19180D1*
X16031Y19104D1*
X16083Y19028D1*
X16187Y18952D1*
X16281Y18876D1*
X16353Y18800D1*
X16378Y18724D1*
X16397Y18648D1*
X26428Y20320D2*
X26343Y20244D1*
X26258Y20168D1*
X26181Y20092D1*
X26114Y20016D1*
X26048Y19940D1*
X26168Y19864D1*
X26327Y19788D1*
X26503Y19712D1*
X26650Y19636D1*
X26765Y19560D1*
X26749Y19484D1*
X26719Y19408D1*
X26688Y19332D1*
X26657Y19256D1*
X26620Y19180D1*
X26578Y19104D1*
X26543Y19028D1*
X26521Y18952D1*
X26504Y18876D1*
X26580Y20320D2*
X26656Y20244D1*
X26732Y20168D1*
X26808Y20092D1*
X26884Y20016D1*
X28556Y20244D2*
X28632Y20168D1*
X28449Y20092D1*
X28252Y20016D1*
X28632Y20244D2*
X28702Y20168D1*
X28752Y20092D1*
X28768Y20016D1*
X28597Y19940D1*
X28310Y19864D1*
X27948Y19788D1*
X17005Y19940D2*
X16894Y19864D1*
X16799Y19788D1*
X16724Y19712D1*
X16672Y19636D1*
X16634Y19560D1*
X16603Y19484D1*
X16578Y19408D1*
X16565Y19332D1*
X16567Y19256D1*
X16585Y19180D1*
X16613Y19104D1*
X16647Y19028D1*
X16689Y18952D1*
X16749Y18876D1*
X16838Y18800D1*
X16954Y18724D1*
X17081Y18648D1*
X17613Y19940D2*
X17721Y19864D1*
X17809Y19788D1*
X17875Y19712D1*
X17923Y19636D1*
X17957Y19560D1*
X17977Y19484D1*
X17986Y19408D1*
X17990Y19332D1*
X17991Y19256D1*
X17989Y19180D1*
X17979Y19104D1*
X17956Y19028D1*
X17913Y18952D1*
X17848Y18876D1*
X17760Y18800D1*
X17653Y18724D1*
X17537Y18648D1*
X18297Y19940D2*
Y19864D1*
Y19788D1*
Y19712D1*
Y19636D1*
Y19560D1*
Y19484D1*
Y19408D1*
Y19332D1*
Y19256D1*
Y19180D1*
Y19104D1*
Y19028D1*
Y18952D1*
Y18876D1*
Y18800D1*
Y18724D1*
Y18648D1*
Y18572D1*
Y18496D1*
Y18420D1*
Y18344D1*
Y18268D1*
Y18192D1*
Y18116D1*
Y18040D1*
Y17964D1*
X18525Y19940D2*
X18601Y19864D1*
X18677Y19940D2*
X18601Y19864D1*
X19285Y19940D2*
X19393Y19864D1*
X19481Y19788D1*
X19546Y19712D1*
X19595Y19636D1*
X19629Y19560D1*
X19648Y19484D1*
X19658Y19408D1*
X19662Y19332D1*
X19663Y19256D1*
X19661Y19180D1*
X19651Y19104D1*
X19627Y19028D1*
X19586Y18952D1*
X19523Y18876D1*
X19446Y18800D1*
X19366Y18724D1*
X19285Y18648D1*
X19969Y19940D2*
Y19864D1*
Y19788D1*
Y19712D1*
Y19636D1*
Y19560D1*
Y19484D1*
Y19408D1*
Y19332D1*
Y19256D1*
Y19180D1*
Y19104D1*
Y19028D1*
Y18952D1*
Y18876D1*
Y18800D1*
Y18724D1*
Y18648D1*
X20273Y19940D2*
Y19864D1*
Y19788D1*
Y19712D1*
Y19636D1*
Y19560D1*
Y19484D1*
Y19408D1*
Y19332D1*
Y19256D1*
Y19180D1*
Y19104D1*
Y19028D1*
Y18952D1*
Y18876D1*
Y18800D1*
Y18724D1*
Y18648D1*
X20957Y19940D2*
X20846Y19864D1*
X20751Y19788D1*
X20677Y19712D1*
X20618Y19636D1*
X20594Y19560D1*
X20573Y19484D1*
X20552Y19408D1*
X20540Y19332D1*
X20545Y19256D1*
X20559Y19180D1*
X20579Y19104D1*
X20606Y19028D1*
X20641Y18952D1*
X20689Y18876D1*
X20759Y18800D1*
X20851Y18724D1*
X20957Y18648D1*
X21565Y19940D2*
X21681Y19864D1*
X21793Y19788D1*
X21717Y19712D1*
X21641Y19636D1*
X21945Y19940D2*
Y19864D1*
Y19788D1*
Y19712D1*
Y19636D1*
Y19560D1*
Y19484D1*
Y19408D1*
Y19332D1*
Y19256D1*
Y19180D1*
X21947Y19104D1*
X21957Y19028D1*
X21979Y18952D1*
X22011Y18876D1*
X22055Y18800D1*
X22111Y18724D1*
X22173Y18648D1*
Y19940D2*
Y19864D1*
Y19788D1*
Y19712D1*
Y19636D1*
Y19560D1*
Y19484D1*
Y19408D1*
Y19332D1*
X22175Y19256D1*
X22187Y19180D1*
X22209Y19104D1*
X22285Y19028D1*
X22476Y18952D1*
X22704Y18876D1*
X22932Y19940D2*
Y19864D1*
Y19788D1*
Y19712D1*
Y19636D1*
Y19560D1*
Y19484D1*
X22930Y19408D1*
X22920Y19332D1*
X22899Y19256D1*
X22868Y19180D1*
X22830Y19104D1*
X22747Y19028D1*
X22554Y18952D1*
X22324Y18876D1*
X23160Y19940D2*
Y19864D1*
Y19788D1*
Y19712D1*
Y19636D1*
Y19560D1*
Y19484D1*
Y19408D1*
Y19332D1*
Y19256D1*
Y19180D1*
Y19104D1*
Y19028D1*
Y18952D1*
Y18876D1*
Y18800D1*
Y18724D1*
Y18648D1*
X23692Y19940D2*
X23596Y19864D1*
X23519Y19788D1*
X23491Y19712D1*
X23476Y19636D1*
X23472Y19560D1*
X23476Y19484D1*
X23508Y19408D1*
X23602Y19332D1*
X23739Y19256D1*
X23892Y19180D1*
X24015Y19104D1*
X24104Y19028D1*
X24148Y18952D1*
X23768Y18876D1*
X24224Y19940D2*
X24293Y19864D1*
X24347Y19788D1*
X24292Y19712D1*
X24224Y19636D1*
X17461Y19788D2*
X17263Y19712D1*
X17101Y19636D1*
X16971Y19560D1*
X16904Y19484D1*
X16878Y19408D1*
X16866Y19332D1*
X16870Y19256D1*
X16890Y19180D1*
X16923Y19104D1*
X17019Y19028D1*
X17256Y18952D1*
X17537Y18876D1*
X17157Y19788D2*
X17352Y19712D1*
X17507Y19636D1*
X17613Y19560D1*
X17681Y19484D1*
X17731Y19408D1*
X17745Y19332D1*
X17744Y19256D1*
X17731Y19180D1*
X17684Y19104D1*
X17523Y19028D1*
X17259Y18952D1*
X16929Y18876D1*
X19133Y19788D2*
X18935Y19712D1*
X18773Y19636D1*
X18643Y19560D1*
X18576Y19484D1*
X18549Y19408D1*
X18535Y19332D1*
X18532Y19256D1*
X18536Y19180D1*
X18572Y19104D1*
X18707Y19028D1*
X18929Y18952D1*
X19209Y18876D1*
X18829Y19788D2*
X19024Y19712D1*
X19179Y19636D1*
X19284Y19560D1*
X19353Y19484D1*
X19403Y19408D1*
X19417Y19332D1*
X19421Y19256D1*
X19395Y19180D1*
X19337Y19104D1*
X19190Y19028D1*
X18961Y18952D1*
X18677Y18876D1*
X23996Y19788D2*
X23872Y19712D1*
X23774Y19636D1*
X23692Y19560D1*
X23893Y19484D1*
X24077Y19408D1*
X24224Y19332D1*
X24328Y19256D1*
X24404Y19180D1*
X24429Y19104D1*
X24439Y19028D1*
X24440Y18952D1*
X24403Y18876D1*
X24340Y18800D1*
X24251Y18724D1*
X24148Y18648D1*
X23844Y19788D2*
X23996Y19712D1*
X24148Y19636D1*
X21033Y19712D2*
X20960Y19636D1*
X20896Y19560D1*
X20851Y19484D1*
X20826Y19408D1*
X20814Y19332D1*
X20811Y19256D1*
X20817Y19180D1*
X20861Y19104D1*
X21017Y19028D1*
X21263Y18952D1*
X21565Y18876D1*
X21413Y19712D2*
X21489Y19636D1*
X26048Y19256D2*
X26200Y19332D2*
Y19256D1*
Y19180D1*
Y19104D1*
Y19028D1*
Y18952D1*
X26428Y19180D2*
X26352Y19104D1*
X26276Y19028D1*
X26200Y18952D1*
X26504Y19180D2*
Y19104D1*
Y19028D1*
Y18952D1*
Y18876D1*
X21565Y19028D2*
X21310Y18952D1*
X21033Y18876D1*
X23540Y19028D2*
X23481Y18952D1*
X23429Y18876D1*
X23476Y18800D1*
X23542Y18724D1*
X23616Y18648D1*
X21641Y18952D2*
X21717Y18876D1*
X21793Y18800D1*
X21641Y18724D1*
X21489Y18648D1*
X23692Y18952D2*
X23768Y18876D1*
X18525Y18800D2*
Y18724D1*
Y18648D1*
Y18572D1*
Y18496D1*
Y18420D1*
Y18344D1*
Y18268D1*
Y18192D1*
Y18116D1*
Y18040D1*
Y17964D1*
X18601Y18800D2*
X18677Y18724D1*
X18753Y18648D1*
X22932Y18800D2*
X22780Y18724D1*
X22628Y18648D1*
X22932Y18800D2*
Y18724D1*
Y18648D1*
X16106Y13607D2*
Y13531D1*
Y13455D1*
Y13379D1*
Y13303D1*
Y13227D1*
X16107Y13151D1*
X16113Y13075D1*
X16126Y12999D1*
X16186Y12923D1*
X16258Y12847D1*
X16942Y13607D2*
Y13531D1*
Y13455D1*
Y13379D1*
Y13303D1*
Y13227D1*
Y13151D1*
Y13075D1*
Y12999D1*
Y12923D1*
Y12847D1*
Y12771D1*
Y12695D1*
Y12619D1*
X16939Y12543D1*
X16926Y12467D1*
X16901Y12391D1*
X16838Y12315D1*
X16770Y12239D1*
X16710Y12163D1*
X16698Y12087D1*
X16714Y12011D1*
X20362Y13607D2*
Y13531D1*
Y13455D1*
Y13379D1*
Y13303D1*
Y13227D1*
Y13151D1*
Y13075D1*
Y12999D1*
Y12923D1*
X21882Y13607D2*
X21846Y13531D1*
X21806Y13455D1*
X21958Y13379D1*
X21900Y13303D1*
X21856Y13227D1*
X21863Y13151D1*
X21882Y13075D1*
X22338Y13607D2*
X22222Y13531D1*
X22110Y13455D1*
X22186Y13379D1*
X22087Y13303D1*
X22008Y13227D1*
X21944Y13151D1*
X21882Y13075D1*
X22566Y13607D2*
Y13531D1*
Y13455D1*
Y13379D1*
Y13303D1*
Y13227D1*
Y13151D1*
Y13075D1*
Y12999D1*
Y12923D1*
Y12847D1*
X21882D1*
Y12771D1*
Y12695D1*
Y12619D1*
Y12543D1*
Y12467D1*
Y12391D1*
Y12315D1*
Y12239D1*
Y12163D1*
Y12087D1*
Y12011D1*
Y11935D1*
Y11859D1*
Y11783D1*
Y11707D1*
Y11631D1*
Y11555D1*
Y11479D1*
Y11403D1*
Y11327D1*
Y11251D1*
Y11175D1*
Y11099D1*
Y11023D1*
Y10947D1*
Y10871D1*
Y10795D1*
Y10719D1*
Y10643D1*
X18234Y13531D2*
X18085Y13455D1*
X17946Y13379D1*
X17825Y13303D1*
X17727Y13227D1*
X17651Y13151D1*
X17594Y13075D1*
X17586Y12999D1*
X17626Y12923D1*
X17713Y12847D1*
X17816Y12771D1*
X17930Y12695D1*
X18462Y13531D2*
X18465Y13455D1*
X18475Y13379D1*
X18493Y13303D1*
X18512Y13227D1*
X18525Y13151D1*
X18504Y13075D1*
X18419Y12999D1*
X18310Y12923D1*
X18200Y12847D1*
X18100Y12771D1*
X18006Y12695D1*
X16942Y13075D2*
X16562Y12999D1*
X16182Y12923D1*
X16714Y13075D2*
Y12999D1*
X16711Y12923D1*
X16699Y12847D1*
X16673Y12771D1*
X16638Y12695D1*
X21122Y13075D2*
X20970Y12999D1*
X20818Y12923D1*
X21350Y13075D2*
X21228Y12999D1*
X21125Y12923D1*
X21085Y12847D1*
X21063Y12771D1*
X21053Y12695D1*
X21048Y12619D1*
X21047Y12543D1*
X21046Y12467D1*
Y12391D1*
X21274D1*
X21238Y12315D1*
X21198Y12239D1*
X21274Y13075D2*
X21314Y12999D1*
X21350Y12923D1*
X18614D2*
X18477Y12847D1*
X18357Y12771D1*
X18256Y12695D1*
X18170Y12619D1*
X18098Y12543D1*
X18041Y12467D1*
X17994Y12391D1*
X17952Y12315D1*
X17915Y12239D1*
X17886Y12163D1*
X17869Y12087D1*
X17860Y12011D1*
X17857Y11935D1*
X17855Y11859D1*
Y11783D1*
X17854Y11707D1*
X17855Y11631D1*
X17857Y11555D1*
X17867Y11479D1*
X17888Y11403D1*
X17920Y11327D1*
X17962Y11251D1*
X18010Y11175D1*
X18061Y11099D1*
X18123Y11023D1*
X18203Y10947D1*
X18294Y10871D1*
X18386Y10795D1*
X18842Y12923D2*
X18873Y12847D1*
Y12771D1*
X18875Y12695D1*
X18891Y12619D1*
X18918Y12543D1*
X19070Y12923D2*
X18994Y12847D1*
X19146Y12923D2*
X19298D2*
X19227Y12847D1*
X19146Y12771D1*
X19176Y12695D1*
X19166Y12619D1*
X19146Y12543D1*
X19526Y12923D2*
X19663Y12847D1*
X19784Y12771D1*
X19885Y12695D1*
X19973Y12619D1*
X20052Y12543D1*
X20120Y12467D1*
X20176Y12391D1*
X20220Y12315D1*
X20255Y12239D1*
X20283Y12163D1*
X20310Y12087D1*
X20334Y12011D1*
X20349Y11935D1*
X20356Y11859D1*
X20360Y11783D1*
X20358Y11707D1*
X20349Y11631D1*
X20331Y11555D1*
X20308Y11479D1*
X20283Y11403D1*
X20248Y11327D1*
X20204Y11251D1*
X20157Y11175D1*
X20105Y11099D1*
X20041Y11023D1*
X19957Y10947D1*
X19844Y10871D1*
X19701Y10795D1*
X19540Y10719D1*
X19374Y10643D1*
X16106Y12771D2*
Y12695D1*
Y12619D1*
Y12543D1*
Y12467D1*
Y12391D1*
Y12315D1*
Y12239D1*
Y12163D1*
Y12087D1*
Y12011D1*
Y11935D1*
Y11859D1*
Y11783D1*
Y11707D1*
Y11631D1*
Y11555D1*
Y11479D1*
Y11403D1*
Y11327D1*
Y11251D1*
Y11175D1*
Y11099D1*
Y11023D1*
Y10947D1*
Y10871D1*
Y10795D1*
Y10719D1*
Y10643D1*
X16562Y12771D2*
X16638Y12695D1*
X18994D2*
X18959Y12619D1*
X18918Y12543D1*
X19070Y12619D2*
X19146Y12543D1*
X21426Y12619D2*
X21350Y12543D1*
X21426Y12467D1*
X21502Y12619D2*
X21578Y12543D1*
X21502Y12467D1*
X18918D2*
X18781Y12391D1*
X18661Y12315D1*
X18562Y12239D1*
X18486Y12163D1*
X18430Y12087D1*
X18386Y12011D1*
X19906Y12467D2*
X19452Y12391D1*
X19091Y12315D1*
X18845Y12239D1*
X18669Y12163D1*
X18597Y12087D1*
X18538Y12011D1*
X19374Y12315D2*
X19450Y12239D1*
Y12391D2*
X19491Y12315D1*
X19526Y12239D1*
X21046Y12315D2*
Y12239D1*
Y12163D1*
Y12087D1*
Y12011D1*
Y11935D1*
Y11859D1*
Y11783D1*
Y11707D1*
Y11631D1*
Y11555D1*
Y11479D1*
Y11403D1*
Y11327D1*
Y11251D1*
Y11175D1*
Y11099D1*
Y11023D1*
Y10947D1*
Y10871D1*
Y10795D1*
Y10719D1*
Y10643D1*
X21122Y12315D2*
X21198Y12239D1*
X16942D2*
X16852Y12163D1*
X16750Y12087D1*
X16638Y12011D1*
X16942Y12163D2*
Y12087D1*
Y12011D1*
Y11935D1*
Y11859D1*
Y11783D1*
Y11707D1*
Y11631D1*
Y11555D1*
Y11479D1*
Y11403D1*
Y11327D1*
Y11251D1*
Y11175D1*
Y11099D1*
Y11023D1*
Y10947D1*
Y10871D1*
Y10795D1*
Y10719D1*
Y10643D1*
X18994Y12239D2*
X18918Y12163D1*
X19146Y12087D1*
X19222Y12239D2*
X19298Y12163D1*
X19070Y12087D1*
X18842Y12163D2*
X18769Y12087D1*
X18706Y12011D1*
X18661Y11935D1*
X18631Y11859D1*
X18634Y11783D1*
X18652Y11707D1*
X18686Y11631D1*
X18734Y11555D1*
X18869Y11479D1*
X19065Y11403D1*
X19298Y11327D1*
X18918Y12087D2*
X18857Y12011D1*
X18813Y11935D1*
X18783Y11859D1*
X18782Y11783D1*
X18809Y11707D1*
X18881Y11631D1*
X18988Y11555D1*
X19133Y11479D1*
X19298Y11403D1*
Y12087D2*
X19309Y12011D1*
X19348Y11935D1*
X19431Y11859D1*
X19526Y11783D1*
X19450Y12163D2*
X19462Y12087D1*
X19478Y12011D1*
X19492Y11935D1*
X19476Y11859D1*
X19450Y11783D1*
X19526Y12163D2*
X19587Y12087D1*
X19631Y12011D1*
X19661Y11935D1*
X19662Y11859D1*
X19635Y11783D1*
X19568Y11707D1*
X19477Y11631D1*
X19374Y11555D1*
X19638Y11479D1*
X19906Y11403D1*
X19678Y12163D2*
X19739Y12087D1*
X19784Y12011D1*
X19809Y11935D1*
X19821Y11859D1*
X19824Y11783D1*
X19816Y11707D1*
X19796Y11631D1*
X19764Y11555D1*
X19724Y11479D1*
X19678Y11403D1*
X16562Y12087D2*
X16522Y12011D1*
X16486Y11935D1*
X16638Y12011D2*
X16562Y11935D1*
X18310D2*
Y11859D1*
Y11783D1*
Y11707D1*
X18462Y11935D2*
Y11859D1*
Y11783D1*
Y11707D1*
X18918Y11935D2*
X18929Y11859D1*
X18968Y11783D1*
X19051Y11707D1*
X19146Y11631D1*
X19070Y11935D2*
X19146Y11859D1*
X19222Y11783D1*
X19111Y11707D1*
X18994Y11631D1*
X18462D2*
X18422Y11555D1*
X18386Y11479D1*
X18462Y11631D2*
X18503Y11555D1*
X18538Y11479D1*
X16334Y11555D2*
X16337Y11479D1*
X16349Y11403D1*
X16375Y11327D1*
X16410Y11251D1*
X16486Y11555D2*
X16483Y11479D1*
X16471Y11403D1*
X16445Y11327D1*
X16410Y11251D1*
X19374Y11555D2*
X19256Y11479D1*
X19100Y11403D1*
X18918Y11327D1*
X18234Y11479D2*
X18194Y11403D1*
X18158Y11327D1*
X18234Y11479D2*
X18275Y11403D1*
X18310Y11327D1*
X18766D2*
X18726Y11251D1*
X18690Y11175D1*
X18766Y11327D2*
X18807Y11251D1*
X18842Y11175D1*
X18386Y11251D2*
X18400Y11175D1*
X18427Y11099D1*
X18462Y11023D1*
X18538Y11251D2*
X18524Y11175D1*
X18498Y11099D1*
X18462Y11023D1*
X18994Y11251D2*
X18918Y11175D1*
X19146Y11099D1*
X19222Y11251D2*
X19298Y11175D1*
X19070Y11099D1*
X18538Y10871D2*
X18462Y10795D1*
X18614Y10871D2*
X18644Y10795D1*
X18733Y10719D1*
X18842Y10643D1*
X30727Y33506D2*
D53*
X31164D1*
X31310Y33556D1*
X31360Y33604D1*
X31408Y33701D1*
Y33798D1*
X31360Y33895D1*
X31310Y33944D1*
X31164Y33993D1*
X30727D1*
Y32972D1*
X31068Y33506D2*
X31408Y32972D1*
X31722Y33993D2*
X32402Y32972D1*
Y33993D2*
X31722Y32972D1*
X31045Y31453D2*
Y30432D1*
X31385D1*
X31531Y30481D1*
X31629Y30578D1*
X31677Y30676D1*
X31725Y30820D1*
Y31064D1*
X31677Y31210D1*
X31629Y31307D1*
X31531Y31404D1*
X31385Y31453D1*
X31045D1*
X32039Y31257D2*
X32137Y31307D1*
X32283Y31452D1*
Y30432D1*
X30727Y28913D2*
Y27892D1*
X31068D1*
X31214Y27941D1*
X31311Y28038D1*
X31360Y28136D1*
X31408Y28280D1*
Y28524D1*
X31360Y28670D1*
X31311Y28767D1*
X31214Y28864D1*
X31068Y28913D1*
X30727D1*
X31771Y28669D2*
Y28717D1*
X31819Y28815D1*
X31868Y28863D1*
X31965Y28912D1*
X32160D1*
X32256Y28863D1*
X32304Y28815D1*
X32354Y28717D1*
Y28621D1*
X32304Y28523D1*
X32208Y28378D1*
X31722Y27892D1*
X32402D1*
X30727Y26373D2*
Y25352D1*
X31068D1*
X31214Y25401D1*
X31311Y25498D1*
X31360Y25596D1*
X31408Y25740D1*
Y25984D1*
X31360Y26130D1*
X31311Y26227D1*
X31214Y26324D1*
X31068Y26373D1*
X30727D1*
X31819Y26372D2*
X32353D1*
X32062Y25983D1*
X32208D1*
X32304Y25935D1*
X32353Y25886D1*
X32402Y25740D1*
Y25644D1*
X32353Y25498D1*
X32256Y25400D1*
X32110Y25352D1*
X31964D1*
X31819Y25400D1*
X31771Y25450D1*
X31722Y25546D1*
X30727Y23833D2*
Y22812D1*
X31068D1*
X31214Y22861D1*
X31311Y22958D1*
X31360Y23056D1*
X31408Y23200D1*
Y23444D1*
X31360Y23590D1*
X31311Y23687D1*
X31214Y23784D1*
X31068Y23833D1*
X30727D1*
X32208Y22812D2*
Y23832D1*
X31722Y23152D1*
X32450D1*
X32091Y21050D2*
X32043Y21147D1*
X31945Y21244D1*
X31849Y21293D1*
X31654D1*
X31557Y21244D1*
X31460Y21147D1*
X31411Y21050D1*
X31362Y20904D1*
Y20660D1*
X31411Y20516D1*
X31460Y20418D1*
X31557Y20321D1*
X31654Y20272D1*
X31849D1*
X31945Y20321D1*
X32043Y20418D1*
X32091Y20516D1*
Y20660D1*
X31849D1*
X31310Y18752D2*
X30825D1*
X30777Y18315D1*
X30825Y18363D1*
X30971Y18412D1*
X31116D1*
X31262Y18363D1*
X31360Y18266D1*
X31408Y18120D1*
Y18024D1*
X31360Y17878D1*
X31262Y17780D1*
X31116Y17732D1*
X30971D1*
X30825Y17780D1*
X30777Y17830D1*
X30727Y17926D1*
X31722Y18753D2*
X32110Y17732D1*
X32499Y18753D1*
X13726Y32972D2*
X13336Y33993D1*
X12947Y32972D1*
X13093Y33312D2*
X13580D1*
X14331Y33992D2*
X14185Y33943D1*
X14088Y33797D1*
X14039Y33555D1*
Y33409D1*
X14088Y33166D1*
X14185Y33020D1*
X14331Y32972D1*
X14428D1*
X14574Y33020D1*
X14670Y33166D1*
X14720Y33409D1*
Y33555D1*
X14670Y33797D1*
X14574Y33943D1*
X14428Y33992D1*
X14331D1*
X14670Y33797D2*
X14088Y33166D1*
X12947Y31453D2*
Y30432D1*
X13288D1*
X13434Y30481D1*
X13531Y30578D1*
X13580Y30676D1*
X13628Y30820D1*
Y31064D1*
X13580Y31210D1*
X13531Y31307D1*
X13434Y31404D1*
X13288Y31453D1*
X12947D1*
X14234Y31452D2*
X14088Y31403D1*
X13990Y31257D1*
X13942Y31015D1*
Y30869D1*
X13990Y30626D1*
X14088Y30480D1*
X14234Y30432D1*
X14330D1*
X14476Y30480D1*
X14573Y30626D1*
X14622Y30869D1*
Y31015D1*
X14573Y31257D1*
X14476Y31403D1*
X14330Y31452D1*
X14234D1*
X14573Y31257D2*
X13990Y30626D1*
X12947Y28913D2*
Y27892D1*
X13288D1*
X13434Y27941D1*
X13531Y28038D1*
X13580Y28136D1*
X13628Y28280D1*
Y28524D1*
X13580Y28670D1*
X13531Y28767D1*
X13434Y28864D1*
X13288Y28913D1*
X12947D1*
X14524Y28912D2*
X14039D1*
X13991Y28475D1*
X14039Y28523D1*
X14185Y28572D1*
X14330D1*
X14476Y28523D1*
X14574Y28426D1*
X14622Y28280D1*
Y28184D1*
X14574Y28038D1*
X14476Y27940D1*
X14330Y27892D1*
X14185D1*
X14039Y27940D1*
X13991Y27990D1*
X13942Y28086D1*
X12947Y26373D2*
Y25352D1*
X13288D1*
X13434Y25401D1*
X13531Y25498D1*
X13580Y25596D1*
X13628Y25740D1*
Y25984D1*
X13580Y26130D1*
X13531Y26227D1*
X13434Y26324D1*
X13288Y26373D1*
X12947D1*
X14524Y26227D2*
X14476Y26323D1*
X14330Y26372D1*
X14234D1*
X14088Y26323D1*
X13990Y26177D1*
X13942Y25935D1*
Y25692D1*
X13990Y25498D1*
X14088Y25400D1*
X14234Y25352D1*
X14282D1*
X14427Y25400D1*
X14524Y25498D1*
X14573Y25644D1*
Y25692D1*
X14524Y25838D1*
X14427Y25935D1*
X14282Y25983D1*
X14234D1*
X14088Y25935D1*
X13990Y25838D1*
X13942Y25692D1*
X12947Y23833D2*
Y22812D1*
X13288D1*
X13434Y22861D1*
X13531Y22958D1*
X13580Y23056D1*
X13628Y23200D1*
Y23444D1*
X13580Y23590D1*
X13531Y23687D1*
X13434Y23784D1*
X13288Y23833D1*
X12947D1*
X14136Y22812D2*
X14622Y23832D1*
X13942D1*
X13045Y18752D2*
X13578D1*
X13288Y18363D1*
X13434D1*
X13530Y18315D1*
X13578Y18266D1*
X13628Y18120D1*
Y18024D1*
X13578Y17878D1*
X13482Y17780D1*
X13336Y17732D1*
X13190D1*
X13045Y17780D1*
X12997Y17830D1*
X12947Y17926D1*
X13942Y18753D2*
X14330Y17732D1*
X14719Y18753D1*
X15130Y18752D2*
X15664D1*
X15373Y18363D1*
X15519D1*
X15615Y18315D1*
X15664Y18266D1*
X15713Y18120D1*
Y18024D1*
X15664Y17878D1*
X15567Y17780D1*
X15421Y17732D1*
X15275D1*
X15130Y17780D1*
X15082Y17830D1*
X15032Y17926D1*
M02*
