G04 DipTrace 2.4.0.2*
%INiota.GBO*%
%MOMM*%
%ADD10C,0.25*%
%ADD12C,0.076*%
%ADD17C,0.356*%
%ADD18C,1.27*%
%ADD53C,0.157*%
%ADD54C,0.118*%
%FSLAX53Y53*%
G04*
G71*
G90*
G75*
G01*
%LNBotSilk*%
%LPD*%
X35411Y16996D2*
D10*
Y37316D1*
X32871Y16996D2*
X35411D1*
X32871D2*
Y37316D1*
X35411D1*
X12551Y16996D2*
Y37316D1*
X10011Y16996D2*
X12551D1*
X10011D2*
Y37316D1*
X12551D1*
D18*
X34141Y11281D3*
X22838Y34547D2*
D12*
X23446D1*
X22663Y34471D2*
X23610D1*
X22511Y34395D2*
X23755D1*
X22381Y34319D2*
X22698D1*
X23519D2*
X23881D1*
X22268Y34243D2*
X22568D1*
X23661D2*
X23995D1*
X22171Y34167D2*
X22448D1*
X23792D2*
X24099D1*
X22088Y34091D2*
X22341D1*
X23912D2*
X24192D1*
X22018Y34015D2*
X22246D1*
X24020D2*
X24273D1*
X21958Y33939D2*
X22161D1*
X24114D2*
X24343D1*
X21901Y33863D2*
X22084D1*
X23294D2*
X23598D1*
X24197D2*
X24403D1*
X21841Y33787D2*
X22016D1*
X22727D2*
X23636D1*
X24267D2*
X24459D1*
X21782Y33711D2*
X21957D1*
X22154D2*
X23218D1*
X23446D2*
D3*
X23598D2*
X23668D1*
X24326D2*
X24520D1*
X21730Y33635D2*
X21901D1*
X22154D2*
X22596D1*
X22914D2*
D3*
X23142D2*
X23218D1*
X23370D2*
X23697D1*
X24383D2*
X24579D1*
X19418Y33559D2*
X19494D1*
X19646D2*
X19798D1*
X21685D2*
X21841D1*
X22154D2*
D3*
X22385D2*
X22382D1*
X22610D2*
X22646D1*
X22914D2*
D3*
X23142D2*
X23522D1*
X23674D2*
X23722D1*
X24444D2*
X24633D1*
X19418Y33483D2*
X19530D1*
X19611D2*
X20046D1*
X21643D2*
X21782D1*
X22395D2*
X22458D1*
X22610D2*
X22686D1*
X22914D2*
X23218D1*
X23522D2*
D3*
X23674D2*
X23740D1*
X24503D2*
X24686D1*
X26486D2*
X26562D1*
X19415Y33407D2*
X20268D1*
X21604D2*
X21730D1*
X22416D2*
X22458D1*
X22610D2*
X22990D1*
X23218D2*
X23294D1*
X23522D2*
X23757D1*
X24555D2*
X24738D1*
X25650D2*
D3*
X26410D2*
X26647D1*
X19402Y33331D2*
X19646D1*
X20069D2*
X20437D1*
X21566D2*
X21685D1*
X22445D2*
X22686D1*
X22990D2*
D3*
X23147D2*
X23598D1*
X23750D2*
X23772D1*
X24600D2*
X24786D1*
X25577D2*
X25726D1*
X26522D2*
X26719D1*
X19372Y33255D2*
X19570D1*
X20222D2*
X20550D1*
X21527D2*
X21643D1*
X22477D2*
X22570D1*
X22686D2*
X22762D1*
X22990D2*
X23370D1*
X23598D2*
D3*
X23750D2*
X23780D1*
X24641D2*
X24826D1*
X25514D2*
X25650D1*
X26334D2*
X26486D1*
X26621D2*
X26779D1*
X19321Y33179D2*
X19494D1*
X20336D2*
X20634D1*
X21489D2*
X21604D1*
X22506D2*
X23142D1*
X23294D2*
X23725D1*
X24680D2*
X24860D1*
X25469D2*
X25878D1*
X26407D2*
X26562D1*
X26714D2*
X26822D1*
X19258Y33103D2*
X19418D1*
X20384D2*
X20564D1*
X21451D2*
X21566D1*
X22532D2*
X22838D1*
X23066D2*
D3*
X23218D2*
X23573D1*
X24719D2*
X24888D1*
X25443D2*
X25589D1*
X25741D2*
X25817D1*
X25954D2*
D3*
X26258D2*
X26334D1*
X26467D2*
X26849D1*
X19190Y33027D2*
X19342D1*
X19570D2*
X19646D1*
X20423D2*
X20541D1*
X21413D2*
X21527D1*
X22559D2*
X22646D1*
X22727D2*
X22838D1*
X22990D2*
X23377D1*
X24757D2*
X24918D1*
X25431D2*
X25545D1*
X25697D2*
X25773D1*
X25919D2*
X25954D1*
X26320D2*
X26384D1*
X26513D2*
X26638D1*
X26790D2*
X26870D1*
X19128Y32951D2*
X19266D1*
X19582D2*
X19723D1*
X20451D2*
X20549D1*
X21375D2*
X21490D1*
X22582D2*
X23162D1*
X23598D2*
X23902D1*
X24795D2*
X24951D1*
X25426D2*
X25519D1*
X25671D2*
X25747D1*
X25897D2*
X25914D1*
X26030D2*
D3*
X26258D2*
D3*
X26370D2*
X26434D1*
X26505D2*
X26638D1*
X26790D2*
X26891D1*
X19079Y32875D2*
X19304D1*
X19601D2*
X19805D1*
X20254D2*
D3*
X20471D2*
X20564D1*
X21338D2*
X21454D1*
X22594D2*
X22965D1*
X23335D2*
X23978D1*
X24831D2*
X24984D1*
X25424D2*
X25507D1*
X25659D2*
X25735D1*
X25887D2*
X26638D1*
X26790D2*
X26903D1*
X19038Y32799D2*
X19114D1*
X19269D2*
X19336D1*
X19624D2*
X19904D1*
X20191D2*
X20254D1*
X20489D2*
X20586D1*
X21302D2*
X21423D1*
X22592D2*
X22812D1*
X23083D2*
X23465D1*
X23610D2*
X23710D1*
X23791D2*
X23916D1*
X24861D2*
X25014D1*
X25423D2*
X25505D1*
X25657D2*
X25733D1*
X25885D2*
X26635D1*
X26787D2*
X26899D1*
X19279Y32723D2*
X19365D1*
X19650D2*
X20032D1*
X20114D2*
X20254D1*
X20511D2*
X20610D1*
X21271D2*
X21396D1*
X22577D2*
X22686D1*
X22838D2*
X23212D1*
X23648D2*
X23867D1*
X24888D2*
X25040D1*
X25423D2*
X25514D1*
X25666D2*
X25743D1*
X25894D2*
X25878D1*
X26027D2*
X26625D1*
X26777D2*
X26886D1*
X19297Y32647D2*
X19392D1*
X19691D2*
X20253D1*
X20535D2*
X20634D1*
X21244D2*
X21367D1*
X22559D2*
X23017D1*
X23731D2*
X23826D1*
X24918D2*
X25067D1*
X25426D2*
X25540D1*
X25692D2*
X25773D1*
X25920D2*
X25954D1*
X26090D2*
X26185D1*
X26334D2*
X26410D1*
X26562D2*
X26604D1*
X26756D2*
X26873D1*
X19320Y32571D2*
X19417D1*
X19754D2*
X20245D1*
X20561D2*
X20663D1*
X21215D2*
X21333D1*
X22550D2*
X22871D1*
X23826D2*
X24030D1*
X24951D2*
X25093D1*
X25438D2*
X25574D1*
X25726D2*
X25823D1*
X25954D2*
X26030D1*
X26136D2*
X26195D1*
X26486D2*
X26573D1*
X26724D2*
X26855D1*
X19343Y32495D2*
X19443D1*
X19840D2*
X20224D1*
X20594D2*
X20698D1*
X21182D2*
X21298D1*
X22548D2*
X22827D1*
X23727D2*
X24182D1*
X24984D2*
X25118D1*
X25469D2*
X25886D1*
X26161D2*
X26213D1*
X26410D2*
X26532D1*
X26680D2*
X26825D1*
X19368Y32419D2*
X19466D1*
X19943D2*
X20135D1*
X20634D2*
X20739D1*
X21148D2*
X21261D1*
X22576D2*
X22794D1*
X23651D2*
X24292D1*
X25011D2*
X25144D1*
X25519D2*
X25659D1*
X25802D2*
X25954D1*
X26174D2*
X26232D1*
X26486D2*
D3*
X26624D2*
X26785D1*
X27702D2*
X28538D1*
X19394Y32343D2*
X19481D1*
X20057D2*
X20026D1*
X20426D2*
X20786D1*
X21119D2*
X21226D1*
X22610D2*
X22762D1*
X23597D2*
X23689D1*
X24085D2*
X24326D1*
X25031D2*
X25169D1*
X25583D2*
X25743D1*
X26179D2*
X26243D1*
X26562D2*
X26747D1*
X27606D2*
X28614D1*
X19420Y32267D2*
X19489D1*
X20153D2*
X20553D1*
X21092D2*
X21195D1*
X21850D2*
X22002D1*
X23560D2*
X23645D1*
X24221D2*
X24345D1*
X25049D2*
X25194D1*
X25653D2*
X25815D1*
X26181D2*
X26244D1*
X26638D2*
X26714D1*
X27482D2*
X28687D1*
X19454Y32191D2*
X19494D1*
X19805D2*
X20295D1*
X21065D2*
X21168D1*
X21765D2*
X22103D1*
X23542D2*
X23615D1*
X24322D2*
X24353D1*
X25071D2*
X25219D1*
X25726D2*
X25878D1*
X26182D2*
X26217D1*
X27335D2*
X27972D1*
X28310D2*
X28754D1*
X19494Y32115D2*
X20020D1*
X21039D2*
X21139D1*
X21693D2*
X22245D1*
X23536D2*
X23615D1*
X24308D2*
X24356D1*
X25095D2*
X25243D1*
X26182D2*
D3*
X27200D2*
X27824D1*
X28310D2*
X28811D1*
X19454Y32039D2*
X19733D1*
X21015D2*
X21106D1*
X21630D2*
X22448D1*
X22610D2*
D3*
X23562D2*
X23646D1*
X24281D2*
X24358D1*
X25118D2*
X25260D1*
X27092D2*
X27702D1*
X28304D2*
X28865D1*
X19418Y31963D2*
X19429D1*
X20989D2*
X21072D1*
X21578D2*
X22762D1*
X23599D2*
X23694D1*
X24211D2*
X24361D1*
X25144D2*
X25277D1*
X27048D2*
X27918D1*
X28290D2*
X28918D1*
X18278Y31887D2*
X18886D1*
X20963D2*
X21043D1*
X21536D2*
X22797D1*
X23711D2*
X23750D1*
X24130D2*
X24374D1*
X25167D2*
X25299D1*
X27043D2*
X28146D1*
X28231D2*
X28966D1*
X17951Y31811D2*
X19369D1*
X20939D2*
X21016D1*
X21504D2*
X22819D1*
X23860D2*
X24221D1*
X24358D2*
X24405D1*
X25184D2*
X25320D1*
X27051D2*
X29006D1*
X17683Y31735D2*
X18393D1*
X18917D2*
X19811D1*
X20912D2*
X20990D1*
X21486D2*
X22548D1*
X22672D2*
X22830D1*
X24009D2*
X24250D1*
X24358D2*
X24452D1*
X25201D2*
X25337D1*
X27065D2*
X29037D1*
X17481Y31659D2*
X18036D1*
X19427D2*
X20229D1*
X20886D2*
X20966D1*
X21477D2*
X22575D1*
X22646D2*
X22835D1*
X24123D2*
X24291D1*
X24423D2*
X24506D1*
X25223D2*
X25353D1*
X26927D2*
X29056D1*
X17332Y31583D2*
X17764D1*
X19864D2*
X20653D1*
X20862D2*
X20972D1*
X21473D2*
X22834D1*
X24206D2*
X24336D1*
X24480D2*
X24556D1*
X25247D2*
X25375D1*
X26687D2*
X28310D1*
X28462D2*
X28918D1*
X17217Y31507D2*
X17568D1*
X20219D2*
X21041D1*
X21470D2*
X22825D1*
X24273D2*
X24387D1*
X24536D2*
X24597D1*
X25270D2*
X25396D1*
X26359D2*
X27256D1*
X28034D2*
X28936D1*
X17130Y31431D2*
X17425D1*
X20475D2*
X21206D1*
X21853D2*
X22807D1*
X24330D2*
X24446D1*
X24597D2*
X24632D1*
X25296D2*
X25411D1*
X25988D2*
X26763D1*
X28380D2*
X28967D1*
X17068Y31355D2*
X17318D1*
X20658D2*
X21406D1*
X22126D2*
X22785D1*
X24391D2*
X24510D1*
X24662D2*
X24640D1*
X25322D2*
X25422D1*
X25596D2*
X26333D1*
X28640D2*
X29043D1*
X17024Y31279D2*
X17240D1*
X18962D2*
X19190D1*
X20732D2*
X20851D1*
X21166D2*
X21622D1*
X22305D2*
X22760D1*
X24477D2*
X24617D1*
X25346D2*
X25993D1*
X28824D2*
X29126D1*
X16992Y31203D2*
X17186D1*
X18819D2*
X19298D1*
X20723D2*
X20832D1*
X21394D2*
X21838D1*
X22430D2*
X22726D1*
X24597D2*
X24586D1*
X25071D2*
X25757D1*
X28954D2*
X29200D1*
X16963Y31127D2*
X17148D1*
X18712D2*
X18813D1*
X19239D2*
X19386D1*
X20714D2*
X20812D1*
X21622D2*
X22044D1*
X22534D2*
X22686D1*
X24803D2*
X25593D1*
X29052D2*
X29260D1*
X16939Y31051D2*
X17117D1*
X18633D2*
X18747D1*
X19338D2*
X19452D1*
X20701D2*
X20796D1*
X21847D2*
X22240D1*
X24544D2*
X25045D1*
X25358D2*
X25524D1*
X26790D2*
X27018D1*
X28082D2*
X28234D1*
X29127D2*
X29309D1*
X16927Y30975D2*
X17094D1*
X18607D2*
X18693D1*
X19407D2*
X19501D1*
X20681D2*
X20779D1*
X22066D2*
X22421D1*
X24298D2*
X24754D1*
X25377D2*
X25537D1*
X26760D2*
X27050D1*
X28071D2*
X28234D1*
X29186D2*
X29352D1*
X16929Y30899D2*
X17082D1*
X18593D2*
X18652D1*
X18962D2*
D3*
X19459D2*
X19534D1*
X20660D2*
X20758D1*
X22275D2*
X22580D1*
X24061D2*
X24484D1*
X25397D2*
X25552D1*
X26762D2*
X26902D1*
X26983D2*
X27069D1*
X28052D2*
X28436D1*
X29231D2*
X29389D1*
X16944Y30823D2*
X17098D1*
X18586D2*
X18621D1*
X18927D2*
X18962D1*
X19477D2*
X19551D1*
X20647D2*
X20736D1*
X22480D2*
X22715D1*
X23829D2*
X24237D1*
X25410D2*
X25563D1*
X26772D2*
X27048D1*
X28032D2*
X28591D1*
X29264D2*
X29418D1*
X16964Y30747D2*
X17117D1*
X18584D2*
X18630D1*
X18906D2*
X18886D1*
X19038D2*
X19266D1*
X19484D2*
X19551D1*
X20640D2*
X20720D1*
X22686D2*
X22838D1*
X23599D2*
X24008D1*
X25420D2*
X25570D1*
X26782D2*
X27018D1*
X28019D2*
X28082D1*
X28614D2*
X28652D1*
X29282D2*
X29435D1*
X15846Y30671D2*
X15922D1*
X16987D2*
X17140D1*
X18586D2*
X18655D1*
X18898D2*
X19266D1*
X19479D2*
X19537D1*
X20636D2*
X20703D1*
X23371D2*
X23786D1*
X25433D2*
X25575D1*
X26562D2*
X27135D1*
X28012D2*
X28082D1*
X28614D2*
X28673D1*
X29292D2*
X29444D1*
X15618Y30595D2*
D3*
X15735D2*
X16045D1*
X17012D2*
X17167D1*
X18598D2*
X18695D1*
X18899D2*
X18886D1*
X19266D2*
D3*
X19462D2*
X19519D1*
X20635D2*
X20681D1*
X23145D2*
X23568D1*
X24510D2*
X24814D1*
X25452D2*
X25586D1*
X26550D2*
X26658D1*
X26847D2*
X26962D1*
X27151D2*
X27220D1*
X28008D2*
X28082D1*
X28614D2*
X28683D1*
X29296D2*
X29448D1*
X15519Y30519D2*
X16159D1*
X17037D2*
X17200D1*
X18629D2*
X18754D1*
X18929D2*
X18962D1*
X19266D2*
D3*
X19444D2*
X19503D1*
X20635D2*
X20657D1*
X22927D2*
X23352D1*
X24379D2*
X24951D1*
X25472D2*
X25605D1*
X26531D2*
X26717D1*
X26787D2*
X27021D1*
X27091D2*
X27282D1*
X28007D2*
X28082D1*
X28614D2*
X28688D1*
X29297D2*
X29446D1*
X15434Y30443D2*
X16253D1*
X17062D2*
X17235D1*
X18679D2*
X18832D1*
X18968D2*
X19020D1*
X19266D2*
X19267D1*
X19430D2*
X19485D1*
X20634D2*
D3*
X22717D2*
X23136D1*
X24276D2*
X25072D1*
X25486D2*
X25625D1*
X26508D2*
X27305D1*
X28007D2*
X28082D1*
X28614D2*
X28689D1*
X29295D2*
X29437D1*
X15364Y30367D2*
X16327D1*
X17090D2*
X17272D1*
X18743D2*
X18930D1*
X19005D2*
X19066D1*
X19266D2*
X19269D1*
X19420D2*
X19455D1*
X22512D2*
X22923D1*
X24236D2*
X24358D1*
X24586D2*
X24738D1*
X24966D2*
X25173D1*
X25493D2*
X25638D1*
X26486D2*
X27322D1*
X28006D2*
X28082D1*
X28614D2*
X28690D1*
X29285D2*
X29419D1*
X15338Y30291D2*
X16356D1*
X17123D2*
X17310D1*
X18811D2*
X19071D1*
X19266D2*
X19281D1*
X19405D2*
X19418D1*
X22310D2*
X22716D1*
X24358D2*
X25262D1*
X25496D2*
X25645D1*
X28006D2*
X28082D1*
X28614D2*
X28690D1*
X29264D2*
X29397D1*
X15325Y30215D2*
X16380D1*
X17159D2*
X17350D1*
X18875D2*
X19076D1*
X19266D2*
X19307D1*
X19378D2*
X19453D1*
X22116D2*
X22511D1*
X24372D2*
X25346D1*
X25497D2*
X25648D1*
X26790D2*
X27018D1*
X28006D2*
X28082D1*
X28614D2*
X28690D1*
X29235D2*
X29374D1*
X15318Y30139D2*
X16405D1*
X17199D2*
X17395D1*
X18929D2*
X19126D1*
X19266D2*
X19475D1*
X21930D2*
X22307D1*
X24393D2*
X24358D1*
X24614D2*
X24662D1*
X24890D2*
X25241D1*
X25498D2*
X25649D1*
X26334D2*
X26410D1*
X26779D2*
X27034D1*
X27398D2*
X27474D1*
X28006D2*
X28082D1*
X28614D2*
X28690D1*
X29201D2*
X29346D1*
X15316Y30063D2*
X16427D1*
X17243D2*
X17444D1*
X18972D2*
X19486D1*
X21739D2*
X22107D1*
X24516D2*
X25130D1*
X25501D2*
X25650D1*
X26304D2*
X26440D1*
X26760D2*
X27060D1*
X27392D2*
X27512D1*
X28007D2*
X28082D1*
X28614D2*
X28690D1*
X29164D2*
X29313D1*
X15315Y29987D2*
X16441D1*
X17293D2*
X17493D1*
X19005D2*
X19488D1*
X21544D2*
X21914D1*
X24622D2*
X25015D1*
X25511D2*
X25650D1*
X26314D2*
X26431D1*
X26740D2*
X27142D1*
X27378D2*
X27544D1*
X28009D2*
X28687D1*
X29127D2*
X29277D1*
X30134D2*
X30514D1*
X15318Y29911D2*
X16445D1*
X17342D2*
X17543D1*
X19029D2*
X19480D1*
X21355D2*
X21729D1*
X24814D2*
X24907D1*
X25529D2*
X25650D1*
X26334D2*
X26410D1*
X26727D2*
X27259D1*
X27319D2*
X27576D1*
X28021D2*
X28118D1*
X28199D2*
X28498D1*
X28579D2*
X28675D1*
X29086D2*
X29238D1*
X30050D2*
X30613D1*
X15326Y29835D2*
X16441D1*
X17394D2*
X17595D1*
X19060D2*
X19460D1*
X21172D2*
X21549D1*
X24586D2*
X24813D1*
X25549D2*
X25651D1*
X26264D2*
X26480D1*
X26720D2*
X27610D1*
X28047D2*
X28649D1*
X29039D2*
X29193D1*
X29945D2*
X30134D1*
X30438D2*
X30689D1*
X15369Y29759D2*
X16399D1*
X17453D2*
X17645D1*
X19114D2*
X19429D1*
X20991D2*
X21370D1*
X24586D2*
X24771D1*
X25562D2*
X25653D1*
X26212D2*
X26532D1*
X26717D2*
X27641D1*
X28082D2*
X28614D1*
X28982D2*
X29144D1*
X29817D2*
X30058D1*
X30514D2*
X30744D1*
X15429Y29683D2*
X16341D1*
X17511D2*
X17698D1*
X19187D2*
X19388D1*
X20815D2*
X21194D1*
X24586D2*
X24738D1*
X25569D2*
X25663D1*
X26197D2*
X26548D1*
X26718D2*
X27665D1*
X28925D2*
X29095D1*
X29695D2*
X29982D1*
X30587D2*
X30781D1*
X15491Y29607D2*
X16281D1*
X17566D2*
X17760D1*
X19266D2*
X19342D1*
X20648D2*
X21025D1*
X21926D2*
X23978D1*
X25572D2*
X25681D1*
X26191D2*
X26554D1*
X26727D2*
X27656D1*
X28871D2*
X29042D1*
X29596D2*
X30017D1*
X30650D2*
X30801D1*
X15540Y29531D2*
X15843D1*
X16074D2*
X16226D1*
X17621D2*
X17828D1*
X20488D2*
X20855D1*
X21926D2*
X24013D1*
X25573D2*
X25701D1*
X26197D2*
X26547D1*
X26745D2*
X27109D1*
X27258D2*
X27634D1*
X28816D2*
X28981D1*
X29560D2*
X30036D1*
X30701D2*
X30811D1*
X15576Y29455D2*
X15834D1*
X17683D2*
X17900D1*
X20333D2*
X20682D1*
X21926D2*
X24035D1*
X25574D2*
X25714D1*
X26214D2*
X26531D1*
X26765D2*
X27065D1*
X27277D2*
X27606D1*
X28754D2*
X28915D1*
X29541D2*
X30042D1*
X30714D2*
X30812D1*
X15572Y29379D2*
X15815D1*
X17752D2*
X17972D1*
X20179D2*
X20509D1*
X21926D2*
X22078D1*
X23902D2*
X24046D1*
X25574D2*
X25718D1*
X26233D2*
X26512D1*
X26778D2*
X27039D1*
X27297D2*
X27580D1*
X28685D2*
X28850D1*
X29532D2*
X30011D1*
X30677D2*
X30802D1*
X15558Y29303D2*
X15793D1*
X17824D2*
X18038D1*
X20030D2*
X20346D1*
X21926D2*
X22078D1*
X23902D2*
X24051D1*
X25574D2*
X25711D1*
X26246D2*
X26499D1*
X26785D2*
X27027D1*
X27310D2*
X27565D1*
X28612D2*
X28784D1*
X29532D2*
X29964D1*
X30362D2*
X30438D1*
X30567D2*
X30774D1*
X15539Y29227D2*
X15770D1*
X17899D2*
X18096D1*
X19887D2*
X20196D1*
X21926D2*
X22078D1*
X23902D2*
X24053D1*
X25574D2*
X25695D1*
X26253D2*
X26492D1*
X26788D2*
X27022D1*
X27317D2*
X27556D1*
X28537D2*
X28712D1*
X29542D2*
X29912D1*
X30286D2*
X30737D1*
X15515Y29151D2*
X15744D1*
X16606D2*
X16986D1*
X17975D2*
X18152D1*
X19753D2*
X20059D1*
X21926D2*
X22078D1*
X23902D2*
X24054D1*
X25574D2*
X25676D1*
X26256D2*
X26488D1*
X26790D2*
X27019D1*
X27320D2*
X27553D1*
X28462D2*
X28637D1*
X29567D2*
X29868D1*
X30211D2*
X30704D1*
X15490Y29075D2*
X15718D1*
X16539D2*
X17097D1*
X18050D2*
X18215D1*
X19624D2*
X19926D1*
X21926D2*
X22078D1*
X23902D2*
X24054D1*
X25574D2*
X25663D1*
X26258D2*
X26486D1*
X26790D2*
X27018D1*
X27322D2*
X27550D1*
X28386D2*
X28563D1*
X29602D2*
X29830D1*
X30138D2*
X30684D1*
X15466Y28999D2*
X15694D1*
X16473D2*
X16606D1*
X17062D2*
X17227D1*
X18126D2*
X18287D1*
X19495D2*
X19789D1*
X21926D2*
X22078D1*
X23902D2*
X24054D1*
X25574D2*
X25656D1*
X28310D2*
X28485D1*
X30077D2*
X30670D1*
X16401Y28923D2*
X16530D1*
X17062D2*
X17349D1*
X18202D2*
X18369D1*
X19371D2*
X19654D1*
X21926D2*
X22078D1*
X23902D2*
X24054D1*
X25574D2*
X25652D1*
X28231D2*
X28401D1*
X30032D2*
X30653D1*
X16331Y28847D2*
X17062D1*
X17272D2*
X17448D1*
X18278D2*
X18462D1*
X19251D2*
X19523D1*
X20482D2*
X21014D1*
X21926D2*
X22078D1*
X23902D2*
X24054D1*
X25574D2*
X25651D1*
X26106D2*
X26182D1*
X28146D2*
X28318D1*
X30039D2*
X30626D1*
X16280Y28771D2*
X16540D1*
X17062D2*
X17149D1*
X17380D2*
X17485D1*
X18354D2*
X18560D1*
X19129D2*
X19395D1*
X20418D2*
X21087D1*
X21926D2*
X22078D1*
X23902D2*
X24054D1*
X25571D2*
X25651D1*
X26173D2*
X26320D1*
X28051D2*
X28238D1*
X28994D2*
X29298D1*
X30099D2*
X30557D1*
X16251Y28695D2*
X16561D1*
X16898D2*
X17226D1*
X17462D2*
X17504D1*
X18430D2*
X18661D1*
X18992D2*
X19270D1*
X20364D2*
X20558D1*
X20938D2*
X21150D1*
X21926D2*
X22078D1*
X23902D2*
X24054D1*
X25562D2*
X25650D1*
X26250D2*
X26443D1*
X27956D2*
X28159D1*
X28692D2*
X29299D1*
X30185D2*
X30466D1*
X16240Y28619D2*
X16649D1*
X16661D2*
X17259D1*
X17486D2*
X17509D1*
X18506D2*
X18770D1*
X18832D2*
X19159D1*
X20320D2*
X20938D1*
X21102D2*
X21196D1*
X21926D2*
X22078D1*
X23902D2*
X24054D1*
X25543D2*
X25650D1*
X26332D2*
X26554D1*
X27864D2*
X28080D1*
X28457D2*
X29027D1*
X29222D2*
X29301D1*
X30286D2*
X30362D1*
X16239Y28543D2*
X17278D1*
X17469D2*
X17507D1*
X18582D2*
X19064D1*
X20289D2*
X20407D1*
X20558D2*
X20964D1*
X21121D2*
X21221D1*
X21926D2*
X22078D1*
X23902D2*
X24054D1*
X25524D2*
X25650D1*
X26421D2*
X26661D1*
X27771D2*
X27994D1*
X28284D2*
X28768D1*
X29218D2*
X29311D1*
X16270Y28467D2*
X17290D1*
X17442D2*
X17473D1*
X18658D2*
X19018D1*
X20273D2*
X20409D1*
X20555D2*
X20710D1*
X20859D2*
X20984D1*
X21138D2*
X21234D1*
X21926D2*
X22078D1*
X23902D2*
X24054D1*
X25511D2*
X25650D1*
X26516D2*
X26765D1*
X27673D2*
X27899D1*
X28213D2*
X28560D1*
X29207D2*
X29329D1*
X16308Y28391D2*
X17424D1*
X18556D2*
X19020D1*
X20269D2*
X20421D1*
X20543D2*
X20634D1*
X20847D2*
X20995D1*
X21147D2*
X21239D1*
X21926D2*
X22078D1*
X23902D2*
X24054D1*
X25504D2*
X25650D1*
X26615D2*
X26875D1*
X27567D2*
X27804D1*
X28221D2*
X28406D1*
X29139D2*
X29349D1*
X16346Y28315D2*
X17368D1*
X18455D2*
X19066D1*
X20299D2*
X20447D1*
X20517D2*
X20746D1*
X20821D2*
X20979D1*
X21127D2*
X21238D1*
X21926D2*
X22078D1*
X23902D2*
X24054D1*
X25500D2*
X25650D1*
X26714D2*
X27013D1*
X27442D2*
X27712D1*
X28228D2*
X28351D1*
X28918D2*
X29362D1*
X16386Y28239D2*
X17308D1*
X18355D2*
X18579D1*
X18871D2*
X19129D1*
X20394D2*
X20962D1*
X21099D2*
X21226D1*
X21926D2*
X24054D1*
X25499D2*
X25650D1*
X26812D2*
X27193D1*
X27281D2*
X27619D1*
X28234D2*
X28310D1*
X28602D2*
X29372D1*
X16433Y28163D2*
X17248D1*
X18253D2*
X18493D1*
X18992D2*
X19207D1*
X20537D2*
X20949D1*
X21030D2*
X21195D1*
X21923D2*
X24055D1*
X25499D2*
X25650D1*
X26895D2*
X27521D1*
X28246D2*
X29182D1*
X29263D2*
X29385D1*
X16476Y28087D2*
X16626D1*
X16758D2*
X17198D1*
X18154D2*
X18396D1*
X19094D2*
X19299D1*
X20710D2*
D3*
X20882D2*
X21142D1*
X21913D2*
X24057D1*
X25498D2*
X25647D1*
X26958D2*
X27421D1*
X28265D2*
X28541D1*
X28766D2*
D3*
X28883D2*
X29404D1*
X16504Y28011D2*
X16685D1*
X16834D2*
X17166D1*
X18061D2*
X18291D1*
X19185D2*
X19396D1*
X20589D2*
X21066D1*
X21892D2*
X24067D1*
X25498D2*
X25638D1*
X26975D2*
X27322D1*
X28284D2*
X28386D1*
X28538D2*
X28551D1*
X28766D2*
X29424D1*
X16519Y27935D2*
X17150D1*
X17967D2*
X18184D1*
X19276D2*
X19495D1*
X20482D2*
X20964D1*
X21863D2*
X22230D1*
X22458D2*
X23710D1*
X23791D2*
X24088D1*
X25495D2*
X25619D1*
X26908D2*
X27399D1*
X28298D2*
X28570D1*
X28766D2*
X29030D1*
X29111D2*
X29438D1*
X16526Y27859D2*
X17143D1*
X17870D2*
X18081D1*
X19372D2*
X19596D1*
X20594D2*
X20842D1*
X21832D2*
X24118D1*
X25486D2*
X25600D1*
X26823D2*
X27082D1*
X27322D2*
X27477D1*
X28305D2*
X28310D1*
X28427D2*
X28592D1*
X28766D2*
D3*
X28918D2*
X29445D1*
X16530Y27783D2*
X17138D1*
X17773D2*
X17989D1*
X19468D2*
X19697D1*
X20710D2*
D3*
X21802D2*
X24152D1*
X25467D2*
X25587D1*
X26720D2*
X26985D1*
X27398D2*
X27563D1*
X28311D2*
X28462D1*
X28614D2*
D3*
X28766D2*
X29258D1*
X29339D2*
X29444D1*
X30058D2*
X30134D1*
X17683Y27707D2*
X17904D1*
X19561D2*
X19798D1*
X21776D2*
X24188D1*
X25448D2*
X25580D1*
X26606D2*
X26879D1*
X27474D2*
X27657D1*
X28322D2*
X28878D1*
X28959D2*
X29435D1*
X29985D2*
X30211D1*
X15998Y27631D2*
D3*
X17600D2*
X17822D1*
X19654D2*
X19902D1*
X21747D2*
X24226D1*
X25435D2*
X25576D1*
X26486D2*
X26769D1*
X27550D2*
X27753D1*
X28341D2*
X28462D1*
X28766D2*
X29369D1*
X29919D2*
X30290D1*
X15466Y27555D2*
X15542D1*
X15922D2*
X16302D1*
X17520D2*
X17735D1*
X19751D2*
X20011D1*
X21713D2*
X24263D1*
X25427D2*
X25575D1*
X26371D2*
X26656D1*
X27627D2*
X27842D1*
X28361D2*
X29175D1*
X29861D2*
X30378D1*
X15370Y27479D2*
X15694D1*
X15846D2*
X16349D1*
X17440D2*
X17640D1*
X19851D2*
X20123D1*
X21678D2*
X24298D1*
X25421D2*
X25572D1*
X26261D2*
X26543D1*
X27705D2*
X27925D1*
X28375D2*
X28912D1*
X29805D2*
X30070D1*
X30362D2*
X30478D1*
X15293Y27403D2*
X15405D1*
X15618D2*
X16074D1*
X16211D2*
X16389D1*
X17354D2*
X17544D1*
X18506D2*
X18734D1*
X19950D2*
X20236D1*
X21641D2*
X22610D1*
X23294D2*
X24326D1*
X25410D2*
X25562D1*
X26147D2*
X26426D1*
X27791D2*
X28004D1*
X28386D2*
X28614D1*
X29745D2*
X30109D1*
X30438D2*
X30576D1*
X15265Y27327D2*
X15361D1*
X15694D2*
D3*
X15846D2*
D3*
X16074D2*
X16150D1*
X16255D2*
X16418D1*
X17262D2*
X17455D1*
X18278D2*
D3*
X18435D2*
X18770D1*
X18886D2*
X19114D1*
X20051D2*
X20349D1*
X21609D2*
X22610D1*
X23294D2*
X24343D1*
X25392D2*
X25543D1*
X26031D2*
X26302D1*
X27885D2*
X28081D1*
X29686D2*
X30213D1*
X30514D2*
X30658D1*
X15249Y27251D2*
X15335D1*
X16285D2*
X16433D1*
X17177D2*
X17372D1*
X18202D2*
X19114D1*
X20147D2*
X20463D1*
X21584D2*
X22610D1*
X23294D2*
X24352D1*
X25372D2*
X25524D1*
X25932D2*
X26167D1*
X27978D2*
X28158D1*
X29631D2*
X29906D1*
X30134D2*
X30353D1*
X30403D2*
X30692D1*
X15243Y27175D2*
X15322D1*
X16286D2*
X16416D1*
X17106D2*
X17293D1*
X18126D2*
X19114D1*
X20222D2*
X20577D1*
X21598D2*
X24356D1*
X25359D2*
X25510D1*
X25860D2*
X26025D1*
X27398D2*
X27626D1*
X28060D2*
X28234D1*
X29579D2*
X29830D1*
X30196D2*
X30641D1*
X15243Y27099D2*
X15542D1*
X16255D2*
X16389D1*
X17042D2*
X17218D1*
X18202D2*
X19418D1*
X20277D2*
X20692D1*
X21622D2*
X24358D1*
X25351D2*
X25501D1*
X25802D2*
X25878D1*
X27348D2*
X27749D1*
X28132D2*
X28310D1*
X29526D2*
X29975D1*
X30246D2*
X30582D1*
X15255Y27023D2*
X15516D1*
X16207D2*
X16356D1*
X16976D2*
X17151D1*
X18082D2*
X18506D1*
X18734D2*
D3*
X18851D2*
X19404D1*
X20279D2*
X20406D1*
X20570D2*
X20808D1*
X25345D2*
X25488D1*
X27295D2*
X27863D1*
X28200D2*
X28383D1*
X29476D2*
X29771D1*
X29906D2*
X30157D1*
X30286D2*
X30522D1*
X15285Y26947D2*
X15493D1*
X16150D2*
X16317D1*
X16906D2*
X17091D1*
X17985D2*
X18390D1*
X18506D2*
X19378D1*
X20274D2*
X20406D1*
X20668D2*
X20932D1*
X23826D2*
X23978D1*
X25334D2*
X25468D1*
X27236D2*
X27957D1*
X28265D2*
X28450D1*
X29423D2*
X29719D1*
X30018D2*
X30468D1*
X15333Y26871D2*
X15478D1*
X16302D2*
X16273D1*
X16832D2*
X17027D1*
X17898D2*
X19342D1*
X20276D2*
X20406D1*
X20776D2*
X21064D1*
X23846D2*
X24200D1*
X25316D2*
X25448D1*
X27177D2*
X27398D1*
X27626D2*
X28026D1*
X28329D2*
X28507D1*
X29364D2*
X29788D1*
X30134D2*
X30415D1*
X15390Y26795D2*
X15466D1*
X15694D2*
D3*
X15998D2*
X16224D1*
X16758D2*
X16956D1*
X17974D2*
X18521D1*
X18883D2*
X19424D1*
X20289D2*
X20406D1*
X20897D2*
X21201D1*
X23858D2*
X24130D1*
X24264D2*
X24348D1*
X25296D2*
X25434D1*
X27123D2*
X28083D1*
X28395D2*
X28564D1*
X29305D2*
X29949D1*
X30058D2*
X30362D1*
X15657Y26719D2*
X15770D1*
X15984D2*
X16175D1*
X16682D2*
X16885D1*
X18050D2*
X18202D1*
X18354D2*
X18477D1*
X18943D2*
X19485D1*
X20306D2*
X20406D1*
X21030D2*
X21338D1*
X23598D2*
X23674D1*
X23812D2*
X24130D1*
X24310D2*
X24444D1*
X25282D2*
X25425D1*
X27071D2*
X28148D1*
X28466D2*
X28626D1*
X29251D2*
X29540D1*
X29830D2*
X30312D1*
X15705Y26643D2*
X15882D1*
X15958D2*
X16122D1*
X16606D2*
X16819D1*
X17981D2*
X18202D1*
X18354D2*
X18447D1*
X18988D2*
X19114D1*
X19266D2*
X19534D1*
X20319D2*
X20406D1*
X21173D2*
X21480D1*
X23624D2*
X23902D1*
X24054D2*
X24130D1*
X24306D2*
X24510D1*
X25273D2*
X25412D1*
X27025D2*
X27184D1*
X27308D2*
X28222D1*
X28540D2*
X28693D1*
X29196D2*
X29596D1*
X29871D2*
X30258D1*
X15771Y26567D2*
X16061D1*
X16533D2*
X16751D1*
X17931D2*
X18202D1*
X18354D2*
X18451D1*
X18997D2*
X19114D1*
X19266D2*
X19483D1*
X20325D2*
X20406D1*
X21321D2*
X21626D1*
X23647D2*
X23826D1*
X24284D2*
X24559D1*
X25260D2*
X25392D1*
X25954D2*
X26030D1*
X26334D2*
X26410D1*
X26988D2*
X27211D1*
X27282D2*
X27322D1*
X27439D2*
X28289D1*
X28612D2*
X28756D1*
X29135D2*
X29739D1*
X29906D2*
X30197D1*
X15845Y26491D2*
X15993D1*
X16467D2*
X16682D1*
X17930D2*
X18202D1*
X18354D2*
X18512D1*
X18885D2*
X19418D1*
X20328D2*
X20406D1*
X21471D2*
X21776D1*
X23662D2*
X23848D1*
X24242D2*
X24446D1*
X24586D2*
X24599D1*
X25240D2*
X25372D1*
X26004D2*
X26059D1*
X26305D2*
X26378D1*
X26998D2*
X28343D1*
X28678D2*
X28812D1*
X29070D2*
X29374D1*
X29602D2*
X30132D1*
X15922Y26415D2*
D3*
X16409D2*
X16618D1*
X17982D2*
X18683D1*
X18715D2*
X19074D1*
X19155D2*
X19457D1*
X20330D2*
X20406D1*
X21623D2*
X21927D1*
X23672D2*
X23823D1*
X24174D2*
X24386D1*
X24586D2*
X24626D1*
X25220D2*
X25356D1*
X26054D2*
X26094D1*
X26271D2*
X26354D1*
X27057D2*
X28359D1*
X28735D2*
X28868D1*
X29175D2*
X29298D1*
X29678D2*
X30069D1*
X16356Y26339D2*
X16561D1*
X18050D2*
X18314D1*
X18395D2*
X19468D1*
X20330D2*
X20406D1*
X21774D2*
X22079D1*
X23688D2*
X23787D1*
X24083D2*
X24320D1*
X24585D2*
X24640D1*
X25204D2*
X25339D1*
X26106D2*
X26136D1*
X26229D2*
X26466D1*
X27139D2*
X28336D1*
X28789D2*
X28928D1*
X29284D2*
X29410D1*
X29754D2*
X30013D1*
X16303Y26263D2*
X16505D1*
X18021D2*
X19441D1*
X20330D2*
X20406D1*
X21926D2*
X22230D1*
X23721D2*
X23750D1*
X23978D2*
X24238D1*
X24582D2*
X24618D1*
X25187D2*
X25318D1*
X25897D2*
X26619D1*
X27238D2*
X28299D1*
X28842D2*
X28987D1*
X29392D2*
X29526D1*
X29678D2*
X29960D1*
X16252Y26187D2*
X16445D1*
X18029D2*
X18506D1*
X18886D2*
X19381D1*
X20330D2*
X20407D1*
X22078D2*
X22382D1*
X23774D2*
X24147D1*
X24546D2*
X24586D1*
X25166D2*
X25296D1*
X25718D2*
X26763D1*
X27343D2*
X28256D1*
X28892D2*
X29039D1*
X29495D2*
X29909D1*
X16201Y26111D2*
X16386D1*
X18074D2*
X19323D1*
X20330D2*
X20409D1*
X22230D2*
X22534D1*
X23850D2*
X24054D1*
X24427D2*
X24624D1*
X25144D2*
X25280D1*
X25632D2*
X26874D1*
X27447D2*
X28208D1*
X28943D2*
X29084D1*
X29589D2*
X29866D1*
X16150Y26035D2*
X16334D1*
X18126D2*
D3*
X18285D2*
X19266D1*
X20330D2*
X20419D1*
X22383D2*
X22687D1*
X23946D2*
X24130D1*
X24282D2*
X24656D1*
X25128D2*
X25263D1*
X25601D2*
X25893D1*
X26866D2*
X26910D1*
X27549D2*
X28157D1*
X28992D2*
X29125D1*
X29678D2*
X29830D1*
X16103Y25959D2*
X16289D1*
X18298D2*
X19196D1*
X20331D2*
X20437D1*
X22537D2*
X22841D1*
X24054D2*
X24358D1*
X24510D2*
X24682D1*
X25111D2*
X25241D1*
X25585D2*
X25849D1*
X26866D2*
X26929D1*
X27652D2*
X28108D1*
X29032D2*
X29164D1*
X16062Y25883D2*
X16248D1*
X18358D2*
X18506D1*
X18658D2*
X18886D1*
X19114D2*
D3*
X20333D2*
X20457D1*
X22699D2*
X23003D1*
X24510D2*
X24703D1*
X25089D2*
X25218D1*
X25579D2*
X25823D1*
X26866D2*
X26937D1*
X27754D2*
X28058D1*
X29064D2*
X29203D1*
X16029Y25807D2*
X16211D1*
X18430D2*
X18506D1*
X18658D2*
X18886D1*
X20343D2*
X20470D1*
X22869D2*
X23173D1*
X24510D2*
X24695D1*
X25066D2*
X25194D1*
X25576D2*
X25686D1*
X25802D2*
X25811D1*
X26866D2*
X26940D1*
X27854D2*
X28006D1*
X29094D2*
X29238D1*
X16001Y25731D2*
X16180D1*
X20361D2*
X20477D1*
X23041D2*
X23348D1*
X24510D2*
X24682D1*
X25042D2*
X25169D1*
X25575D2*
X25806D1*
X26866D2*
X26942D1*
X28386D2*
X28462D1*
X29122D2*
X29267D1*
X15974Y25655D2*
X16153D1*
X20381D2*
X20483D1*
X21014D2*
X22078D1*
X23206D2*
X23523D1*
X24510D2*
X24671D1*
X25014D2*
X25143D1*
X25574D2*
X25804D1*
X26866D2*
X26942D1*
X28349D2*
X28509D1*
X29146D2*
X29286D1*
X15950Y25579D2*
X16126D1*
X20394D2*
X20494D1*
X20979D2*
X22113D1*
X23365D2*
X23700D1*
X24510D2*
X24662D1*
X24981D2*
X25119D1*
X25574D2*
X25803D1*
X26866D2*
X26942D1*
X28399D2*
X28587D1*
X28972D2*
X29305D1*
X15933Y25503D2*
X16102D1*
X20404D2*
X20513D1*
X20957D2*
X22135D1*
X23522D2*
X23877D1*
X24948D2*
X25093D1*
X25575D2*
X25802D1*
X26866D2*
X26942D1*
X28462D2*
X28704D1*
X28795D2*
X29327D1*
X15916Y25427D2*
X16088D1*
X20417D2*
X20533D1*
X20946D2*
X22146D1*
X23360D2*
X24054D1*
X24918D2*
X25067D1*
X25581D2*
X26936D1*
X28082D2*
D3*
X28332D2*
X28918D1*
X29131D2*
X29348D1*
X15897Y25351D2*
X16080D1*
X20436D2*
X20549D1*
X20941D2*
X22151D1*
X23219D2*
X24238D1*
X24890D2*
X25043D1*
X25594D2*
X26922D1*
X27960D2*
X28082D1*
X28176D2*
X28480D1*
X28603D2*
X28842D1*
X29182D2*
X29362D1*
X15885Y25275D2*
X16077D1*
X20457D2*
X20566D1*
X20939D2*
X22153D1*
X23113D2*
X23245D1*
X23370D2*
X24436D1*
X24855D2*
X25021D1*
X25654D2*
X26863D1*
X27857D2*
X28371D1*
X28565D2*
X29070D1*
X29194D2*
X29369D1*
X15890Y25199D2*
X16078D1*
X17214D2*
X17366D1*
X20473D2*
X20588D1*
X20938D2*
X21278D1*
X21359D2*
X21506D1*
X21587D2*
X21734D1*
X21815D2*
X22154D1*
X23039D2*
X23147D1*
X23522D2*
X24066D1*
X24291D2*
X24656D1*
X24814D2*
X25003D1*
X25726D2*
X25802D1*
X26714D2*
X26790D1*
X27813D2*
X28294D1*
X28481D2*
X28614D1*
X28773D2*
X28994D1*
X29157D2*
X29369D1*
X15902Y25123D2*
X16088D1*
X17243D2*
X17446D1*
X20489D2*
X20617D1*
X20929D2*
X22154D1*
X22986D2*
X23077D1*
X23370D2*
D3*
X23674D2*
X24085D1*
X24445D2*
X25028D1*
X28006D2*
X28234D1*
X28386D2*
X28591D1*
X28788D2*
X28918D1*
X29047D2*
X29361D1*
X15915Y25047D2*
X16109D1*
X17279D2*
X17541D1*
X18430D2*
X18582D1*
X20508D2*
X20654D1*
X20908D2*
X22154D1*
X22951D2*
X23028D1*
X23294D2*
X24105D1*
X24571D2*
X25127D1*
X27991D2*
X28578D1*
X28863D2*
X29343D1*
X15933Y24971D2*
X16141D1*
X17324D2*
X17671D1*
X18050D2*
X18126D1*
X18506D2*
X19038D1*
X20528D2*
X20749D1*
X20819D2*
X22151D1*
X22931D2*
X22990D1*
X23446D2*
X23704D1*
X23808D2*
X24118D1*
X24663D2*
X25272D1*
X27960D2*
X28082D1*
X28310D2*
X28579D1*
X28957D2*
X29321D1*
X15965Y24895D2*
X16185D1*
X17382D2*
X17847D1*
X17903D2*
X18933D1*
X20452D2*
X22139D1*
X22921D2*
X23543D1*
X23851D2*
X24125D1*
X24683D2*
X24902D1*
X25043D2*
X25457D1*
X27913D2*
X28581D1*
X29043D2*
X29295D1*
X16009Y24819D2*
X16246D1*
X17445D2*
X18787D1*
X20270D2*
X22111D1*
X22917D2*
X23414D1*
X23839D2*
X24128D1*
X24673D2*
X24848D1*
X25274D2*
X25670D1*
X27862D2*
X28574D1*
X29115D2*
X29257D1*
X16065Y24743D2*
X16328D1*
X17502D2*
X18618D1*
X20027D2*
X20698D1*
X20936D2*
X22073D1*
X22918D2*
X23355D1*
X23785D2*
X24127D1*
X24654D2*
X24801D1*
X25514D2*
X25912D1*
X27817D2*
X27947D1*
X28085D2*
X28535D1*
X29038D2*
X29203D1*
X16137Y24667D2*
X16448D1*
X17546D2*
X18449D1*
X19723D2*
X20330D1*
X20646D2*
X20752D1*
X21345D2*
X22040D1*
X22928D2*
X23345D1*
X23732D2*
X24117D1*
X24622D2*
X24760D1*
X25770D2*
X26191D1*
X27803D2*
X27906D1*
X28097D2*
X28484D1*
X28940D2*
X29135D1*
X16231Y24591D2*
X16631D1*
X17543D2*
X18286D1*
X19359D2*
X20022D1*
X20665D2*
X20796D1*
X21615D2*
X22020D1*
X22949D2*
X23372D1*
X23684D2*
X24096D1*
X24580D2*
X24720D1*
X26043D2*
X26524D1*
X27816D2*
X27878D1*
X28123D2*
X28082D1*
X28268D2*
X28427D1*
X28818D2*
X29050D1*
X16353Y24515D2*
X16910D1*
X17486D2*
X18126D1*
X18920D2*
X19702D1*
X20688D2*
X20831D1*
X21789D2*
X22009D1*
X22984D2*
X23412D1*
X23625D2*
X24063D1*
X24536D2*
X24679D1*
X26341D2*
X26953D1*
X27835D2*
X28048D1*
X28112D2*
X28369D1*
X28681D2*
X28930D1*
X16526Y24439D2*
X17297D1*
X17328D2*
X18202D1*
X18395D2*
X19359D1*
X20711D2*
X20859D1*
X21926D2*
X22002D1*
X23041D2*
X23500D1*
X23543D2*
X24014D1*
X24494D2*
X24633D1*
X26697D2*
X27515D1*
X27854D2*
X28310D1*
X28538D2*
X28746D1*
X16783Y24363D2*
X19014D1*
X20739D2*
X20890D1*
X23128D2*
X23933D1*
X24455D2*
X24584D1*
X27137D2*
X28478D1*
X17128Y24287D2*
X18706D1*
X20771D2*
X20926D1*
X22306D2*
X22534D1*
X23243D2*
X23814D1*
X24416D2*
X24538D1*
X27626D2*
X28158D1*
X17518Y24211D2*
X17834D1*
X18050D2*
X18430D1*
X20807D2*
X20969D1*
X22277D2*
X22724D1*
X23370D2*
X23674D1*
X24375D2*
X24495D1*
X25042D2*
X26486D1*
X17495Y24135D2*
X17780D1*
X18126D2*
X18534D1*
X20847D2*
X21017D1*
X22245D2*
X22914D1*
X24329D2*
X24452D1*
X25007D2*
X26521D1*
X17460Y24059D2*
X17733D1*
X18202D2*
X18664D1*
X18810D2*
X18962D1*
X20891D2*
X21066D1*
X22212D2*
X23084D1*
X24280D2*
X24406D1*
X24985D2*
X25197D1*
X26258D2*
X26543D1*
X17423Y23983D2*
X17692D1*
X18275D2*
X19038D1*
X20941D2*
X21118D1*
X22183D2*
X22874D1*
X22955D2*
X23213D1*
X24231D2*
X24356D1*
X24974D2*
X25283D1*
X26182D2*
X26554D1*
X17420Y23907D2*
X17655D1*
X18338D2*
X18934D1*
X20990D2*
X21177D1*
X22156D2*
X22307D1*
X22695D2*
X23308D1*
X24181D2*
X24307D1*
X24969D2*
X25042D1*
X25194D2*
X25378D1*
X26106D2*
X26322D1*
X26486D2*
X26559D1*
X17427Y23831D2*
X17624D1*
X18389D2*
X18828D1*
X21042D2*
X21235D1*
X22129D2*
X22316D1*
X22849D2*
X23337D1*
X24130D2*
X24257D1*
X24967D2*
X25042D1*
X25267D2*
X25479D1*
X26024D2*
X26227D1*
X26486D2*
X26561D1*
X17434Y23755D2*
X17597D1*
X18405D2*
X18729D1*
X21101D2*
X21290D1*
X22103D2*
X22337D1*
X22975D2*
X23329D1*
X24080D2*
X24206D1*
X24967D2*
X25042D1*
X25327D2*
X25592D1*
X25924D2*
X26128D1*
X26486D2*
X26562D1*
X17438Y23679D2*
X17570D1*
X18396D2*
X18644D1*
X21159D2*
X21345D1*
X22079D2*
X22440D1*
X23067D2*
X23313D1*
X24029D2*
X24155D1*
X24966D2*
X25042D1*
X25372D2*
X25727D1*
X25796D2*
X26030D1*
X26486D2*
X26562D1*
X17441Y23603D2*
X17546D1*
X18392D2*
X18571D1*
X21214D2*
X21407D1*
X22056D2*
X22584D1*
X23086D2*
X23292D1*
X23978D2*
X24102D1*
X24966D2*
X25043D1*
X25367D2*
X26107D1*
X26486D2*
X26562D1*
X17442Y23527D2*
X17530D1*
X18405D2*
X18501D1*
X21269D2*
X21476D1*
X22038D2*
X22266D1*
X22347D2*
X22757D1*
X23066D2*
X23265D1*
X23927D2*
X24041D1*
X24966D2*
X25045D1*
X25316D2*
X26185D1*
X26483D2*
X26562D1*
X17442Y23451D2*
X17518D1*
X18430D2*
D3*
X21331D2*
X21548D1*
X22052D2*
X22945D1*
X23032D2*
X23233D1*
X23874D2*
X23976D1*
X24967D2*
X25057D1*
X25244D2*
X25422D1*
X25726D2*
X25802D1*
X26045D2*
X26273D1*
X26471D2*
X26562D1*
X21400Y23375D2*
X21623D1*
X22102D2*
X23200D1*
X23813D2*
X23913D1*
X24969D2*
X25083D1*
X25149D2*
X25346D1*
X26152D2*
X26375D1*
X26445D2*
X26559D1*
X21472Y23299D2*
X21702D1*
X22164D2*
X22798D1*
X22879D2*
X23169D1*
X23745D2*
X23856D1*
X24981D2*
X25270D1*
X26277D2*
X26547D1*
X21547Y23223D2*
X21787D1*
X22230D2*
X23132D1*
X23672D2*
X23800D1*
X25007D2*
X26521D1*
X21626Y23147D2*
X21882D1*
X22190D2*
X22230D1*
X22413D2*
X23081D1*
X23594D2*
X23737D1*
X25042D2*
X26486D1*
X21711Y23071D2*
X21987D1*
X22154D2*
D3*
X22568D2*
X22974D1*
X23506D2*
X23666D1*
X21809Y22995D2*
X22120D1*
X22636D2*
X22876D1*
X23396D2*
X23583D1*
X21920Y22919D2*
X22304D1*
X22667D2*
X22803D1*
X23254D2*
X23487D1*
X22053Y22843D2*
X22591D1*
X22606D2*
X22743D1*
X23072D2*
X23377D1*
X22216Y22767D2*
X22686D1*
X22851D2*
X23245D1*
X22407Y22691D2*
X23087D1*
X22610Y22615D2*
X22914D1*
X15846Y21779D2*
X16226D1*
X16530D2*
X16758D1*
X17290D2*
X17746D1*
X17974D2*
X18354D1*
X18658D2*
X18886D1*
X19190D2*
X19418D1*
X19722D2*
X19950D1*
X20406D2*
X20710D1*
X20938D2*
X21090D1*
X21622D2*
X22078D1*
X22458D2*
X22610D1*
X22838D2*
X23218D1*
X23446D2*
X23750D1*
X23902D2*
X24054D1*
X24282D2*
X24434D1*
X24662D2*
X24890D1*
X25194D2*
X25650D1*
X25802D2*
X25954D1*
X26182D2*
X26942D1*
X27322D2*
X27778D1*
X27930D2*
X28234D1*
X28462D2*
X28614D1*
X28842D2*
X28994D1*
X29146D2*
X29298D1*
X29526D2*
X29602D1*
X29830D2*
X29982D1*
X15846Y21703D2*
X16226D1*
X16469D2*
X16819D1*
X17290D2*
X17749D1*
X17936D2*
X18354D1*
X18632D2*
X18898D1*
X19190D2*
X19430D1*
X19687D2*
X19950D1*
X20380D2*
X20760D1*
X20924D2*
X21090D1*
X21587D2*
X22078D1*
X22458D2*
X22646D1*
X22727D2*
X23218D1*
X23411D2*
X24089D1*
X24282D2*
X24469D1*
X24662D2*
X24864D1*
X25194D2*
X25650D1*
X25802D2*
X25954D1*
X26182D2*
X26919D1*
X27346D2*
X27755D1*
X27930D2*
X28234D1*
X28462D2*
X28614D1*
X28842D2*
X28994D1*
X29146D2*
X29298D1*
X29491D2*
X29637D1*
X29830D2*
X29982D1*
X15846Y21627D2*
X16226D1*
X16425D2*
X16864D1*
X17290D2*
X17761D1*
X17902D2*
X18354D1*
X18610D2*
X18917D1*
X19190D2*
X19449D1*
X19665D2*
X19950D1*
X20358D2*
X20810D1*
X20898D2*
X21090D1*
X21565D2*
X22078D1*
X22458D2*
X23218D1*
X23389D2*
X23840D1*
X23964D2*
X24111D1*
X24282D2*
X24491D1*
X24662D2*
X24842D1*
X25194D2*
X25650D1*
X25802D2*
X25954D1*
X26182D2*
X26881D1*
X27383D2*
X27717D1*
X27930D2*
X28234D1*
X28462D2*
X28614D1*
X28842D2*
X28994D1*
X29146D2*
X29298D1*
X29469D2*
X29659D1*
X29830D2*
X29982D1*
X16074Y21551D2*
X16226D1*
X16399D2*
X16530D1*
X16667D2*
X16889D1*
X17594D2*
X17787D1*
X17865D2*
X18050D1*
X18278D2*
X18354D1*
X18595D2*
X18937D1*
X19190D2*
X19469D1*
X19654D2*
X19950D1*
X20343D2*
X20482D1*
X20619D2*
X21090D1*
X21554D2*
X21698D1*
X21926D2*
X22078D1*
X22458D2*
X22929D1*
X23066D2*
X23218D1*
X23378D2*
X23522D1*
X23677D2*
X23867D1*
X23938D2*
X24122D1*
X24282D2*
X24502D1*
X24662D2*
X24827D1*
X25498D2*
X25650D1*
X25802D2*
X25954D1*
X26182D2*
X26334D1*
X26638D2*
X26842D1*
X27423D2*
X27678D1*
X27927D2*
X28234D1*
X28462D2*
X28614D1*
X28842D2*
X28994D1*
X29146D2*
X29298D1*
X29458D2*
X29670D1*
X29830D2*
X29982D1*
X16074Y21475D2*
X16226D1*
X16387D2*
X16530D1*
X16712D2*
X16902D1*
X17594D2*
X18050D1*
X18278D2*
X18354D1*
X18588D2*
X18950D1*
X19190D2*
X19485D1*
X19646D2*
X19950D1*
X20336D2*
X20482D1*
X20670D2*
X21090D1*
X21549D2*
X21698D1*
X21926D2*
X22078D1*
X22458D2*
X22885D1*
X23066D2*
X23218D1*
X23373D2*
X23522D1*
X23687D2*
X24127D1*
X24282D2*
X24507D1*
X24662D2*
X24820D1*
X25498D2*
X25650D1*
X25802D2*
X25955D1*
X26182D2*
X26334D1*
X26638D2*
X26815D1*
X27449D2*
X27651D1*
X27918D2*
X28234D1*
X28462D2*
X28615D1*
X28842D2*
X28994D1*
X29146D2*
X29298D1*
X29453D2*
X29675D1*
X29830D2*
X29982D1*
X16074Y21399D2*
X16226D1*
X16382D2*
X16530D1*
X16737D2*
X16907D1*
X17594D2*
X18050D1*
X18278D2*
X18354D1*
X18584D2*
X18957D1*
X19190D2*
X19504D1*
X19633D2*
X19950D1*
X20332D2*
X20482D1*
X20684D2*
X21090D1*
X21547D2*
X21698D1*
X21926D2*
X22078D1*
X22458D2*
X22855D1*
X23066D2*
X23218D1*
X23371D2*
X23522D1*
X23705D2*
X24132D1*
X24279D2*
X24509D1*
X24662D2*
X24816D1*
X25498D2*
X25650D1*
X25802D2*
X25961D1*
X26176D2*
X26334D1*
X26638D2*
X26801D1*
X27464D2*
X27637D1*
X27899D2*
X28235D1*
X28462D2*
X28621D1*
X28836D2*
X28994D1*
X29146D2*
X29299D1*
X29451D2*
X29677D1*
X29830D2*
X29982D1*
X16074Y21323D2*
X16226D1*
X16380D2*
X16530D1*
X16750D2*
X16909D1*
X17594D2*
X18050D1*
X18278D2*
X18354D1*
X18583D2*
X18960D1*
X19190D2*
X19533D1*
X19606D2*
X19950D1*
X20330D2*
X20482D1*
X20664D2*
X21090D1*
X21547D2*
X21698D1*
X21926D2*
X22078D1*
X22458D2*
X22856D1*
X23063D2*
X23218D1*
X23371D2*
X23522D1*
X23725D2*
X24145D1*
X24267D2*
X24510D1*
X24662D2*
X24815D1*
X25498D2*
X25650D1*
X25802D2*
X25974D1*
X26162D2*
X26334D1*
X26638D2*
X26795D1*
X27470D2*
X27631D1*
X27880D2*
X28237D1*
X28462D2*
X28634D1*
X28822D2*
X28994D1*
X29146D2*
X29301D1*
X29448D2*
X29678D1*
X29830D2*
X29982D1*
X16074Y21247D2*
X16226D1*
X16379D2*
X16530D1*
X16755D2*
X16910D1*
X17594D2*
X18050D1*
X18278D2*
X18354D1*
X18583D2*
X18961D1*
X19190D2*
X19950D1*
X20600D2*
X20783D1*
X20938D2*
X21090D1*
X21546D2*
X21698D1*
X21926D2*
X22078D1*
X22458D2*
X22890D1*
X23051D2*
X23218D1*
X23370D2*
X23522D1*
X23738D2*
X24171D1*
X24241D2*
X24510D1*
X24662D2*
X24815D1*
X25498D2*
X25650D1*
X25802D2*
X26034D1*
X26103D2*
X26334D1*
X26638D2*
X26792D1*
X27473D2*
X27628D1*
X27867D2*
X28247D1*
X28462D2*
X28694D1*
X28763D2*
X28994D1*
X29146D2*
X29313D1*
X29435D2*
X29681D1*
X29827D2*
X29982D1*
X16074Y21171D2*
X16226D1*
X16378D2*
X16530D1*
X16757D2*
X16910D1*
X17290D2*
X18050D1*
X18278D2*
X18354D1*
X18582D2*
X18962D1*
X19190D2*
X19950D1*
X20521D2*
X20775D1*
X20938D2*
X21090D1*
X21546D2*
X21698D1*
X21926D2*
X22078D1*
X22458D2*
X22972D1*
X23025D2*
X23218D1*
X23370D2*
X23522D1*
X23745D2*
X24513D1*
X24659D2*
X24814D1*
X25194D2*
X25650D1*
X25802D2*
X26334D1*
X26638D2*
X26791D1*
X27474D2*
X27627D1*
X27860D2*
X28265D1*
X28462D2*
X28994D1*
X29146D2*
X29339D1*
X29409D2*
X29693D1*
X29815D2*
X29982D1*
X15846Y21095D2*
X16226D1*
X16378D2*
X16530D1*
X16758D2*
X16910D1*
X17290D2*
X18050D1*
X18278D2*
X18354D1*
X18579D2*
X18965D1*
X19190D2*
X19950D1*
X20444D2*
X20729D1*
X20938D2*
X21090D1*
X21546D2*
X21698D1*
X21926D2*
X22078D1*
X22458D2*
X23218D1*
X23370D2*
X23522D1*
X23748D2*
X24525D1*
X24647D2*
X24814D1*
X25194D2*
X25650D1*
X25802D2*
X26334D1*
X26638D2*
X26790D1*
X27474D2*
X27626D1*
X27856D2*
X28009D1*
X28155D2*
X28285D1*
X28462D2*
X28994D1*
X29147D2*
X29719D1*
X29789D2*
X29982D1*
X15846Y21019D2*
X16226D1*
X16378D2*
X16530D1*
X16758D2*
X16910D1*
X17290D2*
X18050D1*
X18278D2*
X18354D1*
X18570D2*
X18975D1*
X19190D2*
X19266D1*
X19418D2*
X19950D1*
X20379D2*
X20662D1*
X20938D2*
X21090D1*
X21546D2*
X21698D1*
X21926D2*
X22078D1*
X22458D2*
X22613D1*
X22759D2*
X23218D1*
X23370D2*
X23522D1*
X23749D2*
X24551D1*
X24621D2*
X24811D1*
X25194D2*
X25650D1*
X25802D2*
X26334D1*
X26638D2*
X26790D1*
X27474D2*
X27626D1*
X27855D2*
X28021D1*
X28143D2*
X28298D1*
X28462D2*
X28994D1*
X29149D2*
X29982D1*
X15846Y20943D2*
X16226D1*
X16378D2*
X16530D1*
X16758D2*
X16910D1*
X17594D2*
X18050D1*
X18278D2*
X18354D1*
X18551D2*
X18993D1*
X19190D2*
X19266D1*
X19419D2*
X19950D1*
X20354D2*
X20591D1*
X20938D2*
X21090D1*
X21546D2*
X21698D1*
X21926D2*
X22078D1*
X22458D2*
X22625D1*
X22747D2*
X23218D1*
X23370D2*
X23522D1*
X23747D2*
X24802D1*
X25498D2*
X25650D1*
X25802D2*
X25954D1*
X26182D2*
X26334D1*
X26638D2*
X26790D1*
X27474D2*
X27626D1*
X27855D2*
X28047D1*
X28117D2*
X28305D1*
X28462D2*
X28614D1*
X28842D2*
X28994D1*
X29159D2*
X29979D1*
X16074Y20867D2*
X16226D1*
X16378D2*
X16530D1*
X16758D2*
X16910D1*
X17594D2*
X18050D1*
X18278D2*
X18354D1*
X18532D2*
X19013D1*
X19190D2*
X19266D1*
X19421D2*
X19950D1*
X20340D2*
X20530D1*
X20935D2*
X21090D1*
X21546D2*
X21698D1*
X21926D2*
X22078D1*
X22458D2*
X22651D1*
X22721D2*
X22914D1*
X23066D2*
X23218D1*
X23370D2*
X23522D1*
X23738D2*
X24783D1*
X25498D2*
X25650D1*
X25802D2*
X25954D1*
X26182D2*
X26334D1*
X26638D2*
X26790D1*
X27474D2*
X27626D1*
X27854D2*
X28308D1*
X28462D2*
X28614D1*
X28842D2*
X28994D1*
X29177D2*
X29970D1*
X16074Y20791D2*
X16226D1*
X16378D2*
X16531D1*
X16758D2*
X16910D1*
X17594D2*
X18051D1*
X18278D2*
X18354D1*
X18519D2*
X19026D1*
X19190D2*
X19266D1*
X19431D2*
X19646D1*
X19798D2*
X19950D1*
X20334D2*
X20506D1*
X20710D2*
X20786D1*
X20923D2*
X21090D1*
X21546D2*
X21699D1*
X21926D2*
X22079D1*
X22457D2*
X22911D1*
X23066D2*
X23218D1*
X23370D2*
X23523D1*
X23719D2*
X24764D1*
X25498D2*
X25650D1*
X25802D2*
X25954D1*
X26182D2*
X26334D1*
X26638D2*
X26790D1*
X27474D2*
X27626D1*
X27851D2*
X28309D1*
X28462D2*
X28614D1*
X28842D2*
X28994D1*
X29197D2*
X29951D1*
X16074Y20715D2*
X16226D1*
X16379D2*
X16537D1*
X16752D2*
X16910D1*
X17594D2*
X18057D1*
X18272D2*
X18354D1*
X18512D2*
X19033D1*
X19190D2*
X19266D1*
X19449D2*
X19646D1*
X19798D2*
X19950D1*
X20332D2*
X20492D1*
X20704D2*
X20822D1*
X20897D2*
X21090D1*
X21546D2*
X21705D1*
X21920D2*
X22083D1*
X22454D2*
X22902D1*
X23066D2*
X23218D1*
X23370D2*
X23525D1*
X23697D2*
X24751D1*
X25498D2*
X25650D1*
X25802D2*
X25954D1*
X26182D2*
X26334D1*
X26638D2*
X26790D1*
X27474D2*
X27626D1*
X27842D2*
X28310D1*
X28462D2*
X28614D1*
X28842D2*
X28994D1*
X29210D2*
X29932D1*
X16074Y20639D2*
X16226D1*
X16381D2*
X16550D1*
X16738D2*
X16907D1*
X17594D2*
X18070D1*
X18258D2*
X18354D1*
X18508D2*
X18658D1*
X18886D2*
X19036D1*
X19190D2*
X19266D1*
X19469D2*
X19643D1*
X19798D2*
X19950D1*
X20331D2*
X20505D1*
X20690D2*
X21090D1*
X21547D2*
X21718D1*
X21906D2*
X22119D1*
X22418D2*
X22883D1*
X23066D2*
X23218D1*
X23371D2*
X23537D1*
X23672D2*
X23890D1*
X24054D2*
X24282D1*
X24419D2*
X24744D1*
X25498D2*
X25650D1*
X25802D2*
X25954D1*
X26182D2*
X26334D1*
X26638D2*
X26790D1*
X27474D2*
X27626D1*
X27823D2*
X28006D1*
X28158D2*
X28310D1*
X28462D2*
X28614D1*
X28842D2*
X28994D1*
X29217D2*
X29541D1*
X29678D2*
X29919D1*
X16074Y20563D2*
X16226D1*
X16391D2*
X16610D1*
X16679D2*
X16897D1*
X17594D2*
X17746D1*
X17901D2*
X18130D1*
X18199D2*
X18354D1*
X18507D2*
X18658D1*
X18886D2*
X19037D1*
X19190D2*
X19266D1*
X19482D2*
X19634D1*
X19798D2*
X19950D1*
X20334D2*
X20563D1*
X20631D2*
X21090D1*
X21549D2*
X21778D1*
X21847D2*
X22237D1*
X22299D2*
X22864D1*
X23066D2*
X23218D1*
X23373D2*
X23563D1*
X23638D2*
X23868D1*
X24054D2*
X24282D1*
X24464D2*
X24740D1*
X25498D2*
X25650D1*
X25802D2*
X25954D1*
X26182D2*
X26334D1*
X26638D2*
X26790D1*
X27474D2*
X27626D1*
X27804D2*
X28003D1*
X28158D2*
X28310D1*
X28462D2*
X28614D1*
X28842D2*
X28994D1*
X29220D2*
X29497D1*
X29678D2*
X29912D1*
X16074Y20487D2*
X16226D1*
X16409D2*
X16873D1*
X17290D2*
X17746D1*
X17913D2*
X18354D1*
X18507D2*
X18658D1*
X18886D2*
X19038D1*
X19190D2*
X19266D1*
X19489D2*
X19615D1*
X19798D2*
X19950D1*
X20345D2*
X20786D1*
X20938D2*
X21090D1*
X21561D2*
X22851D1*
X23066D2*
X23218D1*
X23385D2*
X23837D1*
X24054D2*
X24282D1*
X24489D2*
X24739D1*
X25194D2*
X25650D1*
X25802D2*
X25954D1*
X26182D2*
X26334D1*
X26638D2*
X26790D1*
X27474D2*
X27626D1*
X27791D2*
X27991D1*
X28158D2*
X28310D1*
X28462D2*
X28614D1*
X28842D2*
X28994D1*
X29221D2*
X29471D1*
X29678D2*
X29908D1*
X16074Y20411D2*
X16226D1*
X16424D2*
X16835D1*
X17290D2*
X17746D1*
X17939D2*
X18354D1*
X18506D2*
X18658D1*
X18886D2*
X19038D1*
X19190D2*
X19266D1*
X19492D2*
X19592D1*
X19798D2*
X19950D1*
X20371D2*
X20786D1*
X20938D2*
X21090D1*
X21587D2*
X22843D1*
X23066D2*
X23218D1*
X23411D2*
X23796D1*
X24054D2*
X24282D1*
X24502D2*
X24739D1*
X25194D2*
X25650D1*
X25802D2*
X25954D1*
X26182D2*
X26334D1*
X26638D2*
X26790D1*
X27474D2*
X27626D1*
X27783D2*
X27965D1*
X28158D2*
X28310D1*
X28462D2*
X28614D1*
X28842D2*
X28994D1*
X29222D2*
X29458D1*
X29678D2*
X29907D1*
X15314Y20335D2*
D3*
X16074D2*
X16226D1*
X16429D2*
X16784D1*
X17290D2*
X17746D1*
X17974D2*
X18354D1*
X18506D2*
X18658D1*
X18886D2*
X19038D1*
X19190D2*
X19266D1*
X19494D2*
X19570D1*
X19798D2*
X19950D1*
X20406D2*
X20786D1*
X20938D2*
X21090D1*
X21622D2*
X22838D1*
X23066D2*
X23218D1*
X23446D2*
X23750D1*
X24054D2*
X24282D1*
X24510D2*
X24738D1*
X25194D2*
X25650D1*
X25802D2*
X25954D1*
X26182D2*
X26334D1*
X26638D2*
X26790D1*
X27474D2*
X27626D1*
X27778D2*
X27930D1*
X28158D2*
X28310D1*
X28462D2*
X28614D1*
X28842D2*
X28994D1*
X29222D2*
X29450D1*
X29678D2*
X29906D1*
X15352Y20259D2*
X15618D1*
X16371D2*
X16731D1*
X16910D2*
X17214D1*
X15459Y20183D2*
X16034D1*
X16200D2*
X17363D1*
X17974D2*
X18202D1*
X15579Y20107D2*
X16457D1*
X16682D2*
X16907D1*
X17044D2*
X17499D1*
X18010D2*
X18202D1*
X15685Y20031D2*
X16467D1*
X16758D2*
X16974D1*
X17155D2*
X17609D1*
X18050D2*
D3*
X18202D2*
D3*
X15768Y19955D2*
X15922D1*
X16108D2*
X16488D1*
X16834D2*
X17032D1*
X17238D2*
X17700D1*
X17970D2*
X18430D1*
X15835Y19879D2*
X15998D1*
X16252D2*
X16520D1*
X16907D2*
X17094D1*
X17307D2*
X17690D1*
X17898D2*
X18359D1*
X15893Y19803D2*
X16071D1*
X16349D2*
X16562D1*
X16973D2*
X17180D1*
X17374D2*
X17518D1*
X17670D2*
X17646D1*
X18050D2*
X18162D1*
X18278D2*
D3*
X15949Y19727D2*
X16138D1*
X16415D2*
X16610D1*
X17028D2*
X17301D1*
X17442D2*
X17591D1*
X17974D2*
X18430D1*
X16011Y19651D2*
X16195D1*
X16466D2*
X16662D1*
X17071D2*
X17654D1*
X18056D2*
X18395D1*
X16077Y19575D2*
X16249D1*
X16514D2*
X16730D1*
X17106D2*
X17700D1*
X18120D2*
X18373D1*
X16140Y19499D2*
X16299D1*
X16574D2*
X16833D1*
X17106D2*
X17302D1*
X17454D2*
X17727D1*
X18166D2*
X18202D1*
X18354D2*
X18362D1*
X16196Y19423D2*
X16337D1*
X16652D2*
X16976D1*
X17054D2*
X17246D1*
X17550D2*
X17898D1*
X18202D2*
D3*
X18354D2*
D3*
X16248Y19347D2*
X16361D1*
X16742D2*
X17192D1*
X17648D2*
X17898D1*
X16302Y19271D2*
X16378D1*
X16834D2*
X17138D1*
X17746D2*
X17898D1*
X22838Y34547D2*
X22663Y34471D1*
X22511Y34395D1*
X22381Y34319D1*
X22268Y34243D1*
X22171Y34167D1*
X22088Y34091D1*
X22018Y34015D1*
X21958Y33939D1*
X21901Y33863D1*
X21841Y33787D1*
X21782Y33711D1*
X21730Y33635D1*
X21685Y33559D1*
X21643Y33483D1*
X21604Y33407D1*
X21566Y33331D1*
X21527Y33255D1*
X21489Y33179D1*
X21451Y33103D1*
X21413Y33027D1*
X21375Y32951D1*
X21338Y32875D1*
X21302Y32799D1*
X21271Y32723D1*
X21244Y32647D1*
X21215Y32571D1*
X21182Y32495D1*
X21148Y32419D1*
X21119Y32343D1*
X21092Y32267D1*
X21065Y32191D1*
X21039Y32115D1*
X21015Y32039D1*
X20989Y31963D1*
X20963Y31887D1*
X20939Y31811D1*
X20912Y31735D1*
X20886Y31659D1*
X20862Y31583D1*
X23446Y34547D2*
X23610Y34471D1*
X23755Y34395D1*
X23881Y34319D1*
X23995Y34243D1*
X24099Y34167D1*
X24192Y34091D1*
X24273Y34015D1*
X24343Y33939D1*
X24403Y33863D1*
X24459Y33787D1*
X24520Y33711D1*
X24579Y33635D1*
X24633Y33559D1*
X24686Y33483D1*
X24738Y33407D1*
X24786Y33331D1*
X24826Y33255D1*
X24860Y33179D1*
X24888Y33103D1*
X24918Y33027D1*
X24951Y32951D1*
X24984Y32875D1*
X25014Y32799D1*
X25040Y32723D1*
X25067Y32647D1*
X25093Y32571D1*
X25118Y32495D1*
X25144Y32419D1*
X25169Y32343D1*
X25194Y32267D1*
X25219Y32191D1*
X25243Y32115D1*
X25260Y32039D1*
X25277Y31963D1*
X25299Y31887D1*
X25320Y31811D1*
X25337Y31735D1*
X25353Y31659D1*
X25375Y31583D1*
X25396Y31507D1*
X25411Y31431D1*
X25422Y31355D1*
X22838Y34395D2*
X22698Y34319D1*
X22568Y34243D1*
X22448Y34167D1*
X22341Y34091D1*
X22246Y34015D1*
X22161Y33939D1*
X22084Y33863D1*
X22016Y33787D1*
X21957Y33711D1*
X21901Y33635D1*
X21841Y33559D1*
X21782Y33483D1*
X21730Y33407D1*
X21685Y33331D1*
X21643Y33255D1*
X21604Y33179D1*
X21566Y33103D1*
X21527Y33027D1*
X21490Y32951D1*
X21454Y32875D1*
X21423Y32799D1*
X21396Y32723D1*
X21367Y32647D1*
X21333Y32571D1*
X21298Y32495D1*
X21261Y32419D1*
X21226Y32343D1*
X21195Y32267D1*
X21168Y32191D1*
X21139Y32115D1*
X21106Y32039D1*
X21072Y31963D1*
X21043Y31887D1*
X21016Y31811D1*
X20990Y31735D1*
X20966Y31659D1*
X20972Y31583D1*
X21041Y31507D1*
X21206Y31431D1*
X21406Y31355D1*
X21622Y31279D1*
X21838Y31203D1*
X22044Y31127D1*
X22240Y31051D1*
X22421Y30975D1*
X22580Y30899D1*
X22715Y30823D1*
X22838Y30747D1*
X23370Y34395D2*
X23519Y34319D1*
X23661Y34243D1*
X23792Y34167D1*
X23912Y34091D1*
X24020Y34015D1*
X24114Y33939D1*
X24197Y33863D1*
X24267Y33787D1*
X24326Y33711D1*
X24383Y33635D1*
X24444Y33559D1*
X24503Y33483D1*
X24555Y33407D1*
X24600Y33331D1*
X24641Y33255D1*
X24680Y33179D1*
X24719Y33103D1*
X24757Y33027D1*
X24795Y32951D1*
X24831Y32875D1*
X24861Y32799D1*
X24888Y32723D1*
X24918Y32647D1*
X24951Y32571D1*
X24984Y32495D1*
X25011Y32419D1*
X25031Y32343D1*
X25049Y32267D1*
X25071Y32191D1*
X25095Y32115D1*
X25118Y32039D1*
X25144Y31963D1*
X25167Y31887D1*
X25184Y31811D1*
X25201Y31735D1*
X25223Y31659D1*
X25247Y31583D1*
X25270Y31507D1*
X25296Y31431D1*
X25322Y31355D1*
X25346Y31279D1*
X25071Y31203D1*
X24803Y31127D1*
X24544Y31051D1*
X24298Y30975D1*
X24061Y30899D1*
X23829Y30823D1*
X23599Y30747D1*
X23371Y30671D1*
X23145Y30595D1*
X22927Y30519D1*
X22717Y30443D1*
X22512Y30367D1*
X22310Y30291D1*
X22116Y30215D1*
X21930Y30139D1*
X21739Y30063D1*
X21544Y29987D1*
X21355Y29911D1*
X21172Y29835D1*
X20991Y29759D1*
X20815Y29683D1*
X20648Y29607D1*
X20488Y29531D1*
X20333Y29455D1*
X20179Y29379D1*
X20030Y29303D1*
X19887Y29227D1*
X19753Y29151D1*
X19624Y29075D1*
X19495Y28999D1*
X19371Y28923D1*
X19251Y28847D1*
X19129Y28771D1*
X18992Y28695D1*
X18832Y28619D1*
X18658Y28543D1*
X23294Y33863D2*
X22727Y33787D1*
X22154Y33711D1*
Y33635D1*
Y33559D1*
X23598Y33863D2*
X23636Y33787D1*
X23668Y33711D1*
X23697Y33635D1*
X23722Y33559D1*
X23740Y33483D1*
X23757Y33407D1*
X23772Y33331D1*
X23780Y33255D1*
X23725Y33179D1*
X23573Y33103D1*
X23377Y33027D1*
X23162Y32951D1*
X22965Y32875D1*
X22812Y32799D1*
X22686Y32723D1*
X23218Y33787D2*
Y33711D1*
Y33635D1*
X23522Y33787D2*
X23446Y33711D1*
X23370Y33635D1*
X23522Y33787D2*
X23598Y33711D1*
X22534D2*
X22596Y33635D1*
X22646Y33559D1*
X22686Y33483D1*
X22914Y33711D2*
Y33635D1*
Y33559D1*
Y33483D1*
X23142Y33711D2*
Y33635D1*
Y33559D1*
X19418D2*
Y33483D1*
X19415Y33407D1*
X19402Y33331D1*
X19372Y33255D1*
X19321Y33179D1*
X19258Y33103D1*
X19190Y33027D1*
X19128Y32951D1*
X19079Y32875D1*
X19038Y32799D1*
X19494Y33559D2*
X19530Y33483D1*
X19570Y33407D1*
X19646Y33559D2*
X19611Y33483D1*
X19570Y33407D1*
X19798Y33559D2*
X20046Y33483D1*
X20268Y33407D1*
X20437Y33331D1*
X20550Y33255D1*
X20634Y33179D1*
X20564Y33103D1*
X20541Y33027D1*
X20549Y32951D1*
X20564Y32875D1*
X20586Y32799D1*
X20610Y32723D1*
X20634Y32647D1*
X20663Y32571D1*
X20698Y32495D1*
X20739Y32419D1*
X20786Y32343D1*
X20553Y32267D1*
X20295Y32191D1*
X20020Y32115D1*
X19733Y32039D1*
X19429Y31963D1*
X19114Y31887D1*
X22382Y33635D2*
X22385Y33559D1*
X22395Y33483D1*
X22416Y33407D1*
X22445Y33331D1*
X22477Y33255D1*
X22506Y33179D1*
X22532Y33103D1*
X22559Y33027D1*
X22582Y32951D1*
X22594Y32875D1*
X22592Y32799D1*
X22577Y32723D1*
X22559Y32647D1*
X22550Y32571D1*
X22548Y32495D1*
X22576Y32419D1*
X22610Y32343D1*
Y33559D2*
Y33483D1*
Y33407D1*
X23522Y33635D2*
Y33559D1*
Y33483D1*
X23674Y33559D2*
Y33483D1*
X22458D2*
Y33407D1*
X23142Y33559D2*
X23218Y33483D1*
X23294Y33407D1*
X26486Y33483D2*
X26410Y33407D1*
X26522Y33331D1*
X26621Y33255D1*
X26714Y33179D1*
X26562Y33483D2*
X26647Y33407D1*
X26719Y33331D1*
X26779Y33255D1*
X26822Y33179D1*
X26849Y33103D1*
X26870Y33027D1*
X26891Y32951D1*
X26903Y32875D1*
X26899Y32799D1*
X26886Y32723D1*
X26873Y32647D1*
X26855Y32571D1*
X26825Y32495D1*
X26785Y32419D1*
X26747Y32343D1*
X26714Y32267D1*
X22990Y33483D2*
Y33407D1*
Y33331D1*
X23218Y33407D2*
X23147Y33331D1*
X23066Y33255D1*
X23522Y33407D2*
X25650D2*
X25577Y33331D1*
X25514Y33255D1*
X25469Y33179D1*
X25443Y33103D1*
X25431Y33027D1*
X25426Y32951D1*
X25424Y32875D1*
X25423Y32799D1*
Y32723D1*
X25426Y32647D1*
X25438Y32571D1*
X25469Y32495D1*
X25519Y32419D1*
X25583Y32343D1*
X25653Y32267D1*
X25726Y32191D1*
X19722Y33407D2*
X19646Y33331D1*
X19570Y33255D1*
X19494Y33179D1*
X19418Y33103D1*
X19342Y33027D1*
X19266Y32951D1*
X19304Y32875D1*
X19336Y32799D1*
X19365Y32723D1*
X19392Y32647D1*
X19417Y32571D1*
X19443Y32495D1*
X19466Y32419D1*
X19481Y32343D1*
X19489Y32267D1*
X19494Y32191D1*
X19874Y33407D2*
X20069Y33331D1*
X20222Y33255D1*
X20336Y33179D1*
X20384Y33103D1*
X20423Y33027D1*
X20451Y32951D1*
X20471Y32875D1*
X20489Y32799D1*
X20511Y32723D1*
X20535Y32647D1*
X20561Y32571D1*
X20594Y32495D1*
X20634Y32419D1*
X20426Y32343D1*
X20153Y32267D1*
X19805Y32191D1*
X19418Y32115D1*
X22610Y33407D2*
X22686Y33331D1*
X22762Y33255D1*
X23598Y33407D2*
Y33331D1*
Y33255D1*
X25726Y33331D2*
X25650Y33255D1*
X25878Y33179D1*
X25817Y33103D1*
X25773Y33027D1*
X25747Y32951D1*
X25735Y32875D1*
X25733Y32799D1*
X25743Y32723D1*
X25773Y32647D1*
X25823Y32571D1*
X25886Y32495D1*
X25954Y32419D1*
X25726Y32343D1*
X25807Y32267D1*
X25878Y32191D1*
X22610Y33331D2*
X22570Y33255D1*
X22534Y33179D1*
X22686Y33255D2*
X22610Y33179D1*
X22990Y33255D2*
X23446Y33331D2*
X23370Y33255D1*
X23446Y33179D1*
X23750Y33255D2*
X26334D2*
X26407Y33179D1*
X26467Y33103D1*
X26513Y33027D1*
X26505Y32951D1*
X26486Y32875D1*
Y33255D2*
X26562Y33179D1*
X23218Y33255D2*
X23142Y33179D1*
X23066Y33103D1*
X23370Y33255D2*
X23294Y33179D1*
X23218Y33103D1*
X22838Y33179D2*
Y33103D1*
Y33027D1*
X25650Y33179D2*
X25589Y33103D1*
X25545Y33027D1*
X25519Y32951D1*
X25507Y32875D1*
X25505Y32799D1*
X25514Y32723D1*
X25540Y32647D1*
X25574Y32571D1*
X25802Y33179D2*
X25741Y33103D1*
X25697Y33027D1*
X25671Y32951D1*
X25659Y32875D1*
X25657Y32799D1*
X25666Y32723D1*
X25692Y32647D1*
X25726Y32571D1*
X25954Y33103D2*
X25919Y33027D1*
X25897Y32951D1*
X25887Y32875D1*
X25885Y32799D1*
X25894Y32723D1*
X25920Y32647D1*
X25954Y32571D1*
X26258Y33103D2*
X26320Y33027D1*
X26370Y32951D1*
X26410Y32875D1*
X26334Y33103D2*
X26384Y33027D1*
X26434Y32951D1*
X26486Y32875D1*
X19570Y33027D2*
X19582Y32951D1*
X19601Y32875D1*
X19624Y32799D1*
X19650Y32723D1*
X19691Y32647D1*
X19754Y32571D1*
X19840Y32495D1*
X19943Y32419D1*
X20057Y32343D1*
X20178Y32267D1*
X19646Y33027D2*
X19723Y32951D1*
X19805Y32875D1*
X19904Y32799D1*
X20032Y32723D1*
X20178Y32647D1*
X22686Y33103D2*
X22646Y33027D1*
X22610Y32951D1*
X22686Y33103D2*
X22727Y33027D1*
X22762Y32951D1*
X22990Y33027D2*
X25954D2*
X25914Y32951D1*
X25878Y32875D1*
X26638Y33103D2*
Y33027D1*
Y32951D1*
Y32875D1*
X26635Y32799D1*
X26625Y32723D1*
X26604Y32647D1*
X26573Y32571D1*
X26532Y32495D1*
X26486Y32419D1*
X26790Y33103D2*
Y33027D1*
Y32951D1*
Y32875D1*
X26787Y32799D1*
X26777Y32723D1*
X26756Y32647D1*
X26724Y32571D1*
X26680Y32495D1*
X26624Y32419D1*
X26562Y32343D1*
X26638Y32267D1*
X23598Y32951D2*
X23335Y32875D1*
X23083Y32799D1*
X22838Y32723D1*
X23902Y32951D2*
X23978Y32875D1*
X23916Y32799D1*
X23867Y32723D1*
X23826Y32647D1*
X24030Y32571D1*
X24182Y32495D1*
X24292Y32419D1*
X24326Y32343D1*
X24345Y32267D1*
X24353Y32191D1*
X24356Y32115D1*
X24358Y32039D1*
X24361Y31963D1*
X24374Y31887D1*
X24405Y31811D1*
X24452Y31735D1*
X24506Y31659D1*
X24556Y31583D1*
X24597Y31507D1*
X24632Y31431D1*
X24640Y31355D1*
X24617Y31279D1*
X24586Y31203D1*
X26030Y32951D2*
X25954Y32875D1*
X26258Y32951D2*
X26182Y32875D1*
X20254D2*
X20191Y32799D1*
X20114Y32723D1*
X20026Y32647D1*
X19190Y32875D2*
X19114Y32799D1*
X19266Y32875D2*
X19269Y32799D1*
X19279Y32723D1*
X19297Y32647D1*
X19320Y32571D1*
X19343Y32495D1*
X19368Y32419D1*
X19394Y32343D1*
X19420Y32267D1*
X19454Y32191D1*
X19494Y32115D1*
X19454Y32039D1*
X19418Y31963D1*
X20254Y32799D2*
Y32723D1*
X20253Y32647D1*
X20245Y32571D1*
X20224Y32495D1*
X20135Y32419D1*
X20026Y32343D1*
X23750Y32875D2*
X23465Y32799D1*
X23212Y32723D1*
X23017Y32647D1*
X22871Y32571D1*
X22827Y32495D1*
X22794Y32419D1*
X22762Y32343D1*
X23598Y32875D2*
X23610Y32799D1*
X23648Y32723D1*
X23731Y32647D1*
X23826Y32571D1*
X23727Y32495D1*
X23651Y32419D1*
X23597Y32343D1*
X23560Y32267D1*
X23542Y32191D1*
X23536Y32115D1*
X23562Y32039D1*
X23599Y31963D1*
X23711Y31887D1*
X23860Y31811D1*
X24009Y31735D1*
X24123Y31659D1*
X24206Y31583D1*
X24273Y31507D1*
X24330Y31431D1*
X24391Y31355D1*
X24477Y31279D1*
X24597Y31203D1*
X24738Y31127D1*
X23750Y32875D2*
X23710Y32799D1*
X23674Y32723D1*
X23750Y32875D2*
X23791Y32799D1*
X23826Y32723D1*
X25954Y32799D2*
X26027Y32723D1*
X26090Y32647D1*
X26136Y32571D1*
X26161Y32495D1*
X26174Y32419D1*
X26179Y32343D1*
X26181Y32267D1*
X26182Y32191D1*
Y32115D1*
X25954Y32647D2*
X26030Y32571D1*
X25878Y32495D1*
X25954Y32419D1*
X25726Y32343D1*
X25807Y32267D1*
X25878Y32191D1*
X26182Y32723D2*
X26185Y32647D1*
X26195Y32571D1*
X26213Y32495D1*
X26232Y32419D1*
X26243Y32343D1*
X26244Y32267D1*
X26217Y32191D1*
X26182Y32115D1*
Y32723D2*
X26334Y32647D1*
X26486Y32571D1*
X26410Y32495D1*
X26486Y32419D1*
X26562Y32343D1*
X26638Y32267D1*
X26486Y32723D2*
X26410Y32647D1*
X26638Y32723D2*
X26562Y32647D1*
X26486Y32571D1*
X26410Y32495D1*
X26486Y32419D1*
X26562Y32343D1*
X26638Y32267D1*
X25574Y32495D2*
X25659Y32419D1*
X25743Y32343D1*
X25815Y32267D1*
X25878Y32191D1*
X25726Y32495D2*
X25802Y32419D1*
X27702D2*
X27606Y32343D1*
X27482Y32267D1*
X27335Y32191D1*
X27200Y32115D1*
X27092Y32039D1*
X27048Y31963D1*
X27043Y31887D1*
X27051Y31811D1*
X27065Y31735D1*
X26927Y31659D1*
X26687Y31583D1*
X26359Y31507D1*
X25988Y31431D1*
X25596Y31355D1*
X25194Y31279D1*
X28538Y32419D2*
X28614Y32343D1*
X28687Y32267D1*
X28754Y32191D1*
X28811Y32115D1*
X28865Y32039D1*
X28918Y31963D1*
X28966Y31887D1*
X29006Y31811D1*
X29037Y31735D1*
X29056Y31659D1*
X29070Y31583D1*
X28918D1*
X28936Y31507D1*
X28967Y31431D1*
X29043Y31355D1*
X29126Y31279D1*
X29200Y31203D1*
X29260Y31127D1*
X29309Y31051D1*
X29352Y30975D1*
X29389Y30899D1*
X29418Y30823D1*
X29435Y30747D1*
X29444Y30671D1*
X29448Y30595D1*
X29446Y30519D1*
X29437Y30443D1*
X29419Y30367D1*
X29397Y30291D1*
X29374Y30215D1*
X29346Y30139D1*
X29313Y30063D1*
X29277Y29987D1*
X29238Y29911D1*
X29193Y29835D1*
X29144Y29759D1*
X29095Y29683D1*
X29042Y29607D1*
X28981Y29531D1*
X28915Y29455D1*
X28850Y29379D1*
X28784Y29303D1*
X28712Y29227D1*
X28637Y29151D1*
X28563Y29075D1*
X28485Y28999D1*
X28401Y28923D1*
X28318Y28847D1*
X28238Y28771D1*
X28159Y28695D1*
X28080Y28619D1*
X27994Y28543D1*
X27899Y28467D1*
X27804Y28391D1*
X27712Y28315D1*
X27619Y28239D1*
X27521Y28163D1*
X27421Y28087D1*
X27322Y28011D1*
X27399Y27935D1*
X27477Y27859D1*
X27563Y27783D1*
X27657Y27707D1*
X27753Y27631D1*
X27842Y27555D1*
X27925Y27479D1*
X28004Y27403D1*
X28081Y27327D1*
X28158Y27251D1*
X28234Y27175D1*
X28310Y27099D1*
X28383Y27023D1*
X28450Y26947D1*
X28507Y26871D1*
X28564Y26795D1*
X28626Y26719D1*
X28693Y26643D1*
X28756Y26567D1*
X28812Y26491D1*
X28868Y26415D1*
X28928Y26339D1*
X28987Y26263D1*
X29039Y26187D1*
X29084Y26111D1*
X29125Y26035D1*
X29164Y25959D1*
X29203Y25883D1*
X29238Y25807D1*
X29267Y25731D1*
X29286Y25655D1*
X29305Y25579D1*
X29327Y25503D1*
X29348Y25427D1*
X29362Y25351D1*
X29369Y25275D1*
Y25199D1*
X29361Y25123D1*
X29343Y25047D1*
X29321Y24971D1*
X29295Y24895D1*
X29257Y24819D1*
X29203Y24743D1*
X29135Y24667D1*
X29050Y24591D1*
X28930Y24515D1*
X28746Y24439D1*
X28478Y24363D1*
X28158Y24287D1*
X23750Y32419D2*
X23689Y32343D1*
X23645Y32267D1*
X23615Y32191D1*
Y32115D1*
X23646Y32039D1*
X23694Y31963D1*
X23750Y31887D1*
X23902Y32419D2*
X24085Y32343D1*
X24221Y32267D1*
X24322Y32191D1*
X24308Y32115D1*
X24281Y32039D1*
X24211Y31963D1*
X24130Y31887D1*
X21850Y32267D2*
X21765Y32191D1*
X21693Y32115D1*
X21630Y32039D1*
X21578Y31963D1*
X21536Y31887D1*
X21504Y31811D1*
X21486Y31735D1*
X21477Y31659D1*
X21473Y31583D1*
X21470Y31507D1*
X21853Y31431D1*
X22126Y31355D1*
X22305Y31279D1*
X22430Y31203D1*
X22534Y31127D1*
X22002Y32267D2*
X22103Y32191D1*
X22245Y32115D1*
X22448Y32039D1*
X22686Y31963D1*
X28158Y32267D2*
X27972Y32191D1*
X27824Y32115D1*
X27702Y32039D1*
X27918Y31963D1*
X28146Y31887D1*
X28386Y31811D1*
X28310Y32267D2*
Y32191D1*
Y32115D1*
X28304Y32039D1*
X28290Y31963D1*
X28231Y31887D1*
X28158Y31811D1*
X22610Y32039D2*
X22534Y31963D1*
X22762D2*
X22797Y31887D1*
X22819Y31811D1*
X22830Y31735D1*
X22835Y31659D1*
X22834Y31583D1*
X22825Y31507D1*
X22807Y31431D1*
X22785Y31355D1*
X22760Y31279D1*
X22726Y31203D1*
X22686Y31127D1*
X18278Y31887D2*
X17951Y31811D1*
X17683Y31735D1*
X17481Y31659D1*
X17332Y31583D1*
X17217Y31507D1*
X17130Y31431D1*
X17068Y31355D1*
X17024Y31279D1*
X16992Y31203D1*
X16963Y31127D1*
X16939Y31051D1*
X16927Y30975D1*
X16929Y30899D1*
X16944Y30823D1*
X16964Y30747D1*
X16987Y30671D1*
X17012Y30595D1*
X17037Y30519D1*
X17062Y30443D1*
X17090Y30367D1*
X17123Y30291D1*
X17159Y30215D1*
X17199Y30139D1*
X17243Y30063D1*
X17293Y29987D1*
X17342Y29911D1*
X17394Y29835D1*
X17453Y29759D1*
X17511Y29683D1*
X17566Y29607D1*
X17621Y29531D1*
X17683Y29455D1*
X17752Y29379D1*
X17824Y29303D1*
X17899Y29227D1*
X17975Y29151D1*
X18050Y29075D1*
X18126Y28999D1*
X18202Y28923D1*
X18278Y28847D1*
X18354Y28771D1*
X18430Y28695D1*
X18506Y28619D1*
X18582Y28543D1*
X18658Y28467D1*
X18556Y28391D1*
X18455Y28315D1*
X18355Y28239D1*
X18253Y28163D1*
X18154Y28087D1*
X18061Y28011D1*
X17967Y27935D1*
X17870Y27859D1*
X17773Y27783D1*
X17683Y27707D1*
X17600Y27631D1*
X17520Y27555D1*
X17440Y27479D1*
X17354Y27403D1*
X17262Y27327D1*
X17177Y27251D1*
X17106Y27175D1*
X17042Y27099D1*
X16976Y27023D1*
X16906Y26947D1*
X16832Y26871D1*
X16758Y26795D1*
X16682Y26719D1*
X16606Y26643D1*
X16533Y26567D1*
X16467Y26491D1*
X16409Y26415D1*
X16356Y26339D1*
X16303Y26263D1*
X16252Y26187D1*
X16201Y26111D1*
X16150Y26035D1*
X16103Y25959D1*
X16062Y25883D1*
X16029Y25807D1*
X16001Y25731D1*
X15974Y25655D1*
X15950Y25579D1*
X15933Y25503D1*
X15916Y25427D1*
X15897Y25351D1*
X15885Y25275D1*
X15890Y25199D1*
X15902Y25123D1*
X15915Y25047D1*
X15933Y24971D1*
X15965Y24895D1*
X16009Y24819D1*
X16065Y24743D1*
X16137Y24667D1*
X16231Y24591D1*
X16353Y24515D1*
X16526Y24439D1*
X16783Y24363D1*
X17128Y24287D1*
X17518Y24211D1*
X17495Y24135D1*
X17460Y24059D1*
X17423Y23983D1*
X17420Y23907D1*
X17427Y23831D1*
X17434Y23755D1*
X17438Y23679D1*
X17441Y23603D1*
X17442Y23527D1*
Y23451D1*
X18886Y31887D2*
X19369Y31811D1*
X19811Y31735D1*
X20229Y31659D1*
X20653Y31583D1*
X21090Y31507D1*
X24206Y31887D2*
X24221Y31811D1*
X24250Y31735D1*
X24291Y31659D1*
X24336Y31583D1*
X24387Y31507D1*
X24446Y31431D1*
X24510Y31355D1*
X18810Y31811D2*
X18393Y31735D1*
X18036Y31659D1*
X17764Y31583D1*
X17568Y31507D1*
X17425Y31431D1*
X17318Y31355D1*
X17240Y31279D1*
X17186Y31203D1*
X17148Y31127D1*
X17117Y31051D1*
X17094Y30975D1*
X17082Y30899D1*
X17098Y30823D1*
X17117Y30747D1*
X17140Y30671D1*
X17167Y30595D1*
X17200Y30519D1*
X17235Y30443D1*
X17272Y30367D1*
X17310Y30291D1*
X17350Y30215D1*
X17395Y30139D1*
X17444Y30063D1*
X17493Y29987D1*
X17543Y29911D1*
X17595Y29835D1*
X17645Y29759D1*
X17698Y29683D1*
X17760Y29607D1*
X17828Y29531D1*
X17900Y29455D1*
X17972Y29379D1*
X18038Y29303D1*
X18096Y29227D1*
X18152Y29151D1*
X18215Y29075D1*
X18287Y28999D1*
X18369Y28923D1*
X18462Y28847D1*
X18560Y28771D1*
X18661Y28695D1*
X18770Y28619D1*
X18886Y28543D1*
X18354Y31811D2*
X18917Y31735D1*
X19427Y31659D1*
X19864Y31583D1*
X20219Y31507D1*
X20475Y31431D1*
X20658Y31355D1*
X20732Y31279D1*
X20723Y31203D1*
X20714Y31127D1*
X20701Y31051D1*
X20681Y30975D1*
X20660Y30899D1*
X20647Y30823D1*
X20640Y30747D1*
X20636Y30671D1*
X20635Y30595D1*
Y30519D1*
X20634Y30443D1*
X22534Y31811D2*
X22548Y31735D1*
X22575Y31659D1*
X22610Y31583D1*
X22686Y31811D2*
X22672Y31735D1*
X22646Y31659D1*
X22610Y31583D1*
X24358Y31735D2*
X24423Y31659D1*
X24480Y31583D1*
X24536Y31507D1*
X24597Y31431D1*
X24662Y31355D1*
X28386Y31659D2*
X28310Y31583D1*
X28386Y31659D2*
X28462Y31583D1*
X27778D2*
X27256Y31507D1*
X26763Y31431D1*
X26333Y31355D1*
X25993Y31279D1*
X25757Y31203D1*
X25593Y31127D1*
X25524Y31051D1*
X25537Y30975D1*
X25552Y30899D1*
X25563Y30823D1*
X25570Y30747D1*
X25575Y30671D1*
X25586Y30595D1*
X25605Y30519D1*
X25625Y30443D1*
X25638Y30367D1*
X25645Y30291D1*
X25648Y30215D1*
X25649Y30139D1*
X25650Y30063D1*
Y29987D1*
Y29911D1*
X25651Y29835D1*
X25653Y29759D1*
X25663Y29683D1*
X25681Y29607D1*
X25701Y29531D1*
X25714Y29455D1*
X25718Y29379D1*
X25711Y29303D1*
X25695Y29227D1*
X25676Y29151D1*
X25663Y29075D1*
X25656Y28999D1*
X25652Y28923D1*
X25651Y28847D1*
Y28771D1*
X25650Y28695D1*
Y28619D1*
Y28543D1*
Y28467D1*
Y28391D1*
Y28315D1*
Y28239D1*
Y28163D1*
X25647Y28087D1*
X25638Y28011D1*
X25619Y27935D1*
X25600Y27859D1*
X25587Y27783D1*
X25580Y27707D1*
X25576Y27631D1*
X25575Y27555D1*
X25572Y27479D1*
X25562Y27403D1*
X25543Y27327D1*
X25524Y27251D1*
X25510Y27175D1*
X25501Y27099D1*
X25488Y27023D1*
X25468Y26947D1*
X25448Y26871D1*
X25434Y26795D1*
X25425Y26719D1*
X25412Y26643D1*
X25392Y26567D1*
X25372Y26491D1*
X25356Y26415D1*
X25339Y26339D1*
X25318Y26263D1*
X25296Y26187D1*
X25280Y26111D1*
X25263Y26035D1*
X25241Y25959D1*
X25218Y25883D1*
X25194Y25807D1*
X25169Y25731D1*
X25143Y25655D1*
X25119Y25579D1*
X25093Y25503D1*
X25067Y25427D1*
X25043Y25351D1*
X25021Y25275D1*
X25003Y25199D1*
X25028Y25123D1*
X25127Y25047D1*
X25272Y24971D1*
X25457Y24895D1*
X25670Y24819D1*
X25912Y24743D1*
X26191Y24667D1*
X26524Y24591D1*
X26953Y24515D1*
X27515Y24439D1*
X28158Y24363D1*
X27626Y31583D2*
X28034Y31507D1*
X28380Y31431D1*
X28640Y31355D1*
X28824Y31279D1*
X28954Y31203D1*
X29052Y31127D1*
X29127Y31051D1*
X29186Y30975D1*
X29231Y30899D1*
X29264Y30823D1*
X29282Y30747D1*
X29292Y30671D1*
X29296Y30595D1*
X29297Y30519D1*
X29295Y30443D1*
X29285Y30367D1*
X29264Y30291D1*
X29235Y30215D1*
X29201Y30139D1*
X29164Y30063D1*
X29127Y29987D1*
X29086Y29911D1*
X29039Y29835D1*
X28982Y29759D1*
X28925Y29683D1*
X28871Y29607D1*
X28816Y29531D1*
X28754Y29455D1*
X28685Y29379D1*
X28612Y29303D1*
X28537Y29227D1*
X28462Y29151D1*
X28386Y29075D1*
X28310Y28999D1*
X28231Y28923D1*
X28146Y28847D1*
X28051Y28771D1*
X27956Y28695D1*
X27864Y28619D1*
X27771Y28543D1*
X27673Y28467D1*
X27567Y28391D1*
X27442Y28315D1*
X27281Y28239D1*
X27094Y28163D1*
X18962Y31279D2*
X18819Y31203D1*
X18712Y31127D1*
X18633Y31051D1*
X18607Y30975D1*
X18593Y30899D1*
X18586Y30823D1*
X18584Y30747D1*
X18586Y30671D1*
X18598Y30595D1*
X18629Y30519D1*
X18679Y30443D1*
X18743Y30367D1*
X18811Y30291D1*
X18875Y30215D1*
X18929Y30139D1*
X18972Y30063D1*
X19005Y29987D1*
X19029Y29911D1*
X19060Y29835D1*
X19114Y29759D1*
X19187Y29683D1*
X19266Y29607D1*
X19190Y31279D2*
X19298Y31203D1*
X19386Y31127D1*
X19452Y31051D1*
X19501Y30975D1*
X19534Y30899D1*
X19551Y30823D1*
Y30747D1*
X19537Y30671D1*
X19519Y30595D1*
X19503Y30519D1*
X19485Y30443D1*
X19455Y30367D1*
X19418Y30291D1*
X19453Y30215D1*
X19475Y30139D1*
X19486Y30063D1*
X19488Y29987D1*
X19480Y29911D1*
X19460Y29835D1*
X19429Y29759D1*
X19388Y29683D1*
X19342Y29607D1*
X20862Y31355D2*
X20851Y31279D1*
X20832Y31203D1*
X20812Y31127D1*
X20796Y31051D1*
X20779Y30975D1*
X20758Y30899D1*
X20736Y30823D1*
X20720Y30747D1*
X20703Y30671D1*
X20681Y30595D1*
X20657Y30519D1*
X20634Y30443D1*
X20938Y31355D2*
X21166Y31279D1*
X21394Y31203D1*
X21622Y31127D1*
X21847Y31051D1*
X22066Y30975D1*
X22275Y30899D1*
X22480Y30823D1*
X22686Y30747D1*
X18886Y31203D2*
X18813Y31127D1*
X18747Y31051D1*
X18693Y30975D1*
X18652Y30899D1*
X18621Y30823D1*
X18630Y30747D1*
X18655Y30671D1*
X18695Y30595D1*
X18754Y30519D1*
X18832Y30443D1*
X18930Y30367D1*
X19038Y30291D1*
X19114Y31203D2*
X19239Y31127D1*
X19338Y31051D1*
X19407Y30975D1*
X19459Y30899D1*
X19477Y30823D1*
X19484Y30747D1*
X19479Y30671D1*
X19462Y30595D1*
X19444Y30519D1*
X19430Y30443D1*
X19420Y30367D1*
X19405Y30291D1*
X19378Y30215D1*
X19342Y30139D1*
X25346Y31127D2*
X25045Y31051D1*
X24754Y30975D1*
X24484Y30899D1*
X24237Y30823D1*
X24008Y30747D1*
X23786Y30671D1*
X23568Y30595D1*
X23352Y30519D1*
X23136Y30443D1*
X22923Y30367D1*
X22716Y30291D1*
X22511Y30215D1*
X22307Y30139D1*
X22107Y30063D1*
X21914Y29987D1*
X21729Y29911D1*
X21549Y29835D1*
X21370Y29759D1*
X21194Y29683D1*
X21025Y29607D1*
X20855Y29531D1*
X20682Y29455D1*
X20509Y29379D1*
X20346Y29303D1*
X20196Y29227D1*
X20059Y29151D1*
X19926Y29075D1*
X19789Y28999D1*
X19654Y28923D1*
X19523Y28847D1*
X19395Y28771D1*
X19270Y28695D1*
X19159Y28619D1*
X19064Y28543D1*
X19018Y28467D1*
X19020Y28391D1*
X19066Y28315D1*
X19129Y28239D1*
X19207Y28163D1*
X19299Y28087D1*
X19396Y28011D1*
X19495Y27935D1*
X19596Y27859D1*
X19697Y27783D1*
X19798Y27707D1*
X19902Y27631D1*
X20011Y27555D1*
X20123Y27479D1*
X20236Y27403D1*
X20349Y27327D1*
X20463Y27251D1*
X20577Y27175D1*
X20692Y27099D1*
X20808Y27023D1*
X20932Y26947D1*
X21064Y26871D1*
X21201Y26795D1*
X21338Y26719D1*
X21480Y26643D1*
X21626Y26567D1*
X21776Y26491D1*
X21927Y26415D1*
X22079Y26339D1*
X22230Y26263D1*
X22382Y26187D1*
X22534Y26111D1*
X22687Y26035D1*
X22841Y25959D1*
X23003Y25883D1*
X23173Y25807D1*
X23348Y25731D1*
X23523Y25655D1*
X23700Y25579D1*
X23877Y25503D1*
X24054Y25427D1*
X24238Y25351D1*
X24436Y25275D1*
X24656Y25199D1*
X24890Y25123D1*
X25346Y31127D2*
X25358Y31051D1*
X25377Y30975D1*
X25397Y30899D1*
X25410Y30823D1*
X25420Y30747D1*
X25433Y30671D1*
X25452Y30595D1*
X25472Y30519D1*
X25486Y30443D1*
X25493Y30367D1*
X25496Y30291D1*
X25497Y30215D1*
X25498Y30139D1*
X25501Y30063D1*
X25511Y29987D1*
X25529Y29911D1*
X25549Y29835D1*
X25562Y29759D1*
X25569Y29683D1*
X25572Y29607D1*
X25573Y29531D1*
X25574Y29455D1*
Y29379D1*
Y29303D1*
Y29227D1*
Y29151D1*
Y29075D1*
Y28999D1*
Y28923D1*
Y28847D1*
X25571Y28771D1*
X25562Y28695D1*
X25543Y28619D1*
X25524Y28543D1*
X25511Y28467D1*
X25504Y28391D1*
X25500Y28315D1*
X25499Y28239D1*
Y28163D1*
X25498Y28087D1*
Y28011D1*
X25495Y27935D1*
X25486Y27859D1*
X25467Y27783D1*
X25448Y27707D1*
X25435Y27631D1*
X25427Y27555D1*
X25421Y27479D1*
X25410Y27403D1*
X25392Y27327D1*
X25372Y27251D1*
X25359Y27175D1*
X25351Y27099D1*
X25345Y27023D1*
X25334Y26947D1*
X25316Y26871D1*
X25296Y26795D1*
X25282Y26719D1*
X25273Y26643D1*
X25260Y26567D1*
X25240Y26491D1*
X25220Y26415D1*
X25204Y26339D1*
X25187Y26263D1*
X25166Y26187D1*
X25144Y26111D1*
X25128Y26035D1*
X25111Y25959D1*
X25089Y25883D1*
X25066Y25807D1*
X25042Y25731D1*
X25014Y25655D1*
X24981Y25579D1*
X24948Y25503D1*
X24918Y25427D1*
X24890Y25351D1*
X24855Y25275D1*
X24814Y25199D1*
X26790Y31051D2*
X26760Y30975D1*
X26762Y30899D1*
X26772Y30823D1*
X26782Y30747D1*
X26790Y30671D1*
X26562D1*
X26550Y30595D1*
X26531Y30519D1*
X26508Y30443D1*
X26486Y30367D1*
X27018Y31051D2*
X27050Y30975D1*
X27069Y30899D1*
X27048Y30823D1*
X27018Y30747D1*
X27135Y30671D1*
X27220Y30595D1*
X27282Y30519D1*
X27305Y30443D1*
X27322Y30367D1*
X28082Y31051D2*
X28071Y30975D1*
X28052Y30899D1*
X28032Y30823D1*
X28019Y30747D1*
X28012Y30671D1*
X28008Y30595D1*
X28007Y30519D1*
Y30443D1*
X28006Y30367D1*
Y30291D1*
Y30215D1*
Y30139D1*
X28007Y30063D1*
X28009Y29987D1*
X28021Y29911D1*
X28047Y29835D1*
X28082Y29759D1*
X28234Y31051D2*
Y30975D1*
X28436Y30899D1*
X28591Y30823D1*
X28652Y30747D1*
X28673Y30671D1*
X28683Y30595D1*
X28688Y30519D1*
X28689Y30443D1*
X28690Y30367D1*
Y30291D1*
Y30215D1*
Y30139D1*
Y30063D1*
X28687Y29987D1*
X28675Y29911D1*
X28649Y29835D1*
X28614Y29759D1*
X18962Y30899D2*
X18927Y30823D1*
X18906Y30747D1*
X18898Y30671D1*
X18899Y30595D1*
X18929Y30519D1*
X18968Y30443D1*
X19005Y30367D1*
X19038Y30291D1*
X26942Y30975D2*
X26902Y30899D1*
X26866Y30823D1*
X26942Y30975D2*
X26983Y30899D1*
X27018Y30823D1*
X18962D2*
X18886Y30747D1*
X19038D2*
X19266D2*
Y30671D1*
Y30595D1*
Y30519D1*
X19267Y30443D1*
X19269Y30367D1*
X19281Y30291D1*
X19307Y30215D1*
X19342Y30139D1*
X28082Y30823D2*
Y30747D1*
Y30671D1*
Y30595D1*
Y30519D1*
Y30443D1*
Y30367D1*
Y30291D1*
Y30215D1*
Y30139D1*
Y30063D1*
X28614Y30823D2*
Y30747D1*
Y30671D1*
Y30595D1*
Y30519D1*
Y30443D1*
Y30367D1*
Y30291D1*
Y30215D1*
Y30139D1*
Y30063D1*
X15846Y30671D2*
X15735Y30595D1*
X15618Y30519D1*
X15922Y30671D2*
X16045Y30595D1*
X16159Y30519D1*
X16253Y30443D1*
X16327Y30367D1*
X16356Y30291D1*
X16380Y30215D1*
X16405Y30139D1*
X16427Y30063D1*
X16441Y29987D1*
X16445Y29911D1*
X16441Y29835D1*
X16399Y29759D1*
X16341Y29683D1*
X16281Y29607D1*
X16226Y29531D1*
X15618Y30595D2*
X15519Y30519D1*
X15434Y30443D1*
X15364Y30367D1*
X15338Y30291D1*
X15325Y30215D1*
X15318Y30139D1*
X15316Y30063D1*
X15315Y29987D1*
X15318Y29911D1*
X15326Y29835D1*
X15369Y29759D1*
X15429Y29683D1*
X15491Y29607D1*
X15540Y29531D1*
X15576Y29455D1*
X15572Y29379D1*
X15558Y29303D1*
X15539Y29227D1*
X15515Y29151D1*
X15490Y29075D1*
X15466Y28999D1*
X24510Y30595D2*
X24379Y30519D1*
X24276Y30443D1*
X24236Y30367D1*
X24206Y30291D1*
X24358D1*
X24372Y30215D1*
X24393Y30139D1*
X24461Y30063D1*
X24622Y29987D1*
X24814Y29911D1*
Y30595D2*
X24951Y30519D1*
X25072Y30443D1*
X25173Y30367D1*
X25262Y30291D1*
X25346Y30215D1*
X25241Y30139D1*
X25130Y30063D1*
X25015Y29987D1*
X24907Y29911D1*
X24813Y29835D1*
X24771Y29759D1*
X24738Y29683D1*
X26638Y30671D2*
X26658Y30595D1*
X26717Y30519D1*
X26790Y30443D1*
X26866Y30671D2*
X26847Y30595D1*
X26787Y30519D1*
X26714Y30443D1*
X26942Y30671D2*
X26962Y30595D1*
X27021Y30519D1*
X27094Y30443D1*
X27170Y30671D2*
X27151Y30595D1*
X27091Y30519D1*
X27018Y30443D1*
X18962Y30519D2*
X19020Y30443D1*
X19066Y30367D1*
X19071Y30291D1*
X19076Y30215D1*
X19126Y30139D1*
X19190Y30063D1*
X24434Y30443D2*
X24358Y30367D1*
X24434Y30291D1*
X24510Y30443D2*
X24586Y30367D1*
X24510Y30291D1*
X24814Y30443D2*
X24738Y30367D1*
X24814Y30291D1*
X24890Y30443D2*
X24966Y30367D1*
X24890Y30291D1*
X26790Y30215D2*
X26779Y30139D1*
X26760Y30063D1*
X26740Y29987D1*
X26727Y29911D1*
X26720Y29835D1*
X26717Y29759D1*
X26718Y29683D1*
X26727Y29607D1*
X26745Y29531D1*
X26765Y29455D1*
X26778Y29379D1*
X26785Y29303D1*
X26788Y29227D1*
X26790Y29151D1*
Y29075D1*
X27018Y30215D2*
X27034Y30139D1*
X27060Y30063D1*
X27142Y29987D1*
X27259Y29911D1*
X27398Y29835D1*
X19266Y30139D2*
X19190Y30063D1*
X24738Y30215D2*
X24614Y30139D1*
X24516Y30063D1*
X24434Y29987D1*
X24814Y29911D1*
X24738Y30215D2*
X24662Y30139D1*
X24738Y30063D1*
X24814Y30215D2*
X24890Y30139D1*
X24814Y30063D1*
X26334Y30139D2*
X26304Y30063D1*
X26314Y29987D1*
X26334Y29911D1*
X26264Y29835D1*
X26212Y29759D1*
X26197Y29683D1*
X26191Y29607D1*
X26197Y29531D1*
X26214Y29455D1*
X26233Y29379D1*
X26246Y29303D1*
X26253Y29227D1*
X26256Y29151D1*
X26258Y29075D1*
X26410Y30139D2*
X26440Y30063D1*
X26431Y29987D1*
X26410Y29911D1*
X26480Y29835D1*
X26532Y29759D1*
X26548Y29683D1*
X26554Y29607D1*
X26547Y29531D1*
X26531Y29455D1*
X26512Y29379D1*
X26499Y29303D1*
X26492Y29227D1*
X26488Y29151D1*
X26486Y29075D1*
X27398Y30139D2*
X27392Y30063D1*
X27378Y29987D1*
X27319Y29911D1*
X27246Y29835D1*
X27474Y30139D2*
X27512Y30063D1*
X27544Y29987D1*
X27576Y29911D1*
X27610Y29835D1*
X27641Y29759D1*
X27665Y29683D1*
X27656Y29607D1*
X27634Y29531D1*
X27606Y29455D1*
X27580Y29379D1*
X27565Y29303D1*
X27556Y29227D1*
X27553Y29151D1*
X27550Y29075D1*
X30134Y29987D2*
X30050Y29911D1*
X29945Y29835D1*
X29817Y29759D1*
X29695Y29683D1*
X29596Y29607D1*
X29560Y29531D1*
X29541Y29455D1*
X29532Y29379D1*
Y29303D1*
X29542Y29227D1*
X29567Y29151D1*
X29602Y29075D1*
X30514Y29987D2*
X30613Y29911D1*
X30689Y29835D1*
X30744Y29759D1*
X30781Y29683D1*
X30801Y29607D1*
X30811Y29531D1*
X30812Y29455D1*
X30802Y29379D1*
X30774Y29303D1*
X30737Y29227D1*
X30704Y29151D1*
X30684Y29075D1*
X30670Y28999D1*
X30653Y28923D1*
X30626Y28847D1*
X30557Y28771D1*
X30466Y28695D1*
X30362Y28619D1*
X28158Y29987D2*
X28118Y29911D1*
X28082Y29835D1*
X28158Y29987D2*
X28199Y29911D1*
X28234Y29835D1*
X28538Y29987D2*
X28498Y29911D1*
X28462Y29835D1*
X28538Y29987D2*
X28579Y29911D1*
X28614Y29835D1*
X24586D2*
Y29759D1*
Y29683D1*
X30210Y29911D2*
X30134Y29835D1*
X30058Y29759D1*
X29982Y29683D1*
X30017Y29607D1*
X30036Y29531D1*
X30042Y29455D1*
X30011Y29379D1*
X29964Y29303D1*
X29912Y29227D1*
X29868Y29151D1*
X29830Y29075D1*
X30362Y29911D2*
X30438Y29835D1*
X30514Y29759D1*
X30587Y29683D1*
X30650Y29607D1*
X30701Y29531D1*
X30714Y29455D1*
X30677Y29379D1*
X30567Y29303D1*
X30438Y29227D1*
X21926Y29607D2*
Y29531D1*
Y29455D1*
Y29379D1*
Y29303D1*
Y29227D1*
Y29151D1*
Y29075D1*
Y28999D1*
Y28923D1*
Y28847D1*
Y28771D1*
Y28695D1*
Y28619D1*
Y28543D1*
Y28467D1*
Y28391D1*
Y28315D1*
Y28239D1*
X21923Y28163D1*
X21913Y28087D1*
X21892Y28011D1*
X21863Y27935D1*
X21832Y27859D1*
X21802Y27783D1*
X21776Y27707D1*
X21747Y27631D1*
X21713Y27555D1*
X21678Y27479D1*
X21641Y27403D1*
X21609Y27327D1*
X21584Y27251D1*
X21598Y27175D1*
X21622Y27099D1*
X23978Y29607D2*
X24013Y29531D1*
X24035Y29455D1*
X24046Y29379D1*
X24051Y29303D1*
X24053Y29227D1*
X24054Y29151D1*
Y29075D1*
Y28999D1*
Y28923D1*
Y28847D1*
Y28771D1*
Y28695D1*
Y28619D1*
Y28543D1*
Y28467D1*
Y28391D1*
Y28315D1*
Y28239D1*
X24055Y28163D1*
X24057Y28087D1*
X24067Y28011D1*
X24088Y27935D1*
X24118Y27859D1*
X24152Y27783D1*
X24188Y27707D1*
X24226Y27631D1*
X24263Y27555D1*
X24298Y27479D1*
X24326Y27403D1*
X24343Y27327D1*
X24352Y27251D1*
X24356Y27175D1*
X24358Y27099D1*
X15846Y29607D2*
X15843Y29531D1*
X15834Y29455D1*
X15815Y29379D1*
X15793Y29303D1*
X15770Y29227D1*
X15744Y29151D1*
X15718Y29075D1*
X15694Y28999D1*
X15998Y29607D2*
X16074Y29531D1*
X27170Y29607D2*
X27109Y29531D1*
X27065Y29455D1*
X27039Y29379D1*
X27027Y29303D1*
X27022Y29227D1*
X27019Y29151D1*
X27018Y29075D1*
X27246Y29607D2*
X27258Y29531D1*
X27277Y29455D1*
X27297Y29379D1*
X27310Y29303D1*
X27317Y29227D1*
X27320Y29151D1*
X27322Y29075D1*
X22078Y29455D2*
Y29379D1*
Y29303D1*
Y29227D1*
Y29151D1*
Y29075D1*
Y28999D1*
Y28923D1*
Y28847D1*
Y28771D1*
Y28695D1*
Y28619D1*
Y28543D1*
Y28467D1*
Y28391D1*
Y28315D1*
Y28239D1*
X23902Y29455D2*
Y29379D1*
Y29303D1*
Y29227D1*
Y29151D1*
Y29075D1*
Y28999D1*
Y28923D1*
Y28847D1*
Y28771D1*
Y28695D1*
Y28619D1*
Y28543D1*
Y28467D1*
Y28391D1*
Y28315D1*
Y28239D1*
X30362Y29303D2*
X30286Y29227D1*
X30211Y29151D1*
X30138Y29075D1*
X30077Y28999D1*
X30032Y28923D1*
X30039Y28847D1*
X30099Y28771D1*
X30185Y28695D1*
X30286Y28619D1*
X30438Y29303D2*
X30514Y29227D1*
X16606Y29151D2*
X16539Y29075D1*
X16473Y28999D1*
X16401Y28923D1*
X16331Y28847D1*
X16280Y28771D1*
X16251Y28695D1*
X16240Y28619D1*
X16239Y28543D1*
X16270Y28467D1*
X16308Y28391D1*
X16346Y28315D1*
X16386Y28239D1*
X16433Y28163D1*
X16476Y28087D1*
X16504Y28011D1*
X16519Y27935D1*
X16526Y27859D1*
X16530Y27783D1*
X16986Y29151D2*
X17097Y29075D1*
X17227Y28999D1*
X17349Y28923D1*
X17448Y28847D1*
X17485Y28771D1*
X17504Y28695D1*
X17509Y28619D1*
X17507Y28543D1*
X17473Y28467D1*
X17424Y28391D1*
X17368Y28315D1*
X17308Y28239D1*
X17248Y28163D1*
X17198Y28087D1*
X17166Y28011D1*
X17150Y27935D1*
X17143Y27859D1*
X17138Y27783D1*
X16682Y29075D2*
X16606Y28999D1*
X16530Y28923D1*
X17062Y28999D2*
Y28923D1*
Y28847D2*
X17149Y28771D1*
X17226Y28695D1*
X17259Y28619D1*
X17278Y28543D1*
X17290Y28467D1*
X17138Y28923D2*
X17272Y28847D1*
X17380Y28771D1*
X17462Y28695D1*
X17486Y28619D1*
X17469Y28543D1*
X17442Y28467D1*
X20482Y28847D2*
X20418Y28771D1*
X20364Y28695D1*
X20320Y28619D1*
X20289Y28543D1*
X20273Y28467D1*
X20269Y28391D1*
X20299Y28315D1*
X20394Y28239D1*
X20537Y28163D1*
X20710Y28087D1*
X20589Y28011D1*
X20482Y27935D1*
X20594Y27859D1*
X20710Y27783D1*
X21014Y28847D2*
X21087Y28771D1*
X21150Y28695D1*
X21196Y28619D1*
X21221Y28543D1*
X21234Y28467D1*
X21239Y28391D1*
X21238Y28315D1*
X21226Y28239D1*
X21195Y28163D1*
X21142Y28087D1*
X21066Y28011D1*
X20964Y27935D1*
X20842Y27859D1*
X20710Y27783D1*
X26106Y28847D2*
X26173Y28771D1*
X26250Y28695D1*
X26332Y28619D1*
X26421Y28543D1*
X26516Y28467D1*
X26615Y28391D1*
X26714Y28315D1*
X26812Y28239D1*
X26895Y28163D1*
X26958Y28087D1*
X26975Y28011D1*
X26908Y27935D1*
X26823Y27859D1*
X26720Y27783D1*
X26606Y27707D1*
X26486Y27631D1*
X26371Y27555D1*
X26261Y27479D1*
X26147Y27403D1*
X26031Y27327D1*
X25932Y27251D1*
X25860Y27175D1*
X25802Y27099D1*
X26182Y28847D2*
X26320Y28771D1*
X26443Y28695D1*
X26554Y28619D1*
X26661Y28543D1*
X26765Y28467D1*
X26875Y28391D1*
X27013Y28315D1*
X27193Y28239D1*
X27398Y28163D1*
X16530Y28847D2*
X16540Y28771D1*
X16561Y28695D1*
X16649Y28619D1*
X16758Y28543D1*
X17062Y28771D2*
X16898Y28695D1*
X16661Y28619D1*
X16378Y28543D1*
X28994Y28771D2*
X28692Y28695D1*
X28457Y28619D1*
X28284Y28543D1*
X28213Y28467D1*
X28221Y28391D1*
X28228Y28315D1*
X28234Y28239D1*
X28246Y28163D1*
X28265Y28087D1*
X28284Y28011D1*
X28298Y27935D1*
X28305Y27859D1*
X28311Y27783D1*
X28322Y27707D1*
X28341Y27631D1*
X28361Y27555D1*
X28375Y27479D1*
X28386Y27403D1*
X29298Y28771D2*
X29299Y28695D1*
X29301Y28619D1*
X29311Y28543D1*
X29329Y28467D1*
X29349Y28391D1*
X29362Y28315D1*
X29372Y28239D1*
X29385Y28163D1*
X29404Y28087D1*
X29424Y28011D1*
X29438Y27935D1*
X29445Y27859D1*
X29444Y27783D1*
X29435Y27707D1*
X29369Y27631D1*
X29175Y27555D1*
X28912Y27479D1*
X28614Y27403D1*
X20634Y28771D2*
X20558Y28695D1*
X20786Y28619D1*
X20862Y28771D2*
X20938Y28695D1*
X20710Y28619D1*
X20938D2*
X20964Y28543D1*
X20984Y28467D1*
X20995Y28391D1*
X20979Y28315D1*
X20962Y28239D1*
X20949Y28163D1*
X20938Y28087D1*
X20710D1*
Y28011D1*
X21090Y28695D2*
X21102Y28619D1*
X21121Y28543D1*
X21138Y28467D1*
X21147Y28391D1*
X21127Y28315D1*
X21099Y28239D1*
X21030Y28163D1*
X20882Y28087D1*
X20710Y28011D1*
X29298Y28695D2*
X29027Y28619D1*
X28768Y28543D1*
X28560Y28467D1*
X28406Y28391D1*
X28351Y28315D1*
X28310Y28239D1*
X29222Y28695D2*
Y28619D1*
X29218Y28543D1*
X29207Y28467D1*
X29139Y28391D1*
X28918Y28315D1*
X28602Y28239D1*
X28234Y28163D1*
X20406Y28619D2*
X20407Y28543D1*
X20409Y28467D1*
X20421Y28391D1*
X20447Y28315D1*
X20482Y28239D1*
X20558Y28619D2*
Y28543D1*
X20555Y28467D1*
X20543Y28391D1*
X20517Y28315D1*
X20482Y28239D1*
X20786Y28543D2*
X20710Y28467D1*
X20634Y28391D1*
X20746Y28315D1*
X20862Y28239D1*
Y28543D2*
X20859Y28467D1*
X20847Y28391D1*
X20821Y28315D1*
X20786Y28239D1*
X18658Y28315D2*
X18579Y28239D1*
X18493Y28163D1*
X18396Y28087D1*
X18291Y28011D1*
X18184Y27935D1*
X18081Y27859D1*
X17989Y27783D1*
X17904Y27707D1*
X17822Y27631D1*
X17735Y27555D1*
X17640Y27479D1*
X17544Y27403D1*
X17455Y27327D1*
X17372Y27251D1*
X17293Y27175D1*
X17218Y27099D1*
X17151Y27023D1*
X17091Y26947D1*
X17027Y26871D1*
X16956Y26795D1*
X16885Y26719D1*
X16819Y26643D1*
X16751Y26567D1*
X16682Y26491D1*
X16618Y26415D1*
X16561Y26339D1*
X16505Y26263D1*
X16445Y26187D1*
X16386Y26111D1*
X16334Y26035D1*
X16289Y25959D1*
X16248Y25883D1*
X16211Y25807D1*
X16180Y25731D1*
X16153Y25655D1*
X16126Y25579D1*
X16102Y25503D1*
X16088Y25427D1*
X16080Y25351D1*
X16077Y25275D1*
X16078Y25199D1*
X16088Y25123D1*
X16109Y25047D1*
X16141Y24971D1*
X16185Y24895D1*
X16246Y24819D1*
X16328Y24743D1*
X16448Y24667D1*
X16631Y24591D1*
X16910Y24515D1*
X17297Y24439D1*
X17746Y24363D1*
X18734Y28315D2*
X18871Y28239D1*
X18992Y28163D1*
X19094Y28087D1*
X19185Y28011D1*
X19276Y27935D1*
X19372Y27859D1*
X19468Y27783D1*
X19561Y27707D1*
X19654Y27631D1*
X19751Y27555D1*
X19851Y27479D1*
X19950Y27403D1*
X20051Y27327D1*
X20147Y27251D1*
X20222Y27175D1*
X20277Y27099D1*
X20279Y27023D1*
X20274Y26947D1*
X20276Y26871D1*
X20289Y26795D1*
X20306Y26719D1*
X20319Y26643D1*
X20325Y26567D1*
X20328Y26491D1*
X20330Y26415D1*
Y26339D1*
Y26263D1*
Y26187D1*
Y26111D1*
Y26035D1*
X20331Y25959D1*
X20333Y25883D1*
X20343Y25807D1*
X20361Y25731D1*
X20381Y25655D1*
X20394Y25579D1*
X20404Y25503D1*
X20417Y25427D1*
X20436Y25351D1*
X20457Y25275D1*
X20473Y25199D1*
X20489Y25123D1*
X20508Y25047D1*
X20528Y24971D1*
X20452Y24895D1*
X20270Y24819D1*
X20027Y24743D1*
X19723Y24667D1*
X19359Y24591D1*
X18920Y24515D1*
X18395Y24439D1*
X17822Y24363D1*
X29222Y28239D2*
X29182Y28163D1*
X29146Y28087D1*
X29222Y28239D2*
X29263Y28163D1*
X29298Y28087D1*
X16606Y28163D2*
X16626Y28087D1*
X16685Y28011D1*
X16758Y27935D1*
X16682Y28163D2*
X16758Y28087D1*
X16834Y28011D1*
X16758Y27935D1*
X28538Y28163D2*
X28541Y28087D1*
X28551Y28011D1*
X28570Y27935D1*
X28592Y27859D1*
X28614Y27783D1*
X28766Y28163D2*
Y28087D1*
Y28011D1*
Y27935D1*
Y27859D1*
Y27783D1*
X28842Y28163D2*
X28883Y28087D1*
X28918Y28011D1*
X28462Y28087D2*
X28386Y28011D1*
X22306D2*
X22230Y27935D1*
X22306Y27859D1*
X22382Y28011D2*
X22458Y27935D1*
X22382Y27859D1*
X23750Y28011D2*
X23710Y27935D1*
X23674Y27859D1*
X23750Y28011D2*
X23791Y27935D1*
X23826Y27859D1*
X29070Y28011D2*
X29030Y27935D1*
X28994Y27859D1*
X29070Y28011D2*
X29111Y27935D1*
X29146Y27859D1*
X27170Y27935D2*
X27082Y27859D1*
X26985Y27783D1*
X26879Y27707D1*
X26769Y27631D1*
X26656Y27555D1*
X26543Y27479D1*
X26426Y27403D1*
X26302Y27327D1*
X26167Y27251D1*
X26025Y27175D1*
X25878Y27099D1*
X27246Y27935D2*
X27322Y27859D1*
X27398Y27783D1*
X27474Y27707D1*
X27550Y27631D1*
X27627Y27555D1*
X27705Y27479D1*
X27791Y27403D1*
X27885Y27327D1*
X27978Y27251D1*
X28060Y27175D1*
X28132Y27099D1*
X28200Y27023D1*
X28265Y26947D1*
X28329Y26871D1*
X28395Y26795D1*
X28466Y26719D1*
X28540Y26643D1*
X28612Y26567D1*
X28678Y26491D1*
X28735Y26415D1*
X28789Y26339D1*
X28842Y26263D1*
X28892Y26187D1*
X28943Y26111D1*
X28992Y26035D1*
X29032Y25959D1*
X29064Y25883D1*
X29094Y25807D1*
X29122Y25731D1*
X29146Y25655D1*
X28972Y25579D1*
X28795Y25503D1*
X28614Y25427D1*
X28386Y27935D2*
X28427Y27859D1*
X28462Y27783D1*
X28842Y27935D2*
X28918Y27859D1*
X28462Y27783D2*
X29298Y27859D2*
X29258Y27783D1*
X29222Y27707D1*
X29298Y27859D2*
X29339Y27783D1*
X29374Y27707D1*
X30058Y27783D2*
X29985Y27707D1*
X29919Y27631D1*
X29861Y27555D1*
X29805Y27479D1*
X29745Y27403D1*
X29686Y27327D1*
X29631Y27251D1*
X29579Y27175D1*
X29526Y27099D1*
X29476Y27023D1*
X29423Y26947D1*
X29364Y26871D1*
X29305Y26795D1*
X29251Y26719D1*
X29196Y26643D1*
X29135Y26567D1*
X29070Y26491D1*
X29175Y26415D1*
X29284Y26339D1*
X29392Y26263D1*
X29495Y26187D1*
X29589Y26111D1*
X29678Y26035D1*
X30134Y27783D2*
X30211Y27707D1*
X30290Y27631D1*
X30378Y27555D1*
X30478Y27479D1*
X30576Y27403D1*
X30658Y27327D1*
X30692Y27251D1*
X30641Y27175D1*
X30582Y27099D1*
X30522Y27023D1*
X30468Y26947D1*
X30415Y26871D1*
X30362Y26795D1*
X30312Y26719D1*
X30258Y26643D1*
X30197Y26567D1*
X30132Y26491D1*
X30069Y26415D1*
X30013Y26339D1*
X29960Y26263D1*
X29909Y26187D1*
X29866Y26111D1*
X29830Y26035D1*
X28918Y27783D2*
X28878Y27707D1*
X28842Y27631D1*
X28918Y27783D2*
X28959Y27707D1*
X28994Y27631D1*
X15998D2*
X15922Y27555D1*
X15846Y27479D1*
X28538Y27707D2*
X28462Y27631D1*
X28614Y27555D1*
X28690Y27707D2*
X28766Y27631D1*
X28614Y27555D1*
X15466D2*
X15370Y27479D1*
X15293Y27403D1*
X15265Y27327D1*
X15249Y27251D1*
X15243Y27175D1*
Y27099D1*
X15255Y27023D1*
X15285Y26947D1*
X15333Y26871D1*
X15390Y26795D1*
X15542Y27555D2*
X15694Y27479D1*
X16302Y27555D2*
X16349Y27479D1*
X16389Y27403D1*
X16418Y27327D1*
X16433Y27251D1*
X16416Y27175D1*
X16389Y27099D1*
X16356Y27023D1*
X16317Y26947D1*
X16273Y26871D1*
X16224Y26795D1*
X16175Y26719D1*
X16122Y26643D1*
X16061Y26567D1*
X15993Y26491D1*
X15922Y26415D1*
X30058Y27555D2*
X30070Y27479D1*
X30109Y27403D1*
X30213Y27327D1*
X30353Y27251D1*
X30514Y27175D1*
X30362Y27479D2*
X30438Y27403D1*
X30514Y27327D1*
X30403Y27251D1*
X30286Y27175D1*
X15466Y27479D2*
X15405Y27403D1*
X15361Y27327D1*
X15335Y27251D1*
X15322Y27175D1*
X15314Y27099D1*
X15542D1*
X15516Y27023D1*
X15493Y26947D1*
X15478Y26871D1*
X15466Y26795D1*
X15542Y27479D2*
X15618Y27403D1*
X15694Y27327D1*
X15998Y27479D2*
X16074Y27403D1*
X16150Y27327D1*
Y27479D2*
X16211Y27403D1*
X16255Y27327D1*
X16285Y27251D1*
X16286Y27175D1*
X16255Y27099D1*
X16207Y27023D1*
X16150Y26947D1*
X16302Y26871D1*
X18506Y27403D2*
X18435Y27327D1*
X18354Y27251D1*
X18734Y27403D2*
X18770Y27327D1*
X18810Y27251D1*
X22610Y27479D2*
Y27403D1*
Y27327D1*
Y27251D1*
X23218Y27175D1*
X23294Y27479D2*
Y27403D1*
Y27327D1*
Y27251D1*
X22686Y27175D1*
X15770Y27403D2*
X15846Y27327D1*
X16074D2*
X18278D2*
X18202Y27251D1*
X18126Y27175D1*
X18202Y27099D1*
X18082Y27023D1*
X17985Y26947D1*
X17898Y26871D1*
X17974Y26795D1*
X18050Y26719D1*
X17981Y26643D1*
X17931Y26567D1*
X17930Y26491D1*
X17982Y26415D1*
X18050Y26339D1*
X18021Y26263D1*
X18029Y26187D1*
X18074Y26111D1*
X18126Y26035D1*
X18886Y27327D2*
X18810Y27251D1*
X19114Y27327D2*
Y27251D1*
Y27175D1*
Y27099D1*
X19418D1*
X19404Y27023D1*
X19378Y26947D1*
X19342Y26871D1*
X19424Y26795D1*
X19485Y26719D1*
X19534Y26643D1*
X19483Y26567D1*
X19418Y26491D1*
X19457Y26415D1*
X19468Y26339D1*
X19441Y26263D1*
X19381Y26187D1*
X19323Y26111D1*
X19266Y26035D1*
X19196Y25959D1*
X19114Y25883D1*
X29982Y27327D2*
X29906Y27251D1*
X29830Y27175D1*
X29975Y27099D1*
X30157Y27023D1*
X30362Y26947D1*
X30134Y27251D2*
X30196Y27175D1*
X30246Y27099D1*
X30286Y27023D1*
X27398Y27175D2*
X27348Y27099D1*
X27295Y27023D1*
X27236Y26947D1*
X27177Y26871D1*
X27123Y26795D1*
X27071Y26719D1*
X27025Y26643D1*
X26988Y26567D1*
X26998Y26491D1*
X27057Y26415D1*
X27139Y26339D1*
X27238Y26263D1*
X27343Y26187D1*
X27447Y26111D1*
X27549Y26035D1*
X27652Y25959D1*
X27754Y25883D1*
X27854Y25807D1*
X27626Y27175D2*
X27749Y27099D1*
X27863Y27023D1*
X27957Y26947D1*
X28026Y26871D1*
X28083Y26795D1*
X28148Y26719D1*
X28222Y26643D1*
X28289Y26567D1*
X28343Y26491D1*
X28359Y26415D1*
X28336Y26339D1*
X28299Y26263D1*
X28256Y26187D1*
X28208Y26111D1*
X28157Y26035D1*
X28108Y25959D1*
X28058Y25883D1*
X28006Y25807D1*
X18582Y27099D2*
X18506Y27023D1*
X18582Y26947D1*
X18658Y27099D2*
X18734Y27023D1*
X18658Y26947D1*
X18810Y27099D2*
X18851Y27023D1*
X18886Y26947D1*
X20406Y27099D2*
Y27023D1*
Y26947D1*
Y26871D1*
Y26795D1*
Y26719D1*
Y26643D1*
Y26567D1*
Y26491D1*
Y26415D1*
Y26339D1*
Y26263D1*
X20407Y26187D1*
X20409Y26111D1*
X20419Y26035D1*
X20437Y25959D1*
X20457Y25883D1*
X20470Y25807D1*
X20477Y25731D1*
X20483Y25655D1*
X20494Y25579D1*
X20513Y25503D1*
X20533Y25427D1*
X20549Y25351D1*
X20566Y25275D1*
X20588Y25199D1*
X20617Y25123D1*
X20654Y25047D1*
X20749Y24971D1*
X20862Y24895D1*
X20482Y27099D2*
X20570Y27023D1*
X20668Y26947D1*
X20776Y26871D1*
X20897Y26795D1*
X21030Y26719D1*
X21173Y26643D1*
X21321Y26567D1*
X21471Y26491D1*
X21623Y26415D1*
X21774Y26339D1*
X21926Y26263D1*
X22078Y26187D1*
X22230Y26111D1*
X22383Y26035D1*
X22537Y25959D1*
X22699Y25883D1*
X22869Y25807D1*
X23041Y25731D1*
X23206Y25655D1*
X23365Y25579D1*
X23522Y25503D1*
X23360Y25427D1*
X23219Y25351D1*
X23113Y25275D1*
X23039Y25199D1*
X22986Y25123D1*
X22951Y25047D1*
X22931Y24971D1*
X22921Y24895D1*
X22917Y24819D1*
X22918Y24743D1*
X22928Y24667D1*
X22949Y24591D1*
X22984Y24515D1*
X23041Y24439D1*
X23128Y24363D1*
X23243Y24287D1*
X23370Y24211D1*
X29830Y27099D2*
X29771Y27023D1*
X29719Y26947D1*
X29788Y26871D1*
X29949Y26795D1*
X30134Y26719D1*
X29906Y27023D2*
X30018Y26947D1*
X30134Y26871D1*
X30058Y26795D1*
X18430Y27023D2*
X18390Y26947D1*
X18354Y26871D1*
X18506Y26947D2*
X18430Y26871D1*
X23826Y26947D2*
X23846Y26871D1*
X23858Y26795D1*
X23812Y26719D1*
X23750Y26643D1*
X23978Y26947D2*
X24200Y26871D1*
X24348Y26795D1*
X24444Y26719D1*
X24510Y26643D1*
X24559Y26567D1*
X24599Y26491D1*
X24626Y26415D1*
X24640Y26339D1*
X24618Y26263D1*
X24586Y26187D1*
X24624Y26111D1*
X24656Y26035D1*
X24682Y25959D1*
X24703Y25883D1*
X24695Y25807D1*
X24682Y25731D1*
X24671Y25655D1*
X24662Y25579D1*
X27474Y26947D2*
X27398Y26871D1*
X27474Y26795D1*
X27550Y26947D2*
X27626Y26871D1*
X27550Y26795D1*
X15694D2*
X15657Y26719D1*
X15705Y26643D1*
X15771Y26567D1*
X15845Y26491D1*
X15922Y26415D1*
X15998Y26795D2*
X15984Y26719D1*
X15958Y26643D1*
X15922Y26567D1*
X18582Y26871D2*
X18521Y26795D1*
X18477Y26719D1*
X18447Y26643D1*
X18451Y26567D1*
X18512Y26491D1*
X18683Y26415D1*
X18886Y26339D1*
X18810Y26871D2*
X18883Y26795D1*
X18943Y26719D1*
X18988Y26643D1*
X18997Y26567D1*
X18885Y26491D1*
X18715Y26415D1*
X18506Y26339D1*
X24130Y26871D2*
Y26795D1*
Y26719D1*
Y26643D1*
X24206Y26871D2*
X24264Y26795D1*
X24310Y26719D1*
X24306Y26643D1*
X24284Y26567D1*
X24242Y26491D1*
X24174Y26415D1*
X24083Y26339D1*
X23978Y26263D1*
X15770Y26719D2*
X15882Y26643D1*
X15998Y26567D1*
X18202Y26795D2*
Y26719D1*
Y26643D1*
Y26567D1*
Y26491D1*
X18354Y26795D2*
Y26719D1*
Y26643D1*
Y26567D1*
Y26491D1*
X23598Y26719D2*
X23624Y26643D1*
X23647Y26567D1*
X23662Y26491D1*
X23672Y26415D1*
X23688Y26339D1*
X23721Y26263D1*
X23774Y26187D1*
X23850Y26111D1*
X23946Y26035D1*
X24054Y25959D1*
X23674Y26719D2*
X29526Y26795D2*
X29540Y26719D1*
X29596Y26643D1*
X29739Y26567D1*
X29906Y26491D1*
X29830Y26719D2*
X29871Y26643D1*
X29906Y26567D1*
X19114Y26719D2*
Y26643D1*
Y26567D1*
X19266Y26719D2*
Y26643D1*
Y26567D1*
X23902Y26643D2*
X23826Y26567D1*
X23848Y26491D1*
X23823Y26415D1*
X23787Y26339D1*
X23750Y26263D1*
X23902Y26187D1*
X23978Y26719D2*
X24054Y26643D1*
X27170Y26719D2*
X27184Y26643D1*
X27211Y26567D1*
X27246Y26491D1*
X27322Y26719D2*
X27308Y26643D1*
X27282Y26567D1*
X27246Y26491D1*
X25954Y26567D2*
X26004Y26491D1*
X26054Y26415D1*
X26106Y26339D1*
X25897Y26263D1*
X25718Y26187D1*
X25632Y26111D1*
X25601Y26035D1*
X25585Y25959D1*
X25579Y25883D1*
X25576Y25807D1*
X25575Y25731D1*
X25574Y25655D1*
Y25579D1*
X25575Y25503D1*
X25581Y25427D1*
X25594Y25351D1*
X25654Y25275D1*
X25726Y25199D1*
X26030Y26567D2*
X26059Y26491D1*
X26094Y26415D1*
X26136Y26339D1*
X26182Y26263D1*
X26334Y26567D2*
X26305Y26491D1*
X26271Y26415D1*
X26229Y26339D1*
X26182Y26263D1*
X26410Y26567D2*
X26378Y26491D1*
X26354Y26415D1*
X26466Y26339D1*
X26619Y26263D1*
X26763Y26187D1*
X26874Y26111D1*
X26910Y26035D1*
X26929Y25959D1*
X26937Y25883D1*
X26940Y25807D1*
X26942Y25731D1*
Y25655D1*
Y25579D1*
Y25503D1*
X26936Y25427D1*
X26922Y25351D1*
X26863Y25275D1*
X26790Y25199D1*
X27398Y26643D2*
X27439Y26567D1*
X27474Y26491D1*
X24510Y26567D2*
X24446Y26491D1*
X24386Y26415D1*
X24320Y26339D1*
X24238Y26263D1*
X24147Y26187D1*
X24054Y26111D1*
X24130Y26035D1*
X29450Y26567D2*
X29374Y26491D1*
X29298Y26415D1*
X29410Y26339D1*
X29526Y26263D1*
X29602Y26491D2*
X29678Y26415D1*
X29754Y26339D1*
X29678Y26263D1*
X19114Y26491D2*
X19074Y26415D1*
X19038Y26339D1*
X19114Y26491D2*
X19155Y26415D1*
X19190Y26339D1*
X24586Y26415D2*
X24585Y26339D1*
X24582Y26263D1*
X24546Y26187D1*
X24427Y26111D1*
X24282Y26035D1*
X18354Y26415D2*
X18314Y26339D1*
X18278Y26263D1*
X18354Y26415D2*
X18395Y26339D1*
X18430Y26263D1*
X18582D2*
X18506Y26187D1*
X18734Y26111D1*
X18810Y26263D2*
X18886Y26187D1*
X18658Y26111D1*
X18278D2*
X18285Y26035D1*
X18298Y25959D1*
X18358Y25883D1*
X18430Y25807D1*
X25954Y26111D2*
X25893Y26035D1*
X25849Y25959D1*
X25823Y25883D1*
X25811Y25807D1*
X25806Y25731D1*
X25804Y25655D1*
X25803Y25579D1*
X25802Y25503D1*
Y25427D1*
X26866Y26111D2*
Y26035D1*
Y25959D1*
Y25883D1*
Y25807D1*
Y25731D1*
Y25655D1*
Y25579D1*
Y25503D1*
Y25427D1*
X24434Y26035D2*
X24358Y25959D1*
X24510Y26035D2*
Y25959D1*
Y25883D1*
Y25807D1*
Y25731D1*
Y25655D1*
Y25579D1*
X18506Y25959D2*
Y25883D1*
Y25807D1*
X18658Y25959D2*
Y25883D1*
Y25807D1*
X18886Y25959D2*
Y25883D1*
Y25807D1*
X25726Y25883D2*
X25686Y25807D1*
X25650Y25731D1*
X28386D2*
X28349Y25655D1*
X28399Y25579D1*
X28462Y25503D1*
X28332Y25427D1*
X28176Y25351D1*
X28006Y25275D1*
X28462Y25731D2*
X28509Y25655D1*
X28587Y25579D1*
X28704Y25503D1*
X28842Y25427D1*
X21014Y25655D2*
X20979Y25579D1*
X20957Y25503D1*
X20946Y25427D1*
X20941Y25351D1*
X20939Y25275D1*
X20938Y25199D1*
X20929Y25123D1*
X20908Y25047D1*
X20819Y24971D1*
X20710Y24895D1*
X22078Y25655D2*
X22113Y25579D1*
X22135Y25503D1*
X22146Y25427D1*
X22151Y25351D1*
X22153Y25275D1*
X22154Y25199D1*
Y25123D1*
Y25047D1*
X22151Y24971D1*
X22139Y24895D1*
X22111Y24819D1*
X22073Y24743D1*
X22040Y24667D1*
X22020Y24591D1*
X22009Y24515D1*
X22002Y24439D1*
X28082Y25427D2*
X27960Y25351D1*
X27857Y25275D1*
X27813Y25199D1*
X27778Y25123D1*
X28006D1*
X27991Y25047D1*
X27960Y24971D1*
X27913Y24895D1*
X27862Y24819D1*
X27817Y24743D1*
X27803Y24667D1*
X27816Y24591D1*
X27835Y24515D1*
X27854Y24439D1*
X28994Y25503D2*
X28918Y25427D1*
X28842Y25351D1*
X29070Y25275D1*
X28994Y25199D1*
X28918Y25123D1*
X28994Y25047D1*
X29070Y25503D2*
X29131Y25427D1*
X29182Y25351D1*
X29194Y25275D1*
X29157Y25199D1*
X29047Y25123D1*
X28918Y25047D1*
X28082Y25351D2*
X28158Y25275D1*
X28614Y25427D2*
X28480Y25351D1*
X28371Y25275D1*
X28294Y25199D1*
X28234Y25123D1*
X28614Y25427D2*
X28603Y25351D1*
X28565Y25275D1*
X28481Y25199D1*
X28386Y25123D1*
X23370Y25351D2*
X23245Y25275D1*
X23147Y25199D1*
X23077Y25123D1*
X23028Y25047D1*
X22990Y24971D1*
X23218Y25351D2*
X23370Y25275D1*
X23522Y25199D1*
X23674Y25123D1*
X17214Y25199D2*
X17243Y25123D1*
X17279Y25047D1*
X17324Y24971D1*
X17382Y24895D1*
X17445Y24819D1*
X17502Y24743D1*
X17546Y24667D1*
X17543Y24591D1*
X17486Y24515D1*
X17328Y24439D1*
X17138Y24363D1*
X17366Y25199D2*
X17446Y25123D1*
X17541Y25047D1*
X17671Y24971D1*
X17847Y24895D1*
X18050Y24819D1*
X21318Y25275D2*
X21278Y25199D1*
X21242Y25123D1*
X21318Y25275D2*
X21359Y25199D1*
X21394Y25123D1*
X21546Y25275D2*
X21506Y25199D1*
X21470Y25123D1*
X21546Y25275D2*
X21587Y25199D1*
X21622Y25123D1*
X21774Y25275D2*
X21734Y25199D1*
X21698Y25123D1*
X21774Y25275D2*
X21815Y25199D1*
X21850Y25123D1*
X24054Y25275D2*
X24066Y25199D1*
X24085Y25123D1*
X24105Y25047D1*
X24118Y24971D1*
X24125Y24895D1*
X24128Y24819D1*
X24127Y24743D1*
X24117Y24667D1*
X24096Y24591D1*
X24063Y24515D1*
X24014Y24439D1*
X23933Y24363D1*
X23814Y24287D1*
X23674Y24211D1*
X24130Y25275D2*
X24291Y25199D1*
X24445Y25123D1*
X24571Y25047D1*
X24663Y24971D1*
X24683Y24895D1*
X24673Y24819D1*
X24654Y24743D1*
X24622Y24667D1*
X24580Y24591D1*
X24536Y24515D1*
X24494Y24439D1*
X24455Y24363D1*
X24416Y24287D1*
X24375Y24211D1*
X24329Y24135D1*
X24280Y24059D1*
X24231Y23983D1*
X24181Y23907D1*
X24130Y23831D1*
X24080Y23755D1*
X24029Y23679D1*
X23978Y23603D1*
X23927Y23527D1*
X23874Y23451D1*
X23813Y23375D1*
X23745Y23299D1*
X23672Y23223D1*
X23594Y23147D1*
X23506Y23071D1*
X23396Y22995D1*
X23254Y22919D1*
X23072Y22843D1*
X22851Y22767D1*
X22610Y22691D1*
X25878Y25275D2*
X25802Y25199D1*
X26638Y25275D2*
X26714Y25199D1*
X28614D2*
X28591Y25123D1*
X28578Y25047D1*
X28579Y24971D1*
X28581Y24895D1*
X28574Y24819D1*
X28535Y24743D1*
X28484Y24667D1*
X28427Y24591D1*
X28369Y24515D1*
X28310Y24439D1*
X28766Y25275D2*
X28773Y25199D1*
X28788Y25123D1*
X28863Y25047D1*
X28957Y24971D1*
X29043Y24895D1*
X29115Y24819D1*
X29038Y24743D1*
X28940Y24667D1*
X28818Y24591D1*
X28681Y24515D1*
X28538Y24439D1*
X23370Y25123D2*
X23294Y25047D1*
X23446Y24971D1*
X23218Y24895D1*
X18430Y25047D2*
X18506Y24971D1*
X18278Y24895D1*
X18582Y25047D2*
X19038Y24971D1*
X18933Y24895D1*
X18787Y24819D1*
X18618Y24743D1*
X18449Y24667D1*
X18286Y24591D1*
X18126Y24515D1*
X18202Y24439D1*
X18050Y24971D2*
X17903Y24895D1*
X17746Y24819D1*
X18126Y24971D2*
X18202Y24895D1*
X23902Y25047D2*
X23704Y24971D1*
X23543Y24895D1*
X23414Y24819D1*
X23355Y24743D1*
X23345Y24667D1*
X23372Y24591D1*
X23412Y24515D1*
X23500Y24439D1*
X23598Y24363D1*
X23750Y25047D2*
X23808Y24971D1*
X23851Y24895D1*
X23839Y24819D1*
X23785Y24743D1*
X23732Y24667D1*
X23684Y24591D1*
X23625Y24515D1*
X23543Y24439D1*
X23446Y24363D1*
X28158Y25047D2*
X28082Y24971D1*
X28158Y24895D1*
X28234Y25047D2*
X28310Y24971D1*
X28234Y24895D1*
X24966Y24971D2*
X24902Y24895D1*
X24848Y24819D1*
X24801Y24743D1*
X24760Y24667D1*
X24720Y24591D1*
X24679Y24515D1*
X24633Y24439D1*
X24584Y24363D1*
X24538Y24287D1*
X24495Y24211D1*
X24452Y24135D1*
X24406Y24059D1*
X24356Y23983D1*
X24307Y23907D1*
X24257Y23831D1*
X24206Y23755D1*
X24155Y23679D1*
X24102Y23603D1*
X24041Y23527D1*
X23976Y23451D1*
X23913Y23375D1*
X23856Y23299D1*
X23800Y23223D1*
X23737Y23147D1*
X23666Y23071D1*
X23583Y22995D1*
X23487Y22919D1*
X23377Y22843D1*
X23245Y22767D1*
X23087Y22691D1*
X22914Y22615D1*
X24814Y24971D2*
X25043Y24895D1*
X25274Y24819D1*
X25514Y24743D1*
X25770Y24667D1*
X26043Y24591D1*
X26341Y24515D1*
X26697Y24439D1*
X27137Y24363D1*
X27626Y24287D1*
X20634Y24819D2*
X20698Y24743D1*
X20752Y24667D1*
X20796Y24591D1*
X20831Y24515D1*
X20859Y24439D1*
X20890Y24363D1*
X20926Y24287D1*
X20969Y24211D1*
X21017Y24135D1*
X21066Y24059D1*
X21118Y23983D1*
X21177Y23907D1*
X21235Y23831D1*
X21290Y23755D1*
X21345Y23679D1*
X21407Y23603D1*
X21476Y23527D1*
X21548Y23451D1*
X21623Y23375D1*
X21702Y23299D1*
X21787Y23223D1*
X21882Y23147D1*
X21987Y23071D1*
X22120Y22995D1*
X22318Y22919D1*
X22595Y22843D1*
X22914Y22767D1*
X20406Y24819D2*
X20936Y24743D1*
X21345Y24667D1*
X21615Y24591D1*
X21789Y24515D1*
X21926Y24439D1*
X28006Y24819D2*
X27947Y24743D1*
X27906Y24667D1*
X27878Y24591D1*
X28048Y24515D1*
X28234Y24439D1*
X28082Y24819D2*
X28085Y24743D1*
X28097Y24667D1*
X28123Y24591D1*
X28158Y24515D1*
X20634Y24743D2*
X20330Y24667D1*
X20022Y24591D1*
X19702Y24515D1*
X19359Y24439D1*
X19014Y24363D1*
X18706Y24287D1*
X18430Y24211D1*
X18534Y24135D1*
X18664Y24059D1*
X18810Y23983D1*
X20634Y24743D2*
X20646Y24667D1*
X20665Y24591D1*
X20688Y24515D1*
X20711Y24439D1*
X20739Y24363D1*
X20771Y24287D1*
X20807Y24211D1*
X20847Y24135D1*
X20891Y24059D1*
X20941Y23983D1*
X20990Y23907D1*
X21042Y23831D1*
X21101Y23755D1*
X21159Y23679D1*
X21214Y23603D1*
X21269Y23527D1*
X21331Y23451D1*
X21400Y23375D1*
X21472Y23299D1*
X21547Y23223D1*
X21626Y23147D1*
X21711Y23071D1*
X21809Y22995D1*
X21920Y22919D1*
X22053Y22843D1*
X22216Y22767D1*
X22407Y22691D1*
X22610Y22615D1*
X28386Y24667D2*
X28268Y24591D1*
X28112Y24515D1*
X27930Y24439D1*
X22306Y24287D2*
X22277Y24211D1*
X22245Y24135D1*
X22212Y24059D1*
X22183Y23983D1*
X22156Y23907D1*
X22129Y23831D1*
X22103Y23755D1*
X22079Y23679D1*
X22056Y23603D1*
X22038Y23527D1*
X22052Y23451D1*
X22102Y23375D1*
X22164Y23299D1*
X22230Y23223D1*
X22190Y23147D1*
X22154Y23071D1*
X22534Y24287D2*
X22724Y24211D1*
X22914Y24135D1*
X23084Y24059D1*
X23213Y23983D1*
X23308Y23907D1*
X23337Y23831D1*
X23329Y23755D1*
X23313Y23679D1*
X23292Y23603D1*
X23265Y23527D1*
X23233Y23451D1*
X23200Y23375D1*
X23169Y23299D1*
X23132Y23223D1*
X23081Y23147D1*
X22974Y23071D1*
X22876Y22995D1*
X22803Y22919D1*
X22743Y22843D1*
X22686Y22767D1*
X22762Y22691D1*
X17898Y24287D2*
X17834Y24211D1*
X17780Y24135D1*
X17733Y24059D1*
X17692Y23983D1*
X17655Y23907D1*
X17624Y23831D1*
X17597Y23755D1*
X17570Y23679D1*
X17546Y23603D1*
X17530Y23527D1*
X17518Y23451D1*
X17974Y24287D2*
X18050Y24211D1*
X18126Y24135D1*
X18202Y24059D1*
X18275Y23983D1*
X18338Y23907D1*
X18389Y23831D1*
X18405Y23755D1*
X18396Y23679D1*
X18392Y23603D1*
X18405Y23527D1*
X18430Y23451D1*
X25042Y24211D2*
X25007Y24135D1*
X24985Y24059D1*
X24974Y23983D1*
X24969Y23907D1*
X24967Y23831D1*
Y23755D1*
X24966Y23679D1*
Y23603D1*
Y23527D1*
X24967Y23451D1*
X24969Y23375D1*
X24981Y23299D1*
X25007Y23223D1*
X25042Y23147D1*
X26486Y24211D2*
X26521Y24135D1*
X26543Y24059D1*
X26554Y23983D1*
X26559Y23907D1*
X26561Y23831D1*
X26562Y23755D1*
Y23679D1*
Y23603D1*
Y23527D1*
Y23451D1*
X26559Y23375D1*
X26547Y23299D1*
X26521Y23223D1*
X26486Y23147D1*
X18810Y24059D2*
X18734Y23983D1*
X18962Y24059D2*
X19038Y23983D1*
X18934Y23907D1*
X18828Y23831D1*
X18729Y23755D1*
X18644Y23679D1*
X18571Y23603D1*
X18501Y23527D1*
X18430Y23451D1*
X25118Y24135D2*
X25197Y24059D1*
X25283Y23983D1*
X25378Y23907D1*
X25479Y23831D1*
X25592Y23755D1*
X25727Y23679D1*
X25878Y23603D1*
X26334Y24135D2*
X26258Y24059D1*
X26182Y23983D1*
X26106Y23907D1*
X26024Y23831D1*
X25924Y23755D1*
X25796Y23679D1*
X25650Y23603D1*
X22914Y24059D2*
X22874Y23983D1*
X22838Y23907D1*
X22914Y24059D2*
X22955Y23983D1*
X22990Y23907D1*
X22306Y23983D2*
X22307Y23907D1*
X22316Y23831D1*
X22337Y23755D1*
X22440Y23679D1*
X22584Y23603D1*
X22757Y23527D1*
X22945Y23451D1*
X23142Y23375D1*
X22534Y23983D2*
X22695Y23907D1*
X22849Y23831D1*
X22975Y23755D1*
X23067Y23679D1*
X23086Y23603D1*
X23066Y23527D1*
X23032Y23451D1*
X22990Y23375D1*
X25042Y23983D2*
Y23907D1*
Y23831D1*
Y23755D1*
Y23679D1*
X25043Y23603D1*
X25045Y23527D1*
X25057Y23451D1*
X25083Y23375D1*
X25118Y23299D1*
Y23983D2*
X25194Y23907D1*
X25267Y23831D1*
X25327Y23755D1*
X25372Y23679D1*
X25367Y23603D1*
X25316Y23527D1*
X25244Y23451D1*
X25149Y23375D1*
X25042Y23299D1*
X26410Y23983D2*
X26322Y23907D1*
X26227Y23831D1*
X26128Y23755D1*
X26030Y23679D1*
X26107Y23603D1*
X26185Y23527D1*
X26273Y23451D1*
X26375Y23375D1*
X26486Y23299D1*
Y23983D2*
Y23907D1*
Y23831D1*
Y23755D1*
Y23679D1*
Y23603D1*
X26483Y23527D1*
X26471Y23451D1*
X26445Y23375D1*
X26410Y23299D1*
X22306Y23603D2*
X22266Y23527D1*
X22230Y23451D1*
X22306Y23603D2*
X22347Y23527D1*
X22382Y23451D1*
X25498Y23527D2*
X25422Y23451D1*
X25346Y23375D1*
X25270Y23299D1*
X25194Y23223D1*
X25650Y23527D2*
X25726Y23451D1*
X25878Y23527D2*
X25802Y23451D1*
X25954Y23527D2*
X26045Y23451D1*
X26152Y23375D1*
X26277Y23299D1*
X26410Y23223D1*
X22838Y23375D2*
X22798Y23299D1*
X22762Y23223D1*
X22838Y23375D2*
X22879Y23299D1*
X22914Y23223D1*
X22230Y23147D2*
X22154Y23071D1*
X22078Y22995D1*
X22304Y22919D1*
X22591Y22843D1*
X22914Y22767D1*
X22230Y23223D2*
X22413Y23147D1*
X22568Y23071D1*
X22636Y22995D1*
X22667Y22919D1*
X22606Y22843D1*
X22534Y22767D1*
X15846Y21779D2*
Y21703D1*
Y21627D1*
Y21551D1*
X16074D1*
Y21475D1*
Y21399D1*
Y21323D1*
Y21247D1*
Y21171D1*
Y21095D1*
X15846D1*
Y21019D1*
Y20943D1*
Y20867D1*
X16074D1*
Y20791D1*
Y20715D1*
Y20639D1*
Y20563D1*
Y20487D1*
Y20411D1*
Y20335D1*
X16226Y21779D2*
Y21703D1*
Y21627D1*
Y21551D1*
Y21475D1*
Y21399D1*
Y21323D1*
Y21247D1*
Y21171D1*
Y21095D1*
Y21019D1*
Y20943D1*
Y20867D1*
Y20791D1*
Y20715D1*
Y20639D1*
Y20563D1*
Y20487D1*
Y20411D1*
Y20335D1*
X16530Y21779D2*
X16469Y21703D1*
X16425Y21627D1*
X16399Y21551D1*
X16387Y21475D1*
X16382Y21399D1*
X16380Y21323D1*
X16379Y21247D1*
X16378Y21171D1*
Y21095D1*
Y21019D1*
Y20943D1*
Y20867D1*
Y20791D1*
X16379Y20715D1*
X16381Y20639D1*
X16391Y20563D1*
X16409Y20487D1*
X16424Y20411D1*
X16429Y20335D1*
X16371Y20259D1*
X16200Y20183D1*
X15998Y20107D1*
X16758Y21779D2*
X16819Y21703D1*
X16864Y21627D1*
X16889Y21551D1*
X16902Y21475D1*
X16907Y21399D1*
X16909Y21323D1*
X16910Y21247D1*
Y21171D1*
Y21095D1*
Y21019D1*
Y20943D1*
Y20867D1*
Y20791D1*
Y20715D1*
X16907Y20639D1*
X16897Y20563D1*
X16873Y20487D1*
X16835Y20411D1*
X16784Y20335D1*
X16731Y20259D1*
X16682Y20183D1*
X17290Y21779D2*
Y21703D1*
Y21627D1*
Y21551D1*
X17594D1*
Y21475D1*
Y21399D1*
Y21323D1*
Y21247D1*
Y21171D1*
X17290D1*
Y21095D1*
Y21019D1*
Y20943D1*
X17594D1*
Y20867D1*
Y20791D1*
Y20715D1*
Y20639D1*
Y20563D1*
Y20487D1*
X17290D1*
Y20411D1*
Y20335D1*
X17746Y21779D2*
X17749Y21703D1*
X17761Y21627D1*
X17787Y21551D1*
X17822Y21475D1*
X17974Y21779D2*
X17936Y21703D1*
X17902Y21627D1*
X17865Y21551D1*
X17822Y21475D1*
X18354Y21779D2*
Y21703D1*
Y21627D1*
Y21551D1*
Y21475D1*
Y21399D1*
Y21323D1*
Y21247D1*
Y21171D1*
Y21095D1*
Y21019D1*
Y20943D1*
Y20867D1*
Y20791D1*
Y20715D1*
Y20639D1*
Y20563D1*
Y20487D1*
Y20411D1*
Y20335D1*
X18658Y21779D2*
X18632Y21703D1*
X18610Y21627D1*
X18595Y21551D1*
X18588Y21475D1*
X18584Y21399D1*
X18583Y21323D1*
Y21247D1*
X18582Y21171D1*
X18579Y21095D1*
X18570Y21019D1*
X18551Y20943D1*
X18532Y20867D1*
X18519Y20791D1*
X18512Y20715D1*
X18508Y20639D1*
X18507Y20563D1*
Y20487D1*
X18506Y20411D1*
Y20335D1*
X18886Y21779D2*
X18898Y21703D1*
X18917Y21627D1*
X18937Y21551D1*
X18950Y21475D1*
X18957Y21399D1*
X18960Y21323D1*
X18961Y21247D1*
X18962Y21171D1*
X18965Y21095D1*
X18975Y21019D1*
X18993Y20943D1*
X19013Y20867D1*
X19026Y20791D1*
X19033Y20715D1*
X19036Y20639D1*
X19037Y20563D1*
X19038Y20487D1*
Y20411D1*
Y20335D1*
X19190Y21779D2*
Y21703D1*
Y21627D1*
Y21551D1*
Y21475D1*
Y21399D1*
Y21323D1*
Y21247D1*
Y21171D1*
Y21095D1*
Y21019D1*
Y20943D1*
Y20867D1*
Y20791D1*
Y20715D1*
Y20639D1*
Y20563D1*
Y20487D1*
Y20411D1*
Y20335D1*
X19418Y21779D2*
X19430Y21703D1*
X19449Y21627D1*
X19469Y21551D1*
X19485Y21475D1*
X19504Y21399D1*
X19533Y21323D1*
X19570Y21247D1*
X19722Y21779D2*
X19687Y21703D1*
X19665Y21627D1*
X19654Y21551D1*
X19646Y21475D1*
X19633Y21399D1*
X19606Y21323D1*
X19570Y21247D1*
X19950Y21779D2*
Y21703D1*
Y21627D1*
Y21551D1*
Y21475D1*
Y21399D1*
Y21323D1*
Y21247D1*
Y21171D1*
Y21095D1*
Y21019D1*
Y20943D1*
Y20867D1*
Y20791D1*
Y20715D1*
Y20639D1*
Y20563D1*
Y20487D1*
Y20411D1*
Y20335D1*
X20406Y21779D2*
X20380Y21703D1*
X20358Y21627D1*
X20343Y21551D1*
X20336Y21475D1*
X20332Y21399D1*
X20330Y21323D1*
X20710Y21779D2*
X20760Y21703D1*
X20810Y21627D1*
X20862Y21551D1*
X20938Y21779D2*
X20924Y21703D1*
X20898Y21627D1*
X20862Y21551D1*
X21090Y21779D2*
Y21703D1*
Y21627D1*
Y21551D1*
Y21475D1*
Y21399D1*
Y21323D1*
Y21247D1*
Y21171D1*
Y21095D1*
Y21019D1*
Y20943D1*
Y20867D1*
Y20791D1*
Y20715D1*
Y20639D1*
Y20563D1*
Y20487D1*
Y20411D1*
Y20335D1*
X21622Y21779D2*
X21587Y21703D1*
X21565Y21627D1*
X21554Y21551D1*
X21549Y21475D1*
X21547Y21399D1*
Y21323D1*
X21546Y21247D1*
Y21171D1*
Y21095D1*
Y21019D1*
Y20943D1*
Y20867D1*
Y20791D1*
Y20715D1*
X21547Y20639D1*
X21549Y20563D1*
X21561Y20487D1*
X21587Y20411D1*
X21622Y20335D1*
X22078Y21779D2*
Y21703D1*
Y21627D1*
Y21551D1*
Y21475D1*
Y21399D1*
Y21323D1*
Y21247D1*
Y21171D1*
Y21095D1*
Y21019D1*
Y20943D1*
Y20867D1*
X22079Y20791D1*
X22083Y20715D1*
X22119Y20639D1*
X22237Y20563D1*
X22382Y20487D1*
X22458Y21779D2*
Y21703D1*
Y21627D1*
Y21551D1*
Y21475D1*
Y21399D1*
Y21323D1*
Y21247D1*
Y21171D1*
Y21095D1*
Y21019D1*
Y20943D1*
Y20867D1*
X22457Y20791D1*
X22454Y20715D1*
X22418Y20639D1*
X22299Y20563D1*
X22154Y20487D1*
X22610Y21779D2*
X22646Y21703D1*
X22686Y21627D1*
X22838Y21779D2*
X22727Y21703D1*
X22610Y21627D1*
X23218Y21779D2*
Y21703D1*
Y21627D1*
Y21551D1*
Y21475D1*
Y21399D1*
Y21323D1*
Y21247D1*
Y21171D1*
Y21095D1*
Y21019D1*
Y20943D1*
Y20867D1*
Y20791D1*
Y20715D1*
Y20639D1*
Y20563D1*
Y20487D1*
Y20411D1*
Y20335D1*
X23446Y21779D2*
X23411Y21703D1*
X23389Y21627D1*
X23378Y21551D1*
X23373Y21475D1*
X23371Y21399D1*
Y21323D1*
X23370Y21247D1*
Y21171D1*
Y21095D1*
Y21019D1*
Y20943D1*
Y20867D1*
Y20791D1*
Y20715D1*
X23371Y20639D1*
X23373Y20563D1*
X23385Y20487D1*
X23411Y20411D1*
X23446Y20335D1*
X23750Y21779D2*
X23902D2*
X24054D2*
X24089Y21703D1*
X24111Y21627D1*
X24122Y21551D1*
X24127Y21475D1*
X24132Y21399D1*
X24145Y21323D1*
X24171Y21247D1*
X24206Y21171D1*
X24282Y21779D2*
Y21703D1*
Y21627D1*
Y21551D1*
Y21475D1*
X24279Y21399D1*
X24267Y21323D1*
X24241Y21247D1*
X24206Y21171D1*
X24434Y21779D2*
X24469Y21703D1*
X24491Y21627D1*
X24502Y21551D1*
X24507Y21475D1*
X24509Y21399D1*
X24510Y21323D1*
Y21247D1*
X24513Y21171D1*
X24525Y21095D1*
X24551Y21019D1*
X24586Y20943D1*
X24662Y21779D2*
Y21703D1*
Y21627D1*
Y21551D1*
Y21475D1*
Y21399D1*
Y21323D1*
Y21247D1*
X24659Y21171D1*
X24647Y21095D1*
X24621Y21019D1*
X24586Y20943D1*
X24890Y21779D2*
X24864Y21703D1*
X24842Y21627D1*
X24827Y21551D1*
X24820Y21475D1*
X24816Y21399D1*
X24815Y21323D1*
Y21247D1*
X24814Y21171D1*
Y21095D1*
X24811Y21019D1*
X24802Y20943D1*
X24783Y20867D1*
X24764Y20791D1*
X24751Y20715D1*
X24744Y20639D1*
X24740Y20563D1*
X24739Y20487D1*
Y20411D1*
X24738Y20335D1*
X25194Y21779D2*
Y21703D1*
Y21627D1*
Y21551D1*
X25498D1*
Y21475D1*
Y21399D1*
Y21323D1*
Y21247D1*
Y21171D1*
X25194D1*
Y21095D1*
Y21019D1*
Y20943D1*
X25498D1*
Y20867D1*
Y20791D1*
Y20715D1*
Y20639D1*
Y20563D1*
Y20487D1*
X25194D1*
Y20411D1*
Y20335D1*
X25650Y21779D2*
Y21703D1*
Y21627D1*
Y21551D1*
Y21475D1*
Y21399D1*
Y21323D1*
Y21247D1*
Y21171D1*
Y21095D1*
Y21019D1*
Y20943D1*
Y20867D1*
Y20791D1*
Y20715D1*
Y20639D1*
Y20563D1*
Y20487D1*
Y20411D1*
Y20335D1*
X25802Y21779D2*
Y21703D1*
Y21627D1*
Y21551D1*
Y21475D1*
Y21399D1*
Y21323D1*
Y21247D1*
Y21171D1*
Y21095D1*
Y21019D1*
Y20943D1*
Y20867D1*
Y20791D1*
Y20715D1*
Y20639D1*
Y20563D1*
Y20487D1*
Y20411D1*
Y20335D1*
X25954Y21779D2*
Y21703D1*
Y21627D1*
Y21551D1*
X25955Y21475D1*
X25961Y21399D1*
X25974Y21323D1*
X26034Y21247D1*
X26106Y21171D1*
X26182Y21779D2*
Y21703D1*
Y21627D1*
Y21551D1*
Y21475D1*
X26176Y21399D1*
X26162Y21323D1*
X26103Y21247D1*
X26030Y21171D1*
X26942Y21779D2*
X26919Y21703D1*
X26881Y21627D1*
X26842Y21551D1*
X26815Y21475D1*
X26801Y21399D1*
X26795Y21323D1*
X26792Y21247D1*
X26791Y21171D1*
X26790Y21095D1*
Y21019D1*
Y20943D1*
Y20867D1*
Y20791D1*
Y20715D1*
Y20639D1*
Y20563D1*
Y20487D1*
Y20411D1*
Y20335D1*
X27322Y21779D2*
X27346Y21703D1*
X27383Y21627D1*
X27423Y21551D1*
X27449Y21475D1*
X27464Y21399D1*
X27470Y21323D1*
X27473Y21247D1*
X27474Y21171D1*
Y21095D1*
Y21019D1*
Y20943D1*
Y20867D1*
Y20791D1*
Y20715D1*
Y20639D1*
Y20563D1*
Y20487D1*
Y20411D1*
Y20335D1*
X27778Y21779D2*
X27755Y21703D1*
X27717Y21627D1*
X27678Y21551D1*
X27651Y21475D1*
X27637Y21399D1*
X27631Y21323D1*
X27628Y21247D1*
X27627Y21171D1*
X27626Y21095D1*
Y21019D1*
Y20943D1*
Y20867D1*
Y20791D1*
Y20715D1*
Y20639D1*
Y20563D1*
Y20487D1*
Y20411D1*
Y20335D1*
X27930Y21779D2*
Y21703D1*
Y21627D1*
X27927Y21551D1*
X27918Y21475D1*
X27899Y21399D1*
X27880Y21323D1*
X27867Y21247D1*
X27860Y21171D1*
X27856Y21095D1*
X27855Y21019D1*
Y20943D1*
X27854Y20867D1*
X27851Y20791D1*
X27842Y20715D1*
X27823Y20639D1*
X27804Y20563D1*
X27791Y20487D1*
X27783Y20411D1*
X27778Y20335D1*
X28234Y21779D2*
Y21703D1*
Y21627D1*
Y21551D1*
Y21475D1*
X28235Y21399D1*
X28237Y21323D1*
X28247Y21247D1*
X28265Y21171D1*
X28285Y21095D1*
X28298Y21019D1*
X28305Y20943D1*
X28308Y20867D1*
X28309Y20791D1*
X28310Y20715D1*
Y20639D1*
Y20563D1*
Y20487D1*
Y20411D1*
Y20335D1*
X28462Y21779D2*
Y21703D1*
Y21627D1*
Y21551D1*
Y21475D1*
Y21399D1*
Y21323D1*
Y21247D1*
Y21171D1*
Y21095D1*
Y21019D1*
Y20943D1*
Y20867D1*
Y20791D1*
Y20715D1*
Y20639D1*
Y20563D1*
Y20487D1*
Y20411D1*
Y20335D1*
X28614Y21779D2*
Y21703D1*
Y21627D1*
Y21551D1*
X28615Y21475D1*
X28621Y21399D1*
X28634Y21323D1*
X28694Y21247D1*
X28766Y21171D1*
X28842Y21779D2*
Y21703D1*
Y21627D1*
Y21551D1*
Y21475D1*
X28836Y21399D1*
X28822Y21323D1*
X28763Y21247D1*
X28690Y21171D1*
X28994Y21779D2*
Y21703D1*
Y21627D1*
Y21551D1*
Y21475D1*
Y21399D1*
Y21323D1*
Y21247D1*
Y21171D1*
Y21095D1*
Y21019D1*
Y20943D1*
Y20867D1*
Y20791D1*
Y20715D1*
Y20639D1*
Y20563D1*
Y20487D1*
Y20411D1*
Y20335D1*
X29146Y21779D2*
Y21703D1*
Y21627D1*
Y21551D1*
Y21475D1*
Y21399D1*
Y21323D1*
Y21247D1*
Y21171D1*
X29147Y21095D1*
X29149Y21019D1*
X29159Y20943D1*
X29177Y20867D1*
X29197Y20791D1*
X29210Y20715D1*
X29217Y20639D1*
X29220Y20563D1*
X29221Y20487D1*
X29222Y20411D1*
Y20335D1*
X29298Y21779D2*
Y21703D1*
Y21627D1*
Y21551D1*
Y21475D1*
X29299Y21399D1*
X29301Y21323D1*
X29313Y21247D1*
X29339Y21171D1*
X29374Y21095D1*
X29526Y21779D2*
X29491Y21703D1*
X29469Y21627D1*
X29458Y21551D1*
X29453Y21475D1*
X29451Y21399D1*
X29448Y21323D1*
X29435Y21247D1*
X29409Y21171D1*
X29374Y21095D1*
X29602Y21779D2*
X29637Y21703D1*
X29659Y21627D1*
X29670Y21551D1*
X29675Y21475D1*
X29677Y21399D1*
X29678Y21323D1*
X29681Y21247D1*
X29693Y21171D1*
X29719Y21095D1*
X29754Y21019D1*
X29830Y21779D2*
Y21703D1*
Y21627D1*
Y21551D1*
Y21475D1*
Y21399D1*
Y21323D1*
X29827Y21247D1*
X29815Y21171D1*
X29789Y21095D1*
X29754Y21019D1*
X29982Y21779D2*
Y21703D1*
Y21627D1*
Y21551D1*
Y21475D1*
Y21399D1*
Y21323D1*
Y21247D1*
Y21171D1*
Y21095D1*
Y21019D1*
X29979Y20943D1*
X29970Y20867D1*
X29951Y20791D1*
X29932Y20715D1*
X29919Y20639D1*
X29912Y20563D1*
X29908Y20487D1*
X29907Y20411D1*
X29906Y20335D1*
X23826Y21703D2*
X23840Y21627D1*
X23867Y21551D1*
X23902Y21475D1*
X23978Y21703D2*
X23964Y21627D1*
X23938Y21551D1*
X23902Y21475D1*
X16530Y21627D2*
Y21551D1*
Y21475D1*
Y21399D1*
Y21323D1*
Y21247D1*
Y21171D1*
Y21095D1*
Y21019D1*
Y20943D1*
Y20867D1*
X16531Y20791D1*
X16537Y20715D1*
X16550Y20639D1*
X16610Y20563D1*
X16682Y20487D1*
X16606Y21627D2*
X16667Y21551D1*
X16712Y21475D1*
X16737Y21399D1*
X16750Y21323D1*
X16755Y21247D1*
X16757Y21171D1*
X16758Y21095D1*
Y21019D1*
Y20943D1*
Y20867D1*
Y20791D1*
X16752Y20715D1*
X16738Y20639D1*
X16679Y20563D1*
X16606Y20487D1*
X18050Y21627D2*
Y21551D1*
Y21475D1*
Y21399D1*
Y21323D1*
Y21247D1*
Y21171D1*
Y21095D1*
Y21019D1*
Y20943D1*
Y20867D1*
X18051Y20791D1*
X18057Y20715D1*
X18070Y20639D1*
X18130Y20563D1*
X18202Y20487D1*
X18278Y21627D2*
Y21551D1*
Y21475D1*
Y21399D1*
Y21323D1*
Y21247D1*
Y21171D1*
Y21095D1*
Y21019D1*
Y20943D1*
Y20867D1*
Y20791D1*
X18272Y20715D1*
X18258Y20639D1*
X18199Y20563D1*
X18126Y20487D1*
X20482Y21627D2*
Y21551D1*
Y21475D1*
Y21399D1*
Y21323D1*
X20558Y21627D2*
X20619Y21551D1*
X20670Y21475D1*
X20684Y21399D1*
X20664Y21323D1*
X20600Y21247D1*
X20521Y21171D1*
X20444Y21095D1*
X20379Y21019D1*
X20354Y20943D1*
X20340Y20867D1*
X20334Y20791D1*
X20332Y20715D1*
X20331Y20639D1*
X20334Y20563D1*
X20345Y20487D1*
X20371Y20411D1*
X20406Y20335D1*
X21698Y21627D2*
Y21551D1*
Y21475D1*
Y21399D1*
Y21323D1*
Y21247D1*
Y21171D1*
Y21095D1*
Y21019D1*
Y20943D1*
Y20867D1*
X21699Y20791D1*
X21705Y20715D1*
X21718Y20639D1*
X21778Y20563D1*
X21850Y20487D1*
X21926Y21627D2*
Y21551D1*
Y21475D1*
Y21399D1*
Y21323D1*
Y21247D1*
Y21171D1*
Y21095D1*
Y21019D1*
Y20943D1*
Y20867D1*
Y20791D1*
X21920Y20715D1*
X21906Y20639D1*
X21847Y20563D1*
X21774Y20487D1*
X22990Y21627D2*
X22929Y21551D1*
X22885Y21475D1*
X22855Y21399D1*
X22856Y21323D1*
X22890Y21247D1*
X22972Y21171D1*
X23066Y21095D1*
Y21627D2*
Y21551D1*
Y21475D1*
Y21399D1*
X23063Y21323D1*
X23051Y21247D1*
X23025Y21171D1*
X22990Y21095D1*
X23522Y21627D2*
Y21551D1*
Y21475D1*
Y21399D1*
Y21323D1*
Y21247D1*
Y21171D1*
Y21095D1*
Y21019D1*
Y20943D1*
Y20867D1*
X23523Y20791D1*
X23525Y20715D1*
X23537Y20639D1*
X23563Y20563D1*
X23598Y20487D1*
X23674Y21627D2*
X23677Y21551D1*
X23687Y21475D1*
X23705Y21399D1*
X23725Y21323D1*
X23738Y21247D1*
X23745Y21171D1*
X23748Y21095D1*
X23749Y21019D1*
X23747Y20943D1*
X23738Y20867D1*
X23719Y20791D1*
X23697Y20715D1*
X23672Y20639D1*
X23638Y20563D1*
X23598Y20487D1*
X26334Y21627D2*
Y21551D1*
Y21475D1*
Y21399D1*
Y21323D1*
Y21247D1*
Y21171D1*
Y21095D1*
Y21019D1*
Y20943D1*
Y20867D1*
Y20791D1*
Y20715D1*
Y20639D1*
Y20563D1*
Y20487D1*
Y20411D1*
Y20335D1*
X26638Y21627D2*
Y21551D1*
Y21475D1*
Y21399D1*
Y21323D1*
Y21247D1*
Y21171D1*
Y21095D1*
Y21019D1*
Y20943D1*
Y20867D1*
Y20791D1*
Y20715D1*
Y20639D1*
Y20563D1*
Y20487D1*
Y20411D1*
Y20335D1*
X20786Y21323D2*
X20783Y21247D1*
X20775Y21171D1*
X20729Y21095D1*
X20662Y21019D1*
X20591Y20943D1*
X20530Y20867D1*
X20506Y20791D1*
X20492Y20715D1*
X20505Y20639D1*
X20563Y20563D1*
X20634Y20487D1*
X20938Y21323D2*
Y21247D1*
Y21171D1*
Y21095D1*
Y21019D1*
Y20943D1*
X20935Y20867D1*
X20923Y20791D1*
X20897Y20715D1*
X20862Y20639D1*
X28006Y21171D2*
X28009Y21095D1*
X28021Y21019D1*
X28047Y20943D1*
X28082Y20867D1*
X28158Y21171D2*
X28155Y21095D1*
X28143Y21019D1*
X28117Y20943D1*
X28082Y20867D1*
X19266Y21095D2*
Y21019D1*
Y20943D1*
Y20867D1*
Y20791D1*
Y20715D1*
Y20639D1*
Y20563D1*
Y20487D1*
Y20411D1*
Y20335D1*
X19418Y21095D2*
Y21019D1*
X19419Y20943D1*
X19421Y20867D1*
X19431Y20791D1*
X19449Y20715D1*
X19469Y20639D1*
X19482Y20563D1*
X19489Y20487D1*
X19492Y20411D1*
X19494Y20335D1*
X22610Y21095D2*
X22613Y21019D1*
X22625Y20943D1*
X22651Y20867D1*
X22686Y20791D1*
X22762Y21095D2*
X22759Y21019D1*
X22747Y20943D1*
X22721Y20867D1*
X22686Y20791D1*
X25954Y21019D2*
Y20943D1*
Y20867D1*
Y20791D1*
Y20715D1*
Y20639D1*
Y20563D1*
Y20487D1*
Y20411D1*
Y20335D1*
X26182Y21019D2*
Y20943D1*
Y20867D1*
Y20791D1*
Y20715D1*
Y20639D1*
Y20563D1*
Y20487D1*
Y20411D1*
Y20335D1*
X28614Y21019D2*
Y20943D1*
Y20867D1*
Y20791D1*
Y20715D1*
Y20639D1*
Y20563D1*
Y20487D1*
Y20411D1*
Y20335D1*
X28842Y21019D2*
Y20943D1*
Y20867D1*
Y20791D1*
Y20715D1*
Y20639D1*
Y20563D1*
Y20487D1*
Y20411D1*
Y20335D1*
X22914Y20943D2*
Y20867D1*
X22911Y20791D1*
X22902Y20715D1*
X22883Y20639D1*
X22864Y20563D1*
X22851Y20487D1*
X22843Y20411D1*
X22838Y20335D1*
X23066Y20943D2*
Y20867D1*
Y20791D1*
Y20715D1*
Y20639D1*
Y20563D1*
Y20487D1*
Y20411D1*
Y20335D1*
X19646Y20867D2*
Y20791D1*
Y20715D1*
X19643Y20639D1*
X19634Y20563D1*
X19615Y20487D1*
X19592Y20411D1*
X19570Y20335D1*
X19798Y20867D2*
Y20791D1*
Y20715D1*
Y20639D1*
Y20563D1*
Y20487D1*
Y20411D1*
Y20335D1*
X20710Y20791D2*
X20704Y20715D1*
X20690Y20639D1*
X20631Y20563D1*
X20558Y20487D1*
X20786Y20791D2*
X20822Y20715D1*
X20862Y20639D1*
X18658Y20715D2*
Y20639D1*
Y20563D1*
Y20487D1*
Y20411D1*
Y20335D1*
X18886Y20715D2*
Y20639D1*
Y20563D1*
Y20487D1*
Y20411D1*
Y20335D1*
X23902Y20715D2*
X23890Y20639D1*
X23868Y20563D1*
X23837Y20487D1*
X23796Y20411D1*
X23750Y20335D1*
X24054Y20715D2*
Y20639D1*
Y20563D1*
Y20487D1*
Y20411D1*
Y20335D1*
X24282Y20715D2*
Y20639D1*
Y20563D1*
Y20487D1*
Y20411D1*
Y20335D1*
X24358Y20715D2*
X24419Y20639D1*
X24464Y20563D1*
X24489Y20487D1*
X24502Y20411D1*
X24510Y20335D1*
X28006Y20715D2*
Y20639D1*
X28003Y20563D1*
X27991Y20487D1*
X27965Y20411D1*
X27930Y20335D1*
X28158Y20715D2*
Y20639D1*
Y20563D1*
Y20487D1*
Y20411D1*
Y20335D1*
X29602Y20715D2*
X29541Y20639D1*
X29497Y20563D1*
X29471Y20487D1*
X29458Y20411D1*
X29450Y20335D1*
X29678Y20715D2*
Y20639D1*
Y20563D1*
Y20487D1*
Y20411D1*
Y20335D1*
X17746Y20639D2*
Y20563D1*
Y20487D1*
Y20411D1*
Y20335D1*
X17214Y20259D1*
X17363Y20183D1*
X17499Y20107D1*
X17609Y20031D1*
X17700Y19955D1*
X17690Y19879D1*
X17646Y19803D1*
X17594Y19727D1*
X17655Y19651D1*
X17700Y19575D1*
X17727Y19499D1*
X17746Y19423D1*
X17898D1*
Y19347D1*
Y19271D1*
Y20639D2*
X17901Y20563D1*
X17913Y20487D1*
X17939Y20411D1*
X17974Y20335D1*
X20786Y20563D2*
Y20487D1*
Y20411D1*
Y20335D1*
X20938Y20563D2*
Y20487D1*
Y20411D1*
Y20335D1*
X15314D2*
X15352Y20259D1*
X15459Y20183D1*
X15579Y20107D1*
X15685Y20031D1*
X15768Y19955D1*
X15835Y19879D1*
X15893Y19803D1*
X15949Y19727D1*
X16011Y19651D1*
X16077Y19575D1*
X16140Y19499D1*
X16196Y19423D1*
X16248Y19347D1*
X16302Y19271D1*
X15618Y20259D2*
X16034Y20183D1*
X16454Y20107D1*
X16910Y20259D2*
X16834Y20183D1*
X17974D2*
X18010Y20107D1*
X18050Y20031D1*
X17970Y19955D1*
X17898Y19879D1*
X18050Y19803D1*
X17974Y19727D1*
X18056Y19651D1*
X18120Y19575D1*
X18166Y19499D1*
X18202Y19423D1*
Y20183D2*
Y20107D1*
Y20031D1*
Y19955D1*
X18430D1*
X18359Y19879D1*
X18278Y19803D1*
X18430Y19727D1*
X18395Y19651D1*
X18373Y19575D1*
X18362Y19499D1*
X18354Y19423D1*
X16454Y20183D2*
X16457Y20107D1*
X16467Y20031D1*
X16488Y19955D1*
X16520Y19879D1*
X16562Y19803D1*
X16610Y19727D1*
X16662Y19651D1*
X16730Y19575D1*
X16833Y19499D1*
X16976Y19423D1*
X17138Y19347D1*
X16606Y20183D2*
X16682Y20107D1*
X16758Y20031D1*
X16834Y19955D1*
X16907Y19879D1*
X16973Y19803D1*
X17028Y19727D1*
X17071Y19651D1*
X17106Y19575D1*
Y19499D1*
X17054Y19423D1*
X16986Y19347D1*
X16834Y20183D2*
X16907Y20107D1*
X16974Y20031D1*
X17032Y19955D1*
X17094Y19879D1*
X17180Y19803D1*
X17301Y19727D1*
X17442Y19651D1*
X16910Y20183D2*
X17044Y20107D1*
X17155Y20031D1*
X17238Y19955D1*
X17307Y19879D1*
X17374Y19803D1*
X17442Y19727D1*
X17366Y19651D1*
X15846Y20031D2*
X15922Y19955D1*
X15998Y19879D1*
X16071Y19803D1*
X16138Y19727D1*
X16195Y19651D1*
X16249Y19575D1*
X16299Y19499D1*
X16337Y19423D1*
X16361Y19347D1*
X16378Y19271D1*
X15922Y20031D2*
X16108Y19955D1*
X16252Y19879D1*
X16349Y19803D1*
X16415Y19727D1*
X16466Y19651D1*
X16514Y19575D1*
X16574Y19499D1*
X16652Y19423D1*
X16742Y19347D1*
X16834Y19271D1*
X17442Y19879D2*
X17518Y19803D1*
X17591Y19727D1*
X17654Y19651D1*
X17700Y19575D1*
X17727Y19499D1*
X17746Y19423D1*
X17898D1*
Y19347D1*
Y19271D1*
X18202Y19879D2*
X18162Y19803D1*
X18126Y19727D1*
X17366Y19575D2*
X17302Y19499D1*
X17246Y19423D1*
X17192Y19347D1*
X17138Y19271D1*
X17366Y19575D2*
X17454Y19499D1*
X17550Y19423D1*
X17648Y19347D1*
X17746Y19271D1*
X29230Y42256D2*
D17*
Y39959D1*
X29996Y42256D2*
X28464D1*
X27212Y41490D2*
X27430Y41382D1*
X27650Y41162D1*
X27758Y40833D1*
Y40616D1*
X27650Y40287D1*
X27430Y40070D1*
X27212Y39959D1*
X26884D1*
X26664Y40070D1*
X26447Y40287D1*
X26336Y40616D1*
Y40833D1*
X26447Y41162D1*
X26664Y41382D1*
X26884Y41490D1*
X27212D1*
X25630D2*
Y39193D1*
Y41162D2*
X25410Y41379D1*
X25193Y41490D1*
X24864D1*
X24644Y41379D1*
X24427Y41162D1*
X24316Y40833D1*
Y40613D1*
X24427Y40287D1*
X24644Y40068D1*
X24864Y39959D1*
X25193D1*
X25410Y40068D1*
X25630Y40287D1*
X23610Y42256D2*
X23501Y42147D1*
X23390Y42256D1*
X23501Y42367D1*
X23610Y42256D1*
X23501Y41490D2*
Y39959D1*
X21044Y41710D2*
X21153Y41927D1*
X21373Y42147D1*
X21590Y42256D1*
X22027D1*
X22247Y42147D1*
X22464Y41927D1*
X22576Y41710D1*
X22684Y41382D1*
Y40833D1*
X22576Y40507D1*
X22464Y40287D1*
X22247Y40070D1*
X22027Y39959D1*
X21590D1*
X21373Y40070D1*
X21153Y40287D1*
X21044Y40507D1*
X19792Y41490D2*
X20010Y41382D1*
X20230Y41162D1*
X20338Y40833D1*
Y40616D1*
X20230Y40287D1*
X20010Y40070D1*
X19792Y39959D1*
X19464D1*
X19244Y40070D1*
X19027Y40287D1*
X18916Y40616D1*
Y40833D1*
X19027Y41162D1*
X19244Y41382D1*
X19464Y41490D1*
X19792D1*
X18210D2*
Y39959D1*
Y41053D2*
X17881Y41382D1*
X17661Y41490D1*
X17335D1*
X17116Y41382D1*
X17007Y41053D1*
Y39959D1*
X15427Y42256D2*
X15644D1*
X15864Y42147D1*
X15973Y41819D1*
Y39959D1*
X16301Y41490D2*
X15535D1*
X32063Y11366D2*
D54*
Y10783D1*
X32099Y10674D1*
X32135Y10637D1*
X32209Y10601D1*
X32318D1*
X32390Y10637D1*
X32063Y11257D2*
X32135Y11329D1*
X32209Y11366D1*
X32318D1*
X32390Y11329D1*
X32464Y11257D1*
X32500Y11147D1*
Y11074D1*
X32464Y10965D1*
X32390Y10892D1*
X32318Y10856D1*
X32209D1*
X32135Y10892D1*
X32063Y10965D1*
X31828Y11658D2*
X31791Y11622D1*
X31754Y11658D1*
X31791Y11695D1*
X31828Y11658D1*
X31791Y11403D2*
Y10892D1*
X31409Y11658D2*
Y11038D1*
X31373Y10929D1*
X31300Y10892D1*
X31228D1*
X31519Y11403D2*
X31264D1*
X30992Y11658D2*
Y10892D1*
Y11257D2*
X30883Y11366D1*
X30809Y11403D1*
X30700D1*
X30628Y11366D1*
X30591Y11257D1*
Y10892D1*
X30356Y11403D2*
Y11038D1*
X30320Y10929D1*
X30247Y10892D1*
X30137D1*
X30065Y10929D1*
X29955Y11038D1*
Y11403D2*
Y10892D1*
X29720Y11658D2*
Y10892D1*
Y11293D2*
X29646Y11366D1*
X29574Y11403D1*
X29465D1*
X29392Y11366D1*
X29319Y11293D1*
X29283Y11184D1*
Y11111D1*
X29319Y11002D1*
X29392Y10929D1*
X29465Y10892D1*
X29574D1*
X29646Y10929D1*
X29720Y11002D1*
X29011Y10965D2*
X29047Y10928D1*
X29011Y10892D1*
X28974Y10928D1*
X29011Y10965D1*
X28301Y11293D2*
X28374Y11366D1*
X28447Y11403D1*
X28556D1*
X28629Y11366D1*
X28702Y11293D1*
X28739Y11184D1*
Y11111D1*
X28702Y11002D1*
X28629Y10929D1*
X28556Y10892D1*
X28447D1*
X28374Y10929D1*
X28301Y11002D1*
X27884Y11403D2*
X27956Y11366D1*
X28029Y11293D1*
X28065Y11184D1*
Y11111D1*
X28029Y11002D1*
X27956Y10929D1*
X27884Y10892D1*
X27774D1*
X27701Y10929D1*
X27628Y11002D1*
X27591Y11111D1*
Y11184D1*
X27628Y11293D1*
X27701Y11366D1*
X27774Y11403D1*
X27884D1*
X27356D2*
Y10892D1*
Y11257D2*
X27246Y11366D1*
X27173Y11403D1*
X27064D1*
X26991Y11366D1*
X26955Y11257D1*
Y10892D1*
Y11257D2*
X26845Y11366D1*
X26772Y11403D1*
X26664D1*
X26590Y11366D1*
X26553Y11257D1*
Y10892D1*
X26318D2*
X25807Y11657D1*
X25463Y11658D2*
Y11038D1*
X25426Y10929D1*
X25353Y10892D1*
X25281D1*
X25572Y11403D2*
X25317D1*
X24864D2*
X24936Y11366D1*
X25009Y11293D1*
X25045Y11184D1*
Y11111D1*
X25009Y11002D1*
X24936Y10929D1*
X24864Y10892D1*
X24754D1*
X24681Y10929D1*
X24608Y11002D1*
X24571Y11111D1*
Y11184D1*
X24608Y11293D1*
X24681Y11366D1*
X24754Y11403D1*
X24864D1*
X24336D2*
Y10637D1*
Y11293D2*
X24263Y11366D1*
X24190Y11403D1*
X24081D1*
X24007Y11366D1*
X23935Y11293D1*
X23898Y11184D1*
Y11110D1*
X23935Y11002D1*
X24007Y10928D1*
X24081Y10892D1*
X24190D1*
X24263Y10928D1*
X24336Y11002D1*
X23663Y11658D2*
X23626Y11622D1*
X23589Y11658D1*
X23626Y11695D1*
X23663Y11658D1*
X23626Y11403D2*
Y10892D1*
X22916Y11293D2*
X22989Y11366D1*
X23063Y11403D1*
X23171D1*
X23245Y11366D1*
X23317Y11293D1*
X23354Y11184D1*
Y11111D1*
X23317Y11002D1*
X23245Y10929D1*
X23171Y10892D1*
X23063D1*
X22989Y10929D1*
X22916Y11002D1*
X22681Y11403D2*
Y11038D1*
X22645Y10929D1*
X22571Y10892D1*
X22462D1*
X22389Y10929D1*
X22280Y11038D1*
Y11403D2*
Y10892D1*
X21644Y11293D2*
X21680Y11366D1*
X21789Y11403D1*
X21899D1*
X22008Y11366D1*
X22045Y11293D1*
X22008Y11221D1*
X21935Y11184D1*
X21753Y11147D1*
X21680Y11111D1*
X21644Y11038D1*
Y11002D1*
X21680Y10929D1*
X21789Y10892D1*
X21899D1*
X22008Y10929D1*
X22045Y11002D1*
X21226Y11403D2*
X21299Y11366D1*
X21372Y11293D1*
X21408Y11184D1*
Y11111D1*
X21372Y11002D1*
X21299Y10929D1*
X21226Y10892D1*
X21117D1*
X21044Y10929D1*
X20971Y11002D1*
X20934Y11111D1*
Y11184D1*
X20971Y11293D1*
X21044Y11366D1*
X21117Y11403D1*
X21226D1*
X20699D2*
Y10892D1*
Y11257D2*
X20589Y11366D1*
X20516Y11403D1*
X20407D1*
X20334Y11366D1*
X20298Y11257D1*
Y10892D1*
X19625Y11658D2*
Y10892D1*
Y11293D2*
X19698Y11366D1*
X19771Y11403D1*
X19881D1*
X19953Y11366D1*
X20026Y11293D1*
X20063Y11184D1*
Y11111D1*
X20026Y11002D1*
X19953Y10929D1*
X19881Y10892D1*
X19771D1*
X19698Y10929D1*
X19625Y11002D1*
X19390Y11184D2*
X18953D1*
Y11257D1*
X18989Y11330D1*
X19025Y11366D1*
X19099Y11403D1*
X19208D1*
X19281Y11366D1*
X19354Y11293D1*
X19390Y11184D1*
Y11111D1*
X19354Y11002D1*
X19281Y10929D1*
X19208Y10892D1*
X19099D1*
X19025Y10929D1*
X18953Y11002D1*
X18718Y11403D2*
Y10892D1*
Y11184D2*
X18681Y11293D1*
X18608Y11366D1*
X18535Y11403D1*
X18425D1*
X18190D2*
X18044Y10892D1*
X17899Y11403D1*
X17753Y10892D1*
X17607Y11403D1*
X17372Y11658D2*
X17336Y11622D1*
X17299Y11658D1*
X17336Y11695D1*
X17372Y11658D1*
X17336Y11403D2*
Y10892D1*
X16918Y11659D2*
X16881Y11622D1*
X16844Y11659D1*
X16881Y11695D1*
X16918Y11659D1*
X16881Y11403D2*
Y10784D1*
X16918Y10674D1*
X16990Y10638D1*
X17063D1*
X16208Y11293D2*
X16244Y11366D1*
X16354Y11403D1*
X16463D1*
X16573Y11366D1*
X16609Y11293D1*
X16573Y11221D1*
X16500Y11184D1*
X16318Y11147D1*
X16244Y11111D1*
X16208Y11038D1*
Y11002D1*
X16244Y10929D1*
X16354Y10892D1*
X16463D1*
X16573Y10929D1*
X16609Y11002D1*
X15973Y10892D2*
X15462Y11657D1*
X15227Y11658D2*
X15191Y11622D1*
X15154Y11658D1*
X15191Y11695D1*
X15227Y11658D1*
X15191Y11403D2*
Y10892D1*
X14737Y11403D2*
X14809Y11366D1*
X14882Y11293D1*
X14919Y11184D1*
Y11111D1*
X14882Y11002D1*
X14809Y10929D1*
X14737Y10892D1*
X14627D1*
X14554Y10929D1*
X14481Y11002D1*
X14444Y11111D1*
Y11184D1*
X14481Y11293D1*
X14554Y11366D1*
X14627Y11403D1*
X14737D1*
X14099Y11658D2*
Y11038D1*
X14063Y10929D1*
X13990Y10892D1*
X13918D1*
X14209Y11403D2*
X13954D1*
X13245D2*
Y10892D1*
Y11293D2*
X13318Y11366D1*
X13391Y11403D1*
X13499D1*
X13573Y11366D1*
X13645Y11293D1*
X13682Y11184D1*
Y11111D1*
X13645Y11002D1*
X13573Y10929D1*
X13499Y10892D1*
X13391D1*
X13318Y10929D1*
X13245Y11002D1*
X32062Y36533D2*
D53*
Y35512D1*
X32402Y36533D2*
X31722D1*
X31408D2*
X30727Y35512D1*
Y36533D2*
X31408Y35512D1*
X32402Y33506D2*
X31965D1*
X31819Y33556D1*
X31770Y33604D1*
X31722Y33701D1*
Y33798D1*
X31770Y33895D1*
X31819Y33944D1*
X31965Y33993D1*
X32402D1*
Y32972D1*
X32062Y33506D2*
X31722Y32972D1*
X31408Y33993D2*
X30727Y32972D1*
Y33993D2*
X31408Y32972D1*
X32283Y31453D2*
Y30432D1*
X31942D1*
X31796Y30481D1*
X31699Y30578D1*
X31650Y30676D1*
X31602Y30820D1*
Y31064D1*
X31650Y31210D1*
X31699Y31307D1*
X31796Y31404D1*
X31942Y31453D1*
X32283D1*
X31288Y31257D2*
X31191Y31307D1*
X31045Y31452D1*
Y30432D1*
X32402Y28913D2*
Y27892D1*
X32062D1*
X31916Y27941D1*
X31818Y28038D1*
X31770Y28136D1*
X31722Y28280D1*
Y28524D1*
X31770Y28670D1*
X31818Y28767D1*
X31916Y28864D1*
X32062Y28913D1*
X32402D1*
X31358Y28669D2*
Y28717D1*
X31310Y28815D1*
X31262Y28863D1*
X31164Y28912D1*
X30970D1*
X30873Y28863D1*
X30825Y28815D1*
X30776Y28717D1*
Y28621D1*
X30825Y28523D1*
X30922Y28378D1*
X31408Y27892D1*
X30727D1*
X32402Y26373D2*
Y25352D1*
X32062D1*
X31916Y25401D1*
X31818Y25498D1*
X31770Y25596D1*
X31722Y25740D1*
Y25984D1*
X31770Y26130D1*
X31818Y26227D1*
X31916Y26324D1*
X32062Y26373D1*
X32402D1*
X31310Y26372D2*
X30777D1*
X31068Y25983D1*
X30922D1*
X30825Y25935D1*
X30777Y25886D1*
X30727Y25740D1*
Y25644D1*
X30777Y25498D1*
X30873Y25400D1*
X31019Y25352D1*
X31165D1*
X31310Y25400D1*
X31358Y25450D1*
X31408Y25546D1*
X32450Y23833D2*
Y22812D1*
X32110D1*
X31964Y22861D1*
X31866Y22958D1*
X31818Y23056D1*
X31770Y23200D1*
Y23444D1*
X31818Y23590D1*
X31866Y23687D1*
X31964Y23784D1*
X32110Y23833D1*
X32450D1*
X30970Y22812D2*
Y23832D1*
X31456Y23152D1*
X30727D1*
X31680Y21050D2*
X31728Y21147D1*
X31826Y21244D1*
X31922Y21293D1*
X32117D1*
X32214Y21244D1*
X32311Y21147D1*
X32360Y21050D1*
X32409Y20904D1*
Y20660D1*
X32360Y20516D1*
X32311Y20418D1*
X32214Y20321D1*
X32117Y20272D1*
X31922D1*
X31826Y20321D1*
X31728Y20418D1*
X31680Y20516D1*
Y20660D1*
X31922D1*
X32075Y18838D2*
D54*
X32439D1*
X32475Y18510D1*
X32439Y18547D1*
X32330Y18584D1*
X32221D1*
X32112Y18547D1*
X32038Y18474D1*
X32002Y18365D1*
Y18292D1*
X32038Y18183D1*
X32112Y18109D1*
X32221Y18073D1*
X32330D1*
X32439Y18109D1*
X32475Y18147D1*
X32512Y18219D1*
X31767Y18839D2*
X31475Y18073D1*
X31184Y18839D1*
X15616Y36099D2*
D53*
X15180D1*
X15034Y36149D1*
X14984Y36197D1*
X14936Y36293D1*
Y36391D1*
X14984Y36488D1*
X15034Y36537D1*
X15180Y36585D1*
X15616D1*
Y35565D1*
X15276Y36099D2*
X14936Y35565D1*
X13942Y36439D2*
X14038Y36537D1*
X14184Y36585D1*
X14378D1*
X14524Y36537D1*
X14622Y36439D1*
Y36343D1*
X14573Y36245D1*
X14524Y36197D1*
X14428Y36149D1*
X14136Y36051D1*
X14038Y36003D1*
X13990Y35953D1*
X13942Y35857D1*
Y35711D1*
X14038Y35614D1*
X14184Y35565D1*
X14378D1*
X14524Y35614D1*
X14622Y35711D1*
X13288Y36585D2*
Y35565D1*
X13628Y36585D2*
X12947D1*
X13942Y32972D2*
X14331Y33993D1*
X14720Y32972D1*
X14574Y33312D2*
X14088D1*
X13336Y33992D2*
X13482Y33943D1*
X13580Y33797D1*
X13628Y33555D1*
Y33409D1*
X13580Y33166D1*
X13482Y33020D1*
X13336Y32972D1*
X13239D1*
X13093Y33020D1*
X12997Y33166D1*
X12947Y33409D1*
Y33555D1*
X12997Y33797D1*
X13093Y33943D1*
X13239Y33992D1*
X13336D1*
X12997Y33797D2*
X13580Y33166D1*
X14622Y31453D2*
Y30432D1*
X14282D1*
X14136Y30481D1*
X14038Y30578D1*
X13990Y30676D1*
X13942Y30820D1*
Y31064D1*
X13990Y31210D1*
X14038Y31307D1*
X14136Y31404D1*
X14282Y31453D1*
X14622D1*
X13336Y31452D2*
X13482Y31403D1*
X13580Y31257D1*
X13628Y31015D1*
Y30869D1*
X13580Y30626D1*
X13482Y30480D1*
X13336Y30432D1*
X13239D1*
X13093Y30480D1*
X12997Y30626D1*
X12947Y30869D1*
Y31015D1*
X12997Y31257D1*
X13093Y31403D1*
X13239Y31452D1*
X13336D1*
X12997Y31257D2*
X13580Y30626D1*
X14573Y26373D2*
Y25352D1*
X14232D1*
X14086Y25401D1*
X13989Y25498D1*
X13940Y25596D1*
X13892Y25740D1*
Y25984D1*
X13940Y26130D1*
X13989Y26227D1*
X14086Y26324D1*
X14232Y26373D1*
X14573D1*
X12996Y26227D2*
X13044Y26323D1*
X13190Y26372D1*
X13286D1*
X13432Y26323D1*
X13530Y26177D1*
X13578Y25935D1*
Y25692D1*
X13530Y25498D1*
X13432Y25400D1*
X13286Y25352D1*
X13238D1*
X13093Y25400D1*
X12996Y25498D1*
X12947Y25644D1*
Y25692D1*
X12996Y25838D1*
X13093Y25935D1*
X13238Y25983D1*
X13286D1*
X13432Y25935D1*
X13530Y25838D1*
X13578Y25692D1*
X14622Y23833D2*
Y22812D1*
X14282D1*
X14136Y22861D1*
X14038Y22958D1*
X13990Y23056D1*
X13942Y23200D1*
Y23444D1*
X13990Y23590D1*
X14038Y23687D1*
X14136Y23784D1*
X14282Y23833D1*
X14622D1*
X13434Y22812D2*
X12947Y23832D1*
X13628D1*
X14621Y21293D2*
Y20272D1*
X14281D1*
X14135Y20321D1*
X14037Y20418D1*
X13989Y20516D1*
X13940Y20660D1*
Y20904D1*
X13989Y21050D1*
X14037Y21147D1*
X14135Y21244D1*
X14281Y21293D1*
X14621D1*
X13384Y21292D2*
X13529Y21243D1*
X13578Y21147D1*
Y21049D1*
X13529Y20952D1*
X13432Y20903D1*
X13238Y20855D1*
X13092Y20806D1*
X12996Y20709D1*
X12947Y20612D1*
Y20466D1*
X12996Y20370D1*
X13044Y20320D1*
X13190Y20272D1*
X13384D1*
X13529Y20320D1*
X13578Y20370D1*
X13627Y20466D1*
Y20612D1*
X13578Y20709D1*
X13481Y20806D1*
X13336Y20855D1*
X13142Y20903D1*
X13044Y20952D1*
X12996Y21049D1*
Y21147D1*
X13044Y21243D1*
X13190Y21292D1*
X13384D1*
X15615Y18752D2*
X15082D1*
X15373Y18363D1*
X15227D1*
X15130Y18315D1*
X15082Y18266D1*
X15032Y18120D1*
Y18024D1*
X15082Y17878D1*
X15178Y17780D1*
X15324Y17732D1*
X15470D1*
X15615Y17780D1*
X15664Y17830D1*
X15713Y17926D1*
X14719Y18753D2*
X14330Y17732D1*
X13942Y18753D1*
X13530Y18752D2*
X12997D1*
X13288Y18363D1*
X13142D1*
X13045Y18315D1*
X12997Y18266D1*
X12947Y18120D1*
Y18024D1*
X12997Y17878D1*
X13093Y17780D1*
X13239Y17732D1*
X13385D1*
X13530Y17780D1*
X13578Y17830D1*
X13628Y17926D1*
X14622Y28913D2*
Y27892D1*
X14282D1*
X14136Y27941D1*
X14038Y28038D1*
X13990Y28136D1*
X13942Y28280D1*
Y28524D1*
X13990Y28670D1*
X14038Y28767D1*
X14136Y28864D1*
X14282Y28913D1*
X14622D1*
X13045Y28912D2*
X13530D1*
X13578Y28475D1*
X13530Y28523D1*
X13384Y28572D1*
X13239D1*
X13093Y28523D1*
X12996Y28426D1*
X12947Y28280D1*
Y28184D1*
X12996Y28038D1*
X13093Y27940D1*
X13239Y27892D1*
X13384D1*
X13530Y27940D1*
X13578Y27990D1*
X13628Y28086D1*
X26275Y37421D2*
D17*
Y37530D1*
X26166Y37749D1*
X26057Y37858D1*
X25838Y37967D1*
X25400D1*
X25183Y37858D1*
X25074Y37749D1*
X24963Y37530D1*
Y37312D1*
X25074Y37092D1*
X25292Y36766D1*
X26386Y35672D1*
X24855D1*
X23492Y37967D2*
X23820Y37858D1*
X24040Y37530D1*
X24149Y36984D1*
Y36655D1*
X24040Y36109D1*
X23820Y35781D1*
X23492Y35672D1*
X23274D1*
X22946Y35781D1*
X22729Y36109D1*
X22617Y36655D1*
Y36984D1*
X22729Y37530D1*
X22946Y37858D1*
X23274Y37967D1*
X23492D1*
X22729Y37530D2*
X24040Y36109D1*
X21912Y37530D2*
X21692Y37641D1*
X21363Y37967D1*
Y35672D1*
X19346Y37641D2*
X19454Y37858D1*
X19783Y37967D1*
X20000D1*
X20329Y37858D1*
X20549Y37530D1*
X20657Y36984D1*
Y36438D1*
X20549Y36001D1*
X20329Y35781D1*
X20000Y35672D1*
X19892D1*
X19566Y35781D1*
X19346Y36001D1*
X19237Y36329D1*
Y36438D1*
X19346Y36766D1*
X19566Y36984D1*
X19892Y37092D1*
X20000D1*
X20329Y36984D1*
X20549Y36766D1*
X20657Y36438D1*
X28970Y13441D2*
D54*
Y12676D1*
X28642D1*
X28532Y12713D1*
X28496Y12749D1*
X28460Y12821D1*
Y12931D1*
X28496Y13004D1*
X28532Y13040D1*
X28642Y13077D1*
X28532Y13114D1*
X28496Y13150D1*
X28460Y13222D1*
Y13296D1*
X28496Y13368D1*
X28532Y13405D1*
X28642Y13441D1*
X28970D1*
Y13077D2*
X28642D1*
X27788Y13186D2*
Y12676D1*
Y13077D2*
X27860Y13150D1*
X27933Y13186D1*
X28042D1*
X28115Y13150D1*
X28188Y13077D1*
X28225Y12967D1*
Y12895D1*
X28188Y12785D1*
X28115Y12713D1*
X28042Y12676D1*
X27933D1*
X27860Y12713D1*
X27788Y12785D1*
X27552Y13186D2*
Y12676D1*
Y12967D2*
X27515Y13077D1*
X27443Y13150D1*
X27369Y13186D1*
X27260D1*
X26915Y13441D2*
Y12821D1*
X26879Y12713D1*
X26806Y12676D1*
X26733D1*
X27025Y13186D2*
X26769D1*
X25757Y13641D2*
Y12475D1*
X24417Y13441D2*
Y12858D1*
X24453Y12749D1*
X24490Y12713D1*
X24562Y12676D1*
X24636D1*
X24708Y12713D1*
X24744Y12749D1*
X24781Y12858D1*
Y12931D1*
X24181Y12967D2*
X23744D1*
Y13040D1*
X23780Y13114D1*
X23817Y13150D1*
X23890Y13186D1*
X23999D1*
X24072Y13150D1*
X24145Y13077D1*
X24181Y12967D1*
Y12895D1*
X24145Y12785D1*
X24072Y12713D1*
X23999Y12676D1*
X23890D1*
X23817Y12713D1*
X23744Y12785D1*
X23509Y13186D2*
Y12676D1*
Y12967D2*
X23472Y13077D1*
X23399Y13150D1*
X23326Y13186D1*
X23217D1*
X22799D2*
X22872Y13150D1*
X22945Y13077D1*
X22981Y12967D1*
Y12895D1*
X22945Y12785D1*
X22872Y12713D1*
X22799Y12676D1*
X22690D1*
X22617Y12713D1*
X22544Y12785D1*
X22507Y12895D1*
Y12967D1*
X22544Y13077D1*
X22617Y13150D1*
X22690Y13186D1*
X22799D1*
X22272Y12967D2*
X21835D1*
Y13040D1*
X21871Y13114D1*
X21907Y13150D1*
X21980Y13186D1*
X22090D1*
X22162Y13150D1*
X22235Y13077D1*
X22272Y12967D1*
Y12895D1*
X22235Y12785D1*
X22162Y12713D1*
X22090Y12676D1*
X21980D1*
X21907Y12713D1*
X21835Y12785D1*
X21599Y13186D2*
Y12676D1*
Y13040D2*
X21490Y13150D1*
X21416Y13186D1*
X21308D1*
X21235Y13150D1*
X21198Y13040D1*
Y12676D1*
X20222Y13641D2*
Y12475D1*
X18991Y13441D2*
Y12676D1*
X19246Y13441D2*
X18736D1*
X18501D2*
Y12676D1*
Y13040D2*
X18391Y13150D1*
X18318Y13186D1*
X18208D1*
X18136Y13150D1*
X18100Y13040D1*
Y12676D1*
X17864Y13441D2*
X17828Y13405D1*
X17791Y13441D1*
X17828Y13478D1*
X17864Y13441D1*
X17828Y13186D2*
Y12676D1*
X17410Y13442D2*
X17373Y13406D1*
X17337Y13442D1*
X17373Y13478D1*
X17410Y13442D1*
X17373Y13187D2*
Y12567D1*
X17410Y12457D1*
X17483Y12421D1*
X17556D1*
X16701Y13077D2*
X16737Y13150D1*
X16846Y13186D1*
X16956D1*
X17065Y13150D1*
X17102Y13077D1*
X17065Y13004D1*
X16992Y12967D1*
X16810Y12931D1*
X16737Y12895D1*
X16701Y12821D1*
Y12785D1*
X16737Y12713D1*
X16846Y12676D1*
X16956D1*
X17065Y12713D1*
X17102Y12785D1*
M02*
