G04 DipTrace 2.4.0.2*
%INiota.GTO*%
%MOMM*%
%ADD10C,0.25*%
%ADD12C,0.076*%
%ADD17C,0.356*%
%ADD18C,1.27*%
%ADD26O,0.601X0.6*%
%ADD53C,0.157*%
%FSLAX53Y53*%
G04*
G71*
G90*
G75*
G01*
%LNTopSilk*%
%LPD*%
X17712Y36806D2*
D10*
Y35507D1*
X31712Y36806D2*
Y35507D1*
X32361Y13156D2*
X31062D1*
X22062Y38056D2*
X23361D1*
X14854Y16426D2*
X20569D1*
Y13886D1*
X14854D1*
Y16426D1*
X19711Y24156D2*
X25712D1*
Y30156D1*
X19711D1*
Y24156D1*
X18412Y42656D2*
X13011D1*
X18412Y37656D2*
X13011D1*
D26*
X11995Y42809D3*
X32412Y42656D2*
D10*
X27011D1*
X32412Y37656D2*
X27011D1*
D26*
X25995Y42809D3*
X30211Y16456D2*
D10*
X25211D1*
X30211Y13856D2*
X25211D1*
Y16456D2*
Y13856D1*
X30211Y15657D2*
Y16456D1*
Y14656D2*
Y13856D1*
Y15657D2*
G03X30211Y14656I0J-500D01*
G01*
D18*
X34141Y11281D3*
X22438Y43273D2*
D12*
X23046D1*
X22426Y43197D2*
X23081D1*
X22407Y43121D2*
X23103D1*
X22387Y43045D2*
X23117D1*
X22363Y42969D2*
X23131D1*
X21374Y42893D2*
X21526D1*
X22330D2*
X23176D1*
X24034D2*
X24186D1*
X21272Y42817D2*
X21693D1*
X22170D2*
X23320D1*
X23826D2*
X24261D1*
X21177Y42741D2*
X21899D1*
X21915D2*
X23539D1*
X23567D2*
X24335D1*
X21102Y42665D2*
X24398D1*
X21048Y42589D2*
X24449D1*
X21050Y42513D2*
X24463D1*
X21085Y42437D2*
X24444D1*
X21126Y42361D2*
X24392D1*
X21172Y42285D2*
X24328D1*
X21217Y42209D2*
X24258D1*
X21253Y42133D2*
X24186D1*
X21253Y42057D2*
X24234D1*
X21226Y41981D2*
X24289D1*
X21159Y41905D2*
X24358D1*
X21007Y41829D2*
X22438D1*
X23031D2*
X24510D1*
X20836Y41753D2*
X22362D1*
X23148D2*
X24674D1*
X20696Y41677D2*
X22289D1*
X23237D2*
X24823D1*
X20595Y41601D2*
X22226D1*
X23304D2*
X24896D1*
X20565Y41525D2*
X22175D1*
X23328D2*
X24922D1*
X20549Y41449D2*
X22159D1*
X23337D2*
X24936D1*
X20542Y41373D2*
X22174D1*
X23333D2*
X24942D1*
X20539Y41297D2*
X22203D1*
X23314D2*
X24944D1*
X20538Y41221D2*
X22245D1*
X23280D2*
X24945D1*
X20538Y41145D2*
X22302D1*
X23227D2*
X24946D1*
X20803Y41069D2*
X22365D1*
X23150D2*
X24690D1*
X21002Y40993D2*
X22422D1*
X23062D2*
X24503D1*
X21148Y40917D2*
X22465D1*
X22970D2*
X24367D1*
X21218Y40841D2*
X22462D1*
X23017D2*
X24307D1*
X21252Y40765D2*
X22443D1*
X23060D2*
X24287D1*
X21244Y40689D2*
X22413D1*
X23101D2*
X24278D1*
X21199Y40613D2*
X22379D1*
X23140D2*
X24310D1*
X21148Y40537D2*
X22342D1*
X23179D2*
X24356D1*
X21100Y40461D2*
X22304D1*
X23217D2*
X24407D1*
X21065Y40385D2*
X22267D1*
X23255D2*
X24451D1*
X21043Y40309D2*
X22229D1*
X23293D2*
X24464D1*
X21075Y40233D2*
X22193D1*
X23333D2*
X24445D1*
X21145Y40157D2*
X22161D1*
X23377D2*
X24389D1*
X21220Y40081D2*
X21754D1*
X22058D2*
X22134D1*
X23426D2*
D3*
X23820D2*
X24314D1*
X21297Y40005D2*
X21602D1*
X23922D2*
X24217D1*
X21374Y39929D2*
X21450D1*
X24034D2*
X24110D1*
X20006Y39549D2*
X20310D1*
X20538D2*
X20918D1*
X21146D2*
X21450D1*
X21678D2*
X22058D1*
X22514D2*
X22894D1*
X23122D2*
X23426D1*
X23578D2*
X23730D1*
X23958D2*
X24566D1*
X24718D2*
X25022D1*
X25174D2*
X25478D1*
X19971Y39473D2*
X20345D1*
X20538D2*
X21485D1*
X21678D2*
X22093D1*
X22513D2*
X23730D1*
X23957D2*
X25513D1*
X19949Y39397D2*
X20088D1*
X20217D2*
X20367D1*
X20538D2*
X20706D1*
X20836D2*
X21257D1*
X21338D2*
X21507D1*
X21678D2*
X21845D1*
X21982D2*
X22115D1*
X22511D2*
X22701D1*
X22782D2*
X22908D1*
X23032D2*
X23214D1*
X23344D2*
X23736D1*
X23951D2*
X24338D1*
X24569D2*
X24808D1*
X24918D2*
X25285D1*
X25366D2*
X25535D1*
X19941Y39321D2*
X20102D1*
X20269D2*
X20378D1*
X20538D2*
X20654D1*
X20822D2*
X21518D1*
X21678D2*
X21800D1*
X21982D2*
X22126D1*
X22501D2*
X22934D1*
X23005D2*
X23162D1*
X23330D2*
X23750D1*
X23938D2*
X24338D1*
X24578D2*
X24758D1*
X25017D2*
X25546D1*
X19948Y39245D2*
X20161D1*
X20220D2*
X20383D1*
X20538D2*
X20703D1*
X20762D2*
X21523D1*
X21678D2*
X21775D1*
X21982D2*
X22131D1*
X22482D2*
X23211D1*
X23270D2*
X23809D1*
X23878D2*
X24338D1*
X24597D2*
X24718D1*
X25098D2*
X25551D1*
X19972Y39169D2*
X20385D1*
X20538D2*
X21525D1*
X21678D2*
X21762D1*
X21982D2*
X22133D1*
X22460D2*
X24338D1*
X24620D2*
X25553D1*
X20006Y39093D2*
X20386D1*
X20538D2*
X20977D1*
X21146D2*
X21526D1*
X21678D2*
X21754D1*
X21982D2*
X22134D1*
X22438D2*
X22894D1*
X23046D2*
X23426D1*
X23654D2*
X24338D1*
X24642D2*
X25022D1*
X25174D2*
X25554D1*
X20538Y39017D2*
X20799D1*
X20538Y38941D2*
X20673D1*
X22438D2*
X22514D1*
X20538Y38865D2*
X20614D1*
X22438D2*
X22514D1*
X20538Y38789D2*
X20918D1*
X21146D2*
X21450D1*
X21678D2*
X22742D1*
X22970D2*
X23046D1*
X23350D2*
X23426D1*
X23578D2*
X23806D1*
X24034D2*
X24414D1*
X24566D2*
X24794D1*
X20538Y38713D2*
X21485D1*
X21678D2*
X22813D1*
X22899D2*
X23095D1*
X23300D2*
X23917D1*
X23998D2*
X24864D1*
X20538Y38637D2*
X21008D1*
X21132D2*
X21257D1*
X21338D2*
X21507D1*
X21678D2*
X22514D1*
X22678D2*
X23145D1*
X23250D2*
X23578D1*
X23806D2*
X24915D1*
X20538Y38561D2*
X20614D1*
X20842D2*
X21034D1*
X21105D2*
X21518D1*
X21678D2*
X21845D1*
X22058D2*
X22229D1*
X22418D2*
X22514D1*
X22697D2*
X23385D1*
X23466D2*
X24186D1*
X24490D2*
X24925D1*
X20538Y38485D2*
X20614D1*
X20842D2*
X21523D1*
X21678D2*
X21800D1*
X22064D2*
X22289D1*
X22359D2*
X22514D1*
X22719D2*
X24186D1*
X24493D2*
X24901D1*
X20538Y38409D2*
X20614D1*
X20842D2*
X21257D1*
X21338D2*
X21525D1*
X21678D2*
X21775D1*
X22078D2*
X22514D1*
X22744D2*
X22956D1*
X23122D2*
X23578D1*
X23806D2*
X24186D1*
X24505D2*
X24677D1*
X24758D2*
X24870D1*
X20538Y38333D2*
X20614D1*
X20842D2*
X21525D1*
X21678D2*
X21762D1*
X22137D2*
X22514D1*
X22778D2*
X22929D1*
X23122D2*
X23274D1*
X23502D2*
X24186D1*
X24531D2*
X24946D1*
X20538Y38257D2*
X20614D1*
X20842D2*
X20994D1*
X21146D2*
X21526D1*
X21678D2*
X21754D1*
X22210D2*
X22514D1*
X22818D2*
X22894D1*
X23122D2*
X23274D1*
X23578D2*
X24186D1*
X24566D2*
X24870D1*
X22933Y23588D2*
X23085D1*
X22872Y23512D2*
X23192D1*
X24149D2*
X24681D1*
X26049D2*
D3*
X26353D2*
D3*
X22828Y23436D2*
X23009D1*
X23161D2*
X23278D1*
X23975D2*
X24932D1*
X26045D2*
X26049D1*
X26315D2*
X26353D1*
X22798Y23360D2*
X22859D1*
X23009D2*
X23242D1*
X23827D2*
X25114D1*
X26037D2*
X26125D1*
X26281D2*
X26356D1*
X22797Y23284D2*
X22951D1*
X23085D2*
X23135D1*
X23693D2*
X25251D1*
X25999D2*
X26160D1*
X26243D2*
X26369D1*
X22824Y23208D2*
X23087D1*
X23769D2*
X25310D1*
X25745D2*
X25821D1*
X25916D2*
X26400D1*
X22891Y23132D2*
X23279D1*
X23845D2*
X25352D1*
X25795D2*
X26453D1*
X23072Y23056D2*
X23479D1*
X23921D2*
X25385D1*
X25852D2*
X26526D1*
X23351Y22980D2*
X23636D1*
X23999D2*
X25411D1*
X25928D2*
X26615D1*
X23693Y22904D2*
X23773D1*
X24082D2*
X25427D1*
X26031D2*
X26705D1*
X23541Y22828D2*
X23958D1*
X24165D2*
X24695D1*
X24895D2*
X25435D1*
X26150D2*
X26780D1*
X23619Y22752D2*
X24221D1*
X24238D2*
X24721D1*
X24792D2*
X25435D1*
X26258D2*
X26838D1*
X23703Y22676D2*
X25424D1*
X26353D2*
X26859D1*
X23790Y22600D2*
X25400D1*
X26107D2*
X26776D1*
X23877Y22524D2*
X25332D1*
X25864D2*
X26671D1*
X23965Y22448D2*
X25164D1*
X25649D2*
X26550D1*
X24057Y22372D2*
X24911D1*
X25473D2*
X26412D1*
X24149Y22296D2*
X24605D1*
X25315D2*
X26262D1*
X25139Y22220D2*
X26106D1*
X24923Y22144D2*
X25959D1*
X24687Y22068D2*
X25821D1*
X27417D2*
D3*
X24453Y21992D2*
X25669D1*
X25821D2*
X25967D1*
X27367D2*
X27417D1*
X24529Y21916D2*
X25596D1*
X25748D2*
X26087D1*
X27316D2*
X27490D1*
X24605Y21840D2*
X25530D1*
X25682D2*
X26188D1*
X27264D2*
X27556D1*
X24681Y21764D2*
X25475D1*
X25627D2*
X26283D1*
X27214D2*
X27611D1*
X23845Y21688D2*
D3*
X24757D2*
X25428D1*
X25583D2*
X26382D1*
X27164D2*
X27658D1*
X23857Y21612D2*
X23921D1*
X24529D2*
D3*
X24833D2*
X25386D1*
X25551D2*
X26481D1*
X27112D2*
X27706D1*
X23875Y21536D2*
X23971D1*
X24481D2*
X24529D1*
X24909D2*
X25347D1*
X25530D2*
X26583D1*
X27062D2*
X27767D1*
X28101D2*
X28177D1*
X23892Y21460D2*
X24031D1*
X24435D2*
X24529D1*
X24862D2*
X25308D1*
X25511D2*
X26693D1*
X27009D2*
X27851D1*
X27913D2*
X28147D1*
X23541Y21384D2*
D3*
X23901D2*
X24116D1*
X24380D2*
X24529D1*
X24818D2*
X25270D1*
X25489D2*
X26809D1*
X26944D2*
X27359D1*
X27505D2*
X28155D1*
X23581Y21308D2*
X23769D1*
X23877D2*
X24236D1*
X24309D2*
X24532D1*
X24771D2*
X25232D1*
X25470D2*
X26689D1*
X26863D2*
X27248D1*
X27527D2*
X28200D1*
X23633Y21232D2*
X24544D1*
X24711D2*
X25194D1*
X25460D2*
X26552D1*
X26760D2*
X27168D1*
X27565D2*
X28253D1*
X23688Y21156D2*
X24570D1*
X24627D2*
X25153D1*
X25482D2*
X26403D1*
X26638D2*
X27112D1*
X27618D2*
X28177D1*
X23741Y21080D2*
X25105D1*
X25521D2*
X26258D1*
X26512D2*
X27075D1*
X27737D2*
X28101D1*
X23796Y21004D2*
X25046D1*
X25583D2*
X26129D1*
X26396D2*
X27054D1*
X27873D2*
X28177D1*
X23858Y20928D2*
X24978D1*
X25659D2*
X26027D1*
X26297D2*
X27044D1*
X23930Y20852D2*
X24903D1*
X25740D2*
X25954D1*
X26209D2*
X27039D1*
X24018Y20776D2*
X24816D1*
X25821D2*
X25897D1*
X26131D2*
X27038D1*
X24135Y20700D2*
X24710D1*
X26063D2*
X27037D1*
X27189D2*
D3*
X28481D2*
X28861D1*
X24285Y20624D2*
X24586D1*
X26007D2*
X27034D1*
X27189D2*
X27265D1*
X28300D2*
X29080D1*
X19969Y20548D2*
X20273D1*
X24453D2*
D3*
X25960D2*
X27024D1*
X27188D2*
X27280D1*
X28149D2*
X29266D1*
X19938Y20472D2*
X20270D1*
X25918D2*
X27003D1*
X27186D2*
X27311D1*
X28038D2*
X29418D1*
X19941Y20396D2*
X20258D1*
X25879D2*
X26974D1*
X27176D2*
X27362D1*
X27955D2*
X28283D1*
X29010D2*
X29545D1*
X15789Y20320D2*
X16017D1*
X19954D2*
X20232D1*
X25840D2*
X26942D1*
X27158D2*
X27425D1*
X27918D2*
X28182D1*
X29149D2*
X29647D1*
X15789Y20244D2*
X16017D1*
X19969D2*
X20197D1*
X25805D2*
X26344D1*
X26657D2*
X26916D1*
X27138D2*
X27496D1*
X27923D2*
X28131D1*
X28557D2*
X28633D1*
X29270D2*
X29725D1*
X15789Y20168D2*
X16017D1*
X25774D2*
X26259D1*
X26733D2*
X26899D1*
X27125D2*
X27573D1*
X27944D2*
X28215D1*
X28633D2*
X28702D1*
X29371D2*
X29791D1*
X15789Y20092D2*
X16017D1*
X25747D2*
X26182D1*
X26809D2*
X26890D1*
X27118D2*
X27658D1*
X27976D2*
X28409D1*
X28450D2*
X28753D1*
X29457D2*
X29855D1*
X15789Y20016D2*
X16017D1*
X25720D2*
X26114D1*
X26885D2*
D3*
X27115D2*
X27752D1*
X28025D2*
X28769D1*
X29525D2*
X29913D1*
X15485Y19940D2*
X16397D1*
X17005D2*
X17613D1*
X18297D2*
X18525D1*
X18677D2*
X19285D1*
X19969D2*
X20273D1*
X20957D2*
X21565D1*
X21945D2*
X22173D1*
X22933D2*
X23161D1*
X23693D2*
X24225D1*
X25697D2*
X26049D1*
X27114D2*
X27850D1*
X28094D2*
X28598D1*
X29578D2*
X29956D1*
X15485Y19864D2*
X16397D1*
X16894D2*
X17721D1*
X18297D2*
X19393D1*
X19969D2*
X20273D1*
X20846D2*
X21681D1*
X21945D2*
X22173D1*
X22933D2*
X23161D1*
X23597D2*
X24294D1*
X25683D2*
X26168D1*
X27117D2*
X27952D1*
X28177D2*
X28311D1*
X29601D2*
X29980D1*
X15485Y19788D2*
X16397D1*
X16799D2*
X17809D1*
X18297D2*
X19481D1*
X19969D2*
X20273D1*
X20751D2*
X21793D1*
X21945D2*
X22173D1*
X22933D2*
X23161D1*
X23519D2*
X24347D1*
X25676D2*
X26327D1*
X27124D2*
X28068D1*
X29539D2*
X29992D1*
X15485Y19712D2*
X16397D1*
X16724D2*
X17263D1*
X17352D2*
X17875D1*
X18297D2*
X18935D1*
X19024D2*
X19547D1*
X19969D2*
X20273D1*
X20677D2*
X21717D1*
X21945D2*
X22173D1*
X22933D2*
X23161D1*
X23491D2*
X23873D1*
X23997D2*
X24292D1*
X25701D2*
X26504D1*
X27171D2*
X28218D1*
X29392D2*
X29998D1*
X15789Y19636D2*
X16017D1*
X16672D2*
X17101D1*
X17507D2*
X17923D1*
X18297D2*
X18773D1*
X19179D2*
X19595D1*
X19969D2*
X20273D1*
X20618D2*
X20960D1*
X21489D2*
X21641D1*
X21945D2*
X22173D1*
X22933D2*
X23161D1*
X23476D2*
X23774D1*
X24149D2*
X24225D1*
X25805D2*
X26651D1*
X27244D2*
X28441D1*
X29149D2*
X29999D1*
X15789Y19560D2*
X16017D1*
X16634D2*
X16971D1*
X17613D2*
X17957D1*
X18297D2*
X18643D1*
X19285D2*
X19629D1*
X19969D2*
X20273D1*
X20594D2*
X20897D1*
X21945D2*
X22173D1*
X22933D2*
X23161D1*
X23472D2*
X23693D1*
X25953D2*
X26765D1*
X27340D2*
X28770D1*
X28777D2*
X29997D1*
X15789Y19484D2*
X16017D1*
X16603D2*
X16904D1*
X17681D2*
X17977D1*
X18297D2*
X18576D1*
X19353D2*
X19649D1*
X19969D2*
X20273D1*
X20573D2*
X20852D1*
X21945D2*
X22173D1*
X22932D2*
X23161D1*
X23476D2*
X23894D1*
X26125D2*
X26749D1*
X27455D2*
X29984D1*
X15789Y19408D2*
X16017D1*
X16578D2*
X16878D1*
X17731D2*
X17986D1*
X18297D2*
X18549D1*
X19403D2*
X19658D1*
X19969D2*
X20273D1*
X20552D2*
X20826D1*
X21945D2*
X22173D1*
X22930D2*
X23161D1*
X23508D2*
X24078D1*
X26075D2*
X26720D1*
X27589D2*
X29960D1*
X15789Y19332D2*
X16017D1*
X16565D2*
X16866D1*
X17746D2*
X17990D1*
X18297D2*
X18535D1*
X19417D2*
X19662D1*
X19969D2*
X20273D1*
X20540D2*
X20814D1*
X21945D2*
X22173D1*
X22920D2*
X23161D1*
X23602D2*
X24225D1*
X26025D2*
X26688D1*
X27744D2*
X29887D1*
X15789Y19256D2*
X16017D1*
X16568D2*
X16870D1*
X17745D2*
X17992D1*
X18297D2*
X18532D1*
X19421D2*
X19664D1*
X19969D2*
X20273D1*
X20545D2*
X20812D1*
X21945D2*
X22176D1*
X22899D2*
X23161D1*
X23739D2*
X24329D1*
X25973D2*
X26049D1*
X26201D2*
X26658D1*
X27922D2*
X29779D1*
X15789Y19180D2*
X16021D1*
X16585D2*
X16890D1*
X17731D2*
X17989D1*
X18297D2*
X18536D1*
X19395D2*
X19661D1*
X19969D2*
X20273D1*
X20560D2*
X20817D1*
X21945D2*
X22187D1*
X22868D2*
X23161D1*
X23893D2*
X24405D1*
X26201D2*
X26620D1*
X28121D2*
X29634D1*
X15789Y19104D2*
X16031D1*
X16613D2*
X16923D1*
X17684D2*
X17979D1*
X18297D2*
X18572D1*
X19337D2*
X19651D1*
X19969D2*
X20273D1*
X20580D2*
X20861D1*
X21948D2*
X22209D1*
X22830D2*
X23161D1*
X24016D2*
X24429D1*
X26201D2*
X26353D1*
X26505D2*
X26578D1*
X28329D2*
X29469D1*
X15789Y19028D2*
X16083D1*
X16647D2*
X17019D1*
X17524D2*
X17956D1*
X18297D2*
X18707D1*
X19191D2*
X19628D1*
X19969D2*
X20273D1*
X20606D2*
X21017D1*
X21565D2*
D3*
X21958D2*
X22286D1*
X22748D2*
X23161D1*
X23541D2*
D3*
X24104D2*
X24440D1*
X26201D2*
X26277D1*
X26505D2*
X26544D1*
X15792Y18952D2*
X16187D1*
X16689D2*
X17256D1*
X17259D2*
X17914D1*
X18297D2*
X18929D1*
X18961D2*
X19586D1*
X19969D2*
X20273D1*
X20641D2*
X21263D1*
X21311D2*
X21641D1*
X21979D2*
X22476D1*
X22555D2*
X23161D1*
X23481D2*
X23693D1*
X24149D2*
X24440D1*
X26201D2*
D3*
X26505D2*
X26521D1*
X15805Y18876D2*
X16281D1*
X16749D2*
X17848D1*
X18297D2*
X19524D1*
X19969D2*
X20273D1*
X20690D2*
X21717D1*
X22011D2*
X23161D1*
X23429D2*
X24403D1*
X26505D2*
D3*
X15835Y18800D2*
X16353D1*
X16838D2*
X17760D1*
X18297D2*
X19447D1*
X19969D2*
X20273D1*
X20759D2*
X21793D1*
X22055D2*
X23161D1*
X23476D2*
X24341D1*
X15884Y18724D2*
X16378D1*
X16954D2*
X17653D1*
X18297D2*
X18525D1*
X18677D2*
X19366D1*
X19969D2*
X20273D1*
X20852D2*
X21641D1*
X22111D2*
X22781D1*
X22933D2*
X23161D1*
X23543D2*
X24252D1*
X15941Y18648D2*
X16397D1*
X17081D2*
X17537D1*
X18297D2*
X18525D1*
X18753D2*
X19285D1*
X19969D2*
X20273D1*
X20957D2*
X21489D1*
X22173D2*
X22629D1*
X22933D2*
X23161D1*
X23617D2*
X24149D1*
X18297Y18572D2*
X18525D1*
X18297Y18496D2*
X18525D1*
X18297Y18420D2*
X18525D1*
X18297Y18344D2*
X18525D1*
X18297Y18268D2*
X18525D1*
X18298Y18192D2*
X18524D1*
X18302Y18116D2*
X18520D1*
X18337Y18040D2*
X18484D1*
X18456Y17964D2*
X18366D1*
X22438Y43273D2*
X22426Y43197D1*
X22407Y43121D1*
X22387Y43045D1*
X22363Y42969D1*
X22330Y42893D1*
X22170Y42817D1*
X21915Y42741D1*
X21602Y42665D1*
X23046Y43273D2*
X23081Y43197D1*
X23103Y43121D1*
X23117Y43045D1*
X23131Y42969D1*
X23176Y42893D1*
X23320Y42817D1*
X23539Y42741D1*
X23806Y42665D1*
X21374Y42893D2*
X21272Y42817D1*
X21177Y42741D1*
X21102Y42665D1*
X21048Y42589D1*
X21050Y42513D1*
X21085Y42437D1*
X21126Y42361D1*
X21172Y42285D1*
X21217Y42209D1*
X21253Y42133D1*
Y42057D1*
X21226Y41981D1*
X21159Y41905D1*
X21007Y41829D1*
X20836Y41753D1*
X20696Y41677D1*
X20595Y41601D1*
X20565Y41525D1*
X20549Y41449D1*
X20542Y41373D1*
X20539Y41297D1*
X20538Y41221D1*
Y41145D1*
X20803Y41069D1*
X21002Y40993D1*
X21148Y40917D1*
X21218Y40841D1*
X21252Y40765D1*
X21244Y40689D1*
X21199Y40613D1*
X21148Y40537D1*
X21100Y40461D1*
X21065Y40385D1*
X21043Y40309D1*
X21075Y40233D1*
X21145Y40157D1*
X21220Y40081D1*
X21297Y40005D1*
X21374Y39929D1*
X21526Y42893D2*
X21693Y42817D1*
X21899Y42741D1*
X22134Y42665D1*
X24034Y42893D2*
X23826Y42817D1*
X23567Y42741D1*
X23274Y42665D1*
X24186Y42893D2*
X24261Y42817D1*
X24335Y42741D1*
X24398Y42665D1*
X24449Y42589D1*
X24463Y42513D1*
X24444Y42437D1*
X24392Y42361D1*
X24328Y42285D1*
X24258Y42209D1*
X24186Y42133D1*
X24234Y42057D1*
X24289Y41981D1*
X24358Y41905D1*
X24510Y41829D1*
X24674Y41753D1*
X24823Y41677D1*
X24896Y41601D1*
X24922Y41525D1*
X24936Y41449D1*
X24942Y41373D1*
X24944Y41297D1*
X24945Y41221D1*
X24946Y41145D1*
X24690Y41069D1*
X24503Y40993D1*
X24367Y40917D1*
X24307Y40841D1*
X24287Y40765D1*
X24278Y40689D1*
X24310Y40613D1*
X24356Y40537D1*
X24407Y40461D1*
X24451Y40385D1*
X24464Y40309D1*
X24445Y40233D1*
X24389Y40157D1*
X24314Y40081D1*
X24217Y40005D1*
X24110Y39929D1*
X22514Y41905D2*
X22438Y41829D1*
X22362Y41753D1*
X22289Y41677D1*
X22226Y41601D1*
X22175Y41525D1*
X22159Y41449D1*
X22174Y41373D1*
X22203Y41297D1*
X22245Y41221D1*
X22302Y41145D1*
X22365Y41069D1*
X22422Y40993D1*
X22465Y40917D1*
X22462Y40841D1*
X22443Y40765D1*
X22413Y40689D1*
X22379Y40613D1*
X22342Y40537D1*
X22304Y40461D1*
X22267Y40385D1*
X22229Y40309D1*
X22193Y40233D1*
X22161Y40157D1*
X22134Y40081D1*
X22894Y41905D2*
X23031Y41829D1*
X23148Y41753D1*
X23237Y41677D1*
X23304Y41601D1*
X23328Y41525D1*
X23337Y41449D1*
X23333Y41373D1*
X23314Y41297D1*
X23280Y41221D1*
X23227Y41145D1*
X23150Y41069D1*
X23062Y40993D1*
X22970Y40917D1*
X23017Y40841D1*
X23060Y40765D1*
X23101Y40689D1*
X23140Y40613D1*
X23179Y40537D1*
X23217Y40461D1*
X23255Y40385D1*
X23293Y40309D1*
X23333Y40233D1*
X23377Y40157D1*
X23426Y40081D1*
X21906Y40157D2*
X21754Y40081D1*
X21602Y40005D1*
X21450Y39929D1*
X21982Y40157D2*
X22058Y40081D1*
X23730Y40157D2*
X23820Y40081D1*
X23922Y40005D1*
X24034Y39929D1*
X20006Y39549D2*
X19971Y39473D1*
X19949Y39397D1*
X19941Y39321D1*
X19948Y39245D1*
X19972Y39169D1*
X20006Y39093D1*
X20310Y39549D2*
X20345Y39473D1*
X20367Y39397D1*
X20378Y39321D1*
X20383Y39245D1*
X20385Y39169D1*
X20386Y39093D1*
X20538Y39549D2*
Y39473D1*
Y39397D1*
Y39321D1*
Y39245D1*
Y39169D1*
Y39093D1*
Y39017D1*
Y38941D1*
Y38865D1*
Y38789D1*
Y38713D1*
Y38637D1*
Y38561D1*
Y38485D1*
Y38409D1*
Y38333D1*
Y38257D1*
X20918Y39549D2*
X20994Y39473D1*
X21146Y39549D2*
X21070Y39473D1*
X21450Y39549D2*
X21485Y39473D1*
X21507Y39397D1*
X21518Y39321D1*
X21523Y39245D1*
X21525Y39169D1*
X21526Y39093D1*
X21678Y39549D2*
Y39473D1*
Y39397D1*
Y39321D1*
Y39245D1*
Y39169D1*
Y39093D1*
X22058Y39549D2*
X22093Y39473D1*
X22115Y39397D1*
X22126Y39321D1*
X22131Y39245D1*
X22133Y39169D1*
X22134Y39093D1*
X22514Y39549D2*
X22513Y39473D1*
X22511Y39397D1*
X22501Y39321D1*
X22482Y39245D1*
X22460Y39169D1*
X22438Y39093D1*
X22894Y39549D2*
X23122D2*
X23426D2*
X23502Y39473D1*
X23578Y39549D2*
X23502Y39473D1*
X23730Y39549D2*
Y39473D1*
X23736Y39397D1*
X23750Y39321D1*
X23809Y39245D1*
X23882Y39169D1*
X23958Y39549D2*
X23957Y39473D1*
X23951Y39397D1*
X23938Y39321D1*
X23878Y39245D1*
X23806Y39169D1*
X24566Y39549D2*
X24642Y39473D1*
X24718Y39549D2*
X24642Y39473D1*
X25022Y39549D2*
X25098Y39473D1*
X25174Y39549D2*
X25098Y39473D1*
X25478Y39549D2*
X25513Y39473D1*
X25535Y39397D1*
X25546Y39321D1*
X25551Y39245D1*
X25553Y39169D1*
X25554Y39093D1*
X20082Y39473D2*
X20088Y39397D1*
X20102Y39321D1*
X20161Y39245D1*
X20234Y39169D1*
X20158Y39473D2*
X20217Y39397D1*
X20269Y39321D1*
X20220Y39245D1*
X20158Y39169D1*
X20766Y39473D2*
X20706Y39397D1*
X20654Y39321D1*
X20703Y39245D1*
X20766Y39169D1*
X20842Y39473D2*
X20836Y39397D1*
X20822Y39321D1*
X20762Y39245D1*
X20690Y39169D1*
X21298Y39473D2*
X21257Y39397D1*
X21222Y39321D1*
X21298Y39473D2*
X21338Y39397D1*
X21374Y39321D1*
X21906Y39473D2*
X21845Y39397D1*
X21800Y39321D1*
X21775Y39245D1*
X21762Y39169D1*
X21754Y39093D1*
X21982Y39473D2*
Y39397D1*
Y39321D1*
Y39245D1*
Y39169D1*
Y39093D1*
X22742Y39473D2*
X22701Y39397D1*
X22666Y39321D1*
X22742Y39473D2*
X22782Y39397D1*
X22818Y39321D1*
X22894Y39473D2*
X22908Y39397D1*
X22934Y39321D1*
X22970Y39245D1*
X23046Y39473D2*
X23032Y39397D1*
X23005Y39321D1*
X22970Y39245D1*
X23274Y39473D2*
X23214Y39397D1*
X23162Y39321D1*
X23211Y39245D1*
X23274Y39169D1*
X23350Y39473D2*
X23344Y39397D1*
X23330Y39321D1*
X23270Y39245D1*
X23198Y39169D1*
X24338Y39473D2*
Y39397D1*
Y39321D1*
Y39245D1*
Y39169D1*
Y39093D1*
X24566Y39473D2*
X24569Y39397D1*
X24578Y39321D1*
X24597Y39245D1*
X24620Y39169D1*
X24642Y39093D1*
X24870Y39473D2*
X24808Y39397D1*
X24758Y39321D1*
X24718Y39245D1*
X24794Y39473D2*
X24918Y39397D1*
X25017Y39321D1*
X25098Y39245D1*
X24794Y39169D1*
X25326Y39473D2*
X25285Y39397D1*
X25250Y39321D1*
X25326Y39473D2*
X25366Y39397D1*
X25402Y39321D1*
X21222Y39169D2*
X20977Y39093D1*
X20799Y39017D1*
X20673Y38941D1*
X20614Y38865D1*
X20918Y38789D1*
X21070Y39169D2*
X21146Y39093D1*
X22970Y39169D2*
X22894Y39093D1*
X22970Y39169D2*
X23046Y39093D1*
X23502Y39169D2*
X23426Y39093D1*
X23578Y39169D2*
X23654Y39093D1*
X25098Y39169D2*
X25022Y39093D1*
X25098Y39169D2*
X25174Y39093D1*
X22438Y38941D2*
Y38865D1*
Y38789D1*
X21678D1*
Y38713D1*
Y38637D1*
Y38561D1*
Y38485D1*
Y38409D1*
Y38333D1*
Y38257D1*
X22514Y38941D2*
Y38865D1*
Y38789D1*
X22742D1*
X22813Y38713D1*
X22894Y38637D1*
X21146Y38789D2*
X21450D2*
X21485Y38713D1*
X21507Y38637D1*
X21518Y38561D1*
X21523Y38485D1*
X21525Y38409D1*
Y38333D1*
X21526Y38257D1*
X22970Y38789D2*
X22899Y38713D1*
X22818Y38637D1*
X23046Y38789D2*
X23095Y38713D1*
X23145Y38637D1*
X23198Y38561D1*
X23350Y38789D2*
X23300Y38713D1*
X23250Y38637D1*
X23198Y38561D1*
X23426Y38789D2*
X23502Y38713D1*
X23578Y38789D2*
X23502Y38713D1*
X23806Y38789D2*
X23917Y38713D1*
X24034Y38637D1*
Y38789D2*
X23998Y38713D1*
X23958Y38637D1*
X24414Y38789D2*
X24490Y38713D1*
X24566Y38789D2*
X24490Y38713D1*
X24794Y38789D2*
X24864Y38713D1*
X24915Y38637D1*
X24925Y38561D1*
X24901Y38485D1*
X24870Y38409D1*
X24946Y38333D1*
X24870Y38257D1*
X20994Y38713D2*
X21008Y38637D1*
X21034Y38561D1*
X21070Y38485D1*
X21146Y38713D2*
X21132Y38637D1*
X21105Y38561D1*
X21070Y38485D1*
X21298Y38713D2*
X21257Y38637D1*
X21222Y38561D1*
X21298Y38713D2*
X21338Y38637D1*
X21374Y38561D1*
X22514Y38713D2*
Y38637D1*
Y38561D1*
Y38485D1*
Y38409D1*
Y38333D1*
Y38257D1*
X22666Y38713D2*
X22678Y38637D1*
X22697Y38561D1*
X22719Y38485D1*
X22744Y38409D1*
X22778Y38333D1*
X22818Y38257D1*
X23654Y38713D2*
X23578Y38637D1*
X23654Y38561D1*
X23730Y38713D2*
X23806Y38637D1*
X23730Y38561D1*
X20614Y38637D2*
Y38561D1*
Y38485D1*
Y38409D1*
Y38333D1*
Y38257D1*
X20842Y38637D2*
Y38561D1*
Y38485D1*
Y38409D1*
Y38333D1*
Y38257D1*
X21906Y38637D2*
X21845Y38561D1*
X21800Y38485D1*
X21775Y38409D1*
X21762Y38333D1*
X21754Y38257D1*
X22058Y38637D2*
Y38561D1*
X22064Y38485D1*
X22078Y38409D1*
X22137Y38333D1*
X22210Y38257D1*
Y38637D2*
X22229Y38561D1*
X22289Y38485D1*
X22362Y38409D1*
X22438Y38637D2*
X22418Y38561D1*
X22359Y38485D1*
X22286Y38409D1*
X23426Y38637D2*
X23385Y38561D1*
X23350Y38485D1*
X23426Y38637D2*
X23466Y38561D1*
X23502Y38485D1*
X24186Y38637D2*
Y38561D1*
Y38485D1*
Y38409D1*
Y38333D1*
Y38257D1*
X24490Y38637D2*
Y38561D1*
X24493Y38485D1*
X24505Y38409D1*
X24531Y38333D1*
X24566Y38257D1*
X21298Y38485D2*
X21257Y38409D1*
X21222Y38333D1*
X21298Y38485D2*
X21338Y38409D1*
X21374Y38333D1*
X22970Y38485D2*
X22956Y38409D1*
X22929Y38333D1*
X22894Y38257D1*
X23122Y38485D2*
Y38409D1*
Y38333D1*
Y38257D1*
X23654Y38485D2*
X23578Y38409D1*
X23654Y38333D1*
X23730Y38485D2*
X23806Y38409D1*
X23730Y38333D1*
X24718Y38485D2*
X24677Y38409D1*
X24642Y38333D1*
X24718Y38485D2*
X24758Y38409D1*
X24794Y38333D1*
X23274Y38409D2*
Y38333D1*
Y38257D1*
X23426Y38409D2*
X23502Y38333D1*
X23578Y38257D1*
X21070Y38333D2*
X20994Y38257D1*
X21070Y38333D2*
X21146Y38257D1*
X22933Y23588D2*
X22872Y23512D1*
X22828Y23436D1*
X22798Y23360D1*
X22797Y23284D1*
X22824Y23208D1*
X22891Y23132D1*
X23072Y23056D1*
X23351Y22980D1*
X23693Y22904D1*
X23541Y22828D1*
X23619Y22752D1*
X23703Y22676D1*
X23790Y22600D1*
X23877Y22524D1*
X23965Y22448D1*
X24057Y22372D1*
X24149Y22296D1*
X23085Y23588D2*
X23192Y23512D1*
X23278Y23436D1*
X23242Y23360D1*
X23135Y23284D1*
X23009Y23208D1*
X23249Y23132D1*
X23468Y23056D1*
X23632Y22980D1*
X23772Y22904D1*
X23957Y22828D1*
X24221Y22752D1*
X24529Y22676D1*
X24149Y23512D2*
X23975Y23436D1*
X23827Y23360D1*
X23693Y23284D1*
X23769Y23208D1*
X23845Y23132D1*
X23921Y23056D1*
X23999Y22980D1*
X24082Y22904D1*
X24165Y22828D1*
X24238Y22752D1*
X24301Y22676D1*
X24681Y23512D2*
X24932Y23436D1*
X25114Y23360D1*
X25251Y23284D1*
X25310Y23208D1*
X25352Y23132D1*
X25385Y23056D1*
X25411Y22980D1*
X25427Y22904D1*
X25435Y22828D1*
Y22752D1*
X25424Y22676D1*
X25400Y22600D1*
X25332Y22524D1*
X25164Y22448D1*
X24911Y22372D1*
X24605Y22296D1*
X26049Y23512D2*
X26045Y23436D1*
X26037Y23360D1*
X25999Y23284D1*
X25916Y23208D1*
X25821Y23132D1*
X26353Y23512D2*
X26315Y23436D1*
X26281Y23360D1*
X26243Y23284D1*
X26201Y23208D1*
X23085Y23512D2*
X23009Y23436D1*
X23085Y23512D2*
X23161Y23436D1*
X26353D2*
X26356Y23360D1*
X26369Y23284D1*
X26400Y23208D1*
X26453Y23132D1*
X26526Y23056D1*
X26615Y22980D1*
X26705Y22904D1*
X26780Y22828D1*
X26838Y22752D1*
X26859Y22676D1*
X26776Y22600D1*
X26671Y22524D1*
X26550Y22448D1*
X26412Y22372D1*
X26262Y22296D1*
X26106Y22220D1*
X25959Y22144D1*
X25821Y22068D1*
X25967Y21992D1*
X26087Y21916D1*
X26188Y21840D1*
X26283Y21764D1*
X26382Y21688D1*
X26481Y21612D1*
X26583Y21536D1*
X26693Y21460D1*
X26809Y21384D1*
X26689Y21308D1*
X26552Y21232D1*
X26403Y21156D1*
X26258Y21080D1*
X26129Y21004D1*
X26027Y20928D1*
X25954Y20852D1*
X25897Y20776D1*
X22781Y23436D2*
X22859Y23360D1*
X22951Y23284D1*
X23087Y23208D1*
X23279Y23132D1*
X23479Y23056D1*
X23636Y22980D1*
X23773Y22904D1*
X23958Y22828D1*
X24221Y22752D1*
X24529Y22676D1*
X23009Y23360D2*
X23085Y23284D1*
X26125Y23360D2*
X26160Y23284D1*
X26201Y23208D1*
X25745D2*
X25795Y23132D1*
X25852Y23056D1*
X25928Y22980D1*
X26031Y22904D1*
X26150Y22828D1*
X26258Y22752D1*
X26353Y22676D1*
X26107Y22600D1*
X25864Y22524D1*
X25649Y22448D1*
X25473Y22372D1*
X25315Y22296D1*
X25139Y22220D1*
X24923Y22144D1*
X24687Y22068D1*
X24453Y21992D1*
X24529Y21916D1*
X24605Y21840D1*
X24681Y21764D1*
X24757Y21688D1*
X24833Y21612D1*
X24909Y21536D1*
X24862Y21460D1*
X24818Y21384D1*
X24771Y21308D1*
X24711Y21232D1*
X24627Y21156D1*
X24529Y21080D1*
X25821Y23208D2*
X25897Y23132D1*
X24681Y22904D2*
X24695Y22828D1*
X24721Y22752D1*
X24757Y22676D1*
X24985Y22904D2*
X24895Y22828D1*
X24792Y22752D1*
X24681Y22676D1*
X27417Y22068D2*
X27367Y21992D1*
X27316Y21916D1*
X27264Y21840D1*
X27214Y21764D1*
X27164Y21688D1*
X27112Y21612D1*
X27062Y21536D1*
X27009Y21460D1*
X26944Y21384D1*
X26863Y21308D1*
X26760Y21232D1*
X26638Y21156D1*
X26512Y21080D1*
X26396Y21004D1*
X26297Y20928D1*
X26209Y20852D1*
X26131Y20776D1*
X26063Y20700D1*
X26007Y20624D1*
X25960Y20548D1*
X25918Y20472D1*
X25879Y20396D1*
X25840Y20320D1*
X25805Y20244D1*
X25774Y20168D1*
X25747Y20092D1*
X25720Y20016D1*
X25697Y19940D1*
X25683Y19864D1*
X25676Y19788D1*
X25701Y19712D1*
X25805Y19636D1*
X25953Y19560D1*
X26125Y19484D1*
X26075Y19408D1*
X26025Y19332D1*
X25973Y19256D1*
X25745Y22068D2*
X25669Y21992D1*
X25596Y21916D1*
X25530Y21840D1*
X25475Y21764D1*
X25428Y21688D1*
X25386Y21612D1*
X25347Y21536D1*
X25308Y21460D1*
X25270Y21384D1*
X25232Y21308D1*
X25194Y21232D1*
X25153Y21156D1*
X25105Y21080D1*
X25046Y21004D1*
X24978Y20928D1*
X24903Y20852D1*
X24816Y20776D1*
X24710Y20700D1*
X24586Y20624D1*
X24453Y20548D1*
X25821Y21992D2*
X25748Y21916D1*
X25682Y21840D1*
X25627Y21764D1*
X25583Y21688D1*
X25551Y21612D1*
X25530Y21536D1*
X25511Y21460D1*
X25489Y21384D1*
X25470Y21308D1*
X25460Y21232D1*
X25482Y21156D1*
X25521Y21080D1*
X25583Y21004D1*
X25659Y20928D1*
X25740Y20852D1*
X25821Y20776D1*
X27417Y21992D2*
X27490Y21916D1*
X27556Y21840D1*
X27611Y21764D1*
X27658Y21688D1*
X27706Y21612D1*
X27767Y21536D1*
X27851Y21460D1*
X27949Y21384D1*
X23845Y21688D2*
X23857Y21612D1*
X23875Y21536D1*
X23892Y21460D1*
X23901Y21384D1*
X23877Y21308D1*
X23845Y21232D1*
X23921Y21612D2*
X23971Y21536D1*
X24031Y21460D1*
X24116Y21384D1*
X24236Y21308D1*
X24377Y21232D1*
X24529Y21612D2*
X24481Y21536D1*
X24435Y21460D1*
X24380Y21384D1*
X24309Y21308D1*
X24225Y21232D1*
X24529Y21536D2*
Y21460D1*
Y21384D1*
X24532Y21308D1*
X24544Y21232D1*
X24570Y21156D1*
X24605Y21080D1*
X28101Y21536D2*
X27913Y21460D1*
X27721Y21384D1*
X28177Y21536D2*
X28147Y21460D1*
X28155Y21384D1*
X28200Y21308D1*
X28253Y21232D1*
X28177Y21156D1*
X28101Y21080D1*
X28177Y21004D1*
X23541Y21384D2*
X23581Y21308D1*
X23633Y21232D1*
X23688Y21156D1*
X23741Y21080D1*
X23796Y21004D1*
X23858Y20928D1*
X23930Y20852D1*
X24018Y20776D1*
X24135Y20700D1*
X24285Y20624D1*
X24453Y20548D1*
X27493Y21460D2*
X27359Y21384D1*
X27248Y21308D1*
X27168Y21232D1*
X27112Y21156D1*
X27075Y21080D1*
X27054Y21004D1*
X27044Y20928D1*
X27039Y20852D1*
X27038Y20776D1*
X27037Y20700D1*
X27034Y20624D1*
X27024Y20548D1*
X27003Y20472D1*
X26974Y20396D1*
X26942Y20320D1*
X26916Y20244D1*
X26899Y20168D1*
X26890Y20092D1*
X26885Y20016D1*
X27493Y21460D2*
X27505Y21384D1*
X27527Y21308D1*
X27565Y21232D1*
X27618Y21156D1*
X27737Y21080D1*
X27873Y21004D1*
X23769Y21308D2*
X23845Y21232D1*
X27189Y20700D2*
Y20624D1*
X27188Y20548D1*
X27186Y20472D1*
X27176Y20396D1*
X27158Y20320D1*
X27138Y20244D1*
X27125Y20168D1*
X27118Y20092D1*
X27115Y20016D1*
X27114Y19940D1*
X27117Y19864D1*
X27124Y19788D1*
X27171Y19712D1*
X27244Y19636D1*
X27340Y19560D1*
X27455Y19484D1*
X27589Y19408D1*
X27744Y19332D1*
X27922Y19256D1*
X28121Y19180D1*
X28329Y19104D1*
X28481Y20700D2*
X28300Y20624D1*
X28149Y20548D1*
X28038Y20472D1*
X27955Y20396D1*
X27918Y20320D1*
X27923Y20244D1*
X27944Y20168D1*
X27976Y20092D1*
X28025Y20016D1*
X28094Y19940D1*
X28177Y19864D1*
X28861Y20700D2*
X29080Y20624D1*
X29266Y20548D1*
X29418Y20472D1*
X29545Y20396D1*
X29647Y20320D1*
X29725Y20244D1*
X29791Y20168D1*
X29855Y20092D1*
X29913Y20016D1*
X29956Y19940D1*
X29980Y19864D1*
X29992Y19788D1*
X29998Y19712D1*
X29999Y19636D1*
X29997Y19560D1*
X29984Y19484D1*
X29960Y19408D1*
X29887Y19332D1*
X29779Y19256D1*
X29634Y19180D1*
X29469Y19104D1*
X27265Y20624D2*
X27280Y20548D1*
X27311Y20472D1*
X27362Y20396D1*
X27425Y20320D1*
X27496Y20244D1*
X27573Y20168D1*
X27658Y20092D1*
X27752Y20016D1*
X27850Y19940D1*
X27952Y19864D1*
X28068Y19788D1*
X28218Y19712D1*
X28441Y19636D1*
X28770Y19560D1*
X29165Y19484D1*
X19969Y20548D2*
X19938Y20472D1*
X19941Y20396D1*
X19954Y20320D1*
X19969Y20244D1*
X20273Y20548D2*
X20270Y20472D1*
X20258Y20396D1*
X20232Y20320D1*
X20197Y20244D1*
X28405Y20472D2*
X28283Y20396D1*
X28182Y20320D1*
X28131Y20244D1*
X28215Y20168D1*
X28409Y20092D1*
X28633Y20016D1*
X28861Y20472D2*
X29010Y20396D1*
X29149Y20320D1*
X29270Y20244D1*
X29371Y20168D1*
X29457Y20092D1*
X29525Y20016D1*
X29578Y19940D1*
X29601Y19864D1*
X29539Y19788D1*
X29392Y19712D1*
X29149Y19636D1*
X28777Y19560D1*
X28329Y19484D1*
X15789Y20320D2*
Y20244D1*
Y20168D1*
Y20092D1*
Y20016D1*
Y19940D1*
X15485D1*
Y19864D1*
Y19788D1*
Y19712D1*
Y19636D1*
X15789D1*
Y19560D1*
Y19484D1*
Y19408D1*
Y19332D1*
Y19256D1*
Y19180D1*
Y19104D1*
Y19028D1*
X15792Y18952D1*
X15805Y18876D1*
X15835Y18800D1*
X15884Y18724D1*
X15941Y18648D1*
X16017Y20320D2*
Y20244D1*
Y20168D1*
Y20092D1*
Y20016D1*
Y19940D1*
X16397D1*
Y19864D1*
Y19788D1*
Y19712D1*
Y19636D1*
X16017D1*
Y19560D1*
Y19484D1*
Y19408D1*
Y19332D1*
Y19256D1*
X16021Y19180D1*
X16031Y19104D1*
X16083Y19028D1*
X16187Y18952D1*
X16281Y18876D1*
X16353Y18800D1*
X16378Y18724D1*
X16397Y18648D1*
X26429Y20320D2*
X26344Y20244D1*
X26259Y20168D1*
X26182Y20092D1*
X26114Y20016D1*
X26049Y19940D1*
X26168Y19864D1*
X26327Y19788D1*
X26504Y19712D1*
X26651Y19636D1*
X26765Y19560D1*
X26749Y19484D1*
X26720Y19408D1*
X26688Y19332D1*
X26658Y19256D1*
X26620Y19180D1*
X26578Y19104D1*
X26544Y19028D1*
X26521Y18952D1*
X26505Y18876D1*
X26581Y20320D2*
X26657Y20244D1*
X26733Y20168D1*
X26809Y20092D1*
X26885Y20016D1*
X28557Y20244D2*
X28633Y20168D1*
X28450Y20092D1*
X28253Y20016D1*
X28633Y20244D2*
X28702Y20168D1*
X28753Y20092D1*
X28769Y20016D1*
X28598Y19940D1*
X28311Y19864D1*
X27949Y19788D1*
X17005Y19940D2*
X16894Y19864D1*
X16799Y19788D1*
X16724Y19712D1*
X16672Y19636D1*
X16634Y19560D1*
X16603Y19484D1*
X16578Y19408D1*
X16565Y19332D1*
X16568Y19256D1*
X16585Y19180D1*
X16613Y19104D1*
X16647Y19028D1*
X16689Y18952D1*
X16749Y18876D1*
X16838Y18800D1*
X16954Y18724D1*
X17081Y18648D1*
X17613Y19940D2*
X17721Y19864D1*
X17809Y19788D1*
X17875Y19712D1*
X17923Y19636D1*
X17957Y19560D1*
X17977Y19484D1*
X17986Y19408D1*
X17990Y19332D1*
X17992Y19256D1*
X17989Y19180D1*
X17979Y19104D1*
X17956Y19028D1*
X17914Y18952D1*
X17848Y18876D1*
X17760Y18800D1*
X17653Y18724D1*
X17537Y18648D1*
X18297Y19940D2*
Y19864D1*
Y19788D1*
Y19712D1*
Y19636D1*
Y19560D1*
Y19484D1*
Y19408D1*
Y19332D1*
Y19256D1*
Y19180D1*
Y19104D1*
Y19028D1*
Y18952D1*
Y18876D1*
Y18800D1*
Y18724D1*
Y18648D1*
Y18572D1*
Y18496D1*
Y18420D1*
Y18344D1*
Y18268D1*
X18298Y18192D1*
X18302Y18116D1*
X18337Y18040D1*
X18456Y17964D1*
X18601Y17888D1*
X18525Y19940D2*
X18601Y19864D1*
X18677Y19940D2*
X18601Y19864D1*
X19285Y19940D2*
X19393Y19864D1*
X19481Y19788D1*
X19547Y19712D1*
X19595Y19636D1*
X19629Y19560D1*
X19649Y19484D1*
X19658Y19408D1*
X19662Y19332D1*
X19664Y19256D1*
X19661Y19180D1*
X19651Y19104D1*
X19628Y19028D1*
X19586Y18952D1*
X19524Y18876D1*
X19447Y18800D1*
X19366Y18724D1*
X19285Y18648D1*
X19969Y19940D2*
Y19864D1*
Y19788D1*
Y19712D1*
Y19636D1*
Y19560D1*
Y19484D1*
Y19408D1*
Y19332D1*
Y19256D1*
Y19180D1*
Y19104D1*
Y19028D1*
Y18952D1*
Y18876D1*
Y18800D1*
Y18724D1*
Y18648D1*
X20273Y19940D2*
Y19864D1*
Y19788D1*
Y19712D1*
Y19636D1*
Y19560D1*
Y19484D1*
Y19408D1*
Y19332D1*
Y19256D1*
Y19180D1*
Y19104D1*
Y19028D1*
Y18952D1*
Y18876D1*
Y18800D1*
Y18724D1*
Y18648D1*
X20957Y19940D2*
X20846Y19864D1*
X20751Y19788D1*
X20677Y19712D1*
X20618Y19636D1*
X20594Y19560D1*
X20573Y19484D1*
X20552Y19408D1*
X20540Y19332D1*
X20545Y19256D1*
X20560Y19180D1*
X20580Y19104D1*
X20606Y19028D1*
X20641Y18952D1*
X20690Y18876D1*
X20759Y18800D1*
X20852Y18724D1*
X20957Y18648D1*
X21565Y19940D2*
X21681Y19864D1*
X21793Y19788D1*
X21717Y19712D1*
X21641Y19636D1*
X21945Y19940D2*
Y19864D1*
Y19788D1*
Y19712D1*
Y19636D1*
Y19560D1*
Y19484D1*
Y19408D1*
Y19332D1*
Y19256D1*
Y19180D1*
X21948Y19104D1*
X21958Y19028D1*
X21979Y18952D1*
X22011Y18876D1*
X22055Y18800D1*
X22111Y18724D1*
X22173Y18648D1*
Y19940D2*
Y19864D1*
Y19788D1*
Y19712D1*
Y19636D1*
Y19560D1*
Y19484D1*
Y19408D1*
Y19332D1*
X22176Y19256D1*
X22187Y19180D1*
X22209Y19104D1*
X22286Y19028D1*
X22476Y18952D1*
X22705Y18876D1*
X22933Y19940D2*
Y19864D1*
Y19788D1*
Y19712D1*
Y19636D1*
Y19560D1*
X22932Y19484D1*
X22930Y19408D1*
X22920Y19332D1*
X22899Y19256D1*
X22868Y19180D1*
X22830Y19104D1*
X22748Y19028D1*
X22555Y18952D1*
X22325Y18876D1*
X23161Y19940D2*
Y19864D1*
Y19788D1*
Y19712D1*
Y19636D1*
Y19560D1*
Y19484D1*
Y19408D1*
Y19332D1*
Y19256D1*
Y19180D1*
Y19104D1*
Y19028D1*
Y18952D1*
Y18876D1*
Y18800D1*
Y18724D1*
Y18648D1*
X23693Y19940D2*
X23597Y19864D1*
X23519Y19788D1*
X23491Y19712D1*
X23476Y19636D1*
X23472Y19560D1*
X23476Y19484D1*
X23508Y19408D1*
X23602Y19332D1*
X23739Y19256D1*
X23893Y19180D1*
X24016Y19104D1*
X24104Y19028D1*
X24149Y18952D1*
X23769Y18876D1*
X24225Y19940D2*
X24294Y19864D1*
X24347Y19788D1*
X24292Y19712D1*
X24225Y19636D1*
X17461Y19788D2*
X17263Y19712D1*
X17101Y19636D1*
X16971Y19560D1*
X16904Y19484D1*
X16878Y19408D1*
X16866Y19332D1*
X16870Y19256D1*
X16890Y19180D1*
X16923Y19104D1*
X17019Y19028D1*
X17256Y18952D1*
X17537Y18876D1*
X17157Y19788D2*
X17352Y19712D1*
X17507Y19636D1*
X17613Y19560D1*
X17681Y19484D1*
X17731Y19408D1*
X17746Y19332D1*
X17745Y19256D1*
X17731Y19180D1*
X17684Y19104D1*
X17524Y19028D1*
X17259Y18952D1*
X16929Y18876D1*
X19133Y19788D2*
X18935Y19712D1*
X18773Y19636D1*
X18643Y19560D1*
X18576Y19484D1*
X18549Y19408D1*
X18535Y19332D1*
X18532Y19256D1*
X18536Y19180D1*
X18572Y19104D1*
X18707Y19028D1*
X18929Y18952D1*
X19209Y18876D1*
X18829Y19788D2*
X19024Y19712D1*
X19179Y19636D1*
X19285Y19560D1*
X19353Y19484D1*
X19403Y19408D1*
X19417Y19332D1*
X19421Y19256D1*
X19395Y19180D1*
X19337Y19104D1*
X19191Y19028D1*
X18961Y18952D1*
X18677Y18876D1*
X23997Y19788D2*
X23873Y19712D1*
X23774Y19636D1*
X23693Y19560D1*
X23894Y19484D1*
X24078Y19408D1*
X24225Y19332D1*
X24329Y19256D1*
X24405Y19180D1*
X24429Y19104D1*
X24440Y19028D1*
Y18952D1*
X24403Y18876D1*
X24341Y18800D1*
X24252Y18724D1*
X24149Y18648D1*
X23845Y19788D2*
X23997Y19712D1*
X24149Y19636D1*
X21033Y19712D2*
X20960Y19636D1*
X20897Y19560D1*
X20852Y19484D1*
X20826Y19408D1*
X20814Y19332D1*
X20812Y19256D1*
X20817Y19180D1*
X20861Y19104D1*
X21017Y19028D1*
X21263Y18952D1*
X21565Y18876D1*
X21413Y19712D2*
X21489Y19636D1*
X26049Y19256D2*
X26201Y19332D2*
Y19256D1*
Y19180D1*
Y19104D1*
Y19028D1*
Y18952D1*
X26429Y19180D2*
X26353Y19104D1*
X26277Y19028D1*
X26201Y18952D1*
X26505Y19180D2*
Y19104D1*
Y19028D1*
Y18952D1*
Y18876D1*
X21565Y19028D2*
X21311Y18952D1*
X21033Y18876D1*
X23541Y19028D2*
X23481Y18952D1*
X23429Y18876D1*
X23476Y18800D1*
X23543Y18724D1*
X23617Y18648D1*
X21641Y18952D2*
X21717Y18876D1*
X21793Y18800D1*
X21641Y18724D1*
X21489Y18648D1*
X23693Y18952D2*
X23769Y18876D1*
X18525Y18800D2*
Y18724D1*
Y18648D1*
Y18572D1*
Y18496D1*
Y18420D1*
Y18344D1*
Y18268D1*
X18524Y18192D1*
X18520Y18116D1*
X18484Y18040D1*
X18366Y17964D1*
X18221Y17888D1*
X18601Y18800D2*
X18677Y18724D1*
X18753Y18648D1*
X22933Y18800D2*
X22781Y18724D1*
X22629Y18648D1*
X22933Y18800D2*
Y18724D1*
Y18648D1*
X30727Y33506D2*
D53*
X31164D1*
X31310Y33556D1*
X31360Y33604D1*
X31408Y33701D1*
Y33798D1*
X31360Y33895D1*
X31310Y33944D1*
X31164Y33993D1*
X30727D1*
Y32972D1*
X31068Y33506D2*
X31408Y32972D1*
X31722Y33993D2*
X32402Y32972D1*
Y33993D2*
X31722Y32972D1*
X31045Y31453D2*
Y30432D1*
X31385D1*
X31531Y30481D1*
X31629Y30578D1*
X31677Y30676D1*
X31725Y30820D1*
Y31064D1*
X31677Y31210D1*
X31629Y31307D1*
X31531Y31404D1*
X31385Y31453D1*
X31045D1*
X32039Y31257D2*
X32137Y31307D1*
X32283Y31452D1*
Y30432D1*
X30727Y28913D2*
Y27892D1*
X31068D1*
X31214Y27941D1*
X31311Y28038D1*
X31360Y28136D1*
X31408Y28280D1*
Y28524D1*
X31360Y28670D1*
X31311Y28767D1*
X31214Y28864D1*
X31068Y28913D1*
X30727D1*
X31771Y28669D2*
Y28717D1*
X31819Y28815D1*
X31868Y28863D1*
X31965Y28912D1*
X32160D1*
X32256Y28863D1*
X32304Y28815D1*
X32354Y28717D1*
Y28621D1*
X32304Y28523D1*
X32208Y28378D1*
X31722Y27892D1*
X32402D1*
X30727Y26373D2*
Y25352D1*
X31068D1*
X31214Y25401D1*
X31311Y25498D1*
X31360Y25596D1*
X31408Y25740D1*
Y25984D1*
X31360Y26130D1*
X31311Y26227D1*
X31214Y26324D1*
X31068Y26373D1*
X30727D1*
X31819Y26372D2*
X32353D1*
X32062Y25983D1*
X32208D1*
X32304Y25935D1*
X32353Y25886D1*
X32402Y25740D1*
Y25644D1*
X32353Y25498D1*
X32256Y25400D1*
X32110Y25352D1*
X31964D1*
X31819Y25400D1*
X31771Y25450D1*
X31722Y25546D1*
X30727Y23833D2*
Y22812D1*
X31068D1*
X31214Y22861D1*
X31311Y22958D1*
X31360Y23056D1*
X31408Y23200D1*
Y23444D1*
X31360Y23590D1*
X31311Y23687D1*
X31214Y23784D1*
X31068Y23833D1*
X30727D1*
X32208Y22812D2*
Y23832D1*
X31722Y23152D1*
X32450D1*
X32091Y21050D2*
X32043Y21147D1*
X31945Y21244D1*
X31849Y21293D1*
X31654D1*
X31557Y21244D1*
X31460Y21147D1*
X31411Y21050D1*
X31362Y20904D1*
Y20660D1*
X31411Y20516D1*
X31460Y20418D1*
X31557Y20321D1*
X31654Y20272D1*
X31849D1*
X31945Y20321D1*
X32043Y20418D1*
X32091Y20516D1*
Y20660D1*
X31849D1*
X31310Y18752D2*
X30825D1*
X30777Y18315D1*
X30825Y18363D1*
X30971Y18412D1*
X31116D1*
X31262Y18363D1*
X31360Y18266D1*
X31408Y18120D1*
Y18024D1*
X31360Y17878D1*
X31262Y17780D1*
X31116Y17732D1*
X30971D1*
X30825Y17780D1*
X30777Y17830D1*
X30727Y17926D1*
X31722Y18753D2*
X32110Y17732D1*
X32499Y18753D1*
X13726Y32972D2*
X13336Y33993D1*
X12947Y32972D1*
X13093Y33312D2*
X13580D1*
X14331Y33992D2*
X14185Y33943D1*
X14088Y33797D1*
X14039Y33555D1*
Y33409D1*
X14088Y33166D1*
X14185Y33020D1*
X14331Y32972D1*
X14428D1*
X14574Y33020D1*
X14670Y33166D1*
X14720Y33409D1*
Y33555D1*
X14670Y33797D1*
X14574Y33943D1*
X14428Y33992D1*
X14331D1*
X14670Y33797D2*
X14088Y33166D1*
X12947Y31453D2*
Y30432D1*
X13288D1*
X13434Y30481D1*
X13531Y30578D1*
X13580Y30676D1*
X13628Y30820D1*
Y31064D1*
X13580Y31210D1*
X13531Y31307D1*
X13434Y31404D1*
X13288Y31453D1*
X12947D1*
X14234Y31452D2*
X14088Y31403D1*
X13990Y31257D1*
X13942Y31015D1*
Y30869D1*
X13990Y30626D1*
X14088Y30480D1*
X14234Y30432D1*
X14330D1*
X14476Y30480D1*
X14573Y30626D1*
X14622Y30869D1*
Y31015D1*
X14573Y31257D1*
X14476Y31403D1*
X14330Y31452D1*
X14234D1*
X14573Y31257D2*
X13990Y30626D1*
X12947Y28913D2*
Y27892D1*
X13288D1*
X13434Y27941D1*
X13531Y28038D1*
X13580Y28136D1*
X13628Y28280D1*
Y28524D1*
X13580Y28670D1*
X13531Y28767D1*
X13434Y28864D1*
X13288Y28913D1*
X12947D1*
X14524Y28912D2*
X14039D1*
X13991Y28475D1*
X14039Y28523D1*
X14185Y28572D1*
X14330D1*
X14476Y28523D1*
X14574Y28426D1*
X14622Y28280D1*
Y28184D1*
X14574Y28038D1*
X14476Y27940D1*
X14330Y27892D1*
X14185D1*
X14039Y27940D1*
X13991Y27990D1*
X13942Y28086D1*
X12947Y26373D2*
Y25352D1*
X13288D1*
X13434Y25401D1*
X13531Y25498D1*
X13580Y25596D1*
X13628Y25740D1*
Y25984D1*
X13580Y26130D1*
X13531Y26227D1*
X13434Y26324D1*
X13288Y26373D1*
X12947D1*
X14524Y26227D2*
X14476Y26323D1*
X14330Y26372D1*
X14234D1*
X14088Y26323D1*
X13990Y26177D1*
X13942Y25935D1*
Y25692D1*
X13990Y25498D1*
X14088Y25400D1*
X14234Y25352D1*
X14282D1*
X14427Y25400D1*
X14524Y25498D1*
X14573Y25644D1*
Y25692D1*
X14524Y25838D1*
X14427Y25935D1*
X14282Y25983D1*
X14234D1*
X14088Y25935D1*
X13990Y25838D1*
X13942Y25692D1*
X12947Y23833D2*
Y22812D1*
X13288D1*
X13434Y22861D1*
X13531Y22958D1*
X13580Y23056D1*
X13628Y23200D1*
Y23444D1*
X13580Y23590D1*
X13531Y23687D1*
X13434Y23784D1*
X13288Y23833D1*
X12947D1*
X14136Y22812D2*
X14622Y23832D1*
X13942D1*
X13045Y18752D2*
X13578D1*
X13288Y18363D1*
X13434D1*
X13530Y18315D1*
X13578Y18266D1*
X13628Y18120D1*
Y18024D1*
X13578Y17878D1*
X13482Y17780D1*
X13336Y17732D1*
X13190D1*
X13045Y17780D1*
X12997Y17830D1*
X12947Y17926D1*
X13942Y18753D2*
X14330Y17732D1*
X14719Y18753D1*
X15130Y18752D2*
X15664D1*
X15373Y18363D1*
X15519D1*
X15615Y18315D1*
X15664Y18266D1*
X15713Y18120D1*
Y18024D1*
X15664Y17878D1*
X15567Y17780D1*
X15421Y17732D1*
X15275D1*
X15130Y17780D1*
X15082Y17830D1*
X15032Y17926D1*
X17612Y13046D2*
D17*
Y10749D1*
X18975Y13046D2*
X18755Y12937D1*
X18537Y12717D1*
X18426Y12500D1*
X18318Y12172D1*
Y11623D1*
X18426Y11297D1*
X18537Y11077D1*
X18755Y10860D1*
X18975Y10749D1*
X19412D1*
X19629Y10860D1*
X19849Y11077D1*
X19958Y11297D1*
X20066Y11623D1*
Y12172D1*
X19958Y12500D1*
X19849Y12717D1*
X19629Y12937D1*
X19412Y13046D1*
X18975D1*
X21538D2*
Y10749D1*
X20772Y13046D2*
X22303D1*
X24760Y10749D2*
X23884Y13046D1*
X23009Y10749D1*
X23338Y11515D2*
X24432D1*
X12947Y21293D2*
D53*
Y20272D1*
X13288D1*
X13434Y20321D1*
X13531Y20418D1*
X13580Y20516D1*
X13628Y20660D1*
Y20904D1*
X13580Y21050D1*
X13531Y21147D1*
X13434Y21244D1*
X13288Y21293D1*
X12947D1*
X14184Y21292D2*
X14039Y21243D1*
X13990Y21147D1*
Y21049D1*
X14039Y20952D1*
X14136Y20903D1*
X14330Y20855D1*
X14476Y20806D1*
X14573Y20709D1*
X14621Y20612D1*
Y20466D1*
X14573Y20370D1*
X14524Y20320D1*
X14378Y20272D1*
X14184D1*
X14039Y20320D1*
X13990Y20370D1*
X13942Y20466D1*
Y20612D1*
X13990Y20709D1*
X14088Y20806D1*
X14232Y20855D1*
X14427Y20903D1*
X14524Y20952D1*
X14573Y21049D1*
Y21147D1*
X14524Y21243D1*
X14378Y21292D1*
X14184D1*
M02*
