M48
METRIC,0000.00
T01C0.5
T02C0.9
T03C1.2
T04C1.8
%
T01
X+002652Y+002716
X+002271Y+002716
X+001763Y+002716
X+001763Y+003287
X+001949Y+003287
X+001666Y+003478
X+001604Y+003859
X+001519Y+004186
X+001162Y+004016
X+002017Y+003859
X+002525Y+003859
X+002938Y+003859
X+003066Y+003478
X+002652Y+003287
X+003033Y+002716
X+002652Y+002271
X+002835Y+001977
X+002962Y+001977
X+002271Y+001954
X+001949Y+001827
X+001763Y+001700
X+001604Y+001700
X+001604Y+001954
X+001763Y+001954
X+002271Y+001382
X+001446Y+001255
X+003414Y+001255
T02
X+003414Y+001827
X+003414Y+002081
X+003414Y+002335
X+003414Y+002589
X+003414Y+002843
X+003414Y+003097
X+003414Y+003351
X+003414Y+003605
X+001128Y+003605
X+001128Y+003351
X+001128Y+003097
X+001128Y+002843
X+001128Y+002589
X+001128Y+002335
X+001128Y+002081
X+001128Y+001827
T03
X+001646Y+002966
X+001646Y+002466
X+002896Y+002466
X+002896Y+002966
T04
X+002271Y+003166
X+002271Y+002266
T00
M30
