G04 DipTrace 2.4.0.2*
%INiota.GBO*%
%MOMM*%
%ADD10C,0.25*%
%ADD12C,0.076*%
%ADD18C,1.27*%
%ADD53C,0.157*%
%ADD54C,0.118*%
%FSLAX53Y53*%
G04*
G71*
G90*
G75*
G01*
%LNBotSilk*%
%LPD*%
X35411Y16996D2*
D10*
Y37316D1*
X32871Y16996D2*
X35411D1*
X32871D2*
Y37316D1*
X35411D1*
X12551Y16996D2*
Y37316D1*
X10011Y16996D2*
X12551D1*
X10011D2*
Y37316D1*
X12551D1*
D18*
X34141Y11281D3*
X12793Y41981D2*
D12*
X13477D1*
X12758Y41905D2*
X13649D1*
X12736Y41829D2*
X13788D1*
X23736D2*
X24268D1*
X12725Y41753D2*
X13891D1*
X23736D2*
X24268D1*
X12720Y41677D2*
X13963D1*
X23736D2*
X24268D1*
X31716D2*
X32172D1*
X12718Y41601D2*
X14017D1*
X23736D2*
X24268D1*
X31716D2*
X32172D1*
X12717Y41525D2*
X12793D1*
X13459D2*
X14061D1*
X23736D2*
X24268D1*
X31716D2*
X32172D1*
X13567Y41449D2*
X14099D1*
X23736D2*
X24268D1*
X31716D2*
X32172D1*
X13650Y41373D2*
X14128D1*
X23736D2*
X24268D1*
X31716D2*
X32172D1*
X13690Y41297D2*
X14146D1*
X31716D2*
X32172D1*
X13724Y41221D2*
X14154D1*
X31716D2*
X32172D1*
X13751Y41145D2*
X14158D1*
X31716D2*
X32172D1*
X13767Y41069D2*
X14160D1*
X31716D2*
X32172D1*
X13775Y40993D2*
X14160D1*
X31716D2*
X32172D1*
X13779Y40917D2*
X14161D1*
X15681D2*
X16213D1*
X18949D2*
X19557D1*
X21456D2*
X22064D1*
X25636D2*
X26168D1*
X28904D2*
X29512D1*
X31716D2*
X32172D1*
X12945Y40841D2*
X14541D1*
X15535D2*
X16371D1*
X16897D2*
X17353D1*
X18773D2*
X19740D1*
X21261D2*
X22272D1*
X23812D2*
X24268D1*
X25499D2*
X26341D1*
X26852D2*
X27308D1*
X28729D2*
X29696D1*
X30804D2*
X32476D1*
X12945Y40765D2*
X14541D1*
X15415D2*
X16512D1*
X16894D2*
X17353D1*
X18622D2*
X19901D1*
X21109D2*
X22436D1*
X23812D2*
X24268D1*
X25379D2*
X26486D1*
X26849D2*
X27308D1*
X28577D2*
X29857D1*
X30804D2*
X32476D1*
X12945Y40689D2*
X14541D1*
X15320D2*
X16642D1*
X16882D2*
X17353D1*
X18494D2*
X20033D1*
X20996D2*
X22559D1*
X23812D2*
X24268D1*
X25280D2*
X26610D1*
X26837D2*
X27308D1*
X28449D2*
X29989D1*
X30804D2*
X32476D1*
X12945Y40613D2*
X14541D1*
X15244D2*
X16769D1*
X16856D2*
X17353D1*
X18391D2*
X20137D1*
X20959D2*
X22657D1*
X23812D2*
X24268D1*
X25202D2*
X26730D1*
X26811D2*
X27308D1*
X28346D2*
X30093D1*
X30804D2*
X32476D1*
X12945Y40537D2*
X14541D1*
X15185D2*
X17353D1*
X18313D2*
X20218D1*
X20939D2*
X22742D1*
X23812D2*
X24268D1*
X25141D2*
X27308D1*
X28268D2*
X30174D1*
X30804D2*
X32476D1*
X12945Y40461D2*
X14541D1*
X15140D2*
X15757D1*
X16362D2*
X17353D1*
X18249D2*
X18963D1*
X19553D2*
X20282D1*
X20930D2*
X21547D1*
X22035D2*
X22819D1*
X23812D2*
X24268D1*
X25093D2*
X25803D1*
X26320D2*
X27308D1*
X28204D2*
X28919D1*
X29509D2*
X30237D1*
X30804D2*
X32476D1*
X13705Y40385D2*
X14161D1*
X15107D2*
X15684D1*
X16503D2*
X17353D1*
X18192D2*
X18843D1*
X19690D2*
X20337D1*
X20926D2*
X21351D1*
X22199D2*
X22887D1*
X23812D2*
X24268D1*
X25050D2*
X25686D1*
X26469D2*
X27308D1*
X28147D2*
X28799D1*
X29645D2*
X30293D1*
X31716D2*
X32172D1*
X13705Y40309D2*
X14161D1*
X15086D2*
X15620D1*
X16631D2*
X17353D1*
X18142D2*
X18742D1*
X19801D2*
X20389D1*
X20925D2*
X21171D1*
X22323D2*
X22942D1*
X23812D2*
X24268D1*
X25013D2*
X25594D1*
X26605D2*
X27308D1*
X28098D2*
X28697D1*
X29756D2*
X30344D1*
X31716D2*
X32172D1*
X13705Y40233D2*
X14161D1*
X15067D2*
X15572D1*
X16738D2*
X17353D1*
X18101D2*
X18657D1*
X19882D2*
X20430D1*
X20924D2*
X21000D1*
X22414D2*
X22986D1*
X23812D2*
X24268D1*
X24982D2*
X25527D1*
X26714D2*
X27308D1*
X28056D2*
X28612D1*
X29837D2*
X30385D1*
X31716D2*
X32172D1*
X13705Y40157D2*
X14161D1*
X15044D2*
X15537D1*
X16827D2*
X17353D1*
X18067D2*
X18588D1*
X19940D2*
X20462D1*
X22480D2*
X23021D1*
X23812D2*
X24268D1*
X24955D2*
X25478D1*
X26797D2*
X27308D1*
X28023D2*
X28543D1*
X29896D2*
X30418D1*
X31716D2*
X32172D1*
X13705Y40081D2*
X14161D1*
X15023D2*
X15507D1*
X16863D2*
X17353D1*
X18039D2*
X18538D1*
X19987D2*
X20491D1*
X22531D2*
X23049D1*
X23812D2*
X24268D1*
X24928D2*
X25441D1*
X26825D2*
X27308D1*
X27995D2*
X28493D1*
X29943D2*
X30447D1*
X31716D2*
X32172D1*
X13705Y40005D2*
X14161D1*
X15009D2*
X15482D1*
X16882D2*
X17353D1*
X18012D2*
X18501D1*
X20026D2*
X20516D1*
X22574D2*
X23077D1*
X23812D2*
X24268D1*
X24904D2*
X25412D1*
X26841D2*
X27308D1*
X27968D2*
X28457D1*
X29982D2*
X30471D1*
X31716D2*
X32172D1*
X13705Y39929D2*
X14161D1*
X15002D2*
X15466D1*
X16891D2*
X17353D1*
X17989D2*
X18471D1*
X20056D2*
X20531D1*
X22611D2*
X23100D1*
X23812D2*
X24268D1*
X24890D2*
X25384D1*
X26848D2*
X27308D1*
X27944D2*
X28426D1*
X30011D2*
X30487D1*
X31716D2*
X32172D1*
X13705Y39853D2*
X14161D1*
X14999D2*
X15458D1*
X16894D2*
X17353D1*
X17974D2*
X18446D1*
X20074D2*
X20542D1*
X22640D2*
X23115D1*
X23812D2*
X24268D1*
X24882D2*
X25361D1*
X26851D2*
X27308D1*
X27929D2*
X28401D1*
X30029D2*
X30497D1*
X31716D2*
X32172D1*
X13705Y39777D2*
X14161D1*
X14998D2*
X15455D1*
X16896D2*
X17353D1*
X17966D2*
X18430D1*
X20085D2*
X20555D1*
X22657D2*
X23126D1*
X23812D2*
X24268D1*
X24879D2*
X25346D1*
X26852D2*
X27308D1*
X27922D2*
X28386D1*
X30041D2*
X30510D1*
X31716D2*
X32172D1*
X13705Y39701D2*
X14161D1*
X14997D2*
X15454D1*
X16896D2*
X17353D1*
X17963D2*
X18422D1*
X20099D2*
X20574D1*
X22666D2*
X23139D1*
X23812D2*
X24268D1*
X24877D2*
X25338D1*
X26852D2*
X27308D1*
X27918D2*
X28378D1*
X30054D2*
X30530D1*
X31716D2*
X32172D1*
X13705Y39625D2*
X14161D1*
X14997D2*
X15453D1*
X16897D2*
X17353D1*
X17961D2*
X18419D1*
X20118D2*
X20595D1*
X22670D2*
X23158D1*
X23812D2*
X24268D1*
X24877D2*
X25335D1*
X26852D2*
X27308D1*
X27917D2*
X28374D1*
X30074D2*
X30550D1*
X31716D2*
X32172D1*
X13705Y39549D2*
X14161D1*
X14997D2*
X15453D1*
X16897D2*
X17353D1*
X17961D2*
X18417D1*
X20138D2*
X20608D1*
X22675D2*
X23178D1*
X23812D2*
X24268D1*
X24876D2*
X25333D1*
X26852D2*
X27308D1*
X27916D2*
X28373D1*
X30094D2*
X30564D1*
X31716D2*
X32172D1*
X13705Y39473D2*
X14161D1*
X14997D2*
X15453D1*
X16897D2*
X17353D1*
X17961D2*
X18417D1*
X20152D2*
X20615D1*
X22687D2*
X23192D1*
X23812D2*
X24268D1*
X24876D2*
X25333D1*
X26852D2*
X27308D1*
X27916D2*
X28372D1*
X30107D2*
X30571D1*
X31716D2*
X32172D1*
X13705Y39397D2*
X14161D1*
X14997D2*
X15453D1*
X16897D2*
X17353D1*
X17961D2*
X18417D1*
X20156D2*
X20618D1*
X22713D2*
X23199D1*
X23812D2*
X24268D1*
X24876D2*
X25332D1*
X26852D2*
X27308D1*
X27916D2*
X28372D1*
X30112D2*
X30574D1*
X31716D2*
X32172D1*
X13705Y39321D2*
X14161D1*
X14997D2*
X15453D1*
X16897D2*
X17353D1*
X17961D2*
X18417D1*
X20150D2*
X20617D1*
X22748D2*
X23199D1*
X23812D2*
X24268D1*
X24876D2*
X25332D1*
X26852D2*
X27308D1*
X27916D2*
X28372D1*
X30105D2*
X30572D1*
X31716D2*
X32172D1*
X13705Y39245D2*
X14161D1*
X14997D2*
X15453D1*
X16897D2*
X17353D1*
X17961D2*
X18417D1*
X20133D2*
X20608D1*
X22713D2*
X23191D1*
X23812D2*
X24268D1*
X24876D2*
X25332D1*
X26852D2*
X27308D1*
X27916D2*
X28372D1*
X30088D2*
X30563D1*
X31716D2*
X32172D1*
X13705Y39169D2*
X14161D1*
X14997D2*
X15453D1*
X16897D2*
X17353D1*
X17961D2*
X18417D1*
X20114D2*
X20590D1*
X22691D2*
X23173D1*
X23812D2*
X24268D1*
X24876D2*
X25333D1*
X26852D2*
X27308D1*
X27916D2*
X28372D1*
X30069D2*
X30545D1*
X31716D2*
X32172D1*
X13705Y39093D2*
X14161D1*
X14997D2*
X15453D1*
X16897D2*
X17353D1*
X17961D2*
X18420D1*
X20100D2*
X20570D1*
X22680D2*
X23154D1*
X23812D2*
X24268D1*
X24877D2*
X25335D1*
X26852D2*
X27308D1*
X27916D2*
X28375D1*
X30056D2*
X30526D1*
X31716D2*
X32172D1*
X13705Y39017D2*
X14161D1*
X14997D2*
X15453D1*
X16897D2*
X17353D1*
X17964D2*
X18429D1*
X20091D2*
X20557D1*
X22673D2*
X23141D1*
X23812D2*
X24268D1*
X24879D2*
X25345D1*
X26852D2*
X27308D1*
X27919D2*
X28385D1*
X30046D2*
X30512D1*
X31716D2*
X32172D1*
X13705Y38941D2*
X14161D1*
X14997D2*
X15453D1*
X16897D2*
X17353D1*
X17973D2*
X18448D1*
X20078D2*
X20547D1*
X22661D2*
X23133D1*
X23812D2*
X24268D1*
X24889D2*
X25363D1*
X26852D2*
X27308D1*
X27929D2*
X28403D1*
X30033D2*
X30502D1*
X31716D2*
X32172D1*
X13705Y38865D2*
X14161D1*
X14997D2*
X15453D1*
X16897D2*
X17353D1*
X17992D2*
X18470D1*
X20055D2*
X20534D1*
X22639D2*
X23128D1*
X23812D2*
X24268D1*
X24907D2*
X25386D1*
X26852D2*
X27308D1*
X27947D2*
X28426D1*
X30011D2*
X30489D1*
X31716D2*
X32172D1*
X13705Y38789D2*
X14161D1*
X14997D2*
X15453D1*
X16897D2*
X17353D1*
X18014D2*
X18496D1*
X20025D2*
X20511D1*
X22609D2*
X23116D1*
X23812D2*
X24268D1*
X24930D2*
X25409D1*
X26852D2*
X27308D1*
X27969D2*
X28452D1*
X29981D2*
X30467D1*
X31716D2*
X32169D1*
X13705Y38713D2*
X14161D1*
X14997D2*
X15453D1*
X16897D2*
X17353D1*
X18037D2*
X18534D1*
X19991D2*
X20481D1*
X22575D2*
X23095D1*
X23812D2*
X24268D1*
X24953D2*
X25437D1*
X26852D2*
X27308D1*
X27993D2*
X28490D1*
X29946D2*
X30437D1*
X31713D2*
X32159D1*
X13705Y38637D2*
X14161D1*
X14997D2*
X15453D1*
X16897D2*
X17353D1*
X18065D2*
X18588D1*
X19948D2*
X20447D1*
X22535D2*
X23065D1*
X23812D2*
X24268D1*
X24981D2*
X25472D1*
X26852D2*
X27308D1*
X28021D2*
X28543D1*
X29904D2*
X30403D1*
X31703D2*
X32141D1*
X13705Y38561D2*
X14161D1*
X14997D2*
X15453D1*
X16897D2*
X17353D1*
X18100D2*
X18658D1*
X19898D2*
X20411D1*
X22488D2*
X23031D1*
X23812D2*
X24268D1*
X25013D2*
X25518D1*
X26846D2*
X27308D1*
X28056D2*
X28613D1*
X29853D2*
X30366D1*
X31682D2*
X32122D1*
X13705Y38485D2*
X14161D1*
X14997D2*
X15453D1*
X16897D2*
X17353D1*
X18143D2*
X18762D1*
X19779D2*
X20373D1*
X20924D2*
X21000D1*
X22421D2*
X22994D1*
X23812D2*
X24268D1*
X25049D2*
X25581D1*
X26831D2*
X27308D1*
X28099D2*
X28717D1*
X29735D2*
X30328D1*
X31648D2*
X32108D1*
X13705Y38409D2*
X14161D1*
X14997D2*
X15453D1*
X16897D2*
X17353D1*
X18191D2*
X18949D1*
X19577D2*
X20332D1*
X20924D2*
X21174D1*
X22335D2*
X22957D1*
X23812D2*
X24268D1*
X25089D2*
X25661D1*
X26763D2*
X27308D1*
X28147D2*
X28904D1*
X29533D2*
X30288D1*
X31602D2*
X32098D1*
X13705Y38333D2*
X14161D1*
X14997D2*
X15453D1*
X16897D2*
X17353D1*
X18240D2*
X19254D1*
X19260D2*
X20284D1*
X20924D2*
X21409D1*
X22099D2*
X22916D1*
X23812D2*
X24268D1*
X25136D2*
X25875D1*
X26546D2*
X27308D1*
X28196D2*
X29210D1*
X29216D2*
X30240D1*
X31448D2*
X32085D1*
X13705Y38257D2*
X14161D1*
X14997D2*
X15453D1*
X16897D2*
X17353D1*
X18296D2*
X20222D1*
X20925D2*
X21743D1*
X21741D2*
X22868D1*
X23812D2*
X24268D1*
X25195D2*
X26210D1*
X26207D2*
X27308D1*
X28252D2*
X30178D1*
X30804D2*
X30880D1*
X31197D2*
X32063D1*
X13705Y38181D2*
X14161D1*
X14997D2*
X15453D1*
X16897D2*
X17353D1*
X18370D2*
X20142D1*
X20928D2*
X22806D1*
X23812D2*
X24268D1*
X25263D2*
X27308D1*
X28326D2*
X30098D1*
X30804D2*
X32030D1*
X13705Y38105D2*
X14161D1*
X14997D2*
X15453D1*
X16897D2*
X17353D1*
X18472D2*
X20036D1*
X20937D2*
X22726D1*
X23812D2*
X24268D1*
X25338D2*
X27308D1*
X28428D2*
X29992D1*
X30805D2*
X31985D1*
X13705Y38029D2*
X14161D1*
X14997D2*
X15453D1*
X16897D2*
X17353D1*
X18607D2*
X19900D1*
X20985D2*
X22620D1*
X23812D2*
X24268D1*
X25425D2*
X27308D1*
X28562D2*
X29855D1*
X30810D2*
X31922D1*
X13705Y37953D2*
X14161D1*
X14997D2*
X15453D1*
X16897D2*
X17353D1*
X18770D2*
X19735D1*
X21110D2*
X22484D1*
X23812D2*
X24268D1*
X25531D2*
X27308D1*
X28726D2*
X29691D1*
X30824D2*
X31832D1*
X13705Y37877D2*
X14161D1*
X14997D2*
X15453D1*
X16897D2*
X17353D1*
X18949D2*
X19557D1*
X21274D2*
X22319D1*
X23812D2*
X24268D1*
X25655D2*
X26624D1*
X26852D2*
X27308D1*
X28904D2*
X29512D1*
X30883D2*
X31708D1*
X21456Y37801D2*
X22140D1*
X25788D2*
X26396D1*
X26852D2*
X27308D1*
X30956D2*
X31564D1*
X26852Y37725D2*
X27308D1*
X26852Y37649D2*
X27308D1*
X26852Y37573D2*
X27308D1*
X26852Y37497D2*
X27308D1*
X26852Y37421D2*
X27308D1*
X26852Y37345D2*
X27308D1*
X26852Y37269D2*
X27308D1*
X26852Y37193D2*
X27308D1*
X26852Y37117D2*
X27308D1*
X26852Y37041D2*
X27308D1*
X26852Y36965D2*
X27308D1*
X26852Y36889D2*
X27308D1*
X26852Y36813D2*
X27308D1*
X26852Y36737D2*
X27308D1*
X18722Y15056D2*
X19330D1*
X23510D2*
X24042D1*
X25790D2*
X26398D1*
X18722Y14980D2*
X19488D1*
X21382D2*
X21610D1*
X23399D2*
X24176D1*
X25653D2*
X26555D1*
X18722Y14904D2*
X19626D1*
X21382D2*
X21643D1*
X23304D2*
X24287D1*
X25535D2*
X26684D1*
X18722Y14828D2*
X19741D1*
X21382D2*
X21686D1*
X23227D2*
X24367D1*
X25444D2*
X26741D1*
X19081Y14752D2*
X19831D1*
X21382D2*
X21795D1*
X23167D2*
X23604D1*
X24042D2*
X24426D1*
X25377D2*
X25884D1*
X26308D2*
X26761D1*
X19349Y14676D2*
X19899D1*
X21382D2*
X21935D1*
X23119D2*
X23493D1*
X24115D2*
X24473D1*
X25328D2*
X25773D1*
X26509D2*
X26771D1*
X19526Y14600D2*
X19958D1*
X21382D2*
X22063D1*
X23076D2*
X23413D1*
X24178D2*
X24512D1*
X25294D2*
X25693D1*
X26702D2*
X26778D1*
X19652Y14524D2*
X20013D1*
X21382D2*
X22160D1*
X23039D2*
X23357D1*
X24224D2*
X24544D1*
X25274D2*
X25637D1*
X19711Y14448D2*
X20061D1*
X21382D2*
X22191D1*
X23010D2*
X23320D1*
X24252D2*
X24572D1*
X25265D2*
X25600D1*
X19760Y14372D2*
X20102D1*
X21382D2*
X22208D1*
X22990D2*
X23299D1*
X24274D2*
X24599D1*
X25261D2*
X25579D1*
X19800Y14296D2*
X20133D1*
X21382D2*
X21686D1*
X22972D2*
X23286D1*
X24298D2*
X24622D1*
X25259D2*
X25569D1*
X19832Y14220D2*
X20154D1*
X21382D2*
X21686D1*
X22950D2*
X23272D1*
X24319D2*
X24637D1*
X25258D2*
X25568D1*
X19860Y14144D2*
X20172D1*
X21382D2*
X21686D1*
X22929D2*
X23252D1*
X24333D2*
X24644D1*
X25258D2*
X25576D1*
X19886Y14068D2*
X20195D1*
X21382D2*
X21686D1*
X22915D2*
X23232D1*
X24341D2*
X24648D1*
X25258D2*
X25593D1*
X19911Y13992D2*
X20216D1*
X21382D2*
X21686D1*
X22908D2*
X23219D1*
X24344D2*
X24652D1*
X25261D2*
X25615D1*
X19026Y13916D2*
X19558D1*
X19907D2*
X20229D1*
X21382D2*
X21686D1*
X22904D2*
X23211D1*
X24345D2*
X24662D1*
X25271D2*
X25639D1*
X18889Y13840D2*
X19781D1*
X19854D2*
X20237D1*
X21382D2*
X21686D1*
X22903D2*
X23208D1*
X24346D2*
X24681D1*
X25292D2*
X25667D1*
X18772Y13764D2*
X20240D1*
X21382D2*
X21686D1*
X22902D2*
X23207D1*
X24346D2*
X24700D1*
X25324D2*
X25702D1*
X18680Y13688D2*
X20244D1*
X21382D2*
X21686D1*
X22902D2*
X23206D1*
X24346D2*
X24714D1*
X25365D2*
X25747D1*
X18613Y13612D2*
X19120D1*
X19601D2*
X20255D1*
X21382D2*
X21686D1*
X22902D2*
X23206D1*
X24346D2*
X24721D1*
X25413D2*
X25802D1*
X18564Y13536D2*
X19010D1*
X19753D2*
X20273D1*
X21382D2*
X21686D1*
X22902D2*
X23206D1*
X24346D2*
X24724D1*
X25462D2*
X25860D1*
X18530Y13460D2*
X18929D1*
X19867D2*
X20292D1*
X21382D2*
X21686D1*
X22902D2*
X23206D1*
X24346D2*
X24722D1*
X25514D2*
X25914D1*
X18508Y13384D2*
X18873D1*
X19904D2*
X20303D1*
X21382D2*
X21686D1*
X22902D2*
X23206D1*
X24346D2*
X24713D1*
X25575D2*
X25969D1*
X18488Y13308D2*
X18836D1*
X19924D2*
X20300D1*
X21382D2*
X21686D1*
X22902D2*
X23206D1*
X24346D2*
X24695D1*
X25641D2*
X26031D1*
X18466Y13232D2*
X18815D1*
X19933D2*
X20285D1*
X21382D2*
X21686D1*
X22902D2*
X23206D1*
X24346D2*
X24676D1*
X25704D2*
X26099D1*
X18445Y13156D2*
X18805D1*
X19936D2*
X20267D1*
X21382D2*
X21686D1*
X22902D2*
X23209D1*
X24346D2*
X24662D1*
X25760D2*
X26172D1*
X18431Y13080D2*
X18801D1*
X19937D2*
X20254D1*
X21382D2*
X21686D1*
X22905D2*
X23219D1*
X24346D2*
X24655D1*
X25816D2*
X26246D1*
X18427Y13004D2*
X18799D1*
X19935D2*
X20247D1*
X21382D2*
X21686D1*
X22915D2*
X23237D1*
X24343D2*
X24652D1*
X25878D2*
X26319D1*
X18433Y12928D2*
X18799D1*
X19925D2*
X20241D1*
X21382D2*
X21686D1*
X22933D2*
X23256D1*
X24333D2*
X24648D1*
X25947D2*
X26385D1*
X18450Y12852D2*
X18801D1*
X19907D2*
X20230D1*
X21382D2*
X21686D1*
X22953D2*
X23270D1*
X24315D2*
X24638D1*
X26020D2*
X26443D1*
X18472Y12776D2*
X18811D1*
X19885D2*
X20211D1*
X21382D2*
X21686D1*
X22969D2*
X23280D1*
X24295D2*
X24619D1*
X26095D2*
X26500D1*
X18495Y12700D2*
X18832D1*
X19862D2*
X20189D1*
X21382D2*
X21686D1*
X22985D2*
X23293D1*
X24279D2*
X24597D1*
X26170D2*
X26562D1*
X18523Y12624D2*
X18865D1*
X19833D2*
X20166D1*
X21382D2*
X21686D1*
X23007D2*
X23316D1*
X24259D2*
X24573D1*
X26246D2*
X26631D1*
X18555Y12548D2*
X18910D1*
X19793D2*
X20137D1*
X21382D2*
X21686D1*
X23031D2*
X23353D1*
X24224D2*
X24546D1*
X26322D2*
X26701D1*
X18591Y12472D2*
X18968D1*
X19741D2*
X20102D1*
X21382D2*
X21686D1*
X23057D2*
X23404D1*
X24173D2*
X24513D1*
X26398D2*
X26763D1*
X18631Y12396D2*
X19104D1*
X19579D2*
X20057D1*
X21382D2*
X21686D1*
X23095D2*
X23566D1*
X24039D2*
X24477D1*
X26474D2*
X26807D1*
X18682Y12320D2*
X19308D1*
X19330D2*
X19998D1*
X20850D2*
X22218D1*
X23149D2*
X23815D1*
X23835D2*
X24434D1*
X25106D2*
X26833D1*
X18753Y12244D2*
X19925D1*
X20850D2*
X22218D1*
X23217D2*
X24374D1*
X25106D2*
X26845D1*
X18851Y12168D2*
X19830D1*
X20850D2*
X22218D1*
X23300D2*
X24285D1*
X25106D2*
X26851D1*
X18972Y12092D2*
X19704D1*
X20850D2*
X22218D1*
X23400D2*
X24169D1*
X25106D2*
X26854D1*
X19102Y12016D2*
X19558D1*
X23510D2*
X24042D1*
X22838Y34705D2*
X23446D1*
X22663Y34629D2*
X23609D1*
X22511Y34553D2*
X23755D1*
X22380Y34477D2*
X22698D1*
X23519D2*
X23880D1*
X22267Y34401D2*
X22568D1*
X23661D2*
X23994D1*
X22171Y34325D2*
X22448D1*
X23792D2*
X24099D1*
X22088Y34249D2*
X22340D1*
X23912D2*
X24191D1*
X22017Y34173D2*
X22246D1*
X24019D2*
X24273D1*
X21958Y34097D2*
X22161D1*
X24114D2*
X24343D1*
X21901Y34021D2*
X22083D1*
X23294D2*
X23598D1*
X24196D2*
X24402D1*
X21841Y33945D2*
X22016D1*
X22726D2*
X23636D1*
X24267D2*
X24459D1*
X21782Y33869D2*
X21957D1*
X22154D2*
X23218D1*
X23446D2*
D3*
X23598D2*
X23667D1*
X24326D2*
X24519D1*
X21730Y33793D2*
X21901D1*
X22154D2*
X22596D1*
X22914D2*
D3*
X23142D2*
X23218D1*
X23370D2*
X23697D1*
X24383D2*
X24578D1*
X19418Y33717D2*
X19494D1*
X19646D2*
X19798D1*
X21684D2*
X21841D1*
X22154D2*
D3*
X22385D2*
X22382D1*
X22610D2*
X22645D1*
X22914D2*
D3*
X23142D2*
X23522D1*
X23674D2*
X23721D1*
X24443D2*
X24633D1*
X19418Y33641D2*
X19530D1*
X19610D2*
X20045D1*
X21643D2*
X21782D1*
X22395D2*
X22458D1*
X22610D2*
X22686D1*
X22914D2*
X23218D1*
X23522D2*
D3*
X23674D2*
X23739D1*
X24502D2*
X24685D1*
X26486D2*
X26562D1*
X19415Y33565D2*
X20268D1*
X21604D2*
X21730D1*
X22416D2*
X22458D1*
X22610D2*
X22990D1*
X23218D2*
X23294D1*
X23522D2*
X23756D1*
X24554D2*
X24738D1*
X25650D2*
D3*
X26410D2*
X26647D1*
X19402Y33489D2*
X19646D1*
X20069D2*
X20437D1*
X21565D2*
X21684D1*
X22445D2*
X22686D1*
X22990D2*
D3*
X23147D2*
X23598D1*
X23750D2*
X23772D1*
X24599D2*
X24785D1*
X25577D2*
X25726D1*
X26521D2*
X26719D1*
X19371Y33413D2*
X19570D1*
X20221D2*
X20550D1*
X21527D2*
X21643D1*
X22477D2*
X22570D1*
X22686D2*
X22762D1*
X22990D2*
X23370D1*
X23598D2*
D3*
X23750D2*
X23780D1*
X24641D2*
X24826D1*
X25514D2*
X25650D1*
X26334D2*
X26486D1*
X26621D2*
X26779D1*
X19321Y33337D2*
X19494D1*
X20336D2*
X20634D1*
X21489D2*
X21604D1*
X22506D2*
X23142D1*
X23294D2*
X23725D1*
X24680D2*
X24859D1*
X25469D2*
X25878D1*
X26406D2*
X26562D1*
X26714D2*
X26822D1*
X19258Y33261D2*
X19418D1*
X20384D2*
X20564D1*
X21451D2*
X21565D1*
X22532D2*
X22838D1*
X23066D2*
D3*
X23218D2*
X23573D1*
X24719D2*
X24887D1*
X25443D2*
X25589D1*
X25741D2*
X25817D1*
X25954D2*
D3*
X26258D2*
X26334D1*
X26467D2*
X26849D1*
X19190Y33185D2*
X19342D1*
X19570D2*
X19646D1*
X20422D2*
X20541D1*
X21413D2*
X21527D1*
X22559D2*
X22646D1*
X22726D2*
X22838D1*
X22990D2*
X23377D1*
X24757D2*
X24917D1*
X25430D2*
X25544D1*
X25696D2*
X25772D1*
X25919D2*
X25954D1*
X26320D2*
X26383D1*
X26512D2*
X26638D1*
X26790D2*
X26870D1*
X19128Y33109D2*
X19266D1*
X19582D2*
X19723D1*
X20451D2*
X20549D1*
X21375D2*
X21489D1*
X22582D2*
X23161D1*
X23598D2*
X23902D1*
X24794D2*
X24950D1*
X25425D2*
X25519D1*
X25671D2*
X25747D1*
X25897D2*
X25913D1*
X26030D2*
D3*
X26258D2*
D3*
X26369D2*
X26433D1*
X26505D2*
X26638D1*
X26790D2*
X26890D1*
X19079Y33033D2*
X19304D1*
X19601D2*
X19804D1*
X20254D2*
D3*
X20471D2*
X20564D1*
X21337D2*
X21454D1*
X22594D2*
X22965D1*
X23334D2*
X23978D1*
X24830D2*
X24984D1*
X25423D2*
X25507D1*
X25659D2*
X25735D1*
X25886D2*
X26637D1*
X26789D2*
X26902D1*
X19038Y32957D2*
X19114D1*
X19269D2*
X19336D1*
X19624D2*
X19904D1*
X20191D2*
X20254D1*
X20489D2*
X20586D1*
X21302D2*
X21423D1*
X22592D2*
X22811D1*
X23083D2*
X23465D1*
X23609D2*
X23709D1*
X23790D2*
X23916D1*
X24861D2*
X25013D1*
X25422D2*
X25504D1*
X25656D2*
X25732D1*
X25884D2*
X26635D1*
X26787D2*
X26898D1*
X19279Y32881D2*
X19365D1*
X19650D2*
X20032D1*
X20114D2*
X20254D1*
X20511D2*
X20610D1*
X21271D2*
X21396D1*
X22577D2*
X22686D1*
X22838D2*
X23211D1*
X23647D2*
X23866D1*
X24888D2*
X25040D1*
X25422D2*
X25514D1*
X25666D2*
X25743D1*
X25894D2*
X25878D1*
X26027D2*
X26625D1*
X26777D2*
X26886D1*
X19297Y32805D2*
X19392D1*
X19690D2*
X20253D1*
X20535D2*
X20634D1*
X21244D2*
X21366D1*
X22559D2*
X23016D1*
X23731D2*
X23826D1*
X24917D2*
X25067D1*
X25425D2*
X25539D1*
X25691D2*
X25773D1*
X25919D2*
X25954D1*
X26090D2*
X26185D1*
X26334D2*
X26410D1*
X26562D2*
X26604D1*
X26756D2*
X26873D1*
X19319Y32729D2*
X19417D1*
X19754D2*
X20244D1*
X20560D2*
X20662D1*
X21214D2*
X21333D1*
X22549D2*
X22871D1*
X23826D2*
X24030D1*
X24950D2*
X25093D1*
X25438D2*
X25574D1*
X25726D2*
X25823D1*
X25954D2*
X26030D1*
X26135D2*
X26194D1*
X26486D2*
X26572D1*
X26723D2*
X26855D1*
X19342Y32653D2*
X19443D1*
X19840D2*
X20224D1*
X20594D2*
X20697D1*
X21181D2*
X21297D1*
X22548D2*
X22827D1*
X23727D2*
X24181D1*
X24983D2*
X25117D1*
X25469D2*
X25886D1*
X26161D2*
X26213D1*
X26410D2*
X26532D1*
X26680D2*
X26824D1*
X19368Y32577D2*
X19466D1*
X19943D2*
X20135D1*
X20634D2*
X20739D1*
X21148D2*
X21261D1*
X22575D2*
X22794D1*
X23651D2*
X24291D1*
X25011D2*
X25143D1*
X25519D2*
X25658D1*
X25802D2*
X25954D1*
X26173D2*
X26232D1*
X26486D2*
D3*
X26624D2*
X26784D1*
X27702D2*
X28538D1*
X19393Y32501D2*
X19481D1*
X20057D2*
X20026D1*
X20426D2*
X20786D1*
X21118D2*
X21225D1*
X22610D2*
X22762D1*
X23596D2*
X23689D1*
X24085D2*
X24326D1*
X25030D2*
X25169D1*
X25582D2*
X25742D1*
X26178D2*
X26242D1*
X26562D2*
X26747D1*
X27605D2*
X28613D1*
X19420Y32425D2*
X19489D1*
X20152D2*
X20552D1*
X21092D2*
X21195D1*
X21850D2*
X22002D1*
X23560D2*
X23645D1*
X24221D2*
X24344D1*
X25048D2*
X25193D1*
X25653D2*
X25815D1*
X26181D2*
X26244D1*
X26638D2*
X26714D1*
X27481D2*
X28687D1*
X19454Y32349D2*
X19494D1*
X19805D2*
X20294D1*
X21065D2*
X21168D1*
X21765D2*
X22102D1*
X23542D2*
X23615D1*
X24322D2*
X24353D1*
X25071D2*
X25219D1*
X25726D2*
X25878D1*
X26181D2*
X26216D1*
X27334D2*
X27972D1*
X28310D2*
X28753D1*
X19494Y32273D2*
X20019D1*
X21039D2*
X21138D1*
X21693D2*
X22245D1*
X23536D2*
X23614D1*
X24308D2*
X24356D1*
X25094D2*
X25242D1*
X26182D2*
D3*
X27199D2*
X27824D1*
X28309D2*
X28810D1*
X19454Y32197D2*
X19732D1*
X21015D2*
X21105D1*
X21630D2*
X22448D1*
X22610D2*
D3*
X23561D2*
X23646D1*
X24281D2*
X24357D1*
X25118D2*
X25260D1*
X27091D2*
X27702D1*
X28303D2*
X28864D1*
X19418Y32121D2*
X19429D1*
X20988D2*
X21072D1*
X21578D2*
X22762D1*
X23599D2*
X23694D1*
X24211D2*
X24361D1*
X25143D2*
X25277D1*
X27048D2*
X27917D1*
X28289D2*
X28917D1*
X18278Y32045D2*
X18886D1*
X20963D2*
X21042D1*
X21535D2*
X22797D1*
X23710D2*
X23750D1*
X24130D2*
X24374D1*
X25166D2*
X25298D1*
X27043D2*
X28146D1*
X28230D2*
X28964D1*
X17951Y31969D2*
X19369D1*
X20938D2*
X21016D1*
X21504D2*
X22819D1*
X23860D2*
X24220D1*
X24358D2*
X24404D1*
X25184D2*
X25320D1*
X27051D2*
X29000D1*
X17683Y31893D2*
X18393D1*
X18917D2*
X19810D1*
X20912D2*
X20990D1*
X21486D2*
X22548D1*
X22672D2*
X22830D1*
X24009D2*
X24249D1*
X24358D2*
X24452D1*
X25201D2*
X25336D1*
X27064D2*
X29022D1*
X17481Y31817D2*
X18036D1*
X19427D2*
X20228D1*
X20886D2*
X20966D1*
X21476D2*
X22575D1*
X22645D2*
X22834D1*
X24122D2*
X24290D1*
X24422D2*
X24506D1*
X25223D2*
X25353D1*
X26926D2*
X28996D1*
X17332Y31741D2*
X17764D1*
X19864D2*
X20653D1*
X20862D2*
X20972D1*
X21472D2*
X22834D1*
X24206D2*
X24336D1*
X24479D2*
X24555D1*
X25246D2*
X25374D1*
X26686D2*
X28310D1*
X28462D2*
X28967D1*
X17217Y31665D2*
X17568D1*
X20218D2*
X21041D1*
X21470D2*
X22825D1*
X24273D2*
X24387D1*
X24535D2*
X24596D1*
X25270D2*
X25396D1*
X26358D2*
X27255D1*
X28033D2*
X28948D1*
X17130Y31590D2*
X17425D1*
X20474D2*
X21206D1*
X21853D2*
X22807D1*
X24330D2*
X24446D1*
X24597D2*
X24631D1*
X25296D2*
X25410D1*
X25987D2*
X26762D1*
X28379D2*
X28974D1*
X17067Y31514D2*
X17318D1*
X20658D2*
X21406D1*
X22126D2*
X22784D1*
X24391D2*
X24510D1*
X24662D2*
X24640D1*
X25322D2*
X25422D1*
X25596D2*
X26332D1*
X28640D2*
X29046D1*
X17024Y31438D2*
X17240D1*
X18962D2*
X19190D1*
X20731D2*
X20850D1*
X21166D2*
X21622D1*
X22305D2*
X22759D1*
X24476D2*
X24617D1*
X25346D2*
X25992D1*
X28824D2*
X29126D1*
X16992Y31362D2*
X17186D1*
X18819D2*
X19298D1*
X20723D2*
X20831D1*
X21394D2*
X21837D1*
X22429D2*
X22726D1*
X24597D2*
X24586D1*
X25071D2*
X25756D1*
X28953D2*
X29200D1*
X16963Y31286D2*
X17148D1*
X18712D2*
X18813D1*
X19239D2*
X19386D1*
X20714D2*
X20811D1*
X21622D2*
X22044D1*
X22534D2*
X22686D1*
X24802D2*
X25592D1*
X29051D2*
X29260D1*
X16939Y31210D2*
X17117D1*
X18633D2*
X18747D1*
X19338D2*
X19452D1*
X20700D2*
X20795D1*
X21847D2*
X22239D1*
X24544D2*
X25045D1*
X25358D2*
X25524D1*
X26790D2*
X27018D1*
X28082D2*
X28234D1*
X29127D2*
X29309D1*
X16927Y31134D2*
X17094D1*
X18606D2*
X18692D1*
X19407D2*
X19501D1*
X20680D2*
X20779D1*
X22065D2*
X22420D1*
X24297D2*
X24754D1*
X25376D2*
X25537D1*
X26759D2*
X27050D1*
X28070D2*
X28234D1*
X29185D2*
X29351D1*
X16929Y31058D2*
X17082D1*
X18592D2*
X18651D1*
X18962D2*
D3*
X19459D2*
X19534D1*
X20660D2*
X20757D1*
X22274D2*
X22579D1*
X24060D2*
X24483D1*
X25396D2*
X25552D1*
X26762D2*
X26901D1*
X26982D2*
X27069D1*
X28051D2*
X28435D1*
X29231D2*
X29388D1*
X16944Y30982D2*
X17097D1*
X18586D2*
X18621D1*
X18927D2*
X18962D1*
X19477D2*
X19551D1*
X20647D2*
X20736D1*
X22480D2*
X22715D1*
X23828D2*
X24237D1*
X25410D2*
X25563D1*
X26772D2*
X27048D1*
X28031D2*
X28590D1*
X29263D2*
X29417D1*
X16964Y30906D2*
X17117D1*
X18584D2*
X18630D1*
X18905D2*
X18886D1*
X19038D2*
X19266D1*
X19484D2*
X19551D1*
X20639D2*
X20720D1*
X22686D2*
X22838D1*
X23599D2*
X24008D1*
X25419D2*
X25569D1*
X26781D2*
X27018D1*
X28018D2*
X28082D1*
X28614D2*
X28651D1*
X29282D2*
X29435D1*
X15846Y30830D2*
X15922D1*
X16987D2*
X17139D1*
X18586D2*
X18654D1*
X18897D2*
X19266D1*
X19478D2*
X19537D1*
X20636D2*
X20703D1*
X23370D2*
X23785D1*
X25432D2*
X25575D1*
X26562D2*
X27135D1*
X28011D2*
X28082D1*
X28614D2*
X28672D1*
X29291D2*
X29443D1*
X15618Y30754D2*
D3*
X15735D2*
X16045D1*
X17012D2*
X17167D1*
X18598D2*
X18695D1*
X18898D2*
X18886D1*
X19266D2*
D3*
X19462D2*
X19518D1*
X20635D2*
X20681D1*
X23145D2*
X23567D1*
X24510D2*
X24814D1*
X25452D2*
X25586D1*
X26550D2*
X26657D1*
X26846D2*
X26961D1*
X27150D2*
X27219D1*
X28008D2*
X28082D1*
X28614D2*
X28683D1*
X29295D2*
X29447D1*
X15519Y30678D2*
X16158D1*
X17037D2*
X17199D1*
X18629D2*
X18754D1*
X18929D2*
X18962D1*
X19266D2*
D3*
X19443D2*
X19503D1*
X20634D2*
X20657D1*
X22927D2*
X23352D1*
X24377D2*
X24951D1*
X25472D2*
X25604D1*
X26530D2*
X26717D1*
X26787D2*
X27021D1*
X27091D2*
X27281D1*
X28006D2*
X28082D1*
X28614D2*
X28687D1*
X29296D2*
X29446D1*
X15433Y30602D2*
X16252D1*
X17062D2*
X17235D1*
X18679D2*
X18832D1*
X18968D2*
X19020D1*
X19266D2*
D3*
X19430D2*
X19484D1*
X20634D2*
D3*
X22717D2*
X23136D1*
X24281D2*
X25071D1*
X25485D2*
X25624D1*
X26508D2*
X27304D1*
X28006D2*
X28082D1*
X28614D2*
X28689D1*
X29294D2*
X29437D1*
X15364Y30526D2*
X16327D1*
X17090D2*
X17272D1*
X18742D2*
X18929D1*
X19005D2*
X19065D1*
X19266D2*
X19269D1*
X19420D2*
X19455D1*
X22512D2*
X22923D1*
X24206D2*
X24358D1*
X24586D2*
X24738D1*
X24966D2*
X25173D1*
X25492D2*
X25637D1*
X26486D2*
X27322D1*
X28006D2*
X28082D1*
X28614D2*
X28689D1*
X29285D2*
X29418D1*
X15338Y30450D2*
X16356D1*
X17123D2*
X17310D1*
X18810D2*
X19071D1*
X19266D2*
X19281D1*
X19405D2*
X19418D1*
X22309D2*
X22715D1*
X24279D2*
X25262D1*
X25496D2*
X25644D1*
X28006D2*
X28082D1*
X28614D2*
X28690D1*
X29264D2*
X29396D1*
X15324Y30374D2*
X16380D1*
X17159D2*
X17350D1*
X18874D2*
X19076D1*
X19266D2*
X19307D1*
X19378D2*
X19453D1*
X22116D2*
X22511D1*
X24334D2*
X25346D1*
X25497D2*
X25648D1*
X26790D2*
X27018D1*
X28006D2*
X28082D1*
X28614D2*
X28690D1*
X29234D2*
X29373D1*
X15318Y30298D2*
X16405D1*
X17198D2*
X17395D1*
X18928D2*
X19126D1*
X19266D2*
X19475D1*
X21929D2*
X22306D1*
X24389D2*
X24358D1*
X24614D2*
X24662D1*
X24890D2*
X25241D1*
X25498D2*
X25649D1*
X26334D2*
X26410D1*
X26778D2*
X27033D1*
X27398D2*
X27474D1*
X28006D2*
X28082D1*
X28614D2*
X28690D1*
X29200D2*
X29345D1*
X15316Y30222D2*
X16427D1*
X17243D2*
X17444D1*
X18972D2*
X19486D1*
X21738D2*
X22107D1*
X24515D2*
X25130D1*
X25501D2*
X25649D1*
X26304D2*
X26440D1*
X26759D2*
X27060D1*
X27391D2*
X27512D1*
X28006D2*
X28082D1*
X28614D2*
X28689D1*
X29164D2*
X29312D1*
X15315Y30146D2*
X16441D1*
X17292D2*
X17493D1*
X19004D2*
X19488D1*
X21544D2*
X21914D1*
X24620D2*
X25015D1*
X25510D2*
X25650D1*
X26313D2*
X26430D1*
X26739D2*
X27142D1*
X27378D2*
X27544D1*
X28009D2*
X28686D1*
X29126D2*
X29277D1*
X30134D2*
X30514D1*
X15318Y30070D2*
X16445D1*
X17342D2*
X17543D1*
X19029D2*
X19480D1*
X21354D2*
X21729D1*
X24814D2*
X24906D1*
X25529D2*
X25650D1*
X26334D2*
X26410D1*
X26726D2*
X27259D1*
X27318D2*
X27575D1*
X28021D2*
X28117D1*
X28198D2*
X28497D1*
X28578D2*
X28675D1*
X29086D2*
X29237D1*
X30049D2*
X30613D1*
X15326Y29994D2*
X16441D1*
X17394D2*
X17595D1*
X19060D2*
X19460D1*
X21171D2*
X21549D1*
X24586D2*
X24812D1*
X25548D2*
X25650D1*
X26264D2*
X26480D1*
X26719D2*
X27609D1*
X28047D2*
X28649D1*
X29038D2*
X29192D1*
X29944D2*
X30134D1*
X30438D2*
X30689D1*
X15369Y29918D2*
X16399D1*
X17452D2*
X17645D1*
X19114D2*
X19428D1*
X20991D2*
X21370D1*
X24586D2*
X24771D1*
X25561D2*
X25653D1*
X26212D2*
X26532D1*
X26716D2*
X27640D1*
X28082D2*
X28614D1*
X28982D2*
X29143D1*
X29816D2*
X30058D1*
X30513D2*
X30743D1*
X15429Y29842D2*
X16341D1*
X17511D2*
X17698D1*
X19186D2*
X19388D1*
X20815D2*
X21194D1*
X24586D2*
X24738D1*
X25568D2*
X25662D1*
X26196D2*
X26547D1*
X26717D2*
X27665D1*
X28924D2*
X29094D1*
X29694D2*
X29982D1*
X30586D2*
X30780D1*
X15491Y29766D2*
X16281D1*
X17565D2*
X17759D1*
X19266D2*
X19342D1*
X20647D2*
X21024D1*
X21926D2*
X23978D1*
X25572D2*
X25681D1*
X26190D2*
X26553D1*
X26727D2*
X27655D1*
X28870D2*
X29042D1*
X29595D2*
X30016D1*
X30649D2*
X30801D1*
X15540Y29690D2*
X15843D1*
X16074D2*
X16226D1*
X17621D2*
X17828D1*
X20488D2*
X20855D1*
X21926D2*
X24013D1*
X25573D2*
X25700D1*
X26197D2*
X26547D1*
X26745D2*
X27109D1*
X27257D2*
X27633D1*
X28815D2*
X28981D1*
X29559D2*
X30035D1*
X30701D2*
X30810D1*
X15576Y29614D2*
X15834D1*
X17683D2*
X17900D1*
X20332D2*
X20681D1*
X21926D2*
X24035D1*
X25573D2*
X25713D1*
X26213D2*
X26530D1*
X26764D2*
X27064D1*
X27276D2*
X27605D1*
X28753D2*
X28915D1*
X29540D2*
X30042D1*
X30713D2*
X30812D1*
X15572Y29538D2*
X15815D1*
X17752D2*
X17972D1*
X20179D2*
X20509D1*
X21926D2*
X22078D1*
X23902D2*
X24046D1*
X25574D2*
X25717D1*
X26232D2*
X26511D1*
X26777D2*
X27039D1*
X27296D2*
X27580D1*
X28684D2*
X28849D1*
X29531D2*
X30010D1*
X30676D2*
X30801D1*
X15558Y29462D2*
X15793D1*
X17824D2*
X18038D1*
X20029D2*
X20346D1*
X21926D2*
X22078D1*
X23902D2*
X24051D1*
X25574D2*
X25711D1*
X26245D2*
X26498D1*
X26784D2*
X27026D1*
X27309D2*
X27564D1*
X28611D2*
X28783D1*
X29531D2*
X29963D1*
X30362D2*
X30438D1*
X30566D2*
X30774D1*
X15539Y29386D2*
X15770D1*
X17899D2*
X18095D1*
X19887D2*
X20196D1*
X21926D2*
X22078D1*
X23902D2*
X24053D1*
X25574D2*
X25694D1*
X26252D2*
X26491D1*
X26788D2*
X27021D1*
X27316D2*
X27556D1*
X28537D2*
X28711D1*
X29541D2*
X29912D1*
X30286D2*
X30736D1*
X15515Y29310D2*
X15744D1*
X16606D2*
X16986D1*
X17974D2*
X18152D1*
X19753D2*
X20059D1*
X21926D2*
X22078D1*
X23902D2*
X24053D1*
X25574D2*
X25675D1*
X26256D2*
X26488D1*
X26789D2*
X27019D1*
X27320D2*
X27552D1*
X28461D2*
X28636D1*
X29567D2*
X29867D1*
X30210D2*
X30704D1*
X15490Y29234D2*
X15718D1*
X16539D2*
X17097D1*
X18050D2*
X18215D1*
X19623D2*
X19925D1*
X21926D2*
X22078D1*
X23902D2*
X24054D1*
X25574D2*
X25662D1*
X26258D2*
X26486D1*
X26790D2*
X27018D1*
X27322D2*
X27550D1*
X28386D2*
X28563D1*
X29602D2*
X29830D1*
X30137D2*
X30683D1*
X15466Y29158D2*
X15694D1*
X16472D2*
X16606D1*
X17062D2*
X17227D1*
X18126D2*
X18286D1*
X19495D2*
X19789D1*
X21926D2*
X22078D1*
X23902D2*
X24054D1*
X25574D2*
X25655D1*
X28309D2*
X28484D1*
X30077D2*
X30670D1*
X16401Y29082D2*
X16530D1*
X17062D2*
X17349D1*
X18202D2*
X18369D1*
X19370D2*
X19653D1*
X21926D2*
X22078D1*
X23902D2*
X24054D1*
X25574D2*
X25652D1*
X28231D2*
X28400D1*
X30032D2*
X30652D1*
X16331Y29006D2*
X17062D1*
X17272D2*
X17448D1*
X18278D2*
X18462D1*
X19251D2*
X19523D1*
X20482D2*
X21014D1*
X21926D2*
X22078D1*
X23902D2*
X24054D1*
X25573D2*
X25651D1*
X26106D2*
X26182D1*
X28145D2*
X28317D1*
X30038D2*
X30625D1*
X16280Y28930D2*
X16539D1*
X17062D2*
X17149D1*
X17379D2*
X17484D1*
X18354D2*
X18560D1*
X19129D2*
X19395D1*
X20418D2*
X21087D1*
X21926D2*
X22078D1*
X23902D2*
X24054D1*
X25571D2*
X25650D1*
X26173D2*
X26319D1*
X28051D2*
X28237D1*
X28994D2*
X29298D1*
X30099D2*
X30556D1*
X16251Y28854D2*
X16560D1*
X16898D2*
X17226D1*
X17461D2*
X17504D1*
X18430D2*
X18661D1*
X18992D2*
X19270D1*
X20364D2*
X20558D1*
X20938D2*
X21150D1*
X21926D2*
X22078D1*
X23902D2*
X24054D1*
X25561D2*
X25650D1*
X26250D2*
X26442D1*
X27955D2*
X28159D1*
X28691D2*
X29298D1*
X30185D2*
X30465D1*
X16239Y28778D2*
X16649D1*
X16661D2*
X17259D1*
X17486D2*
X17509D1*
X18506D2*
X18770D1*
X18832D2*
X19159D1*
X20320D2*
X20938D1*
X21102D2*
X21195D1*
X21926D2*
X22078D1*
X23902D2*
X24054D1*
X25543D2*
X25650D1*
X26332D2*
X26553D1*
X27863D2*
X28079D1*
X28456D2*
X29027D1*
X29221D2*
X29301D1*
X30286D2*
X30362D1*
X16239Y28702D2*
X17278D1*
X17469D2*
X17507D1*
X18582D2*
X19064D1*
X20289D2*
X20406D1*
X20558D2*
X20964D1*
X21120D2*
X21221D1*
X21926D2*
X22078D1*
X23902D2*
X24054D1*
X25523D2*
X25650D1*
X26420D2*
X26660D1*
X27770D2*
X27993D1*
X28283D2*
X28767D1*
X29217D2*
X29310D1*
X16269Y28626D2*
X17290D1*
X17442D2*
X17473D1*
X18658D2*
X19017D1*
X20273D2*
X20409D1*
X20555D2*
X20710D1*
X20859D2*
X20984D1*
X21137D2*
X21233D1*
X21926D2*
X22078D1*
X23902D2*
X24054D1*
X25510D2*
X25650D1*
X26516D2*
X26765D1*
X27672D2*
X27899D1*
X28212D2*
X28560D1*
X29206D2*
X29328D1*
X16307Y28550D2*
X17424D1*
X18556D2*
X19019D1*
X20269D2*
X20421D1*
X20543D2*
X20634D1*
X20847D2*
X20994D1*
X21147D2*
X21238D1*
X21926D2*
X22078D1*
X23902D2*
X24054D1*
X25503D2*
X25650D1*
X26615D2*
X26874D1*
X27567D2*
X27803D1*
X28221D2*
X28405D1*
X29138D2*
X29348D1*
X16340Y28474D2*
X17367D1*
X18454D2*
X19066D1*
X20299D2*
X20447D1*
X20517D2*
X20746D1*
X20821D2*
X20979D1*
X21127D2*
X21237D1*
X21926D2*
X22078D1*
X23902D2*
X24054D1*
X25500D2*
X25650D1*
X26714D2*
X27012D1*
X27442D2*
X27711D1*
X28227D2*
X28351D1*
X28917D2*
X29362D1*
X16361Y28398D2*
X17308D1*
X18354D2*
X18579D1*
X18871D2*
X19129D1*
X20393D2*
X20962D1*
X21098D2*
X21226D1*
X21926D2*
X24054D1*
X25499D2*
X25650D1*
X26812D2*
X27192D1*
X27280D2*
X27618D1*
X28234D2*
X28310D1*
X28601D2*
X29371D1*
X16371Y28322D2*
X17248D1*
X18253D2*
X18493D1*
X18992D2*
X19207D1*
X20536D2*
X20948D1*
X21030D2*
X21195D1*
X21923D2*
X24054D1*
X25498D2*
X25649D1*
X26895D2*
X27520D1*
X28245D2*
X29181D1*
X29262D2*
X29384D1*
X16530Y28246D2*
X16626D1*
X16758D2*
X17198D1*
X18154D2*
X18396D1*
X19093D2*
X19299D1*
X20710D2*
D3*
X20882D2*
X21142D1*
X21913D2*
X24057D1*
X25498D2*
X25647D1*
X26957D2*
X27420D1*
X28264D2*
X28541D1*
X28766D2*
D3*
X28882D2*
X29404D1*
X16530Y28170D2*
X16685D1*
X16834D2*
X17166D1*
X18060D2*
X18291D1*
X19184D2*
X19396D1*
X20589D2*
X21065D1*
X21892D2*
X24067D1*
X25498D2*
X25637D1*
X26974D2*
X27322D1*
X28284D2*
X28386D1*
X28538D2*
X28550D1*
X28766D2*
X29424D1*
X16530Y28094D2*
X17150D1*
X17967D2*
X18184D1*
X19275D2*
X19494D1*
X20482D2*
X20964D1*
X21863D2*
X22230D1*
X22458D2*
X23709D1*
X23790D2*
X24088D1*
X25495D2*
X25619D1*
X26907D2*
X27398D1*
X28297D2*
X28569D1*
X28766D2*
X29029D1*
X29110D2*
X29437D1*
X16530Y28018D2*
X17142D1*
X17869D2*
X18081D1*
X19372D2*
X19596D1*
X20594D2*
X20842D1*
X21831D2*
X24117D1*
X25485D2*
X25599D1*
X26822D2*
X27082D1*
X27322D2*
X27477D1*
X28305D2*
X28310D1*
X28426D2*
X28592D1*
X28766D2*
D3*
X28918D2*
X29444D1*
X16530Y27942D2*
X17138D1*
X17773D2*
X17989D1*
X19468D2*
X19697D1*
X20710D2*
D3*
X21802D2*
X24151D1*
X25467D2*
X25586D1*
X26720D2*
X26984D1*
X27398D2*
X27562D1*
X28310D2*
X28462D1*
X28614D2*
D3*
X28766D2*
X29257D1*
X29338D2*
X29443D1*
X30058D2*
X30134D1*
X17683Y27866D2*
X17904D1*
X19560D2*
X19798D1*
X21776D2*
X24188D1*
X25447D2*
X25579D1*
X26605D2*
X26878D1*
X27474D2*
X27657D1*
X28322D2*
X28877D1*
X28958D2*
X29434D1*
X29984D2*
X30210D1*
X15998Y27790D2*
D3*
X17600D2*
X17822D1*
X19653D2*
X19902D1*
X21746D2*
X24225D1*
X25434D2*
X25576D1*
X26485D2*
X26768D1*
X27550D2*
X27752D1*
X28340D2*
X28462D1*
X28766D2*
X29368D1*
X29918D2*
X30289D1*
X15466Y27714D2*
X15542D1*
X15922D2*
X16302D1*
X17520D2*
X17734D1*
X19751D2*
X20011D1*
X21713D2*
X24263D1*
X25427D2*
X25574D1*
X26370D2*
X26656D1*
X27626D2*
X27841D1*
X28360D2*
X29174D1*
X29860D2*
X30377D1*
X15370Y27638D2*
X15694D1*
X15846D2*
X16349D1*
X17440D2*
X17640D1*
X19851D2*
X20123D1*
X21677D2*
X24298D1*
X25421D2*
X25571D1*
X26261D2*
X26542D1*
X27705D2*
X27924D1*
X28375D2*
X28911D1*
X29804D2*
X30069D1*
X30362D2*
X30478D1*
X15293Y27562D2*
X15405D1*
X15618D2*
X16074D1*
X16211D2*
X16389D1*
X17354D2*
X17544D1*
X18506D2*
X18734D1*
X19950D2*
X20236D1*
X21641D2*
X22610D1*
X23294D2*
X24326D1*
X25410D2*
X25561D1*
X26146D2*
X26426D1*
X27790D2*
X28004D1*
X28386D2*
X28614D1*
X29744D2*
X30109D1*
X30438D2*
X30576D1*
X15265Y27486D2*
X15361D1*
X15694D2*
D3*
X15846D2*
D3*
X16074D2*
X16150D1*
X16255D2*
X16417D1*
X17262D2*
X17455D1*
X18278D2*
D3*
X18435D2*
X18770D1*
X18886D2*
X19114D1*
X20051D2*
X20349D1*
X21609D2*
X22610D1*
X23294D2*
X24343D1*
X25391D2*
X25543D1*
X26031D2*
X26302D1*
X27884D2*
X28081D1*
X29685D2*
X30212D1*
X30514D2*
X30658D1*
X15249Y27410D2*
X15335D1*
X16285D2*
X16433D1*
X17176D2*
X17371D1*
X18202D2*
X19114D1*
X20147D2*
X20463D1*
X21584D2*
X22610D1*
X23294D2*
X24352D1*
X25372D2*
X25523D1*
X25932D2*
X26167D1*
X27977D2*
X28157D1*
X29631D2*
X29906D1*
X30134D2*
X30353D1*
X30402D2*
X30691D1*
X15243Y27334D2*
X15322D1*
X16286D2*
X16416D1*
X17105D2*
X17293D1*
X18126D2*
X19114D1*
X20222D2*
X20577D1*
X21598D2*
X24356D1*
X25358D2*
X25510D1*
X25859D2*
X26024D1*
X27398D2*
X27626D1*
X28059D2*
X28234D1*
X29578D2*
X29830D1*
X30196D2*
X30640D1*
X15243Y27258D2*
X15542D1*
X16254D2*
X16389D1*
X17042D2*
X17218D1*
X18202D2*
X19418D1*
X20277D2*
X20691D1*
X21622D2*
X24358D1*
X25351D2*
X25500D1*
X25802D2*
X25878D1*
X27348D2*
X27748D1*
X28131D2*
X28309D1*
X29526D2*
X29974D1*
X30245D2*
X30581D1*
X15255Y27182D2*
X15516D1*
X16206D2*
X16356D1*
X16976D2*
X17151D1*
X18082D2*
X18506D1*
X18734D2*
D3*
X18850D2*
X19404D1*
X20279D2*
X20406D1*
X20570D2*
X20808D1*
X25345D2*
X25487D1*
X27295D2*
X27862D1*
X28199D2*
X28383D1*
X29475D2*
X29770D1*
X29906D2*
X30156D1*
X30286D2*
X30522D1*
X15285Y27106D2*
X15493D1*
X16150D2*
X16317D1*
X16906D2*
X17090D1*
X17985D2*
X18390D1*
X18506D2*
X19377D1*
X20274D2*
X20406D1*
X20668D2*
X20932D1*
X23826D2*
X23978D1*
X25334D2*
X25468D1*
X27236D2*
X27957D1*
X28265D2*
X28449D1*
X29422D2*
X29718D1*
X30017D2*
X30467D1*
X15333Y27030D2*
X15478D1*
X16302D2*
X16273D1*
X16832D2*
X17027D1*
X17898D2*
X19342D1*
X20276D2*
X20406D1*
X20776D2*
X21064D1*
X23846D2*
X24200D1*
X25315D2*
X25448D1*
X27177D2*
X27398D1*
X27626D2*
X28026D1*
X28328D2*
X28507D1*
X29363D2*
X29787D1*
X30134D2*
X30414D1*
X15390Y26954D2*
X15466D1*
X15694D2*
D3*
X15998D2*
X16224D1*
X16757D2*
X16956D1*
X17974D2*
X18521D1*
X18883D2*
X19423D1*
X20289D2*
X20406D1*
X20896D2*
X21200D1*
X23857D2*
X24130D1*
X24264D2*
X24347D1*
X25296D2*
X25434D1*
X27123D2*
X28083D1*
X28395D2*
X28563D1*
X29305D2*
X29948D1*
X30058D2*
X30362D1*
X15657Y26878D2*
X15770D1*
X15984D2*
X16175D1*
X16682D2*
X16885D1*
X18050D2*
X18202D1*
X18354D2*
X18477D1*
X18943D2*
X19485D1*
X20306D2*
X20406D1*
X21030D2*
X21337D1*
X23598D2*
X23674D1*
X23811D2*
X24130D1*
X24309D2*
X24443D1*
X25282D2*
X25424D1*
X27071D2*
X28148D1*
X28466D2*
X28626D1*
X29250D2*
X29539D1*
X29830D2*
X30311D1*
X15705Y26802D2*
X15882D1*
X15958D2*
X16122D1*
X16606D2*
X16819D1*
X17981D2*
X18202D1*
X18354D2*
X18447D1*
X18988D2*
X19114D1*
X19266D2*
X19534D1*
X20318D2*
X20406D1*
X21173D2*
X21479D1*
X23624D2*
X23902D1*
X24054D2*
X24130D1*
X24305D2*
X24509D1*
X25272D2*
X25411D1*
X27024D2*
X27184D1*
X27308D2*
X28222D1*
X28539D2*
X28692D1*
X29195D2*
X29595D1*
X29870D2*
X30258D1*
X15771Y26726D2*
X16061D1*
X16533D2*
X16751D1*
X17930D2*
X18202D1*
X18354D2*
X18451D1*
X18997D2*
X19114D1*
X19266D2*
X19482D1*
X20325D2*
X20406D1*
X21321D2*
X21626D1*
X23646D2*
X23826D1*
X24283D2*
X24559D1*
X25259D2*
X25392D1*
X25954D2*
X26030D1*
X26334D2*
X26410D1*
X26988D2*
X27210D1*
X27281D2*
X27322D1*
X27438D2*
X28288D1*
X28611D2*
X28755D1*
X29134D2*
X29738D1*
X29906D2*
X30197D1*
X15845Y26650D2*
X15993D1*
X16467D2*
X16682D1*
X17929D2*
X18202D1*
X18354D2*
X18512D1*
X18885D2*
X19418D1*
X20328D2*
X20406D1*
X21471D2*
X21776D1*
X23661D2*
X23848D1*
X24241D2*
X24445D1*
X24586D2*
X24599D1*
X25240D2*
X25371D1*
X26003D2*
X26059D1*
X26305D2*
X26377D1*
X26997D2*
X28343D1*
X28677D2*
X28812D1*
X29070D2*
X29374D1*
X29602D2*
X30131D1*
X15922Y26574D2*
D3*
X16409D2*
X16617D1*
X17982D2*
X18683D1*
X18715D2*
X19074D1*
X19154D2*
X19456D1*
X20329D2*
X20406D1*
X21622D2*
X21927D1*
X23672D2*
X23823D1*
X24174D2*
X24385D1*
X24586D2*
X24626D1*
X25219D2*
X25355D1*
X26053D2*
X26093D1*
X26270D2*
X26353D1*
X27056D2*
X28359D1*
X28735D2*
X28867D1*
X29174D2*
X29298D1*
X29678D2*
X30068D1*
X16355Y26498D2*
X16560D1*
X18050D2*
X18314D1*
X18394D2*
X19468D1*
X20330D2*
X20406D1*
X21774D2*
X22078D1*
X23688D2*
X23787D1*
X24082D2*
X24319D1*
X24585D2*
X24640D1*
X25203D2*
X25339D1*
X26106D2*
X26135D1*
X26228D2*
X26466D1*
X27138D2*
X28335D1*
X28788D2*
X28927D1*
X29283D2*
X29409D1*
X29754D2*
X30012D1*
X16302Y26422D2*
X16505D1*
X18021D2*
X19441D1*
X20330D2*
X20406D1*
X21926D2*
X22230D1*
X23720D2*
X23750D1*
X23978D2*
X24238D1*
X24581D2*
X24617D1*
X25187D2*
X25317D1*
X25897D2*
X26619D1*
X27237D2*
X28298D1*
X28841D2*
X28986D1*
X29391D2*
X29526D1*
X29678D2*
X29959D1*
X16252Y26346D2*
X16445D1*
X18028D2*
X18506D1*
X18886D2*
X19381D1*
X20330D2*
X20406D1*
X22078D2*
X22382D1*
X23774D2*
X24147D1*
X24545D2*
X24586D1*
X25165D2*
X25296D1*
X25717D2*
X26763D1*
X27342D2*
X28255D1*
X28892D2*
X29038D1*
X29495D2*
X29908D1*
X16201Y26270D2*
X16386D1*
X18074D2*
X19323D1*
X20330D2*
X20409D1*
X22230D2*
X22534D1*
X23849D2*
X24054D1*
X24427D2*
X24624D1*
X25144D2*
X25279D1*
X25632D2*
X26874D1*
X27446D2*
X28207D1*
X28942D2*
X29083D1*
X29589D2*
X29866D1*
X16150Y26194D2*
X16334D1*
X18126D2*
D3*
X18284D2*
X19266D1*
X20330D2*
X20419D1*
X22382D2*
X22686D1*
X23946D2*
X24130D1*
X24282D2*
X24655D1*
X25128D2*
X25263D1*
X25601D2*
X25893D1*
X26866D2*
X26910D1*
X27548D2*
X28157D1*
X28991D2*
X29124D1*
X29678D2*
X29830D1*
X16103Y26118D2*
X16289D1*
X18298D2*
X19196D1*
X20330D2*
X20437D1*
X22537D2*
X22841D1*
X24054D2*
X24358D1*
X24510D2*
X24682D1*
X25111D2*
X25241D1*
X25585D2*
X25848D1*
X26866D2*
X26928D1*
X27651D2*
X28107D1*
X29031D2*
X29164D1*
X16062Y26042D2*
X16248D1*
X18357D2*
X18506D1*
X18658D2*
X18886D1*
X19114D2*
D3*
X20333D2*
X20456D1*
X22699D2*
X23003D1*
X24510D2*
X24703D1*
X25089D2*
X25217D1*
X25578D2*
X25823D1*
X26866D2*
X26937D1*
X27754D2*
X28058D1*
X29063D2*
X29202D1*
X16029Y25966D2*
X16211D1*
X18430D2*
X18506D1*
X18658D2*
X18886D1*
X20343D2*
X20470D1*
X22869D2*
X23173D1*
X24510D2*
X24695D1*
X25065D2*
X25194D1*
X25575D2*
X25685D1*
X25802D2*
X25810D1*
X26866D2*
X26940D1*
X27854D2*
X28006D1*
X29093D2*
X29238D1*
X16001Y25890D2*
X16179D1*
X20361D2*
X20477D1*
X23040D2*
X23347D1*
X24510D2*
X24682D1*
X25042D2*
X25168D1*
X25574D2*
X25805D1*
X26866D2*
X26941D1*
X28386D2*
X28462D1*
X29121D2*
X29266D1*
X15974Y25814D2*
X16152D1*
X20380D2*
X20483D1*
X21014D2*
X22078D1*
X23206D2*
X23522D1*
X24510D2*
X24671D1*
X25013D2*
X25143D1*
X25574D2*
X25803D1*
X26866D2*
X26941D1*
X28349D2*
X28509D1*
X29146D2*
X29286D1*
X15950Y25738D2*
X16126D1*
X20394D2*
X20494D1*
X20979D2*
X22113D1*
X23365D2*
X23700D1*
X24510D2*
X24662D1*
X24981D2*
X25118D1*
X25574D2*
X25802D1*
X26866D2*
X26942D1*
X28399D2*
X28586D1*
X28971D2*
X29304D1*
X15933Y25662D2*
X16102D1*
X20404D2*
X20513D1*
X20957D2*
X22135D1*
X23522D2*
X23877D1*
X24948D2*
X25092D1*
X25574D2*
X25802D1*
X26866D2*
X26941D1*
X28462D2*
X28703D1*
X28795D2*
X29326D1*
X15916Y25586D2*
X16087D1*
X20417D2*
X20533D1*
X20946D2*
X22146D1*
X23359D2*
X24054D1*
X24918D2*
X25067D1*
X25580D2*
X26935D1*
X28082D2*
D3*
X28331D2*
X28918D1*
X29130D2*
X29347D1*
X15897Y25510D2*
X16080D1*
X20436D2*
X20549D1*
X20941D2*
X22151D1*
X23219D2*
X24237D1*
X24889D2*
X25043D1*
X25594D2*
X26922D1*
X27960D2*
X28082D1*
X28176D2*
X28480D1*
X28602D2*
X28842D1*
X29181D2*
X29361D1*
X15885Y25434D2*
X16077D1*
X20456D2*
X20565D1*
X20939D2*
X22153D1*
X23113D2*
X23245D1*
X23370D2*
X24436D1*
X24855D2*
X25020D1*
X25653D2*
X26862D1*
X27857D2*
X28371D1*
X28564D2*
X29070D1*
X29193D2*
X29368D1*
X15890Y25358D2*
X16078D1*
X17214D2*
X17366D1*
X20472D2*
X20588D1*
X20937D2*
X21278D1*
X21358D2*
X21506D1*
X21586D2*
X21734D1*
X21814D2*
X22153D1*
X23038D2*
X23146D1*
X23522D2*
X24066D1*
X24290D2*
X24656D1*
X24814D2*
X25002D1*
X25726D2*
X25802D1*
X26714D2*
X26790D1*
X27812D2*
X28294D1*
X28481D2*
X28614D1*
X28772D2*
X28994D1*
X29156D2*
X29368D1*
X15902Y25282D2*
X16087D1*
X17243D2*
X17446D1*
X20489D2*
X20617D1*
X20929D2*
X22154D1*
X22986D2*
X23076D1*
X23370D2*
D3*
X23674D2*
X24084D1*
X24445D2*
X25028D1*
X28006D2*
X28234D1*
X28386D2*
X28591D1*
X28788D2*
X28918D1*
X29046D2*
X29360D1*
X15915Y25206D2*
X16108D1*
X17279D2*
X17540D1*
X18430D2*
X18582D1*
X20508D2*
X20654D1*
X20908D2*
X22154D1*
X22950D2*
X23028D1*
X23294D2*
X24104D1*
X24570D2*
X25127D1*
X27991D2*
X28577D1*
X28862D2*
X29342D1*
X15933Y25130D2*
X16140D1*
X17324D2*
X17670D1*
X18050D2*
X18126D1*
X18506D2*
X19038D1*
X20528D2*
X20749D1*
X20819D2*
X22151D1*
X22930D2*
X22990D1*
X23446D2*
X23704D1*
X23807D2*
X24117D1*
X24663D2*
X25272D1*
X27959D2*
X28082D1*
X28310D2*
X28579D1*
X28956D2*
X29320D1*
X15964Y25054D2*
X16185D1*
X17381D2*
X17847D1*
X17903D2*
X18933D1*
X20452D2*
X22138D1*
X22921D2*
X23542D1*
X23851D2*
X24124D1*
X24683D2*
X24902D1*
X25042D2*
X25456D1*
X27912D2*
X28580D1*
X29043D2*
X29294D1*
X16009Y24978D2*
X16245D1*
X17445D2*
X18787D1*
X20270D2*
X22110D1*
X22917D2*
X23413D1*
X23838D2*
X24127D1*
X24673D2*
X24847D1*
X25273D2*
X25670D1*
X27861D2*
X28573D1*
X29114D2*
X29256D1*
X16065Y24902D2*
X16328D1*
X17502D2*
X18617D1*
X20026D2*
X20698D1*
X20935D2*
X22073D1*
X22918D2*
X23354D1*
X23784D2*
X24126D1*
X24654D2*
X24801D1*
X25513D2*
X25912D1*
X27816D2*
X27947D1*
X28085D2*
X28535D1*
X29038D2*
X29202D1*
X16137Y24826D2*
X16448D1*
X17546D2*
X18449D1*
X19722D2*
X20330D1*
X20646D2*
X20752D1*
X21345D2*
X22040D1*
X22927D2*
X23344D1*
X23731D2*
X24117D1*
X24622D2*
X24759D1*
X25770D2*
X26191D1*
X27802D2*
X27906D1*
X28097D2*
X28484D1*
X28939D2*
X29134D1*
X16231Y24750D2*
X16631D1*
X17543D2*
X18286D1*
X19359D2*
X20022D1*
X20665D2*
X20796D1*
X21614D2*
X22020D1*
X22948D2*
X23372D1*
X23684D2*
X24096D1*
X24579D2*
X24719D1*
X26043D2*
X26523D1*
X27815D2*
X27877D1*
X28123D2*
X28082D1*
X28268D2*
X28426D1*
X28817D2*
X29049D1*
X16353Y24674D2*
X16909D1*
X17485D2*
X18126D1*
X18920D2*
X19701D1*
X20687D2*
X20831D1*
X21789D2*
X22009D1*
X22983D2*
X23412D1*
X23625D2*
X24063D1*
X24536D2*
X24678D1*
X26340D2*
X26952D1*
X27834D2*
X28048D1*
X28112D2*
X28369D1*
X28680D2*
X28930D1*
X16526Y24598D2*
X17297D1*
X17328D2*
X18202D1*
X18395D2*
X19359D1*
X20710D2*
X20859D1*
X21926D2*
X22002D1*
X23040D2*
X23500D1*
X23542D2*
X24013D1*
X24494D2*
X24633D1*
X26697D2*
X27514D1*
X27854D2*
X28310D1*
X28538D2*
X28746D1*
X16783Y24522D2*
X19014D1*
X20738D2*
X20890D1*
X23128D2*
X23932D1*
X24454D2*
X24584D1*
X27137D2*
X28477D1*
X17128Y24446D2*
X18705D1*
X20771D2*
X20925D1*
X22306D2*
X22534D1*
X23243D2*
X23814D1*
X24415D2*
X24537D1*
X27626D2*
X28158D1*
X17518Y24370D2*
X17834D1*
X18050D2*
X18430D1*
X20807D2*
X20968D1*
X22277D2*
X22723D1*
X23370D2*
X23674D1*
X24374D2*
X24494D1*
X25042D2*
X26486D1*
X17495Y24294D2*
X17780D1*
X18126D2*
X18534D1*
X20846D2*
X21017D1*
X22245D2*
X22914D1*
X24329D2*
X24452D1*
X25007D2*
X26521D1*
X17460Y24218D2*
X17733D1*
X18202D2*
X18663D1*
X18810D2*
X18962D1*
X20891D2*
X21066D1*
X22212D2*
X23084D1*
X24280D2*
X24405D1*
X24985D2*
X25197D1*
X26258D2*
X26543D1*
X17423Y24142D2*
X17692D1*
X18275D2*
X19038D1*
X20940D2*
X21118D1*
X22182D2*
X22874D1*
X22954D2*
X23213D1*
X24231D2*
X24356D1*
X24974D2*
X25282D1*
X26182D2*
X26554D1*
X17420Y24066D2*
X17655D1*
X18338D2*
X18933D1*
X20989D2*
X21176D1*
X22156D2*
X22307D1*
X22694D2*
X23308D1*
X24181D2*
X24307D1*
X24969D2*
X25042D1*
X25193D2*
X25377D1*
X26105D2*
X26322D1*
X26486D2*
X26559D1*
X17427Y23990D2*
X17623D1*
X18389D2*
X18828D1*
X21042D2*
X21235D1*
X22129D2*
X22316D1*
X22849D2*
X23337D1*
X24129D2*
X24257D1*
X24967D2*
X25042D1*
X25266D2*
X25478D1*
X26023D2*
X26226D1*
X26486D2*
X26561D1*
X17434Y23914D2*
X17596D1*
X18405D2*
X18729D1*
X21100D2*
X21289D1*
X22103D2*
X22337D1*
X22974D2*
X23329D1*
X24079D2*
X24205D1*
X24966D2*
X25042D1*
X25327D2*
X25591D1*
X25924D2*
X26128D1*
X26486D2*
X26561D1*
X17438Y23838D2*
X17570D1*
X18396D2*
X18644D1*
X21159D2*
X21344D1*
X22079D2*
X22439D1*
X23067D2*
X23312D1*
X24029D2*
X24155D1*
X24966D2*
X25042D1*
X25372D2*
X25727D1*
X25796D2*
X26030D1*
X26486D2*
X26562D1*
X17441Y23762D2*
X17546D1*
X18392D2*
X18571D1*
X21213D2*
X21407D1*
X22056D2*
X22584D1*
X23086D2*
X23292D1*
X23977D2*
X24102D1*
X24966D2*
X25042D1*
X25366D2*
X26106D1*
X26485D2*
X26562D1*
X17442Y23686D2*
X17530D1*
X18405D2*
X18501D1*
X21268D2*
X21475D1*
X22037D2*
X22266D1*
X22346D2*
X22756D1*
X23066D2*
X23265D1*
X23927D2*
X24041D1*
X24966D2*
X25045D1*
X25316D2*
X26185D1*
X26483D2*
X26562D1*
X17442Y23610D2*
X17518D1*
X18430D2*
D3*
X21331D2*
X21548D1*
X22052D2*
X22945D1*
X23032D2*
X23233D1*
X23874D2*
X23975D1*
X24966D2*
X25057D1*
X25244D2*
X25422D1*
X25726D2*
X25802D1*
X26045D2*
X26273D1*
X26471D2*
X26561D1*
X21399Y23534D2*
X21623D1*
X22102D2*
X23200D1*
X23813D2*
X23912D1*
X24969D2*
X25083D1*
X25149D2*
X25346D1*
X26152D2*
X26375D1*
X26445D2*
X26559D1*
X21472Y23458D2*
X21701D1*
X22163D2*
X22798D1*
X22878D2*
X23169D1*
X23744D2*
X23856D1*
X24981D2*
X25270D1*
X26277D2*
X26547D1*
X21547Y23382D2*
X21787D1*
X22230D2*
X23132D1*
X23671D2*
X23800D1*
X25007D2*
X26521D1*
X21625Y23306D2*
X21882D1*
X22190D2*
X22230D1*
X22413D2*
X23080D1*
X23594D2*
X23737D1*
X25042D2*
X26486D1*
X21711Y23230D2*
X21987D1*
X22154D2*
D3*
X22567D2*
X22974D1*
X23505D2*
X23665D1*
X21808Y23154D2*
X22120D1*
X22636D2*
X22875D1*
X23395D2*
X23583D1*
X21919Y23078D2*
X22304D1*
X22667D2*
X22802D1*
X23254D2*
X23487D1*
X22052Y23002D2*
X22591D1*
X22606D2*
X22743D1*
X23072D2*
X23376D1*
X22216Y22926D2*
X22686D1*
X22851D2*
X23245D1*
X22407Y22850D2*
X23087D1*
X22610Y22774D2*
X22914D1*
X15846Y21938D2*
X16226D1*
X16530D2*
X16758D1*
X17290D2*
X17746D1*
X17974D2*
X18354D1*
X18658D2*
X18886D1*
X19190D2*
X19418D1*
X19722D2*
X19950D1*
X20406D2*
X20710D1*
X20938D2*
X21090D1*
X21622D2*
X22078D1*
X22458D2*
X22610D1*
X22838D2*
X23218D1*
X23446D2*
X23750D1*
X23902D2*
X24054D1*
X24282D2*
X24434D1*
X24662D2*
X24890D1*
X25194D2*
X25650D1*
X25802D2*
X25954D1*
X26182D2*
X26942D1*
X27322D2*
X27778D1*
X27930D2*
X28234D1*
X28462D2*
X28614D1*
X28842D2*
X28994D1*
X29146D2*
X29298D1*
X29526D2*
X29602D1*
X29830D2*
X29982D1*
X15846Y21862D2*
X16226D1*
X16469D2*
X16819D1*
X17290D2*
X17749D1*
X17936D2*
X18354D1*
X18632D2*
X18898D1*
X19190D2*
X19430D1*
X19687D2*
X19950D1*
X20380D2*
X20759D1*
X20924D2*
X21090D1*
X21587D2*
X22078D1*
X22458D2*
X22646D1*
X22726D2*
X23218D1*
X23411D2*
X24089D1*
X24282D2*
X24469D1*
X24662D2*
X24864D1*
X25194D2*
X25650D1*
X25802D2*
X25954D1*
X26182D2*
X26918D1*
X27345D2*
X27754D1*
X27930D2*
X28234D1*
X28462D2*
X28614D1*
X28842D2*
X28994D1*
X29146D2*
X29298D1*
X29491D2*
X29637D1*
X29830D2*
X29982D1*
X15846Y21786D2*
X16226D1*
X16425D2*
X16864D1*
X17290D2*
X17761D1*
X17902D2*
X18354D1*
X18609D2*
X18917D1*
X19190D2*
X19449D1*
X19665D2*
X19950D1*
X20357D2*
X20809D1*
X20897D2*
X21090D1*
X21565D2*
X22078D1*
X22458D2*
X23218D1*
X23389D2*
X23840D1*
X23964D2*
X24111D1*
X24282D2*
X24491D1*
X24662D2*
X24841D1*
X25194D2*
X25650D1*
X25802D2*
X25954D1*
X26182D2*
X26881D1*
X27383D2*
X27717D1*
X27929D2*
X28234D1*
X28462D2*
X28614D1*
X28842D2*
X28994D1*
X29146D2*
X29298D1*
X29469D2*
X29659D1*
X29830D2*
X29982D1*
X16074Y21710D2*
X16226D1*
X16399D2*
X16530D1*
X16667D2*
X16889D1*
X17594D2*
X17787D1*
X17865D2*
X18050D1*
X18278D2*
X18354D1*
X18595D2*
X18936D1*
X19190D2*
X19469D1*
X19654D2*
X19950D1*
X20343D2*
X20482D1*
X20619D2*
X21090D1*
X21554D2*
X21698D1*
X21926D2*
X22078D1*
X22458D2*
X22929D1*
X23066D2*
X23218D1*
X23378D2*
X23522D1*
X23677D2*
X23866D1*
X23937D2*
X24122D1*
X24282D2*
X24502D1*
X24662D2*
X24827D1*
X25498D2*
X25650D1*
X25802D2*
X25954D1*
X26182D2*
X26334D1*
X26638D2*
X26841D1*
X27422D2*
X27677D1*
X27927D2*
X28234D1*
X28462D2*
X28614D1*
X28842D2*
X28994D1*
X29146D2*
X29298D1*
X29458D2*
X29670D1*
X29830D2*
X29982D1*
X16074Y21634D2*
X16226D1*
X16387D2*
X16530D1*
X16712D2*
X16901D1*
X17594D2*
X18050D1*
X18278D2*
X18354D1*
X18588D2*
X18950D1*
X19190D2*
X19485D1*
X19646D2*
X19950D1*
X20336D2*
X20482D1*
X20669D2*
X21090D1*
X21549D2*
X21698D1*
X21926D2*
X22078D1*
X22458D2*
X22885D1*
X23066D2*
X23218D1*
X23373D2*
X23522D1*
X23686D2*
X24127D1*
X24282D2*
X24507D1*
X24662D2*
X24819D1*
X25498D2*
X25650D1*
X25802D2*
X25954D1*
X26181D2*
X26334D1*
X26638D2*
X26815D1*
X27449D2*
X27651D1*
X27917D2*
X28234D1*
X28462D2*
X28614D1*
X28841D2*
X28994D1*
X29146D2*
X29298D1*
X29453D2*
X29674D1*
X29830D2*
X29982D1*
X16074Y21558D2*
X16226D1*
X16382D2*
X16530D1*
X16737D2*
X16907D1*
X17594D2*
X18050D1*
X18278D2*
X18354D1*
X18584D2*
X18957D1*
X19190D2*
X19504D1*
X19632D2*
X19950D1*
X20332D2*
X20482D1*
X20684D2*
X21090D1*
X21547D2*
X21698D1*
X21926D2*
X22078D1*
X22458D2*
X22855D1*
X23066D2*
X23218D1*
X23371D2*
X23522D1*
X23705D2*
X24132D1*
X24279D2*
X24509D1*
X24662D2*
X24816D1*
X25498D2*
X25650D1*
X25802D2*
X25960D1*
X26175D2*
X26334D1*
X26638D2*
X26800D1*
X27463D2*
X27636D1*
X27899D2*
X28234D1*
X28462D2*
X28620D1*
X28835D2*
X28994D1*
X29146D2*
X29298D1*
X29450D2*
X29676D1*
X29830D2*
X29982D1*
X16074Y21482D2*
X16226D1*
X16379D2*
X16530D1*
X16749D2*
X16909D1*
X17594D2*
X18050D1*
X18278D2*
X18354D1*
X18583D2*
X18960D1*
X19190D2*
X19533D1*
X19605D2*
X19950D1*
X20330D2*
X20482D1*
X20663D2*
X21090D1*
X21546D2*
X21698D1*
X21926D2*
X22078D1*
X22458D2*
X22855D1*
X23063D2*
X23218D1*
X23370D2*
X23522D1*
X23724D2*
X24144D1*
X24267D2*
X24509D1*
X24662D2*
X24815D1*
X25498D2*
X25650D1*
X25802D2*
X25974D1*
X26162D2*
X26334D1*
X26638D2*
X26794D1*
X27469D2*
X27630D1*
X27879D2*
X28237D1*
X28462D2*
X28634D1*
X28821D2*
X28994D1*
X29146D2*
X29301D1*
X29447D2*
X29677D1*
X29829D2*
X29982D1*
X16074Y21406D2*
X16226D1*
X16379D2*
X16530D1*
X16755D2*
X16910D1*
X17594D2*
X18050D1*
X18278D2*
X18354D1*
X18582D2*
X18961D1*
X19190D2*
X19950D1*
X20600D2*
X20782D1*
X20938D2*
X21090D1*
X21546D2*
X21698D1*
X21926D2*
X22078D1*
X22458D2*
X22890D1*
X23051D2*
X23218D1*
X23370D2*
X23522D1*
X23737D2*
X24171D1*
X24241D2*
X24510D1*
X24662D2*
X24814D1*
X25498D2*
X25650D1*
X25802D2*
X26033D1*
X26102D2*
X26334D1*
X26638D2*
X26791D1*
X27472D2*
X27627D1*
X27866D2*
X28246D1*
X28462D2*
X28693D1*
X28762D2*
X28994D1*
X29146D2*
X29313D1*
X29435D2*
X29681D1*
X29826D2*
X29982D1*
X16074Y21330D2*
X16226D1*
X16378D2*
X16530D1*
X16757D2*
X16910D1*
X17290D2*
X18050D1*
X18278D2*
X18354D1*
X18582D2*
X18962D1*
X19190D2*
X19950D1*
X20521D2*
X20774D1*
X20938D2*
X21090D1*
X21546D2*
X21698D1*
X21926D2*
X22078D1*
X22458D2*
X22972D1*
X23025D2*
X23218D1*
X23370D2*
X23522D1*
X23744D2*
X24513D1*
X24659D2*
X24814D1*
X25194D2*
X25650D1*
X25802D2*
X26334D1*
X26638D2*
X26790D1*
X27473D2*
X27626D1*
X27859D2*
X28265D1*
X28462D2*
X28994D1*
X29146D2*
X29339D1*
X29409D2*
X29692D1*
X29815D2*
X29982D1*
X15846Y21254D2*
X16226D1*
X16378D2*
X16530D1*
X16758D2*
X16910D1*
X17290D2*
X18050D1*
X18278D2*
X18354D1*
X18579D2*
X18965D1*
X19190D2*
X19950D1*
X20444D2*
X20729D1*
X20938D2*
X21090D1*
X21546D2*
X21698D1*
X21926D2*
X22078D1*
X22458D2*
X23218D1*
X23370D2*
X23522D1*
X23748D2*
X24525D1*
X24647D2*
X24814D1*
X25194D2*
X25650D1*
X25802D2*
X26334D1*
X26638D2*
X26790D1*
X27473D2*
X27626D1*
X27856D2*
X28009D1*
X28155D2*
X28284D1*
X28462D2*
X28994D1*
X29146D2*
X29718D1*
X29789D2*
X29982D1*
X15846Y21178D2*
X16226D1*
X16378D2*
X16530D1*
X16758D2*
X16910D1*
X17290D2*
X18050D1*
X18278D2*
X18354D1*
X18569D2*
X18975D1*
X19190D2*
X19266D1*
X19418D2*
X19950D1*
X20379D2*
X20662D1*
X20938D2*
X21090D1*
X21546D2*
X21698D1*
X21926D2*
X22078D1*
X22458D2*
X22613D1*
X22759D2*
X23218D1*
X23370D2*
X23522D1*
X23749D2*
X24551D1*
X24621D2*
X24811D1*
X25194D2*
X25650D1*
X25802D2*
X26334D1*
X26638D2*
X26790D1*
X27474D2*
X27626D1*
X27854D2*
X28021D1*
X28143D2*
X28297D1*
X28462D2*
X28994D1*
X29149D2*
X29981D1*
X15846Y21102D2*
X16226D1*
X16378D2*
X16530D1*
X16758D2*
X16910D1*
X17594D2*
X18050D1*
X18278D2*
X18354D1*
X18551D2*
X18993D1*
X19190D2*
X19266D1*
X19418D2*
X19950D1*
X20354D2*
X20591D1*
X20938D2*
X21090D1*
X21546D2*
X21698D1*
X21926D2*
X22078D1*
X22458D2*
X22625D1*
X22747D2*
X23218D1*
X23370D2*
X23522D1*
X23747D2*
X24801D1*
X25498D2*
X25650D1*
X25802D2*
X25954D1*
X26182D2*
X26334D1*
X26638D2*
X26790D1*
X27474D2*
X27626D1*
X27854D2*
X28047D1*
X28117D2*
X28304D1*
X28462D2*
X28614D1*
X28842D2*
X28994D1*
X29158D2*
X29979D1*
X16074Y21026D2*
X16226D1*
X16378D2*
X16530D1*
X16758D2*
X16910D1*
X17594D2*
X18050D1*
X18278D2*
X18354D1*
X18532D2*
X19012D1*
X19190D2*
X19266D1*
X19421D2*
X19950D1*
X20340D2*
X20530D1*
X20935D2*
X21090D1*
X21546D2*
X21698D1*
X21926D2*
X22078D1*
X22458D2*
X22651D1*
X22721D2*
X22914D1*
X23066D2*
X23218D1*
X23370D2*
X23522D1*
X23737D2*
X24783D1*
X25498D2*
X25650D1*
X25802D2*
X25954D1*
X26182D2*
X26334D1*
X26638D2*
X26790D1*
X27474D2*
X27626D1*
X27853D2*
X28308D1*
X28462D2*
X28614D1*
X28842D2*
X28994D1*
X29176D2*
X29969D1*
X16074Y20950D2*
X16226D1*
X16378D2*
X16531D1*
X16758D2*
X16910D1*
X17594D2*
X18051D1*
X18277D2*
X18354D1*
X18518D2*
X19026D1*
X19190D2*
X19266D1*
X19431D2*
X19646D1*
X19798D2*
X19950D1*
X20334D2*
X20506D1*
X20710D2*
X20786D1*
X20923D2*
X21090D1*
X21546D2*
X21699D1*
X21925D2*
X22079D1*
X22457D2*
X22911D1*
X23066D2*
X23218D1*
X23370D2*
X23522D1*
X23719D2*
X24763D1*
X25498D2*
X25650D1*
X25802D2*
X25954D1*
X26182D2*
X26334D1*
X26638D2*
X26790D1*
X27474D2*
X27626D1*
X27851D2*
X28309D1*
X28462D2*
X28614D1*
X28842D2*
X28994D1*
X29196D2*
X29951D1*
X16074Y20874D2*
X16226D1*
X16378D2*
X16537D1*
X16752D2*
X16910D1*
X17594D2*
X18056D1*
X18272D2*
X18354D1*
X18511D2*
X19033D1*
X19190D2*
X19266D1*
X19449D2*
X19646D1*
X19798D2*
X19950D1*
X20331D2*
X20491D1*
X20704D2*
X20822D1*
X20897D2*
X21090D1*
X21546D2*
X21704D1*
X21920D2*
X22083D1*
X22453D2*
X22901D1*
X23066D2*
X23218D1*
X23370D2*
X23525D1*
X23696D2*
X24750D1*
X25498D2*
X25650D1*
X25802D2*
X25954D1*
X26182D2*
X26334D1*
X26638D2*
X26790D1*
X27474D2*
X27626D1*
X27841D2*
X28309D1*
X28462D2*
X28614D1*
X28842D2*
X28994D1*
X29209D2*
X29931D1*
X16074Y20798D2*
X16226D1*
X16381D2*
X16550D1*
X16738D2*
X16907D1*
X17594D2*
X18070D1*
X18258D2*
X18354D1*
X18508D2*
X18658D1*
X18886D2*
X19036D1*
X19190D2*
X19266D1*
X19468D2*
X19643D1*
X19798D2*
X19950D1*
X20331D2*
X20505D1*
X20690D2*
X21090D1*
X21546D2*
X21718D1*
X21906D2*
X22118D1*
X22418D2*
X22883D1*
X23066D2*
X23218D1*
X23370D2*
X23537D1*
X23671D2*
X23890D1*
X24054D2*
X24282D1*
X24419D2*
X24743D1*
X25498D2*
X25650D1*
X25802D2*
X25954D1*
X26182D2*
X26334D1*
X26638D2*
X26790D1*
X27474D2*
X27626D1*
X27823D2*
X28005D1*
X28158D2*
X28310D1*
X28462D2*
X28614D1*
X28842D2*
X28994D1*
X29216D2*
X29541D1*
X29678D2*
X29918D1*
X16074Y20722D2*
X16226D1*
X16391D2*
X16610D1*
X16679D2*
X16897D1*
X17594D2*
X17746D1*
X17901D2*
X18129D1*
X18199D2*
X18354D1*
X18507D2*
X18658D1*
X18886D2*
X19037D1*
X19190D2*
X19266D1*
X19482D2*
X19633D1*
X19798D2*
X19950D1*
X20333D2*
X20562D1*
X20631D2*
X21090D1*
X21549D2*
X21777D1*
X21847D2*
X22237D1*
X22299D2*
X22864D1*
X23066D2*
X23218D1*
X23373D2*
X23563D1*
X23638D2*
X23868D1*
X24054D2*
X24282D1*
X24463D2*
X24740D1*
X25498D2*
X25650D1*
X25802D2*
X25954D1*
X26182D2*
X26334D1*
X26638D2*
X26790D1*
X27474D2*
X27626D1*
X27803D2*
X28002D1*
X28158D2*
X28310D1*
X28462D2*
X28614D1*
X28842D2*
X28994D1*
X29219D2*
X29496D1*
X29678D2*
X29911D1*
X16074Y20646D2*
X16226D1*
X16409D2*
X16873D1*
X17290D2*
X17746D1*
X17913D2*
X18354D1*
X18506D2*
X18658D1*
X18886D2*
X19038D1*
X19190D2*
X19266D1*
X19489D2*
X19614D1*
X19798D2*
X19950D1*
X20345D2*
X20786D1*
X20938D2*
X21090D1*
X21561D2*
X22850D1*
X23066D2*
X23218D1*
X23385D2*
X23836D1*
X24054D2*
X24282D1*
X24489D2*
X24739D1*
X25194D2*
X25650D1*
X25802D2*
X25954D1*
X26182D2*
X26334D1*
X26638D2*
X26790D1*
X27474D2*
X27626D1*
X27790D2*
X27991D1*
X28158D2*
X28310D1*
X28462D2*
X28614D1*
X28842D2*
X28994D1*
X29221D2*
X29471D1*
X29678D2*
X29908D1*
X16074Y20570D2*
X16226D1*
X16424D2*
X16834D1*
X17290D2*
X17746D1*
X17939D2*
X18354D1*
X18506D2*
X18658D1*
X18886D2*
X19038D1*
X19190D2*
X19266D1*
X19492D2*
X19592D1*
X19798D2*
X19950D1*
X20371D2*
X20786D1*
X20938D2*
X21090D1*
X21587D2*
X22843D1*
X23066D2*
X23218D1*
X23411D2*
X23796D1*
X24054D2*
X24282D1*
X24502D2*
X24738D1*
X25194D2*
X25650D1*
X25802D2*
X25954D1*
X26182D2*
X26334D1*
X26638D2*
X26790D1*
X27474D2*
X27626D1*
X27783D2*
X27965D1*
X28158D2*
X28310D1*
X28462D2*
X28614D1*
X28842D2*
X28994D1*
X29221D2*
X29458D1*
X29678D2*
X29906D1*
X15314Y20494D2*
D3*
X16074D2*
X16226D1*
X16429D2*
X16783D1*
X17290D2*
X17746D1*
X17974D2*
X18354D1*
X18506D2*
X18658D1*
X18886D2*
X19038D1*
X19190D2*
X19266D1*
X19494D2*
X19570D1*
X19798D2*
X19950D1*
X20406D2*
X20786D1*
X20938D2*
X21090D1*
X21622D2*
X22838D1*
X23066D2*
X23218D1*
X23446D2*
X23750D1*
X24054D2*
X24282D1*
X24510D2*
X24738D1*
X25194D2*
X25650D1*
X25802D2*
X25954D1*
X26182D2*
X26334D1*
X26638D2*
X26790D1*
X27474D2*
X27626D1*
X27778D2*
X27930D1*
X28158D2*
X28310D1*
X28462D2*
X28614D1*
X28842D2*
X28994D1*
X29222D2*
X29450D1*
X29678D2*
X29906D1*
X15352Y20418D2*
X15618D1*
X16370D2*
X16731D1*
X16910D2*
X17214D1*
X15458Y20342D2*
X16034D1*
X16200D2*
X17363D1*
X17974D2*
X18202D1*
X15579Y20266D2*
X16457D1*
X16682D2*
X16907D1*
X17044D2*
X17499D1*
X18010D2*
X18202D1*
X15685Y20190D2*
X16467D1*
X16758D2*
X16973D1*
X17155D2*
X17609D1*
X18050D2*
D3*
X18202D2*
D3*
X15768Y20114D2*
X15922D1*
X16108D2*
X16488D1*
X16834D2*
X17032D1*
X17238D2*
X17700D1*
X17969D2*
X18430D1*
X15835Y20038D2*
X15998D1*
X16252D2*
X16520D1*
X16907D2*
X17094D1*
X17307D2*
X17690D1*
X17898D2*
X18359D1*
X15893Y19962D2*
X16071D1*
X16349D2*
X16562D1*
X16973D2*
X17180D1*
X17374D2*
X17518D1*
X17670D2*
X17645D1*
X18050D2*
X18162D1*
X18278D2*
D3*
X15948Y19886D2*
X16138D1*
X16415D2*
X16610D1*
X17028D2*
X17301D1*
X17442D2*
X17591D1*
X17974D2*
X18430D1*
X16011Y19810D2*
X16195D1*
X16466D2*
X16661D1*
X17071D2*
X17660D1*
X18056D2*
X18395D1*
X16077Y19734D2*
X16249D1*
X16514D2*
X16729D1*
X17106D2*
X17725D1*
X18119D2*
X18373D1*
X16140Y19658D2*
X16299D1*
X16574D2*
X16833D1*
X17106D2*
X17302D1*
X17454D2*
X17787D1*
X18165D2*
X18202D1*
X18354D2*
X18361D1*
X16195Y19582D2*
X16337D1*
X16652D2*
X16975D1*
X17054D2*
X17245D1*
X17549D2*
X17838D1*
X18202D2*
D3*
X18354D2*
D3*
X16248Y19506D2*
X16361D1*
X16742D2*
X17192D1*
X17648D2*
X17873D1*
X16302Y19430D2*
X16378D1*
X16834D2*
X17138D1*
X17746D2*
X17898D1*
X12793Y41981D2*
X12758Y41905D1*
X12736Y41829D1*
X12725Y41753D1*
X12720Y41677D1*
X12718Y41601D1*
X12717Y41525D1*
X13477Y41981D2*
X13649Y41905D1*
X13788Y41829D1*
X13891Y41753D1*
X13963Y41677D1*
X14017Y41601D1*
X14061Y41525D1*
X14099Y41449D1*
X14128Y41373D1*
X14146Y41297D1*
X14154Y41221D1*
X14158Y41145D1*
X14160Y41069D1*
Y40993D1*
X14161Y40917D1*
Y40841D1*
X14541D1*
Y40765D1*
Y40689D1*
Y40613D1*
Y40537D1*
Y40461D1*
Y40385D1*
X14161D1*
Y40309D1*
Y40233D1*
Y40157D1*
Y40081D1*
Y40005D1*
Y39929D1*
Y39853D1*
Y39777D1*
Y39701D1*
Y39625D1*
Y39549D1*
Y39473D1*
Y39397D1*
Y39321D1*
Y39245D1*
Y39169D1*
Y39093D1*
Y39017D1*
Y38941D1*
Y38865D1*
Y38789D1*
Y38713D1*
Y38637D1*
Y38561D1*
Y38485D1*
Y38409D1*
Y38333D1*
Y38257D1*
Y38181D1*
Y38105D1*
Y38029D1*
Y37953D1*
Y37877D1*
X23736Y41829D2*
Y41753D1*
Y41677D1*
Y41601D1*
Y41525D1*
Y41449D1*
Y41373D1*
X24268Y41829D2*
Y41753D1*
Y41677D1*
Y41601D1*
Y41525D1*
Y41449D1*
Y41373D1*
X31716Y41677D2*
Y41601D1*
Y41525D1*
Y41449D1*
Y41373D1*
Y41297D1*
Y41221D1*
Y41145D1*
Y41069D1*
Y40993D1*
Y40917D1*
Y40841D1*
X32172Y41677D2*
Y41601D1*
Y41525D1*
Y41449D1*
Y41373D1*
Y41297D1*
Y41221D1*
Y41145D1*
Y41069D1*
Y40993D1*
Y40917D1*
Y40841D1*
X32476D1*
Y40765D1*
Y40689D1*
Y40613D1*
Y40537D1*
Y40461D1*
Y40385D1*
X32172D1*
Y40309D1*
Y40233D1*
Y40157D1*
Y40081D1*
Y40005D1*
Y39929D1*
Y39853D1*
Y39777D1*
Y39701D1*
Y39625D1*
Y39549D1*
Y39473D1*
Y39397D1*
Y39321D1*
Y39245D1*
Y39169D1*
Y39093D1*
Y39017D1*
Y38941D1*
Y38865D1*
X32169Y38789D1*
X32159Y38713D1*
X32141Y38637D1*
X32122Y38561D1*
X32108Y38485D1*
X32098Y38409D1*
X32085Y38333D1*
X32063Y38257D1*
X32030Y38181D1*
X31985Y38105D1*
X31922Y38029D1*
X31832Y37953D1*
X31708Y37877D1*
X31564Y37801D1*
X12869Y41601D2*
X12793Y41525D1*
X13325Y41601D2*
X13459Y41525D1*
X13567Y41449D1*
X13650Y41373D1*
X13690Y41297D1*
X13724Y41221D1*
X13751Y41145D1*
X13767Y41069D1*
X13775Y40993D1*
X13779Y40917D1*
X13781Y40841D1*
X12945D1*
Y40765D1*
Y40689D1*
Y40613D1*
Y40537D1*
Y40461D1*
Y40385D1*
X13705D1*
Y40309D1*
Y40233D1*
Y40157D1*
Y40081D1*
Y40005D1*
Y39929D1*
Y39853D1*
Y39777D1*
Y39701D1*
Y39625D1*
Y39549D1*
Y39473D1*
Y39397D1*
Y39321D1*
Y39245D1*
Y39169D1*
Y39093D1*
Y39017D1*
Y38941D1*
Y38865D1*
Y38789D1*
Y38713D1*
Y38637D1*
Y38561D1*
Y38485D1*
Y38409D1*
Y38333D1*
Y38257D1*
Y38181D1*
Y38105D1*
Y38029D1*
Y37953D1*
Y37877D1*
X15681Y40917D2*
X15535Y40841D1*
X15415Y40765D1*
X15320Y40689D1*
X15244Y40613D1*
X15185Y40537D1*
X15140Y40461D1*
X15107Y40385D1*
X15086Y40309D1*
X15067Y40233D1*
X15044Y40157D1*
X15023Y40081D1*
X15009Y40005D1*
X15002Y39929D1*
X14999Y39853D1*
X14998Y39777D1*
X14997Y39701D1*
Y39625D1*
Y39549D1*
Y39473D1*
Y39397D1*
Y39321D1*
Y39245D1*
Y39169D1*
Y39093D1*
Y39017D1*
Y38941D1*
Y38865D1*
Y38789D1*
Y38713D1*
Y38637D1*
Y38561D1*
Y38485D1*
Y38409D1*
Y38333D1*
Y38257D1*
Y38181D1*
Y38105D1*
Y38029D1*
Y37953D1*
Y37877D1*
X16213Y40917D2*
X16371Y40841D1*
X16512Y40765D1*
X16642Y40689D1*
X16769Y40613D1*
X16897Y40537D1*
X18949Y40917D2*
X18773Y40841D1*
X18622Y40765D1*
X18494Y40689D1*
X18391Y40613D1*
X18313Y40537D1*
X18249Y40461D1*
X18192Y40385D1*
X18142Y40309D1*
X18101Y40233D1*
X18067Y40157D1*
X18039Y40081D1*
X18012Y40005D1*
X17989Y39929D1*
X17974Y39853D1*
X17966Y39777D1*
X17963Y39701D1*
X17961Y39625D1*
Y39549D1*
Y39473D1*
Y39397D1*
Y39321D1*
Y39245D1*
Y39169D1*
Y39093D1*
X17964Y39017D1*
X17973Y38941D1*
X17992Y38865D1*
X18014Y38789D1*
X18037Y38713D1*
X18065Y38637D1*
X18100Y38561D1*
X18143Y38485D1*
X18191Y38409D1*
X18240Y38333D1*
X18296Y38257D1*
X18370Y38181D1*
X18472Y38105D1*
X18607Y38029D1*
X18770Y37953D1*
X18949Y37877D1*
X19557Y40917D2*
X19740Y40841D1*
X19901Y40765D1*
X20033Y40689D1*
X20137Y40613D1*
X20218Y40537D1*
X20282Y40461D1*
X20337Y40385D1*
X20389Y40309D1*
X20430Y40233D1*
X20462Y40157D1*
X20491Y40081D1*
X20516Y40005D1*
X20531Y39929D1*
X20542Y39853D1*
X20555Y39777D1*
X20574Y39701D1*
X20595Y39625D1*
X20608Y39549D1*
X20615Y39473D1*
X20618Y39397D1*
X20617Y39321D1*
X20608Y39245D1*
X20590Y39169D1*
X20570Y39093D1*
X20557Y39017D1*
X20547Y38941D1*
X20534Y38865D1*
X20511Y38789D1*
X20481Y38713D1*
X20447Y38637D1*
X20411Y38561D1*
X20373Y38485D1*
X20332Y38409D1*
X20284Y38333D1*
X20222Y38257D1*
X20142Y38181D1*
X20036Y38105D1*
X19900Y38029D1*
X19735Y37953D1*
X19557Y37877D1*
X21456Y40917D2*
X21261Y40841D1*
X21109Y40765D1*
X20996Y40689D1*
X20959Y40613D1*
X20939Y40537D1*
X20930Y40461D1*
X20926Y40385D1*
X20925Y40309D1*
X20924Y40233D1*
X22064Y40917D2*
X22272Y40841D1*
X22436Y40765D1*
X22559Y40689D1*
X22657Y40613D1*
X22742Y40537D1*
X22819Y40461D1*
X22887Y40385D1*
X22942Y40309D1*
X22986Y40233D1*
X23021Y40157D1*
X23049Y40081D1*
X23077Y40005D1*
X23100Y39929D1*
X23115Y39853D1*
X23126Y39777D1*
X23139Y39701D1*
X23158Y39625D1*
X23178Y39549D1*
X23192Y39473D1*
X23199Y39397D1*
Y39321D1*
X23191Y39245D1*
X23173Y39169D1*
X23154Y39093D1*
X23141Y39017D1*
X23133Y38941D1*
X23128Y38865D1*
X23116Y38789D1*
X23095Y38713D1*
X23065Y38637D1*
X23031Y38561D1*
X22994Y38485D1*
X22957Y38409D1*
X22916Y38333D1*
X22868Y38257D1*
X22806Y38181D1*
X22726Y38105D1*
X22620Y38029D1*
X22484Y37953D1*
X22319Y37877D1*
X22140Y37801D1*
X25636Y40917D2*
X25499Y40841D1*
X25379Y40765D1*
X25280Y40689D1*
X25202Y40613D1*
X25141Y40537D1*
X25093Y40461D1*
X25050Y40385D1*
X25013Y40309D1*
X24982Y40233D1*
X24955Y40157D1*
X24928Y40081D1*
X24904Y40005D1*
X24890Y39929D1*
X24882Y39853D1*
X24879Y39777D1*
X24877Y39701D1*
Y39625D1*
X24876Y39549D1*
Y39473D1*
Y39397D1*
Y39321D1*
Y39245D1*
Y39169D1*
X24877Y39093D1*
X24879Y39017D1*
X24889Y38941D1*
X24907Y38865D1*
X24930Y38789D1*
X24953Y38713D1*
X24981Y38637D1*
X25013Y38561D1*
X25049Y38485D1*
X25089Y38409D1*
X25136Y38333D1*
X25195Y38257D1*
X25263Y38181D1*
X25338Y38105D1*
X25425Y38029D1*
X25531Y37953D1*
X25655Y37877D1*
X25788Y37801D1*
X26168Y40917D2*
X26341Y40841D1*
X26486Y40765D1*
X26610Y40689D1*
X26730Y40613D1*
X26852Y40537D1*
X28904Y40917D2*
X28729Y40841D1*
X28577Y40765D1*
X28449Y40689D1*
X28346Y40613D1*
X28268Y40537D1*
X28204Y40461D1*
X28147Y40385D1*
X28098Y40309D1*
X28056Y40233D1*
X28023Y40157D1*
X27995Y40081D1*
X27968Y40005D1*
X27944Y39929D1*
X27929Y39853D1*
X27922Y39777D1*
X27918Y39701D1*
X27917Y39625D1*
X27916Y39549D1*
Y39473D1*
Y39397D1*
Y39321D1*
Y39245D1*
Y39169D1*
Y39093D1*
X27919Y39017D1*
X27929Y38941D1*
X27947Y38865D1*
X27969Y38789D1*
X27993Y38713D1*
X28021Y38637D1*
X28056Y38561D1*
X28099Y38485D1*
X28147Y38409D1*
X28196Y38333D1*
X28252Y38257D1*
X28326Y38181D1*
X28428Y38105D1*
X28562Y38029D1*
X28726Y37953D1*
X28904Y37877D1*
X29512Y40917D2*
X29696Y40841D1*
X29857Y40765D1*
X29989Y40689D1*
X30093Y40613D1*
X30174Y40537D1*
X30237Y40461D1*
X30293Y40385D1*
X30344Y40309D1*
X30385Y40233D1*
X30418Y40157D1*
X30447Y40081D1*
X30471Y40005D1*
X30487Y39929D1*
X30497Y39853D1*
X30510Y39777D1*
X30530Y39701D1*
X30550Y39625D1*
X30564Y39549D1*
X30571Y39473D1*
X30574Y39397D1*
X30572Y39321D1*
X30563Y39245D1*
X30545Y39169D1*
X30526Y39093D1*
X30512Y39017D1*
X30502Y38941D1*
X30489Y38865D1*
X30467Y38789D1*
X30437Y38713D1*
X30403Y38637D1*
X30366Y38561D1*
X30328Y38485D1*
X30288Y38409D1*
X30240Y38333D1*
X30178Y38257D1*
X30098Y38181D1*
X29992Y38105D1*
X29855Y38029D1*
X29691Y37953D1*
X29512Y37877D1*
X16897Y40841D2*
X16894Y40765D1*
X16882Y40689D1*
X16856Y40613D1*
X16821Y40537D1*
X17353Y40841D2*
Y40765D1*
Y40689D1*
Y40613D1*
Y40537D1*
Y40461D1*
Y40385D1*
Y40309D1*
Y40233D1*
Y40157D1*
Y40081D1*
Y40005D1*
Y39929D1*
Y39853D1*
Y39777D1*
Y39701D1*
Y39625D1*
Y39549D1*
Y39473D1*
Y39397D1*
Y39321D1*
Y39245D1*
Y39169D1*
Y39093D1*
Y39017D1*
Y38941D1*
Y38865D1*
Y38789D1*
Y38713D1*
Y38637D1*
Y38561D1*
Y38485D1*
Y38409D1*
Y38333D1*
Y38257D1*
Y38181D1*
Y38105D1*
Y38029D1*
Y37953D1*
Y37877D1*
X23812Y40841D2*
Y40765D1*
Y40689D1*
Y40613D1*
Y40537D1*
Y40461D1*
Y40385D1*
Y40309D1*
Y40233D1*
Y40157D1*
Y40081D1*
Y40005D1*
Y39929D1*
Y39853D1*
Y39777D1*
Y39701D1*
Y39625D1*
Y39549D1*
Y39473D1*
Y39397D1*
Y39321D1*
Y39245D1*
Y39169D1*
Y39093D1*
Y39017D1*
Y38941D1*
Y38865D1*
Y38789D1*
Y38713D1*
Y38637D1*
Y38561D1*
Y38485D1*
Y38409D1*
Y38333D1*
Y38257D1*
Y38181D1*
Y38105D1*
Y38029D1*
Y37953D1*
Y37877D1*
X24268Y40841D2*
Y40765D1*
Y40689D1*
Y40613D1*
Y40537D1*
Y40461D1*
Y40385D1*
Y40309D1*
Y40233D1*
Y40157D1*
Y40081D1*
Y40005D1*
Y39929D1*
Y39853D1*
Y39777D1*
Y39701D1*
Y39625D1*
Y39549D1*
Y39473D1*
Y39397D1*
Y39321D1*
Y39245D1*
Y39169D1*
Y39093D1*
Y39017D1*
Y38941D1*
Y38865D1*
Y38789D1*
Y38713D1*
Y38637D1*
Y38561D1*
Y38485D1*
Y38409D1*
Y38333D1*
Y38257D1*
Y38181D1*
Y38105D1*
Y38029D1*
Y37953D1*
Y37877D1*
X26852Y40841D2*
X26849Y40765D1*
X26837Y40689D1*
X26811Y40613D1*
X26776Y40537D1*
X27308Y40841D2*
Y40765D1*
Y40689D1*
Y40613D1*
Y40537D1*
Y40461D1*
Y40385D1*
Y40309D1*
Y40233D1*
Y40157D1*
Y40081D1*
Y40005D1*
Y39929D1*
Y39853D1*
Y39777D1*
Y39701D1*
Y39625D1*
Y39549D1*
Y39473D1*
Y39397D1*
Y39321D1*
Y39245D1*
Y39169D1*
Y39093D1*
Y39017D1*
Y38941D1*
Y38865D1*
Y38789D1*
Y38713D1*
Y38637D1*
Y38561D1*
Y38485D1*
Y38409D1*
Y38333D1*
Y38257D1*
Y38181D1*
Y38105D1*
Y38029D1*
Y37953D1*
Y37877D1*
Y37801D1*
Y37725D1*
Y37649D1*
Y37573D1*
Y37497D1*
Y37421D1*
Y37345D1*
Y37269D1*
Y37193D1*
Y37117D1*
Y37041D1*
Y36965D1*
Y36889D1*
Y36813D1*
Y36737D1*
X30804Y40841D2*
Y40765D1*
Y40689D1*
Y40613D1*
Y40537D1*
Y40461D1*
X15833Y40537D2*
X15757Y40461D1*
X15684Y40385D1*
X15620Y40309D1*
X15572Y40233D1*
X15537Y40157D1*
X15507Y40081D1*
X15482Y40005D1*
X15466Y39929D1*
X15458Y39853D1*
X15455Y39777D1*
X15454Y39701D1*
X15453Y39625D1*
Y39549D1*
Y39473D1*
Y39397D1*
Y39321D1*
Y39245D1*
Y39169D1*
Y39093D1*
Y39017D1*
Y38941D1*
Y38865D1*
Y38789D1*
Y38713D1*
Y38637D1*
Y38561D1*
Y38485D1*
Y38409D1*
Y38333D1*
Y38257D1*
Y38181D1*
Y38105D1*
Y38029D1*
Y37953D1*
Y37877D1*
X16213Y40537D2*
X16362Y40461D1*
X16503Y40385D1*
X16631Y40309D1*
X16738Y40233D1*
X16827Y40157D1*
X16863Y40081D1*
X16882Y40005D1*
X16891Y39929D1*
X16894Y39853D1*
X16896Y39777D1*
Y39701D1*
X16897Y39625D1*
Y39549D1*
Y39473D1*
Y39397D1*
Y39321D1*
Y39245D1*
Y39169D1*
Y39093D1*
Y39017D1*
Y38941D1*
Y38865D1*
Y38789D1*
Y38713D1*
Y38637D1*
Y38561D1*
Y38485D1*
Y38409D1*
Y38333D1*
Y38257D1*
Y38181D1*
Y38105D1*
Y38029D1*
Y37953D1*
Y37877D1*
X19101Y40537D2*
X18963Y40461D1*
X18843Y40385D1*
X18742Y40309D1*
X18657Y40233D1*
X18588Y40157D1*
X18538Y40081D1*
X18501Y40005D1*
X18471Y39929D1*
X18446Y39853D1*
X18430Y39777D1*
X18422Y39701D1*
X18419Y39625D1*
X18417Y39549D1*
Y39473D1*
Y39397D1*
Y39321D1*
Y39245D1*
Y39169D1*
X18420Y39093D1*
X18429Y39017D1*
X18448Y38941D1*
X18470Y38865D1*
X18496Y38789D1*
X18534Y38713D1*
X18588Y38637D1*
X18658Y38561D1*
X18762Y38485D1*
X18949Y38409D1*
X19254Y38333D1*
X19633Y38257D1*
X19405Y40537D2*
X19553Y40461D1*
X19690Y40385D1*
X19801Y40309D1*
X19882Y40233D1*
X19940Y40157D1*
X19987Y40081D1*
X20026Y40005D1*
X20056Y39929D1*
X20074Y39853D1*
X20085Y39777D1*
X20099Y39701D1*
X20118Y39625D1*
X20138Y39549D1*
X20152Y39473D1*
X20156Y39397D1*
X20150Y39321D1*
X20133Y39245D1*
X20114Y39169D1*
X20100Y39093D1*
X20091Y39017D1*
X20078Y38941D1*
X20055Y38865D1*
X20025Y38789D1*
X19991Y38713D1*
X19948Y38637D1*
X19898Y38561D1*
X19779Y38485D1*
X19577Y38409D1*
X19260Y38333D1*
X18873Y38257D1*
X21760Y40537D2*
X21547Y40461D1*
X21351Y40385D1*
X21171Y40309D1*
X21000Y40233D1*
X21836Y40537D2*
X22035Y40461D1*
X22199Y40385D1*
X22323Y40309D1*
X22414Y40233D1*
X22480Y40157D1*
X22531Y40081D1*
X22574Y40005D1*
X22611Y39929D1*
X22640Y39853D1*
X22657Y39777D1*
X22666Y39701D1*
X22670Y39625D1*
X22675Y39549D1*
X22687Y39473D1*
X22713Y39397D1*
X22748Y39321D1*
X22713Y39245D1*
X22691Y39169D1*
X22680Y39093D1*
X22673Y39017D1*
X22661Y38941D1*
X22639Y38865D1*
X22609Y38789D1*
X22575Y38713D1*
X22535Y38637D1*
X22488Y38561D1*
X22421Y38485D1*
X22335Y38409D1*
X22099Y38333D1*
X21741Y38257D1*
X21304Y38181D1*
X25940Y40537D2*
X25803Y40461D1*
X25686Y40385D1*
X25594Y40309D1*
X25527Y40233D1*
X25478Y40157D1*
X25441Y40081D1*
X25412Y40005D1*
X25384Y39929D1*
X25361Y39853D1*
X25346Y39777D1*
X25338Y39701D1*
X25335Y39625D1*
X25333Y39549D1*
Y39473D1*
X25332Y39397D1*
Y39321D1*
Y39245D1*
X25333Y39169D1*
X25335Y39093D1*
X25345Y39017D1*
X25363Y38941D1*
X25386Y38865D1*
X25409Y38789D1*
X25437Y38713D1*
X25472Y38637D1*
X25518Y38561D1*
X25581Y38485D1*
X25661Y38409D1*
X25875Y38333D1*
X26210Y38257D1*
X26624Y38181D1*
X26168Y40537D2*
X26320Y40461D1*
X26469Y40385D1*
X26605Y40309D1*
X26714Y40233D1*
X26797Y40157D1*
X26825Y40081D1*
X26841Y40005D1*
X26848Y39929D1*
X26851Y39853D1*
X26852Y39777D1*
Y39701D1*
Y39625D1*
Y39549D1*
Y39473D1*
Y39397D1*
Y39321D1*
Y39245D1*
Y39169D1*
Y39093D1*
Y39017D1*
Y38941D1*
Y38865D1*
Y38789D1*
Y38713D1*
Y38637D1*
X26846Y38561D1*
X26831Y38485D1*
X26763Y38409D1*
X26546Y38333D1*
X26207Y38257D1*
X25788Y38181D1*
X29056Y40537D2*
X28919Y40461D1*
X28799Y40385D1*
X28697Y40309D1*
X28612Y40233D1*
X28543Y40157D1*
X28493Y40081D1*
X28457Y40005D1*
X28426Y39929D1*
X28401Y39853D1*
X28386Y39777D1*
X28378Y39701D1*
X28374Y39625D1*
X28373Y39549D1*
X28372Y39473D1*
Y39397D1*
Y39321D1*
Y39245D1*
Y39169D1*
X28375Y39093D1*
X28385Y39017D1*
X28403Y38941D1*
X28426Y38865D1*
X28452Y38789D1*
X28490Y38713D1*
X28543Y38637D1*
X28613Y38561D1*
X28717Y38485D1*
X28904Y38409D1*
X29210Y38333D1*
X29588Y38257D1*
X29360Y40537D2*
X29509Y40461D1*
X29645Y40385D1*
X29756Y40309D1*
X29837Y40233D1*
X29896Y40157D1*
X29943Y40081D1*
X29982Y40005D1*
X30011Y39929D1*
X30029Y39853D1*
X30041Y39777D1*
X30054Y39701D1*
X30074Y39625D1*
X30094Y39549D1*
X30107Y39473D1*
X30112Y39397D1*
X30105Y39321D1*
X30088Y39245D1*
X30069Y39169D1*
X30056Y39093D1*
X30046Y39017D1*
X30033Y38941D1*
X30011Y38865D1*
X29981Y38789D1*
X29946Y38713D1*
X29904Y38637D1*
X29853Y38561D1*
X29735Y38485D1*
X29533Y38409D1*
X29216Y38333D1*
X28828Y38257D1*
X31716Y40461D2*
Y40385D1*
Y40309D1*
Y40233D1*
Y40157D1*
Y40081D1*
Y40005D1*
Y39929D1*
Y39853D1*
Y39777D1*
Y39701D1*
Y39625D1*
Y39549D1*
Y39473D1*
Y39397D1*
Y39321D1*
Y39245D1*
Y39169D1*
Y39093D1*
Y39017D1*
Y38941D1*
Y38865D1*
Y38789D1*
X31713Y38713D1*
X31703Y38637D1*
X31682Y38561D1*
X31648Y38485D1*
X31602Y38409D1*
X31448Y38333D1*
X31197Y38257D1*
X30880Y38181D1*
X20924Y38485D2*
Y38409D1*
Y38333D1*
X20925Y38257D1*
X20928Y38181D1*
X20937Y38105D1*
X20985Y38029D1*
X21110Y37953D1*
X21274Y37877D1*
X21456Y37801D1*
X21000Y38485D2*
X21174Y38409D1*
X21409Y38333D1*
X21743Y38257D1*
X22140Y38181D1*
X30804Y38257D2*
Y38181D1*
X30805Y38105D1*
X30810Y38029D1*
X30824Y37953D1*
X30883Y37877D1*
X30956Y37801D1*
X30880Y38257D2*
X30956Y38181D1*
X26852Y37953D2*
X26624Y37877D1*
X26396Y37801D1*
X26852Y37953D2*
Y37877D1*
Y37801D1*
Y37725D1*
Y37649D1*
Y37573D1*
Y37497D1*
Y37421D1*
Y37345D1*
Y37269D1*
Y37193D1*
Y37117D1*
Y37041D1*
Y36965D1*
Y36889D1*
Y36813D1*
Y36737D1*
X18722Y15056D2*
Y14980D1*
Y14904D1*
Y14828D1*
X19081Y14752D1*
X19349Y14676D1*
X19526Y14600D1*
X19652Y14524D1*
X19711Y14448D1*
X19760Y14372D1*
X19800Y14296D1*
X19832Y14220D1*
X19860Y14144D1*
X19886Y14068D1*
X19911Y13992D1*
X19907Y13916D1*
X19854Y13840D1*
X19786Y13764D1*
X19330Y15056D2*
X19488Y14980D1*
X19626Y14904D1*
X19741Y14828D1*
X19831Y14752D1*
X19899Y14676D1*
X19958Y14600D1*
X20013Y14524D1*
X20061Y14448D1*
X20102Y14372D1*
X20133Y14296D1*
X20154Y14220D1*
X20172Y14144D1*
X20195Y14068D1*
X20216Y13992D1*
X20229Y13916D1*
X20237Y13840D1*
X20240Y13764D1*
X20244Y13688D1*
X20255Y13612D1*
X20273Y13536D1*
X20292Y13460D1*
X20303Y13384D1*
X20300Y13308D1*
X20285Y13232D1*
X20267Y13156D1*
X20254Y13080D1*
X20247Y13004D1*
X20241Y12928D1*
X20230Y12852D1*
X20211Y12776D1*
X20189Y12700D1*
X20166Y12624D1*
X20137Y12548D1*
X20102Y12472D1*
X20057Y12396D1*
X19998Y12320D1*
X19925Y12244D1*
X19830Y12168D1*
X19704Y12092D1*
X19558Y12016D1*
X23510Y15056D2*
X23399Y14980D1*
X23304Y14904D1*
X23227Y14828D1*
X23167Y14752D1*
X23119Y14676D1*
X23076Y14600D1*
X23039Y14524D1*
X23010Y14448D1*
X22990Y14372D1*
X22972Y14296D1*
X22950Y14220D1*
X22929Y14144D1*
X22915Y14068D1*
X22908Y13992D1*
X22904Y13916D1*
X22903Y13840D1*
X22902Y13764D1*
Y13688D1*
Y13612D1*
Y13536D1*
Y13460D1*
Y13384D1*
Y13308D1*
Y13232D1*
Y13156D1*
X22905Y13080D1*
X22915Y13004D1*
X22933Y12928D1*
X22953Y12852D1*
X22969Y12776D1*
X22985Y12700D1*
X23007Y12624D1*
X23031Y12548D1*
X23057Y12472D1*
X23095Y12396D1*
X23149Y12320D1*
X23217Y12244D1*
X23300Y12168D1*
X23400Y12092D1*
X23510Y12016D1*
X24042Y15056D2*
X24176Y14980D1*
X24287Y14904D1*
X24367Y14828D1*
X24426Y14752D1*
X24473Y14676D1*
X24512Y14600D1*
X24544Y14524D1*
X24572Y14448D1*
X24599Y14372D1*
X24622Y14296D1*
X24637Y14220D1*
X24644Y14144D1*
X24648Y14068D1*
X24652Y13992D1*
X24662Y13916D1*
X24681Y13840D1*
X24700Y13764D1*
X24714Y13688D1*
X24721Y13612D1*
X24724Y13536D1*
X24722Y13460D1*
X24713Y13384D1*
X24695Y13308D1*
X24676Y13232D1*
X24662Y13156D1*
X24655Y13080D1*
X24652Y13004D1*
X24648Y12928D1*
X24638Y12852D1*
X24619Y12776D1*
X24597Y12700D1*
X24573Y12624D1*
X24546Y12548D1*
X24513Y12472D1*
X24477Y12396D1*
X24434Y12320D1*
X24374Y12244D1*
X24285Y12168D1*
X24169Y12092D1*
X24042Y12016D1*
X25790Y15056D2*
X25653Y14980D1*
X25535Y14904D1*
X25444Y14828D1*
X25377Y14752D1*
X25328Y14676D1*
X25294Y14600D1*
X25274Y14524D1*
X25265Y14448D1*
X25261Y14372D1*
X25259Y14296D1*
X25258Y14220D1*
Y14144D1*
Y14068D1*
X25261Y13992D1*
X25271Y13916D1*
X25292Y13840D1*
X25324Y13764D1*
X25365Y13688D1*
X25413Y13612D1*
X25462Y13536D1*
X25514Y13460D1*
X25575Y13384D1*
X25641Y13308D1*
X25704Y13232D1*
X25760Y13156D1*
X25816Y13080D1*
X25878Y13004D1*
X25947Y12928D1*
X26020Y12852D1*
X26095Y12776D1*
X26170Y12700D1*
X26246Y12624D1*
X26322Y12548D1*
X26398Y12472D1*
X26474Y12396D1*
X26550Y12320D1*
X26398Y15056D2*
X26555Y14980D1*
X26684Y14904D1*
X26741Y14828D1*
X26761Y14752D1*
X26771Y14676D1*
X26778Y14600D1*
X21382Y14980D2*
Y14904D1*
Y14828D1*
Y14752D1*
Y14676D1*
Y14600D1*
Y14524D1*
Y14448D1*
Y14372D1*
Y14296D1*
Y14220D1*
Y14144D1*
Y14068D1*
Y13992D1*
Y13916D1*
Y13840D1*
Y13764D1*
Y13688D1*
Y13612D1*
Y13536D1*
Y13460D1*
Y13384D1*
Y13308D1*
Y13232D1*
Y13156D1*
Y13080D1*
Y13004D1*
Y12928D1*
Y12852D1*
Y12776D1*
Y12700D1*
Y12624D1*
Y12548D1*
Y12472D1*
Y12396D1*
Y12320D1*
X20850D1*
Y12244D1*
Y12168D1*
Y12092D1*
X21610Y14980D2*
X21643Y14904D1*
X21686Y14828D1*
X21795Y14752D1*
X21935Y14676D1*
X22063Y14600D1*
X22160Y14524D1*
X22191Y14448D1*
X22208Y14372D1*
X22218Y14296D1*
X21686D1*
Y14220D1*
Y14144D1*
Y14068D1*
Y13992D1*
Y13916D1*
Y13840D1*
Y13764D1*
Y13688D1*
Y13612D1*
Y13536D1*
Y13460D1*
Y13384D1*
Y13308D1*
Y13232D1*
Y13156D1*
Y13080D1*
Y13004D1*
Y12928D1*
Y12852D1*
Y12776D1*
Y12700D1*
Y12624D1*
Y12548D1*
Y12472D1*
Y12396D1*
Y12320D1*
X22218D1*
Y12244D1*
Y12168D1*
Y12092D1*
X23738Y14828D2*
X23604Y14752D1*
X23493Y14676D1*
X23413Y14600D1*
X23357Y14524D1*
X23320Y14448D1*
X23299Y14372D1*
X23286Y14296D1*
X23272Y14220D1*
X23252Y14144D1*
X23232Y14068D1*
X23219Y13992D1*
X23211Y13916D1*
X23208Y13840D1*
X23207Y13764D1*
X23206Y13688D1*
Y13612D1*
Y13536D1*
Y13460D1*
Y13384D1*
Y13308D1*
Y13232D1*
X23209Y13156D1*
X23219Y13080D1*
X23237Y13004D1*
X23256Y12928D1*
X23270Y12852D1*
X23280Y12776D1*
X23293Y12700D1*
X23316Y12624D1*
X23353Y12548D1*
X23404Y12472D1*
X23566Y12396D1*
X23815Y12320D1*
X24118Y12244D1*
X23966Y14828D2*
X24042Y14752D1*
X24115Y14676D1*
X24178Y14600D1*
X24224Y14524D1*
X24252Y14448D1*
X24274Y14372D1*
X24298Y14296D1*
X24319Y14220D1*
X24333Y14144D1*
X24341Y14068D1*
X24344Y13992D1*
X24345Y13916D1*
X24346Y13840D1*
Y13764D1*
Y13688D1*
Y13612D1*
Y13536D1*
Y13460D1*
Y13384D1*
Y13308D1*
Y13232D1*
Y13156D1*
Y13080D1*
X24343Y13004D1*
X24333Y12928D1*
X24315Y12852D1*
X24295Y12776D1*
X24279Y12700D1*
X24259Y12624D1*
X24224Y12548D1*
X24173Y12472D1*
X24039Y12396D1*
X23835Y12320D1*
X23586Y12244D1*
X26018Y14828D2*
X25884Y14752D1*
X25773Y14676D1*
X25693Y14600D1*
X25637Y14524D1*
X25600Y14448D1*
X25579Y14372D1*
X25569Y14296D1*
X25568Y14220D1*
X25576Y14144D1*
X25593Y14068D1*
X25615Y13992D1*
X25639Y13916D1*
X25667Y13840D1*
X25702Y13764D1*
X25747Y13688D1*
X25802Y13612D1*
X25860Y13536D1*
X25914Y13460D1*
X25969Y13384D1*
X26031Y13308D1*
X26099Y13232D1*
X26172Y13156D1*
X26246Y13080D1*
X26319Y13004D1*
X26385Y12928D1*
X26443Y12852D1*
X26500Y12776D1*
X26562Y12700D1*
X26631Y12624D1*
X26701Y12548D1*
X26763Y12472D1*
X26807Y12396D1*
X26833Y12320D1*
X26845Y12244D1*
X26851Y12168D1*
X26854Y12092D1*
X26094Y14828D2*
X26308Y14752D1*
X26509Y14676D1*
X26702Y14600D1*
X19026Y13916D2*
X18889Y13840D1*
X18772Y13764D1*
X18680Y13688D1*
X18613Y13612D1*
X18564Y13536D1*
X18530Y13460D1*
X18508Y13384D1*
X18488Y13308D1*
X18466Y13232D1*
X18445Y13156D1*
X18431Y13080D1*
X18427Y13004D1*
X18433Y12928D1*
X18450Y12852D1*
X18472Y12776D1*
X18495Y12700D1*
X18523Y12624D1*
X18555Y12548D1*
X18591Y12472D1*
X18631Y12396D1*
X18682Y12320D1*
X18753Y12244D1*
X18851Y12168D1*
X18972Y12092D1*
X19102Y12016D1*
X19558Y13916D2*
X19781Y13840D1*
X20014Y13764D1*
X19254Y13688D2*
X19120Y13612D1*
X19010Y13536D1*
X18929Y13460D1*
X18873Y13384D1*
X18836Y13308D1*
X18815Y13232D1*
X18805Y13156D1*
X18801Y13080D1*
X18799Y13004D1*
Y12928D1*
X18801Y12852D1*
X18811Y12776D1*
X18832Y12700D1*
X18865Y12624D1*
X18910Y12548D1*
X18968Y12472D1*
X19104Y12396D1*
X19308Y12320D1*
X19558Y12244D1*
X19406Y13688D2*
X19601Y13612D1*
X19753Y13536D1*
X19867Y13460D1*
X19904Y13384D1*
X19924Y13308D1*
X19933Y13232D1*
X19936Y13156D1*
X19937Y13080D1*
X19935Y13004D1*
X19925Y12928D1*
X19907Y12852D1*
X19885Y12776D1*
X19862Y12700D1*
X19833Y12624D1*
X19793Y12548D1*
X19741Y12472D1*
X19579Y12396D1*
X19330Y12320D1*
X19026Y12244D1*
X25106Y12320D2*
Y12244D1*
Y12168D1*
Y12092D1*
X22838Y34705D2*
X22663Y34629D1*
X22511Y34553D1*
X22380Y34477D1*
X22267Y34401D1*
X22171Y34325D1*
X22088Y34249D1*
X22017Y34173D1*
X21958Y34097D1*
X21901Y34021D1*
X21841Y33945D1*
X21782Y33869D1*
X21730Y33793D1*
X21684Y33717D1*
X21643Y33641D1*
X21604Y33565D1*
X21565Y33489D1*
X21527Y33413D1*
X21489Y33337D1*
X21451Y33261D1*
X21413Y33185D1*
X21375Y33109D1*
X21337Y33033D1*
X21302Y32957D1*
X21271Y32881D1*
X21244Y32805D1*
X21214Y32729D1*
X21181Y32653D1*
X21148Y32577D1*
X21118Y32501D1*
X21092Y32425D1*
X21065Y32349D1*
X21039Y32273D1*
X21015Y32197D1*
X20988Y32121D1*
X20963Y32045D1*
X20938Y31969D1*
X20912Y31893D1*
X20886Y31817D1*
X20862Y31741D1*
X23446Y34705D2*
X23609Y34629D1*
X23755Y34553D1*
X23880Y34477D1*
X23994Y34401D1*
X24099Y34325D1*
X24191Y34249D1*
X24273Y34173D1*
X24343Y34097D1*
X24402Y34021D1*
X24459Y33945D1*
X24519Y33869D1*
X24578Y33793D1*
X24633Y33717D1*
X24685Y33641D1*
X24738Y33565D1*
X24785Y33489D1*
X24826Y33413D1*
X24859Y33337D1*
X24887Y33261D1*
X24917Y33185D1*
X24950Y33109D1*
X24984Y33033D1*
X25013Y32957D1*
X25040Y32881D1*
X25067Y32805D1*
X25093Y32729D1*
X25117Y32653D1*
X25143Y32577D1*
X25169Y32501D1*
X25193Y32425D1*
X25219Y32349D1*
X25242Y32273D1*
X25260Y32197D1*
X25277Y32121D1*
X25298Y32045D1*
X25320Y31969D1*
X25336Y31893D1*
X25353Y31817D1*
X25374Y31741D1*
X25396Y31665D1*
X25410Y31590D1*
X25422Y31514D1*
X22838Y34553D2*
X22698Y34477D1*
X22568Y34401D1*
X22448Y34325D1*
X22340Y34249D1*
X22246Y34173D1*
X22161Y34097D1*
X22083Y34021D1*
X22016Y33945D1*
X21957Y33869D1*
X21901Y33793D1*
X21841Y33717D1*
X21782Y33641D1*
X21730Y33565D1*
X21684Y33489D1*
X21643Y33413D1*
X21604Y33337D1*
X21565Y33261D1*
X21527Y33185D1*
X21489Y33109D1*
X21454Y33033D1*
X21423Y32957D1*
X21396Y32881D1*
X21366Y32805D1*
X21333Y32729D1*
X21297Y32653D1*
X21261Y32577D1*
X21225Y32501D1*
X21195Y32425D1*
X21168Y32349D1*
X21138Y32273D1*
X21105Y32197D1*
X21072Y32121D1*
X21042Y32045D1*
X21016Y31969D1*
X20990Y31893D1*
X20966Y31817D1*
X20972Y31741D1*
X21041Y31665D1*
X21206Y31590D1*
X21406Y31514D1*
X21622Y31438D1*
X21837Y31362D1*
X22044Y31286D1*
X22239Y31210D1*
X22420Y31134D1*
X22579Y31058D1*
X22715Y30982D1*
X22838Y30906D1*
X23370Y34553D2*
X23519Y34477D1*
X23661Y34401D1*
X23792Y34325D1*
X23912Y34249D1*
X24019Y34173D1*
X24114Y34097D1*
X24196Y34021D1*
X24267Y33945D1*
X24326Y33869D1*
X24383Y33793D1*
X24443Y33717D1*
X24502Y33641D1*
X24554Y33565D1*
X24599Y33489D1*
X24641Y33413D1*
X24680Y33337D1*
X24719Y33261D1*
X24757Y33185D1*
X24794Y33109D1*
X24830Y33033D1*
X24861Y32957D1*
X24888Y32881D1*
X24917Y32805D1*
X24950Y32729D1*
X24983Y32653D1*
X25011Y32577D1*
X25030Y32501D1*
X25048Y32425D1*
X25071Y32349D1*
X25094Y32273D1*
X25118Y32197D1*
X25143Y32121D1*
X25166Y32045D1*
X25184Y31969D1*
X25201Y31893D1*
X25223Y31817D1*
X25246Y31741D1*
X25270Y31665D1*
X25296Y31590D1*
X25322Y31514D1*
X25346Y31438D1*
X25071Y31362D1*
X24802Y31286D1*
X24544Y31210D1*
X24297Y31134D1*
X24060Y31058D1*
X23828Y30982D1*
X23599Y30906D1*
X23370Y30830D1*
X23145Y30754D1*
X22927Y30678D1*
X22717Y30602D1*
X22512Y30526D1*
X22309Y30450D1*
X22116Y30374D1*
X21929Y30298D1*
X21738Y30222D1*
X21544Y30146D1*
X21354Y30070D1*
X21171Y29994D1*
X20991Y29918D1*
X20815Y29842D1*
X20647Y29766D1*
X20488Y29690D1*
X20332Y29614D1*
X20179Y29538D1*
X20029Y29462D1*
X19887Y29386D1*
X19753Y29310D1*
X19623Y29234D1*
X19495Y29158D1*
X19370Y29082D1*
X19251Y29006D1*
X19129Y28930D1*
X18992Y28854D1*
X18832Y28778D1*
X18658Y28702D1*
X23294Y34021D2*
X22726Y33945D1*
X22154Y33869D1*
Y33793D1*
Y33717D1*
X23598Y34021D2*
X23636Y33945D1*
X23667Y33869D1*
X23697Y33793D1*
X23721Y33717D1*
X23739Y33641D1*
X23756Y33565D1*
X23772Y33489D1*
X23780Y33413D1*
X23725Y33337D1*
X23573Y33261D1*
X23377Y33185D1*
X23161Y33109D1*
X22965Y33033D1*
X22811Y32957D1*
X22686Y32881D1*
X23218Y33945D2*
Y33869D1*
Y33793D1*
X23522Y33945D2*
X23446Y33869D1*
X23370Y33793D1*
X23522Y33945D2*
X23598Y33869D1*
X22534D2*
X22596Y33793D1*
X22645Y33717D1*
X22686Y33641D1*
X22914Y33869D2*
Y33793D1*
Y33717D1*
Y33641D1*
X23142Y33869D2*
Y33793D1*
Y33717D1*
X19418D2*
Y33641D1*
X19415Y33565D1*
X19402Y33489D1*
X19371Y33413D1*
X19321Y33337D1*
X19258Y33261D1*
X19190Y33185D1*
X19128Y33109D1*
X19079Y33033D1*
X19038Y32957D1*
X19494Y33717D2*
X19530Y33641D1*
X19570Y33565D1*
X19646Y33717D2*
X19610Y33641D1*
X19570Y33565D1*
X19798Y33717D2*
X20045Y33641D1*
X20268Y33565D1*
X20437Y33489D1*
X20550Y33413D1*
X20634Y33337D1*
X20564Y33261D1*
X20541Y33185D1*
X20549Y33109D1*
X20564Y33033D1*
X20586Y32957D1*
X20610Y32881D1*
X20634Y32805D1*
X20662Y32729D1*
X20697Y32653D1*
X20739Y32577D1*
X20786Y32501D1*
X20552Y32425D1*
X20294Y32349D1*
X20019Y32273D1*
X19732Y32197D1*
X19429Y32121D1*
X19114Y32045D1*
X22382Y33793D2*
X22385Y33717D1*
X22395Y33641D1*
X22416Y33565D1*
X22445Y33489D1*
X22477Y33413D1*
X22506Y33337D1*
X22532Y33261D1*
X22559Y33185D1*
X22582Y33109D1*
X22594Y33033D1*
X22592Y32957D1*
X22577Y32881D1*
X22559Y32805D1*
X22549Y32729D1*
X22548Y32653D1*
X22575Y32577D1*
X22610Y32501D1*
Y33717D2*
Y33641D1*
Y33565D1*
X23522Y33793D2*
Y33717D1*
Y33641D1*
X23674Y33717D2*
Y33641D1*
X22458D2*
Y33565D1*
X23142Y33717D2*
X23218Y33641D1*
X23294Y33565D1*
X26486Y33641D2*
X26410Y33565D1*
X26521Y33489D1*
X26621Y33413D1*
X26714Y33337D1*
X26562Y33641D2*
X26647Y33565D1*
X26719Y33489D1*
X26779Y33413D1*
X26822Y33337D1*
X26849Y33261D1*
X26870Y33185D1*
X26890Y33109D1*
X26902Y33033D1*
X26898Y32957D1*
X26886Y32881D1*
X26873Y32805D1*
X26855Y32729D1*
X26824Y32653D1*
X26784Y32577D1*
X26747Y32501D1*
X26714Y32425D1*
X22990Y33641D2*
Y33565D1*
Y33489D1*
X23218Y33565D2*
X23147Y33489D1*
X23066Y33413D1*
X23522Y33565D2*
X25650D2*
X25577Y33489D1*
X25514Y33413D1*
X25469Y33337D1*
X25443Y33261D1*
X25430Y33185D1*
X25425Y33109D1*
X25423Y33033D1*
X25422Y32957D1*
Y32881D1*
X25425Y32805D1*
X25438Y32729D1*
X25469Y32653D1*
X25519Y32577D1*
X25582Y32501D1*
X25653Y32425D1*
X25726Y32349D1*
X19722Y33565D2*
X19646Y33489D1*
X19570Y33413D1*
X19494Y33337D1*
X19418Y33261D1*
X19342Y33185D1*
X19266Y33109D1*
X19304Y33033D1*
X19336Y32957D1*
X19365Y32881D1*
X19392Y32805D1*
X19417Y32729D1*
X19443Y32653D1*
X19466Y32577D1*
X19481Y32501D1*
X19489Y32425D1*
X19494Y32349D1*
X19874Y33565D2*
X20069Y33489D1*
X20221Y33413D1*
X20336Y33337D1*
X20384Y33261D1*
X20422Y33185D1*
X20451Y33109D1*
X20471Y33033D1*
X20489Y32957D1*
X20511Y32881D1*
X20535Y32805D1*
X20560Y32729D1*
X20594Y32653D1*
X20634Y32577D1*
X20426Y32501D1*
X20152Y32425D1*
X19805Y32349D1*
X19418Y32273D1*
X22610Y33565D2*
X22686Y33489D1*
X22762Y33413D1*
X23598Y33565D2*
Y33489D1*
Y33413D1*
X25726Y33489D2*
X25650Y33413D1*
X25878Y33337D1*
X25817Y33261D1*
X25772Y33185D1*
X25747Y33109D1*
X25735Y33033D1*
X25732Y32957D1*
X25743Y32881D1*
X25773Y32805D1*
X25823Y32729D1*
X25886Y32653D1*
X25954Y32577D1*
X25726Y32501D1*
X25807Y32425D1*
X25878Y32349D1*
X22610Y33489D2*
X22570Y33413D1*
X22534Y33337D1*
X22686Y33413D2*
X22610Y33337D1*
X22990Y33413D2*
X23446Y33489D2*
X23370Y33413D1*
X23446Y33337D1*
X23750Y33413D2*
X26334D2*
X26406Y33337D1*
X26467Y33261D1*
X26512Y33185D1*
X26505Y33109D1*
X26486Y33033D1*
Y33413D2*
X26562Y33337D1*
X23218Y33413D2*
X23142Y33337D1*
X23066Y33261D1*
X23370Y33413D2*
X23294Y33337D1*
X23218Y33261D1*
X22838Y33337D2*
Y33261D1*
Y33185D1*
X25650Y33337D2*
X25589Y33261D1*
X25544Y33185D1*
X25519Y33109D1*
X25507Y33033D1*
X25504Y32957D1*
X25514Y32881D1*
X25539Y32805D1*
X25574Y32729D1*
X25802Y33337D2*
X25741Y33261D1*
X25696Y33185D1*
X25671Y33109D1*
X25659Y33033D1*
X25656Y32957D1*
X25666Y32881D1*
X25691Y32805D1*
X25726Y32729D1*
X25954Y33261D2*
X25919Y33185D1*
X25897Y33109D1*
X25886Y33033D1*
X25884Y32957D1*
X25894Y32881D1*
X25919Y32805D1*
X25954Y32729D1*
X26258Y33261D2*
X26320Y33185D1*
X26369Y33109D1*
X26410Y33033D1*
X26334Y33261D2*
X26383Y33185D1*
X26433Y33109D1*
X26486Y33033D1*
X19570Y33185D2*
X19582Y33109D1*
X19601Y33033D1*
X19624Y32957D1*
X19650Y32881D1*
X19690Y32805D1*
X19754Y32729D1*
X19840Y32653D1*
X19943Y32577D1*
X20057Y32501D1*
X20178Y32425D1*
X19646Y33185D2*
X19723Y33109D1*
X19804Y33033D1*
X19904Y32957D1*
X20032Y32881D1*
X20178Y32805D1*
X22686Y33261D2*
X22646Y33185D1*
X22610Y33109D1*
X22686Y33261D2*
X22726Y33185D1*
X22762Y33109D1*
X22990Y33185D2*
X25954D2*
X25913Y33109D1*
X25878Y33033D1*
X26638Y33261D2*
Y33185D1*
Y33109D1*
X26637Y33033D1*
X26635Y32957D1*
X26625Y32881D1*
X26604Y32805D1*
X26572Y32729D1*
X26532Y32653D1*
X26486Y32577D1*
X26790Y33261D2*
Y33185D1*
Y33109D1*
X26789Y33033D1*
X26787Y32957D1*
X26777Y32881D1*
X26756Y32805D1*
X26723Y32729D1*
X26680Y32653D1*
X26624Y32577D1*
X26562Y32501D1*
X26638Y32425D1*
X23598Y33109D2*
X23334Y33033D1*
X23083Y32957D1*
X22838Y32881D1*
X23902Y33109D2*
X23978Y33033D1*
X23916Y32957D1*
X23866Y32881D1*
X23826Y32805D1*
X24030Y32729D1*
X24181Y32653D1*
X24291Y32577D1*
X24326Y32501D1*
X24344Y32425D1*
X24353Y32349D1*
X24356Y32273D1*
X24357Y32197D1*
X24361Y32121D1*
X24374Y32045D1*
X24404Y31969D1*
X24452Y31893D1*
X24506Y31817D1*
X24555Y31741D1*
X24596Y31665D1*
X24631Y31590D1*
X24640Y31514D1*
X24617Y31438D1*
X24586Y31362D1*
X26030Y33109D2*
X25954Y33033D1*
X26258Y33109D2*
X26182Y33033D1*
X20254D2*
X20191Y32957D1*
X20114Y32881D1*
X20026Y32805D1*
X19190Y33033D2*
X19114Y32957D1*
X19266Y33033D2*
X19269Y32957D1*
X19279Y32881D1*
X19297Y32805D1*
X19319Y32729D1*
X19342Y32653D1*
X19368Y32577D1*
X19393Y32501D1*
X19420Y32425D1*
X19454Y32349D1*
X19494Y32273D1*
X19454Y32197D1*
X19418Y32121D1*
X20254Y32957D2*
Y32881D1*
X20253Y32805D1*
X20244Y32729D1*
X20224Y32653D1*
X20135Y32577D1*
X20026Y32501D1*
X23750Y33033D2*
X23465Y32957D1*
X23211Y32881D1*
X23016Y32805D1*
X22871Y32729D1*
X22827Y32653D1*
X22794Y32577D1*
X22762Y32501D1*
X23598Y33033D2*
X23609Y32957D1*
X23647Y32881D1*
X23731Y32805D1*
X23826Y32729D1*
X23727Y32653D1*
X23651Y32577D1*
X23596Y32501D1*
X23560Y32425D1*
X23542Y32349D1*
X23536Y32273D1*
X23561Y32197D1*
X23599Y32121D1*
X23710Y32045D1*
X23860Y31969D1*
X24009Y31893D1*
X24122Y31817D1*
X24206Y31741D1*
X24273Y31665D1*
X24330Y31590D1*
X24391Y31514D1*
X24476Y31438D1*
X24597Y31362D1*
X24738Y31286D1*
X23750Y33033D2*
X23709Y32957D1*
X23674Y32881D1*
X23750Y33033D2*
X23790Y32957D1*
X23826Y32881D1*
X25954Y32957D2*
X26027Y32881D1*
X26090Y32805D1*
X26135Y32729D1*
X26161Y32653D1*
X26173Y32577D1*
X26178Y32501D1*
X26181Y32425D1*
Y32349D1*
X26182Y32273D1*
X25954Y32805D2*
X26030Y32729D1*
X25878Y32653D1*
X25954Y32577D1*
X25726Y32501D1*
X25807Y32425D1*
X25878Y32349D1*
X26182Y32881D2*
X26185Y32805D1*
X26194Y32729D1*
X26213Y32653D1*
X26232Y32577D1*
X26242Y32501D1*
X26244Y32425D1*
X26216Y32349D1*
X26182Y32273D1*
Y32881D2*
X26334Y32805D1*
X26486Y32729D1*
X26410Y32653D1*
X26486Y32577D1*
X26562Y32501D1*
X26638Y32425D1*
X26486Y32881D2*
X26410Y32805D1*
X26638Y32881D2*
X26562Y32805D1*
X26486Y32729D1*
X26410Y32653D1*
X26486Y32577D1*
X26562Y32501D1*
X26638Y32425D1*
X25574Y32653D2*
X25658Y32577D1*
X25742Y32501D1*
X25815Y32425D1*
X25878Y32349D1*
X25726Y32653D2*
X25802Y32577D1*
X27702D2*
X27605Y32501D1*
X27481Y32425D1*
X27334Y32349D1*
X27199Y32273D1*
X27091Y32197D1*
X27048Y32121D1*
X27043Y32045D1*
X27051Y31969D1*
X27064Y31893D1*
X26926Y31817D1*
X26686Y31741D1*
X26358Y31665D1*
X25987Y31590D1*
X25596Y31514D1*
X25194Y31438D1*
X28538Y32577D2*
X28613Y32501D1*
X28687Y32425D1*
X28753Y32349D1*
X28810Y32273D1*
X28864Y32197D1*
X28917Y32121D1*
X28964Y32045D1*
X29000Y31969D1*
X29022Y31893D1*
X28996Y31817D1*
X28967Y31741D1*
X28948Y31665D1*
X28974Y31590D1*
X29046Y31514D1*
X29126Y31438D1*
X29200Y31362D1*
X29260Y31286D1*
X29309Y31210D1*
X29351Y31134D1*
X29388Y31058D1*
X29417Y30982D1*
X29435Y30906D1*
X29443Y30830D1*
X29447Y30754D1*
X29446Y30678D1*
X29437Y30602D1*
X29418Y30526D1*
X29396Y30450D1*
X29373Y30374D1*
X29345Y30298D1*
X29312Y30222D1*
X29277Y30146D1*
X29237Y30070D1*
X29192Y29994D1*
X29143Y29918D1*
X29094Y29842D1*
X29042Y29766D1*
X28981Y29690D1*
X28915Y29614D1*
X28849Y29538D1*
X28783Y29462D1*
X28711Y29386D1*
X28636Y29310D1*
X28563Y29234D1*
X28484Y29158D1*
X28400Y29082D1*
X28317Y29006D1*
X28237Y28930D1*
X28159Y28854D1*
X28079Y28778D1*
X27993Y28702D1*
X27899Y28626D1*
X27803Y28550D1*
X27711Y28474D1*
X27618Y28398D1*
X27520Y28322D1*
X27420Y28246D1*
X27322Y28170D1*
X27398Y28094D1*
X27477Y28018D1*
X27562Y27942D1*
X27657Y27866D1*
X27752Y27790D1*
X27841Y27714D1*
X27924Y27638D1*
X28004Y27562D1*
X28081Y27486D1*
X28157Y27410D1*
X28234Y27334D1*
X28309Y27258D1*
X28383Y27182D1*
X28449Y27106D1*
X28507Y27030D1*
X28563Y26954D1*
X28626Y26878D1*
X28692Y26802D1*
X28755Y26726D1*
X28812Y26650D1*
X28867Y26574D1*
X28927Y26498D1*
X28986Y26422D1*
X29038Y26346D1*
X29083Y26270D1*
X29124Y26194D1*
X29164Y26118D1*
X29202Y26042D1*
X29238Y25966D1*
X29266Y25890D1*
X29286Y25814D1*
X29304Y25738D1*
X29326Y25662D1*
X29347Y25586D1*
X29361Y25510D1*
X29368Y25434D1*
Y25358D1*
X29360Y25282D1*
X29342Y25206D1*
X29320Y25130D1*
X29294Y25054D1*
X29256Y24978D1*
X29202Y24902D1*
X29134Y24826D1*
X29049Y24750D1*
X28930Y24674D1*
X28746Y24598D1*
X28477Y24522D1*
X28158Y24446D1*
X23750Y32577D2*
X23689Y32501D1*
X23645Y32425D1*
X23615Y32349D1*
X23614Y32273D1*
X23646Y32197D1*
X23694Y32121D1*
X23750Y32045D1*
X23902Y32577D2*
X24085Y32501D1*
X24221Y32425D1*
X24322Y32349D1*
X24308Y32273D1*
X24281Y32197D1*
X24211Y32121D1*
X24130Y32045D1*
X21850Y32425D2*
X21765Y32349D1*
X21693Y32273D1*
X21630Y32197D1*
X21578Y32121D1*
X21535Y32045D1*
X21504Y31969D1*
X21486Y31893D1*
X21476Y31817D1*
X21472Y31741D1*
X21470Y31665D1*
X21853Y31590D1*
X22126Y31514D1*
X22305Y31438D1*
X22429Y31362D1*
X22534Y31286D1*
X22002Y32425D2*
X22102Y32349D1*
X22245Y32273D1*
X22448Y32197D1*
X22686Y32121D1*
X28158Y32425D2*
X27972Y32349D1*
X27824Y32273D1*
X27702Y32197D1*
X27917Y32121D1*
X28146Y32045D1*
X28386Y31969D1*
X28310Y32425D2*
Y32349D1*
X28309Y32273D1*
X28303Y32197D1*
X28289Y32121D1*
X28230Y32045D1*
X28158Y31969D1*
X22610Y32197D2*
X22534Y32121D1*
X22762D2*
X22797Y32045D1*
X22819Y31969D1*
X22830Y31893D1*
X22834Y31817D1*
Y31741D1*
X22825Y31665D1*
X22807Y31590D1*
X22784Y31514D1*
X22759Y31438D1*
X22726Y31362D1*
X22686Y31286D1*
X18278Y32045D2*
X17951Y31969D1*
X17683Y31893D1*
X17481Y31817D1*
X17332Y31741D1*
X17217Y31665D1*
X17130Y31590D1*
X17067Y31514D1*
X17024Y31438D1*
X16992Y31362D1*
X16963Y31286D1*
X16939Y31210D1*
X16927Y31134D1*
X16929Y31058D1*
X16944Y30982D1*
X16964Y30906D1*
X16987Y30830D1*
X17012Y30754D1*
X17037Y30678D1*
X17062Y30602D1*
X17090Y30526D1*
X17123Y30450D1*
X17159Y30374D1*
X17198Y30298D1*
X17243Y30222D1*
X17292Y30146D1*
X17342Y30070D1*
X17394Y29994D1*
X17452Y29918D1*
X17511Y29842D1*
X17565Y29766D1*
X17621Y29690D1*
X17683Y29614D1*
X17752Y29538D1*
X17824Y29462D1*
X17899Y29386D1*
X17974Y29310D1*
X18050Y29234D1*
X18126Y29158D1*
X18202Y29082D1*
X18278Y29006D1*
X18354Y28930D1*
X18430Y28854D1*
X18506Y28778D1*
X18582Y28702D1*
X18658Y28626D1*
X18556Y28550D1*
X18454Y28474D1*
X18354Y28398D1*
X18253Y28322D1*
X18154Y28246D1*
X18060Y28170D1*
X17967Y28094D1*
X17869Y28018D1*
X17773Y27942D1*
X17683Y27866D1*
X17600Y27790D1*
X17520Y27714D1*
X17440Y27638D1*
X17354Y27562D1*
X17262Y27486D1*
X17176Y27410D1*
X17105Y27334D1*
X17042Y27258D1*
X16976Y27182D1*
X16906Y27106D1*
X16832Y27030D1*
X16757Y26954D1*
X16682Y26878D1*
X16606Y26802D1*
X16533Y26726D1*
X16467Y26650D1*
X16409Y26574D1*
X16355Y26498D1*
X16302Y26422D1*
X16252Y26346D1*
X16201Y26270D1*
X16150Y26194D1*
X16103Y26118D1*
X16062Y26042D1*
X16029Y25966D1*
X16001Y25890D1*
X15974Y25814D1*
X15950Y25738D1*
X15933Y25662D1*
X15916Y25586D1*
X15897Y25510D1*
X15885Y25434D1*
X15890Y25358D1*
X15902Y25282D1*
X15915Y25206D1*
X15933Y25130D1*
X15964Y25054D1*
X16009Y24978D1*
X16065Y24902D1*
X16137Y24826D1*
X16231Y24750D1*
X16353Y24674D1*
X16526Y24598D1*
X16783Y24522D1*
X17128Y24446D1*
X17518Y24370D1*
X17495Y24294D1*
X17460Y24218D1*
X17423Y24142D1*
X17420Y24066D1*
X17427Y23990D1*
X17434Y23914D1*
X17438Y23838D1*
X17441Y23762D1*
X17442Y23686D1*
Y23610D1*
X18886Y32045D2*
X19369Y31969D1*
X19810Y31893D1*
X20228Y31817D1*
X20653Y31741D1*
X21090Y31665D1*
X24206Y32045D2*
X24220Y31969D1*
X24249Y31893D1*
X24290Y31817D1*
X24336Y31741D1*
X24387Y31665D1*
X24446Y31590D1*
X24510Y31514D1*
X18810Y31969D2*
X18393Y31893D1*
X18036Y31817D1*
X17764Y31741D1*
X17568Y31665D1*
X17425Y31590D1*
X17318Y31514D1*
X17240Y31438D1*
X17186Y31362D1*
X17148Y31286D1*
X17117Y31210D1*
X17094Y31134D1*
X17082Y31058D1*
X17097Y30982D1*
X17117Y30906D1*
X17139Y30830D1*
X17167Y30754D1*
X17199Y30678D1*
X17235Y30602D1*
X17272Y30526D1*
X17310Y30450D1*
X17350Y30374D1*
X17395Y30298D1*
X17444Y30222D1*
X17493Y30146D1*
X17543Y30070D1*
X17595Y29994D1*
X17645Y29918D1*
X17698Y29842D1*
X17759Y29766D1*
X17828Y29690D1*
X17900Y29614D1*
X17972Y29538D1*
X18038Y29462D1*
X18095Y29386D1*
X18152Y29310D1*
X18215Y29234D1*
X18286Y29158D1*
X18369Y29082D1*
X18462Y29006D1*
X18560Y28930D1*
X18661Y28854D1*
X18770Y28778D1*
X18886Y28702D1*
X18354Y31969D2*
X18917Y31893D1*
X19427Y31817D1*
X19864Y31741D1*
X20218Y31665D1*
X20474Y31590D1*
X20658Y31514D1*
X20731Y31438D1*
X20723Y31362D1*
X20714Y31286D1*
X20700Y31210D1*
X20680Y31134D1*
X20660Y31058D1*
X20647Y30982D1*
X20639Y30906D1*
X20636Y30830D1*
X20635Y30754D1*
X20634Y30678D1*
Y30602D1*
X22534Y31969D2*
X22548Y31893D1*
X22575Y31817D1*
X22610Y31741D1*
X22686Y31969D2*
X22672Y31893D1*
X22645Y31817D1*
X22610Y31741D1*
X24358Y31893D2*
X24422Y31817D1*
X24479Y31741D1*
X24535Y31665D1*
X24597Y31590D1*
X24662Y31514D1*
X28386Y31817D2*
X28310Y31741D1*
X28386Y31817D2*
X28462Y31741D1*
X27778D2*
X27255Y31665D1*
X26762Y31590D1*
X26332Y31514D1*
X25992Y31438D1*
X25756Y31362D1*
X25592Y31286D1*
X25524Y31210D1*
X25537Y31134D1*
X25552Y31058D1*
X25563Y30982D1*
X25569Y30906D1*
X25575Y30830D1*
X25586Y30754D1*
X25604Y30678D1*
X25624Y30602D1*
X25637Y30526D1*
X25644Y30450D1*
X25648Y30374D1*
X25649Y30298D1*
Y30222D1*
X25650Y30146D1*
Y30070D1*
Y29994D1*
X25653Y29918D1*
X25662Y29842D1*
X25681Y29766D1*
X25700Y29690D1*
X25713Y29614D1*
X25717Y29538D1*
X25711Y29462D1*
X25694Y29386D1*
X25675Y29310D1*
X25662Y29234D1*
X25655Y29158D1*
X25652Y29082D1*
X25651Y29006D1*
X25650Y28930D1*
Y28854D1*
Y28778D1*
Y28702D1*
Y28626D1*
Y28550D1*
Y28474D1*
Y28398D1*
X25649Y28322D1*
X25647Y28246D1*
X25637Y28170D1*
X25619Y28094D1*
X25599Y28018D1*
X25586Y27942D1*
X25579Y27866D1*
X25576Y27790D1*
X25574Y27714D1*
X25571Y27638D1*
X25561Y27562D1*
X25543Y27486D1*
X25523Y27410D1*
X25510Y27334D1*
X25500Y27258D1*
X25487Y27182D1*
X25468Y27106D1*
X25448Y27030D1*
X25434Y26954D1*
X25424Y26878D1*
X25411Y26802D1*
X25392Y26726D1*
X25371Y26650D1*
X25355Y26574D1*
X25339Y26498D1*
X25317Y26422D1*
X25296Y26346D1*
X25279Y26270D1*
X25263Y26194D1*
X25241Y26118D1*
X25217Y26042D1*
X25194Y25966D1*
X25168Y25890D1*
X25143Y25814D1*
X25118Y25738D1*
X25092Y25662D1*
X25067Y25586D1*
X25043Y25510D1*
X25020Y25434D1*
X25002Y25358D1*
X25028Y25282D1*
X25127Y25206D1*
X25272Y25130D1*
X25456Y25054D1*
X25670Y24978D1*
X25912Y24902D1*
X26191Y24826D1*
X26523Y24750D1*
X26952Y24674D1*
X27514Y24598D1*
X28158Y24522D1*
X27626Y31741D2*
X28033Y31665D1*
X28379Y31590D1*
X28640Y31514D1*
X28824Y31438D1*
X28953Y31362D1*
X29051Y31286D1*
X29127Y31210D1*
X29185Y31134D1*
X29231Y31058D1*
X29263Y30982D1*
X29282Y30906D1*
X29291Y30830D1*
X29295Y30754D1*
X29296Y30678D1*
X29294Y30602D1*
X29285Y30526D1*
X29264Y30450D1*
X29234Y30374D1*
X29200Y30298D1*
X29164Y30222D1*
X29126Y30146D1*
X29086Y30070D1*
X29038Y29994D1*
X28982Y29918D1*
X28924Y29842D1*
X28870Y29766D1*
X28815Y29690D1*
X28753Y29614D1*
X28684Y29538D1*
X28611Y29462D1*
X28537Y29386D1*
X28461Y29310D1*
X28386Y29234D1*
X28309Y29158D1*
X28231Y29082D1*
X28145Y29006D1*
X28051Y28930D1*
X27955Y28854D1*
X27863Y28778D1*
X27770Y28702D1*
X27672Y28626D1*
X27567Y28550D1*
X27442Y28474D1*
X27280Y28398D1*
X27094Y28322D1*
X18962Y31438D2*
X18819Y31362D1*
X18712Y31286D1*
X18633Y31210D1*
X18606Y31134D1*
X18592Y31058D1*
X18586Y30982D1*
X18584Y30906D1*
X18586Y30830D1*
X18598Y30754D1*
X18629Y30678D1*
X18679Y30602D1*
X18742Y30526D1*
X18810Y30450D1*
X18874Y30374D1*
X18928Y30298D1*
X18972Y30222D1*
X19004Y30146D1*
X19029Y30070D1*
X19060Y29994D1*
X19114Y29918D1*
X19186Y29842D1*
X19266Y29766D1*
X19190Y31438D2*
X19298Y31362D1*
X19386Y31286D1*
X19452Y31210D1*
X19501Y31134D1*
X19534Y31058D1*
X19551Y30982D1*
Y30906D1*
X19537Y30830D1*
X19518Y30754D1*
X19503Y30678D1*
X19484Y30602D1*
X19455Y30526D1*
X19418Y30450D1*
X19453Y30374D1*
X19475Y30298D1*
X19486Y30222D1*
X19488Y30146D1*
X19480Y30070D1*
X19460Y29994D1*
X19428Y29918D1*
X19388Y29842D1*
X19342Y29766D1*
X20862Y31514D2*
X20850Y31438D1*
X20831Y31362D1*
X20811Y31286D1*
X20795Y31210D1*
X20779Y31134D1*
X20757Y31058D1*
X20736Y30982D1*
X20720Y30906D1*
X20703Y30830D1*
X20681Y30754D1*
X20657Y30678D1*
X20634Y30602D1*
X20938Y31514D2*
X21166Y31438D1*
X21394Y31362D1*
X21622Y31286D1*
X21847Y31210D1*
X22065Y31134D1*
X22274Y31058D1*
X22480Y30982D1*
X22686Y30906D1*
X18886Y31362D2*
X18813Y31286D1*
X18747Y31210D1*
X18692Y31134D1*
X18651Y31058D1*
X18621Y30982D1*
X18630Y30906D1*
X18654Y30830D1*
X18695Y30754D1*
X18754Y30678D1*
X18832Y30602D1*
X18929Y30526D1*
X19038Y30450D1*
X19114Y31362D2*
X19239Y31286D1*
X19338Y31210D1*
X19407Y31134D1*
X19459Y31058D1*
X19477Y30982D1*
X19484Y30906D1*
X19478Y30830D1*
X19462Y30754D1*
X19443Y30678D1*
X19430Y30602D1*
X19420Y30526D1*
X19405Y30450D1*
X19378Y30374D1*
X19342Y30298D1*
X25346Y31286D2*
X25045Y31210D1*
X24754Y31134D1*
X24483Y31058D1*
X24237Y30982D1*
X24008Y30906D1*
X23785Y30830D1*
X23567Y30754D1*
X23352Y30678D1*
X23136Y30602D1*
X22923Y30526D1*
X22715Y30450D1*
X22511Y30374D1*
X22306Y30298D1*
X22107Y30222D1*
X21914Y30146D1*
X21729Y30070D1*
X21549Y29994D1*
X21370Y29918D1*
X21194Y29842D1*
X21024Y29766D1*
X20855Y29690D1*
X20681Y29614D1*
X20509Y29538D1*
X20346Y29462D1*
X20196Y29386D1*
X20059Y29310D1*
X19925Y29234D1*
X19789Y29158D1*
X19653Y29082D1*
X19523Y29006D1*
X19395Y28930D1*
X19270Y28854D1*
X19159Y28778D1*
X19064Y28702D1*
X19017Y28626D1*
X19019Y28550D1*
X19066Y28474D1*
X19129Y28398D1*
X19207Y28322D1*
X19299Y28246D1*
X19396Y28170D1*
X19494Y28094D1*
X19596Y28018D1*
X19697Y27942D1*
X19798Y27866D1*
X19902Y27790D1*
X20011Y27714D1*
X20123Y27638D1*
X20236Y27562D1*
X20349Y27486D1*
X20463Y27410D1*
X20577Y27334D1*
X20691Y27258D1*
X20808Y27182D1*
X20932Y27106D1*
X21064Y27030D1*
X21200Y26954D1*
X21337Y26878D1*
X21479Y26802D1*
X21626Y26726D1*
X21776Y26650D1*
X21927Y26574D1*
X22078Y26498D1*
X22230Y26422D1*
X22382Y26346D1*
X22534Y26270D1*
X22686Y26194D1*
X22841Y26118D1*
X23003Y26042D1*
X23173Y25966D1*
X23347Y25890D1*
X23522Y25814D1*
X23700Y25738D1*
X23877Y25662D1*
X24054Y25586D1*
X24237Y25510D1*
X24436Y25434D1*
X24656Y25358D1*
X24890Y25282D1*
X25346Y31286D2*
X25358Y31210D1*
X25376Y31134D1*
X25396Y31058D1*
X25410Y30982D1*
X25419Y30906D1*
X25432Y30830D1*
X25452Y30754D1*
X25472Y30678D1*
X25485Y30602D1*
X25492Y30526D1*
X25496Y30450D1*
X25497Y30374D1*
X25498Y30298D1*
X25501Y30222D1*
X25510Y30146D1*
X25529Y30070D1*
X25548Y29994D1*
X25561Y29918D1*
X25568Y29842D1*
X25572Y29766D1*
X25573Y29690D1*
Y29614D1*
X25574Y29538D1*
Y29462D1*
Y29386D1*
Y29310D1*
Y29234D1*
Y29158D1*
Y29082D1*
X25573Y29006D1*
X25571Y28930D1*
X25561Y28854D1*
X25543Y28778D1*
X25523Y28702D1*
X25510Y28626D1*
X25503Y28550D1*
X25500Y28474D1*
X25499Y28398D1*
X25498Y28322D1*
Y28246D1*
Y28170D1*
X25495Y28094D1*
X25485Y28018D1*
X25467Y27942D1*
X25447Y27866D1*
X25434Y27790D1*
X25427Y27714D1*
X25421Y27638D1*
X25410Y27562D1*
X25391Y27486D1*
X25372Y27410D1*
X25358Y27334D1*
X25351Y27258D1*
X25345Y27182D1*
X25334Y27106D1*
X25315Y27030D1*
X25296Y26954D1*
X25282Y26878D1*
X25272Y26802D1*
X25259Y26726D1*
X25240Y26650D1*
X25219Y26574D1*
X25203Y26498D1*
X25187Y26422D1*
X25165Y26346D1*
X25144Y26270D1*
X25128Y26194D1*
X25111Y26118D1*
X25089Y26042D1*
X25065Y25966D1*
X25042Y25890D1*
X25013Y25814D1*
X24981Y25738D1*
X24948Y25662D1*
X24918Y25586D1*
X24889Y25510D1*
X24855Y25434D1*
X24814Y25358D1*
X26790Y31210D2*
X26759Y31134D1*
X26762Y31058D1*
X26772Y30982D1*
X26781Y30906D1*
X26790Y30830D1*
X26562D1*
X26550Y30754D1*
X26530Y30678D1*
X26508Y30602D1*
X26486Y30526D1*
X27018Y31210D2*
X27050Y31134D1*
X27069Y31058D1*
X27048Y30982D1*
X27018Y30906D1*
X27135Y30830D1*
X27219Y30754D1*
X27281Y30678D1*
X27304Y30602D1*
X27322Y30526D1*
X28082Y31210D2*
X28070Y31134D1*
X28051Y31058D1*
X28031Y30982D1*
X28018Y30906D1*
X28011Y30830D1*
X28008Y30754D1*
X28006Y30678D1*
Y30602D1*
Y30526D1*
Y30450D1*
Y30374D1*
Y30298D1*
Y30222D1*
X28009Y30146D1*
X28021Y30070D1*
X28047Y29994D1*
X28082Y29918D1*
X28234Y31210D2*
Y31134D1*
X28435Y31058D1*
X28590Y30982D1*
X28651Y30906D1*
X28672Y30830D1*
X28683Y30754D1*
X28687Y30678D1*
X28689Y30602D1*
Y30526D1*
X28690Y30450D1*
Y30374D1*
Y30298D1*
X28689Y30222D1*
X28686Y30146D1*
X28675Y30070D1*
X28649Y29994D1*
X28614Y29918D1*
X18962Y31058D2*
X18927Y30982D1*
X18905Y30906D1*
X18897Y30830D1*
X18898Y30754D1*
X18929Y30678D1*
X18968Y30602D1*
X19005Y30526D1*
X19038Y30450D1*
X26942Y31134D2*
X26901Y31058D1*
X26866Y30982D1*
X26942Y31134D2*
X26982Y31058D1*
X27018Y30982D1*
X18962D2*
X18886Y30906D1*
X19038D2*
X19266D2*
Y30830D1*
Y30754D1*
Y30678D1*
Y30602D1*
X19269Y30526D1*
X19281Y30450D1*
X19307Y30374D1*
X19342Y30298D1*
X28082Y30982D2*
Y30906D1*
Y30830D1*
Y30754D1*
Y30678D1*
Y30602D1*
Y30526D1*
Y30450D1*
Y30374D1*
Y30298D1*
Y30222D1*
X28614Y30982D2*
Y30906D1*
Y30830D1*
Y30754D1*
Y30678D1*
Y30602D1*
Y30526D1*
Y30450D1*
Y30374D1*
Y30298D1*
Y30222D1*
X15846Y30830D2*
X15735Y30754D1*
X15618Y30678D1*
X15922Y30830D2*
X16045Y30754D1*
X16158Y30678D1*
X16252Y30602D1*
X16327Y30526D1*
X16356Y30450D1*
X16380Y30374D1*
X16405Y30298D1*
X16427Y30222D1*
X16441Y30146D1*
X16445Y30070D1*
X16441Y29994D1*
X16399Y29918D1*
X16341Y29842D1*
X16281Y29766D1*
X16226Y29690D1*
X15618Y30754D2*
X15519Y30678D1*
X15433Y30602D1*
X15364Y30526D1*
X15338Y30450D1*
X15324Y30374D1*
X15318Y30298D1*
X15316Y30222D1*
X15315Y30146D1*
X15318Y30070D1*
X15326Y29994D1*
X15369Y29918D1*
X15429Y29842D1*
X15491Y29766D1*
X15540Y29690D1*
X15576Y29614D1*
X15572Y29538D1*
X15558Y29462D1*
X15539Y29386D1*
X15515Y29310D1*
X15490Y29234D1*
X15466Y29158D1*
X24510Y30754D2*
X24377Y30678D1*
X24281Y30602D1*
X24206Y30526D1*
X24279Y30450D1*
X24334Y30374D1*
X24389Y30298D1*
X24457Y30222D1*
X24620Y30146D1*
X24814Y30070D1*
Y30754D2*
X24951Y30678D1*
X25071Y30602D1*
X25173Y30526D1*
X25262Y30450D1*
X25346Y30374D1*
X25241Y30298D1*
X25130Y30222D1*
X25015Y30146D1*
X24906Y30070D1*
X24812Y29994D1*
X24771Y29918D1*
X24738Y29842D1*
X26638Y30830D2*
X26657Y30754D1*
X26717Y30678D1*
X26790Y30602D1*
X26866Y30830D2*
X26846Y30754D1*
X26787Y30678D1*
X26714Y30602D1*
X26942Y30830D2*
X26961Y30754D1*
X27021Y30678D1*
X27094Y30602D1*
X27170Y30830D2*
X27150Y30754D1*
X27091Y30678D1*
X27018Y30602D1*
X18962Y30678D2*
X19020Y30602D1*
X19065Y30526D1*
X19071Y30450D1*
X19076Y30374D1*
X19126Y30298D1*
X19190Y30222D1*
X24434Y30602D2*
X24358Y30526D1*
X24434Y30450D1*
X24510Y30602D2*
X24586Y30526D1*
X24510Y30450D1*
X24814Y30602D2*
X24738Y30526D1*
X24814Y30450D1*
X24890Y30602D2*
X24966Y30526D1*
X24890Y30450D1*
X26790Y30374D2*
X26778Y30298D1*
X26759Y30222D1*
X26739Y30146D1*
X26726Y30070D1*
X26719Y29994D1*
X26716Y29918D1*
X26717Y29842D1*
X26727Y29766D1*
X26745Y29690D1*
X26764Y29614D1*
X26777Y29538D1*
X26784Y29462D1*
X26788Y29386D1*
X26789Y29310D1*
X26790Y29234D1*
X27018Y30374D2*
X27033Y30298D1*
X27060Y30222D1*
X27142Y30146D1*
X27259Y30070D1*
X27398Y29994D1*
X19266Y30298D2*
X19190Y30222D1*
X24738Y30374D2*
X24614Y30298D1*
X24515Y30222D1*
X24434Y30146D1*
X24814Y30070D1*
X24738Y30374D2*
X24662Y30298D1*
X24738Y30222D1*
X24814Y30374D2*
X24890Y30298D1*
X24814Y30222D1*
X26334Y30298D2*
X26304Y30222D1*
X26313Y30146D1*
X26334Y30070D1*
X26264Y29994D1*
X26212Y29918D1*
X26196Y29842D1*
X26190Y29766D1*
X26197Y29690D1*
X26213Y29614D1*
X26232Y29538D1*
X26245Y29462D1*
X26252Y29386D1*
X26256Y29310D1*
X26258Y29234D1*
X26410Y30298D2*
X26440Y30222D1*
X26430Y30146D1*
X26410Y30070D1*
X26480Y29994D1*
X26532Y29918D1*
X26547Y29842D1*
X26553Y29766D1*
X26547Y29690D1*
X26530Y29614D1*
X26511Y29538D1*
X26498Y29462D1*
X26491Y29386D1*
X26488Y29310D1*
X26486Y29234D1*
X27398Y30298D2*
X27391Y30222D1*
X27378Y30146D1*
X27318Y30070D1*
X27246Y29994D1*
X27474Y30298D2*
X27512Y30222D1*
X27544Y30146D1*
X27575Y30070D1*
X27609Y29994D1*
X27640Y29918D1*
X27665Y29842D1*
X27655Y29766D1*
X27633Y29690D1*
X27605Y29614D1*
X27580Y29538D1*
X27564Y29462D1*
X27556Y29386D1*
X27552Y29310D1*
X27550Y29234D1*
X30134Y30146D2*
X30049Y30070D1*
X29944Y29994D1*
X29816Y29918D1*
X29694Y29842D1*
X29595Y29766D1*
X29559Y29690D1*
X29540Y29614D1*
X29531Y29538D1*
Y29462D1*
X29541Y29386D1*
X29567Y29310D1*
X29602Y29234D1*
X30514Y30146D2*
X30613Y30070D1*
X30689Y29994D1*
X30743Y29918D1*
X30780Y29842D1*
X30801Y29766D1*
X30810Y29690D1*
X30812Y29614D1*
X30801Y29538D1*
X30774Y29462D1*
X30736Y29386D1*
X30704Y29310D1*
X30683Y29234D1*
X30670Y29158D1*
X30652Y29082D1*
X30625Y29006D1*
X30556Y28930D1*
X30465Y28854D1*
X30362Y28778D1*
X28158Y30146D2*
X28117Y30070D1*
X28082Y29994D1*
X28158Y30146D2*
X28198Y30070D1*
X28234Y29994D1*
X28538Y30146D2*
X28497Y30070D1*
X28462Y29994D1*
X28538Y30146D2*
X28578Y30070D1*
X28614Y29994D1*
X24586D2*
Y29918D1*
Y29842D1*
X30210Y30070D2*
X30134Y29994D1*
X30058Y29918D1*
X29982Y29842D1*
X30016Y29766D1*
X30035Y29690D1*
X30042Y29614D1*
X30010Y29538D1*
X29963Y29462D1*
X29912Y29386D1*
X29867Y29310D1*
X29830Y29234D1*
X30362Y30070D2*
X30438Y29994D1*
X30513Y29918D1*
X30586Y29842D1*
X30649Y29766D1*
X30701Y29690D1*
X30713Y29614D1*
X30676Y29538D1*
X30566Y29462D1*
X30438Y29386D1*
X21926Y29766D2*
Y29690D1*
Y29614D1*
Y29538D1*
Y29462D1*
Y29386D1*
Y29310D1*
Y29234D1*
Y29158D1*
Y29082D1*
Y29006D1*
Y28930D1*
Y28854D1*
Y28778D1*
Y28702D1*
Y28626D1*
Y28550D1*
Y28474D1*
Y28398D1*
X21923Y28322D1*
X21913Y28246D1*
X21892Y28170D1*
X21863Y28094D1*
X21831Y28018D1*
X21802Y27942D1*
X21776Y27866D1*
X21746Y27790D1*
X21713Y27714D1*
X21677Y27638D1*
X21641Y27562D1*
X21609Y27486D1*
X21584Y27410D1*
X21598Y27334D1*
X21622Y27258D1*
X23978Y29766D2*
X24013Y29690D1*
X24035Y29614D1*
X24046Y29538D1*
X24051Y29462D1*
X24053Y29386D1*
Y29310D1*
X24054Y29234D1*
Y29158D1*
Y29082D1*
Y29006D1*
Y28930D1*
Y28854D1*
Y28778D1*
Y28702D1*
Y28626D1*
Y28550D1*
Y28474D1*
Y28398D1*
Y28322D1*
X24057Y28246D1*
X24067Y28170D1*
X24088Y28094D1*
X24117Y28018D1*
X24151Y27942D1*
X24188Y27866D1*
X24225Y27790D1*
X24263Y27714D1*
X24298Y27638D1*
X24326Y27562D1*
X24343Y27486D1*
X24352Y27410D1*
X24356Y27334D1*
X24358Y27258D1*
X15846Y29766D2*
X15843Y29690D1*
X15834Y29614D1*
X15815Y29538D1*
X15793Y29462D1*
X15770Y29386D1*
X15744Y29310D1*
X15718Y29234D1*
X15694Y29158D1*
X15998Y29766D2*
X16074Y29690D1*
X27170Y29766D2*
X27109Y29690D1*
X27064Y29614D1*
X27039Y29538D1*
X27026Y29462D1*
X27021Y29386D1*
X27019Y29310D1*
X27018Y29234D1*
X27246Y29766D2*
X27257Y29690D1*
X27276Y29614D1*
X27296Y29538D1*
X27309Y29462D1*
X27316Y29386D1*
X27320Y29310D1*
X27322Y29234D1*
X22078Y29614D2*
Y29538D1*
Y29462D1*
Y29386D1*
Y29310D1*
Y29234D1*
Y29158D1*
Y29082D1*
Y29006D1*
Y28930D1*
Y28854D1*
Y28778D1*
Y28702D1*
Y28626D1*
Y28550D1*
Y28474D1*
Y28398D1*
X23902Y29614D2*
Y29538D1*
Y29462D1*
Y29386D1*
Y29310D1*
Y29234D1*
Y29158D1*
Y29082D1*
Y29006D1*
Y28930D1*
Y28854D1*
Y28778D1*
Y28702D1*
Y28626D1*
Y28550D1*
Y28474D1*
Y28398D1*
X30362Y29462D2*
X30286Y29386D1*
X30210Y29310D1*
X30137Y29234D1*
X30077Y29158D1*
X30032Y29082D1*
X30038Y29006D1*
X30099Y28930D1*
X30185Y28854D1*
X30286Y28778D1*
X30438Y29462D2*
X30514Y29386D1*
X16606Y29310D2*
X16539Y29234D1*
X16472Y29158D1*
X16401Y29082D1*
X16331Y29006D1*
X16280Y28930D1*
X16251Y28854D1*
X16239Y28778D1*
Y28702D1*
X16269Y28626D1*
X16307Y28550D1*
X16340Y28474D1*
X16361Y28398D1*
X16371Y28322D1*
X16378Y28246D1*
X16530D1*
Y28170D1*
Y28094D1*
Y28018D1*
Y27942D1*
X16986Y29310D2*
X17097Y29234D1*
X17227Y29158D1*
X17349Y29082D1*
X17448Y29006D1*
X17484Y28930D1*
X17504Y28854D1*
X17509Y28778D1*
X17507Y28702D1*
X17473Y28626D1*
X17424Y28550D1*
X17367Y28474D1*
X17308Y28398D1*
X17248Y28322D1*
X17198Y28246D1*
X17166Y28170D1*
X17150Y28094D1*
X17142Y28018D1*
X17138Y27942D1*
X16682Y29234D2*
X16606Y29158D1*
X16530Y29082D1*
X17062Y29158D2*
Y29082D1*
Y29006D2*
X17149Y28930D1*
X17226Y28854D1*
X17259Y28778D1*
X17278Y28702D1*
X17290Y28626D1*
X17138Y29082D2*
X17272Y29006D1*
X17379Y28930D1*
X17461Y28854D1*
X17486Y28778D1*
X17469Y28702D1*
X17442Y28626D1*
X20482Y29006D2*
X20418Y28930D1*
X20364Y28854D1*
X20320Y28778D1*
X20289Y28702D1*
X20273Y28626D1*
X20269Y28550D1*
X20299Y28474D1*
X20393Y28398D1*
X20536Y28322D1*
X20710Y28246D1*
X20589Y28170D1*
X20482Y28094D1*
X20594Y28018D1*
X20710Y27942D1*
X21014Y29006D2*
X21087Y28930D1*
X21150Y28854D1*
X21195Y28778D1*
X21221Y28702D1*
X21233Y28626D1*
X21238Y28550D1*
X21237Y28474D1*
X21226Y28398D1*
X21195Y28322D1*
X21142Y28246D1*
X21065Y28170D1*
X20964Y28094D1*
X20842Y28018D1*
X20710Y27942D1*
X26106Y29006D2*
X26173Y28930D1*
X26250Y28854D1*
X26332Y28778D1*
X26420Y28702D1*
X26516Y28626D1*
X26615Y28550D1*
X26714Y28474D1*
X26812Y28398D1*
X26895Y28322D1*
X26957Y28246D1*
X26974Y28170D1*
X26907Y28094D1*
X26822Y28018D1*
X26720Y27942D1*
X26605Y27866D1*
X26485Y27790D1*
X26370Y27714D1*
X26261Y27638D1*
X26146Y27562D1*
X26031Y27486D1*
X25932Y27410D1*
X25859Y27334D1*
X25802Y27258D1*
X26182Y29006D2*
X26319Y28930D1*
X26442Y28854D1*
X26553Y28778D1*
X26660Y28702D1*
X26765Y28626D1*
X26874Y28550D1*
X27012Y28474D1*
X27192Y28398D1*
X27398Y28322D1*
X16530Y29006D2*
X16539Y28930D1*
X16560Y28854D1*
X16649Y28778D1*
X16758Y28702D1*
X17062Y28930D2*
X16898Y28854D1*
X16661Y28778D1*
X16378Y28702D1*
X28994Y28930D2*
X28691Y28854D1*
X28456Y28778D1*
X28283Y28702D1*
X28212Y28626D1*
X28221Y28550D1*
X28227Y28474D1*
X28234Y28398D1*
X28245Y28322D1*
X28264Y28246D1*
X28284Y28170D1*
X28297Y28094D1*
X28305Y28018D1*
X28310Y27942D1*
X28322Y27866D1*
X28340Y27790D1*
X28360Y27714D1*
X28375Y27638D1*
X28386Y27562D1*
X29298Y28930D2*
Y28854D1*
X29301Y28778D1*
X29310Y28702D1*
X29328Y28626D1*
X29348Y28550D1*
X29362Y28474D1*
X29371Y28398D1*
X29384Y28322D1*
X29404Y28246D1*
X29424Y28170D1*
X29437Y28094D1*
X29444Y28018D1*
X29443Y27942D1*
X29434Y27866D1*
X29368Y27790D1*
X29174Y27714D1*
X28911Y27638D1*
X28614Y27562D1*
X20634Y28930D2*
X20558Y28854D1*
X20786Y28778D1*
X20862Y28930D2*
X20938Y28854D1*
X20710Y28778D1*
X20938D2*
X20964Y28702D1*
X20984Y28626D1*
X20994Y28550D1*
X20979Y28474D1*
X20962Y28398D1*
X20948Y28322D1*
X20938Y28246D1*
X20710D1*
Y28170D1*
X21090Y28854D2*
X21102Y28778D1*
X21120Y28702D1*
X21137Y28626D1*
X21147Y28550D1*
X21127Y28474D1*
X21098Y28398D1*
X21030Y28322D1*
X20882Y28246D1*
X20710Y28170D1*
X29298Y28854D2*
X29027Y28778D1*
X28767Y28702D1*
X28560Y28626D1*
X28405Y28550D1*
X28351Y28474D1*
X28310Y28398D1*
X29222Y28854D2*
X29221Y28778D1*
X29217Y28702D1*
X29206Y28626D1*
X29138Y28550D1*
X28917Y28474D1*
X28601Y28398D1*
X28234Y28322D1*
X20406Y28778D2*
Y28702D1*
X20409Y28626D1*
X20421Y28550D1*
X20447Y28474D1*
X20482Y28398D1*
X20558Y28778D2*
Y28702D1*
X20555Y28626D1*
X20543Y28550D1*
X20517Y28474D1*
X20482Y28398D1*
X20786Y28702D2*
X20710Y28626D1*
X20634Y28550D1*
X20746Y28474D1*
X20862Y28398D1*
Y28702D2*
X20859Y28626D1*
X20847Y28550D1*
X20821Y28474D1*
X20786Y28398D1*
X18658Y28474D2*
X18579Y28398D1*
X18493Y28322D1*
X18396Y28246D1*
X18291Y28170D1*
X18184Y28094D1*
X18081Y28018D1*
X17989Y27942D1*
X17904Y27866D1*
X17822Y27790D1*
X17734Y27714D1*
X17640Y27638D1*
X17544Y27562D1*
X17455Y27486D1*
X17371Y27410D1*
X17293Y27334D1*
X17218Y27258D1*
X17151Y27182D1*
X17090Y27106D1*
X17027Y27030D1*
X16956Y26954D1*
X16885Y26878D1*
X16819Y26802D1*
X16751Y26726D1*
X16682Y26650D1*
X16617Y26574D1*
X16560Y26498D1*
X16505Y26422D1*
X16445Y26346D1*
X16386Y26270D1*
X16334Y26194D1*
X16289Y26118D1*
X16248Y26042D1*
X16211Y25966D1*
X16179Y25890D1*
X16152Y25814D1*
X16126Y25738D1*
X16102Y25662D1*
X16087Y25586D1*
X16080Y25510D1*
X16077Y25434D1*
X16078Y25358D1*
X16087Y25282D1*
X16108Y25206D1*
X16140Y25130D1*
X16185Y25054D1*
X16245Y24978D1*
X16328Y24902D1*
X16448Y24826D1*
X16631Y24750D1*
X16909Y24674D1*
X17297Y24598D1*
X17746Y24522D1*
X18734Y28474D2*
X18871Y28398D1*
X18992Y28322D1*
X19093Y28246D1*
X19184Y28170D1*
X19275Y28094D1*
X19372Y28018D1*
X19468Y27942D1*
X19560Y27866D1*
X19653Y27790D1*
X19751Y27714D1*
X19851Y27638D1*
X19950Y27562D1*
X20051Y27486D1*
X20147Y27410D1*
X20222Y27334D1*
X20277Y27258D1*
X20279Y27182D1*
X20274Y27106D1*
X20276Y27030D1*
X20289Y26954D1*
X20306Y26878D1*
X20318Y26802D1*
X20325Y26726D1*
X20328Y26650D1*
X20329Y26574D1*
X20330Y26498D1*
Y26422D1*
Y26346D1*
Y26270D1*
Y26194D1*
Y26118D1*
X20333Y26042D1*
X20343Y25966D1*
X20361Y25890D1*
X20380Y25814D1*
X20394Y25738D1*
X20404Y25662D1*
X20417Y25586D1*
X20436Y25510D1*
X20456Y25434D1*
X20472Y25358D1*
X20489Y25282D1*
X20508Y25206D1*
X20528Y25130D1*
X20452Y25054D1*
X20270Y24978D1*
X20026Y24902D1*
X19722Y24826D1*
X19359Y24750D1*
X18920Y24674D1*
X18395Y24598D1*
X17822Y24522D1*
X29222Y28398D2*
X29181Y28322D1*
X29146Y28246D1*
X29222Y28398D2*
X29262Y28322D1*
X29298Y28246D1*
X16606Y28322D2*
X16626Y28246D1*
X16685Y28170D1*
X16758Y28094D1*
X16682Y28322D2*
X16758Y28246D1*
X16834Y28170D1*
X16758Y28094D1*
X28538Y28322D2*
X28541Y28246D1*
X28550Y28170D1*
X28569Y28094D1*
X28592Y28018D1*
X28614Y27942D1*
X28766Y28322D2*
Y28246D1*
Y28170D1*
Y28094D1*
Y28018D1*
Y27942D1*
X28842Y28322D2*
X28882Y28246D1*
X28918Y28170D1*
X28462Y28246D2*
X28386Y28170D1*
X22306D2*
X22230Y28094D1*
X22306Y28018D1*
X22382Y28170D2*
X22458Y28094D1*
X22382Y28018D1*
X23750Y28170D2*
X23709Y28094D1*
X23674Y28018D1*
X23750Y28170D2*
X23790Y28094D1*
X23826Y28018D1*
X29070Y28170D2*
X29029Y28094D1*
X28994Y28018D1*
X29070Y28170D2*
X29110Y28094D1*
X29146Y28018D1*
X27170Y28094D2*
X27082Y28018D1*
X26984Y27942D1*
X26878Y27866D1*
X26768Y27790D1*
X26656Y27714D1*
X26542Y27638D1*
X26426Y27562D1*
X26302Y27486D1*
X26167Y27410D1*
X26024Y27334D1*
X25878Y27258D1*
X27246Y28094D2*
X27322Y28018D1*
X27398Y27942D1*
X27474Y27866D1*
X27550Y27790D1*
X27626Y27714D1*
X27705Y27638D1*
X27790Y27562D1*
X27884Y27486D1*
X27977Y27410D1*
X28059Y27334D1*
X28131Y27258D1*
X28199Y27182D1*
X28265Y27106D1*
X28328Y27030D1*
X28395Y26954D1*
X28466Y26878D1*
X28539Y26802D1*
X28611Y26726D1*
X28677Y26650D1*
X28735Y26574D1*
X28788Y26498D1*
X28841Y26422D1*
X28892Y26346D1*
X28942Y26270D1*
X28991Y26194D1*
X29031Y26118D1*
X29063Y26042D1*
X29093Y25966D1*
X29121Y25890D1*
X29146Y25814D1*
X28971Y25738D1*
X28795Y25662D1*
X28614Y25586D1*
X28386Y28094D2*
X28426Y28018D1*
X28462Y27942D1*
X28842Y28094D2*
X28918Y28018D1*
X28462Y27942D2*
X29298Y28018D2*
X29257Y27942D1*
X29222Y27866D1*
X29298Y28018D2*
X29338Y27942D1*
X29374Y27866D1*
X30058Y27942D2*
X29984Y27866D1*
X29918Y27790D1*
X29860Y27714D1*
X29804Y27638D1*
X29744Y27562D1*
X29685Y27486D1*
X29631Y27410D1*
X29578Y27334D1*
X29526Y27258D1*
X29475Y27182D1*
X29422Y27106D1*
X29363Y27030D1*
X29305Y26954D1*
X29250Y26878D1*
X29195Y26802D1*
X29134Y26726D1*
X29070Y26650D1*
X29174Y26574D1*
X29283Y26498D1*
X29391Y26422D1*
X29495Y26346D1*
X29589Y26270D1*
X29678Y26194D1*
X30134Y27942D2*
X30210Y27866D1*
X30289Y27790D1*
X30377Y27714D1*
X30478Y27638D1*
X30576Y27562D1*
X30658Y27486D1*
X30691Y27410D1*
X30640Y27334D1*
X30581Y27258D1*
X30522Y27182D1*
X30467Y27106D1*
X30414Y27030D1*
X30362Y26954D1*
X30311Y26878D1*
X30258Y26802D1*
X30197Y26726D1*
X30131Y26650D1*
X30068Y26574D1*
X30012Y26498D1*
X29959Y26422D1*
X29908Y26346D1*
X29866Y26270D1*
X29830Y26194D1*
X28918Y27942D2*
X28877Y27866D1*
X28842Y27790D1*
X28918Y27942D2*
X28958Y27866D1*
X28994Y27790D1*
X15998D2*
X15922Y27714D1*
X15846Y27638D1*
X28538Y27866D2*
X28462Y27790D1*
X28614Y27714D1*
X28690Y27866D2*
X28766Y27790D1*
X28614Y27714D1*
X15466D2*
X15370Y27638D1*
X15293Y27562D1*
X15265Y27486D1*
X15249Y27410D1*
X15243Y27334D1*
Y27258D1*
X15255Y27182D1*
X15285Y27106D1*
X15333Y27030D1*
X15390Y26954D1*
X15542Y27714D2*
X15694Y27638D1*
X16302Y27714D2*
X16349Y27638D1*
X16389Y27562D1*
X16417Y27486D1*
X16433Y27410D1*
X16416Y27334D1*
X16389Y27258D1*
X16356Y27182D1*
X16317Y27106D1*
X16273Y27030D1*
X16224Y26954D1*
X16175Y26878D1*
X16122Y26802D1*
X16061Y26726D1*
X15993Y26650D1*
X15922Y26574D1*
X30058Y27714D2*
X30069Y27638D1*
X30109Y27562D1*
X30212Y27486D1*
X30353Y27410D1*
X30514Y27334D1*
X30362Y27638D2*
X30438Y27562D1*
X30514Y27486D1*
X30402Y27410D1*
X30286Y27334D1*
X15466Y27638D2*
X15405Y27562D1*
X15361Y27486D1*
X15335Y27410D1*
X15322Y27334D1*
X15314Y27258D1*
X15542D1*
X15516Y27182D1*
X15493Y27106D1*
X15478Y27030D1*
X15466Y26954D1*
X15542Y27638D2*
X15618Y27562D1*
X15694Y27486D1*
X15998Y27638D2*
X16074Y27562D1*
X16150Y27486D1*
Y27638D2*
X16211Y27562D1*
X16255Y27486D1*
X16285Y27410D1*
X16286Y27334D1*
X16254Y27258D1*
X16206Y27182D1*
X16150Y27106D1*
X16302Y27030D1*
X18506Y27562D2*
X18435Y27486D1*
X18354Y27410D1*
X18734Y27562D2*
X18770Y27486D1*
X18810Y27410D1*
X22610Y27638D2*
Y27562D1*
Y27486D1*
Y27410D1*
X23218Y27334D1*
X23294Y27638D2*
Y27562D1*
Y27486D1*
Y27410D1*
X22686Y27334D1*
X15770Y27562D2*
X15846Y27486D1*
X16074D2*
X18278D2*
X18202Y27410D1*
X18126Y27334D1*
X18202Y27258D1*
X18082Y27182D1*
X17985Y27106D1*
X17898Y27030D1*
X17974Y26954D1*
X18050Y26878D1*
X17981Y26802D1*
X17930Y26726D1*
X17929Y26650D1*
X17982Y26574D1*
X18050Y26498D1*
X18021Y26422D1*
X18028Y26346D1*
X18074Y26270D1*
X18126Y26194D1*
X18886Y27486D2*
X18810Y27410D1*
X19114Y27486D2*
Y27410D1*
Y27334D1*
Y27258D1*
X19418D1*
X19404Y27182D1*
X19377Y27106D1*
X19342Y27030D1*
X19423Y26954D1*
X19485Y26878D1*
X19534Y26802D1*
X19482Y26726D1*
X19418Y26650D1*
X19456Y26574D1*
X19468Y26498D1*
X19441Y26422D1*
X19381Y26346D1*
X19323Y26270D1*
X19266Y26194D1*
X19196Y26118D1*
X19114Y26042D1*
X29982Y27486D2*
X29906Y27410D1*
X29830Y27334D1*
X29974Y27258D1*
X30156Y27182D1*
X30362Y27106D1*
X30134Y27410D2*
X30196Y27334D1*
X30245Y27258D1*
X30286Y27182D1*
X27398Y27334D2*
X27348Y27258D1*
X27295Y27182D1*
X27236Y27106D1*
X27177Y27030D1*
X27123Y26954D1*
X27071Y26878D1*
X27024Y26802D1*
X26988Y26726D1*
X26997Y26650D1*
X27056Y26574D1*
X27138Y26498D1*
X27237Y26422D1*
X27342Y26346D1*
X27446Y26270D1*
X27548Y26194D1*
X27651Y26118D1*
X27754Y26042D1*
X27854Y25966D1*
X27626Y27334D2*
X27748Y27258D1*
X27862Y27182D1*
X27957Y27106D1*
X28026Y27030D1*
X28083Y26954D1*
X28148Y26878D1*
X28222Y26802D1*
X28288Y26726D1*
X28343Y26650D1*
X28359Y26574D1*
X28335Y26498D1*
X28298Y26422D1*
X28255Y26346D1*
X28207Y26270D1*
X28157Y26194D1*
X28107Y26118D1*
X28058Y26042D1*
X28006Y25966D1*
X18582Y27258D2*
X18506Y27182D1*
X18582Y27106D1*
X18658Y27258D2*
X18734Y27182D1*
X18658Y27106D1*
X18810Y27258D2*
X18850Y27182D1*
X18886Y27106D1*
X20406Y27258D2*
Y27182D1*
Y27106D1*
Y27030D1*
Y26954D1*
Y26878D1*
Y26802D1*
Y26726D1*
Y26650D1*
Y26574D1*
Y26498D1*
Y26422D1*
Y26346D1*
X20409Y26270D1*
X20419Y26194D1*
X20437Y26118D1*
X20456Y26042D1*
X20470Y25966D1*
X20477Y25890D1*
X20483Y25814D1*
X20494Y25738D1*
X20513Y25662D1*
X20533Y25586D1*
X20549Y25510D1*
X20565Y25434D1*
X20588Y25358D1*
X20617Y25282D1*
X20654Y25206D1*
X20749Y25130D1*
X20862Y25054D1*
X20482Y27258D2*
X20570Y27182D1*
X20668Y27106D1*
X20776Y27030D1*
X20896Y26954D1*
X21030Y26878D1*
X21173Y26802D1*
X21321Y26726D1*
X21471Y26650D1*
X21622Y26574D1*
X21774Y26498D1*
X21926Y26422D1*
X22078Y26346D1*
X22230Y26270D1*
X22382Y26194D1*
X22537Y26118D1*
X22699Y26042D1*
X22869Y25966D1*
X23040Y25890D1*
X23206Y25814D1*
X23365Y25738D1*
X23522Y25662D1*
X23359Y25586D1*
X23219Y25510D1*
X23113Y25434D1*
X23038Y25358D1*
X22986Y25282D1*
X22950Y25206D1*
X22930Y25130D1*
X22921Y25054D1*
X22917Y24978D1*
X22918Y24902D1*
X22927Y24826D1*
X22948Y24750D1*
X22983Y24674D1*
X23040Y24598D1*
X23128Y24522D1*
X23243Y24446D1*
X23370Y24370D1*
X29830Y27258D2*
X29770Y27182D1*
X29718Y27106D1*
X29787Y27030D1*
X29948Y26954D1*
X30134Y26878D1*
X29906Y27182D2*
X30017Y27106D1*
X30134Y27030D1*
X30058Y26954D1*
X18430Y27182D2*
X18390Y27106D1*
X18354Y27030D1*
X18506Y27106D2*
X18430Y27030D1*
X23826Y27106D2*
X23846Y27030D1*
X23857Y26954D1*
X23811Y26878D1*
X23750Y26802D1*
X23978Y27106D2*
X24200Y27030D1*
X24347Y26954D1*
X24443Y26878D1*
X24509Y26802D1*
X24559Y26726D1*
X24599Y26650D1*
X24626Y26574D1*
X24640Y26498D1*
X24617Y26422D1*
X24586Y26346D1*
X24624Y26270D1*
X24655Y26194D1*
X24682Y26118D1*
X24703Y26042D1*
X24695Y25966D1*
X24682Y25890D1*
X24671Y25814D1*
X24662Y25738D1*
X27474Y27106D2*
X27398Y27030D1*
X27474Y26954D1*
X27550Y27106D2*
X27626Y27030D1*
X27550Y26954D1*
X15694D2*
X15657Y26878D1*
X15705Y26802D1*
X15771Y26726D1*
X15845Y26650D1*
X15922Y26574D1*
X15998Y26954D2*
X15984Y26878D1*
X15958Y26802D1*
X15922Y26726D1*
X18582Y27030D2*
X18521Y26954D1*
X18477Y26878D1*
X18447Y26802D1*
X18451Y26726D1*
X18512Y26650D1*
X18683Y26574D1*
X18886Y26498D1*
X18810Y27030D2*
X18883Y26954D1*
X18943Y26878D1*
X18988Y26802D1*
X18997Y26726D1*
X18885Y26650D1*
X18715Y26574D1*
X18506Y26498D1*
X24130Y27030D2*
Y26954D1*
Y26878D1*
Y26802D1*
X24206Y27030D2*
X24264Y26954D1*
X24309Y26878D1*
X24305Y26802D1*
X24283Y26726D1*
X24241Y26650D1*
X24174Y26574D1*
X24082Y26498D1*
X23978Y26422D1*
X15770Y26878D2*
X15882Y26802D1*
X15998Y26726D1*
X18202Y26954D2*
Y26878D1*
Y26802D1*
Y26726D1*
Y26650D1*
X18354Y26954D2*
Y26878D1*
Y26802D1*
Y26726D1*
Y26650D1*
X23598Y26878D2*
X23624Y26802D1*
X23646Y26726D1*
X23661Y26650D1*
X23672Y26574D1*
X23688Y26498D1*
X23720Y26422D1*
X23774Y26346D1*
X23849Y26270D1*
X23946Y26194D1*
X24054Y26118D1*
X23674Y26878D2*
X29526Y26954D2*
X29539Y26878D1*
X29595Y26802D1*
X29738Y26726D1*
X29906Y26650D1*
X29830Y26878D2*
X29870Y26802D1*
X29906Y26726D1*
X19114Y26878D2*
Y26802D1*
Y26726D1*
X19266Y26878D2*
Y26802D1*
Y26726D1*
X23902Y26802D2*
X23826Y26726D1*
X23848Y26650D1*
X23823Y26574D1*
X23787Y26498D1*
X23750Y26422D1*
X23902Y26346D1*
X23978Y26878D2*
X24054Y26802D1*
X27170Y26878D2*
X27184Y26802D1*
X27210Y26726D1*
X27246Y26650D1*
X27322Y26878D2*
X27308Y26802D1*
X27281Y26726D1*
X27246Y26650D1*
X25954Y26726D2*
X26003Y26650D1*
X26053Y26574D1*
X26106Y26498D1*
X25897Y26422D1*
X25717Y26346D1*
X25632Y26270D1*
X25601Y26194D1*
X25585Y26118D1*
X25578Y26042D1*
X25575Y25966D1*
X25574Y25890D1*
Y25814D1*
Y25738D1*
Y25662D1*
X25580Y25586D1*
X25594Y25510D1*
X25653Y25434D1*
X25726Y25358D1*
X26030Y26726D2*
X26059Y26650D1*
X26093Y26574D1*
X26135Y26498D1*
X26182Y26422D1*
X26334Y26726D2*
X26305Y26650D1*
X26270Y26574D1*
X26228Y26498D1*
X26182Y26422D1*
X26410Y26726D2*
X26377Y26650D1*
X26353Y26574D1*
X26466Y26498D1*
X26619Y26422D1*
X26763Y26346D1*
X26874Y26270D1*
X26910Y26194D1*
X26928Y26118D1*
X26937Y26042D1*
X26940Y25966D1*
X26941Y25890D1*
Y25814D1*
X26942Y25738D1*
X26941Y25662D1*
X26935Y25586D1*
X26922Y25510D1*
X26862Y25434D1*
X26790Y25358D1*
X27398Y26802D2*
X27438Y26726D1*
X27474Y26650D1*
X24510Y26726D2*
X24445Y26650D1*
X24385Y26574D1*
X24319Y26498D1*
X24238Y26422D1*
X24147Y26346D1*
X24054Y26270D1*
X24130Y26194D1*
X29450Y26726D2*
X29374Y26650D1*
X29298Y26574D1*
X29409Y26498D1*
X29526Y26422D1*
X29602Y26650D2*
X29678Y26574D1*
X29754Y26498D1*
X29678Y26422D1*
X19114Y26650D2*
X19074Y26574D1*
X19038Y26498D1*
X19114Y26650D2*
X19154Y26574D1*
X19190Y26498D1*
X24586Y26574D2*
X24585Y26498D1*
X24581Y26422D1*
X24545Y26346D1*
X24427Y26270D1*
X24282Y26194D1*
X18354Y26574D2*
X18314Y26498D1*
X18278Y26422D1*
X18354Y26574D2*
X18394Y26498D1*
X18430Y26422D1*
X18582D2*
X18506Y26346D1*
X18734Y26270D1*
X18810Y26422D2*
X18886Y26346D1*
X18658Y26270D1*
X18278D2*
X18284Y26194D1*
X18298Y26118D1*
X18357Y26042D1*
X18430Y25966D1*
X25954Y26270D2*
X25893Y26194D1*
X25848Y26118D1*
X25823Y26042D1*
X25810Y25966D1*
X25805Y25890D1*
X25803Y25814D1*
X25802Y25738D1*
Y25662D1*
Y25586D1*
X26866Y26270D2*
Y26194D1*
Y26118D1*
Y26042D1*
Y25966D1*
Y25890D1*
Y25814D1*
Y25738D1*
Y25662D1*
Y25586D1*
X24434Y26194D2*
X24358Y26118D1*
X24510Y26194D2*
Y26118D1*
Y26042D1*
Y25966D1*
Y25890D1*
Y25814D1*
Y25738D1*
X18506Y26118D2*
Y26042D1*
Y25966D1*
X18658Y26118D2*
Y26042D1*
Y25966D1*
X18886Y26118D2*
Y26042D1*
Y25966D1*
X25726Y26042D2*
X25685Y25966D1*
X25650Y25890D1*
X28386D2*
X28349Y25814D1*
X28399Y25738D1*
X28462Y25662D1*
X28331Y25586D1*
X28176Y25510D1*
X28006Y25434D1*
X28462Y25890D2*
X28509Y25814D1*
X28586Y25738D1*
X28703Y25662D1*
X28842Y25586D1*
X21014Y25814D2*
X20979Y25738D1*
X20957Y25662D1*
X20946Y25586D1*
X20941Y25510D1*
X20939Y25434D1*
X20937Y25358D1*
X20929Y25282D1*
X20908Y25206D1*
X20819Y25130D1*
X20710Y25054D1*
X22078Y25814D2*
X22113Y25738D1*
X22135Y25662D1*
X22146Y25586D1*
X22151Y25510D1*
X22153Y25434D1*
Y25358D1*
X22154Y25282D1*
Y25206D1*
X22151Y25130D1*
X22138Y25054D1*
X22110Y24978D1*
X22073Y24902D1*
X22040Y24826D1*
X22020Y24750D1*
X22009Y24674D1*
X22002Y24598D1*
X28082Y25586D2*
X27960Y25510D1*
X27857Y25434D1*
X27812Y25358D1*
X27778Y25282D1*
X28006D1*
X27991Y25206D1*
X27959Y25130D1*
X27912Y25054D1*
X27861Y24978D1*
X27816Y24902D1*
X27802Y24826D1*
X27815Y24750D1*
X27834Y24674D1*
X27854Y24598D1*
X28994Y25662D2*
X28918Y25586D1*
X28842Y25510D1*
X29070Y25434D1*
X28994Y25358D1*
X28918Y25282D1*
X28994Y25206D1*
X29070Y25662D2*
X29130Y25586D1*
X29181Y25510D1*
X29193Y25434D1*
X29156Y25358D1*
X29046Y25282D1*
X28918Y25206D1*
X28082Y25510D2*
X28158Y25434D1*
X28614Y25586D2*
X28480Y25510D1*
X28371Y25434D1*
X28294Y25358D1*
X28234Y25282D1*
X28614Y25586D2*
X28602Y25510D1*
X28564Y25434D1*
X28481Y25358D1*
X28386Y25282D1*
X23370Y25510D2*
X23245Y25434D1*
X23146Y25358D1*
X23076Y25282D1*
X23028Y25206D1*
X22990Y25130D1*
X23218Y25510D2*
X23370Y25434D1*
X23522Y25358D1*
X23674Y25282D1*
X17214Y25358D2*
X17243Y25282D1*
X17279Y25206D1*
X17324Y25130D1*
X17381Y25054D1*
X17445Y24978D1*
X17502Y24902D1*
X17546Y24826D1*
X17543Y24750D1*
X17485Y24674D1*
X17328Y24598D1*
X17138Y24522D1*
X17366Y25358D2*
X17446Y25282D1*
X17540Y25206D1*
X17670Y25130D1*
X17847Y25054D1*
X18050Y24978D1*
X21318Y25434D2*
X21278Y25358D1*
X21242Y25282D1*
X21318Y25434D2*
X21358Y25358D1*
X21394Y25282D1*
X21546Y25434D2*
X21506Y25358D1*
X21470Y25282D1*
X21546Y25434D2*
X21586Y25358D1*
X21622Y25282D1*
X21774Y25434D2*
X21734Y25358D1*
X21698Y25282D1*
X21774Y25434D2*
X21814Y25358D1*
X21850Y25282D1*
X24054Y25434D2*
X24066Y25358D1*
X24084Y25282D1*
X24104Y25206D1*
X24117Y25130D1*
X24124Y25054D1*
X24127Y24978D1*
X24126Y24902D1*
X24117Y24826D1*
X24096Y24750D1*
X24063Y24674D1*
X24013Y24598D1*
X23932Y24522D1*
X23814Y24446D1*
X23674Y24370D1*
X24130Y25434D2*
X24290Y25358D1*
X24445Y25282D1*
X24570Y25206D1*
X24663Y25130D1*
X24683Y25054D1*
X24673Y24978D1*
X24654Y24902D1*
X24622Y24826D1*
X24579Y24750D1*
X24536Y24674D1*
X24494Y24598D1*
X24454Y24522D1*
X24415Y24446D1*
X24374Y24370D1*
X24329Y24294D1*
X24280Y24218D1*
X24231Y24142D1*
X24181Y24066D1*
X24129Y23990D1*
X24079Y23914D1*
X24029Y23838D1*
X23977Y23762D1*
X23927Y23686D1*
X23874Y23610D1*
X23813Y23534D1*
X23744Y23458D1*
X23671Y23382D1*
X23594Y23306D1*
X23505Y23230D1*
X23395Y23154D1*
X23254Y23078D1*
X23072Y23002D1*
X22851Y22926D1*
X22610Y22850D1*
X25878Y25434D2*
X25802Y25358D1*
X26638Y25434D2*
X26714Y25358D1*
X28614D2*
X28591Y25282D1*
X28577Y25206D1*
X28579Y25130D1*
X28580Y25054D1*
X28573Y24978D1*
X28535Y24902D1*
X28484Y24826D1*
X28426Y24750D1*
X28369Y24674D1*
X28310Y24598D1*
X28766Y25434D2*
X28772Y25358D1*
X28788Y25282D1*
X28862Y25206D1*
X28956Y25130D1*
X29043Y25054D1*
X29114Y24978D1*
X29038Y24902D1*
X28939Y24826D1*
X28817Y24750D1*
X28680Y24674D1*
X28538Y24598D1*
X23370Y25282D2*
X23294Y25206D1*
X23446Y25130D1*
X23218Y25054D1*
X18430Y25206D2*
X18506Y25130D1*
X18278Y25054D1*
X18582Y25206D2*
X19038Y25130D1*
X18933Y25054D1*
X18787Y24978D1*
X18617Y24902D1*
X18449Y24826D1*
X18286Y24750D1*
X18126Y24674D1*
X18202Y24598D1*
X18050Y25130D2*
X17903Y25054D1*
X17746Y24978D1*
X18126Y25130D2*
X18202Y25054D1*
X23902Y25206D2*
X23704Y25130D1*
X23542Y25054D1*
X23413Y24978D1*
X23354Y24902D1*
X23344Y24826D1*
X23372Y24750D1*
X23412Y24674D1*
X23500Y24598D1*
X23598Y24522D1*
X23750Y25206D2*
X23807Y25130D1*
X23851Y25054D1*
X23838Y24978D1*
X23784Y24902D1*
X23731Y24826D1*
X23684Y24750D1*
X23625Y24674D1*
X23542Y24598D1*
X23446Y24522D1*
X28158Y25206D2*
X28082Y25130D1*
X28158Y25054D1*
X28234Y25206D2*
X28310Y25130D1*
X28234Y25054D1*
X24966Y25130D2*
X24902Y25054D1*
X24847Y24978D1*
X24801Y24902D1*
X24759Y24826D1*
X24719Y24750D1*
X24678Y24674D1*
X24633Y24598D1*
X24584Y24522D1*
X24537Y24446D1*
X24494Y24370D1*
X24452Y24294D1*
X24405Y24218D1*
X24356Y24142D1*
X24307Y24066D1*
X24257Y23990D1*
X24205Y23914D1*
X24155Y23838D1*
X24102Y23762D1*
X24041Y23686D1*
X23975Y23610D1*
X23912Y23534D1*
X23856Y23458D1*
X23800Y23382D1*
X23737Y23306D1*
X23665Y23230D1*
X23583Y23154D1*
X23487Y23078D1*
X23376Y23002D1*
X23245Y22926D1*
X23087Y22850D1*
X22914Y22774D1*
X24814Y25130D2*
X25042Y25054D1*
X25273Y24978D1*
X25513Y24902D1*
X25770Y24826D1*
X26043Y24750D1*
X26340Y24674D1*
X26697Y24598D1*
X27137Y24522D1*
X27626Y24446D1*
X20634Y24978D2*
X20698Y24902D1*
X20752Y24826D1*
X20796Y24750D1*
X20831Y24674D1*
X20859Y24598D1*
X20890Y24522D1*
X20925Y24446D1*
X20968Y24370D1*
X21017Y24294D1*
X21066Y24218D1*
X21118Y24142D1*
X21176Y24066D1*
X21235Y23990D1*
X21289Y23914D1*
X21344Y23838D1*
X21407Y23762D1*
X21475Y23686D1*
X21548Y23610D1*
X21623Y23534D1*
X21701Y23458D1*
X21787Y23382D1*
X21882Y23306D1*
X21987Y23230D1*
X22120Y23154D1*
X22318Y23078D1*
X22595Y23002D1*
X22914Y22926D1*
X20406Y24978D2*
X20935Y24902D1*
X21345Y24826D1*
X21614Y24750D1*
X21789Y24674D1*
X21926Y24598D1*
X28006Y24978D2*
X27947Y24902D1*
X27906Y24826D1*
X27877Y24750D1*
X28048Y24674D1*
X28234Y24598D1*
X28082Y24978D2*
X28085Y24902D1*
X28097Y24826D1*
X28123Y24750D1*
X28158Y24674D1*
X20634Y24902D2*
X20330Y24826D1*
X20022Y24750D1*
X19701Y24674D1*
X19359Y24598D1*
X19014Y24522D1*
X18705Y24446D1*
X18430Y24370D1*
X18534Y24294D1*
X18663Y24218D1*
X18810Y24142D1*
X20634Y24902D2*
X20646Y24826D1*
X20665Y24750D1*
X20687Y24674D1*
X20710Y24598D1*
X20738Y24522D1*
X20771Y24446D1*
X20807Y24370D1*
X20846Y24294D1*
X20891Y24218D1*
X20940Y24142D1*
X20989Y24066D1*
X21042Y23990D1*
X21100Y23914D1*
X21159Y23838D1*
X21213Y23762D1*
X21268Y23686D1*
X21331Y23610D1*
X21399Y23534D1*
X21472Y23458D1*
X21547Y23382D1*
X21625Y23306D1*
X21711Y23230D1*
X21808Y23154D1*
X21919Y23078D1*
X22052Y23002D1*
X22216Y22926D1*
X22407Y22850D1*
X22610Y22774D1*
X28386Y24826D2*
X28268Y24750D1*
X28112Y24674D1*
X27930Y24598D1*
X22306Y24446D2*
X22277Y24370D1*
X22245Y24294D1*
X22212Y24218D1*
X22182Y24142D1*
X22156Y24066D1*
X22129Y23990D1*
X22103Y23914D1*
X22079Y23838D1*
X22056Y23762D1*
X22037Y23686D1*
X22052Y23610D1*
X22102Y23534D1*
X22163Y23458D1*
X22230Y23382D1*
X22190Y23306D1*
X22154Y23230D1*
X22534Y24446D2*
X22723Y24370D1*
X22914Y24294D1*
X23084Y24218D1*
X23213Y24142D1*
X23308Y24066D1*
X23337Y23990D1*
X23329Y23914D1*
X23312Y23838D1*
X23292Y23762D1*
X23265Y23686D1*
X23233Y23610D1*
X23200Y23534D1*
X23169Y23458D1*
X23132Y23382D1*
X23080Y23306D1*
X22974Y23230D1*
X22875Y23154D1*
X22802Y23078D1*
X22743Y23002D1*
X22686Y22926D1*
X22762Y22850D1*
X17898Y24446D2*
X17834Y24370D1*
X17780Y24294D1*
X17733Y24218D1*
X17692Y24142D1*
X17655Y24066D1*
X17623Y23990D1*
X17596Y23914D1*
X17570Y23838D1*
X17546Y23762D1*
X17530Y23686D1*
X17518Y23610D1*
X17974Y24446D2*
X18050Y24370D1*
X18126Y24294D1*
X18202Y24218D1*
X18275Y24142D1*
X18338Y24066D1*
X18389Y23990D1*
X18405Y23914D1*
X18396Y23838D1*
X18392Y23762D1*
X18405Y23686D1*
X18430Y23610D1*
X25042Y24370D2*
X25007Y24294D1*
X24985Y24218D1*
X24974Y24142D1*
X24969Y24066D1*
X24967Y23990D1*
X24966Y23914D1*
Y23838D1*
Y23762D1*
Y23686D1*
Y23610D1*
X24969Y23534D1*
X24981Y23458D1*
X25007Y23382D1*
X25042Y23306D1*
X26486Y24370D2*
X26521Y24294D1*
X26543Y24218D1*
X26554Y24142D1*
X26559Y24066D1*
X26561Y23990D1*
Y23914D1*
X26562Y23838D1*
Y23762D1*
Y23686D1*
X26561Y23610D1*
X26559Y23534D1*
X26547Y23458D1*
X26521Y23382D1*
X26486Y23306D1*
X18810Y24218D2*
X18734Y24142D1*
X18962Y24218D2*
X19038Y24142D1*
X18933Y24066D1*
X18828Y23990D1*
X18729Y23914D1*
X18644Y23838D1*
X18571Y23762D1*
X18501Y23686D1*
X18430Y23610D1*
X25118Y24294D2*
X25197Y24218D1*
X25282Y24142D1*
X25377Y24066D1*
X25478Y23990D1*
X25591Y23914D1*
X25727Y23838D1*
X25878Y23762D1*
X26334Y24294D2*
X26258Y24218D1*
X26182Y24142D1*
X26105Y24066D1*
X26023Y23990D1*
X25924Y23914D1*
X25796Y23838D1*
X25650Y23762D1*
X22914Y24218D2*
X22874Y24142D1*
X22838Y24066D1*
X22914Y24218D2*
X22954Y24142D1*
X22990Y24066D1*
X22306Y24142D2*
X22307Y24066D1*
X22316Y23990D1*
X22337Y23914D1*
X22439Y23838D1*
X22584Y23762D1*
X22756Y23686D1*
X22945Y23610D1*
X23142Y23534D1*
X22534Y24142D2*
X22694Y24066D1*
X22849Y23990D1*
X22974Y23914D1*
X23067Y23838D1*
X23086Y23762D1*
X23066Y23686D1*
X23032Y23610D1*
X22990Y23534D1*
X25042Y24142D2*
Y24066D1*
Y23990D1*
Y23914D1*
Y23838D1*
Y23762D1*
X25045Y23686D1*
X25057Y23610D1*
X25083Y23534D1*
X25118Y23458D1*
Y24142D2*
X25193Y24066D1*
X25266Y23990D1*
X25327Y23914D1*
X25372Y23838D1*
X25366Y23762D1*
X25316Y23686D1*
X25244Y23610D1*
X25149Y23534D1*
X25042Y23458D1*
X26410Y24142D2*
X26322Y24066D1*
X26226Y23990D1*
X26128Y23914D1*
X26030Y23838D1*
X26106Y23762D1*
X26185Y23686D1*
X26273Y23610D1*
X26375Y23534D1*
X26486Y23458D1*
Y24142D2*
Y24066D1*
Y23990D1*
Y23914D1*
Y23838D1*
X26485Y23762D1*
X26483Y23686D1*
X26471Y23610D1*
X26445Y23534D1*
X26410Y23458D1*
X22306Y23762D2*
X22266Y23686D1*
X22230Y23610D1*
X22306Y23762D2*
X22346Y23686D1*
X22382Y23610D1*
X25498Y23686D2*
X25422Y23610D1*
X25346Y23534D1*
X25270Y23458D1*
X25194Y23382D1*
X25650Y23686D2*
X25726Y23610D1*
X25878Y23686D2*
X25802Y23610D1*
X25954Y23686D2*
X26045Y23610D1*
X26152Y23534D1*
X26277Y23458D1*
X26410Y23382D1*
X22838Y23534D2*
X22798Y23458D1*
X22762Y23382D1*
X22838Y23534D2*
X22878Y23458D1*
X22914Y23382D1*
X22230Y23306D2*
X22154Y23230D1*
X22078Y23154D1*
X22304Y23078D1*
X22591Y23002D1*
X22914Y22926D1*
X22230Y23382D2*
X22413Y23306D1*
X22567Y23230D1*
X22636Y23154D1*
X22667Y23078D1*
X22606Y23002D1*
X22534Y22926D1*
X15846Y21938D2*
Y21862D1*
Y21786D1*
Y21710D1*
X16074D1*
Y21634D1*
Y21558D1*
Y21482D1*
Y21406D1*
Y21330D1*
Y21254D1*
X15846D1*
Y21178D1*
Y21102D1*
Y21026D1*
X16074D1*
Y20950D1*
Y20874D1*
Y20798D1*
Y20722D1*
Y20646D1*
Y20570D1*
Y20494D1*
X16226Y21938D2*
Y21862D1*
Y21786D1*
Y21710D1*
Y21634D1*
Y21558D1*
Y21482D1*
Y21406D1*
Y21330D1*
Y21254D1*
Y21178D1*
Y21102D1*
Y21026D1*
Y20950D1*
Y20874D1*
Y20798D1*
Y20722D1*
Y20646D1*
Y20570D1*
Y20494D1*
X16530Y21938D2*
X16469Y21862D1*
X16425Y21786D1*
X16399Y21710D1*
X16387Y21634D1*
X16382Y21558D1*
X16379Y21482D1*
Y21406D1*
X16378Y21330D1*
Y21254D1*
Y21178D1*
Y21102D1*
Y21026D1*
Y20950D1*
Y20874D1*
X16381Y20798D1*
X16391Y20722D1*
X16409Y20646D1*
X16424Y20570D1*
X16429Y20494D1*
X16370Y20418D1*
X16200Y20342D1*
X15998Y20266D1*
X16758Y21938D2*
X16819Y21862D1*
X16864Y21786D1*
X16889Y21710D1*
X16901Y21634D1*
X16907Y21558D1*
X16909Y21482D1*
X16910Y21406D1*
Y21330D1*
Y21254D1*
Y21178D1*
Y21102D1*
Y21026D1*
Y20950D1*
Y20874D1*
X16907Y20798D1*
X16897Y20722D1*
X16873Y20646D1*
X16834Y20570D1*
X16783Y20494D1*
X16731Y20418D1*
X16682Y20342D1*
X17290Y21938D2*
Y21862D1*
Y21786D1*
Y21710D1*
X17594D1*
Y21634D1*
Y21558D1*
Y21482D1*
Y21406D1*
Y21330D1*
X17290D1*
Y21254D1*
Y21178D1*
Y21102D1*
X17594D1*
Y21026D1*
Y20950D1*
Y20874D1*
Y20798D1*
Y20722D1*
Y20646D1*
X17290D1*
Y20570D1*
Y20494D1*
X17746Y21938D2*
X17749Y21862D1*
X17761Y21786D1*
X17787Y21710D1*
X17822Y21634D1*
X17974Y21938D2*
X17936Y21862D1*
X17902Y21786D1*
X17865Y21710D1*
X17822Y21634D1*
X18354Y21938D2*
Y21862D1*
Y21786D1*
Y21710D1*
Y21634D1*
Y21558D1*
Y21482D1*
Y21406D1*
Y21330D1*
Y21254D1*
Y21178D1*
Y21102D1*
Y21026D1*
Y20950D1*
Y20874D1*
Y20798D1*
Y20722D1*
Y20646D1*
Y20570D1*
Y20494D1*
X18658Y21938D2*
X18632Y21862D1*
X18609Y21786D1*
X18595Y21710D1*
X18588Y21634D1*
X18584Y21558D1*
X18583Y21482D1*
X18582Y21406D1*
Y21330D1*
X18579Y21254D1*
X18569Y21178D1*
X18551Y21102D1*
X18532Y21026D1*
X18518Y20950D1*
X18511Y20874D1*
X18508Y20798D1*
X18507Y20722D1*
X18506Y20646D1*
Y20570D1*
Y20494D1*
X18886Y21938D2*
X18898Y21862D1*
X18917Y21786D1*
X18936Y21710D1*
X18950Y21634D1*
X18957Y21558D1*
X18960Y21482D1*
X18961Y21406D1*
X18962Y21330D1*
X18965Y21254D1*
X18975Y21178D1*
X18993Y21102D1*
X19012Y21026D1*
X19026Y20950D1*
X19033Y20874D1*
X19036Y20798D1*
X19037Y20722D1*
X19038Y20646D1*
Y20570D1*
Y20494D1*
X19190Y21938D2*
Y21862D1*
Y21786D1*
Y21710D1*
Y21634D1*
Y21558D1*
Y21482D1*
Y21406D1*
Y21330D1*
Y21254D1*
Y21178D1*
Y21102D1*
Y21026D1*
Y20950D1*
Y20874D1*
Y20798D1*
Y20722D1*
Y20646D1*
Y20570D1*
Y20494D1*
X19418Y21938D2*
X19430Y21862D1*
X19449Y21786D1*
X19469Y21710D1*
X19485Y21634D1*
X19504Y21558D1*
X19533Y21482D1*
X19570Y21406D1*
X19722Y21938D2*
X19687Y21862D1*
X19665Y21786D1*
X19654Y21710D1*
X19646Y21634D1*
X19632Y21558D1*
X19605Y21482D1*
X19570Y21406D1*
X19950Y21938D2*
Y21862D1*
Y21786D1*
Y21710D1*
Y21634D1*
Y21558D1*
Y21482D1*
Y21406D1*
Y21330D1*
Y21254D1*
Y21178D1*
Y21102D1*
Y21026D1*
Y20950D1*
Y20874D1*
Y20798D1*
Y20722D1*
Y20646D1*
Y20570D1*
Y20494D1*
X20406Y21938D2*
X20380Y21862D1*
X20357Y21786D1*
X20343Y21710D1*
X20336Y21634D1*
X20332Y21558D1*
X20330Y21482D1*
X20710Y21938D2*
X20759Y21862D1*
X20809Y21786D1*
X20862Y21710D1*
X20938Y21938D2*
X20924Y21862D1*
X20897Y21786D1*
X20862Y21710D1*
X21090Y21938D2*
Y21862D1*
Y21786D1*
Y21710D1*
Y21634D1*
Y21558D1*
Y21482D1*
Y21406D1*
Y21330D1*
Y21254D1*
Y21178D1*
Y21102D1*
Y21026D1*
Y20950D1*
Y20874D1*
Y20798D1*
Y20722D1*
Y20646D1*
Y20570D1*
Y20494D1*
X21622Y21938D2*
X21587Y21862D1*
X21565Y21786D1*
X21554Y21710D1*
X21549Y21634D1*
X21547Y21558D1*
X21546Y21482D1*
Y21406D1*
Y21330D1*
Y21254D1*
Y21178D1*
Y21102D1*
Y21026D1*
Y20950D1*
Y20874D1*
Y20798D1*
X21549Y20722D1*
X21561Y20646D1*
X21587Y20570D1*
X21622Y20494D1*
X22078Y21938D2*
Y21862D1*
Y21786D1*
Y21710D1*
Y21634D1*
Y21558D1*
Y21482D1*
Y21406D1*
Y21330D1*
Y21254D1*
Y21178D1*
Y21102D1*
Y21026D1*
X22079Y20950D1*
X22083Y20874D1*
X22118Y20798D1*
X22237Y20722D1*
X22382Y20646D1*
X22458Y21938D2*
Y21862D1*
Y21786D1*
Y21710D1*
Y21634D1*
Y21558D1*
Y21482D1*
Y21406D1*
Y21330D1*
Y21254D1*
Y21178D1*
Y21102D1*
Y21026D1*
X22457Y20950D1*
X22453Y20874D1*
X22418Y20798D1*
X22299Y20722D1*
X22154Y20646D1*
X22610Y21938D2*
X22646Y21862D1*
X22686Y21786D1*
X22838Y21938D2*
X22726Y21862D1*
X22610Y21786D1*
X23218Y21938D2*
Y21862D1*
Y21786D1*
Y21710D1*
Y21634D1*
Y21558D1*
Y21482D1*
Y21406D1*
Y21330D1*
Y21254D1*
Y21178D1*
Y21102D1*
Y21026D1*
Y20950D1*
Y20874D1*
Y20798D1*
Y20722D1*
Y20646D1*
Y20570D1*
Y20494D1*
X23446Y21938D2*
X23411Y21862D1*
X23389Y21786D1*
X23378Y21710D1*
X23373Y21634D1*
X23371Y21558D1*
X23370Y21482D1*
Y21406D1*
Y21330D1*
Y21254D1*
Y21178D1*
Y21102D1*
Y21026D1*
Y20950D1*
Y20874D1*
Y20798D1*
X23373Y20722D1*
X23385Y20646D1*
X23411Y20570D1*
X23446Y20494D1*
X23750Y21938D2*
X23902D2*
X24054D2*
X24089Y21862D1*
X24111Y21786D1*
X24122Y21710D1*
X24127Y21634D1*
X24132Y21558D1*
X24144Y21482D1*
X24171Y21406D1*
X24206Y21330D1*
X24282Y21938D2*
Y21862D1*
Y21786D1*
Y21710D1*
Y21634D1*
X24279Y21558D1*
X24267Y21482D1*
X24241Y21406D1*
X24206Y21330D1*
X24434Y21938D2*
X24469Y21862D1*
X24491Y21786D1*
X24502Y21710D1*
X24507Y21634D1*
X24509Y21558D1*
Y21482D1*
X24510Y21406D1*
X24513Y21330D1*
X24525Y21254D1*
X24551Y21178D1*
X24586Y21102D1*
X24662Y21938D2*
Y21862D1*
Y21786D1*
Y21710D1*
Y21634D1*
Y21558D1*
Y21482D1*
Y21406D1*
X24659Y21330D1*
X24647Y21254D1*
X24621Y21178D1*
X24586Y21102D1*
X24890Y21938D2*
X24864Y21862D1*
X24841Y21786D1*
X24827Y21710D1*
X24819Y21634D1*
X24816Y21558D1*
X24815Y21482D1*
X24814Y21406D1*
Y21330D1*
Y21254D1*
X24811Y21178D1*
X24801Y21102D1*
X24783Y21026D1*
X24763Y20950D1*
X24750Y20874D1*
X24743Y20798D1*
X24740Y20722D1*
X24739Y20646D1*
X24738Y20570D1*
Y20494D1*
X25194Y21938D2*
Y21862D1*
Y21786D1*
Y21710D1*
X25498D1*
Y21634D1*
Y21558D1*
Y21482D1*
Y21406D1*
Y21330D1*
X25194D1*
Y21254D1*
Y21178D1*
Y21102D1*
X25498D1*
Y21026D1*
Y20950D1*
Y20874D1*
Y20798D1*
Y20722D1*
Y20646D1*
X25194D1*
Y20570D1*
Y20494D1*
X25650Y21938D2*
Y21862D1*
Y21786D1*
Y21710D1*
Y21634D1*
Y21558D1*
Y21482D1*
Y21406D1*
Y21330D1*
Y21254D1*
Y21178D1*
Y21102D1*
Y21026D1*
Y20950D1*
Y20874D1*
Y20798D1*
Y20722D1*
Y20646D1*
Y20570D1*
Y20494D1*
X25802Y21938D2*
Y21862D1*
Y21786D1*
Y21710D1*
Y21634D1*
Y21558D1*
Y21482D1*
Y21406D1*
Y21330D1*
Y21254D1*
Y21178D1*
Y21102D1*
Y21026D1*
Y20950D1*
Y20874D1*
Y20798D1*
Y20722D1*
Y20646D1*
Y20570D1*
Y20494D1*
X25954Y21938D2*
Y21862D1*
Y21786D1*
Y21710D1*
Y21634D1*
X25960Y21558D1*
X25974Y21482D1*
X26033Y21406D1*
X26106Y21330D1*
X26182Y21938D2*
Y21862D1*
Y21786D1*
Y21710D1*
X26181Y21634D1*
X26175Y21558D1*
X26162Y21482D1*
X26102Y21406D1*
X26030Y21330D1*
X26942Y21938D2*
X26918Y21862D1*
X26881Y21786D1*
X26841Y21710D1*
X26815Y21634D1*
X26800Y21558D1*
X26794Y21482D1*
X26791Y21406D1*
X26790Y21330D1*
Y21254D1*
Y21178D1*
Y21102D1*
Y21026D1*
Y20950D1*
Y20874D1*
Y20798D1*
Y20722D1*
Y20646D1*
Y20570D1*
Y20494D1*
X27322Y21938D2*
X27345Y21862D1*
X27383Y21786D1*
X27422Y21710D1*
X27449Y21634D1*
X27463Y21558D1*
X27469Y21482D1*
X27472Y21406D1*
X27473Y21330D1*
Y21254D1*
X27474Y21178D1*
Y21102D1*
Y21026D1*
Y20950D1*
Y20874D1*
Y20798D1*
Y20722D1*
Y20646D1*
Y20570D1*
Y20494D1*
X27778Y21938D2*
X27754Y21862D1*
X27717Y21786D1*
X27677Y21710D1*
X27651Y21634D1*
X27636Y21558D1*
X27630Y21482D1*
X27627Y21406D1*
X27626Y21330D1*
Y21254D1*
Y21178D1*
Y21102D1*
Y21026D1*
Y20950D1*
Y20874D1*
Y20798D1*
Y20722D1*
Y20646D1*
Y20570D1*
Y20494D1*
X27930Y21938D2*
Y21862D1*
X27929Y21786D1*
X27927Y21710D1*
X27917Y21634D1*
X27899Y21558D1*
X27879Y21482D1*
X27866Y21406D1*
X27859Y21330D1*
X27856Y21254D1*
X27854Y21178D1*
Y21102D1*
X27853Y21026D1*
X27851Y20950D1*
X27841Y20874D1*
X27823Y20798D1*
X27803Y20722D1*
X27790Y20646D1*
X27783Y20570D1*
X27778Y20494D1*
X28234Y21938D2*
Y21862D1*
Y21786D1*
Y21710D1*
Y21634D1*
Y21558D1*
X28237Y21482D1*
X28246Y21406D1*
X28265Y21330D1*
X28284Y21254D1*
X28297Y21178D1*
X28304Y21102D1*
X28308Y21026D1*
X28309Y20950D1*
Y20874D1*
X28310Y20798D1*
Y20722D1*
Y20646D1*
Y20570D1*
Y20494D1*
X28462Y21938D2*
Y21862D1*
Y21786D1*
Y21710D1*
Y21634D1*
Y21558D1*
Y21482D1*
Y21406D1*
Y21330D1*
Y21254D1*
Y21178D1*
Y21102D1*
Y21026D1*
Y20950D1*
Y20874D1*
Y20798D1*
Y20722D1*
Y20646D1*
Y20570D1*
Y20494D1*
X28614Y21938D2*
Y21862D1*
Y21786D1*
Y21710D1*
Y21634D1*
X28620Y21558D1*
X28634Y21482D1*
X28693Y21406D1*
X28766Y21330D1*
X28842Y21938D2*
Y21862D1*
Y21786D1*
Y21710D1*
X28841Y21634D1*
X28835Y21558D1*
X28821Y21482D1*
X28762Y21406D1*
X28690Y21330D1*
X28994Y21938D2*
Y21862D1*
Y21786D1*
Y21710D1*
Y21634D1*
Y21558D1*
Y21482D1*
Y21406D1*
Y21330D1*
Y21254D1*
Y21178D1*
Y21102D1*
Y21026D1*
Y20950D1*
Y20874D1*
Y20798D1*
Y20722D1*
Y20646D1*
Y20570D1*
Y20494D1*
X29146Y21938D2*
Y21862D1*
Y21786D1*
Y21710D1*
Y21634D1*
Y21558D1*
Y21482D1*
Y21406D1*
Y21330D1*
Y21254D1*
X29149Y21178D1*
X29158Y21102D1*
X29176Y21026D1*
X29196Y20950D1*
X29209Y20874D1*
X29216Y20798D1*
X29219Y20722D1*
X29221Y20646D1*
Y20570D1*
X29222Y20494D1*
X29298Y21938D2*
Y21862D1*
Y21786D1*
Y21710D1*
Y21634D1*
Y21558D1*
X29301Y21482D1*
X29313Y21406D1*
X29339Y21330D1*
X29374Y21254D1*
X29526Y21938D2*
X29491Y21862D1*
X29469Y21786D1*
X29458Y21710D1*
X29453Y21634D1*
X29450Y21558D1*
X29447Y21482D1*
X29435Y21406D1*
X29409Y21330D1*
X29374Y21254D1*
X29602Y21938D2*
X29637Y21862D1*
X29659Y21786D1*
X29670Y21710D1*
X29674Y21634D1*
X29676Y21558D1*
X29677Y21482D1*
X29681Y21406D1*
X29692Y21330D1*
X29718Y21254D1*
X29754Y21178D1*
X29830Y21938D2*
Y21862D1*
Y21786D1*
Y21710D1*
Y21634D1*
Y21558D1*
X29829Y21482D1*
X29826Y21406D1*
X29815Y21330D1*
X29789Y21254D1*
X29754Y21178D1*
X29982Y21938D2*
Y21862D1*
Y21786D1*
Y21710D1*
Y21634D1*
Y21558D1*
Y21482D1*
Y21406D1*
Y21330D1*
Y21254D1*
X29981Y21178D1*
X29979Y21102D1*
X29969Y21026D1*
X29951Y20950D1*
X29931Y20874D1*
X29918Y20798D1*
X29911Y20722D1*
X29908Y20646D1*
X29906Y20570D1*
Y20494D1*
X23826Y21862D2*
X23840Y21786D1*
X23866Y21710D1*
X23902Y21634D1*
X23978Y21862D2*
X23964Y21786D1*
X23937Y21710D1*
X23902Y21634D1*
X16530Y21786D2*
Y21710D1*
Y21634D1*
Y21558D1*
Y21482D1*
Y21406D1*
Y21330D1*
Y21254D1*
Y21178D1*
Y21102D1*
Y21026D1*
X16531Y20950D1*
X16537Y20874D1*
X16550Y20798D1*
X16610Y20722D1*
X16682Y20646D1*
X16606Y21786D2*
X16667Y21710D1*
X16712Y21634D1*
X16737Y21558D1*
X16749Y21482D1*
X16755Y21406D1*
X16757Y21330D1*
X16758Y21254D1*
Y21178D1*
Y21102D1*
Y21026D1*
Y20950D1*
X16752Y20874D1*
X16738Y20798D1*
X16679Y20722D1*
X16606Y20646D1*
X18050Y21786D2*
Y21710D1*
Y21634D1*
Y21558D1*
Y21482D1*
Y21406D1*
Y21330D1*
Y21254D1*
Y21178D1*
Y21102D1*
Y21026D1*
X18051Y20950D1*
X18056Y20874D1*
X18070Y20798D1*
X18129Y20722D1*
X18202Y20646D1*
X18278Y21786D2*
Y21710D1*
Y21634D1*
Y21558D1*
Y21482D1*
Y21406D1*
Y21330D1*
Y21254D1*
Y21178D1*
Y21102D1*
Y21026D1*
X18277Y20950D1*
X18272Y20874D1*
X18258Y20798D1*
X18199Y20722D1*
X18126Y20646D1*
X20482Y21786D2*
Y21710D1*
Y21634D1*
Y21558D1*
Y21482D1*
X20558Y21786D2*
X20619Y21710D1*
X20669Y21634D1*
X20684Y21558D1*
X20663Y21482D1*
X20600Y21406D1*
X20521Y21330D1*
X20444Y21254D1*
X20379Y21178D1*
X20354Y21102D1*
X20340Y21026D1*
X20334Y20950D1*
X20331Y20874D1*
Y20798D1*
X20333Y20722D1*
X20345Y20646D1*
X20371Y20570D1*
X20406Y20494D1*
X21698Y21786D2*
Y21710D1*
Y21634D1*
Y21558D1*
Y21482D1*
Y21406D1*
Y21330D1*
Y21254D1*
Y21178D1*
Y21102D1*
Y21026D1*
X21699Y20950D1*
X21704Y20874D1*
X21718Y20798D1*
X21777Y20722D1*
X21850Y20646D1*
X21926Y21786D2*
Y21710D1*
Y21634D1*
Y21558D1*
Y21482D1*
Y21406D1*
Y21330D1*
Y21254D1*
Y21178D1*
Y21102D1*
Y21026D1*
X21925Y20950D1*
X21920Y20874D1*
X21906Y20798D1*
X21847Y20722D1*
X21774Y20646D1*
X22990Y21786D2*
X22929Y21710D1*
X22885Y21634D1*
X22855Y21558D1*
Y21482D1*
X22890Y21406D1*
X22972Y21330D1*
X23066Y21254D1*
Y21786D2*
Y21710D1*
Y21634D1*
Y21558D1*
X23063Y21482D1*
X23051Y21406D1*
X23025Y21330D1*
X22990Y21254D1*
X23522Y21786D2*
Y21710D1*
Y21634D1*
Y21558D1*
Y21482D1*
Y21406D1*
Y21330D1*
Y21254D1*
Y21178D1*
Y21102D1*
Y21026D1*
Y20950D1*
X23525Y20874D1*
X23537Y20798D1*
X23563Y20722D1*
X23598Y20646D1*
X23674Y21786D2*
X23677Y21710D1*
X23686Y21634D1*
X23705Y21558D1*
X23724Y21482D1*
X23737Y21406D1*
X23744Y21330D1*
X23748Y21254D1*
X23749Y21178D1*
X23747Y21102D1*
X23737Y21026D1*
X23719Y20950D1*
X23696Y20874D1*
X23671Y20798D1*
X23638Y20722D1*
X23598Y20646D1*
X26334Y21786D2*
Y21710D1*
Y21634D1*
Y21558D1*
Y21482D1*
Y21406D1*
Y21330D1*
Y21254D1*
Y21178D1*
Y21102D1*
Y21026D1*
Y20950D1*
Y20874D1*
Y20798D1*
Y20722D1*
Y20646D1*
Y20570D1*
Y20494D1*
X26638Y21786D2*
Y21710D1*
Y21634D1*
Y21558D1*
Y21482D1*
Y21406D1*
Y21330D1*
Y21254D1*
Y21178D1*
Y21102D1*
Y21026D1*
Y20950D1*
Y20874D1*
Y20798D1*
Y20722D1*
Y20646D1*
Y20570D1*
Y20494D1*
X20786Y21482D2*
X20782Y21406D1*
X20774Y21330D1*
X20729Y21254D1*
X20662Y21178D1*
X20591Y21102D1*
X20530Y21026D1*
X20506Y20950D1*
X20491Y20874D1*
X20505Y20798D1*
X20562Y20722D1*
X20634Y20646D1*
X20938Y21482D2*
Y21406D1*
Y21330D1*
Y21254D1*
Y21178D1*
Y21102D1*
X20935Y21026D1*
X20923Y20950D1*
X20897Y20874D1*
X20862Y20798D1*
X28006Y21330D2*
X28009Y21254D1*
X28021Y21178D1*
X28047Y21102D1*
X28082Y21026D1*
X28158Y21330D2*
X28155Y21254D1*
X28143Y21178D1*
X28117Y21102D1*
X28082Y21026D1*
X19266Y21254D2*
Y21178D1*
Y21102D1*
Y21026D1*
Y20950D1*
Y20874D1*
Y20798D1*
Y20722D1*
Y20646D1*
Y20570D1*
Y20494D1*
X19418Y21254D2*
Y21178D1*
Y21102D1*
X19421Y21026D1*
X19431Y20950D1*
X19449Y20874D1*
X19468Y20798D1*
X19482Y20722D1*
X19489Y20646D1*
X19492Y20570D1*
X19494Y20494D1*
X22610Y21254D2*
X22613Y21178D1*
X22625Y21102D1*
X22651Y21026D1*
X22686Y20950D1*
X22762Y21254D2*
X22759Y21178D1*
X22747Y21102D1*
X22721Y21026D1*
X22686Y20950D1*
X25954Y21178D2*
Y21102D1*
Y21026D1*
Y20950D1*
Y20874D1*
Y20798D1*
Y20722D1*
Y20646D1*
Y20570D1*
Y20494D1*
X26182Y21178D2*
Y21102D1*
Y21026D1*
Y20950D1*
Y20874D1*
Y20798D1*
Y20722D1*
Y20646D1*
Y20570D1*
Y20494D1*
X28614Y21178D2*
Y21102D1*
Y21026D1*
Y20950D1*
Y20874D1*
Y20798D1*
Y20722D1*
Y20646D1*
Y20570D1*
Y20494D1*
X28842Y21178D2*
Y21102D1*
Y21026D1*
Y20950D1*
Y20874D1*
Y20798D1*
Y20722D1*
Y20646D1*
Y20570D1*
Y20494D1*
X22914Y21102D2*
Y21026D1*
X22911Y20950D1*
X22901Y20874D1*
X22883Y20798D1*
X22864Y20722D1*
X22850Y20646D1*
X22843Y20570D1*
X22838Y20494D1*
X23066Y21102D2*
Y21026D1*
Y20950D1*
Y20874D1*
Y20798D1*
Y20722D1*
Y20646D1*
Y20570D1*
Y20494D1*
X19646Y21026D2*
Y20950D1*
Y20874D1*
X19643Y20798D1*
X19633Y20722D1*
X19614Y20646D1*
X19592Y20570D1*
X19570Y20494D1*
X19798Y21026D2*
Y20950D1*
Y20874D1*
Y20798D1*
Y20722D1*
Y20646D1*
Y20570D1*
Y20494D1*
X20710Y20950D2*
X20704Y20874D1*
X20690Y20798D1*
X20631Y20722D1*
X20558Y20646D1*
X20786Y20950D2*
X20822Y20874D1*
X20862Y20798D1*
X18658Y20874D2*
Y20798D1*
Y20722D1*
Y20646D1*
Y20570D1*
Y20494D1*
X18886Y20874D2*
Y20798D1*
Y20722D1*
Y20646D1*
Y20570D1*
Y20494D1*
X23902Y20874D2*
X23890Y20798D1*
X23868Y20722D1*
X23836Y20646D1*
X23796Y20570D1*
X23750Y20494D1*
X24054Y20874D2*
Y20798D1*
Y20722D1*
Y20646D1*
Y20570D1*
Y20494D1*
X24282Y20874D2*
Y20798D1*
Y20722D1*
Y20646D1*
Y20570D1*
Y20494D1*
X24358Y20874D2*
X24419Y20798D1*
X24463Y20722D1*
X24489Y20646D1*
X24502Y20570D1*
X24510Y20494D1*
X28006Y20874D2*
X28005Y20798D1*
X28002Y20722D1*
X27991Y20646D1*
X27965Y20570D1*
X27930Y20494D1*
X28158Y20874D2*
Y20798D1*
Y20722D1*
Y20646D1*
Y20570D1*
Y20494D1*
X29602Y20874D2*
X29541Y20798D1*
X29496Y20722D1*
X29471Y20646D1*
X29458Y20570D1*
X29450Y20494D1*
X29678Y20874D2*
Y20798D1*
Y20722D1*
Y20646D1*
Y20570D1*
Y20494D1*
X17746Y20798D2*
Y20722D1*
Y20646D1*
Y20570D1*
Y20494D1*
X17214Y20418D1*
X17363Y20342D1*
X17499Y20266D1*
X17609Y20190D1*
X17700Y20114D1*
X17690Y20038D1*
X17645Y19962D1*
X17594Y19886D1*
X17661Y19810D1*
X17725Y19734D1*
X17787Y19658D1*
X17839Y19582D1*
X17873Y19506D1*
X17898Y19430D1*
Y20798D2*
X17901Y20722D1*
X17913Y20646D1*
X17939Y20570D1*
X17974Y20494D1*
X20786Y20722D2*
Y20646D1*
Y20570D1*
Y20494D1*
X20938Y20722D2*
Y20646D1*
Y20570D1*
Y20494D1*
X15314D2*
X15352Y20418D1*
X15458Y20342D1*
X15579Y20266D1*
X15685Y20190D1*
X15768Y20114D1*
X15835Y20038D1*
X15893Y19962D1*
X15948Y19886D1*
X16011Y19810D1*
X16077Y19734D1*
X16140Y19658D1*
X16195Y19582D1*
X16248Y19506D1*
X16302Y19430D1*
X15618Y20418D2*
X16034Y20342D1*
X16454Y20266D1*
X16910Y20418D2*
X16834Y20342D1*
X17974D2*
X18010Y20266D1*
X18050Y20190D1*
X17969Y20114D1*
X17898Y20038D1*
X18050Y19962D1*
X17974Y19886D1*
X18056Y19810D1*
X18119Y19734D1*
X18165Y19658D1*
X18202Y19582D1*
Y20342D2*
Y20266D1*
Y20190D1*
Y20114D1*
X18430D1*
X18359Y20038D1*
X18278Y19962D1*
X18430Y19886D1*
X18395Y19810D1*
X18373Y19734D1*
X18361Y19658D1*
X18354Y19582D1*
X16454Y20342D2*
X16457Y20266D1*
X16467Y20190D1*
X16488Y20114D1*
X16520Y20038D1*
X16562Y19962D1*
X16610Y19886D1*
X16661Y19810D1*
X16729Y19734D1*
X16833Y19658D1*
X16975Y19582D1*
X17138Y19506D1*
X16606Y20342D2*
X16682Y20266D1*
X16758Y20190D1*
X16834Y20114D1*
X16907Y20038D1*
X16973Y19962D1*
X17028Y19886D1*
X17071Y19810D1*
X17106Y19734D1*
Y19658D1*
X17054Y19582D1*
X16986Y19506D1*
X16834Y20342D2*
X16907Y20266D1*
X16973Y20190D1*
X17032Y20114D1*
X17094Y20038D1*
X17180Y19962D1*
X17301Y19886D1*
X17442Y19810D1*
X16910Y20342D2*
X17044Y20266D1*
X17155Y20190D1*
X17238Y20114D1*
X17307Y20038D1*
X17374Y19962D1*
X17442Y19886D1*
X17366Y19810D1*
X15846Y20190D2*
X15922Y20114D1*
X15998Y20038D1*
X16071Y19962D1*
X16138Y19886D1*
X16195Y19810D1*
X16249Y19734D1*
X16299Y19658D1*
X16337Y19582D1*
X16361Y19506D1*
X16378Y19430D1*
X15922Y20190D2*
X16108Y20114D1*
X16252Y20038D1*
X16349Y19962D1*
X16415Y19886D1*
X16466Y19810D1*
X16514Y19734D1*
X16574Y19658D1*
X16652Y19582D1*
X16742Y19506D1*
X16834Y19430D1*
X17442Y20038D2*
X17518Y19962D1*
X17591Y19886D1*
X17660Y19810D1*
X17725Y19734D1*
X17787Y19658D1*
X17838Y19582D1*
X17873Y19506D1*
X17898Y19430D1*
X18202Y20038D2*
X18162Y19962D1*
X18126Y19886D1*
X17366Y19734D2*
X17302Y19658D1*
X17245Y19582D1*
X17192Y19506D1*
X17138Y19430D1*
X17366Y19734D2*
X17454Y19658D1*
X17549Y19582D1*
X17648Y19506D1*
X17746Y19430D1*
X32063Y11366D2*
D54*
Y10783D1*
X32099Y10674D1*
X32135Y10637D1*
X32209Y10601D1*
X32318D1*
X32390Y10637D1*
X32063Y11257D2*
X32135Y11329D1*
X32209Y11366D1*
X32318D1*
X32390Y11329D1*
X32464Y11257D1*
X32500Y11147D1*
Y11074D1*
X32464Y10965D1*
X32390Y10892D1*
X32318Y10856D1*
X32209D1*
X32135Y10892D1*
X32063Y10965D1*
X31828Y11658D2*
X31791Y11622D1*
X31754Y11658D1*
X31791Y11695D1*
X31828Y11658D1*
X31791Y11403D2*
Y10892D1*
X31409Y11658D2*
Y11038D1*
X31373Y10929D1*
X31300Y10892D1*
X31228D1*
X31519Y11403D2*
X31264D1*
X30992Y11658D2*
Y10892D1*
Y11257D2*
X30883Y11366D1*
X30809Y11403D1*
X30700D1*
X30628Y11366D1*
X30591Y11257D1*
Y10892D1*
X30356Y11403D2*
Y11038D1*
X30320Y10929D1*
X30247Y10892D1*
X30137D1*
X30065Y10929D1*
X29955Y11038D1*
Y11403D2*
Y10892D1*
X29720Y11658D2*
Y10892D1*
Y11293D2*
X29646Y11366D1*
X29574Y11403D1*
X29465D1*
X29392Y11366D1*
X29319Y11293D1*
X29283Y11184D1*
Y11111D1*
X29319Y11002D1*
X29392Y10929D1*
X29465Y10892D1*
X29574D1*
X29646Y10929D1*
X29720Y11002D1*
X29011Y10965D2*
X29047Y10928D1*
X29011Y10892D1*
X28974Y10928D1*
X29011Y10965D1*
X28301Y11293D2*
X28374Y11366D1*
X28447Y11403D1*
X28556D1*
X28629Y11366D1*
X28702Y11293D1*
X28739Y11184D1*
Y11111D1*
X28702Y11002D1*
X28629Y10929D1*
X28556Y10892D1*
X28447D1*
X28374Y10929D1*
X28301Y11002D1*
X27884Y11403D2*
X27956Y11366D1*
X28029Y11293D1*
X28065Y11184D1*
Y11111D1*
X28029Y11002D1*
X27956Y10929D1*
X27884Y10892D1*
X27774D1*
X27701Y10929D1*
X27628Y11002D1*
X27591Y11111D1*
Y11184D1*
X27628Y11293D1*
X27701Y11366D1*
X27774Y11403D1*
X27884D1*
X27356D2*
Y10892D1*
Y11257D2*
X27246Y11366D1*
X27173Y11403D1*
X27065D1*
X26991Y11366D1*
X26955Y11257D1*
Y10892D1*
Y11257D2*
X26846Y11366D1*
X26772Y11403D1*
X26664D1*
X26590Y11366D1*
X26553Y11257D1*
Y10892D1*
X26318D2*
X25807Y11657D1*
X25463Y11658D2*
Y11038D1*
X25426Y10929D1*
X25353Y10892D1*
X25281D1*
X25572Y11403D2*
X25317D1*
X24864D2*
X24936Y11366D1*
X25009Y11293D1*
X25045Y11184D1*
Y11111D1*
X25009Y11002D1*
X24936Y10929D1*
X24864Y10892D1*
X24754D1*
X24681Y10929D1*
X24608Y11002D1*
X24571Y11111D1*
Y11184D1*
X24608Y11293D1*
X24681Y11366D1*
X24754Y11403D1*
X24864D1*
X24336D2*
Y10637D1*
Y11293D2*
X24263Y11366D1*
X24190Y11403D1*
X24081D1*
X24007Y11366D1*
X23935Y11293D1*
X23898Y11184D1*
Y11110D1*
X23935Y11002D1*
X24007Y10928D1*
X24081Y10892D1*
X24190D1*
X24263Y10928D1*
X24336Y11002D1*
X23663Y11658D2*
X23626Y11622D1*
X23589Y11658D1*
X23626Y11695D1*
X23663Y11658D1*
X23626Y11403D2*
Y10892D1*
X22916Y11293D2*
X22989Y11366D1*
X23063Y11403D1*
X23171D1*
X23245Y11366D1*
X23317Y11293D1*
X23354Y11184D1*
Y11111D1*
X23317Y11002D1*
X23245Y10929D1*
X23171Y10892D1*
X23063D1*
X22989Y10929D1*
X22916Y11002D1*
X22681Y11403D2*
Y11038D1*
X22645Y10929D1*
X22571Y10892D1*
X22462D1*
X22389Y10929D1*
X22280Y11038D1*
Y11403D2*
Y10892D1*
X21644Y11293D2*
X21680Y11366D1*
X21789Y11403D1*
X21899D1*
X22008Y11366D1*
X22045Y11293D1*
X22008Y11221D1*
X21935Y11184D1*
X21753Y11147D1*
X21680Y11111D1*
X21644Y11038D1*
Y11002D1*
X21680Y10929D1*
X21789Y10892D1*
X21899D1*
X22008Y10929D1*
X22045Y11002D1*
X21226Y11403D2*
X21299Y11366D1*
X21372Y11293D1*
X21408Y11184D1*
Y11111D1*
X21372Y11002D1*
X21299Y10929D1*
X21226Y10892D1*
X21117D1*
X21044Y10929D1*
X20971Y11002D1*
X20934Y11111D1*
Y11184D1*
X20971Y11293D1*
X21044Y11366D1*
X21117Y11403D1*
X21226D1*
X20699D2*
Y10892D1*
Y11257D2*
X20589Y11366D1*
X20516Y11403D1*
X20407D1*
X20334Y11366D1*
X20298Y11257D1*
Y10892D1*
X19625Y11658D2*
Y10892D1*
Y11293D2*
X19698Y11366D1*
X19771Y11403D1*
X19881D1*
X19953Y11366D1*
X20026Y11293D1*
X20063Y11184D1*
Y11111D1*
X20026Y11002D1*
X19953Y10929D1*
X19881Y10892D1*
X19771D1*
X19698Y10929D1*
X19625Y11002D1*
X19390Y11184D2*
X18953D1*
Y11257D1*
X18989Y11330D1*
X19025Y11366D1*
X19099Y11403D1*
X19208D1*
X19281Y11366D1*
X19354Y11293D1*
X19390Y11184D1*
Y11111D1*
X19354Y11002D1*
X19281Y10929D1*
X19208Y10892D1*
X19099D1*
X19025Y10929D1*
X18953Y11002D1*
X18718Y11403D2*
Y10892D1*
Y11184D2*
X18681Y11293D1*
X18608Y11366D1*
X18535Y11403D1*
X18425D1*
X18190D2*
X18044Y10892D1*
X17899Y11403D1*
X17753Y10892D1*
X17607Y11403D1*
X17372Y11658D2*
X17336Y11622D1*
X17299Y11658D1*
X17336Y11695D1*
X17372Y11658D1*
X17336Y11403D2*
Y10892D1*
X16918Y11659D2*
X16881Y11622D1*
X16844Y11659D1*
X16881Y11695D1*
X16918Y11659D1*
X16881Y11403D2*
Y10784D1*
X16918Y10674D1*
X16990Y10638D1*
X17063D1*
X16208Y11293D2*
X16244Y11366D1*
X16354Y11403D1*
X16463D1*
X16573Y11366D1*
X16609Y11293D1*
X16573Y11221D1*
X16500Y11184D1*
X16318Y11147D1*
X16244Y11111D1*
X16208Y11038D1*
Y11002D1*
X16244Y10929D1*
X16354Y10892D1*
X16463D1*
X16573Y10929D1*
X16609Y11002D1*
X15973Y10892D2*
X15462Y11657D1*
X15227Y11658D2*
X15191Y11622D1*
X15154Y11658D1*
X15191Y11695D1*
X15227Y11658D1*
X15191Y11403D2*
Y10892D1*
X14737Y11403D2*
X14809Y11366D1*
X14882Y11293D1*
X14919Y11184D1*
Y11111D1*
X14882Y11002D1*
X14809Y10929D1*
X14737Y10892D1*
X14627D1*
X14554Y10929D1*
X14481Y11002D1*
X14444Y11111D1*
Y11184D1*
X14481Y11293D1*
X14554Y11366D1*
X14627Y11403D1*
X14737D1*
X14100Y11658D2*
Y11038D1*
X14063Y10929D1*
X13990Y10892D1*
X13918D1*
X14209Y11403D2*
X13954D1*
X13245D2*
Y10892D1*
Y11293D2*
X13318Y11366D1*
X13391Y11403D1*
X13499D1*
X13573Y11366D1*
X13645Y11293D1*
X13682Y11184D1*
Y11111D1*
X13645Y11002D1*
X13573Y10929D1*
X13499Y10892D1*
X13391D1*
X13318Y10929D1*
X13245Y11002D1*
X32062Y36533D2*
D53*
Y35512D1*
X32402Y36533D2*
X31722D1*
X31408D2*
X30727Y35512D1*
Y36533D2*
X31408Y35512D1*
X32402Y33506D2*
X31965D1*
X31819Y33556D1*
X31770Y33604D1*
X31722Y33701D1*
Y33798D1*
X31770Y33895D1*
X31819Y33944D1*
X31965Y33993D1*
X32402D1*
Y32972D1*
X32062Y33506D2*
X31722Y32972D1*
X31408Y33993D2*
X30727Y32972D1*
Y33993D2*
X31408Y32972D1*
X32283Y31453D2*
Y30432D1*
X31942D1*
X31796Y30481D1*
X31699Y30578D1*
X31650Y30676D1*
X31602Y30820D1*
Y31064D1*
X31650Y31210D1*
X31699Y31307D1*
X31796Y31404D1*
X31942Y31453D1*
X32283D1*
X31288Y31257D2*
X31191Y31307D1*
X31045Y31452D1*
Y30432D1*
X32402Y28913D2*
Y27892D1*
X32062D1*
X31916Y27941D1*
X31818Y28038D1*
X31770Y28136D1*
X31722Y28280D1*
Y28524D1*
X31770Y28670D1*
X31818Y28767D1*
X31916Y28864D1*
X32062Y28913D1*
X32402D1*
X31358Y28669D2*
Y28717D1*
X31310Y28815D1*
X31262Y28863D1*
X31164Y28912D1*
X30970D1*
X30873Y28863D1*
X30825Y28815D1*
X30776Y28717D1*
Y28621D1*
X30825Y28523D1*
X30922Y28378D1*
X31408Y27892D1*
X30727D1*
X32402Y26373D2*
Y25352D1*
X32062D1*
X31916Y25401D1*
X31818Y25498D1*
X31770Y25596D1*
X31722Y25740D1*
Y25984D1*
X31770Y26130D1*
X31818Y26227D1*
X31916Y26324D1*
X32062Y26373D1*
X32402D1*
X31310Y26372D2*
X30777D1*
X31068Y25983D1*
X30922D1*
X30825Y25935D1*
X30777Y25886D1*
X30727Y25740D1*
Y25644D1*
X30777Y25498D1*
X30873Y25400D1*
X31019Y25352D1*
X31165D1*
X31310Y25400D1*
X31358Y25450D1*
X31408Y25546D1*
X32450Y23833D2*
Y22812D1*
X32110D1*
X31964Y22861D1*
X31866Y22958D1*
X31818Y23056D1*
X31770Y23200D1*
Y23444D1*
X31818Y23590D1*
X31866Y23687D1*
X31964Y23784D1*
X32110Y23833D1*
X32450D1*
X30970Y22812D2*
Y23832D1*
X31456Y23152D1*
X30727D1*
X31680Y21050D2*
X31728Y21147D1*
X31826Y21244D1*
X31922Y21293D1*
X32117D1*
X32214Y21244D1*
X32311Y21147D1*
X32360Y21050D1*
X32409Y20904D1*
Y20660D1*
X32360Y20516D1*
X32311Y20418D1*
X32214Y20321D1*
X32117Y20272D1*
X31922D1*
X31826Y20321D1*
X31728Y20418D1*
X31680Y20516D1*
Y20660D1*
X31922D1*
X32075Y18838D2*
D54*
X32439D1*
X32475Y18510D1*
X32439Y18547D1*
X32330Y18584D1*
X32221D1*
X32112Y18547D1*
X32038Y18474D1*
X32002Y18365D1*
Y18292D1*
X32038Y18183D1*
X32112Y18109D1*
X32221Y18073D1*
X32330D1*
X32439Y18109D1*
X32475Y18147D1*
X32512Y18219D1*
X31767Y18839D2*
X31475Y18073D1*
X31184Y18839D1*
X15616Y36099D2*
D53*
X15180D1*
X15034Y36149D1*
X14984Y36197D1*
X14936Y36293D1*
Y36391D1*
X14984Y36488D1*
X15034Y36537D1*
X15180Y36585D1*
X15616D1*
Y35565D1*
X15276Y36099D2*
X14936Y35565D1*
X13942Y36439D2*
X14038Y36537D1*
X14184Y36585D1*
X14378D1*
X14524Y36537D1*
X14622Y36439D1*
Y36343D1*
X14573Y36245D1*
X14524Y36197D1*
X14428Y36149D1*
X14136Y36051D1*
X14038Y36003D1*
X13990Y35953D1*
X13942Y35857D1*
Y35711D1*
X14038Y35614D1*
X14184Y35565D1*
X14378D1*
X14524Y35614D1*
X14622Y35711D1*
X13288Y36585D2*
Y35565D1*
X13628Y36585D2*
X12947D1*
X13942Y32972D2*
X14331Y33993D1*
X14720Y32972D1*
X14574Y33312D2*
X14088D1*
X13336Y33992D2*
X13482Y33943D1*
X13580Y33797D1*
X13628Y33555D1*
Y33409D1*
X13580Y33166D1*
X13482Y33020D1*
X13336Y32972D1*
X13239D1*
X13093Y33020D1*
X12997Y33166D1*
X12947Y33409D1*
Y33555D1*
X12997Y33797D1*
X13093Y33943D1*
X13239Y33992D1*
X13336D1*
X12997Y33797D2*
X13580Y33166D1*
X14622Y31453D2*
Y30432D1*
X14282D1*
X14136Y30481D1*
X14038Y30578D1*
X13990Y30676D1*
X13942Y30820D1*
Y31064D1*
X13990Y31210D1*
X14038Y31307D1*
X14136Y31404D1*
X14282Y31453D1*
X14622D1*
X13336Y31452D2*
X13482Y31403D1*
X13580Y31257D1*
X13628Y31015D1*
Y30869D1*
X13580Y30626D1*
X13482Y30480D1*
X13336Y30432D1*
X13239D1*
X13093Y30480D1*
X12997Y30626D1*
X12947Y30869D1*
Y31015D1*
X12997Y31257D1*
X13093Y31403D1*
X13239Y31452D1*
X13336D1*
X12997Y31257D2*
X13580Y30626D1*
X14573Y26373D2*
Y25352D1*
X14232D1*
X14086Y25401D1*
X13989Y25498D1*
X13940Y25596D1*
X13892Y25740D1*
Y25984D1*
X13940Y26130D1*
X13989Y26227D1*
X14086Y26324D1*
X14232Y26373D1*
X14573D1*
X12996Y26227D2*
X13044Y26323D1*
X13190Y26372D1*
X13286D1*
X13432Y26323D1*
X13530Y26177D1*
X13578Y25935D1*
Y25692D1*
X13530Y25498D1*
X13432Y25400D1*
X13286Y25352D1*
X13238D1*
X13093Y25400D1*
X12996Y25498D1*
X12947Y25644D1*
Y25692D1*
X12996Y25838D1*
X13093Y25935D1*
X13238Y25983D1*
X13286D1*
X13432Y25935D1*
X13530Y25838D1*
X13578Y25692D1*
X14622Y23833D2*
Y22812D1*
X14282D1*
X14136Y22861D1*
X14038Y22958D1*
X13990Y23056D1*
X13942Y23200D1*
Y23444D1*
X13990Y23590D1*
X14038Y23687D1*
X14136Y23784D1*
X14282Y23833D1*
X14622D1*
X13434Y22812D2*
X12947Y23832D1*
X13628D1*
X14621Y21293D2*
Y20272D1*
X14281D1*
X14135Y20321D1*
X14037Y20418D1*
X13989Y20516D1*
X13940Y20660D1*
Y20904D1*
X13989Y21050D1*
X14037Y21147D1*
X14135Y21244D1*
X14281Y21293D1*
X14621D1*
X13384Y21292D2*
X13529Y21243D1*
X13578Y21147D1*
Y21049D1*
X13529Y20952D1*
X13432Y20903D1*
X13238Y20855D1*
X13092Y20806D1*
X12996Y20709D1*
X12947Y20612D1*
Y20466D1*
X12996Y20370D1*
X13044Y20320D1*
X13190Y20272D1*
X13384D1*
X13529Y20320D1*
X13578Y20370D1*
X13627Y20466D1*
Y20612D1*
X13578Y20709D1*
X13481Y20806D1*
X13336Y20855D1*
X13142Y20903D1*
X13044Y20952D1*
X12996Y21049D1*
Y21147D1*
X13044Y21243D1*
X13190Y21292D1*
X13384D1*
X15615Y18752D2*
X15082D1*
X15373Y18363D1*
X15227D1*
X15130Y18315D1*
X15082Y18266D1*
X15032Y18120D1*
Y18024D1*
X15082Y17878D1*
X15178Y17780D1*
X15324Y17732D1*
X15470D1*
X15615Y17780D1*
X15664Y17830D1*
X15713Y17926D1*
X14719Y18753D2*
X14330Y17732D1*
X13942Y18753D1*
X13530Y18752D2*
X12997D1*
X13288Y18363D1*
X13142D1*
X13045Y18315D1*
X12997Y18266D1*
X12947Y18120D1*
Y18024D1*
X12997Y17878D1*
X13093Y17780D1*
X13239Y17732D1*
X13385D1*
X13530Y17780D1*
X13578Y17830D1*
X13628Y17926D1*
X14622Y28913D2*
Y27892D1*
X14282D1*
X14136Y27941D1*
X14038Y28038D1*
X13990Y28136D1*
X13942Y28280D1*
Y28524D1*
X13990Y28670D1*
X14038Y28767D1*
X14136Y28864D1*
X14282Y28913D1*
X14622D1*
X13045Y28912D2*
X13530D1*
X13578Y28475D1*
X13530Y28523D1*
X13384Y28572D1*
X13239D1*
X13093Y28523D1*
X12996Y28426D1*
X12947Y28280D1*
Y28184D1*
X12996Y28038D1*
X13093Y27940D1*
X13239Y27892D1*
X13384D1*
X13530Y27940D1*
X13578Y27990D1*
X13628Y28086D1*
X17191Y16299D2*
D54*
Y15533D1*
X16863D1*
X16753Y15570D1*
X16717Y15607D1*
X16681Y15679D1*
Y15788D1*
X16717Y15862D1*
X16753Y15898D1*
X16863Y15934D1*
X16753Y15971D1*
X16717Y16007D1*
X16681Y16080D1*
Y16153D1*
X16717Y16226D1*
X16753Y16263D1*
X16863Y16299D1*
X17191D1*
Y15934D2*
X16863D1*
X16008Y16044D2*
Y15533D1*
Y15934D2*
X16081Y16007D1*
X16154Y16044D1*
X16263D1*
X16336Y16007D1*
X16408Y15934D1*
X16446Y15825D1*
Y15752D1*
X16408Y15643D1*
X16336Y15570D1*
X16263Y15533D1*
X16154D1*
X16081Y15570D1*
X16008Y15643D1*
X15773Y16044D2*
Y15533D1*
Y15825D2*
X15736Y15934D1*
X15664Y16007D1*
X15590Y16044D1*
X15481D1*
X15136Y16299D2*
Y15679D1*
X15100Y15570D1*
X15026Y15533D1*
X14954D1*
X15245Y16044D2*
X14990D1*
X16902Y15029D2*
Y14446D1*
X16938Y14337D1*
X16976Y14300D1*
X17048Y14263D1*
X17121D1*
X17194Y14300D1*
X17230Y14337D1*
X17267Y14446D1*
Y14518D1*
X16667Y14555D2*
X16230D1*
Y14628D1*
X16266Y14701D1*
X16302Y14737D1*
X16376Y14774D1*
X16485D1*
X16557Y14737D1*
X16631Y14664D1*
X16667Y14555D1*
Y14482D1*
X16631Y14373D1*
X16557Y14300D1*
X16485Y14263D1*
X16376D1*
X16302Y14300D1*
X16230Y14373D1*
X15995Y14774D2*
Y14263D1*
Y14555D2*
X15957Y14664D1*
X15885Y14737D1*
X15812Y14774D1*
X15702D1*
X15285D2*
X15357Y14737D1*
X15431Y14664D1*
X15467Y14555D1*
Y14482D1*
X15431Y14373D1*
X15357Y14300D1*
X15285Y14263D1*
X15176D1*
X15102Y14300D1*
X15030Y14373D1*
X14993Y14482D1*
Y14555D1*
X15030Y14664D1*
X15102Y14737D1*
X15176Y14774D1*
X15285D1*
X14757Y14555D2*
X14320D1*
Y14628D1*
X14356Y14701D1*
X14393Y14737D1*
X14466Y14774D1*
X14575D1*
X14648Y14737D1*
X14721Y14664D1*
X14757Y14555D1*
Y14482D1*
X14721Y14373D1*
X14648Y14300D1*
X14575Y14263D1*
X14466D1*
X14393Y14300D1*
X14320Y14373D1*
X14085Y14774D2*
Y14263D1*
Y14628D2*
X13975Y14737D1*
X13902Y14774D1*
X13794D1*
X13720Y14737D1*
X13684Y14628D1*
Y14263D1*
X16927Y13759D2*
Y12993D1*
X17182Y13759D2*
X16672D1*
X16437D2*
Y12993D1*
Y13358D2*
X16327Y13467D1*
X16254Y13504D1*
X16144D1*
X16072Y13467D1*
X16036Y13358D1*
Y12993D1*
X15800Y13759D2*
X15764Y13723D1*
X15727Y13759D1*
X15764Y13796D1*
X15800Y13759D1*
X15764Y13504D2*
Y12993D1*
X15346Y13760D2*
X15309Y13724D1*
X15273Y13760D1*
X15309Y13796D1*
X15346Y13760D1*
X15309Y13505D2*
Y12885D1*
X15346Y12775D1*
X15418Y12739D1*
X15492D1*
X14637Y13394D2*
X14673Y13467D1*
X14782Y13504D1*
X14892D1*
X15001Y13467D1*
X15037Y13394D1*
X15001Y13322D1*
X14928Y13285D1*
X14746Y13248D1*
X14673Y13212D1*
X14637Y13139D1*
Y13103D1*
X14673Y13030D1*
X14782Y12993D1*
X14892D1*
X15001Y13030D1*
X15037Y13103D1*
M02*
