G04 DipTrace 2.4.0.2*
%INiota.GTO*%
%MOMM*%
%ADD10C,0.25*%
%ADD12C,0.076*%
%ADD17C,0.356*%
%ADD18C,1.27*%
%ADD27O,0.601X0.6*%
%ADD57C,0.157*%
%FSLAX53Y53*%
G04*
G71*
G90*
G75*
G01*
%LNTopSilk*%
%LPD*%
X17712Y36806D2*
D10*
Y35507D1*
X31712Y36806D2*
Y35507D1*
X32361Y13156D2*
X31062D1*
X22062Y39536D2*
X23361D1*
X14854Y16426D2*
X20569D1*
Y13886D1*
X14854D1*
Y16426D1*
X19162Y27156D2*
G02X19162Y27156I3550J0D01*
G01*
X16711Y23356D2*
Y21156D1*
X28711D1*
Y23356D1*
X16711Y30957D2*
Y33156D1*
X28711D1*
Y30957D1*
X16711Y25956D2*
Y28356D1*
X28711D2*
Y25956D1*
X18412Y42656D2*
X13011D1*
X18412Y37656D2*
X13011D1*
D27*
X11995Y42809D3*
X32412Y42656D2*
D10*
X27011D1*
X32412Y37656D2*
X27011D1*
D27*
X25995Y42809D3*
X30211Y16456D2*
D10*
X25211D1*
X30211Y13856D2*
X25211D1*
Y16456D2*
Y13856D1*
X30211Y15657D2*
Y16456D1*
Y14656D2*
Y13856D1*
Y15657D2*
G03X30211Y14656I0J-500D01*
G01*
D18*
X34141Y11281D3*
X20082Y43590D2*
D12*
X20234D1*
X20021Y43514D2*
X20304D1*
X20994D2*
X21602D1*
X22514D2*
D3*
X22742D2*
D3*
X19972Y43438D2*
X20351D1*
X20860D2*
X21745D1*
X22455D2*
X22514D1*
X22630D2*
X22742D1*
X19965Y43362D2*
X20386D1*
X20746D2*
X21852D1*
X22399D2*
X22757D1*
X20009Y43286D2*
X20082D1*
X20750D2*
X21932D1*
X22349D2*
X22782D1*
X20126Y43210D2*
X20347D1*
X20795D2*
X21970D1*
X22332D2*
X22849D1*
X20275Y43134D2*
X20549D1*
X20854D2*
X22002D1*
X22400D2*
X22930D1*
X20423Y43058D2*
X20691D1*
X20922D2*
X22028D1*
X22494D2*
X23011D1*
X20542Y42982D2*
X20807D1*
X20994D2*
X21485D1*
X21566D2*
X22045D1*
X22613D2*
X23079D1*
X20639Y42906D2*
X22065D1*
X22742D2*
X23139D1*
X20722Y42830D2*
X22097D1*
X22542D2*
X23198D1*
X20798Y42754D2*
X22216D1*
X22281D2*
X23057D1*
X20862Y42678D2*
X21906D1*
X22058D2*
X22921D1*
X20918Y42602D2*
X21830D1*
X21950D2*
X22779D1*
X21806Y42526D2*
X22622D1*
X21634Y42450D2*
X22455D1*
X21461Y42374D2*
X22286D1*
X23578D2*
D3*
X21298Y42298D2*
X22432D1*
X23528D2*
X23578D1*
X21373Y42222D2*
X22134D1*
X22286D2*
X22554D1*
X23477D2*
X23642D1*
X21446Y42146D2*
X22058D1*
X22210D2*
X22662D1*
X23425D2*
X23696D1*
X20766Y42070D2*
D3*
X21507D2*
X22767D1*
X23375D2*
X23746D1*
X20791Y41994D2*
X20842D1*
X21298D2*
D3*
X21553D2*
X21982D1*
X22134D2*
X22869D1*
X23319D2*
X23801D1*
X20811Y41918D2*
X20921D1*
X21269D2*
X21298D1*
X21552D2*
X22971D1*
X23246D2*
X23873D1*
X24034D2*
X24186D1*
X20821Y41842D2*
X21009D1*
X21234D2*
X21298D1*
X21540D2*
X21894D1*
X22058D2*
X23081D1*
X23152D2*
X24110D1*
X20538Y41766D2*
X20690D1*
X20798D2*
X21111D1*
X21192D2*
X21301D1*
X21516D2*
X21872D1*
X22061D2*
X23429D1*
X23669D2*
X24186D1*
X20611Y41690D2*
X21313D1*
X21479D2*
X21840D1*
X22074D2*
X22929D1*
X23010D2*
X23366D1*
X23700D2*
X24262D1*
X20680Y41614D2*
X21339D1*
X21394D2*
X21796D1*
X22097D2*
X22748D1*
X22894D2*
X23320D1*
X23749D2*
X24110D1*
X20745Y41538D2*
X21741D1*
X22159D2*
X22620D1*
X22792D2*
X23295D1*
X23806D2*
X24186D1*
X20810Y41462D2*
X21681D1*
X22248D2*
X22520D1*
X22693D2*
X23282D1*
X20880Y41386D2*
X21614D1*
X22371D2*
X22438D1*
X22606D2*
X23277D1*
X20966Y41310D2*
X21529D1*
X22532D2*
X23275D1*
X21084Y41234D2*
X21419D1*
X22474D2*
X23271D1*
X23426D2*
D3*
X24186D2*
X24870D1*
X21222Y41158D2*
X21298D1*
X22426D2*
X23261D1*
X23414D2*
X23426D1*
X24099D2*
X25009D1*
X22384Y41082D2*
X23243D1*
X23395D2*
X23502D1*
X24022D2*
X25137D1*
X22347Y41006D2*
X23220D1*
X23372D2*
X23543D1*
X23990D2*
X24204D1*
X24855D2*
X25247D1*
X22318Y40930D2*
X23197D1*
X23349D2*
X23600D1*
X23975D2*
X24162D1*
X24490D2*
X24566D1*
X24975D2*
X25336D1*
X22298Y40854D2*
X22669D1*
X23032D2*
X23171D1*
X23324D2*
X23674D1*
X23971D2*
X24160D1*
X24434D2*
X24589D1*
X25073D2*
X25408D1*
X22279Y40778D2*
X22607D1*
X23081D2*
X23145D1*
X23304D2*
X23764D1*
X24004D2*
X24280D1*
X24318D2*
X24607D1*
X25149D2*
X25467D1*
X22258Y40702D2*
X22554D1*
X23122D2*
D3*
X23293D2*
X23860D1*
X24053D2*
X24619D1*
X25207D2*
X25510D1*
X22240Y40626D2*
X22614D1*
X23312D2*
X23964D1*
X24110D2*
X24341D1*
X25221D2*
X25534D1*
X22231Y40550D2*
X22746D1*
X23342D2*
X24101D1*
X25211D2*
X25545D1*
X22262Y40474D2*
X22888D1*
X23388D2*
X24297D1*
X25001D2*
X25550D1*
X22337Y40398D2*
X23014D1*
X23458D2*
X24663D1*
X24671D2*
X25552D1*
X22424Y40322D2*
X23122D1*
X23555D2*
X25547D1*
X22514Y40246D2*
X23058D1*
X23681D2*
X25533D1*
X22473Y40170D2*
X23004D1*
X23830D2*
X25463D1*
X22438Y40094D2*
D3*
X22655D2*
X22959D1*
X24002D2*
X25364D1*
X22641Y40018D2*
X22922D1*
X24186D2*
X25250D1*
X22634Y39942D2*
X22666D1*
X22837D2*
X22879D1*
X22680Y39866D2*
X22594D1*
X22897D2*
X22818D1*
X22451Y20730D2*
X23059D1*
X22439Y20654D2*
X23095D1*
X22421Y20578D2*
X23119D1*
X22401Y20502D2*
X22524D1*
X23059D2*
X23140D1*
X22387Y20426D2*
X22515D1*
X23059D2*
X23163D1*
X22378Y20350D2*
X22496D1*
X23062D2*
X23185D1*
X22363Y20274D2*
X22477D1*
X23072D2*
X23203D1*
X21159Y20198D2*
X21311D1*
X22342D2*
X22463D1*
X23091D2*
X23221D1*
X24199D2*
X24351D1*
X21083Y20122D2*
X21437D1*
X22280D2*
X22450D1*
X23116D2*
X23281D1*
X24087D2*
X24439D1*
X21008Y20046D2*
X21603D1*
X22116D2*
X22431D1*
X23146D2*
X23441D1*
X23925D2*
X24533D1*
X20935Y19970D2*
X21159D1*
X21375D2*
X21821D1*
X21884D2*
X22349D1*
X23224D2*
X23655D1*
X23699D2*
X24202D1*
X24336D2*
X24626D1*
X20871Y19894D2*
X21083D1*
X21508D2*
X22227D1*
X23341D2*
X24062D1*
X24457D2*
X24699D1*
X20820Y19818D2*
X21007D1*
X21637D2*
X22077D1*
X23495D2*
X23936D1*
X24560D2*
X24753D1*
X20806Y19742D2*
X20931D1*
X21767D2*
X21919D1*
X23667D2*
X23819D1*
X24655D2*
X24751D1*
X20832Y19666D2*
X20981D1*
X24582D2*
X24716D1*
X20876Y19590D2*
X21032D1*
X24516D2*
X24674D1*
X20928Y19514D2*
X21083D1*
X24458D2*
X24625D1*
X20980Y19438D2*
X21131D1*
X24405D2*
X24568D1*
X21034Y19362D2*
X21171D1*
X24355D2*
X24513D1*
X21095Y19286D2*
X21201D1*
X24312D2*
X24466D1*
X21159Y19210D2*
X21217D1*
X24299D2*
X24452D1*
X21112Y19134D2*
X21216D1*
X24315D2*
X24467D1*
X21068Y19058D2*
X21199D1*
X22527D2*
X23059D1*
X24341D2*
X24493D1*
X21021Y18982D2*
X21171D1*
X22390D2*
X23193D1*
X24374D2*
X24530D1*
X20966Y18906D2*
X21137D1*
X22273D2*
X22533D1*
X23044D2*
X23304D1*
X24409D2*
X24576D1*
X20836Y18830D2*
X21097D1*
X22181D2*
X22404D1*
X23164D2*
X23384D1*
X24448D2*
X24692D1*
X20667Y18754D2*
X21041D1*
X22114D2*
X22301D1*
X23263D2*
X23443D1*
X24497D2*
X24852D1*
X20497Y18678D2*
X20946D1*
X22062D2*
X22222D1*
X23342D2*
X23490D1*
X24562D2*
X25017D1*
X20354Y18602D2*
X20798D1*
X22018D2*
X22159D1*
X23402D2*
X23529D1*
X24716D2*
X25157D1*
X20290Y18526D2*
X20625D1*
X21981D2*
X22116D1*
X23448D2*
X23558D1*
X24888D2*
X25221D1*
X20267Y18450D2*
X20483D1*
X21952D2*
X22091D1*
X23480D2*
X23576D1*
X25028D2*
X25244D1*
X20255Y18374D2*
X20381D1*
X21935D2*
X22080D1*
X23499D2*
X23585D1*
X25130D2*
X25255D1*
X20250Y18298D2*
X20353D1*
X21928D2*
X22075D1*
X23506D2*
X23589D1*
X25165D2*
X25260D1*
X20249Y18222D2*
X20336D1*
X21934D2*
X22075D1*
X23500D2*
X23590D1*
X25165D2*
X25262D1*
X20255Y18146D2*
X20446D1*
X21951D2*
X22085D1*
X23480D2*
X23588D1*
X25107D2*
X25258D1*
X20272Y18070D2*
X20602D1*
X21973D2*
X22106D1*
X23449D2*
X23578D1*
X24959D2*
X25248D1*
X20374Y17994D2*
X20766D1*
X21996D2*
X22140D1*
X23404D2*
X23557D1*
X24798D2*
X25185D1*
X20529Y17918D2*
X20896D1*
X22027D2*
X22194D1*
X23345D2*
X23525D1*
X24664D2*
X25036D1*
X20700Y17842D2*
X20985D1*
X22072D2*
X22270D1*
X23271D2*
X23481D1*
X24570D2*
X24875D1*
X20838Y17766D2*
X21048D1*
X22136D2*
X22356D1*
X23194D2*
X23423D1*
X24504D2*
X24740D1*
X20943Y17690D2*
X21096D1*
X22213D2*
X22443D1*
X23123D2*
X23357D1*
X24454D2*
X24646D1*
X20988Y17614D2*
X21138D1*
X22294D2*
X22527D1*
X23094D2*
X23285D1*
X24414D2*
X24580D1*
X21025Y17538D2*
X21174D1*
X22375D2*
X22480D1*
X23104D2*
X23211D1*
X24384D2*
X24530D1*
X21049Y17462D2*
X21203D1*
X22314D2*
X22437D1*
X23127D2*
X23249D1*
X24366D2*
X24493D1*
X21063Y17386D2*
X21217D1*
X22267D2*
X22396D1*
X23158D2*
X23281D1*
X24358D2*
X24466D1*
X21045Y17310D2*
X21221D1*
X22231D2*
X22357D1*
X23194D2*
X23313D1*
X24357D2*
X24478D1*
X21015Y17234D2*
X21188D1*
X22198D2*
X22318D1*
X23231D2*
X23347D1*
X24368D2*
X24525D1*
X20972Y17158D2*
X21141D1*
X22163D2*
X22280D1*
X23268D2*
X23383D1*
X24398D2*
X24577D1*
X20918Y17082D2*
X21087D1*
X22126D2*
X22242D1*
X23306D2*
X23422D1*
X24448D2*
X24628D1*
X20865Y17006D2*
X21039D1*
X22078D2*
X22207D1*
X23344D2*
X23471D1*
X24512D2*
X24679D1*
X20818Y16930D2*
X21002D1*
X22014D2*
X22176D1*
X23379D2*
X23536D1*
X24582D2*
X24725D1*
X20805Y16854D2*
X20980D1*
X21875D2*
X22149D1*
X23410D2*
X23679D1*
X24655D2*
X24760D1*
X20832Y16778D2*
X21015D1*
X21710D2*
X22122D1*
X23439D2*
X23837D1*
X24579D2*
X24744D1*
X20879Y16702D2*
X21111D1*
X21523D2*
X22095D1*
X23474D2*
X23981D1*
X24500D2*
X24675D1*
X20942Y16626D2*
X21239D1*
X21311D2*
X21614D1*
X21919D2*
X22071D1*
X23515D2*
X23667D1*
X23881D2*
X24107D1*
X24412D2*
X24593D1*
X21024Y16550D2*
X21526D1*
X24010D2*
X24228D1*
X24310D2*
X24502D1*
X21144Y16474D2*
X21403D1*
X24147D2*
X24386D1*
X21323Y16398D2*
X21224D1*
X24314D2*
X24230D1*
X20082Y43590D2*
X20021Y43514D1*
X19972Y43438D1*
X19965Y43362D1*
X20009Y43286D1*
X20126Y43210D1*
X20275Y43134D1*
X20423Y43058D1*
X20542Y42982D1*
X20639Y42906D1*
X20722Y42830D1*
X20798Y42754D1*
X20862Y42678D1*
X20918Y42602D1*
X20234Y43590D2*
X20304Y43514D1*
X20351Y43438D1*
X20386Y43362D1*
X20082Y43286D1*
X20347Y43210D1*
X20549Y43134D1*
X20691Y43058D1*
X20807Y42982D1*
X20918Y42906D1*
X20994Y43514D2*
X20860Y43438D1*
X20746Y43362D1*
X20750Y43286D1*
X20795Y43210D1*
X20854Y43134D1*
X20922Y43058D1*
X20994Y42982D1*
X20918Y42906D1*
X21602Y43514D2*
X21745Y43438D1*
X21852Y43362D1*
X21932Y43286D1*
X21970Y43210D1*
X22002Y43134D1*
X22028Y43058D1*
X22045Y42982D1*
X22065Y42906D1*
X22097Y42830D1*
X22216Y42754D1*
X22362Y42678D1*
X22514Y43514D2*
X22455Y43438D1*
X22399Y43362D1*
X22349Y43286D1*
X22332Y43210D1*
X22400Y43134D1*
X22494Y43058D1*
X22613Y42982D1*
X22742Y42906D1*
X22542Y42830D1*
X22281Y42754D1*
X21982Y42678D1*
X22742Y43514D2*
X22630Y43438D1*
X22514Y43362D1*
Y43438D2*
X22590Y43362D1*
X22742Y43438D2*
X22757Y43362D1*
X22782Y43286D1*
X22849Y43210D1*
X22930Y43134D1*
X23011Y43058D1*
X23079Y42982D1*
X23139Y42906D1*
X23198Y42830D1*
X23057Y42754D1*
X22921Y42678D1*
X22779Y42602D1*
X22622Y42526D1*
X22455Y42450D1*
X22286Y42374D1*
X22432Y42298D1*
X22554Y42222D1*
X22662Y42146D1*
X22767Y42070D1*
X22869Y41994D1*
X22971Y41918D1*
X23081Y41842D1*
X23198Y41766D1*
X21526Y43058D2*
X21485Y42982D1*
X21450Y42906D1*
X21526Y43058D2*
X21566Y42982D1*
X21602Y42906D1*
X21982Y42754D2*
X21906Y42678D1*
X21830Y42602D1*
X22058Y42678D2*
X21950Y42602D1*
X21806Y42526D1*
X21634Y42450D1*
X21461Y42374D1*
X21298Y42298D1*
X21373Y42222D1*
X21446Y42146D1*
X21507Y42070D1*
X21553Y41994D1*
X21552Y41918D1*
X21540Y41842D1*
X21516Y41766D1*
X21479Y41690D1*
X21394Y41614D1*
X21298Y41538D1*
X23578Y42374D2*
X23528Y42298D1*
X23477Y42222D1*
X23425Y42146D1*
X23375Y42070D1*
X23319Y41994D1*
X23246Y41918D1*
X23152Y41842D1*
X23046Y41766D1*
X23578Y42298D2*
X23642Y42222D1*
X23696Y42146D1*
X23746Y42070D1*
X23801Y41994D1*
X23873Y41918D1*
X23958Y41842D1*
X22210Y42298D2*
X22134Y42222D1*
X22058Y42146D1*
X22362Y42298D2*
X22286Y42222D1*
X22210Y42146D1*
X20766Y42070D2*
X20791Y41994D1*
X20811Y41918D1*
X20821Y41842D1*
X20798Y41766D1*
X20766Y41690D1*
X20842Y41994D2*
X20921Y41918D1*
X21009Y41842D1*
X21111Y41766D1*
X21222Y41690D1*
X21298Y41994D2*
X21269Y41918D1*
X21234Y41842D1*
X21192Y41766D1*
X21146Y41690D1*
X22058Y42070D2*
X21982Y41994D1*
X22058Y42070D2*
X22134Y41994D1*
X24034Y41918D2*
X23958Y41842D1*
X24186Y41918D2*
X24110Y41842D1*
X24186Y41766D1*
X24262Y41690D1*
X24110Y41614D1*
X24186Y41538D1*
X21298Y41842D2*
X21301Y41766D1*
X21313Y41690D1*
X21339Y41614D1*
X21374Y41538D1*
X21906Y41918D2*
X21894Y41842D1*
X21872Y41766D1*
X21840Y41690D1*
X21796Y41614D1*
X21741Y41538D1*
X21681Y41462D1*
X21614Y41386D1*
X21529Y41310D1*
X21419Y41234D1*
X21298Y41158D1*
X22058Y41918D2*
Y41842D1*
X22061Y41766D1*
X22074Y41690D1*
X22097Y41614D1*
X22159Y41538D1*
X22248Y41462D1*
X22371Y41386D1*
X22514Y41310D1*
X22467Y41234D1*
X22423Y41158D1*
X22383Y41082D1*
X22346Y41006D1*
X22318Y40930D1*
X22298Y40854D1*
X22279Y40778D1*
X22258Y40702D1*
X22240Y40626D1*
X22231Y40550D1*
X22262Y40474D1*
X22337Y40398D1*
X22424Y40322D1*
X22514Y40246D1*
X22473Y40170D1*
X22438Y40094D1*
X20538Y41766D2*
X20611Y41690D1*
X20680Y41614D1*
X20745Y41538D1*
X20810Y41462D1*
X20880Y41386D1*
X20966Y41310D1*
X21084Y41234D1*
X21222Y41158D1*
X20690Y41766D2*
X20766Y41690D1*
X23502Y41842D2*
X23429Y41766D1*
X23366Y41690D1*
X23320Y41614D1*
X23295Y41538D1*
X23282Y41462D1*
X23277Y41386D1*
X23275Y41310D1*
X23271Y41234D1*
X23261Y41158D1*
X23243Y41082D1*
X23220Y41006D1*
X23197Y40930D1*
X23171Y40854D1*
X23145Y40778D1*
X23122Y40702D1*
X23654Y41842D2*
X23669Y41766D1*
X23700Y41690D1*
X23749Y41614D1*
X23806Y41538D1*
X22970Y41766D2*
X22929Y41690D1*
X22894Y41614D1*
X22970Y41766D2*
X23010Y41690D1*
X23046Y41614D1*
X22894Y41690D2*
X22748Y41614D1*
X22620Y41538D1*
X22520Y41462D1*
X22438Y41386D1*
X22894Y41614D2*
X22792Y41538D1*
X22693Y41462D1*
X22606Y41386D1*
X22532Y41310D1*
X22474Y41234D1*
X22426Y41158D1*
X22384Y41082D1*
X22347Y41006D1*
X22318Y40930D1*
X22298Y40854D1*
X22279Y40778D1*
X22258Y40702D1*
X22240Y40626D1*
X22231Y40550D1*
X22262Y40474D1*
X22337Y40398D1*
X22424Y40322D1*
X22514Y40246D1*
X22473Y40170D1*
X22438Y40094D1*
X23426Y41234D2*
X23414Y41158D1*
X23395Y41082D1*
X23372Y41006D1*
X23349Y40930D1*
X23324Y40854D1*
X23304Y40778D1*
X23293Y40702D1*
X23312Y40626D1*
X23342Y40550D1*
X23388Y40474D1*
X23458Y40398D1*
X23555Y40322D1*
X23681Y40246D1*
X23830Y40170D1*
X24002Y40094D1*
X24186Y40018D1*
Y41234D2*
X24099Y41158D1*
X24022Y41082D1*
X23990Y41006D1*
X23975Y40930D1*
X23971Y40854D1*
X24004Y40778D1*
X24053Y40702D1*
X24110Y40626D1*
X24870Y41234D2*
X25009Y41158D1*
X25137Y41082D1*
X25247Y41006D1*
X25336Y40930D1*
X25408Y40854D1*
X25467Y40778D1*
X25510Y40702D1*
X25534Y40626D1*
X25545Y40550D1*
X25550Y40474D1*
X25552Y40398D1*
X25547Y40322D1*
X25533Y40246D1*
X25463Y40170D1*
X25364Y40094D1*
X25250Y40018D1*
X23502Y41082D2*
X23543Y41006D1*
X23600Y40930D1*
X23674Y40854D1*
X23764Y40778D1*
X23860Y40702D1*
X23964Y40626D1*
X24101Y40550D1*
X24324Y40474D1*
X24672Y40398D1*
X25098Y40322D1*
X24262Y41082D2*
X24204Y41006D1*
X24162Y40930D1*
X24160Y40854D1*
X24280Y40778D1*
X24414Y40702D1*
X24718Y41082D2*
X24855Y41006D1*
X24975Y40930D1*
X25073Y40854D1*
X25149Y40778D1*
X25207Y40702D1*
X25221Y40626D1*
X25211Y40550D1*
X25001Y40474D1*
X24671Y40398D1*
X24262Y40322D1*
X24490Y40930D2*
X24434Y40854D1*
X24318Y40778D1*
X24186Y40702D1*
X24566Y40930D2*
X24589Y40854D1*
X24607Y40778D1*
X24619Y40702D1*
X24341Y40626D1*
X24034Y40550D1*
X24297Y40474D1*
X24663Y40398D1*
X25098Y40322D1*
X22742Y40930D2*
X22669Y40854D1*
X22607Y40778D1*
X22554Y40702D1*
X22614Y40626D1*
X22746Y40550D1*
X22888Y40474D1*
X23014Y40398D1*
X23122Y40322D1*
X23058Y40246D1*
X23004Y40170D1*
X22959Y40094D1*
X22922Y40018D1*
X22879Y39942D1*
X22818Y39866D1*
X22742Y39790D1*
X22970Y40930D2*
X23032Y40854D1*
X23081Y40778D1*
X23122Y40702D1*
X22666Y40170D2*
X22655Y40094D1*
X22641Y40018D1*
X22634Y39942D1*
X22680Y39866D1*
X22742Y39790D1*
X22666Y39942D2*
X22594Y39866D1*
X22514Y39790D1*
X22818Y40018D2*
X22837Y39942D1*
X22897Y39866D1*
X22970Y39790D1*
X22451Y20730D2*
X22439Y20654D1*
X22421Y20578D1*
X22401Y20502D1*
X22387Y20426D1*
X22378Y20350D1*
X22363Y20274D1*
X22342Y20198D1*
X22280Y20122D1*
X22116Y20046D1*
X21884Y19970D1*
X21615Y19894D1*
X23059Y20730D2*
X23095Y20654D1*
X23119Y20578D1*
X23140Y20502D1*
X23163Y20426D1*
X23185Y20350D1*
X23203Y20274D1*
X23221Y20198D1*
X23281Y20122D1*
X23441Y20046D1*
X23655Y19970D1*
X23895Y19894D1*
X22527Y20578D2*
X22524Y20502D1*
X22515Y20426D1*
X22496Y20350D1*
X22477Y20274D1*
X22463Y20198D1*
X22450Y20122D1*
X22431Y20046D1*
X22349Y19970D1*
X22227Y19894D1*
X22077Y19818D1*
X21919Y19742D1*
X23059Y20578D2*
Y20502D1*
Y20426D1*
X23062Y20350D1*
X23072Y20274D1*
X23091Y20198D1*
X23116Y20122D1*
X23146Y20046D1*
X23224Y19970D1*
X23341Y19894D1*
X23495Y19818D1*
X23667Y19742D1*
X21159Y20198D2*
X21083Y20122D1*
X21008Y20046D1*
X20935Y19970D1*
X20871Y19894D1*
X20820Y19818D1*
X20806Y19742D1*
X20832Y19666D1*
X20876Y19590D1*
X20928Y19514D1*
X20980Y19438D1*
X21034Y19362D1*
X21095Y19286D1*
X21159Y19210D1*
X21112Y19134D1*
X21068Y19058D1*
X21021Y18982D1*
X20966Y18906D1*
X20836Y18830D1*
X20667Y18754D1*
X20497Y18678D1*
X20354Y18602D1*
X20290Y18526D1*
X20267Y18450D1*
X20255Y18374D1*
X20250Y18298D1*
X20249Y18222D1*
X20255Y18146D1*
X20272Y18070D1*
X20374Y17994D1*
X20529Y17918D1*
X20700Y17842D1*
X20838Y17766D1*
X20943Y17690D1*
X20988Y17614D1*
X21025Y17538D1*
X21049Y17462D1*
X21063Y17386D1*
X21045Y17310D1*
X21015Y17234D1*
X20972Y17158D1*
X20918Y17082D1*
X20865Y17006D1*
X20818Y16930D1*
X20805Y16854D1*
X20832Y16778D1*
X20879Y16702D1*
X20942Y16626D1*
X21024Y16550D1*
X21144Y16474D1*
X21323Y16398D1*
X21539Y16322D1*
X21311Y20198D2*
X21437Y20122D1*
X21603Y20046D1*
X21821Y19970D1*
X22071Y19894D1*
X24199Y20198D2*
X24087Y20122D1*
X23925Y20046D1*
X23699Y19970D1*
X23439Y19894D1*
X24351Y20198D2*
X24439Y20122D1*
X24533Y20046D1*
X24626Y19970D1*
X24699Y19894D1*
X24753Y19818D1*
X24751Y19742D1*
X24716Y19666D1*
X24674Y19590D1*
X24625Y19514D1*
X24568Y19438D1*
X24513Y19362D1*
X24466Y19286D1*
X24452Y19210D1*
X24467Y19134D1*
X24493Y19058D1*
X24530Y18982D1*
X24576Y18906D1*
X24692Y18830D1*
X24852Y18754D1*
X25017Y18678D1*
X25157Y18602D1*
X25221Y18526D1*
X25244Y18450D1*
X25255Y18374D1*
X25260Y18298D1*
X25262Y18222D1*
X25258Y18146D1*
X25248Y18070D1*
X25185Y17994D1*
X25036Y17918D1*
X24875Y17842D1*
X24740Y17766D1*
X24646Y17690D1*
X24580Y17614D1*
X24530Y17538D1*
X24493Y17462D1*
X24466Y17386D1*
X24478Y17310D1*
X24525Y17234D1*
X24577Y17158D1*
X24628Y17082D1*
X24679Y17006D1*
X24725Y16930D1*
X24760Y16854D1*
X24744Y16778D1*
X24675Y16702D1*
X24593Y16626D1*
X24502Y16550D1*
X24386Y16474D1*
X24230Y16398D1*
X24047Y16322D1*
X21235Y20046D2*
X21159Y19970D1*
X21083Y19894D1*
X21007Y19818D1*
X20931Y19742D1*
X20981Y19666D1*
X21032Y19590D1*
X21083Y19514D1*
X21131Y19438D1*
X21171Y19362D1*
X21201Y19286D1*
X21217Y19210D1*
X21216Y19134D1*
X21199Y19058D1*
X21171Y18982D1*
X21137Y18906D1*
X21097Y18830D1*
X21041Y18754D1*
X20946Y18678D1*
X20798Y18602D1*
X20625Y18526D1*
X20483Y18450D1*
X20381Y18374D1*
X20353Y18298D1*
X20336Y18222D1*
X20446Y18146D1*
X20602Y18070D1*
X20766Y17994D1*
X20896Y17918D1*
X20985Y17842D1*
X21048Y17766D1*
X21096Y17690D1*
X21138Y17614D1*
X21174Y17538D1*
X21203Y17462D1*
X21217Y17386D1*
X21221Y17310D1*
X21188Y17234D1*
X21141Y17158D1*
X21087Y17082D1*
X21039Y17006D1*
X21002Y16930D1*
X20980Y16854D1*
X21015Y16778D1*
X21111Y16702D1*
X21239Y16626D1*
X21387Y16550D1*
X21235Y20046D2*
X21375Y19970D1*
X21508Y19894D1*
X21637Y19818D1*
X21767Y19742D1*
X24351Y20046D2*
X24202Y19970D1*
X24062Y19894D1*
X23936Y19818D1*
X23819Y19742D1*
X24199Y20046D2*
X24336Y19970D1*
X24457Y19894D1*
X24560Y19818D1*
X24655Y19742D1*
X24582Y19666D1*
X24516Y19590D1*
X24458Y19514D1*
X24405Y19438D1*
X24355Y19362D1*
X24312Y19286D1*
X24299Y19210D1*
X24315Y19134D1*
X24341Y19058D1*
X24374Y18982D1*
X24409Y18906D1*
X24448Y18830D1*
X24497Y18754D1*
X24562Y18678D1*
X24716Y18602D1*
X24888Y18526D1*
X25028Y18450D1*
X25130Y18374D1*
X25165Y18298D1*
Y18222D1*
X25107Y18146D1*
X24959Y18070D1*
X24798Y17994D1*
X24664Y17918D1*
X24570Y17842D1*
X24504Y17766D1*
X24454Y17690D1*
X24414Y17614D1*
X24384Y17538D1*
X24366Y17462D1*
X24358Y17386D1*
X24357Y17310D1*
X24368Y17234D1*
X24398Y17158D1*
X24448Y17082D1*
X24512Y17006D1*
X24582Y16930D1*
X24655Y16854D1*
X24579Y16778D1*
X24500Y16702D1*
X24412Y16626D1*
X24310Y16550D1*
X24199Y16474D1*
X22527Y19058D2*
X22390Y18982D1*
X22273Y18906D1*
X22181Y18830D1*
X22114Y18754D1*
X22062Y18678D1*
X22018Y18602D1*
X21981Y18526D1*
X21952Y18450D1*
X21935Y18374D1*
X21928Y18298D1*
X21934Y18222D1*
X21951Y18146D1*
X21973Y18070D1*
X21996Y17994D1*
X22027Y17918D1*
X22072Y17842D1*
X22136Y17766D1*
X22213Y17690D1*
X22294Y17614D1*
X22375Y17538D1*
X22314Y17462D1*
X22267Y17386D1*
X22231Y17310D1*
X22198Y17234D1*
X22163Y17158D1*
X22126Y17082D1*
X22078Y17006D1*
X22014Y16930D1*
X21875Y16854D1*
X21710Y16778D1*
X21523Y16702D1*
X21311Y16626D1*
X21083Y16550D1*
X23059Y19058D2*
X23193Y18982D1*
X23304Y18906D1*
X23384Y18830D1*
X23443Y18754D1*
X23490Y18678D1*
X23529Y18602D1*
X23558Y18526D1*
X23576Y18450D1*
X23585Y18374D1*
X23589Y18298D1*
X23590Y18222D1*
X23588Y18146D1*
X23578Y18070D1*
X23557Y17994D1*
X23525Y17918D1*
X23481Y17842D1*
X23423Y17766D1*
X23357Y17690D1*
X23285Y17614D1*
X23211Y17538D1*
X23249Y17462D1*
X23281Y17386D1*
X23313Y17310D1*
X23347Y17234D1*
X23383Y17158D1*
X23422Y17082D1*
X23471Y17006D1*
X23536Y16930D1*
X23679Y16854D1*
X23837Y16778D1*
X23981Y16702D1*
X24107Y16626D1*
X24228Y16550D1*
X24351Y16474D1*
X22679Y18982D2*
X22533Y18906D1*
X22404Y18830D1*
X22301Y18754D1*
X22222Y18678D1*
X22159Y18602D1*
X22116Y18526D1*
X22091Y18450D1*
X22080Y18374D1*
X22075Y18298D1*
Y18222D1*
X22085Y18146D1*
X22106Y18070D1*
X22140Y17994D1*
X22194Y17918D1*
X22270Y17842D1*
X22356Y17766D1*
X22443Y17690D1*
X22527Y17614D1*
X22480Y17538D1*
X22437Y17462D1*
X22396Y17386D1*
X22357Y17310D1*
X22318Y17234D1*
X22280Y17158D1*
X22242Y17082D1*
X22207Y17006D1*
X22176Y16930D1*
X22149Y16854D1*
X22122Y16778D1*
X22095Y16702D1*
X22071Y16626D1*
X22907Y18982D2*
X23044Y18906D1*
X23164Y18830D1*
X23263Y18754D1*
X23342Y18678D1*
X23402Y18602D1*
X23448Y18526D1*
X23480Y18450D1*
X23499Y18374D1*
X23506Y18298D1*
X23500Y18222D1*
X23480Y18146D1*
X23449Y18070D1*
X23404Y17994D1*
X23345Y17918D1*
X23271Y17842D1*
X23194Y17766D1*
X23123Y17690D1*
X23094Y17614D1*
X23104Y17538D1*
X23127Y17462D1*
X23158Y17386D1*
X23194Y17310D1*
X23231Y17234D1*
X23268Y17158D1*
X23306Y17082D1*
X23344Y17006D1*
X23379Y16930D1*
X23410Y16854D1*
X23439Y16778D1*
X23474Y16702D1*
X23515Y16626D1*
X21691Y16702D2*
X21614Y16626D1*
X21526Y16550D1*
X21403Y16474D1*
X21224Y16398D1*
X21007Y16322D1*
X21843Y16702D2*
X21919Y16626D1*
X23743Y16702D2*
X23667Y16626D1*
X23743Y16702D2*
X23881Y16626D1*
X24010Y16550D1*
X24147Y16474D1*
X24314Y16398D1*
X24503Y16322D1*
X30727Y33506D2*
D57*
X31164D1*
X31310Y33556D1*
X31360Y33604D1*
X31408Y33701D1*
Y33798D1*
X31360Y33895D1*
X31310Y33944D1*
X31164Y33993D1*
X30727D1*
Y32972D1*
X31068Y33506D2*
X31408Y32972D1*
X31722Y33993D2*
X32402Y32972D1*
Y33993D2*
X31722Y32972D1*
X31045Y31453D2*
Y30432D1*
X31385D1*
X31531Y30481D1*
X31629Y30578D1*
X31677Y30676D1*
X31725Y30820D1*
Y31064D1*
X31677Y31210D1*
X31629Y31307D1*
X31531Y31404D1*
X31385Y31453D1*
X31045D1*
X32039Y31257D2*
X32137Y31307D1*
X32283Y31452D1*
Y30432D1*
X30727Y28913D2*
Y27892D1*
X31068D1*
X31214Y27941D1*
X31311Y28038D1*
X31360Y28136D1*
X31408Y28280D1*
Y28524D1*
X31360Y28670D1*
X31311Y28767D1*
X31214Y28864D1*
X31068Y28913D1*
X30727D1*
X31771Y28669D2*
Y28717D1*
X31819Y28815D1*
X31868Y28863D1*
X31965Y28912D1*
X32160D1*
X32256Y28863D1*
X32304Y28815D1*
X32354Y28717D1*
Y28621D1*
X32304Y28523D1*
X32208Y28378D1*
X31722Y27892D1*
X32402D1*
X30727Y26373D2*
Y25352D1*
X31068D1*
X31214Y25401D1*
X31311Y25498D1*
X31360Y25596D1*
X31408Y25740D1*
Y25984D1*
X31360Y26130D1*
X31311Y26227D1*
X31214Y26324D1*
X31068Y26373D1*
X30727D1*
X31819Y26372D2*
X32353D1*
X32062Y25983D1*
X32208D1*
X32304Y25935D1*
X32353Y25886D1*
X32402Y25740D1*
Y25644D1*
X32353Y25498D1*
X32256Y25400D1*
X32110Y25352D1*
X31964D1*
X31819Y25400D1*
X31771Y25450D1*
X31722Y25546D1*
X30727Y23833D2*
Y22812D1*
X31068D1*
X31214Y22861D1*
X31311Y22958D1*
X31360Y23056D1*
X31408Y23200D1*
Y23444D1*
X31360Y23590D1*
X31311Y23687D1*
X31214Y23784D1*
X31068Y23833D1*
X30727D1*
X32208Y22812D2*
Y23832D1*
X31722Y23152D1*
X32450D1*
X32091Y21050D2*
X32043Y21147D1*
X31945Y21244D1*
X31849Y21293D1*
X31654D1*
X31557Y21244D1*
X31460Y21147D1*
X31411Y21050D1*
X31362Y20904D1*
Y20660D1*
X31411Y20516D1*
X31460Y20418D1*
X31557Y20321D1*
X31654Y20272D1*
X31849D1*
X31945Y20321D1*
X32043Y20418D1*
X32091Y20516D1*
Y20660D1*
X31849D1*
X31310Y18752D2*
X30825D1*
X30777Y18315D1*
X30825Y18363D1*
X30971Y18412D1*
X31116D1*
X31262Y18363D1*
X31360Y18266D1*
X31408Y18120D1*
Y18024D1*
X31360Y17878D1*
X31262Y17780D1*
X31116Y17732D1*
X30971D1*
X30825Y17780D1*
X30777Y17830D1*
X30727Y17926D1*
X31722Y18753D2*
X32110Y17732D1*
X32499Y18753D1*
X13726Y32972D2*
X13336Y33993D1*
X12947Y32972D1*
X13093Y33312D2*
X13580D1*
X14331Y33992D2*
X14185Y33943D1*
X14088Y33797D1*
X14039Y33555D1*
Y33409D1*
X14088Y33166D1*
X14185Y33020D1*
X14331Y32972D1*
X14428D1*
X14574Y33020D1*
X14670Y33166D1*
X14720Y33409D1*
Y33555D1*
X14670Y33797D1*
X14574Y33943D1*
X14428Y33992D1*
X14331D1*
X14670Y33797D2*
X14088Y33166D1*
X12947Y31453D2*
Y30432D1*
X13288D1*
X13434Y30481D1*
X13531Y30578D1*
X13580Y30676D1*
X13628Y30820D1*
Y31064D1*
X13580Y31210D1*
X13531Y31307D1*
X13434Y31404D1*
X13288Y31453D1*
X12947D1*
X14234Y31452D2*
X14088Y31403D1*
X13990Y31257D1*
X13942Y31015D1*
Y30869D1*
X13990Y30626D1*
X14088Y30480D1*
X14234Y30432D1*
X14330D1*
X14476Y30480D1*
X14573Y30626D1*
X14622Y30869D1*
Y31015D1*
X14573Y31257D1*
X14476Y31403D1*
X14330Y31452D1*
X14234D1*
X14573Y31257D2*
X13990Y30626D1*
X12947Y28913D2*
Y27892D1*
X13288D1*
X13434Y27941D1*
X13531Y28038D1*
X13580Y28136D1*
X13628Y28280D1*
Y28524D1*
X13580Y28670D1*
X13531Y28767D1*
X13434Y28864D1*
X13288Y28913D1*
X12947D1*
X14524Y28912D2*
X14039D1*
X13991Y28475D1*
X14039Y28523D1*
X14185Y28572D1*
X14330D1*
X14476Y28523D1*
X14574Y28426D1*
X14622Y28280D1*
Y28184D1*
X14574Y28038D1*
X14476Y27940D1*
X14330Y27892D1*
X14185D1*
X14039Y27940D1*
X13991Y27990D1*
X13942Y28086D1*
X12947Y26373D2*
Y25352D1*
X13288D1*
X13434Y25401D1*
X13531Y25498D1*
X13580Y25596D1*
X13628Y25740D1*
Y25984D1*
X13580Y26130D1*
X13531Y26227D1*
X13434Y26324D1*
X13288Y26373D1*
X12947D1*
X14524Y26227D2*
X14476Y26323D1*
X14330Y26372D1*
X14234D1*
X14088Y26323D1*
X13990Y26177D1*
X13942Y25935D1*
Y25692D1*
X13990Y25498D1*
X14088Y25400D1*
X14234Y25352D1*
X14282D1*
X14427Y25400D1*
X14524Y25498D1*
X14573Y25644D1*
Y25692D1*
X14524Y25838D1*
X14427Y25935D1*
X14282Y25983D1*
X14234D1*
X14088Y25935D1*
X13990Y25838D1*
X13942Y25692D1*
X12947Y23833D2*
Y22812D1*
X13288D1*
X13434Y22861D1*
X13531Y22958D1*
X13580Y23056D1*
X13628Y23200D1*
Y23444D1*
X13580Y23590D1*
X13531Y23687D1*
X13434Y23784D1*
X13288Y23833D1*
X12947D1*
X14136Y22812D2*
X14622Y23832D1*
X13942D1*
X13045Y18752D2*
X13578D1*
X13288Y18363D1*
X13434D1*
X13530Y18315D1*
X13578Y18266D1*
X13628Y18120D1*
Y18024D1*
X13578Y17878D1*
X13482Y17780D1*
X13336Y17732D1*
X13190D1*
X13045Y17780D1*
X12997Y17830D1*
X12947Y17926D1*
X13942Y18753D2*
X14330Y17732D1*
X14719Y18753D1*
X15130Y18752D2*
X15664D1*
X15373Y18363D1*
X15519D1*
X15615Y18315D1*
X15664Y18266D1*
X15713Y18120D1*
Y18024D1*
X15664Y17878D1*
X15567Y17780D1*
X15421Y17732D1*
X15275D1*
X15130Y17780D1*
X15082Y17830D1*
X15032Y17926D1*
X17612Y13046D2*
D17*
Y10749D1*
X18975Y13046D2*
X18755Y12937D1*
X18537Y12717D1*
X18426Y12500D1*
X18318Y12172D1*
Y11623D1*
X18426Y11297D1*
X18537Y11077D1*
X18755Y10860D1*
X18975Y10749D1*
X19412D1*
X19629Y10860D1*
X19849Y11077D1*
X19958Y11297D1*
X20066Y11623D1*
Y12172D1*
X19958Y12500D1*
X19849Y12717D1*
X19629Y12937D1*
X19412Y13046D1*
X18975D1*
X21538D2*
Y10749D1*
X20772Y13046D2*
X22303D1*
X24760Y10749D2*
X23884Y13046D1*
X23009Y10749D1*
X23338Y11515D2*
X24432D1*
X12947Y21293D2*
D57*
Y20272D1*
X13288D1*
X13434Y20321D1*
X13531Y20418D1*
X13580Y20516D1*
X13628Y20660D1*
Y20904D1*
X13580Y21050D1*
X13531Y21147D1*
X13434Y21244D1*
X13288Y21293D1*
X12947D1*
X14184Y21292D2*
X14039Y21243D1*
X13990Y21147D1*
Y21049D1*
X14039Y20952D1*
X14136Y20903D1*
X14330Y20855D1*
X14476Y20806D1*
X14573Y20709D1*
X14621Y20612D1*
Y20466D1*
X14573Y20370D1*
X14524Y20320D1*
X14378Y20272D1*
X14184D1*
X14039Y20320D1*
X13990Y20370D1*
X13942Y20466D1*
Y20612D1*
X13990Y20709D1*
X14088Y20806D1*
X14232Y20855D1*
X14427Y20903D1*
X14524Y20952D1*
X14573Y21049D1*
Y21147D1*
X14524Y21243D1*
X14378Y21292D1*
X14184D1*
M02*
