G04 DipTrace 2.4.0.2*
%INiota.GBL*%
%MOMM*%
%ADD14C,0.508*%
%ADD15C,0.305*%
%ADD16C,0.203*%
%ADD17C,0.356*%
%ADD20R,1.5X1.3*%
%ADD21R,1.5X1.5*%
%ADD22C,1.5*%
%ADD25R,2.0X2.0*%
%ADD26C,2.0*%
%ADD30C,1.0*%
%FSLAX53Y53*%
G04*
G71*
G90*
G75*
G01*
%LNBottom*%
%LPD*%
X30014Y15726D2*
D15*
X27791D1*
X20171D1*
X19486Y16411D1*
Y18266D1*
Y32871D1*
X16661Y34776D2*
D14*
X25251D1*
X30661D1*
X34141Y18266D2*
X32871D1*
X31601Y19536D1*
Y20806D1*
X30966Y21441D1*
X25886D1*
X25251Y22076D1*
Y34776D1*
X16044Y16996D2*
D15*
Y19536D1*
X28961Y29656D2*
X30371D1*
X34141Y25886D1*
Y23346D2*
X30331Y27156D1*
X28346Y19774D2*
X27791Y19219D1*
Y17626D1*
X29616Y19774D2*
X30014D1*
Y17626D1*
X11616Y40156D2*
X12551Y39221D1*
Y29696D1*
X11281Y28426D1*
X15186Y41856D2*
X13821Y40491D1*
Y25886D1*
X11281Y23346D1*
D30*
X19486Y18266D3*
Y32871D3*
Y18266D3*
X16661Y34776D3*
X30661D3*
X16044Y16996D3*
Y19536D3*
X30331Y27156D3*
X28346Y19774D3*
X29616D3*
X11616Y40156D3*
X15186Y41856D3*
X26521Y27156D3*
X22711Y19536D3*
X26521Y22711D3*
X16044Y38586D3*
X20171D3*
X26521Y32871D3*
X17631Y19536D3*
X29379Y38586D3*
X22711Y27156D3*
X17631Y32871D3*
Y16996D3*
Y27156D3*
X14456Y12551D3*
X34141D3*
X25251Y38586D3*
X22711Y13821D3*
X10627Y43746D2*
D16*
X34797D1*
X10468Y43546D2*
X34952D1*
X10401Y43347D2*
X35022D1*
X10389Y43147D2*
X35035D1*
X10389Y42947D2*
X35035D1*
X10389Y42748D2*
X14963D1*
X15410D2*
X35035D1*
X10389Y42548D2*
X14567D1*
X15803D2*
X35035D1*
X10389Y42348D2*
X14395D1*
X15978D2*
X35035D1*
X10389Y42149D2*
X14300D1*
X16073D2*
X35035D1*
X10389Y41949D2*
X14256D1*
X16117D2*
X35035D1*
X10389Y41749D2*
X14259D1*
X16114D2*
X35035D1*
X10389Y41550D2*
X14059D1*
X16069D2*
X35035D1*
X10389Y41350D2*
X13859D1*
X15968D2*
X35035D1*
X10389Y41150D2*
X13660D1*
X15787D2*
X35035D1*
X10389Y40951D2*
X11144D1*
X12089D2*
X13460D1*
X15334D2*
X35035D1*
X10389Y40751D2*
X10903D1*
X12330D2*
X13298D1*
X14902D2*
X35035D1*
X10389Y40551D2*
X10770D1*
X12460D2*
X13238D1*
X14702D2*
X35035D1*
X10389Y40352D2*
X10703D1*
X12530D2*
X13234D1*
X14503D2*
X35035D1*
X10389Y40152D2*
X10681D1*
X12552D2*
X13234D1*
X14407D2*
X35035D1*
X10389Y39952D2*
X10703D1*
X12641D2*
X13234D1*
X14407D2*
X35035D1*
X10389Y39753D2*
X10776D1*
X12841D2*
X13234D1*
X14407D2*
X35035D1*
X10389Y39553D2*
X10909D1*
X13031D2*
X13234D1*
X14407D2*
X35035D1*
X10389Y39353D2*
X11160D1*
X13123D2*
X13234D1*
X14407D2*
X35035D1*
X10389Y39154D2*
X11798D1*
X14407D2*
X35035D1*
X10389Y38954D2*
X11966D1*
X14407D2*
X35035D1*
X10389Y38754D2*
X11966D1*
X14407D2*
X35035D1*
X10389Y38555D2*
X11966D1*
X14407D2*
X35035D1*
X10389Y38355D2*
X11966D1*
X14407D2*
X35035D1*
X10389Y38155D2*
X11966D1*
X14407D2*
X35035D1*
X10389Y37956D2*
X11966D1*
X14407D2*
X35035D1*
X10389Y37756D2*
X11966D1*
X14407D2*
X35035D1*
X10389Y37556D2*
X11966D1*
X14407D2*
X35035D1*
X10389Y37357D2*
X11966D1*
X14407D2*
X35035D1*
X10389Y37157D2*
X10913D1*
X11651D2*
X11966D1*
X14407D2*
X33772D1*
X34511D2*
X35035D1*
X10389Y36957D2*
X10534D1*
X14407D2*
X33395D1*
X34885D2*
X35035D1*
X14407Y36758D2*
X33198D1*
X14407Y36558D2*
X33075D1*
X14407Y36358D2*
X32998D1*
X14407Y36159D2*
X32964D1*
X14407Y35959D2*
X32960D1*
X14407Y35759D2*
X32992D1*
X14407Y35560D2*
X16168D1*
X17154D2*
X30169D1*
X31152D2*
X33062D1*
X14407Y35360D2*
X15937D1*
X31386D2*
X33179D1*
X14407Y35160D2*
X15810D1*
X31510D2*
X33366D1*
X34917D2*
X35035D1*
X14407Y34961D2*
X15747D1*
X31577D2*
X33699D1*
X34584D2*
X35035D1*
X14407Y34761D2*
X15728D1*
X31596D2*
X35035D1*
X14407Y34561D2*
X15753D1*
X31570D2*
X33630D1*
X34654D2*
X35035D1*
X14407Y34362D2*
X15826D1*
X31497D2*
X33331D1*
X14407Y34162D2*
X15962D1*
X31358D2*
X33160D1*
X14407Y33962D2*
X16226D1*
X17097D2*
X24561D1*
X25940D2*
X30223D1*
X31098D2*
X33049D1*
X14407Y33763D2*
X19264D1*
X19711D2*
X24561D1*
X25940D2*
X32986D1*
X14407Y33563D2*
X18868D1*
X20104D2*
X24561D1*
X25940D2*
X32957D1*
X14407Y33363D2*
X18696D1*
X20279D2*
X24561D1*
X25940D2*
X32967D1*
X14407Y33164D2*
X18601D1*
X20374D2*
X24561D1*
X25940D2*
X33008D1*
X14407Y32964D2*
X18557D1*
X20415D2*
X22338D1*
X23083D2*
X24561D1*
X25940D2*
X33090D1*
X14407Y32764D2*
X18557D1*
X20415D2*
X21913D1*
X23511D2*
X24561D1*
X25940D2*
X33224D1*
X14407Y32565D2*
X18604D1*
X20367D2*
X21688D1*
X23736D2*
X24561D1*
X25940D2*
X33436D1*
X34847D2*
X35035D1*
X14407Y32365D2*
X18706D1*
X20269D2*
X21535D1*
X23885D2*
X24561D1*
X25940D2*
X33890D1*
X34393D2*
X35035D1*
X14407Y32165D2*
X18884D1*
X20088D2*
X21437D1*
X23986D2*
X24561D1*
X25940D2*
X35035D1*
X14407Y31966D2*
X18899D1*
X20072D2*
X21374D1*
X24050D2*
X24561D1*
X25940D2*
X33525D1*
X34758D2*
X35035D1*
X14407Y31766D2*
X18899D1*
X20072D2*
X21342D1*
X24082D2*
X24561D1*
X25940D2*
X33274D1*
X14407Y31566D2*
X18899D1*
X20072D2*
X21339D1*
X24082D2*
X24561D1*
X25940D2*
X33122D1*
X14407Y31367D2*
X18899D1*
X20072D2*
X21367D1*
X24056D2*
X24561D1*
X25940D2*
X33027D1*
X14407Y31167D2*
X18899D1*
X20072D2*
X21427D1*
X23996D2*
X24561D1*
X25940D2*
X32973D1*
X14407Y30967D2*
X15027D1*
X17896D2*
X18899D1*
X20072D2*
X21526D1*
X23898D2*
X24561D1*
X25940D2*
X28412D1*
X29512D2*
X32957D1*
X14407Y30768D2*
X15027D1*
X17896D2*
X18899D1*
X20072D2*
X21668D1*
X23755D2*
X24561D1*
X25940D2*
X28066D1*
X29858D2*
X32973D1*
X14407Y30568D2*
X15027D1*
X17896D2*
X18899D1*
X20072D2*
X21884D1*
X23539D2*
X24561D1*
X25940D2*
X27860D1*
X30064D2*
X33027D1*
X14407Y30368D2*
X15027D1*
X17896D2*
X18899D1*
X20072D2*
X22271D1*
X23152D2*
X24561D1*
X25940D2*
X27720D1*
X30203D2*
X33122D1*
X14407Y30169D2*
X15027D1*
X17896D2*
X18899D1*
X20072D2*
X24561D1*
X25940D2*
X27622D1*
X30635D2*
X33271D1*
X14407Y29969D2*
X15027D1*
X17896D2*
X18899D1*
X20072D2*
X24561D1*
X25940D2*
X27562D1*
X30879D2*
X33519D1*
X34761D2*
X35035D1*
X14407Y29769D2*
X15027D1*
X17896D2*
X18899D1*
X20072D2*
X24561D1*
X25940D2*
X27530D1*
X31079D2*
X35035D1*
X13123Y29570D2*
X13234D1*
X14407D2*
X15027D1*
X17896D2*
X18899D1*
X20072D2*
X24561D1*
X25940D2*
X27530D1*
X31279D2*
X33902D1*
X34381D2*
X35035D1*
X13034Y29370D2*
X13234D1*
X14407D2*
X15027D1*
X17896D2*
X18899D1*
X20072D2*
X24561D1*
X25940D2*
X27555D1*
X31478D2*
X33439D1*
X34844D2*
X35035D1*
X12847Y29170D2*
X13234D1*
X14407D2*
X15027D1*
X17896D2*
X18899D1*
X20072D2*
X24561D1*
X25940D2*
X27613D1*
X31678D2*
X33227D1*
X12647Y28971D2*
X13234D1*
X14407D2*
X15027D1*
X17896D2*
X18899D1*
X20072D2*
X24561D1*
X25940D2*
X27705D1*
X31878D2*
X33090D1*
X12447Y28771D2*
X13234D1*
X14407D2*
X15027D1*
X17896D2*
X18899D1*
X20072D2*
X24561D1*
X25940D2*
X27838D1*
X30086D2*
X30436D1*
X32078D2*
X33008D1*
X12457Y28571D2*
X13234D1*
X14407D2*
X15027D1*
X17896D2*
X18899D1*
X20072D2*
X24561D1*
X25940D2*
X28034D1*
X29889D2*
X30635D1*
X32278D2*
X32967D1*
X12463Y28372D2*
X13234D1*
X14407D2*
X15027D1*
X17896D2*
X18899D1*
X20072D2*
X24561D1*
X25940D2*
X28348D1*
X29572D2*
X30835D1*
X32478D2*
X32957D1*
X12438Y28172D2*
X13234D1*
X14407D2*
X18899D1*
X20072D2*
X24561D1*
X25940D2*
X31035D1*
X32677D2*
X32986D1*
X12374Y27972D2*
X13234D1*
X14407D2*
X18899D1*
X20072D2*
X24561D1*
X25940D2*
X29900D1*
X30765D2*
X31235D1*
X32877D2*
X33049D1*
X12266Y27773D2*
X13234D1*
X14407D2*
X18899D1*
X20072D2*
X24561D1*
X25940D2*
X29636D1*
X31028D2*
X31432D1*
X12095Y27573D2*
X13234D1*
X14407D2*
X18899D1*
X20072D2*
X24561D1*
X25940D2*
X29497D1*
X31164D2*
X31631D1*
X10389Y27373D2*
X10764D1*
X11800D2*
X13234D1*
X14407D2*
X18899D1*
X20072D2*
X24561D1*
X25940D2*
X29424D1*
X31241D2*
X31831D1*
X33477D2*
X33623D1*
X34660D2*
X35035D1*
X10389Y27174D2*
X13234D1*
X14407D2*
X18899D1*
X20072D2*
X24561D1*
X25940D2*
X29398D1*
X31266D2*
X32031D1*
X33677D2*
X35035D1*
X10389Y26974D2*
X10846D1*
X11718D2*
X13234D1*
X14407D2*
X18899D1*
X20072D2*
X24561D1*
X25940D2*
X29414D1*
X31336D2*
X32231D1*
X34577D2*
X35035D1*
X10389Y26774D2*
X10509D1*
X12054D2*
X13234D1*
X14407D2*
X18899D1*
X20072D2*
X24561D1*
X25940D2*
X29481D1*
X31536D2*
X32431D1*
X34914D2*
X35035D1*
X12241Y26575D2*
X13234D1*
X14407D2*
X18899D1*
X20072D2*
X24561D1*
X25940D2*
X29605D1*
X31735D2*
X32630D1*
X12358Y26375D2*
X13234D1*
X14407D2*
X18899D1*
X20072D2*
X24561D1*
X25940D2*
X29836D1*
X31935D2*
X32830D1*
X12428Y26175D2*
X13234D1*
X14407D2*
X18899D1*
X20072D2*
X24561D1*
X25940D2*
X30489D1*
X32135D2*
X32992D1*
X12463Y25976D2*
X13089D1*
X14407D2*
X15931D1*
X16989D2*
X18899D1*
X20072D2*
X24561D1*
X25940D2*
X28431D1*
X29490D2*
X30689D1*
X32335D2*
X32960D1*
X12460Y25776D2*
X12889D1*
X14398D2*
X15578D1*
X17345D2*
X18899D1*
X20072D2*
X24561D1*
X25940D2*
X28076D1*
X29845D2*
X30889D1*
X32535D2*
X32960D1*
X12425Y25576D2*
X12689D1*
X14315D2*
X15366D1*
X17557D2*
X18899D1*
X20072D2*
X24561D1*
X25940D2*
X27866D1*
X30054D2*
X31089D1*
X32731D2*
X32998D1*
X12349Y25377D2*
X12489D1*
X14135D2*
X15223D1*
X17700D2*
X18899D1*
X20072D2*
X24561D1*
X25940D2*
X27724D1*
X30197D2*
X31289D1*
X32931D2*
X33073D1*
X13935Y25177D2*
X15125D1*
X17795D2*
X18899D1*
X20072D2*
X24561D1*
X25940D2*
X27625D1*
X30295D2*
X31489D1*
X10389Y24977D2*
X10534D1*
X13735D2*
X15065D1*
X17858D2*
X18899D1*
X20072D2*
X24561D1*
X25940D2*
X27565D1*
X30359D2*
X31688D1*
X34888D2*
X35035D1*
X10389Y24778D2*
X10906D1*
X11657D2*
X11890D1*
X13535D2*
X15033D1*
X17890D2*
X18899D1*
X20072D2*
X24561D1*
X25940D2*
X27533D1*
X30391D2*
X31888D1*
X33531D2*
X33766D1*
X34517D2*
X35035D1*
X10389Y24578D2*
X11693D1*
X13335D2*
X15030D1*
X17893D2*
X18899D1*
X20072D2*
X24561D1*
X25940D2*
X27530D1*
X30394D2*
X32088D1*
X33730D2*
X35035D1*
X10389Y24378D2*
X10722D1*
X13136D2*
X15055D1*
X17868D2*
X18899D1*
X20072D2*
X24561D1*
X25940D2*
X27555D1*
X30368D2*
X32288D1*
X34701D2*
X35035D1*
X12936Y24179D2*
X15109D1*
X17814D2*
X18899D1*
X20072D2*
X24561D1*
X25940D2*
X27609D1*
X30314D2*
X32488D1*
X12736Y23979D2*
X15198D1*
X17722D2*
X18899D1*
X20072D2*
X22401D1*
X23022D2*
X24561D1*
X25940D2*
X27698D1*
X30222D2*
X32688D1*
X12536Y23779D2*
X15331D1*
X17592D2*
X18899D1*
X20072D2*
X21935D1*
X23489D2*
X24561D1*
X25940D2*
X27831D1*
X30092D2*
X32887D1*
X12441Y23580D2*
X15525D1*
X17399D2*
X18899D1*
X20072D2*
X21700D1*
X23723D2*
X24561D1*
X25940D2*
X28025D1*
X29899D2*
X32979D1*
X12466Y23380D2*
X15832D1*
X17091D2*
X18899D1*
X20072D2*
X21545D1*
X23875D2*
X24561D1*
X25940D2*
X28333D1*
X29591D2*
X32957D1*
X12454Y23180D2*
X18899D1*
X20072D2*
X21443D1*
X23980D2*
X24561D1*
X25940D2*
X32970D1*
X12406Y22981D2*
X18899D1*
X20072D2*
X21377D1*
X24047D2*
X24561D1*
X25940D2*
X33014D1*
X12320Y22781D2*
X18899D1*
X20072D2*
X21342D1*
X24082D2*
X24561D1*
X25940D2*
X33103D1*
X12181Y22581D2*
X18899D1*
X20072D2*
X21339D1*
X24085D2*
X24561D1*
X25940D2*
X33243D1*
X10389Y22382D2*
X10608D1*
X11952D2*
X18899D1*
X20072D2*
X21364D1*
X24059D2*
X24561D1*
X25940D2*
X33468D1*
X34815D2*
X35035D1*
X10389Y22182D2*
X11246D1*
X11317D2*
X18899D1*
X20072D2*
X21421D1*
X23999D2*
X24561D1*
X26112D2*
X35035D1*
X10389Y21982D2*
X18899D1*
X20072D2*
X21516D1*
X23907D2*
X24571D1*
X31380D2*
X35035D1*
X10389Y21783D2*
X10627D1*
X11937D2*
X18899D1*
X20072D2*
X21656D1*
X23768D2*
X24631D1*
X31589D2*
X33487D1*
X34796D2*
X35035D1*
X12168Y21583D2*
X18899D1*
X20072D2*
X21865D1*
X23558D2*
X24780D1*
X31789D2*
X33252D1*
X12314Y21383D2*
X18899D1*
X20072D2*
X22227D1*
X23194D2*
X24980D1*
X31989D2*
X33109D1*
X12403Y21184D2*
X18899D1*
X20072D2*
X25180D1*
X32173D2*
X33021D1*
X12454Y20984D2*
X18899D1*
X20072D2*
X25380D1*
X32265D2*
X32970D1*
X12466Y20784D2*
X18899D1*
X20072D2*
X25744D1*
X32290D2*
X32957D1*
X12444Y20585D2*
X18899D1*
X20072D2*
X27904D1*
X28789D2*
X29173D1*
X30057D2*
X30857D1*
X32290D2*
X32979D1*
X12387Y20385D2*
X15683D1*
X16403D2*
X18899D1*
X20072D2*
X27647D1*
X30318D2*
X30911D1*
X32290D2*
X33036D1*
X12285Y20185D2*
X15379D1*
X16707D2*
X18899D1*
X20072D2*
X27511D1*
X30454D2*
X30911D1*
X32290D2*
X33135D1*
X12127Y19986D2*
X15226D1*
X16859D2*
X18899D1*
X20072D2*
X27438D1*
X30559D2*
X30911D1*
X32290D2*
X33293D1*
X10389Y19786D2*
X10700D1*
X11864D2*
X15144D1*
X16945D2*
X18899D1*
X20072D2*
X27413D1*
X30600D2*
X30911D1*
X32316D2*
X33560D1*
X34723D2*
X35035D1*
X10389Y19586D2*
X15109D1*
X16977D2*
X18899D1*
X20072D2*
X27340D1*
X30600D2*
X30911D1*
X32516D2*
X35035D1*
X12466Y19387D2*
X15122D1*
X16967D2*
X18899D1*
X20072D2*
X27229D1*
X30600D2*
X30930D1*
X32715D2*
X32957D1*
X12466Y19187D2*
X15179D1*
X16910D2*
X18899D1*
X20072D2*
X27203D1*
X30600D2*
X31010D1*
X12466Y18987D2*
X15293D1*
X16796D2*
X18899D1*
X20072D2*
X27203D1*
X30600D2*
X31184D1*
X12466Y18788D2*
X15458D1*
X16631D2*
X18715D1*
X20256D2*
X27203D1*
X30600D2*
X31384D1*
X12466Y18588D2*
X15458D1*
X16631D2*
X18611D1*
X20361D2*
X26607D1*
X31199D2*
X31584D1*
X12466Y18388D2*
X15458D1*
X16631D2*
X18560D1*
X20412D2*
X26607D1*
X31199D2*
X31784D1*
X12466Y18189D2*
X15458D1*
X16631D2*
X18554D1*
X20418D2*
X26607D1*
X31199D2*
X31983D1*
X12466Y17989D2*
X15458D1*
X16631D2*
X18595D1*
X20377D2*
X26607D1*
X31199D2*
X32183D1*
X12466Y17789D2*
X15458D1*
X16631D2*
X18687D1*
X20288D2*
X26607D1*
X31199D2*
X32383D1*
X12466Y17590D2*
X15328D1*
X16761D2*
X18852D1*
X20123D2*
X26607D1*
X31199D2*
X32957D1*
X12466Y17390D2*
X15198D1*
X16888D2*
X18899D1*
X20072D2*
X26607D1*
X31199D2*
X32957D1*
X12466Y17190D2*
X15131D1*
X16958D2*
X18899D1*
X20072D2*
X26607D1*
X31199D2*
X32957D1*
X12926Y16991D2*
X15109D1*
X16980D2*
X18899D1*
X20072D2*
X26607D1*
X31199D2*
X35035D1*
X12926Y16791D2*
X15131D1*
X16954D2*
X18899D1*
X20072D2*
X26607D1*
X31199D2*
X35035D1*
X12926Y16591D2*
X15204D1*
X16885D2*
X18899D1*
X20126D2*
X26607D1*
X31199D2*
X35035D1*
X12926Y16392D2*
X15337D1*
X16751D2*
X18899D1*
X20326D2*
X26607D1*
X31199D2*
X35035D1*
X12926Y16192D2*
X15588D1*
X16498D2*
X18944D1*
X31199D2*
X35035D1*
X12926Y15992D2*
X19083D1*
X31199D2*
X35035D1*
X12926Y15793D2*
X19283D1*
X31199D2*
X35035D1*
X12926Y15593D2*
X19483D1*
X31199D2*
X35035D1*
X12926Y15393D2*
X19683D1*
X31199D2*
X35035D1*
X12926Y15194D2*
X19956D1*
X31199D2*
X35035D1*
X12926Y14994D2*
X26607D1*
X31199D2*
X35035D1*
X12926Y14794D2*
X26607D1*
X31199D2*
X35035D1*
X12926Y14595D2*
X35035D1*
X12926Y14395D2*
X35035D1*
X12926Y14195D2*
X35035D1*
X12926Y13996D2*
X35035D1*
X12926Y13796D2*
X35035D1*
X12926Y13596D2*
X35035D1*
X12926Y13397D2*
X35035D1*
X12926Y13197D2*
X35035D1*
X12926Y12997D2*
X35035D1*
X12926Y12798D2*
X35035D1*
X12926Y12598D2*
X35035D1*
X12926Y12398D2*
X35035D1*
X12926Y12199D2*
X35035D1*
X12926Y11999D2*
X35035D1*
X12926Y11799D2*
X35035D1*
X12926Y11600D2*
X35035D1*
X12926Y11400D2*
X35035D1*
X12929Y11200D2*
X35035D1*
X12929Y11001D2*
X35032D1*
X12996Y10801D2*
X34968D1*
X13132Y10601D2*
X34832D1*
X13469Y10402D2*
X34502D1*
X33078Y19431D2*
X35054D1*
X35056Y20085D1*
X34951Y19969D1*
X34827Y19865D1*
X34689Y19779D1*
X34541Y19713D1*
X34385Y19668D1*
X34225Y19645D1*
X34063Y19644D1*
X33902Y19667D1*
X33746Y19711D1*
X33597Y19777D1*
X33459Y19862D1*
X33335Y19966D1*
X33226Y20086D1*
X33135Y20221D1*
X33063Y20366D1*
X33012Y20520D1*
X32984Y20680D1*
X32977Y20842D1*
X32993Y21004D1*
X33032Y21161D1*
X33092Y21312D1*
X33173Y21453D1*
X33272Y21581D1*
X33388Y21695D1*
X33519Y21791D1*
X33662Y21868D1*
X33814Y21924D1*
X33972Y21959D1*
X34134Y21971D1*
X34296Y21961D1*
X34455Y21928D1*
X34608Y21873D1*
X34752Y21798D1*
X34884Y21704D1*
X35001Y21592D1*
X35056Y21526D1*
Y22629D1*
X34966Y22524D1*
X34810Y22393D1*
X34635Y22292D1*
X34445Y22222D1*
X34245Y22186D1*
X34042D1*
X33843Y22221D1*
X33652Y22289D1*
X33476Y22390D1*
X33320Y22520D1*
X33189Y22675D1*
X33088Y22850D1*
X33017Y23041D1*
X32982Y23240D1*
X32981Y23443D1*
X33015Y23643D1*
X33022Y23664D1*
X30437Y26249D1*
X30347Y26242D1*
X30246Y26246D1*
X30145Y26261D1*
X30047Y26287D1*
X29953Y26324D1*
X29863Y26371D1*
X29779Y26427D1*
X29701Y26493D1*
X29632Y26567D1*
X29571Y26648D1*
X29519Y26735D1*
X29478Y26828D1*
X29447Y26924D1*
X29426Y27024D1*
X29417Y27125D1*
X29419Y27226D1*
X29433Y27327D1*
X29457Y27425D1*
X29492Y27521D1*
X29538Y27611D1*
X29593Y27696D1*
X29657Y27775D1*
X29730Y27846D1*
X29810Y27908D1*
X29897Y27961D1*
X29988Y28004D1*
X30084Y28037D1*
X30183Y28059D1*
X30284Y28070D1*
X30386Y28069D1*
X30486Y28058D1*
X30585Y28035D1*
X30681Y28001D1*
X30773Y27957D1*
X30859Y27904D1*
X30938Y27841D1*
X31010Y27769D1*
X31074Y27690D1*
X31128Y27605D1*
X31173Y27514D1*
X31208Y27418D1*
X31231Y27320D1*
X31246Y27156D1*
X31240Y27052D1*
X33825Y24464D1*
X33932Y24492D1*
X34134Y24511D1*
X34336Y24494D1*
X34532Y24443D1*
X34717Y24359D1*
X34884Y24244D1*
X35028Y24101D1*
X35056Y24072D1*
Y25166D1*
X34966Y25064D1*
X34810Y24933D1*
X34635Y24832D1*
X34445Y24762D1*
X34245Y24726D1*
X34042D1*
X33843Y24761D1*
X33652Y24829D1*
X33476Y24930D1*
X33320Y25060D1*
X33189Y25215D1*
X33088Y25390D1*
X33017Y25581D1*
X32982Y25780D1*
X32981Y25983D1*
X33015Y26183D1*
X33022Y26204D1*
X30217Y29009D1*
X30149Y28888D1*
X30027Y28726D1*
X29883Y28583D1*
X29720Y28462D1*
X29542Y28366D1*
X29351Y28296D1*
X29153Y28255D1*
X28950Y28242D1*
X28748Y28258D1*
X28550Y28303D1*
X28361Y28375D1*
X28184Y28474D1*
X28023Y28598D1*
X27881Y28743D1*
X27762Y28907D1*
X27667Y29086D1*
X27599Y29277D1*
X27558Y29476D1*
X27547Y29678D1*
X27564Y29880D1*
X27611Y30078D1*
X27685Y30266D1*
X27785Y30443D1*
X27910Y30603D1*
X28056Y30743D1*
X28221Y30862D1*
X28401Y30955D1*
X28592Y31022D1*
X28791Y31061D1*
X28994Y31071D1*
X29196Y31051D1*
X29393Y31003D1*
X29581Y30928D1*
X29757Y30826D1*
X29916Y30700D1*
X30055Y30553D1*
X30172Y30387D1*
X30258Y30221D1*
X30371Y30223D1*
X30472Y30214D1*
X30570Y30187D1*
X30661Y30143D1*
X30731Y30095D1*
X31131Y29698D1*
X33825Y27005D1*
X33932Y27032D1*
X34134Y27051D1*
X34336Y27034D1*
X34532Y26983D1*
X34717Y26899D1*
X34884Y26784D1*
X35028Y26641D1*
X35056Y26609D1*
Y27704D1*
X34966Y27604D1*
X34810Y27473D1*
X34635Y27372D1*
X34445Y27302D1*
X34245Y27266D1*
X34042D1*
X33843Y27301D1*
X33652Y27369D1*
X33476Y27470D1*
X33320Y27600D1*
X33189Y27755D1*
X33088Y27930D1*
X33017Y28121D1*
X32982Y28320D1*
X32981Y28523D1*
X33015Y28723D1*
X33083Y28914D1*
X33184Y29090D1*
X33314Y29246D1*
X33468Y29377D1*
X33643Y29479D1*
X33833Y29549D1*
X34033Y29586D1*
X34236Y29587D1*
X34435Y29553D1*
X34626Y29485D1*
X34803Y29385D1*
X34959Y29256D1*
X35056Y29147D1*
Y30248D1*
X34966Y30144D1*
X34810Y30013D1*
X34635Y29912D1*
X34445Y29842D1*
X34245Y29806D1*
X34042D1*
X33843Y29841D1*
X33652Y29909D1*
X33476Y30010D1*
X33320Y30140D1*
X33189Y30295D1*
X33088Y30470D1*
X33017Y30661D1*
X32982Y30860D1*
X32981Y31063D1*
X33015Y31263D1*
X33083Y31454D1*
X33184Y31630D1*
X33314Y31786D1*
X33468Y31917D1*
X33643Y32019D1*
X33833Y32089D1*
X34033Y32126D1*
X34236Y32127D1*
X34435Y32093D1*
X34626Y32025D1*
X34803Y31925D1*
X34959Y31796D1*
X35057Y31684D1*
X35056Y32785D1*
X34966Y32684D1*
X34810Y32553D1*
X34635Y32452D1*
X34445Y32382D1*
X34245Y32346D1*
X34042D1*
X33843Y32381D1*
X33652Y32449D1*
X33476Y32550D1*
X33320Y32680D1*
X33189Y32835D1*
X33088Y33010D1*
X33017Y33201D1*
X32982Y33400D1*
X32981Y33603D1*
X33015Y33803D1*
X33083Y33994D1*
X33184Y34170D1*
X33314Y34326D1*
X33468Y34457D1*
X33643Y34559D1*
X33833Y34629D1*
X34033Y34666D1*
X34236Y34667D1*
X34435Y34633D1*
X34626Y34565D1*
X34803Y34465D1*
X34959Y34336D1*
X35057Y34224D1*
X35056Y35329D1*
X34966Y35224D1*
X34810Y35093D1*
X34635Y34992D1*
X34445Y34922D1*
X34245Y34886D1*
X34042D1*
X33843Y34921D1*
X33652Y34989D1*
X33476Y35090D1*
X33320Y35220D1*
X33189Y35375D1*
X33088Y35550D1*
X33017Y35741D1*
X32982Y35940D1*
X32981Y36143D1*
X33015Y36343D1*
X33083Y36534D1*
X33184Y36710D1*
X33314Y36866D1*
X33468Y36997D1*
X33643Y37099D1*
X33833Y37169D1*
X34033Y37206D1*
X34236Y37207D1*
X34435Y37173D1*
X34626Y37105D1*
X34803Y37005D1*
X34959Y36876D1*
X35057Y36764D1*
X35056Y42443D1*
X35053Y43231D1*
X35052Y43317D1*
X34977Y43542D1*
X34838Y43731D1*
X34648Y43869D1*
X34425Y43943D1*
X33937Y43946D1*
X11183Y43944D1*
X10996Y43942D1*
X10771Y43867D1*
X10582Y43728D1*
X10444Y43538D1*
X10370Y43315D1*
X10367Y42827D1*
Y36765D1*
X10454Y36866D1*
X10608Y36997D1*
X10783Y37099D1*
X10973Y37169D1*
X11173Y37206D1*
X11376Y37207D1*
X11575Y37173D1*
X11766Y37105D1*
X11943Y37005D1*
X11986Y36972D1*
X11984Y38987D1*
X11722Y39249D1*
X11632Y39242D1*
X11531Y39246D1*
X11430Y39261D1*
X11332Y39287D1*
X11238Y39324D1*
X11148Y39371D1*
X11064Y39427D1*
X10986Y39493D1*
X10917Y39567D1*
X10856Y39648D1*
X10804Y39735D1*
X10763Y39828D1*
X10732Y39924D1*
X10711Y40024D1*
X10702Y40125D1*
X10704Y40226D1*
X10718Y40327D1*
X10742Y40425D1*
X10777Y40521D1*
X10823Y40611D1*
X10878Y40696D1*
X10942Y40775D1*
X11015Y40846D1*
X11095Y40908D1*
X11182Y40961D1*
X11273Y41004D1*
X11369Y41037D1*
X11468Y41059D1*
X11569Y41070D1*
X11671Y41069D1*
X11771Y41058D1*
X11870Y41035D1*
X11966Y41001D1*
X12058Y40957D1*
X12144Y40904D1*
X12223Y40841D1*
X12295Y40769D1*
X12359Y40690D1*
X12413Y40605D1*
X12458Y40514D1*
X12493Y40418D1*
X12516Y40320D1*
X12531Y40156D1*
X12525Y40052D1*
X12952Y39622D1*
X13017Y39544D1*
X13067Y39456D1*
X13101Y39361D1*
X13116Y39277D1*
X13118Y38714D1*
Y29696D1*
X13109Y29595D1*
X13082Y29498D1*
X13038Y29406D1*
X12990Y29337D1*
X12593Y28936D1*
X12403Y28746D1*
X12441Y28537D1*
X12446Y28426D1*
X12428Y28224D1*
X12376Y28028D1*
X12290Y27845D1*
X12174Y27678D1*
X12031Y27535D1*
X11865Y27418D1*
X11681Y27333D1*
X11486Y27280D1*
X11284Y27262D1*
X11082Y27279D1*
X10886Y27331D1*
X10702Y27416D1*
X10535Y27532D1*
X10392Y27675D1*
X10367Y27703D1*
Y26609D1*
X10454Y26706D1*
X10608Y26837D1*
X10783Y26939D1*
X10973Y27009D1*
X11173Y27046D1*
X11376Y27047D1*
X11575Y27013D1*
X11766Y26945D1*
X11943Y26845D1*
X12099Y26716D1*
X12230Y26561D1*
X12333Y26386D1*
X12404Y26197D1*
X12441Y25997D1*
X12446Y25886D1*
X12428Y25684D1*
X12376Y25488D1*
X12290Y25305D1*
X12174Y25138D1*
X12031Y24995D1*
X11865Y24878D1*
X11681Y24793D1*
X11486Y24740D1*
X11284Y24722D1*
X11082Y24739D1*
X10886Y24791D1*
X10702Y24876D1*
X10535Y24992D1*
X10392Y25135D1*
X10366Y25167D1*
X10367Y24065D1*
X10454Y24166D1*
X10608Y24297D1*
X10783Y24399D1*
X10973Y24469D1*
X11173Y24506D1*
X11376Y24507D1*
X11575Y24473D1*
X11597Y24467D1*
X12675Y25542D1*
X13256Y26122D1*
X13254Y32890D1*
Y40491D1*
X13263Y40592D1*
X13290Y40690D1*
X13334Y40781D1*
X13383Y40851D1*
X13779Y41251D1*
X14279Y41751D1*
X14274Y41926D1*
X14288Y42027D1*
X14312Y42125D1*
X14347Y42221D1*
X14393Y42311D1*
X14448Y42396D1*
X14512Y42475D1*
X14585Y42546D1*
X14665Y42608D1*
X14752Y42661D1*
X14843Y42704D1*
X14939Y42737D1*
X15038Y42759D1*
X15139Y42770D1*
X15241Y42769D1*
X15341Y42758D1*
X15440Y42735D1*
X15536Y42701D1*
X15628Y42657D1*
X15714Y42604D1*
X15793Y42541D1*
X15865Y42469D1*
X15929Y42390D1*
X15983Y42305D1*
X16028Y42214D1*
X16063Y42118D1*
X16086Y42020D1*
X16101Y41856D1*
X16095Y41755D1*
X16078Y41655D1*
X16051Y41557D1*
X16012Y41463D1*
X15964Y41374D1*
X15906Y41291D1*
X15839Y41215D1*
X15764Y41147D1*
X15681Y41087D1*
X15593Y41037D1*
X15500Y40997D1*
X15403Y40968D1*
X15303Y40949D1*
X15202Y40942D1*
X15079Y40949D1*
X14387Y40255D1*
X14388Y25886D1*
X14379Y25785D1*
X14352Y25688D1*
X14308Y25596D1*
X14260Y25527D1*
X13863Y25126D1*
X12403Y23666D1*
X12427Y23558D1*
X12446Y23356D1*
X12441Y23245D1*
X12406Y23045D1*
X12337Y22855D1*
X12236Y22679D1*
X12106Y22524D1*
X11950Y22393D1*
X11775Y22292D1*
X11585Y22222D1*
X11385Y22186D1*
X11182D1*
X10983Y22221D1*
X10792Y22289D1*
X10616Y22390D1*
X10460Y22520D1*
X10366Y22627D1*
X10367Y21528D1*
X10454Y21626D1*
X10608Y21757D1*
X10783Y21859D1*
X10973Y21929D1*
X11173Y21966D1*
X11376Y21967D1*
X11575Y21933D1*
X11766Y21865D1*
X11943Y21765D1*
X12099Y21636D1*
X12230Y21481D1*
X12333Y21306D1*
X12404Y21117D1*
X12441Y20917D1*
X12446Y20806D1*
X12428Y20604D1*
X12376Y20408D1*
X12290Y20225D1*
X12174Y20058D1*
X12031Y19915D1*
X11865Y19798D1*
X11681Y19713D1*
X11486Y19660D1*
X11284Y19642D1*
X11082Y19659D1*
X10886Y19711D1*
X10702Y19796D1*
X10535Y19912D1*
X10392Y20055D1*
X10366Y20087D1*
X10367Y19428D1*
X10827Y19431D1*
X12446D1*
Y17102D1*
X10419D1*
X10475Y17057D1*
X10534Y17038D1*
X12475Y17037D1*
X12805D1*
X12891Y16987D1*
X12907Y16935D1*
X12908Y11185D1*
X12910Y10998D1*
X12985Y10773D1*
X13124Y10584D1*
X13314Y10446D1*
X13537Y10372D1*
X14026Y10369D1*
X34240Y10368D1*
X34427Y10370D1*
X34652Y10445D1*
X34841Y10584D1*
X34979Y10774D1*
X35053Y10997D1*
X35056Y11486D1*
Y17103D1*
X32977Y17102D1*
Y17600D1*
X32871Y17598D1*
X32770Y17605D1*
X32671Y17628D1*
X32577Y17666D1*
X32490Y17717D1*
X32398Y17793D1*
X31128Y19063D1*
X31062Y19140D1*
X31009Y19226D1*
X30969Y19320D1*
X30943Y19418D1*
X30933Y19536D1*
Y20529D1*
X30691Y20771D1*
X29444Y20773D1*
X25886D1*
X25785Y20780D1*
X25686Y20803D1*
X25592Y20841D1*
X25505Y20892D1*
X25413Y20968D1*
X24778Y21603D1*
X24712Y21680D1*
X24659Y21766D1*
X24619Y21860D1*
X24593Y21958D1*
X24583Y22076D1*
Y34107D1*
X17287Y34108D1*
X17156Y34007D1*
X17068Y33957D1*
X16975Y33917D1*
X16878Y33888D1*
X16778Y33869D1*
X16677Y33862D1*
X16576Y33866D1*
X16475Y33881D1*
X16377Y33907D1*
X16283Y33944D1*
X16193Y33991D1*
X16109Y34047D1*
X16031Y34113D1*
X15962Y34187D1*
X15901Y34268D1*
X15849Y34355D1*
X15808Y34448D1*
X15777Y34544D1*
X15756Y34644D1*
X15747Y34745D1*
X15749Y34846D1*
X15763Y34947D1*
X15787Y35045D1*
X15822Y35141D1*
X15868Y35231D1*
X15923Y35316D1*
X15987Y35395D1*
X16060Y35466D1*
X16140Y35528D1*
X16227Y35581D1*
X16318Y35624D1*
X16414Y35657D1*
X16513Y35679D1*
X16614Y35690D1*
X16716Y35689D1*
X16816Y35678D1*
X16915Y35655D1*
X17011Y35621D1*
X17103Y35577D1*
X17189Y35524D1*
X17284Y35445D1*
X30038D1*
X30140Y35528D1*
X30227Y35581D1*
X30318Y35624D1*
X30414Y35657D1*
X30513Y35679D1*
X30614Y35690D1*
X30716Y35689D1*
X30816Y35678D1*
X30915Y35655D1*
X31011Y35621D1*
X31103Y35577D1*
X31189Y35524D1*
X31268Y35461D1*
X31340Y35389D1*
X31404Y35310D1*
X31458Y35225D1*
X31503Y35134D1*
X31538Y35038D1*
X31561Y34940D1*
X31576Y34776D1*
X31570Y34675D1*
X31553Y34575D1*
X31526Y34477D1*
X31487Y34383D1*
X31439Y34294D1*
X31381Y34211D1*
X31314Y34135D1*
X31239Y34067D1*
X31156Y34007D1*
X31068Y33957D1*
X30975Y33917D1*
X30878Y33888D1*
X30778Y33869D1*
X30677Y33862D1*
X30576Y33866D1*
X30475Y33881D1*
X30377Y33907D1*
X30283Y33944D1*
X30193Y33991D1*
X30109Y34047D1*
X30039Y34107D1*
X25919Y34108D1*
X25920Y22352D1*
X26161Y22112D1*
X27409Y22110D1*
X30966D1*
X31067Y22102D1*
X31166Y22079D1*
X31260Y22042D1*
X31348Y21990D1*
X31439Y21914D1*
X32074Y21279D1*
X32140Y21202D1*
X32194Y21116D1*
X32234Y21023D1*
X32259Y20925D1*
X32270Y20806D1*
Y19813D1*
X32978Y19105D1*
X32977Y19431D1*
X33078D1*
X31175Y16791D2*
X31178Y16588D1*
Y14662D1*
X28849Y14665D1*
X28651Y14662D1*
X26627D1*
Y15160D1*
X20171Y15159D1*
X20070Y15168D1*
X19973Y15195D1*
X19881Y15239D1*
X19812Y15288D1*
X19411Y15684D1*
X19085Y16010D1*
X19020Y16088D1*
X18970Y16176D1*
X18937Y16272D1*
X18922Y16356D1*
X18919Y16919D1*
Y17550D1*
X18856Y17603D1*
X18787Y17677D1*
X18726Y17758D1*
X18674Y17845D1*
X18633Y17938D1*
X18602Y18034D1*
X18581Y18134D1*
X18572Y18235D1*
X18574Y18336D1*
X18588Y18437D1*
X18612Y18535D1*
X18647Y18631D1*
X18693Y18721D1*
X18748Y18806D1*
X18812Y18885D1*
X18918Y18981D1*
X18919Y21920D1*
Y32156D1*
X18856Y32208D1*
X18787Y32282D1*
X18726Y32363D1*
X18674Y32450D1*
X18633Y32543D1*
X18602Y32639D1*
X18581Y32739D1*
X18572Y32840D1*
X18574Y32941D1*
X18588Y33042D1*
X18612Y33140D1*
X18647Y33236D1*
X18693Y33326D1*
X18748Y33411D1*
X18812Y33490D1*
X18885Y33561D1*
X18965Y33623D1*
X19052Y33676D1*
X19143Y33719D1*
X19239Y33752D1*
X19338Y33774D1*
X19439Y33785D1*
X19541Y33784D1*
X19641Y33773D1*
X19740Y33750D1*
X19836Y33716D1*
X19928Y33672D1*
X20014Y33619D1*
X20093Y33556D1*
X20165Y33484D1*
X20229Y33405D1*
X20283Y33320D1*
X20328Y33229D1*
X20363Y33133D1*
X20386Y33035D1*
X20401Y32871D1*
X20395Y32770D1*
X20378Y32670D1*
X20351Y32572D1*
X20312Y32478D1*
X20264Y32389D1*
X20206Y32306D1*
X20139Y32230D1*
X20051Y32153D1*
X20053Y31247D1*
Y18982D1*
X20165Y18879D1*
X20229Y18800D1*
X20283Y18715D1*
X20328Y18624D1*
X20363Y18528D1*
X20386Y18430D1*
X20401Y18266D1*
X20395Y18165D1*
X20378Y18065D1*
X20351Y17967D1*
X20312Y17873D1*
X20264Y17784D1*
X20206Y17701D1*
X20139Y17625D1*
X20051Y17548D1*
X20053Y16645D1*
X20405Y16294D1*
X26626Y16293D1*
X26630Y16791D1*
X26627Y16866D1*
Y18691D1*
X27226D1*
X27224Y19219D1*
X27233Y19320D1*
X27260Y19417D1*
X27304Y19509D1*
X27353Y19578D1*
X27437Y19667D1*
X27434Y19844D1*
X27448Y19944D1*
X27472Y20043D1*
X27507Y20138D1*
X27553Y20229D1*
X27608Y20314D1*
X27672Y20392D1*
X27745Y20463D1*
X27825Y20525D1*
X27912Y20578D1*
X28003Y20622D1*
X28099Y20654D1*
X28198Y20676D1*
X28299Y20687D1*
X28401D1*
X28501Y20675D1*
X28600Y20652D1*
X28696Y20619D1*
X28788Y20575D1*
X28874Y20521D1*
X28982Y20429D1*
X29095Y20525D1*
X29182Y20578D1*
X29273Y20622D1*
X29369Y20654D1*
X29468Y20676D1*
X29569Y20687D1*
X29671D1*
X29771Y20675D1*
X29870Y20652D1*
X29966Y20619D1*
X30058Y20575D1*
X30144Y20521D1*
X30223Y20458D1*
X30295Y20387D1*
X30359Y20308D1*
X30413Y20222D1*
X30470Y20110D1*
X30523Y20024D1*
X30559Y19929D1*
X30581Y19774D1*
Y18692D1*
X31178Y18691D1*
X31175Y16562D1*
X15148Y31071D2*
X17876D1*
Y28242D1*
X15047D1*
Y31071D1*
X15148D1*
X17876Y24636D2*
X17864Y24474D1*
X17834Y24315D1*
X17786Y24160D1*
X17720Y24011D1*
X17638Y23871D1*
X17540Y23742D1*
X17428Y23624D1*
X17304Y23520D1*
X17168Y23431D1*
X17023Y23358D1*
X16871Y23302D1*
X16713Y23264D1*
X16552Y23245D1*
X16389Y23243D1*
X16228Y23261D1*
X16070Y23297D1*
X15917Y23351D1*
X15771Y23422D1*
X15634Y23509D1*
X15508Y23611D1*
X15394Y23727D1*
X15295Y23856D1*
X15211Y23995D1*
X15143Y24142D1*
X15093Y24296D1*
X15061Y24456D1*
X15047Y24617D1*
X15052Y24779D1*
X15075Y24940D1*
X15117Y25097D1*
X15176Y25248D1*
X15253Y25391D1*
X15345Y25525D1*
X15452Y25647D1*
X15572Y25756D1*
X15704Y25851D1*
X15845Y25930D1*
X15995Y25992D1*
X16151Y26037D1*
X16312Y26063D1*
X16474Y26071D1*
X16636Y26060D1*
X16795Y26031D1*
X16951Y25984D1*
X17099Y25919D1*
X17240Y25837D1*
X17370Y25740D1*
X17488Y25629D1*
X17593Y25505D1*
X17683Y25370D1*
X17756Y25225D1*
X17813Y25073D1*
X17852Y24916D1*
X17872Y24755D1*
X17876Y24636D1*
X30376D2*
X30364Y24474D1*
X30334Y24315D1*
X30286Y24160D1*
X30220Y24011D1*
X30138Y23871D1*
X30040Y23742D1*
X29928Y23624D1*
X29804Y23520D1*
X29668Y23431D1*
X29523Y23358D1*
X29371Y23302D1*
X29213Y23264D1*
X29052Y23245D1*
X28889Y23243D1*
X28728Y23261D1*
X28570Y23297D1*
X28417Y23351D1*
X28271Y23422D1*
X28134Y23509D1*
X28008Y23611D1*
X27894Y23727D1*
X27795Y23856D1*
X27711Y23995D1*
X27643Y24142D1*
X27593Y24296D1*
X27561Y24456D1*
X27547Y24617D1*
X27552Y24779D1*
X27575Y24940D1*
X27617Y25097D1*
X27676Y25248D1*
X27753Y25391D1*
X27845Y25525D1*
X27952Y25647D1*
X28072Y25756D1*
X28204Y25851D1*
X28345Y25930D1*
X28495Y25992D1*
X28651Y26037D1*
X28812Y26063D1*
X28974Y26071D1*
X29136Y26060D1*
X29295Y26031D1*
X29451Y25984D1*
X29599Y25919D1*
X29740Y25837D1*
X29870Y25740D1*
X29988Y25629D1*
X30093Y25505D1*
X30183Y25370D1*
X30256Y25225D1*
X30313Y25073D1*
X30352Y24916D1*
X30372Y24755D1*
X30376Y24636D1*
X24062Y31555D2*
X24032Y31354D1*
X23972Y31161D1*
X23884Y30978D1*
X23770Y30810D1*
X23632Y30662D1*
X23473Y30536D1*
X23297Y30435D1*
X23108Y30361D1*
X22910Y30316D1*
X22708Y30301D1*
X22506Y30317D1*
X22308Y30363D1*
X22120Y30437D1*
X21944Y30539D1*
X21786Y30666D1*
X21649Y30816D1*
X21535Y30984D1*
X21448Y31167D1*
X21389Y31361D1*
X21360Y31562D1*
X21361Y31764D1*
X21392Y31965D1*
X21453Y32158D1*
X21542Y32340D1*
X21657Y32507D1*
X21796Y32655D1*
X21955Y32781D1*
X22132Y32881D1*
X22321Y32954D1*
X22519Y32997D1*
X22721Y33011D1*
X22923Y32994D1*
X23121Y32948D1*
X23309Y32872D1*
X23484Y32769D1*
X23641Y32642D1*
X23778Y32492D1*
X23891Y32323D1*
X23977Y32140D1*
X24035Y31945D1*
X24063Y31744D1*
X24062Y31555D1*
Y22555D2*
X24032Y22354D1*
X23972Y22161D1*
X23884Y21978D1*
X23770Y21810D1*
X23632Y21662D1*
X23473Y21536D1*
X23297Y21435D1*
X23108Y21361D1*
X22910Y21316D1*
X22708Y21301D1*
X22506Y21317D1*
X22308Y21363D1*
X22120Y21437D1*
X21944Y21539D1*
X21786Y21666D1*
X21649Y21816D1*
X21535Y21984D1*
X21448Y22167D1*
X21389Y22361D1*
X21360Y22562D1*
X21361Y22764D1*
X21392Y22965D1*
X21453Y23158D1*
X21542Y23340D1*
X21657Y23507D1*
X21796Y23655D1*
X21955Y23781D1*
X22132Y23881D1*
X22321Y23954D1*
X22519Y23997D1*
X22721Y24011D1*
X22923Y23994D1*
X23121Y23948D1*
X23309Y23872D1*
X23484Y23769D1*
X23641Y23642D1*
X23778Y23492D1*
X23891Y23323D1*
X23977Y23140D1*
X24035Y22945D1*
X24063Y22744D1*
X24062Y22555D1*
X18922Y17548D2*
X18856Y17603D1*
X18787Y17677D1*
X18726Y17758D1*
X18674Y17845D1*
X18633Y17938D1*
X18602Y18034D1*
X18581Y18134D1*
X18572Y18235D1*
X18574Y18336D1*
X18588Y18437D1*
X18612Y18535D1*
X18647Y18631D1*
X18693Y18721D1*
X18748Y18806D1*
X18812Y18885D1*
X18918Y18981D1*
X20051Y18984D2*
X20165Y18879D1*
X20229Y18800D1*
X20283Y18715D1*
X20328Y18624D1*
X20363Y18528D1*
X20386Y18430D1*
X20401Y18266D1*
X20395Y18165D1*
X20378Y18065D1*
X20351Y17967D1*
X20312Y17873D1*
X20264Y17784D1*
X20206Y17701D1*
X20139Y17625D1*
X20051Y17548D1*
X15477Y17716D2*
Y18820D1*
X15414Y18873D1*
X15344Y18947D1*
X15283Y19028D1*
X15232Y19115D1*
X15190Y19208D1*
X15159Y19304D1*
X15139Y19404D1*
X15130Y19505D1*
X15132Y19606D1*
X15145Y19707D1*
X15170Y19805D1*
X15205Y19901D1*
X15250Y19991D1*
X15306Y20076D1*
X15370Y20155D1*
X15443Y20226D1*
X15523Y20288D1*
X15609Y20341D1*
X15701Y20384D1*
X15797Y20417D1*
X15896Y20439D1*
X15997Y20450D1*
X16098Y20449D1*
X16199Y20438D1*
X16298Y20415D1*
X16394Y20381D1*
X16485Y20337D1*
X16571Y20284D1*
X16651Y20221D1*
X16723Y20149D1*
X16786Y20070D1*
X16841Y19985D1*
X16886Y19894D1*
X16920Y19798D1*
X16944Y19700D1*
X16958Y19536D1*
X16953Y19435D1*
X16936Y19335D1*
X16908Y19237D1*
X16870Y19143D1*
X16821Y19054D1*
X16763Y18971D1*
X16696Y18895D1*
X16608Y18818D1*
X16611Y17912D1*
Y17712D1*
X16723Y17609D1*
X16786Y17530D1*
X16841Y17445D1*
X16886Y17354D1*
X16920Y17258D1*
X16944Y17160D1*
X16958Y16996D1*
X16953Y16895D1*
X16936Y16795D1*
X16908Y16697D1*
X16870Y16603D1*
X16821Y16514D1*
X16763Y16431D1*
X16696Y16355D1*
X16621Y16287D1*
X16539Y16227D1*
X16451Y16177D1*
X16357Y16137D1*
X16260Y16108D1*
X16161Y16089D1*
X16059Y16082D1*
X15958Y16086D1*
X15858Y16101D1*
X15760Y16127D1*
X15665Y16164D1*
X15575Y16211D1*
X15491Y16267D1*
X15414Y16333D1*
X15344Y16407D1*
X15283Y16488D1*
X15232Y16575D1*
X15190Y16668D1*
X15159Y16764D1*
X15139Y16864D1*
X15130Y16965D1*
X15132Y17066D1*
X15145Y17167D1*
X15170Y17265D1*
X15205Y17361D1*
X15250Y17451D1*
X15306Y17536D1*
X15370Y17615D1*
X15475Y17711D1*
X33318Y21630D2*
D17*
X34965Y19983D1*
Y21630D2*
X33318Y19983D1*
X15461Y25656D2*
X17461Y23656D1*
Y25656D2*
X15461Y23656D1*
X27961Y25656D2*
X29961Y23656D1*
Y25656D2*
X27961Y23656D1*
D21*
X34141Y18266D3*
D22*
Y20806D3*
Y23346D3*
Y25886D3*
Y28426D3*
Y30966D3*
Y33506D3*
Y36046D3*
D21*
X11281Y18266D3*
D22*
Y20806D3*
Y23346D3*
Y25886D3*
Y28426D3*
Y30966D3*
Y33506D3*
Y36046D3*
D20*
X30014Y15726D3*
Y17626D3*
X27791Y15726D3*
Y17626D3*
D25*
X16461Y29656D3*
D26*
X28961D3*
X16461Y24656D3*
X28961D3*
M02*
