G04 DipTrace 3.0.0.2*
G04 iota.GBO*
%MOMM*%
G04 #@! TF.FileFunction,Legend,Bot*
G04 #@! TF.Part,Single*
%ADD10C,0.25*%
%ADD12C,0.076*%
%ADD60C,0.19608*%
%ADD61C,0.15686*%
%ADD62C,0.35294*%
%ADD63C,0.11765*%
%FSLAX35Y35*%
G04*
G71*
G90*
G75*
G01*
G04 BotSilk*
%LPD*%
X3541128Y1699628D2*
D10*
Y3731628D1*
X3287128Y1699628D2*
X3541128D1*
X3287128D2*
Y3731628D1*
X3541128D1*
X1255128Y1699628D2*
Y3731628D1*
X1001128Y1699628D2*
X1255128D1*
X1001128D2*
Y3731628D1*
X1255128D1*
X2979978Y2835028D2*
D12*
X3025578D1*
X2965167Y2827428D2*
X3028755D1*
X2341578Y2819828D2*
D3*
X2668378D2*
X2774778D1*
X2952352D2*
X3032966D1*
X2341578Y2812228D2*
D3*
X2402378D2*
D3*
X2641616D2*
X2794260D1*
X2946310D2*
X2979978D1*
X3025608D2*
X3038049D1*
X2341578Y2804628D2*
D3*
X2398606D2*
X2409978D1*
X2616770D2*
X2812777D1*
X2944460D2*
X2972378D1*
X3025875D2*
X3042692D1*
X2341578Y2797028D2*
X2349178D1*
X2394430D2*
X2409978D1*
X2595617D2*
X2829417D1*
X2945686D2*
X2964778D1*
X2995178D2*
D3*
X3026814D2*
X3045678D1*
X2341578Y2789428D2*
X2352716D1*
X2390754D2*
X2409978D1*
X2579097D2*
X2843341D1*
X2947292D2*
X2995178D1*
X3028367D2*
X3047226D1*
X2341578Y2781828D2*
X2355166D1*
X2387710D2*
X2409978D1*
X2567399D2*
X2853502D1*
X2948567D2*
X2991616D1*
X3029317D2*
X3047923D1*
X2341578Y2774228D2*
X2357245D1*
X2384846D2*
X2409978D1*
X2559454D2*
X2860970D1*
X2949578D2*
X2987578D1*
X3028555D2*
X3048179D1*
X2341549Y2766628D2*
X2359619D1*
X2382418D2*
X2409978D1*
X2553758D2*
X2863024D1*
X3026313D2*
X3047991D1*
X2341252Y2759028D2*
X2362086D1*
X2380786D2*
X2409978D1*
X2549158D2*
X2861322D1*
X3023163D2*
X3046766D1*
X2340016Y2751428D2*
X2364378D1*
X2379578D2*
X2409978D1*
X2545055D2*
X2856133D1*
X3018844D2*
X3043694D1*
X2337168Y2743828D2*
X2409978D1*
X2440378D2*
X2455578D1*
X2541165D2*
X2849828D1*
X3013153D2*
X3038634D1*
X2332835Y2736228D2*
X2409978D1*
X2432778D2*
X2450866D1*
X2537598D2*
X2842808D1*
X2994120D2*
X3032009D1*
X2327297Y2728628D2*
X2446502D1*
X2534777D2*
X2835472D1*
X2965667D2*
X3023947D1*
X2320094Y2721028D2*
X2442164D1*
X2533036D2*
X2828198D1*
X2933718D2*
X3014176D1*
X2311145Y2713428D2*
X2437228D1*
X2531908D2*
X2821331D1*
X2906529D2*
X3000918D1*
X2301421Y2705828D2*
X2431022D1*
X2530558D2*
X2814623D1*
X2885543D2*
X2979011D1*
X2292220Y2698228D2*
X2423266D1*
X2528583D2*
X2807392D1*
X2868953D2*
X2944032D1*
X2283967Y2690628D2*
X2413924D1*
X2526576D2*
X2799872D1*
X2855361D2*
X2899048D1*
X2275742Y2683028D2*
X2403262D1*
X2525229D2*
X2645897D1*
X2660749D2*
X2792503D1*
X2843178D2*
X2850778D1*
X2267432Y2675428D2*
X2391339D1*
X2524517D2*
X2639598D1*
X2668022D2*
X2784649D1*
X2260035Y2667828D2*
X2378258D1*
X2524193D2*
X2634460D1*
X2674060D2*
X2776237D1*
X2253847Y2660228D2*
X2364668D1*
X2524088D2*
X2632891D1*
X2678576D2*
X2767934D1*
X2865978D2*
X2888778D1*
X2248253Y2652628D2*
X2350583D1*
X2524304D2*
X2634185D1*
X2678032D2*
X2759890D1*
X2842115D2*
X2881438D1*
X2242864Y2645028D2*
X2335214D1*
X2525224D2*
X2636056D1*
X2673566D2*
X2751799D1*
X2817189D2*
X2874575D1*
X2237819Y2637428D2*
X2318778D1*
X2526770D2*
X2637978D1*
X2668378D2*
X2742938D1*
X2791994D2*
X2868095D1*
X2232804Y2629828D2*
X2328787D1*
X2527718D2*
X2732705D1*
X2767652D2*
X2861592D1*
X2227578Y2622228D2*
X2340719D1*
X2526932D2*
X2721578D1*
X2744378D2*
X2855189D1*
X2238066Y2614628D2*
X2354518D1*
X2524496D2*
X2848917D1*
X2248932Y2607028D2*
X2369953D1*
X2520793D2*
X2842260D1*
X2260061Y2599428D2*
X2387125D1*
X2516378D2*
X2835206D1*
X2271353Y2591828D2*
X2406904D1*
X2531880D2*
X2828113D1*
X2282701Y2584228D2*
X2432731D1*
X2544785D2*
X2821583D1*
X2294090Y2576628D2*
X2467780D1*
X2555067D2*
X2815842D1*
X2305478Y2569028D2*
X2508778D1*
X2564591D2*
X2810235D1*
X2316882Y2561428D2*
X2512870D1*
X2576317D2*
X2804255D1*
X2328305Y2553828D2*
X2518287D1*
X2591770D2*
X2798537D1*
X2339978Y2546228D2*
X2524783D1*
X2610388D2*
X2793871D1*
X2352341Y2538628D2*
X2531923D1*
X2630378D2*
X2789978D1*
X2365567Y2531028D2*
X2539621D1*
X2378939Y2523428D2*
X2548441D1*
X2391938Y2515828D2*
X2559337D1*
X2405005Y2508228D2*
X2572782D1*
X2418524Y2500628D2*
X2588689D1*
X2431733Y2493028D2*
X2607681D1*
X2443547Y2485428D2*
X2630884D1*
X2453815Y2477828D2*
X2657483D1*
X2128778Y2470228D2*
D3*
X2463304D2*
X2685466D1*
X2125861Y2462628D2*
X2136378D1*
X2409978D2*
X2425178D1*
X2472272D2*
X2713978D1*
X2122358Y2455028D2*
X2137842D1*
X2406771D2*
X2435347D1*
X2480207D2*
X2705758D1*
X2118097Y2447428D2*
X2140730D1*
X2402264D2*
X2444941D1*
X2487232D2*
X2699211D1*
X2113316Y2439828D2*
X2144787D1*
X2395915D2*
X2453014D1*
X2493972D2*
X2693769D1*
X2108708Y2432228D2*
X2149065D1*
X2388187D2*
X2459538D1*
X2500230D2*
X2688372D1*
X2104423Y2424628D2*
X2153214D1*
X2380136D2*
X2465495D1*
X2505795D2*
X2682235D1*
X2100159Y2417028D2*
X2157426D1*
X2371992D2*
X2471640D1*
X2511098D2*
X2675402D1*
X2095541Y2409428D2*
X2162026D1*
X2363529D2*
X2477590D1*
X2516342D2*
X2668150D1*
X2090609Y2401828D2*
X2166951D1*
X2355005D2*
X2482769D1*
X2521108D2*
X2660693D1*
X2085971Y2394228D2*
X2171616D1*
X2347217D2*
X2487058D1*
X2525197D2*
X2653148D1*
X2081932Y2386628D2*
X2175892D1*
X2339992D2*
X2490465D1*
X2528518D2*
X2645597D1*
X2843178D2*
D3*
X2078599Y2379028D2*
X2179926D1*
X2332277D2*
X2493306D1*
X2531296D2*
X2638331D1*
X2835578D2*
D3*
X2075560Y2371428D2*
X2183816D1*
X2323939D2*
X2496305D1*
X2534045D2*
X2632266D1*
X2829182D2*
X2835578D1*
X2071845Y2363828D2*
X2187660D1*
X2315431D2*
X2499623D1*
X2536656D2*
X2627662D1*
X2823734D2*
X2832980D1*
X2067414Y2356228D2*
X2191468D1*
X2306716D2*
X2502929D1*
X2539110D2*
X2628000D1*
X2706378D2*
D3*
X2819070D2*
X2830718D1*
X1976778Y2348628D2*
X1984378D1*
X2063012D2*
X2195279D1*
X2297791D2*
X2505644D1*
X2541725D2*
X2629881D1*
X2706378D2*
X2713978D1*
X2814621D2*
X2829277D1*
X1981750Y2341028D2*
X1996667D1*
X2059100D2*
X2199074D1*
X2289022D2*
X2507343D1*
X2544315D2*
X2632572D1*
X2706378D2*
X2715153D1*
X2809706D2*
X2828533D1*
X1986791Y2333428D2*
X2008406D1*
X2056081D2*
X2202881D1*
X2280239D2*
X2508456D1*
X2547017D2*
X2635293D1*
X2706378D2*
X2717067D1*
X2804022D2*
X2828168D1*
X1991715Y2325828D2*
X2019448D1*
X2054160D2*
X2119974D1*
X2134885D2*
X2206705D1*
X2271875D2*
X2509801D1*
X2550564D2*
X2637832D1*
X2706378D2*
X2719331D1*
X2798228D2*
X2827763D1*
X1995775Y2318228D2*
X2029978D1*
X2052778D2*
X2117823D1*
X2146929D2*
X2210778D1*
X2264467D2*
X2511774D1*
X2554704D2*
X2640493D1*
X2706378D2*
X2721898D1*
X2792852D2*
X2826742D1*
X1999187Y2310628D2*
X2114886D1*
X2157045D2*
X2215541D1*
X2261627D2*
X2513781D1*
X2558386D2*
X2643072D1*
X2706378D2*
X2725393D1*
X2787620D2*
X2824903D1*
X2002942Y2303028D2*
X2111705D1*
X2165612D2*
X2221197D1*
X2263152D2*
X2515127D1*
X2561438D2*
X2645545D1*
X2706378D2*
X2729514D1*
X2782372D2*
X2822947D1*
X2888778D2*
X2896378D1*
X2007178Y2295428D2*
X2108783D1*
X2172777D2*
X2227236D1*
X2270454D2*
X2515839D1*
X2564335D2*
X2648394D1*
X2706378D2*
X2733189D1*
X2777347D2*
X2821614D1*
X2873578D2*
X2891376D1*
X1979866Y2287828D2*
X2106166D1*
X2178740D2*
X2233603D1*
X2280954D2*
X2516164D1*
X2567043D2*
X2651654D1*
X2706349D2*
X2736245D1*
X2772315D2*
X2820868D1*
X2858378D2*
X2886068D1*
X1953978Y2280228D2*
X2103478D1*
X2184174D2*
X2240950D1*
X2294118D2*
X2516298D1*
X2569791D2*
X2654970D1*
X2706081D2*
X2739177D1*
X2767357D2*
X2820378D1*
X2843178D2*
X2880176D1*
X1967336Y2272628D2*
X2100889D1*
X2189212D2*
X2249411D1*
X2309270D2*
X2516350D1*
X2573385D2*
X2657974D1*
X2705113D2*
X2741919D1*
X2763153D2*
X2874289D1*
X1977842Y2265028D2*
X2098383D1*
X2193031D2*
X2258847D1*
X2325872D2*
X2516339D1*
X2577769D2*
X2660907D1*
X2703293D2*
X2744378D1*
X2759578D2*
X2868874D1*
X1985504Y2257428D2*
X2095147D1*
X2195278D2*
X2269640D1*
X2342561D2*
X2516019D1*
X2582153D2*
X2664837D1*
X2701344D2*
X2863628D1*
X1986758Y2249828D2*
X2090975D1*
X2196386D2*
X2281463D1*
X2357780D2*
X2515220D1*
X2586118D2*
X2670240D1*
X2700013D2*
X2858374D1*
X1984517Y2242228D2*
X2080117D1*
X2196870D2*
X2293416D1*
X2370598D2*
X2510647D1*
X2589647D2*
X2676698D1*
X2699268D2*
X2853348D1*
X1981033Y2234628D2*
X2064171D1*
X2197065D2*
X2305166D1*
X2381329D2*
X2503893D1*
X2593402D2*
X2683578D1*
X2698778D2*
X2848293D1*
X1976778Y2227028D2*
X2045178D1*
X2197138D2*
X2316723D1*
X2390990D2*
X2496282D1*
X2598201D2*
X2843122D1*
X2197165Y2219428D2*
X2327928D1*
X2400010D2*
X2489002D1*
X2603490D2*
X2838129D1*
X2197174Y2211828D2*
X2338368D1*
X2407721D2*
X2482005D1*
X2608417D2*
X2833086D1*
X2197206Y2204228D2*
X2347686D1*
X2414065D2*
X2475330D1*
X2613101D2*
X2827920D1*
X2197475Y2196628D2*
X2356120D1*
X2419973D2*
X2468664D1*
X2618148D2*
X2822899D1*
X2198443Y2189028D2*
X2363835D1*
X2426349D2*
X2460795D1*
X2623924D2*
X2817589D1*
X2200264Y2181428D2*
X2370622D1*
X2433246D2*
X2451128D1*
X2630010D2*
X2811484D1*
X2202212Y2173828D2*
X2376460D1*
X2440378D2*
D3*
X2636394D2*
X2804880D1*
X2203538Y2166228D2*
X2382103D1*
X2643717D2*
X2798353D1*
X2204243Y2158628D2*
X2388118D1*
X2651914D2*
X2791953D1*
X2204565Y2151028D2*
X2394017D1*
X2660440D2*
X2784880D1*
X2204698Y2143428D2*
X2399208D1*
X2669969D2*
X2775681D1*
X1817178Y2135828D2*
X1931178D1*
X2204750D2*
X2403729D1*
X2681989D2*
X2762139D1*
X1795251Y2128228D2*
X1950767D1*
X2166778D2*
D3*
X2204768D2*
X2407864D1*
X2697131D2*
X2743254D1*
X1776690Y2120628D2*
X1967773D1*
X2162981D2*
X2166778D1*
X2204805D2*
X2411824D1*
X2713978D2*
X2721578D1*
X1761369Y2113028D2*
X1982476D1*
X2159824D2*
X2170286D1*
X2205074D2*
X2415920D1*
X1748166Y2105428D2*
X1994796D1*
X2156868D2*
X2172469D1*
X2206043D2*
X2420434D1*
X1736250Y2097828D2*
X2004756D1*
X2154132D2*
X2173574D1*
X2207864D2*
X2425098D1*
X1725520Y2090228D2*
X1872510D1*
X1914991D2*
X2012611D1*
X2151372D2*
X2174064D1*
X2209842D2*
X2429023D1*
X1715851Y2082628D2*
X1840237D1*
X1941281D2*
X2018631D1*
X2147774D2*
X2174292D1*
X2211464D2*
X2432177D1*
X1706633Y2075028D2*
X1813733D1*
X1961184D2*
X2023230D1*
X2143389D2*
X2174634D1*
X2213405D2*
X2435083D1*
X1697537Y2067428D2*
X1793166D1*
X1975758D2*
X2026498D1*
X2138974D2*
X2175630D1*
X2216516D2*
X2437538D1*
X1688960Y2059828D2*
X1777069D1*
X1981441D2*
X2028387D1*
X2134772D2*
X2177459D1*
X2220418D2*
X2439323D1*
X1681089Y2052228D2*
X1763799D1*
X1985685D2*
X2029285D1*
X2130511D2*
X2179441D1*
X2223744D2*
X2288378D1*
X2323999D2*
X2441098D1*
X1674209Y2044628D2*
X1752505D1*
X1893178D2*
X1900778D1*
X1988443D2*
X2029423D1*
X2125637D2*
X2181034D1*
X2225822D2*
X2280808D1*
X2335134D2*
X2443534D1*
X1668326Y2037028D2*
X1742885D1*
X1883244D2*
X1897270D1*
X1989920D2*
X2028618D1*
X2119711D2*
X2182708D1*
X2227123D2*
X2273475D1*
X2345133D2*
X2446594D1*
X1662664Y2029428D2*
X1734568D1*
X1875376D2*
X1895117D1*
X1988156D2*
X2026829D1*
X2112958D2*
X2184880D1*
X2228550D2*
X2266844D1*
X2354586D2*
X2449794D1*
X1656643Y2021828D2*
X1727511D1*
X1868936D2*
X1894309D1*
X1985452D2*
X2024606D1*
X2105735D2*
X2187229D1*
X2230555D2*
X2261064D1*
X2363309D2*
X2452467D1*
X1650740Y2014228D2*
X1721562D1*
X1863442D2*
X1894412D1*
X1982099D2*
X2022052D1*
X2098318D2*
X2189575D1*
X2232574D2*
X2255442D1*
X2371266D2*
X2454151D1*
X1645548Y2006628D2*
X1715877D1*
X1859436D2*
X1897803D1*
X1977941D2*
X2018561D1*
X2091013D2*
X2192119D1*
X2233925D2*
X2249457D1*
X2378404D2*
X2455259D1*
X1641028Y1999028D2*
X1709876D1*
X1857118D2*
X1902881D1*
X1972073D2*
X2014441D1*
X2084136D2*
X2194396D1*
X2234640D2*
X2243738D1*
X2384966D2*
X2456602D1*
X1636892Y1991428D2*
X1704209D1*
X1856014D2*
X1909186D1*
X1963739D2*
X2010737D1*
X2077395D2*
X2195857D1*
X2234978D2*
X2239072D1*
X2391214D2*
X2458574D1*
X1632962Y1983828D2*
X1699747D1*
X1855876D2*
X1915978D1*
X1953978D2*
X2007390D1*
X2069955D2*
X2196584D1*
X2235178D2*
D3*
X2396367D2*
X2460581D1*
X1629134Y1976228D2*
X1696345D1*
X1856518D2*
X2003259D1*
X2061971D2*
X2196658D1*
X2399529D2*
X2461957D1*
X1625558Y1968628D2*
X1693336D1*
X1861121D2*
X1997763D1*
X2054451D2*
X2195830D1*
X2400857D2*
X2462936D1*
X1622477Y1961028D2*
X1690900D1*
X1872291D2*
X1991218D1*
X2047291D2*
X2194033D1*
X2401046D2*
X2464229D1*
X1619799Y1953428D2*
X1689635D1*
X1886011D2*
X1984100D1*
X2039393D2*
X2191837D1*
X2397679D2*
X2466184D1*
X1617119Y1945828D2*
X1689851D1*
X1900778D2*
X1976778D1*
X2030357D2*
X2189550D1*
X2392294D2*
X2468184D1*
X1614789Y1938228D2*
X1691618D1*
X2020985D2*
X2186997D1*
X2384438D2*
X2469528D1*
X1613309Y1930628D2*
X1694719D1*
X2011893D2*
X2184460D1*
X2373532D2*
X2470269D1*
X1612546Y1923028D2*
X1699342D1*
X2002903D2*
X2182003D1*
X2359698D2*
X2470883D1*
X1612202Y1915428D2*
X1706060D1*
X1993832D2*
X2179130D1*
X2343427D2*
X2472192D1*
X1612062Y1907828D2*
X1714852D1*
X1984721D2*
X2175575D1*
X2324331D2*
X2474843D1*
X1612008Y1900228D2*
X1725321D1*
X1974597D2*
X2170994D1*
X2302914D2*
X2478378D1*
X1611988Y1892628D2*
X1737734D1*
X1962518D2*
X2164935D1*
X2282500D2*
X2461094D1*
X1611982Y1885028D2*
X1753249D1*
X1948391D2*
X2157264D1*
X2266723D2*
X2444089D1*
X1611979Y1877428D2*
X1772450D1*
X1931971D2*
X2148210D1*
X2254708D2*
X2427257D1*
X1611979Y1869828D2*
X1794348D1*
X1913147D2*
X2138524D1*
X2255185D2*
X2410976D1*
X1612008Y1862228D2*
X1817178D1*
X1893178D2*
X2128423D1*
X2256484D2*
X2395174D1*
X1612305Y1854628D2*
X2117292D1*
X2258350D2*
X2379578D1*
X1613570Y1847028D2*
X2105074D1*
X2260945D2*
X2385465D1*
X1616656Y1839428D2*
X2092102D1*
X2264137D2*
X2391684D1*
X1621690Y1831828D2*
X2078484D1*
X2267655D2*
X2397722D1*
X1628079Y1824228D2*
X2064646D1*
X2271319D2*
X2402985D1*
X1635411Y1816628D2*
X2050580D1*
X2274832D2*
X2407742D1*
X1643856Y1809028D2*
X2035352D1*
X2277891D2*
X2364378D1*
X2394778D2*
X2412529D1*
X1654027Y1801428D2*
X2018589D1*
X2280561D2*
X2364378D1*
X2409978D2*
X2417578D1*
X1666869Y1793828D2*
X2000567D1*
X2283268D2*
X2364378D1*
X1683671Y1786228D2*
X1980874D1*
X2285894D2*
X2318778D1*
X2335442D2*
X2364378D1*
X1705634Y1778628D2*
X1957167D1*
X2288610D2*
X2318749D1*
X2338330D2*
X2364378D1*
X1733143Y1771028D2*
X1927215D1*
X2292162D2*
X2318481D1*
X2342416D2*
X2364408D1*
X1763978Y1763428D2*
X1893178D1*
X2296304D2*
X2317513D1*
X2346932D2*
X2364675D1*
X2299986Y1755828D2*
X2315693D1*
X2351783D2*
X2365644D1*
X2303038Y1748228D2*
X2313744D1*
X2356870D2*
X2367465D1*
X2305906Y1740628D2*
X2312418D1*
X2361800D2*
X2369433D1*
X2308337Y1733028D2*
X2311712D1*
X2366773D2*
X2370874D1*
X2309970Y1725428D2*
X2311377D1*
X2371978D2*
D3*
X2311178Y1717828D2*
D3*
X2979978Y2835028D2*
X2965167Y2827428D1*
X2952352Y2819828D1*
X2946310Y2812228D1*
X2944460Y2804628D1*
X2945686Y2797028D1*
X2947292Y2789428D1*
X2948567Y2781828D1*
X2949578Y2774228D1*
X3025578Y2835028D2*
X3028755Y2827428D1*
X3032966Y2819828D1*
X3038049Y2812228D1*
X3042692Y2804628D1*
X3045678Y2797028D1*
X3047226Y2789428D1*
X3047923Y2781828D1*
X3048179Y2774228D1*
X3047991Y2766628D1*
X3046766Y2759028D1*
X3043694Y2751428D1*
X3038634Y2743828D1*
X3032009Y2736228D1*
X3023947Y2728628D1*
X3014176Y2721028D1*
X3000918Y2713428D1*
X2979011Y2705828D1*
X2944032Y2698228D1*
X2899048Y2690628D1*
X2850778Y2683028D1*
X2341578Y2819828D2*
Y2812228D1*
Y2804628D1*
Y2797028D1*
Y2789428D1*
Y2781828D1*
Y2774228D1*
X2341549Y2766628D1*
X2341252Y2759028D1*
X2340016Y2751428D1*
X2337168Y2743828D1*
X2332835Y2736228D1*
X2327297Y2728628D1*
X2320094Y2721028D1*
X2311145Y2713428D1*
X2301421Y2705828D1*
X2292220Y2698228D1*
X2283967Y2690628D1*
X2275742Y2683028D1*
X2267432Y2675428D1*
X2260035Y2667828D1*
X2253847Y2660228D1*
X2248253Y2652628D1*
X2242864Y2645028D1*
X2237819Y2637428D1*
X2232804Y2629828D1*
X2227578Y2622228D1*
X2238066Y2614628D1*
X2248932Y2607028D1*
X2260061Y2599428D1*
X2271353Y2591828D1*
X2282701Y2584228D1*
X2294090Y2576628D1*
X2305478Y2569028D1*
X2316882Y2561428D1*
X2328305Y2553828D1*
X2339978Y2546228D1*
X2352341Y2538628D1*
X2365567Y2531028D1*
X2378939Y2523428D1*
X2391938Y2515828D1*
X2405005Y2508228D1*
X2418524Y2500628D1*
X2431733Y2493028D1*
X2443547Y2485428D1*
X2453815Y2477828D1*
X2463304Y2470228D1*
X2472272Y2462628D1*
X2480207Y2455028D1*
X2487232Y2447428D1*
X2493972Y2439828D1*
X2500230Y2432228D1*
X2505795Y2424628D1*
X2511098Y2417028D1*
X2516342Y2409428D1*
X2521108Y2401828D1*
X2525197Y2394228D1*
X2528518Y2386628D1*
X2531296Y2379028D1*
X2534045Y2371428D1*
X2536656Y2363828D1*
X2539110Y2356228D1*
X2541725Y2348628D1*
X2544315Y2341028D1*
X2547017Y2333428D1*
X2550564Y2325828D1*
X2554704Y2318228D1*
X2558386Y2310628D1*
X2561438Y2303028D1*
X2564335Y2295428D1*
X2567043Y2287828D1*
X2569791Y2280228D1*
X2573385Y2272628D1*
X2577769Y2265028D1*
X2582153Y2257428D1*
X2586118Y2249828D1*
X2589647Y2242228D1*
X2593402Y2234628D1*
X2598201Y2227028D1*
X2603490Y2219428D1*
X2608417Y2211828D1*
X2613101Y2204228D1*
X2618148Y2196628D1*
X2623924Y2189028D1*
X2630010Y2181428D1*
X2636394Y2173828D1*
X2643717Y2166228D1*
X2651914Y2158628D1*
X2660440Y2151028D1*
X2669969Y2143428D1*
X2681989Y2135828D1*
X2697131Y2128228D1*
X2713978Y2120628D1*
X2668378Y2819828D2*
X2641616Y2812228D1*
X2616770Y2804628D1*
X2595617Y2797028D1*
X2579097Y2789428D1*
X2567399Y2781828D1*
X2559454Y2774228D1*
X2553758Y2766628D1*
X2549158Y2759028D1*
X2545055Y2751428D1*
X2541165Y2743828D1*
X2537598Y2736228D1*
X2534777Y2728628D1*
X2533036Y2721028D1*
X2531908Y2713428D1*
X2530558Y2705828D1*
X2528583Y2698228D1*
X2526576Y2690628D1*
X2525229Y2683028D1*
X2524517Y2675428D1*
X2524193Y2667828D1*
X2524088Y2660228D1*
X2524304Y2652628D1*
X2525224Y2645028D1*
X2526770Y2637428D1*
X2527718Y2629828D1*
X2526932Y2622228D1*
X2524496Y2614628D1*
X2520793Y2607028D1*
X2516378Y2599428D1*
X2531880Y2591828D1*
X2544785Y2584228D1*
X2555067Y2576628D1*
X2564591Y2569028D1*
X2576317Y2561428D1*
X2591770Y2553828D1*
X2610388Y2546228D1*
X2630378Y2538628D1*
X2774778Y2819828D2*
X2794260Y2812228D1*
X2812777Y2804628D1*
X2829417Y2797028D1*
X2843341Y2789428D1*
X2853502Y2781828D1*
X2860970Y2774228D1*
X2863024Y2766628D1*
X2861322Y2759028D1*
X2856133Y2751428D1*
X2849828Y2743828D1*
X2842808Y2736228D1*
X2835472Y2728628D1*
X2828198Y2721028D1*
X2821331Y2713428D1*
X2814623Y2705828D1*
X2807392Y2698228D1*
X2799872Y2690628D1*
X2792503Y2683028D1*
X2784649Y2675428D1*
X2776237Y2667828D1*
X2767934Y2660228D1*
X2759890Y2652628D1*
X2751799Y2645028D1*
X2742938Y2637428D1*
X2732705Y2629828D1*
X2721578Y2622228D1*
X2402378Y2812228D2*
X2398606Y2804628D1*
X2394430Y2797028D1*
X2390754Y2789428D1*
X2387710Y2781828D1*
X2384846Y2774228D1*
X2382418Y2766628D1*
X2380786Y2759028D1*
X2379578Y2751428D1*
X2987578Y2819828D2*
X2979978Y2812228D1*
X2972378Y2804628D1*
X2964778Y2797028D1*
X3025578Y2819828D2*
X3025608Y2812228D1*
X3025875Y2804628D1*
X3026814Y2797028D1*
X3028367Y2789428D1*
X3029317Y2781828D1*
X3028555Y2774228D1*
X3026313Y2766628D1*
X3023163Y2759028D1*
X3018844Y2751428D1*
X3013153Y2743828D1*
X2994120Y2736228D1*
X2965667Y2728628D1*
X2933718Y2721028D1*
X2906529Y2713428D1*
X2885543Y2705828D1*
X2868953Y2698228D1*
X2855361Y2690628D1*
X2843178Y2683028D1*
X2409978Y2804628D2*
Y2797028D1*
Y2789428D1*
Y2781828D1*
Y2774228D1*
Y2766628D1*
Y2759028D1*
Y2751428D1*
Y2743828D1*
Y2736228D1*
X2349178Y2797028D2*
X2352716Y2789428D1*
X2355166Y2781828D1*
X2357245Y2774228D1*
X2359619Y2766628D1*
X2362086Y2759028D1*
X2364378Y2751428D1*
X2995178Y2797028D2*
Y2789428D2*
X2991616Y2781828D1*
X2987578Y2774228D1*
X2440378Y2743828D2*
X2432778Y2736228D1*
X2455578Y2743828D2*
X2450866Y2736228D1*
X2446502Y2728628D1*
X2442164Y2721028D1*
X2437228Y2713428D1*
X2431022Y2705828D1*
X2423266Y2698228D1*
X2413924Y2690628D1*
X2403262Y2683028D1*
X2391339Y2675428D1*
X2378258Y2667828D1*
X2364668Y2660228D1*
X2350583Y2652628D1*
X2335214Y2645028D1*
X2318778Y2637428D1*
X2328787Y2629828D1*
X2340719Y2622228D1*
X2354518Y2614628D1*
X2369953Y2607028D1*
X2387125Y2599428D1*
X2406904Y2591828D1*
X2432731Y2584228D1*
X2467780Y2576628D1*
X2508778Y2569028D1*
X2512870Y2561428D1*
X2518287Y2553828D1*
X2524783Y2546228D1*
X2531923Y2538628D1*
X2539621Y2531028D1*
X2548441Y2523428D1*
X2559337Y2515828D1*
X2572782Y2508228D1*
X2588689Y2500628D1*
X2607681Y2493028D1*
X2630884Y2485428D1*
X2657483Y2477828D1*
X2685466Y2470228D1*
X2713978Y2462628D1*
X2705758Y2455028D1*
X2699211Y2447428D1*
X2693769Y2439828D1*
X2688372Y2432228D1*
X2682235Y2424628D1*
X2675402Y2417028D1*
X2668150Y2409428D1*
X2660693Y2401828D1*
X2653148Y2394228D1*
X2645597Y2386628D1*
X2638331Y2379028D1*
X2632266Y2371428D1*
X2627662Y2363828D1*
X2628000Y2356228D1*
X2629881Y2348628D1*
X2632572Y2341028D1*
X2635293Y2333428D1*
X2637832Y2325828D1*
X2640493Y2318228D1*
X2643072Y2310628D1*
X2645545Y2303028D1*
X2648394Y2295428D1*
X2651654Y2287828D1*
X2654970Y2280228D1*
X2657974Y2272628D1*
X2660907Y2265028D1*
X2664837Y2257428D1*
X2670240Y2249828D1*
X2676698Y2242228D1*
X2683578Y2234628D1*
X2653178Y2690628D2*
X2645897Y2683028D1*
X2639598Y2675428D1*
X2634460Y2667828D1*
X2632891Y2660228D1*
X2634185Y2652628D1*
X2636056Y2645028D1*
X2637978Y2637428D1*
X2653178Y2690628D2*
X2660749Y2683028D1*
X2668022Y2675428D1*
X2674060Y2667828D1*
X2678576Y2660228D1*
X2678032Y2652628D1*
X2673566Y2645028D1*
X2668378Y2637428D1*
X2865978Y2660228D2*
X2842115Y2652628D1*
X2817189Y2645028D1*
X2791994Y2637428D1*
X2767652Y2629828D1*
X2744378Y2622228D1*
X2888778Y2660228D2*
X2881438Y2652628D1*
X2874575Y2645028D1*
X2868095Y2637428D1*
X2861592Y2629828D1*
X2855189Y2622228D1*
X2848917Y2614628D1*
X2842260Y2607028D1*
X2835206Y2599428D1*
X2828113Y2591828D1*
X2821583Y2584228D1*
X2815842Y2576628D1*
X2810235Y2569028D1*
X2804255Y2561428D1*
X2798537Y2553828D1*
X2793871Y2546228D1*
X2789978Y2538628D1*
X2128778Y2470228D2*
X2125861Y2462628D1*
X2122358Y2455028D1*
X2118097Y2447428D1*
X2113316Y2439828D1*
X2108708Y2432228D1*
X2104423Y2424628D1*
X2100159Y2417028D1*
X2095541Y2409428D1*
X2090609Y2401828D1*
X2085971Y2394228D1*
X2081932Y2386628D1*
X2078599Y2379028D1*
X2075560Y2371428D1*
X2071845Y2363828D1*
X2067414Y2356228D1*
X2063012Y2348628D1*
X2059100Y2341028D1*
X2056081Y2333428D1*
X2054160Y2325828D1*
X2052778Y2318228D1*
X2136378Y2462628D2*
X2137842Y2455028D1*
X2140730Y2447428D1*
X2144787Y2439828D1*
X2149065Y2432228D1*
X2153214Y2424628D1*
X2157426Y2417028D1*
X2162026Y2409428D1*
X2166951Y2401828D1*
X2171616Y2394228D1*
X2175892Y2386628D1*
X2179926Y2379028D1*
X2183816Y2371428D1*
X2187660Y2363828D1*
X2191468Y2356228D1*
X2195279Y2348628D1*
X2199074Y2341028D1*
X2202881Y2333428D1*
X2206705Y2325828D1*
X2210778Y2318228D1*
X2215541Y2310628D1*
X2221197Y2303028D1*
X2227236Y2295428D1*
X2233603Y2287828D1*
X2240950Y2280228D1*
X2249411Y2272628D1*
X2258847Y2265028D1*
X2269640Y2257428D1*
X2281463Y2249828D1*
X2293416Y2242228D1*
X2305166Y2234628D1*
X2316723Y2227028D1*
X2327928Y2219428D1*
X2338368Y2211828D1*
X2347686Y2204228D1*
X2356120Y2196628D1*
X2363835Y2189028D1*
X2370622Y2181428D1*
X2376460Y2173828D1*
X2382103Y2166228D1*
X2388118Y2158628D1*
X2394017Y2151028D1*
X2399208Y2143428D1*
X2403729Y2135828D1*
X2407864Y2128228D1*
X2411824Y2120628D1*
X2415920Y2113028D1*
X2420434Y2105428D1*
X2425098Y2097828D1*
X2429023Y2090228D1*
X2432177Y2082628D1*
X2435083Y2075028D1*
X2437538Y2067428D1*
X2439323Y2059828D1*
X2441098Y2052228D1*
X2443534Y2044628D1*
X2446594Y2037028D1*
X2449794Y2029428D1*
X2452467Y2021828D1*
X2454151Y2014228D1*
X2455259Y2006628D1*
X2456602Y1999028D1*
X2458574Y1991428D1*
X2460581Y1983828D1*
X2461957Y1976228D1*
X2462936Y1968628D1*
X2464229Y1961028D1*
X2466184Y1953428D1*
X2468184Y1945828D1*
X2469528Y1938228D1*
X2470269Y1930628D1*
X2470883Y1923028D1*
X2472192Y1915428D1*
X2474843Y1907828D1*
X2478378Y1900228D1*
X2461094Y1892628D1*
X2444089Y1885028D1*
X2427257Y1877428D1*
X2410976Y1869828D1*
X2395174Y1862228D1*
X2379578Y1854628D1*
X2385465Y1847028D1*
X2391684Y1839428D1*
X2397722Y1831828D1*
X2402985Y1824228D1*
X2407742Y1816628D1*
X2412529Y1809028D1*
X2417578Y1801428D1*
X2409978Y2462628D2*
X2406771Y2455028D1*
X2402264Y2447428D1*
X2395915Y2439828D1*
X2388187Y2432228D1*
X2380136Y2424628D1*
X2371992Y2417028D1*
X2363529Y2409428D1*
X2355005Y2401828D1*
X2347217Y2394228D1*
X2339992Y2386628D1*
X2332277Y2379028D1*
X2323939Y2371428D1*
X2315431Y2363828D1*
X2306716Y2356228D1*
X2297791Y2348628D1*
X2289022Y2341028D1*
X2280239Y2333428D1*
X2271875Y2325828D1*
X2264467Y2318228D1*
X2261627Y2310628D1*
X2263152Y2303028D1*
X2270454Y2295428D1*
X2280954Y2287828D1*
X2294118Y2280228D1*
X2309270Y2272628D1*
X2325872Y2265028D1*
X2342561Y2257428D1*
X2357780Y2249828D1*
X2370598Y2242228D1*
X2381329Y2234628D1*
X2390990Y2227028D1*
X2400010Y2219428D1*
X2407721Y2211828D1*
X2414065Y2204228D1*
X2419973Y2196628D1*
X2426349Y2189028D1*
X2433246Y2181428D1*
X2440378Y2173828D1*
X2425178Y2462628D2*
X2435347Y2455028D1*
X2444941Y2447428D1*
X2453014Y2439828D1*
X2459538Y2432228D1*
X2465495Y2424628D1*
X2471640Y2417028D1*
X2477590Y2409428D1*
X2482769Y2401828D1*
X2487058Y2394228D1*
X2490465Y2386628D1*
X2493306Y2379028D1*
X2496305Y2371428D1*
X2499623Y2363828D1*
X2502929Y2356228D1*
X2505644Y2348628D1*
X2507343Y2341028D1*
X2508456Y2333428D1*
X2509801Y2325828D1*
X2511774Y2318228D1*
X2513781Y2310628D1*
X2515127Y2303028D1*
X2515839Y2295428D1*
X2516164Y2287828D1*
X2516298Y2280228D1*
X2516350Y2272628D1*
X2516339Y2265028D1*
X2516019Y2257428D1*
X2515220Y2249828D1*
X2510647Y2242228D1*
X2503893Y2234628D1*
X2496282Y2227028D1*
X2489002Y2219428D1*
X2482005Y2211828D1*
X2475330Y2204228D1*
X2468664Y2196628D1*
X2460795Y2189028D1*
X2451128Y2181428D1*
X2440378Y2173828D1*
X2843178Y2386628D2*
X2835578Y2379028D2*
X2829182Y2371428D1*
X2823734Y2363828D1*
X2819070Y2356228D1*
X2814621Y2348628D1*
X2809706Y2341028D1*
X2804022Y2333428D1*
X2798228Y2325828D1*
X2792852Y2318228D1*
X2787620Y2310628D1*
X2782372Y2303028D1*
X2777347Y2295428D1*
X2772315Y2287828D1*
X2767357Y2280228D1*
X2763153Y2272628D1*
X2759578Y2265028D1*
X2835578Y2371428D2*
X2832980Y2363828D1*
X2830718Y2356228D1*
X2829277Y2348628D1*
X2828533Y2341028D1*
X2828168Y2333428D1*
X2827763Y2325828D1*
X2826742Y2318228D1*
X2824903Y2310628D1*
X2822947Y2303028D1*
X2821614Y2295428D1*
X2820868Y2287828D1*
X2820378Y2280228D1*
X2706378Y2356228D2*
Y2348628D1*
Y2341028D1*
Y2333428D1*
Y2325828D1*
Y2318228D1*
Y2310628D1*
Y2303028D1*
Y2295428D1*
X2706349Y2287828D1*
X2706081Y2280228D1*
X2705113Y2272628D1*
X2703293Y2265028D1*
X2701344Y2257428D1*
X2700013Y2249828D1*
X2699268Y2242228D1*
X2698778Y2234628D1*
X1976778Y2348628D2*
X1981750Y2341028D1*
X1986791Y2333428D1*
X1991715Y2325828D1*
X1995775Y2318228D1*
X1999187Y2310628D1*
X2002942Y2303028D1*
X2007178Y2295428D1*
X1979866Y2287828D1*
X1953978Y2280228D1*
X1967336Y2272628D1*
X1977842Y2265028D1*
X1985504Y2257428D1*
X1986758Y2249828D1*
X1984517Y2242228D1*
X1981033Y2234628D1*
X1976778Y2227028D1*
X1984378Y2348628D2*
X1996667Y2341028D1*
X2008406Y2333428D1*
X2019448Y2325828D1*
X2029978Y2318228D1*
X2713978Y2348628D2*
X2715153Y2341028D1*
X2717067Y2333428D1*
X2719331Y2325828D1*
X2721898Y2318228D1*
X2725393Y2310628D1*
X2729514Y2303028D1*
X2733189Y2295428D1*
X2736245Y2287828D1*
X2739177Y2280228D1*
X2741919Y2272628D1*
X2744378Y2265028D1*
X2121178Y2333428D2*
X2119974Y2325828D1*
X2117823Y2318228D1*
X2114886Y2310628D1*
X2111705Y2303028D1*
X2108783Y2295428D1*
X2106166Y2287828D1*
X2103478Y2280228D1*
X2100889Y2272628D1*
X2098383Y2265028D1*
X2095147Y2257428D1*
X2090975Y2249828D1*
X2080117Y2242228D1*
X2064171Y2234628D1*
X2045178Y2227028D1*
X2121178Y2333428D2*
X2134885Y2325828D1*
X2146929Y2318228D1*
X2157045Y2310628D1*
X2165612Y2303028D1*
X2172777Y2295428D1*
X2178740Y2287828D1*
X2184174Y2280228D1*
X2189212Y2272628D1*
X2193031Y2265028D1*
X2195278Y2257428D1*
X2196386Y2249828D1*
X2196870Y2242228D1*
X2197065Y2234628D1*
X2197138Y2227028D1*
X2197165Y2219428D1*
X2197174Y2211828D1*
X2197206Y2204228D1*
X2197475Y2196628D1*
X2198443Y2189028D1*
X2200264Y2181428D1*
X2202212Y2173828D1*
X2203538Y2166228D1*
X2204243Y2158628D1*
X2204565Y2151028D1*
X2204698Y2143428D1*
X2204750Y2135828D1*
X2204768Y2128228D1*
X2204805Y2120628D1*
X2205074Y2113028D1*
X2206043Y2105428D1*
X2207864Y2097828D1*
X2209842Y2090228D1*
X2211464Y2082628D1*
X2213405Y2075028D1*
X2216516Y2067428D1*
X2220418Y2059828D1*
X2223744Y2052228D1*
X2225822Y2044628D1*
X2227123Y2037028D1*
X2228550Y2029428D1*
X2230555Y2021828D1*
X2232574Y2014228D1*
X2233925Y2006628D1*
X2234640Y1999028D1*
X2234978Y1991428D1*
X2235178Y1983828D1*
X2888778Y2303028D2*
X2873578Y2295428D1*
X2858378Y2287828D1*
X2843178Y2280228D1*
X2896378Y2303028D2*
X2891376Y2295428D1*
X2886068Y2287828D1*
X2880176Y2280228D1*
X2874289Y2272628D1*
X2868874Y2265028D1*
X2863628Y2257428D1*
X2858374Y2249828D1*
X2853348Y2242228D1*
X2848293Y2234628D1*
X2843122Y2227028D1*
X2838129Y2219428D1*
X2833086Y2211828D1*
X2827920Y2204228D1*
X2822899Y2196628D1*
X2817589Y2189028D1*
X2811484Y2181428D1*
X2804880Y2173828D1*
X2798353Y2166228D1*
X2791953Y2158628D1*
X2784880Y2151028D1*
X2775681Y2143428D1*
X2762139Y2135828D1*
X2743254Y2128228D1*
X2721578Y2120628D1*
X1817178Y2135828D2*
X1795251Y2128228D1*
X1776690Y2120628D1*
X1761369Y2113028D1*
X1748166Y2105428D1*
X1736250Y2097828D1*
X1725520Y2090228D1*
X1715851Y2082628D1*
X1706633Y2075028D1*
X1697537Y2067428D1*
X1688960Y2059828D1*
X1681089Y2052228D1*
X1674209Y2044628D1*
X1668326Y2037028D1*
X1662664Y2029428D1*
X1656643Y2021828D1*
X1650740Y2014228D1*
X1645548Y2006628D1*
X1641028Y1999028D1*
X1636892Y1991428D1*
X1632962Y1983828D1*
X1629134Y1976228D1*
X1625558Y1968628D1*
X1622477Y1961028D1*
X1619799Y1953428D1*
X1617119Y1945828D1*
X1614789Y1938228D1*
X1613309Y1930628D1*
X1612546Y1923028D1*
X1612202Y1915428D1*
X1612062Y1907828D1*
X1612008Y1900228D1*
X1611988Y1892628D1*
X1611982Y1885028D1*
X1611979Y1877428D1*
Y1869828D1*
X1612008Y1862228D1*
X1612305Y1854628D1*
X1613570Y1847028D1*
X1616656Y1839428D1*
X1621690Y1831828D1*
X1628079Y1824228D1*
X1635411Y1816628D1*
X1643856Y1809028D1*
X1654027Y1801428D1*
X1666869Y1793828D1*
X1683671Y1786228D1*
X1705634Y1778628D1*
X1733143Y1771028D1*
X1763978Y1763428D1*
X1931178Y2135828D2*
X1950767Y2128228D1*
X1967773Y2120628D1*
X1982476Y2113028D1*
X1994796Y2105428D1*
X2004756Y2097828D1*
X2012611Y2090228D1*
X2018631Y2082628D1*
X2023230Y2075028D1*
X2026498Y2067428D1*
X2028387Y2059828D1*
X2029285Y2052228D1*
X2029423Y2044628D1*
X2028618Y2037028D1*
X2026829Y2029428D1*
X2024606Y2021828D1*
X2022052Y2014228D1*
X2018561Y2006628D1*
X2014441Y1999028D1*
X2010737Y1991428D1*
X2007390Y1983828D1*
X2003259Y1976228D1*
X1997763Y1968628D1*
X1991218Y1961028D1*
X1984100Y1953428D1*
X1976778Y1945828D1*
X2166778Y2128228D2*
X2162981Y2120628D1*
X2159824Y2113028D1*
X2156868Y2105428D1*
X2154132Y2097828D1*
X2151372Y2090228D1*
X2147774Y2082628D1*
X2143389Y2075028D1*
X2138974Y2067428D1*
X2134772Y2059828D1*
X2130511Y2052228D1*
X2125637Y2044628D1*
X2119711Y2037028D1*
X2112958Y2029428D1*
X2105735Y2021828D1*
X2098318Y2014228D1*
X2091013Y2006628D1*
X2084136Y1999028D1*
X2077395Y1991428D1*
X2069955Y1983828D1*
X2061971Y1976228D1*
X2054451Y1968628D1*
X2047291Y1961028D1*
X2039393Y1953428D1*
X2030357Y1945828D1*
X2020985Y1938228D1*
X2011893Y1930628D1*
X2002903Y1923028D1*
X1993832Y1915428D1*
X1984721Y1907828D1*
X1974597Y1900228D1*
X1962518Y1892628D1*
X1948391Y1885028D1*
X1931971Y1877428D1*
X1913147Y1869828D1*
X1893178Y1862228D1*
X2166778Y2120628D2*
X2170286Y2113028D1*
X2172469Y2105428D1*
X2173574Y2097828D1*
X2174064Y2090228D1*
X2174292Y2082628D1*
X2174634Y2075028D1*
X2175630Y2067428D1*
X2177459Y2059828D1*
X2179441Y2052228D1*
X2181034Y2044628D1*
X2182708Y2037028D1*
X2184880Y2029428D1*
X2187229Y2021828D1*
X2189575Y2014228D1*
X2192119Y2006628D1*
X2194396Y1999028D1*
X2195857Y1991428D1*
X2196584Y1983828D1*
X2196658Y1976228D1*
X2195830Y1968628D1*
X2194033Y1961028D1*
X2191837Y1953428D1*
X2189550Y1945828D1*
X2186997Y1938228D1*
X2184460Y1930628D1*
X2182003Y1923028D1*
X2179130Y1915428D1*
X2175575Y1907828D1*
X2170994Y1900228D1*
X2164935Y1892628D1*
X2157264Y1885028D1*
X2148210Y1877428D1*
X2138524Y1869828D1*
X2128423Y1862228D1*
X2117292Y1854628D1*
X2105074Y1847028D1*
X2092102Y1839428D1*
X2078484Y1831828D1*
X2064646Y1824228D1*
X2050580Y1816628D1*
X2035352Y1809028D1*
X2018589Y1801428D1*
X2000567Y1793828D1*
X1980874Y1786228D1*
X1957167Y1778628D1*
X1927215Y1771028D1*
X1893178Y1763428D1*
X1908378Y2097828D2*
X1872510Y2090228D1*
X1840237Y2082628D1*
X1813733Y2075028D1*
X1793166Y2067428D1*
X1777069Y2059828D1*
X1763799Y2052228D1*
X1752505Y2044628D1*
X1742885Y2037028D1*
X1734568Y2029428D1*
X1727511Y2021828D1*
X1721562Y2014228D1*
X1715877Y2006628D1*
X1709876Y1999028D1*
X1704209Y1991428D1*
X1699747Y1983828D1*
X1696345Y1976228D1*
X1693336Y1968628D1*
X1690900Y1961028D1*
X1689635Y1953428D1*
X1689851Y1945828D1*
X1691618Y1938228D1*
X1694719Y1930628D1*
X1699342Y1923028D1*
X1706060Y1915428D1*
X1714852Y1907828D1*
X1725321Y1900228D1*
X1737734Y1892628D1*
X1753249Y1885028D1*
X1772450Y1877428D1*
X1794348Y1869828D1*
X1817178Y1862228D1*
X1885578Y2097828D2*
X1914991Y2090228D1*
X1941281Y2082628D1*
X1961184Y2075028D1*
X1975758Y2067428D1*
X1981441Y2059828D1*
X1985685Y2052228D1*
X1988443Y2044628D1*
X1989920Y2037028D1*
X1988156Y2029428D1*
X1985452Y2021828D1*
X1982099Y2014228D1*
X1977941Y2006628D1*
X1972073Y1999028D1*
X1963739Y1991428D1*
X1953978Y1983828D1*
X2295978Y2059828D2*
X2288378Y2052228D1*
X2280808Y2044628D1*
X2273475Y2037028D1*
X2266844Y2029428D1*
X2261064Y2021828D1*
X2255442Y2014228D1*
X2249457Y2006628D1*
X2243738Y1999028D1*
X2239072Y1991428D1*
X2235178Y1983828D1*
X2311178Y2059828D2*
X2323999Y2052228D1*
X2335134Y2044628D1*
X2345133Y2037028D1*
X2354586Y2029428D1*
X2363309Y2021828D1*
X2371266Y2014228D1*
X2378404Y2006628D1*
X2384966Y1999028D1*
X2391214Y1991428D1*
X2396367Y1983828D1*
X2399529Y1976228D1*
X2400857Y1968628D1*
X2401046Y1961028D1*
X2397679Y1953428D1*
X2392294Y1945828D1*
X2384438Y1938228D1*
X2373532Y1930628D1*
X2359698Y1923028D1*
X2343427Y1915428D1*
X2324331Y1907828D1*
X2302914Y1900228D1*
X2282500Y1892628D1*
X2266723Y1885028D1*
X2254708Y1877428D1*
X2255185Y1869828D1*
X2256484Y1862228D1*
X2258350Y1854628D1*
X2260945Y1847028D1*
X2264137Y1839428D1*
X2267655Y1831828D1*
X2271319Y1824228D1*
X2274832Y1816628D1*
X2277891Y1809028D1*
X2280561Y1801428D1*
X2283268Y1793828D1*
X2285894Y1786228D1*
X2288610Y1778628D1*
X2292162Y1771028D1*
X2296304Y1763428D1*
X2299986Y1755828D1*
X2303038Y1748228D1*
X2305906Y1740628D1*
X2308337Y1733028D1*
X2309970Y1725428D1*
X2311178Y1717828D1*
X1893178Y2044628D2*
X1883244Y2037028D1*
X1875376Y2029428D1*
X1868936Y2021828D1*
X1863442Y2014228D1*
X1859436Y2006628D1*
X1857118Y1999028D1*
X1856014Y1991428D1*
X1855876Y1983828D1*
X1856518Y1976228D1*
X1861121Y1968628D1*
X1872291Y1961028D1*
X1886011Y1953428D1*
X1900778Y1945828D1*
Y2044628D2*
X1897270Y2037028D1*
X1895117Y2029428D1*
X1894309Y2021828D1*
X1894412Y2014228D1*
X1897803Y2006628D1*
X1902881Y1999028D1*
X1909186Y1991428D1*
X1915978Y1983828D1*
X2364378Y1816628D2*
Y1809028D1*
Y1801428D1*
Y1793828D1*
Y1786228D1*
Y1778628D1*
X2364408Y1771028D1*
X2364675Y1763428D1*
X2365644Y1755828D1*
X2367465Y1748228D1*
X2369433Y1740628D1*
X2370874Y1733028D1*
X2371978Y1725428D1*
X2379578Y1816628D2*
X2394778Y1809028D1*
X2409978Y1801428D1*
X2318778Y1793828D2*
Y1786228D1*
X2318749Y1778628D1*
X2318481Y1771028D1*
X2317513Y1763428D1*
X2315693Y1755828D1*
X2313744Y1748228D1*
X2312418Y1740628D1*
X2311712Y1733028D1*
X2311377Y1725428D1*
X2311178Y1717828D1*
X2333978Y1793828D2*
X2335442Y1786228D1*
X2338330Y1778628D1*
X2342416Y1771028D1*
X2346932Y1763428D1*
X2351783Y1755828D1*
X2356870Y1748228D1*
X2361800Y1740628D1*
X2366773Y1733028D1*
X2371978Y1725428D1*
X2958959Y2121559D2*
D60*
Y2066950D1*
X2952782Y2048700D1*
X2946746Y2042523D1*
X2934673Y2036486D1*
X2922459D1*
X2910386Y2042523D1*
X2904209Y2048700D1*
X2898173Y2066950D1*
Y2121559D1*
X3025782D1*
X2958959Y2079023D2*
X3025782Y2036486D1*
X2928636Y1991094D2*
X2922599D1*
X2910386Y1985057D1*
X2904349Y1979021D1*
X2898313Y1966807D1*
Y1942521D1*
X2904349Y1930448D1*
X2910386Y1924411D1*
X2922599Y1918234D1*
X2934672D1*
X2946886Y1924411D1*
X2964996Y1936484D1*
X3025782Y1997270D1*
Y1912198D1*
X2736709Y2121559D2*
Y2066950D1*
X2730532Y2048700D1*
X2724496Y2042523D1*
X2712423Y2036486D1*
X2700209D1*
X2688136Y2042523D1*
X2681959Y2048700D1*
X2675923Y2066950D1*
Y2121559D1*
X2803532D1*
X2736709Y2079023D2*
X2803532Y2036486D1*
X2676063Y1985057D2*
Y1918375D1*
X2724636Y1954734D1*
Y1936484D1*
X2730672Y1924411D1*
X2736709Y1918375D1*
X2754959Y1912198D1*
X2767032D1*
X2785282Y1918375D1*
X2797496Y1930448D1*
X2803532Y1948697D1*
Y1966947D1*
X2797496Y1985057D1*
X2791319Y1991094D1*
X2779246Y1997270D1*
X2805634Y4225590D2*
D62*
Y3995892D1*
X2882199Y4225590D2*
X2729068D1*
X2603898Y4149024D2*
X2625630Y4138158D1*
X2647614Y4116174D1*
X2658480Y4083324D1*
Y4061592D1*
X2647614Y4028742D1*
X2625630Y4007011D1*
X2603898Y3995892D1*
X2571048D1*
X2549064Y4007011D1*
X2527332Y4028742D1*
X2516214Y4061592D1*
Y4083324D1*
X2527332Y4116174D1*
X2549064Y4138158D1*
X2571048Y4149024D1*
X2603898D1*
X2445626D2*
Y3919327D1*
Y4116174D2*
X2423641Y4137905D1*
X2401910Y4149024D1*
X2369060D1*
X2347076Y4137905D1*
X2325344Y4116174D1*
X2314226Y4083324D1*
Y4061340D1*
X2325344Y4028742D1*
X2347076Y4006758D1*
X2369060Y3995892D1*
X2401910D1*
X2423641Y4006758D1*
X2445626Y4028742D1*
X2243637Y4225590D2*
X2232772Y4214724D1*
X2221653Y4225590D1*
X2232772Y4236708D1*
X2243637Y4225590D1*
X2232772Y4149024D2*
Y3995892D1*
X2019665Y4116174D2*
X2041649Y4138158D1*
X2063633Y4149024D1*
X2096231D1*
X2118215Y4138158D1*
X2139946Y4116174D1*
X2151065Y4083324D1*
Y4061592D1*
X2139946Y4028742D1*
X2118215Y4007011D1*
X2096231Y3995892D1*
X2063633D1*
X2041649Y4007011D1*
X2019665Y4028742D1*
X1949077Y4149024D2*
Y4039608D1*
X1938211Y4007011D1*
X1916227Y3995892D1*
X1883377D1*
X1861645Y4007011D1*
X1828795Y4039608D1*
Y4149024D2*
Y3995892D1*
X1637925Y4116174D2*
X1648791Y4138158D1*
X1681641Y4149024D1*
X1714491D1*
X1747341Y4138158D1*
X1758207Y4116174D1*
X1747341Y4094442D1*
X1725357Y4083324D1*
X1670775Y4072458D1*
X1648791Y4061592D1*
X1637925Y4039608D1*
Y4028742D1*
X1648791Y4007011D1*
X1681641Y3995892D1*
X1714491D1*
X1747341Y4007011D1*
X1758207Y4028742D1*
X3206283Y1136639D2*
D63*
Y1078267D1*
X3209905Y1067402D1*
X3213527Y1063695D1*
X3220855Y1060074D1*
X3231805D1*
X3239049Y1063695D1*
X3206283Y1125689D2*
X3213527Y1132933D1*
X3220855Y1136639D1*
X3231805D1*
X3239049Y1132933D1*
X3246377Y1125689D1*
X3249999Y1114739D1*
Y1107411D1*
X3246377Y1096545D1*
X3239049Y1089217D1*
X3231805Y1085595D1*
X3220855D1*
X3213527Y1089217D1*
X3206283Y1096545D1*
X3182754Y1165783D2*
X3179132Y1162161D1*
X3175426Y1165783D1*
X3179132Y1169489D1*
X3182754Y1165783D1*
X3179132Y1140261D2*
Y1089217D1*
X3140947Y1165783D2*
Y1103789D1*
X3137325Y1092924D1*
X3129997Y1089217D1*
X3122753D1*
X3151897Y1140261D2*
X3126375D1*
X3099223Y1165783D2*
Y1089217D1*
Y1125689D2*
X3088273Y1136639D1*
X3080945Y1140261D1*
X3069995D1*
X3062751Y1136639D1*
X3059129Y1125689D1*
Y1089217D1*
X3035600Y1140261D2*
Y1103789D1*
X3031978Y1092924D1*
X3024650Y1089217D1*
X3013700D1*
X3006456Y1092924D1*
X2995506Y1103789D1*
Y1140261D2*
Y1089217D1*
X2971977Y1165783D2*
Y1089217D1*
Y1129311D2*
X2964649Y1136639D1*
X2957405Y1140261D1*
X2946455D1*
X2939211Y1136639D1*
X2931883Y1129311D1*
X2928261Y1118361D1*
Y1111117D1*
X2931883Y1100167D1*
X2939211Y1092924D1*
X2946455Y1089217D1*
X2957405D1*
X2964649Y1092924D1*
X2971977Y1100167D1*
X2901110Y1096545D2*
X2904732Y1092839D1*
X2901110Y1089217D1*
X2897404Y1092839D1*
X2901110Y1096545D1*
X2830074Y1129311D2*
X2837402Y1136639D1*
X2844730Y1140261D1*
X2855596D1*
X2862924Y1136639D1*
X2870168Y1129311D1*
X2873874Y1118361D1*
Y1111117D1*
X2870168Y1100167D1*
X2862924Y1092924D1*
X2855596Y1089217D1*
X2844730D1*
X2837402Y1092924D1*
X2830074Y1100167D1*
X2788351Y1140261D2*
X2795595Y1136639D1*
X2802923Y1129311D1*
X2806545Y1118361D1*
Y1111117D1*
X2802923Y1100167D1*
X2795595Y1092924D1*
X2788351Y1089217D1*
X2777401D1*
X2770073Y1092924D1*
X2762829Y1100167D1*
X2759123Y1111117D1*
Y1118361D1*
X2762829Y1129311D1*
X2770073Y1136639D1*
X2777401Y1140261D1*
X2788351D1*
X2735593D2*
Y1089217D1*
Y1125689D2*
X2724643Y1136639D1*
X2717315Y1140261D1*
X2706450D1*
X2699121Y1136639D1*
X2695500Y1125689D1*
Y1089217D1*
Y1125689D2*
X2684550Y1136639D1*
X2677221Y1140261D1*
X2666356D1*
X2659028Y1136639D1*
X2655321Y1125689D1*
Y1089217D1*
X2631792D2*
X2580748Y1165699D1*
X2546269Y1165783D2*
Y1103789D1*
X2542647Y1092924D1*
X2535319Y1089217D1*
X2528075D1*
X2557219Y1140261D2*
X2531697D1*
X2486352D2*
X2493596Y1136639D1*
X2500924Y1129311D1*
X2504546Y1118361D1*
Y1111117D1*
X2500924Y1100167D1*
X2493596Y1092924D1*
X2486352Y1089217D1*
X2475402D1*
X2468074Y1092924D1*
X2460830Y1100167D1*
X2457124Y1111117D1*
Y1118361D1*
X2460830Y1129311D1*
X2468074Y1136639D1*
X2475402Y1140261D1*
X2486352D1*
X2433594D2*
Y1063695D1*
Y1129311D2*
X2426266Y1136555D1*
X2419022Y1140261D1*
X2408072D1*
X2400744Y1136555D1*
X2393500Y1129311D1*
X2389794Y1118361D1*
Y1111033D1*
X2393500Y1100167D1*
X2400744Y1092839D1*
X2408072Y1089217D1*
X2419022D1*
X2426266Y1092839D1*
X2433594Y1100167D1*
X2366265Y1165783D2*
X2362643Y1162161D1*
X2358937Y1165783D1*
X2362643Y1169489D1*
X2366265Y1165783D1*
X2362643Y1140261D2*
Y1089217D1*
X2291607Y1129311D2*
X2298935Y1136639D1*
X2306263Y1140261D1*
X2317129D1*
X2324457Y1136639D1*
X2331701Y1129311D1*
X2335407Y1118361D1*
Y1111117D1*
X2331701Y1100167D1*
X2324457Y1092924D1*
X2317129Y1089217D1*
X2306263D1*
X2298935Y1092924D1*
X2291607Y1100167D1*
X2268078Y1140261D2*
Y1103789D1*
X2264456Y1092924D1*
X2257128Y1089217D1*
X2246178D1*
X2238934Y1092924D1*
X2227984Y1103789D1*
Y1140261D2*
Y1089217D1*
X2164361Y1129311D2*
X2167983Y1136639D1*
X2178933Y1140261D1*
X2189883D1*
X2200833Y1136639D1*
X2204455Y1129311D1*
X2200833Y1122067D1*
X2193505Y1118361D1*
X2175311Y1114739D1*
X2167983Y1111117D1*
X2164361Y1103789D1*
Y1100167D1*
X2167983Y1092924D1*
X2178933Y1089217D1*
X2189883D1*
X2200833Y1092924D1*
X2204455Y1100167D1*
X2122638Y1140261D2*
X2129881Y1136639D1*
X2137209Y1129311D1*
X2140831Y1118361D1*
Y1111117D1*
X2137209Y1100167D1*
X2129881Y1092924D1*
X2122638Y1089217D1*
X2111688D1*
X2104359Y1092924D1*
X2097116Y1100167D1*
X2093409Y1111117D1*
Y1118361D1*
X2097116Y1129311D1*
X2104359Y1136639D1*
X2111688Y1140261D1*
X2122638D1*
X2069880D2*
Y1089217D1*
Y1125689D2*
X2058930Y1136639D1*
X2051602Y1140261D1*
X2040736D1*
X2033408Y1136639D1*
X2029786Y1125689D1*
Y1089217D1*
X1962541Y1165783D2*
Y1089217D1*
Y1129311D2*
X1969785Y1136639D1*
X1977113Y1140261D1*
X1988063D1*
X1995307Y1136639D1*
X2002635Y1129311D1*
X2006257Y1118361D1*
Y1111117D1*
X2002635Y1100167D1*
X1995307Y1092924D1*
X1988063Y1089217D1*
X1977113D1*
X1969785Y1092924D1*
X1962541Y1100167D1*
X1939012Y1118361D2*
X1895296D1*
Y1125689D1*
X1898918Y1133017D1*
X1902540Y1136639D1*
X1909868Y1140261D1*
X1920818D1*
X1928062Y1136639D1*
X1935390Y1129311D1*
X1939012Y1118361D1*
Y1111117D1*
X1935390Y1100167D1*
X1928062Y1092924D1*
X1920818Y1089217D1*
X1909868D1*
X1902540Y1092924D1*
X1895296Y1100167D1*
X1871766Y1140261D2*
Y1089217D1*
Y1118361D2*
X1868060Y1129311D1*
X1860816Y1136639D1*
X1853488Y1140261D1*
X1842538D1*
X1819009D2*
X1804437Y1089217D1*
X1789865Y1140261D1*
X1775293Y1089217D1*
X1760721Y1140261D1*
X1737192Y1165783D2*
X1733570Y1162161D1*
X1729864Y1165783D1*
X1733570Y1169489D1*
X1737192Y1165783D1*
X1733570Y1140261D2*
Y1089217D1*
X1691762Y1165867D2*
X1688056Y1162245D1*
X1684434Y1165867D1*
X1688056Y1169489D1*
X1691762Y1165867D1*
X1688056Y1140345D2*
Y1078352D1*
X1691762Y1067402D1*
X1699006Y1063780D1*
X1706334D1*
X1620811Y1129311D2*
X1624433Y1136639D1*
X1635383Y1140261D1*
X1646333D1*
X1657283Y1136639D1*
X1660905Y1129311D1*
X1657283Y1122067D1*
X1649955Y1118361D1*
X1631761Y1114739D1*
X1624433Y1111117D1*
X1620811Y1103789D1*
Y1100167D1*
X1624433Y1092924D1*
X1635383Y1089217D1*
X1646333D1*
X1657283Y1092924D1*
X1660905Y1100167D1*
X1597282Y1089217D2*
X1546238Y1165699D1*
X1522708Y1165783D2*
X1519086Y1162161D1*
X1515380Y1165783D1*
X1519086Y1169489D1*
X1522708Y1165783D1*
X1519086Y1140261D2*
Y1089217D1*
X1473657Y1140261D2*
X1480901Y1136639D1*
X1488229Y1129311D1*
X1491851Y1118361D1*
Y1111117D1*
X1488229Y1100167D1*
X1480901Y1092924D1*
X1473657Y1089217D1*
X1462707D1*
X1455379Y1092924D1*
X1448135Y1100167D1*
X1444429Y1111117D1*
Y1118361D1*
X1448135Y1129311D1*
X1455379Y1136639D1*
X1462707Y1140261D1*
X1473657D1*
X1409950Y1165783D2*
Y1103789D1*
X1406328Y1092924D1*
X1399000Y1089217D1*
X1391756D1*
X1420900Y1140261D2*
X1395378D1*
X1324511D2*
Y1089217D1*
Y1129311D2*
X1331754Y1136639D1*
X1339082Y1140261D1*
X1349948D1*
X1357276Y1136639D1*
X1364520Y1129311D1*
X1368226Y1118361D1*
Y1111117D1*
X1364520Y1100167D1*
X1357276Y1092924D1*
X1349948Y1089217D1*
X1339082D1*
X1331754Y1092924D1*
X1324511Y1100167D1*
X3206182Y3653275D2*
D61*
Y3551187D1*
X3240211Y3653275D2*
X3172152D1*
X3140780D2*
X3072721Y3551187D1*
Y3653275D2*
X3140780Y3551187D1*
X3240211Y3350646D2*
X3196523D1*
X3181923Y3355587D1*
X3176982Y3360416D1*
X3172152Y3370075D1*
Y3379846D1*
X3176982Y3389504D1*
X3181923Y3394446D1*
X3196523Y3399275D1*
X3240211D1*
Y3297187D1*
X3206182Y3350646D2*
X3172152Y3297187D1*
X3140780Y3399275D2*
X3072721Y3297187D1*
Y3399275D2*
X3140780Y3297187D1*
X3228273Y3145275D2*
Y3043187D1*
X3194244D1*
X3179644Y3048129D1*
X3169873Y3057787D1*
X3165044Y3067558D1*
X3160215Y3082046D1*
Y3106416D1*
X3165044Y3121016D1*
X3169873Y3130675D1*
X3179644Y3140446D1*
X3194244Y3145275D1*
X3228273D1*
X3128842Y3125733D2*
X3119071Y3130675D1*
X3104471Y3145162D1*
Y3043187D1*
X3240211Y2891275D2*
Y2789187D1*
X3206182D1*
X3191582Y2794129D1*
X3181811Y2803787D1*
X3176982Y2813558D1*
X3172152Y2828046D1*
Y2852416D1*
X3176982Y2867016D1*
X3181811Y2876675D1*
X3191582Y2886446D1*
X3206182Y2891275D1*
X3240211D1*
X3135838Y2866904D2*
Y2871733D1*
X3131009Y2881504D1*
X3126180Y2886333D1*
X3116409Y2891162D1*
X3096980D1*
X3087321Y2886333D1*
X3082492Y2881504D1*
X3077551Y2871733D1*
Y2862075D1*
X3082492Y2852304D1*
X3092151Y2837816D1*
X3140780Y2789187D1*
X3072721D1*
X3240211Y2637275D2*
Y2535187D1*
X3206182D1*
X3191582Y2540129D1*
X3181811Y2549787D1*
X3176982Y2559558D1*
X3172152Y2574046D1*
Y2598416D1*
X3176982Y2613016D1*
X3181811Y2622675D1*
X3191582Y2632446D1*
X3206182Y2637275D1*
X3240211D1*
X3131009Y2637162D2*
X3077663D1*
X3106751Y2598304D1*
X3092151D1*
X3082492Y2593475D1*
X3077663Y2588646D1*
X3072721Y2574046D1*
Y2564387D1*
X3077663Y2549787D1*
X3087321Y2540016D1*
X3101921Y2535187D1*
X3116521D1*
X3131009Y2540016D1*
X3135838Y2544958D1*
X3140780Y2554616D1*
X3245040Y2383275D2*
Y2281187D1*
X3211011D1*
X3196411Y2286129D1*
X3186640Y2295787D1*
X3181811Y2305558D1*
X3176982Y2320046D1*
Y2344416D1*
X3181811Y2359016D1*
X3186640Y2368675D1*
X3196411Y2378446D1*
X3211011Y2383275D1*
X3245040D1*
X3096980Y2281187D2*
Y2383162D1*
X3145609Y2315216D1*
X3072721D1*
X3167971Y2105016D2*
X3172801Y2114675D1*
X3182571Y2124446D1*
X3192230Y2129275D1*
X3211659D1*
X3221430Y2124446D1*
X3231088Y2114675D1*
X3236030Y2105016D1*
X3240859Y2090416D1*
Y2066046D1*
X3236030Y2051558D1*
X3231088Y2041787D1*
X3221430Y2032129D1*
X3211659Y2027187D1*
X3192230D1*
X3182571Y2032129D1*
X3172801Y2041787D1*
X3167971Y2051558D1*
Y2066046D1*
X3192230D1*
X3191582Y1875162D2*
X3240099D1*
X3244928Y1831475D1*
X3240099Y1836304D1*
X3225499Y1841246D1*
X3211011D1*
X3196411Y1836304D1*
X3186640Y1826646D1*
X3181811Y1812046D1*
Y1802387D1*
X3186640Y1787787D1*
X3196411Y1778016D1*
X3211011Y1773187D1*
X3225499D1*
X3240099Y1778016D1*
X3244928Y1782958D1*
X3249869Y1792616D1*
X3150438Y1875275D2*
X3111580Y1773187D1*
X3072721Y1875275D1*
X1561642Y3609916D2*
X1517954D1*
X1503354Y3614857D1*
X1498413Y3619686D1*
X1493583Y3629345D1*
Y3639116D1*
X1498413Y3648774D1*
X1503354Y3653716D1*
X1517954Y3658545D1*
X1561642D1*
Y3556457D1*
X1527613Y3609916D2*
X1493583Y3556457D1*
X1394152Y3643945D2*
X1403811Y3653716D1*
X1418411Y3658545D1*
X1437840D1*
X1452440Y3653716D1*
X1462211Y3643945D1*
Y3634286D1*
X1457269Y3624516D1*
X1452440Y3619686D1*
X1442782Y3614857D1*
X1413582Y3605086D1*
X1403811Y3600257D1*
X1398982Y3595316D1*
X1394152Y3585657D1*
Y3571057D1*
X1403811Y3561399D1*
X1418411Y3556457D1*
X1437840D1*
X1452440Y3561399D1*
X1462211Y3571057D1*
X1328751Y3658545D2*
Y3556457D1*
X1362780Y3658545D2*
X1294721D1*
X1394152Y3297187D2*
X1433123Y3399275D1*
X1471982Y3297187D1*
X1457382Y3331216D2*
X1408752D1*
X1333580Y3399162D2*
X1348180Y3394333D1*
X1357951Y3379733D1*
X1362780Y3355475D1*
Y3340875D1*
X1357951Y3316616D1*
X1348180Y3302016D1*
X1333580Y3297187D1*
X1323921D1*
X1309321Y3302016D1*
X1299663Y3316616D1*
X1294721Y3340875D1*
Y3355475D1*
X1299663Y3379733D1*
X1309321Y3394333D1*
X1323921Y3399162D1*
X1333580D1*
X1299663Y3379733D2*
X1357951Y3316616D1*
X1462211Y3145275D2*
Y3043187D1*
X1428182D1*
X1413582Y3048129D1*
X1403811Y3057787D1*
X1398982Y3067558D1*
X1394152Y3082046D1*
Y3106416D1*
X1398982Y3121016D1*
X1403811Y3130675D1*
X1413582Y3140446D1*
X1428182Y3145275D1*
X1462211D1*
X1333580Y3145162D2*
X1348180Y3140333D1*
X1357951Y3125733D1*
X1362780Y3101475D1*
Y3086875D1*
X1357951Y3062616D1*
X1348180Y3048016D1*
X1333580Y3043187D1*
X1323921D1*
X1309321Y3048016D1*
X1299663Y3062616D1*
X1294721Y3086875D1*
Y3101475D1*
X1299663Y3125733D1*
X1309321Y3140333D1*
X1323921Y3145162D1*
X1333580D1*
X1299663Y3125733D2*
X1357951Y3062616D1*
X1457269Y2637275D2*
Y2535187D1*
X1423240D1*
X1408640Y2540129D1*
X1398869Y2549787D1*
X1394040Y2559558D1*
X1389211Y2574046D1*
Y2598416D1*
X1394040Y2613016D1*
X1398869Y2622675D1*
X1408640Y2632446D1*
X1423240Y2637275D1*
X1457269D1*
X1299551Y2622675D2*
X1304380Y2632333D1*
X1318980Y2637162D1*
X1328638D1*
X1343238Y2632333D1*
X1353009Y2617733D1*
X1357838Y2593475D1*
Y2569216D1*
X1353009Y2549787D1*
X1343238Y2540016D1*
X1328638Y2535187D1*
X1323809D1*
X1309321Y2540016D1*
X1299551Y2549787D1*
X1294721Y2564387D1*
Y2569216D1*
X1299551Y2583816D1*
X1309321Y2593475D1*
X1323809Y2598304D1*
X1328638D1*
X1343238Y2593475D1*
X1353009Y2583816D1*
X1357838Y2569216D1*
X1462211Y2383275D2*
Y2281187D1*
X1428182D1*
X1413582Y2286129D1*
X1403811Y2295787D1*
X1398982Y2305558D1*
X1394152Y2320046D1*
Y2344416D1*
X1398982Y2359016D1*
X1403811Y2368675D1*
X1413582Y2378446D1*
X1428182Y2383275D1*
X1462211D1*
X1343351Y2281187D2*
X1294721Y2383162D1*
X1362780D1*
X1462099Y2129275D2*
Y2027187D1*
X1428069D1*
X1413469Y2032129D1*
X1403699Y2041787D1*
X1398869Y2051558D1*
X1394040Y2066046D1*
Y2090416D1*
X1398869Y2105016D1*
X1403699Y2114675D1*
X1413469Y2124446D1*
X1428069Y2129275D1*
X1462099D1*
X1338409Y2129162D2*
X1352897Y2124333D1*
X1357838Y2114675D1*
Y2104904D1*
X1352897Y2095246D1*
X1343238Y2090304D1*
X1323809Y2085475D1*
X1309209Y2080646D1*
X1299551Y2070875D1*
X1294721Y2061216D1*
Y2046616D1*
X1299551Y2036958D1*
X1304380Y2032016D1*
X1318980Y2027187D1*
X1338409D1*
X1352897Y2032016D1*
X1357838Y2036958D1*
X1362667Y2046616D1*
Y2061216D1*
X1357838Y2070875D1*
X1348067Y2080646D1*
X1333580Y2085475D1*
X1314151Y2090304D1*
X1304380Y2095246D1*
X1299551Y2104904D1*
Y2114675D1*
X1304380Y2124333D1*
X1318980Y2129162D1*
X1338409D1*
X1561530Y1875162D2*
X1508183D1*
X1537271Y1836304D1*
X1522671D1*
X1513013Y1831475D1*
X1508183Y1826646D1*
X1503242Y1812046D1*
Y1802387D1*
X1508183Y1787787D1*
X1517842Y1778016D1*
X1532442Y1773187D1*
X1547042D1*
X1561530Y1778016D1*
X1566359Y1782958D1*
X1571300Y1792616D1*
X1471869Y1875275D2*
X1433011Y1773187D1*
X1394152Y1875275D1*
X1353009Y1875162D2*
X1299663D1*
X1328751Y1836304D1*
X1314151D1*
X1304492Y1831475D1*
X1299663Y1826646D1*
X1294721Y1812046D1*
Y1802387D1*
X1299663Y1787787D1*
X1309321Y1778016D1*
X1323921Y1773187D1*
X1338521D1*
X1353009Y1778016D1*
X1357838Y1782958D1*
X1362780Y1792616D1*
X1462211Y2891275D2*
Y2789187D1*
X1428182D1*
X1413582Y2794129D1*
X1403811Y2803787D1*
X1398982Y2813558D1*
X1394152Y2828046D1*
Y2852416D1*
X1398982Y2867016D1*
X1403811Y2876675D1*
X1413582Y2886446D1*
X1428182Y2891275D1*
X1462211D1*
X1304492Y2891162D2*
X1353009D1*
X1357838Y2847475D1*
X1353009Y2852304D1*
X1338409Y2857246D1*
X1323921D1*
X1309321Y2852304D1*
X1299551Y2842646D1*
X1294721Y2828046D1*
Y2818387D1*
X1299551Y2803787D1*
X1309321Y2794016D1*
X1323921Y2789187D1*
X1338409D1*
X1353009Y2794016D1*
X1357838Y2798958D1*
X1362780Y2808616D1*
X2627472Y3742085D2*
D62*
Y3752951D1*
X2616606Y3774935D1*
X2605740Y3785801D1*
X2583756Y3796667D1*
X2540040D1*
X2518309Y3785801D1*
X2507443Y3774935D1*
X2496325Y3752951D1*
Y3731220D1*
X2507443Y3709235D1*
X2529175Y3676638D1*
X2638590Y3567222D1*
X2485459D1*
X2349171Y3796667D2*
X2382021Y3785801D1*
X2404005Y3752951D1*
X2414871Y3698370D1*
Y3665520D1*
X2404005Y3610938D1*
X2382021Y3578088D1*
X2349171Y3567222D1*
X2327439D1*
X2294589Y3578088D1*
X2272858Y3610938D1*
X2261739Y3665520D1*
Y3698370D1*
X2272858Y3752951D1*
X2294589Y3785801D1*
X2327439Y3796667D1*
X2349171D1*
X2272858Y3752951D2*
X2404005Y3610938D1*
X2191151Y3752951D2*
X2169167Y3764070D1*
X2136317Y3796667D1*
Y3567222D1*
X1934581Y3764070D2*
X1945447Y3785801D1*
X1978297Y3796667D1*
X2000028D1*
X2032878Y3785801D1*
X2054863Y3752951D1*
X2065728Y3698370D1*
Y3643788D1*
X2054863Y3600072D1*
X2032878Y3578088D1*
X2000028Y3567222D1*
X1989163D1*
X1956565Y3578088D1*
X1934581Y3600072D1*
X1923715Y3632922D1*
Y3643788D1*
X1934581Y3676638D1*
X1956565Y3698370D1*
X1989163Y3709235D1*
X2000028D1*
X2032878Y3698370D1*
X2054863Y3676638D1*
X2065728Y3643788D1*
X2897041Y1344123D2*
D63*
Y1267557D1*
X2864191D1*
X2853241Y1271264D1*
X2849619Y1274885D1*
X2845997Y1282129D1*
Y1293079D1*
X2849619Y1300407D1*
X2853241Y1304029D1*
X2864191Y1307651D1*
X2853241Y1311357D1*
X2849619Y1314979D1*
X2845997Y1322223D1*
Y1329551D1*
X2849619Y1336795D1*
X2853241Y1340501D1*
X2864191Y1344123D1*
X2897041D1*
Y1307651D2*
X2864191D1*
X2778752Y1318601D2*
Y1267557D1*
Y1307651D2*
X2785996Y1314979D1*
X2793324Y1318601D1*
X2804190D1*
X2811518Y1314979D1*
X2818762Y1307651D1*
X2822468Y1296701D1*
Y1289457D1*
X2818762Y1278507D1*
X2811518Y1271264D1*
X2804190Y1267557D1*
X2793324D1*
X2785996Y1271264D1*
X2778752Y1278507D1*
X2755223Y1318601D2*
Y1267557D1*
Y1296701D2*
X2751517Y1307651D1*
X2744273Y1314979D1*
X2736945Y1318601D1*
X2725995D1*
X2691515Y1344123D2*
Y1282129D1*
X2687893Y1271264D1*
X2680565Y1267557D1*
X2673321D1*
X2702465Y1318601D2*
X2676943D1*
X2575724Y1364086D2*
Y1247510D1*
X2441655Y1344123D2*
Y1285835D1*
X2445277Y1274885D1*
X2448983Y1271264D1*
X2456227Y1267557D1*
X2463555D1*
X2470799Y1271264D1*
X2474421Y1274885D1*
X2478127Y1285835D1*
Y1293079D1*
X2418125Y1296701D2*
X2374410D1*
Y1304029D1*
X2378032Y1311357D1*
X2381653Y1314979D1*
X2388982Y1318601D1*
X2399932D1*
X2407175Y1314979D1*
X2414503Y1307651D1*
X2418125Y1296701D1*
Y1289457D1*
X2414503Y1278507D1*
X2407175Y1271264D1*
X2399932Y1267557D1*
X2388982D1*
X2381653Y1271264D1*
X2374410Y1278507D1*
X2350880Y1318601D2*
Y1267557D1*
Y1296701D2*
X2347174Y1307651D1*
X2339930Y1314979D1*
X2332602Y1318601D1*
X2321652D1*
X2279929D2*
X2287173Y1314979D1*
X2294501Y1307651D1*
X2298123Y1296701D1*
Y1289457D1*
X2294501Y1278507D1*
X2287173Y1271264D1*
X2279929Y1267557D1*
X2268979D1*
X2261651Y1271264D1*
X2254407Y1278507D1*
X2250701Y1289457D1*
Y1296701D1*
X2254407Y1307651D1*
X2261651Y1314979D1*
X2268979Y1318601D1*
X2279929D1*
X2227171Y1296701D2*
X2183456D1*
Y1304029D1*
X2187078Y1311357D1*
X2190699Y1314979D1*
X2198028Y1318601D1*
X2208978D1*
X2216221Y1314979D1*
X2223549Y1307651D1*
X2227171Y1296701D1*
Y1289457D1*
X2223549Y1278507D1*
X2216221Y1271264D1*
X2208978Y1267557D1*
X2198028D1*
X2190699Y1271264D1*
X2183456Y1278507D1*
X2159926Y1318601D2*
Y1267557D1*
Y1304029D2*
X2148976Y1314979D1*
X2141648Y1318601D1*
X2130782D1*
X2123454Y1314979D1*
X2119832Y1304029D1*
Y1267557D1*
X2022235Y1364086D2*
Y1247510D1*
X1899116Y1344123D2*
Y1267557D1*
X1924638Y1344123D2*
X1873594D1*
X1850065D2*
Y1267557D1*
Y1304029D2*
X1839115Y1314979D1*
X1831786Y1318601D1*
X1820836D1*
X1813593Y1314979D1*
X1809971Y1304029D1*
Y1267557D1*
X1786441Y1344123D2*
X1782819Y1340501D1*
X1779113Y1344123D1*
X1782819Y1347829D1*
X1786441Y1344123D1*
X1782819Y1318601D2*
Y1267557D1*
X1741012Y1344207D2*
X1737306Y1340585D1*
X1733684Y1344207D1*
X1737306Y1347829D1*
X1741012Y1344207D1*
X1737306Y1318685D2*
Y1256692D1*
X1741012Y1245742D1*
X1748256Y1242120D1*
X1755584D1*
X1670061Y1307651D2*
X1673682Y1314979D1*
X1684632Y1318601D1*
X1695582D1*
X1706532Y1314979D1*
X1710154Y1307651D1*
X1706532Y1300407D1*
X1699204Y1296701D1*
X1681011Y1293079D1*
X1673682Y1289457D1*
X1670061Y1282129D1*
Y1278507D1*
X1673682Y1271264D1*
X1684632Y1267557D1*
X1695582D1*
X1706532Y1271264D1*
X1710154Y1278507D1*
M02*
