G04 DipTrace 2.4.0.2*
%INiota.GBO*%
%MOMM*%
%ADD10C,0.25*%
%ADD12C,0.076*%
%ADD17C,0.356*%
%ADD18C,1.27*%
%ADD57C,0.157*%
%ADD58C,0.118*%
%FSLAX53Y53*%
G04*
G71*
G90*
G75*
G01*
%LNBotSilk*%
%LPD*%
X35411Y16996D2*
D10*
Y37316D1*
X32871Y16996D2*
X35411D1*
X32871D2*
Y37316D1*
X35411D1*
X12551Y16996D2*
Y37316D1*
X10011Y16996D2*
X12551D1*
X10011D2*
Y37316D1*
X12551D1*
D18*
X34141Y11281D3*
X24326Y34859D2*
D12*
X24630D1*
X24326Y34783D2*
X24630D1*
X24326Y34707D2*
X24630D1*
X24326Y34631D2*
X24630D1*
X24326Y34555D2*
X24630D1*
X24326Y34479D2*
X24630D1*
X23642Y34403D2*
X26226D1*
X23642Y34327D2*
X26334D1*
X23642Y34251D2*
X26419D1*
X23642Y34175D2*
X26478D1*
X23642Y34099D2*
X26518D1*
X23642Y34023D2*
X26551D1*
X24326Y33947D2*
X24630D1*
X26070D2*
X26576D1*
X24326Y33871D2*
X24630D1*
X26131D2*
X26589D1*
X24326Y33795D2*
X24630D1*
X26177D2*
X26587D1*
X24326Y33719D2*
X24630D1*
X26176D2*
X26573D1*
X24326Y33643D2*
X24630D1*
X26167D2*
X26554D1*
X24326Y33567D2*
X24630D1*
X26158D2*
X26540D1*
X24326Y33491D2*
X24630D1*
X26150D2*
X26530D1*
X25086Y33263D2*
X25694D1*
X24914Y33187D2*
X25866D1*
X24771Y33111D2*
X26011D1*
X24659Y33035D2*
X26130D1*
X24569Y32959D2*
X26232D1*
X24495Y32883D2*
X26314D1*
X24437Y32807D2*
X25025D1*
X25755D2*
X26376D1*
X24390Y32731D2*
X24905D1*
X25875D2*
X26426D1*
X24348Y32655D2*
X24806D1*
X25973D2*
X26467D1*
X24311Y32579D2*
X24730D1*
X26049D2*
X26500D1*
X24282Y32503D2*
X24677D1*
X26103D2*
X26527D1*
X24265Y32427D2*
X24640D1*
X26140D2*
X26554D1*
X24256Y32351D2*
X24611D1*
X26171D2*
X26577D1*
X24252Y32275D2*
X24589D1*
X26194D2*
X26589D1*
X24251Y32199D2*
X24597D1*
X26206D2*
X26587D1*
X24253Y32123D2*
X24612D1*
X26188D2*
X26573D1*
X24263Y32047D2*
X24633D1*
X26160D2*
X26554D1*
X24281Y31971D2*
X24663D1*
X26124D2*
X26539D1*
X24303Y31895D2*
X24710D1*
X26073D2*
X26519D1*
X24329Y31819D2*
X24791D1*
X25993D2*
X26488D1*
X24367Y31743D2*
X24923D1*
X25873D2*
X26446D1*
X24421Y31667D2*
X25131D1*
X25695D2*
X26400D1*
X24486Y31591D2*
X25426D1*
X25449D2*
X26346D1*
X24557Y31515D2*
X26275D1*
X24637Y31439D2*
X26183D1*
X24736Y31363D2*
X26067D1*
X24864Y31287D2*
X25926D1*
X25010Y31211D2*
X25770D1*
X24326Y30831D2*
X27822D1*
X24327Y30755D2*
X27822D1*
X24335Y30679D2*
X27822D1*
X24356Y30603D2*
X27822D1*
X24445Y30527D2*
X27822D1*
X24554Y30451D2*
X25347D1*
X25532D2*
X26199D1*
X24481Y30375D2*
X25119D1*
X25725D2*
X26300D1*
X24417Y30299D2*
X24947D1*
X25873D2*
X26379D1*
X24370Y30223D2*
X24823D1*
X25978D2*
X26442D1*
X24334Y30147D2*
X24734D1*
X26056D2*
X26488D1*
X24304Y30071D2*
X24670D1*
X26114D2*
X26522D1*
X24279Y29995D2*
X24622D1*
X26159D2*
X26552D1*
X24263Y29919D2*
X24585D1*
X26195D2*
X26576D1*
X24256Y29843D2*
X24581D1*
X26199D2*
X26589D1*
X24252Y29767D2*
X24594D1*
X26186D2*
X26587D1*
X24254Y29691D2*
X24620D1*
X26160D2*
X26573D1*
X24263Y29615D2*
X24653D1*
X26127D2*
X26554D1*
X24281Y29539D2*
X24694D1*
X26085D2*
X26539D1*
X24303Y29463D2*
X24744D1*
X26035D2*
X26519D1*
X24329Y29387D2*
X24863D1*
X25917D2*
X26488D1*
X24367Y29311D2*
X25065D1*
X25715D2*
X26446D1*
X24421Y29235D2*
X25382D1*
X25397D2*
X26397D1*
X24486Y29159D2*
X26336D1*
X24561Y29083D2*
X26253D1*
X24653Y29007D2*
X26147D1*
X24783Y28931D2*
X26007D1*
X24959Y28855D2*
X25825D1*
X25162Y28779D2*
X25618D1*
X23262Y28399D2*
X23642D1*
X23236Y28323D2*
X23677D1*
X24326D2*
X26530D1*
X23214Y28247D2*
X23698D1*
X24326D2*
X26530D1*
X23202Y28171D2*
X23707D1*
X24326D2*
X26530D1*
X23200Y28095D2*
X23700D1*
X24326D2*
X26530D1*
X23227Y28019D2*
X23676D1*
X24326D2*
X26530D1*
X23262Y27943D2*
X23642D1*
X24326D2*
X26530D1*
X24858Y27487D2*
X25922D1*
X24756Y27411D2*
X26056D1*
X24657Y27335D2*
X26167D1*
X24570Y27259D2*
X26249D1*
X24496Y27183D2*
X26316D1*
X24438Y27107D2*
X25180D1*
X25600D2*
X26374D1*
X24390Y27031D2*
X24996D1*
X25783D2*
X26424D1*
X24348Y26955D2*
X24853D1*
X25927D2*
X26465D1*
X24311Y26879D2*
X24751D1*
X26028D2*
X26499D1*
X24282Y26803D2*
X24676D1*
X26103D2*
X26527D1*
X24265Y26727D2*
X24641D1*
X26139D2*
X26554D1*
X24256Y26651D2*
X24612D1*
X26170D2*
X26577D1*
X24252Y26575D2*
X24589D1*
X26193D2*
X26589D1*
X24251Y26499D2*
X24597D1*
X26206D2*
X26587D1*
X24253Y26423D2*
X24613D1*
X26187D2*
X26573D1*
X24263Y26347D2*
X24635D1*
X26158D2*
X26554D1*
X24281Y26271D2*
X24672D1*
X26115D2*
X26539D1*
X24303Y26195D2*
X24725D1*
X26058D2*
X26522D1*
X24329Y26119D2*
X24789D1*
X25992D2*
X26498D1*
X24367Y26043D2*
X24858D1*
X25922D2*
X26464D1*
X24418Y25967D2*
X24782D1*
X25998D2*
X26420D1*
X24471Y25891D2*
X24706D1*
X26074D2*
X26362D1*
X24516Y25815D2*
X24630D1*
X26150D2*
X26296D1*
X24554Y25739D2*
D3*
X26226D2*
D3*
X24326Y25511D2*
X25998D1*
X24326Y25435D2*
X26144D1*
X24326Y25359D2*
X26263D1*
X24326Y25283D2*
X26358D1*
X24326Y25207D2*
X26432D1*
X24326Y25131D2*
X26484D1*
X25904Y25055D2*
X26520D1*
X26014Y24979D2*
X26551D1*
X26094Y24903D2*
X26574D1*
X26156Y24827D2*
X26586D1*
X26185Y24751D2*
X26571D1*
X26180Y24675D2*
X26553D1*
X26166Y24599D2*
X26538D1*
X26143Y24523D2*
X26519D1*
X26111Y24447D2*
X26485D1*
X18246Y24371D2*
X18398D1*
X26025D2*
X26433D1*
X18144Y24295D2*
X18509D1*
X25897D2*
X26370D1*
X18049Y24219D2*
X18607D1*
X25729D2*
X26302D1*
X17971Y24143D2*
X18291D1*
X18383D2*
X18691D1*
X24326D2*
X26407D1*
X17911Y24067D2*
X18137D1*
X18503D2*
X18762D1*
X24326D2*
X26485D1*
X17893Y23991D2*
X18067D1*
X18602D2*
X18819D1*
X24326D2*
X26509D1*
X17904Y23916D2*
X18047D1*
X18170D2*
X18322D1*
X18677D2*
X18863D1*
X24326D2*
X26521D1*
X17922Y23840D2*
X18074D1*
X18200D2*
X18354D1*
X18736D2*
X18895D1*
X24326D2*
X26527D1*
X17944Y23764D2*
X18154D1*
X18190D2*
X18374D1*
X18758D2*
X18914D1*
X24326D2*
X26530D1*
X17969Y23688D2*
X18360D1*
X18769D2*
X18923D1*
X17994Y23612D2*
X18341D1*
X18775D2*
X18927D1*
X18018Y23536D2*
X18322D1*
X18777D2*
X18929D1*
X18778Y23460D2*
X18930D1*
X18781Y23384D2*
X18933D1*
X26150D2*
X26302D1*
X18791Y23308D2*
X18943D1*
X24554D2*
X25238D1*
X26074D2*
X26366D1*
X18812Y23232D2*
X18961D1*
X24504D2*
X25311D1*
X25998D2*
X26420D1*
X18841Y23156D2*
X18980D1*
X19158D2*
D3*
X21818D2*
X21894D1*
X24453D2*
X25374D1*
X25922D2*
X26463D1*
X18876Y23080D2*
X18994D1*
X19184D2*
X19310D1*
X21856D2*
X22008D1*
X24402D2*
X25422D1*
X25995D2*
X26496D1*
X18914Y23004D2*
X19001D1*
X19210D2*
X19386D1*
X21900D2*
X22115D1*
X24354D2*
X25457D1*
X26061D2*
X26517D1*
X18322Y22928D2*
X18550D1*
X18958D2*
X19004D1*
X19234D2*
X19462D1*
X21944D2*
X22221D1*
X24314D2*
X24785D1*
X24916D2*
X25488D1*
X26116D2*
X26536D1*
X18275Y22852D2*
X18626D1*
X19006D2*
D3*
X19260D2*
X19541D1*
X21984D2*
X22324D1*
X24283D2*
X24718D1*
X25024D2*
X25516D1*
X26159D2*
X26558D1*
X18232Y22776D2*
X18702D1*
X19285D2*
X19627D1*
X21210D2*
X21286D1*
X22017D2*
X22425D1*
X24265D2*
X24661D1*
X25107D2*
X25541D1*
X26188D2*
X26579D1*
X18191Y22700D2*
X18778D1*
X19309D2*
X19721D1*
X21298D2*
X21849D1*
X22046D2*
X22527D1*
X24256D2*
X24608D1*
X25147D2*
X25567D1*
X26204D2*
X26590D1*
X18155Y22624D2*
X18854D1*
X19335D2*
X19816D1*
X21396D2*
X22629D1*
X24252D2*
X24554D1*
X25181D2*
X25593D1*
X26187D2*
X26588D1*
X18126Y22548D2*
X18930D1*
X19358D2*
X19902D1*
X21504D2*
X22726D1*
X24251D2*
X24592D1*
X25211D2*
X25621D1*
X26157D2*
X26573D1*
X18106Y22472D2*
X19006D1*
X19376D2*
X19973D1*
X21621D2*
X22818D1*
X24253D2*
X24626D1*
X25236D2*
X25656D1*
X26108D2*
X26554D1*
X18088Y22396D2*
X19082D1*
X19393D2*
X20029D1*
X21741D2*
X22896D1*
X24263D2*
X24665D1*
X25263D2*
X25740D1*
X26028D2*
X26539D1*
X18066Y22320D2*
X19158D1*
X19415D2*
X20050D1*
X21850D2*
X22957D1*
X24284D2*
X24705D1*
X25289D2*
X25858D1*
X25910D2*
X26519D1*
X18045Y22244D2*
X19234D1*
X19439D2*
X20061D1*
X21934D2*
X23007D1*
X24316D2*
X24737D1*
X25316D2*
X26485D1*
X18031Y22168D2*
X19310D1*
X19462D2*
X20067D1*
X22002D2*
X23050D1*
X24360D2*
X24729D1*
X25355D2*
X26433D1*
X18023Y22092D2*
X20069D1*
X21945D2*
X23089D1*
X24417D2*
X24694D1*
X25415D2*
X26363D1*
X18020Y22016D2*
X19422D1*
X19502D2*
X20070D1*
X21819D2*
X23122D1*
X24484D2*
X24660D1*
X25503D2*
X26269D1*
X18019Y21940D2*
X20070D1*
X21672D2*
X23148D1*
X24554D2*
X24630D1*
X25626D2*
X26143D1*
X18018Y21864D2*
X20070D1*
X20602D2*
D3*
X21518D2*
X23139D1*
X25770D2*
X25998D1*
X18018Y21788D2*
X20070D1*
X20602D2*
X20678D1*
X21362D2*
X23117D1*
X18018Y21712D2*
X20070D1*
X20602D2*
X20792D1*
X22339D2*
X23086D1*
X18021Y21636D2*
X20070D1*
X20599D2*
X20899D1*
X22299D2*
X23048D1*
X18031Y21560D2*
X20070D1*
X20589D2*
X21003D1*
X22192D2*
X23001D1*
X18049Y21484D2*
X19082D1*
X19386D2*
X20070D1*
X20571D2*
X21105D1*
X22030D2*
X22943D1*
X18069Y21408D2*
X19006D1*
X19462D2*
X20070D1*
X20549D2*
X21225D1*
X21786D2*
X22875D1*
X18085Y21332D2*
X19189D1*
X19279D2*
X20070D1*
X20526D2*
X21390D1*
X21449D2*
X22803D1*
X18101Y21256D2*
X20067D1*
X20500D2*
X22726D1*
X18123Y21180D2*
X20057D1*
X20475D2*
X22641D1*
X18147Y21104D2*
X20039D1*
X20450D2*
X22543D1*
X18170Y21028D2*
X20016D1*
X20422D2*
X22433D1*
X18199Y20952D2*
X19990D1*
X20389D2*
X22303D1*
X18235Y20876D2*
X19953D1*
X20350D2*
X22151D1*
X18286Y20800D2*
X19899D1*
X20304D2*
X21986D1*
X18367Y20724D2*
X19837D1*
X20248D2*
X21812D1*
X18489Y20648D2*
X19776D1*
X20188D2*
X21629D1*
X18654Y20572D2*
X19720D1*
X20126D2*
X21444D1*
X18858Y20496D2*
X19668D1*
X20061D2*
X21270D1*
X19082Y20420D2*
X19234D1*
X19614D2*
D3*
X19993D2*
X21111D1*
X21666D2*
X22274D1*
X19932Y20344D2*
X20974D1*
X21456D2*
X22309D1*
X19888Y20268D2*
X20861D1*
X21272D2*
X22333D1*
X19863Y20192D2*
X20767D1*
X21126D2*
X22502D1*
X19851Y20116D2*
X20683D1*
X21012D2*
X22555D1*
X24554D2*
X24706D1*
X19845Y20040D2*
X20607D1*
X20918D2*
X22628D1*
X24207D2*
X24753D1*
X18626Y19964D2*
D3*
X19840D2*
X20539D1*
X20837D2*
X22715D1*
X23903D2*
X24796D1*
X18640Y19888D2*
X18778D1*
X19830D2*
X20481D1*
X20768D2*
X22806D1*
X23655D2*
X24837D1*
X18667Y19812D2*
X18851D1*
X19811D2*
X20427D1*
X20710D2*
X22718D1*
X23455D2*
X24876D1*
X18702Y19736D2*
X18917D1*
X19789D2*
X20375D1*
X20656D2*
X22624D1*
X23290D2*
X24915D1*
X25542D2*
D3*
X18377Y19660D2*
X18975D1*
X19765D2*
X20326D1*
X20602D2*
X22531D1*
X23150D2*
X24953D1*
X25466D2*
D3*
X18018Y19584D2*
X19029D1*
X19737D2*
X20283D1*
X20713D2*
X22451D1*
X23026D2*
X24993D1*
X25300D2*
X25466D1*
X18197Y19508D2*
X19081D1*
X19705D2*
X20243D1*
X20811D2*
X22386D1*
X22914D2*
X24189D1*
X24372D2*
X25037D1*
X25121D2*
X25439D1*
X18375Y19432D2*
X19130D1*
X19669D2*
X20204D1*
X20898D2*
X22329D1*
X22809D2*
X24068D1*
X24464D2*
X25413D1*
X18550Y19356D2*
X19173D1*
X19632D2*
X20165D1*
X20978D2*
X22275D1*
X22709D2*
X23967D1*
X24527D2*
X25390D1*
X25694D2*
X25998D1*
X18363Y19280D2*
X19213D1*
X19594D2*
X20127D1*
X21053D2*
X22227D1*
X22619D2*
X23878D1*
X24580D2*
X25896D1*
X18187Y19204D2*
X19253D1*
X19551D2*
X20086D1*
X21118D2*
X22183D1*
X22546D2*
X23797D1*
X24629D2*
X25797D1*
X18018Y19128D2*
X19293D1*
X19491D2*
X20041D1*
X21163D2*
X22143D1*
X22485D2*
X23722D1*
X24668D2*
X25705D1*
X18371Y19052D2*
X19337D1*
X19408D2*
X19992D1*
X21191D2*
X22106D1*
X22429D2*
X23658D1*
X24700D2*
X25618D1*
X18609Y18976D2*
X19943D1*
X21362D2*
X22075D1*
X22379D2*
X23607D1*
X24729D2*
X26150D1*
X18770Y18900D2*
X19893D1*
X21403D2*
X22048D1*
X22335D2*
X23592D1*
X24753D2*
X26021D1*
X18818Y18824D2*
X19841D1*
X21457D2*
X22018D1*
X22292D2*
X23612D1*
X24771D2*
X25869D1*
X19006Y18748D2*
X19791D1*
X21522D2*
X21982D1*
X22246D2*
X23676D1*
X24789D2*
X25696D1*
X19047Y18672D2*
X19741D1*
X21593D2*
X21937D1*
X22196D2*
X23758D1*
X24810D2*
X25507D1*
X19101Y18596D2*
X19689D1*
X21667D2*
X21880D1*
X22146D2*
X23851D1*
X24831D2*
X25312D1*
X19169Y18520D2*
X19639D1*
X21742D2*
X21818D1*
X22091D2*
X23950D1*
X24846D2*
X25120D1*
X19252Y18444D2*
X19586D1*
X22017D2*
X24058D1*
X24858D2*
X24934D1*
X19352Y18368D2*
X19526D1*
X21920D2*
X24174D1*
X19462Y18292D2*
D3*
X21807D2*
X23861D1*
X21687Y18216D2*
X23559D1*
X21561Y18140D2*
X23262D1*
X21427Y18064D2*
X22292D1*
X23946D2*
X24402D1*
X21290Y17988D2*
X22108D1*
X23459D2*
X24583D1*
X21150Y17912D2*
X21962D1*
X22958D2*
X24722D1*
X21004Y17836D2*
X21848D1*
X23119D2*
X24821D1*
X20858Y17760D2*
X21754D1*
X23279D2*
X24893D1*
X20725Y17684D2*
X21670D1*
X23430D2*
X24956D1*
X20602Y17608D2*
X21590D1*
X23566D2*
X25018D1*
X20716Y17532D2*
X21753D1*
X23691D2*
X25078D1*
X20836Y17456D2*
X21918D1*
X23807D2*
X25133D1*
X20959Y17380D2*
X22067D1*
X23913D2*
X25185D1*
X21087Y17304D2*
X22181D1*
X24007D2*
X25237D1*
X21226Y17228D2*
X22257D1*
X24091D2*
X25285D1*
X21374Y17152D2*
X22313D1*
X24171D2*
X25329D1*
X21518Y17076D2*
X22332D1*
X24249D2*
X25369D1*
X21639Y17000D2*
X22342D1*
X24325D2*
X25408D1*
X21742Y16924D2*
X22347D1*
X24399D2*
X25447D1*
X21692Y16848D2*
X22349D1*
X23414D2*
X23946D1*
X24465D2*
X25485D1*
X21642Y16772D2*
X22349D1*
X23376D2*
X24068D1*
X24523D2*
X25522D1*
X21592Y16696D2*
X22350D1*
X23331D2*
X24182D1*
X24576D2*
X25558D1*
X21550Y16620D2*
X21742D1*
X21879D2*
X22350D1*
X23285D2*
X24279D1*
X24629D2*
X25589D1*
X21514Y16544D2*
X21590D1*
X21923D2*
X22134D1*
X22274D2*
X22350D1*
X23236D2*
X23569D1*
X23855D2*
X24352D1*
X24680D2*
X25616D1*
X21438Y16468D2*
D3*
X21949D2*
X22077D1*
X22426D2*
D3*
X23188D2*
X23506D1*
X23972D2*
X24405D1*
X24731D2*
X25642D1*
X21962Y16392D2*
X22024D1*
X23148D2*
X23461D1*
X24061D2*
X24441D1*
X24782D2*
X25666D1*
X21970Y16316D2*
D3*
X23116D2*
X23435D1*
X24128D2*
X24461D1*
X24832D2*
X25680D1*
X23087Y16240D2*
X23423D1*
X24151D2*
X24468D1*
X24882D2*
X25688D1*
X23063Y16164D2*
X23417D1*
X24165D2*
X24462D1*
X24931D2*
X25692D1*
X23047Y16088D2*
X23412D1*
X24148D2*
X24446D1*
X24969D2*
X25696D1*
X23040Y16012D2*
X23402D1*
X24074D2*
X24427D1*
X24994D2*
X25706D1*
X23036Y15936D2*
X23386D1*
X23718D2*
D3*
X23907D2*
X24411D1*
X25015D2*
X25724D1*
X23035Y15860D2*
X23376D1*
X23729D2*
X24394D1*
X25038D2*
X25744D1*
X23034Y15784D2*
X23381D1*
X23768D2*
X24370D1*
X25059D2*
X25757D1*
X23034Y15708D2*
X23394D1*
X23858D2*
X24337D1*
X25073D2*
X25764D1*
X23034Y15632D2*
X23404D1*
X23972D2*
X24296D1*
X25080D2*
X25768D1*
X23034Y15556D2*
X23409D1*
X24098D2*
X24250D1*
X25083D2*
X25769D1*
X23037Y15480D2*
X23412D1*
X25082D2*
X25769D1*
X23046Y15404D2*
X23416D1*
X25073D2*
X25770D1*
X23065Y15328D2*
X23426D1*
X25054D2*
X25770D1*
X23087Y15252D2*
X23448D1*
X25032D2*
X25770D1*
X23110Y15176D2*
X23480D1*
X25009D2*
X25769D1*
X23138Y15100D2*
X23524D1*
X24981D2*
X25767D1*
X23171Y15024D2*
X23579D1*
X24949D2*
X25757D1*
X23207Y14948D2*
X23636D1*
X24913D2*
X25739D1*
X23246Y14872D2*
X23692D1*
X24876D2*
X25719D1*
X23291Y14796D2*
X23757D1*
X24838D2*
X25706D1*
X23340Y14720D2*
X23839D1*
X24796D2*
X25699D1*
X23389Y14644D2*
X23945D1*
X24747D2*
X25693D1*
X23442Y14568D2*
X24101D1*
X24605D2*
X25682D1*
X23503Y14492D2*
X24339D1*
X24379D2*
X25663D1*
X23572Y14416D2*
X25640D1*
X23647Y14340D2*
X25615D1*
X23731Y14264D2*
X25579D1*
X23826Y14188D2*
X25535D1*
X23926Y14112D2*
X25489D1*
X24041Y14036D2*
X25434D1*
X24205Y13960D2*
X25366D1*
X24484Y13884D2*
X25150D1*
X24924Y13808D2*
X24787D1*
X24326Y34859D2*
Y34783D1*
Y34707D1*
Y34631D1*
Y34555D1*
Y34479D1*
Y34403D1*
X23642D1*
Y34327D1*
Y34251D1*
Y34175D1*
Y34099D1*
Y34023D1*
Y33947D1*
X24326D1*
Y33871D1*
Y33795D1*
Y33719D1*
Y33643D1*
Y33567D1*
Y33491D1*
X24630Y34859D2*
Y34783D1*
Y34707D1*
Y34631D1*
Y34555D1*
Y34479D1*
Y34403D1*
X26226D2*
X26334Y34327D1*
X26419Y34251D1*
X26478Y34175D1*
X26518Y34099D1*
X26551Y34023D1*
X26576Y33947D1*
X26589Y33871D1*
X26587Y33795D1*
X26573Y33719D1*
X26554Y33643D1*
X26540Y33567D1*
X26530Y33491D1*
X24630Y34023D2*
Y33947D1*
Y33871D1*
Y33795D1*
Y33719D1*
Y33643D1*
Y33567D1*
Y33491D1*
X25998Y34023D2*
X26070Y33947D1*
X26131Y33871D1*
X26177Y33795D1*
X26176Y33719D1*
X26167Y33643D1*
X26158Y33567D1*
X26150Y33491D1*
X25086Y33263D2*
X24914Y33187D1*
X24771Y33111D1*
X24659Y33035D1*
X24569Y32959D1*
X24495Y32883D1*
X24437Y32807D1*
X24390Y32731D1*
X24348Y32655D1*
X24311Y32579D1*
X24282Y32503D1*
X24265Y32427D1*
X24256Y32351D1*
X24252Y32275D1*
X24251Y32199D1*
X24253Y32123D1*
X24263Y32047D1*
X24281Y31971D1*
X24303Y31895D1*
X24329Y31819D1*
X24367Y31743D1*
X24421Y31667D1*
X24486Y31591D1*
X24557Y31515D1*
X24637Y31439D1*
X24736Y31363D1*
X24864Y31287D1*
X25010Y31211D1*
X25694Y33263D2*
X25866Y33187D1*
X26011Y33111D1*
X26130Y33035D1*
X26232Y32959D1*
X26314Y32883D1*
X26376Y32807D1*
X26426Y32731D1*
X26467Y32655D1*
X26500Y32579D1*
X26527Y32503D1*
X26554Y32427D1*
X26577Y32351D1*
X26589Y32275D1*
X26587Y32199D1*
X26573Y32123D1*
X26554Y32047D1*
X26539Y31971D1*
X26519Y31895D1*
X26488Y31819D1*
X26446Y31743D1*
X26400Y31667D1*
X26346Y31591D1*
X26275Y31515D1*
X26183Y31439D1*
X26067Y31363D1*
X25926Y31287D1*
X25770Y31211D1*
X25162Y32883D2*
X25025Y32807D1*
X24905Y32731D1*
X24806Y32655D1*
X24730Y32579D1*
X24677Y32503D1*
X24640Y32427D1*
X24611Y32351D1*
X24589Y32275D1*
X24597Y32199D1*
X24612Y32123D1*
X24633Y32047D1*
X24663Y31971D1*
X24710Y31895D1*
X24791Y31819D1*
X24923Y31743D1*
X25131Y31667D1*
X25426Y31591D1*
X25770Y31515D1*
X25618Y32883D2*
X25755Y32807D1*
X25875Y32731D1*
X25973Y32655D1*
X26049Y32579D1*
X26103Y32503D1*
X26140Y32427D1*
X26171Y32351D1*
X26194Y32275D1*
X26206Y32199D1*
X26188Y32123D1*
X26160Y32047D1*
X26124Y31971D1*
X26073Y31895D1*
X25993Y31819D1*
X25873Y31743D1*
X25695Y31667D1*
X25449Y31591D1*
X25162Y31515D1*
X24326Y30831D2*
X24327Y30755D1*
X24335Y30679D1*
X24356Y30603D1*
X24445Y30527D1*
X24554Y30451D1*
X24481Y30375D1*
X24417Y30299D1*
X24370Y30223D1*
X24334Y30147D1*
X24304Y30071D1*
X24279Y29995D1*
X24263Y29919D1*
X24256Y29843D1*
X24252Y29767D1*
X24254Y29691D1*
X24263Y29615D1*
X24281Y29539D1*
X24303Y29463D1*
X24329Y29387D1*
X24367Y29311D1*
X24421Y29235D1*
X24486Y29159D1*
X24561Y29083D1*
X24653Y29007D1*
X24783Y28931D1*
X24959Y28855D1*
X25162Y28779D1*
X27822Y30831D2*
Y30755D1*
Y30679D1*
Y30603D1*
Y30527D1*
X25618D2*
X25347Y30451D1*
X25119Y30375D1*
X24947Y30299D1*
X24823Y30223D1*
X24734Y30147D1*
X24670Y30071D1*
X24622Y29995D1*
X24585Y29919D1*
X24581Y29843D1*
X24594Y29767D1*
X24620Y29691D1*
X24653Y29615D1*
X24694Y29539D1*
X24744Y29463D1*
X24863Y29387D1*
X25065Y29311D1*
X25382Y29235D1*
X25770Y29159D1*
X25314Y30527D2*
X25532Y30451D1*
X25725Y30375D1*
X25873Y30299D1*
X25978Y30223D1*
X26056Y30147D1*
X26114Y30071D1*
X26159Y29995D1*
X26195Y29919D1*
X26199Y29843D1*
X26186Y29767D1*
X26160Y29691D1*
X26127Y29615D1*
X26085Y29539D1*
X26035Y29463D1*
X25917Y29387D1*
X25715Y29311D1*
X25397Y29235D1*
X25010Y29159D1*
X26074Y30527D2*
X26199Y30451D1*
X26300Y30375D1*
X26379Y30299D1*
X26442Y30223D1*
X26488Y30147D1*
X26522Y30071D1*
X26552Y29995D1*
X26576Y29919D1*
X26589Y29843D1*
X26587Y29767D1*
X26573Y29691D1*
X26554Y29615D1*
X26539Y29539D1*
X26519Y29463D1*
X26488Y29387D1*
X26446Y29311D1*
X26397Y29235D1*
X26336Y29159D1*
X26253Y29083D1*
X26147Y29007D1*
X26007Y28931D1*
X25825Y28855D1*
X25618Y28779D1*
X23262Y28399D2*
X23236Y28323D1*
X23214Y28247D1*
X23202Y28171D1*
X23200Y28095D1*
X23227Y28019D1*
X23262Y27943D1*
X23642Y28399D2*
X23677Y28323D1*
X23698Y28247D1*
X23707Y28171D1*
X23700Y28095D1*
X23676Y28019D1*
X23642Y27943D1*
X24326Y28323D2*
Y28247D1*
Y28171D1*
Y28095D1*
Y28019D1*
Y27943D1*
X26530Y28323D2*
Y28247D1*
Y28171D1*
Y28095D1*
Y28019D1*
Y27943D1*
X24858Y27487D2*
X24756Y27411D1*
X24657Y27335D1*
X24570Y27259D1*
X24496Y27183D1*
X24438Y27107D1*
X24390Y27031D1*
X24348Y26955D1*
X24311Y26879D1*
X24282Y26803D1*
X24265Y26727D1*
X24256Y26651D1*
X24252Y26575D1*
X24251Y26499D1*
X24253Y26423D1*
X24263Y26347D1*
X24281Y26271D1*
X24303Y26195D1*
X24329Y26119D1*
X24367Y26043D1*
X24418Y25967D1*
X24471Y25891D1*
X24516Y25815D1*
X24554Y25739D1*
X25922Y27487D2*
X26056Y27411D1*
X26167Y27335D1*
X26249Y27259D1*
X26316Y27183D1*
X26374Y27107D1*
X26424Y27031D1*
X26465Y26955D1*
X26499Y26879D1*
X26527Y26803D1*
X26554Y26727D1*
X26577Y26651D1*
X26589Y26575D1*
X26587Y26499D1*
X26573Y26423D1*
X26554Y26347D1*
X26539Y26271D1*
X26522Y26195D1*
X26498Y26119D1*
X26464Y26043D1*
X26420Y25967D1*
X26362Y25891D1*
X26296Y25815D1*
X26226Y25739D1*
X25390Y27183D2*
X25180Y27107D1*
X24996Y27031D1*
X24853Y26955D1*
X24751Y26879D1*
X24676Y26803D1*
X24641Y26727D1*
X24612Y26651D1*
X24589Y26575D1*
X24597Y26499D1*
X24613Y26423D1*
X24635Y26347D1*
X24672Y26271D1*
X24725Y26195D1*
X24789Y26119D1*
X24858Y26043D1*
X24782Y25967D1*
X24706Y25891D1*
X24630Y25815D1*
X24554Y25739D1*
X25390Y27183D2*
X25600Y27107D1*
X25783Y27031D1*
X25927Y26955D1*
X26028Y26879D1*
X26103Y26803D1*
X26139Y26727D1*
X26170Y26651D1*
X26193Y26575D1*
X26206Y26499D1*
X26187Y26423D1*
X26158Y26347D1*
X26115Y26271D1*
X26058Y26195D1*
X25992Y26119D1*
X25922Y26043D1*
X25998Y25967D1*
X26074Y25891D1*
X26150Y25815D1*
X26226Y25739D1*
X24326Y25511D2*
Y25435D1*
Y25359D1*
Y25283D1*
Y25207D1*
Y25131D1*
X25998Y25511D2*
X26144Y25435D1*
X26263Y25359D1*
X26358Y25283D1*
X26432Y25207D1*
X26484Y25131D1*
X26520Y25055D1*
X26551Y24979D1*
X26574Y24903D1*
X26586Y24827D1*
X26571Y24751D1*
X26553Y24675D1*
X26538Y24599D1*
X26519Y24523D1*
X26485Y24447D1*
X26433Y24371D1*
X26370Y24295D1*
X26302Y24219D1*
X26407Y24143D1*
X26485Y24067D1*
X26509Y23991D1*
X26521Y23916D1*
X26527Y23840D1*
X26530Y23764D1*
X25770Y25131D2*
X25904Y25055D1*
X26014Y24979D1*
X26094Y24903D1*
X26156Y24827D1*
X26185Y24751D1*
X26180Y24675D1*
X26166Y24599D1*
X26143Y24523D1*
X26111Y24447D1*
X26025Y24371D1*
X25897Y24295D1*
X25729Y24219D1*
X25542Y24143D1*
X18246Y24371D2*
X18144Y24295D1*
X18049Y24219D1*
X17971Y24143D1*
X17911Y24067D1*
X17893Y23991D1*
X17904Y23916D1*
X17922Y23840D1*
X17944Y23764D1*
X17969Y23688D1*
X17994Y23612D1*
X18018Y23536D1*
X18398Y24371D2*
X18509Y24295D1*
X18607Y24219D1*
X18691Y24143D1*
X18762Y24067D1*
X18819Y23991D1*
X18863Y23916D1*
X18895Y23840D1*
X18914Y23764D1*
X18923Y23688D1*
X18927Y23612D1*
X18929Y23536D1*
X18930Y23460D1*
X18933Y23384D1*
X18943Y23308D1*
X18961Y23232D1*
X18980Y23156D1*
X18994Y23080D1*
X19001Y23004D1*
X19004Y22928D1*
X19006Y22852D1*
X18474Y24219D2*
X18291Y24143D1*
X18137Y24067D1*
X18067Y23991D1*
X18047Y23916D1*
X18074Y23840D1*
X18154Y23764D1*
X18246Y23688D1*
Y24219D2*
X18383Y24143D1*
X18503Y24067D1*
X18602Y23991D1*
X18677Y23916D1*
X18736Y23840D1*
X18758Y23764D1*
X18769Y23688D1*
X18775Y23612D1*
X18777Y23536D1*
X18778Y23460D1*
X18781Y23384D1*
X18791Y23308D1*
X18812Y23232D1*
X18841Y23156D1*
X18876Y23080D1*
X18914Y23004D1*
X18958Y22928D1*
X19006Y22852D1*
X24326Y24143D2*
Y24067D1*
Y23991D1*
Y23916D1*
Y23840D1*
Y23764D1*
X18170Y23916D2*
X18200Y23840D1*
X18190Y23764D1*
X18170Y23688D1*
X18322Y23916D2*
X18354Y23840D1*
X18374Y23764D1*
X18360Y23688D1*
X18341Y23612D1*
X18322Y23536D1*
X26150Y23384D2*
X26074Y23308D1*
X25998Y23232D1*
X25922Y23156D1*
X25995Y23080D1*
X26061Y23004D1*
X26116Y22928D1*
X26159Y22852D1*
X26188Y22776D1*
X26204Y22700D1*
X26187Y22624D1*
X26157Y22548D1*
X26108Y22472D1*
X26028Y22396D1*
X25910Y22320D1*
X25770Y22244D1*
X26302Y23384D2*
X26366Y23308D1*
X26420Y23232D1*
X26463Y23156D1*
X26496Y23080D1*
X26517Y23004D1*
X26536Y22928D1*
X26558Y22852D1*
X26579Y22776D1*
X26590Y22700D1*
X26588Y22624D1*
X26573Y22548D1*
X26554Y22472D1*
X26539Y22396D1*
X26519Y22320D1*
X26485Y22244D1*
X26433Y22168D1*
X26363Y22092D1*
X26269Y22016D1*
X26143Y21940D1*
X25998Y21864D1*
X24554Y23308D2*
X24504Y23232D1*
X24453Y23156D1*
X24402Y23080D1*
X24354Y23004D1*
X24314Y22928D1*
X24283Y22852D1*
X24265Y22776D1*
X24256Y22700D1*
X24252Y22624D1*
X24251Y22548D1*
X24253Y22472D1*
X24263Y22396D1*
X24284Y22320D1*
X24316Y22244D1*
X24360Y22168D1*
X24417Y22092D1*
X24484Y22016D1*
X24554Y21940D1*
X25238Y23308D2*
X25311Y23232D1*
X25374Y23156D1*
X25422Y23080D1*
X25457Y23004D1*
X25488Y22928D1*
X25516Y22852D1*
X25541Y22776D1*
X25567Y22700D1*
X25593Y22624D1*
X25621Y22548D1*
X25656Y22472D1*
X25740Y22396D1*
X25858Y22320D1*
X25998Y22244D1*
X19158Y23156D2*
X19184Y23080D1*
X19210Y23004D1*
X19234Y22928D1*
X19260Y22852D1*
X19285Y22776D1*
X19309Y22700D1*
X19335Y22624D1*
X19358Y22548D1*
X19376Y22472D1*
X19393Y22396D1*
X19415Y22320D1*
X19439Y22244D1*
X19462Y22168D1*
X21818Y23156D2*
X21856Y23080D1*
X21900Y23004D1*
X21944Y22928D1*
X21984Y22852D1*
X22017Y22776D1*
X22046Y22700D1*
X21818Y22624D1*
X21894Y23156D2*
X22008Y23080D1*
X22115Y23004D1*
X22221Y22928D1*
X22324Y22852D1*
X22425Y22776D1*
X22527Y22700D1*
X22629Y22624D1*
X22726Y22548D1*
X22818Y22472D1*
X22896Y22396D1*
X22957Y22320D1*
X23007Y22244D1*
X23050Y22168D1*
X23089Y22092D1*
X23122Y22016D1*
X23148Y21940D1*
X23139Y21864D1*
X23117Y21788D1*
X23086Y21712D1*
X23048Y21636D1*
X23001Y21560D1*
X22943Y21484D1*
X22875Y21408D1*
X22803Y21332D1*
X22726Y21256D1*
X22641Y21180D1*
X22543Y21104D1*
X22433Y21028D1*
X22303Y20952D1*
X22151Y20876D1*
X21986Y20800D1*
X21812Y20724D1*
X21629Y20648D1*
X21444Y20572D1*
X21270Y20496D1*
X21111Y20420D1*
X20974Y20344D1*
X20861Y20268D1*
X20767Y20192D1*
X20683Y20116D1*
X20607Y20040D1*
X20539Y19964D1*
X20481Y19888D1*
X20427Y19812D1*
X20375Y19736D1*
X20326Y19660D1*
X20283Y19584D1*
X20243Y19508D1*
X20204Y19432D1*
X20165Y19356D1*
X20127Y19280D1*
X20086Y19204D1*
X20041Y19128D1*
X19992Y19052D1*
X19943Y18976D1*
X19893Y18900D1*
X19841Y18824D1*
X19791Y18748D1*
X19741Y18672D1*
X19689Y18596D1*
X19639Y18520D1*
X19586Y18444D1*
X19526Y18368D1*
X19462Y18292D1*
X19310Y23080D2*
X19386Y23004D1*
X19462Y22928D1*
X19541Y22852D1*
X19627Y22776D1*
X19721Y22700D1*
X19816Y22624D1*
X19902Y22548D1*
X19973Y22472D1*
X20029Y22396D1*
X20050Y22320D1*
X20061Y22244D1*
X20067Y22168D1*
X20069Y22092D1*
X20070Y22016D1*
Y21940D1*
Y21864D1*
Y21788D1*
Y21712D1*
Y21636D1*
Y21560D1*
Y21484D1*
Y21408D1*
Y21332D1*
X20067Y21256D1*
X20057Y21180D1*
X20039Y21104D1*
X20016Y21028D1*
X19990Y20952D1*
X19953Y20876D1*
X19899Y20800D1*
X19837Y20724D1*
X19776Y20648D1*
X19720Y20572D1*
X19668Y20496D1*
X19614Y20420D1*
X18322Y22928D2*
X18275Y22852D1*
X18232Y22776D1*
X18191Y22700D1*
X18155Y22624D1*
X18126Y22548D1*
X18106Y22472D1*
X18088Y22396D1*
X18066Y22320D1*
X18045Y22244D1*
X18031Y22168D1*
X18023Y22092D1*
X18020Y22016D1*
X18019Y21940D1*
X18018Y21864D1*
Y21788D1*
Y21712D1*
X18021Y21636D1*
X18031Y21560D1*
X18049Y21484D1*
X18069Y21408D1*
X18085Y21332D1*
X18101Y21256D1*
X18123Y21180D1*
X18147Y21104D1*
X18170Y21028D1*
X18199Y20952D1*
X18235Y20876D1*
X18286Y20800D1*
X18367Y20724D1*
X18489Y20648D1*
X18654Y20572D1*
X18858Y20496D1*
X19082Y20420D1*
X18550Y22928D2*
X18626Y22852D1*
X18702Y22776D1*
X18778Y22700D1*
X18854Y22624D1*
X18930Y22548D1*
X19006Y22472D1*
X19082Y22396D1*
X19158Y22320D1*
X19234Y22244D1*
X19310Y22168D1*
X24858Y23004D2*
X24785Y22928D1*
X24718Y22852D1*
X24661Y22776D1*
X24608Y22700D1*
X24554Y22624D1*
X24592Y22548D1*
X24626Y22472D1*
X24665Y22396D1*
X24705Y22320D1*
X24737Y22244D1*
X24729Y22168D1*
X24694Y22092D1*
X24660Y22016D1*
X24630Y21940D1*
X24782Y23004D2*
X24916Y22928D1*
X25024Y22852D1*
X25107Y22776D1*
X25147Y22700D1*
X25181Y22624D1*
X25211Y22548D1*
X25236Y22472D1*
X25263Y22396D1*
X25289Y22320D1*
X25316Y22244D1*
X25355Y22168D1*
X25415Y22092D1*
X25503Y22016D1*
X25626Y21940D1*
X25770Y21864D1*
X21210Y22776D2*
X21298Y22700D1*
X21396Y22624D1*
X21504Y22548D1*
X21621Y22472D1*
X21741Y22396D1*
X21850Y22320D1*
X21934Y22244D1*
X22002Y22168D1*
X21945Y22092D1*
X21819Y22016D1*
X21672Y21940D1*
X21518Y21864D1*
X21362Y21788D1*
X21286Y22776D2*
X21849Y22700D1*
X22426Y22624D1*
X19462Y22092D2*
X19422Y22016D1*
X19386Y21940D1*
X19462Y22092D2*
X19502Y22016D1*
X19538Y21940D1*
X20602Y21864D2*
Y21788D1*
Y21712D1*
X20599Y21636D1*
X20589Y21560D1*
X20571Y21484D1*
X20549Y21408D1*
X20526Y21332D1*
X20500Y21256D1*
X20475Y21180D1*
X20450Y21104D1*
X20422Y21028D1*
X20389Y20952D1*
X20350Y20876D1*
X20304Y20800D1*
X20248Y20724D1*
X20188Y20648D1*
X20126Y20572D1*
X20061Y20496D1*
X19993Y20420D1*
X19932Y20344D1*
X19888Y20268D1*
X19863Y20192D1*
X19851Y20116D1*
X19845Y20040D1*
X19840Y19964D1*
X19830Y19888D1*
X19811Y19812D1*
X19789Y19736D1*
X19765Y19660D1*
X19737Y19584D1*
X19705Y19508D1*
X19669Y19432D1*
X19632Y19356D1*
X19594Y19280D1*
X19551Y19204D1*
X19491Y19128D1*
X19408Y19052D1*
X19310Y18976D1*
X20678Y21788D2*
X20792Y21712D1*
X20899Y21636D1*
X21003Y21560D1*
X21105Y21484D1*
X21225Y21408D1*
X21390Y21332D1*
X21590Y21256D1*
X22350Y21788D2*
X22339Y21712D1*
X22299Y21636D1*
X22192Y21560D1*
X22030Y21484D1*
X21786Y21408D1*
X21449Y21332D1*
X21058Y21256D1*
X19158Y21560D2*
X19082Y21484D1*
X19006Y21408D1*
X19189Y21332D1*
X19386Y21256D1*
X19310Y21560D2*
X19386Y21484D1*
X19462Y21408D1*
X19279Y21332D1*
X19082Y21256D1*
X19310Y20496D2*
X19234Y20420D1*
X21666D2*
X21456Y20344D1*
X21272Y20268D1*
X21126Y20192D1*
X21012Y20116D1*
X20918Y20040D1*
X20837Y19964D1*
X20768Y19888D1*
X20710Y19812D1*
X20656Y19736D1*
X20602Y19660D1*
X20713Y19584D1*
X20811Y19508D1*
X20898Y19432D1*
X20978Y19356D1*
X21053Y19280D1*
X21118Y19204D1*
X21163Y19128D1*
X21191Y19052D1*
X21210Y18976D1*
X21362D1*
X21403Y18900D1*
X21457Y18824D1*
X21522Y18748D1*
X21593Y18672D1*
X21667Y18596D1*
X21742Y18520D1*
X22274Y20420D2*
X22309Y20344D1*
X22333Y20268D1*
X22350Y20192D1*
X22502D1*
X22555Y20116D1*
X22628Y20040D1*
X22715Y19964D1*
X22806Y19888D1*
X22718Y19812D1*
X22624Y19736D1*
X22531Y19660D1*
X22451Y19584D1*
X22386Y19508D1*
X22329Y19432D1*
X22275Y19356D1*
X22227Y19280D1*
X22183Y19204D1*
X22143Y19128D1*
X22106Y19052D1*
X22075Y18976D1*
X22048Y18900D1*
X22018Y18824D1*
X21982Y18748D1*
X21937Y18672D1*
X21880Y18596D1*
X21818Y18520D1*
X24554Y20116D2*
X24207Y20040D1*
X23903Y19964D1*
X23655Y19888D1*
X23455Y19812D1*
X23290Y19736D1*
X23150Y19660D1*
X23026Y19584D1*
X22914Y19508D1*
X22809Y19432D1*
X22709Y19356D1*
X22619Y19280D1*
X22546Y19204D1*
X22485Y19128D1*
X22429Y19052D1*
X22379Y18976D1*
X22335Y18900D1*
X22292Y18824D1*
X22246Y18748D1*
X22196Y18672D1*
X22146Y18596D1*
X22091Y18520D1*
X22017Y18444D1*
X21920Y18368D1*
X21807Y18292D1*
X21687Y18216D1*
X21561Y18140D1*
X21427Y18064D1*
X21290Y17988D1*
X21150Y17912D1*
X21004Y17836D1*
X20858Y17760D1*
X20725Y17684D1*
X20602Y17608D1*
X20716Y17532D1*
X20836Y17456D1*
X20959Y17380D1*
X21087Y17304D1*
X21226Y17228D1*
X21374Y17152D1*
X21518Y17076D1*
X21639Y17000D1*
X21742Y16924D1*
X21692Y16848D1*
X21642Y16772D1*
X21592Y16696D1*
X21550Y16620D1*
X21514Y16544D1*
X24706Y20116D2*
X24753Y20040D1*
X24796Y19964D1*
X24837Y19888D1*
X24876Y19812D1*
X24915Y19736D1*
X24953Y19660D1*
X24993Y19584D1*
X25037Y19508D1*
X25086Y19432D1*
X18626Y19964D2*
X18640Y19888D1*
X18667Y19812D1*
X18702Y19736D1*
X18377Y19660D1*
X18018Y19584D1*
X18197Y19508D1*
X18375Y19432D1*
X18550Y19356D1*
X18363Y19280D1*
X18187Y19204D1*
X18018Y19128D1*
X18371Y19052D1*
X18609Y18976D1*
X18770Y18900D1*
X18818Y18824D1*
X18854Y18748D1*
X19006D1*
X19047Y18672D1*
X19101Y18596D1*
X19169Y18520D1*
X19252Y18444D1*
X19352Y18368D1*
X19462Y18292D1*
X18778Y19888D2*
X18851Y19812D1*
X18917Y19736D1*
X18975Y19660D1*
X19029Y19584D1*
X19081Y19508D1*
X19130Y19432D1*
X19173Y19356D1*
X19213Y19280D1*
X19253Y19204D1*
X19293Y19128D1*
X19337Y19052D1*
X19386Y18976D1*
X25542Y19736D2*
X25466Y19660D2*
X25300Y19584D1*
X25121Y19508D1*
X24934Y19432D1*
X25466Y19584D2*
X25439Y19508D1*
X25413Y19432D1*
X25390Y19356D1*
X25618Y19280D1*
X24326Y19584D2*
X24189Y19508D1*
X24068Y19432D1*
X23967Y19356D1*
X23878Y19280D1*
X23797Y19204D1*
X23722Y19128D1*
X23658Y19052D1*
X23607Y18976D1*
X23592Y18900D1*
X23612Y18824D1*
X23676Y18748D1*
X23758Y18672D1*
X23851Y18596D1*
X23950Y18520D1*
X24058Y18444D1*
X24174Y18368D1*
X23861Y18292D1*
X23559Y18216D1*
X23262Y18140D1*
X24250Y19584D2*
X24372Y19508D1*
X24464Y19432D1*
X24527Y19356D1*
X24580Y19280D1*
X24629Y19204D1*
X24668Y19128D1*
X24700Y19052D1*
X24729Y18976D1*
X24753Y18900D1*
X24771Y18824D1*
X24789Y18748D1*
X24810Y18672D1*
X24831Y18596D1*
X24846Y18520D1*
X24858Y18444D1*
X25694Y19356D2*
X25618Y19280D1*
X25998Y19356D2*
X25896Y19280D1*
X25797Y19204D1*
X25705Y19128D1*
X25618Y19052D1*
X26150Y18976D1*
X26021Y18900D1*
X25869Y18824D1*
X25696Y18748D1*
X25507Y18672D1*
X25312Y18596D1*
X25120Y18520D1*
X24934Y18444D1*
X22502Y18140D2*
X22292Y18064D1*
X22108Y17988D1*
X21962Y17912D1*
X21848Y17836D1*
X21754Y17760D1*
X21670Y17684D1*
X21590Y17608D1*
X21753Y17532D1*
X21918Y17456D1*
X22067Y17380D1*
X22181Y17304D1*
X22257Y17228D1*
X22313Y17152D1*
X22332Y17076D1*
X22342Y17000D1*
X22347Y16924D1*
X22349Y16848D1*
Y16772D1*
X22350Y16696D1*
Y16620D1*
Y16544D1*
X23946Y18064D2*
X23459Y17988D1*
X22958Y17912D1*
X23119Y17836D1*
X23279Y17760D1*
X23430Y17684D1*
X23566Y17608D1*
X23691Y17532D1*
X23807Y17456D1*
X23913Y17380D1*
X24007Y17304D1*
X24091Y17228D1*
X24171Y17152D1*
X24249Y17076D1*
X24325Y17000D1*
X24399Y16924D1*
X24465Y16848D1*
X24523Y16772D1*
X24576Y16696D1*
X24629Y16620D1*
X24680Y16544D1*
X24731Y16468D1*
X24782Y16392D1*
X24832Y16316D1*
X24882Y16240D1*
X24931Y16164D1*
X24969Y16088D1*
X24994Y16012D1*
X25015Y15936D1*
X25038Y15860D1*
X25059Y15784D1*
X25073Y15708D1*
X25080Y15632D1*
X25083Y15556D1*
X25082Y15480D1*
X25073Y15404D1*
X25054Y15328D1*
X25032Y15252D1*
X25009Y15176D1*
X24981Y15100D1*
X24949Y15024D1*
X24913Y14948D1*
X24876Y14872D1*
X24838Y14796D1*
X24796Y14720D1*
X24747Y14644D1*
X24605Y14568D1*
X24379Y14492D1*
X24098Y14416D1*
X24402Y18064D2*
X24583Y17988D1*
X24722Y17912D1*
X24821Y17836D1*
X24893Y17760D1*
X24956Y17684D1*
X25018Y17608D1*
X25078Y17532D1*
X25133Y17456D1*
X25185Y17380D1*
X25237Y17304D1*
X25285Y17228D1*
X25329Y17152D1*
X25369Y17076D1*
X25408Y17000D1*
X25447Y16924D1*
X25485Y16848D1*
X25522Y16772D1*
X25558Y16696D1*
X25589Y16620D1*
X25616Y16544D1*
X25642Y16468D1*
X25666Y16392D1*
X25680Y16316D1*
X25688Y16240D1*
X25692Y16164D1*
X25696Y16088D1*
X25706Y16012D1*
X25724Y15936D1*
X25744Y15860D1*
X25757Y15784D1*
X25764Y15708D1*
X25768Y15632D1*
X25769Y15556D1*
Y15480D1*
X25770Y15404D1*
Y15328D1*
Y15252D1*
X25769Y15176D1*
X25767Y15100D1*
X25757Y15024D1*
X25739Y14948D1*
X25719Y14872D1*
X25706Y14796D1*
X25699Y14720D1*
X25693Y14644D1*
X25682Y14568D1*
X25663Y14492D1*
X25640Y14416D1*
X25615Y14340D1*
X25579Y14264D1*
X25535Y14188D1*
X25489Y14112D1*
X25434Y14036D1*
X25366Y13960D1*
X25150Y13884D1*
X24787Y13808D1*
X24326Y13732D1*
X23414Y16848D2*
X23376Y16772D1*
X23331Y16696D1*
X23285Y16620D1*
X23236Y16544D1*
X23188Y16468D1*
X23148Y16392D1*
X23116Y16316D1*
X23087Y16240D1*
X23063Y16164D1*
X23047Y16088D1*
X23040Y16012D1*
X23036Y15936D1*
X23035Y15860D1*
X23034Y15784D1*
Y15708D1*
Y15632D1*
Y15556D1*
X23037Y15480D1*
X23046Y15404D1*
X23065Y15328D1*
X23087Y15252D1*
X23110Y15176D1*
X23138Y15100D1*
X23171Y15024D1*
X23207Y14948D1*
X23246Y14872D1*
X23291Y14796D1*
X23340Y14720D1*
X23389Y14644D1*
X23442Y14568D1*
X23503Y14492D1*
X23572Y14416D1*
X23647Y14340D1*
X23731Y14264D1*
X23826Y14188D1*
X23926Y14112D1*
X24041Y14036D1*
X24205Y13960D1*
X24484Y13884D1*
X24924Y13808D1*
X25466Y13732D1*
X23946Y16848D2*
X24068Y16772D1*
X24182Y16696D1*
X24279Y16620D1*
X24352Y16544D1*
X24405Y16468D1*
X24441Y16392D1*
X24461Y16316D1*
X24468Y16240D1*
X24462Y16164D1*
X24446Y16088D1*
X24427Y16012D1*
X24411Y15936D1*
X24394Y15860D1*
X24370Y15784D1*
X24337Y15708D1*
X24296Y15632D1*
X24250Y15556D1*
X21894Y16696D2*
X21742Y16620D1*
X21590Y16544D1*
X21438Y16468D1*
X21818Y16696D2*
X21879Y16620D1*
X21923Y16544D1*
X21949Y16468D1*
X21962Y16392D1*
X21970Y16316D1*
X22198Y16620D2*
X22134Y16544D1*
X22077Y16468D1*
X22024Y16392D1*
X21970Y16316D1*
X22122Y16620D2*
X22274Y16544D1*
X22426Y16468D1*
X23642Y16620D2*
X23569Y16544D1*
X23506Y16468D1*
X23461Y16392D1*
X23435Y16316D1*
X23423Y16240D1*
X23417Y16164D1*
X23412Y16088D1*
X23402Y16012D1*
X23386Y15936D1*
X23376Y15860D1*
X23381Y15784D1*
X23394Y15708D1*
X23404Y15632D1*
X23409Y15556D1*
X23412Y15480D1*
X23416Y15404D1*
X23426Y15328D1*
X23448Y15252D1*
X23480Y15176D1*
X23524Y15100D1*
X23579Y15024D1*
X23636Y14948D1*
X23692Y14872D1*
X23757Y14796D1*
X23839Y14720D1*
X23945Y14644D1*
X24101Y14568D1*
X24339Y14492D1*
X24630Y14416D1*
X23718Y16620D2*
X23855Y16544D1*
X23972Y16468D1*
X24061Y16392D1*
X24128Y16316D1*
X24151Y16240D1*
X24165Y16164D1*
X24148Y16088D1*
X24074Y16012D1*
X23907Y15936D1*
X23718Y15860D1*
Y15936D2*
X23729Y15860D1*
X23768Y15784D1*
X23858Y15708D1*
X23972Y15632D1*
X24098Y15556D1*
X29230Y42256D2*
D17*
Y39959D1*
X29996Y42256D2*
X28464D1*
X27212Y41490D2*
X27430Y41382D1*
X27650Y41162D1*
X27758Y40833D1*
Y40616D1*
X27650Y40287D1*
X27430Y40070D1*
X27212Y39959D1*
X26884D1*
X26664Y40070D1*
X26447Y40287D1*
X26336Y40616D1*
Y40833D1*
X26447Y41162D1*
X26664Y41382D1*
X26884Y41490D1*
X27212D1*
X25630D2*
Y39193D1*
Y41162D2*
X25410Y41379D1*
X25193Y41490D1*
X24864D1*
X24644Y41379D1*
X24427Y41162D1*
X24316Y40833D1*
Y40613D1*
X24427Y40287D1*
X24644Y40068D1*
X24864Y39959D1*
X25193D1*
X25410Y40068D1*
X25630Y40287D1*
X23610Y42256D2*
X23501Y42147D1*
X23390Y42256D1*
X23501Y42367D1*
X23610Y42256D1*
X23501Y41490D2*
Y39959D1*
X21044Y41710D2*
X21153Y41927D1*
X21373Y42147D1*
X21590Y42256D1*
X22027D1*
X22247Y42147D1*
X22464Y41927D1*
X22576Y41710D1*
X22684Y41382D1*
Y40833D1*
X22576Y40507D1*
X22464Y40287D1*
X22247Y40070D1*
X22027Y39959D1*
X21590D1*
X21373Y40070D1*
X21153Y40287D1*
X21044Y40507D1*
X19792Y41490D2*
X20010Y41382D1*
X20230Y41162D1*
X20338Y40833D1*
Y40616D1*
X20230Y40287D1*
X20010Y40070D1*
X19792Y39959D1*
X19464D1*
X19244Y40070D1*
X19027Y40287D1*
X18916Y40616D1*
Y40833D1*
X19027Y41162D1*
X19244Y41382D1*
X19464Y41490D1*
X19792D1*
X18210D2*
Y39959D1*
Y41053D2*
X17881Y41382D1*
X17661Y41490D1*
X17335D1*
X17116Y41382D1*
X17007Y41053D1*
Y39959D1*
X15427Y42256D2*
X15644D1*
X15864Y42147D1*
X15973Y41819D1*
Y39959D1*
X16301Y41490D2*
X15535D1*
X32063Y11366D2*
D58*
Y10783D1*
X32099Y10674D1*
X32135Y10637D1*
X32209Y10601D1*
X32318D1*
X32390Y10637D1*
X32063Y11257D2*
X32135Y11329D1*
X32209Y11366D1*
X32318D1*
X32390Y11329D1*
X32464Y11257D1*
X32500Y11147D1*
Y11074D1*
X32464Y10965D1*
X32390Y10892D1*
X32318Y10856D1*
X32209D1*
X32135Y10892D1*
X32063Y10965D1*
X31828Y11658D2*
X31791Y11622D1*
X31754Y11658D1*
X31791Y11695D1*
X31828Y11658D1*
X31791Y11403D2*
Y10892D1*
X31409Y11658D2*
Y11038D1*
X31373Y10929D1*
X31300Y10892D1*
X31228D1*
X31519Y11403D2*
X31264D1*
X30992Y11658D2*
Y10892D1*
Y11257D2*
X30883Y11366D1*
X30809Y11403D1*
X30700D1*
X30628Y11366D1*
X30591Y11257D1*
Y10892D1*
X30356Y11403D2*
Y11038D1*
X30320Y10929D1*
X30247Y10892D1*
X30137D1*
X30065Y10929D1*
X29955Y11038D1*
Y11403D2*
Y10892D1*
X29720Y11658D2*
Y10892D1*
Y11293D2*
X29646Y11366D1*
X29574Y11403D1*
X29465D1*
X29392Y11366D1*
X29319Y11293D1*
X29283Y11184D1*
Y11111D1*
X29319Y11002D1*
X29392Y10929D1*
X29465Y10892D1*
X29574D1*
X29646Y10929D1*
X29720Y11002D1*
X29011Y10965D2*
X29047Y10928D1*
X29011Y10892D1*
X28974Y10928D1*
X29011Y10965D1*
X28301Y11293D2*
X28374Y11366D1*
X28447Y11403D1*
X28556D1*
X28629Y11366D1*
X28702Y11293D1*
X28739Y11184D1*
Y11111D1*
X28702Y11002D1*
X28629Y10929D1*
X28556Y10892D1*
X28447D1*
X28374Y10929D1*
X28301Y11002D1*
X27884Y11403D2*
X27956Y11366D1*
X28029Y11293D1*
X28065Y11184D1*
Y11111D1*
X28029Y11002D1*
X27956Y10929D1*
X27884Y10892D1*
X27774D1*
X27701Y10929D1*
X27628Y11002D1*
X27591Y11111D1*
Y11184D1*
X27628Y11293D1*
X27701Y11366D1*
X27774Y11403D1*
X27884D1*
X27356D2*
Y10892D1*
Y11257D2*
X27246Y11366D1*
X27173Y11403D1*
X27065D1*
X26991Y11366D1*
X26955Y11257D1*
Y10892D1*
Y11257D2*
X26846Y11366D1*
X26772Y11403D1*
X26664D1*
X26590Y11366D1*
X26553Y11257D1*
Y10892D1*
X26318D2*
X25807Y11657D1*
X25463Y11658D2*
Y11038D1*
X25426Y10929D1*
X25353Y10892D1*
X25281D1*
X25572Y11403D2*
X25317D1*
X24864D2*
X24936Y11366D1*
X25009Y11293D1*
X25045Y11184D1*
Y11111D1*
X25009Y11002D1*
X24936Y10929D1*
X24864Y10892D1*
X24754D1*
X24681Y10929D1*
X24608Y11002D1*
X24571Y11111D1*
Y11184D1*
X24608Y11293D1*
X24681Y11366D1*
X24754Y11403D1*
X24864D1*
X24336D2*
Y10637D1*
Y11293D2*
X24263Y11366D1*
X24190Y11403D1*
X24081D1*
X24007Y11366D1*
X23935Y11293D1*
X23898Y11184D1*
Y11110D1*
X23935Y11002D1*
X24007Y10928D1*
X24081Y10892D1*
X24190D1*
X24263Y10928D1*
X24336Y11002D1*
X23663Y11658D2*
X23626Y11622D1*
X23589Y11658D1*
X23626Y11695D1*
X23663Y11658D1*
X23626Y11403D2*
Y10892D1*
X22916Y11293D2*
X22989Y11366D1*
X23063Y11403D1*
X23171D1*
X23245Y11366D1*
X23317Y11293D1*
X23354Y11184D1*
Y11111D1*
X23317Y11002D1*
X23245Y10929D1*
X23171Y10892D1*
X23063D1*
X22989Y10929D1*
X22916Y11002D1*
X22681Y11403D2*
Y11038D1*
X22645Y10929D1*
X22571Y10892D1*
X22462D1*
X22389Y10929D1*
X22280Y11038D1*
Y11403D2*
Y10892D1*
X21644Y11293D2*
X21680Y11366D1*
X21789Y11403D1*
X21899D1*
X22008Y11366D1*
X22045Y11293D1*
X22008Y11221D1*
X21935Y11184D1*
X21753Y11147D1*
X21680Y11111D1*
X21644Y11038D1*
Y11002D1*
X21680Y10929D1*
X21789Y10892D1*
X21899D1*
X22008Y10929D1*
X22045Y11002D1*
X21226Y11403D2*
X21299Y11366D1*
X21372Y11293D1*
X21408Y11184D1*
Y11111D1*
X21372Y11002D1*
X21299Y10929D1*
X21226Y10892D1*
X21117D1*
X21044Y10929D1*
X20971Y11002D1*
X20934Y11111D1*
Y11184D1*
X20971Y11293D1*
X21044Y11366D1*
X21117Y11403D1*
X21226D1*
X20699D2*
Y10892D1*
Y11257D2*
X20589Y11366D1*
X20516Y11403D1*
X20407D1*
X20334Y11366D1*
X20298Y11257D1*
Y10892D1*
X19625Y11658D2*
Y10892D1*
Y11293D2*
X19698Y11366D1*
X19771Y11403D1*
X19881D1*
X19953Y11366D1*
X20026Y11293D1*
X20063Y11184D1*
Y11111D1*
X20026Y11002D1*
X19953Y10929D1*
X19881Y10892D1*
X19771D1*
X19698Y10929D1*
X19625Y11002D1*
X19390Y11184D2*
X18953D1*
Y11257D1*
X18989Y11330D1*
X19025Y11366D1*
X19099Y11403D1*
X19208D1*
X19281Y11366D1*
X19354Y11293D1*
X19390Y11184D1*
Y11111D1*
X19354Y11002D1*
X19281Y10929D1*
X19208Y10892D1*
X19099D1*
X19025Y10929D1*
X18953Y11002D1*
X18718Y11403D2*
Y10892D1*
Y11184D2*
X18681Y11293D1*
X18608Y11366D1*
X18535Y11403D1*
X18425D1*
X18190D2*
X18044Y10892D1*
X17899Y11403D1*
X17753Y10892D1*
X17607Y11403D1*
X17372Y11658D2*
X17336Y11622D1*
X17299Y11658D1*
X17336Y11695D1*
X17372Y11658D1*
X17336Y11403D2*
Y10892D1*
X16918Y11659D2*
X16881Y11622D1*
X16844Y11659D1*
X16881Y11695D1*
X16918Y11659D1*
X16881Y11403D2*
Y10784D1*
X16918Y10674D1*
X16990Y10638D1*
X17063D1*
X16208Y11293D2*
X16244Y11366D1*
X16354Y11403D1*
X16463D1*
X16573Y11366D1*
X16609Y11293D1*
X16573Y11221D1*
X16500Y11184D1*
X16318Y11147D1*
X16244Y11111D1*
X16208Y11038D1*
Y11002D1*
X16244Y10929D1*
X16354Y10892D1*
X16463D1*
X16573Y10929D1*
X16609Y11002D1*
X15973Y10892D2*
X15462Y11657D1*
X15227Y11658D2*
X15191Y11622D1*
X15154Y11658D1*
X15191Y11695D1*
X15227Y11658D1*
X15191Y11403D2*
Y10892D1*
X14737Y11403D2*
X14809Y11366D1*
X14882Y11293D1*
X14919Y11184D1*
Y11111D1*
X14882Y11002D1*
X14809Y10929D1*
X14737Y10892D1*
X14627D1*
X14554Y10929D1*
X14481Y11002D1*
X14444Y11111D1*
Y11184D1*
X14481Y11293D1*
X14554Y11366D1*
X14627Y11403D1*
X14737D1*
X14100Y11658D2*
Y11038D1*
X14063Y10929D1*
X13990Y10892D1*
X13918D1*
X14209Y11403D2*
X13954D1*
X13245D2*
Y10892D1*
Y11293D2*
X13318Y11366D1*
X13391Y11403D1*
X13499D1*
X13573Y11366D1*
X13645Y11293D1*
X13682Y11184D1*
Y11111D1*
X13645Y11002D1*
X13573Y10929D1*
X13499Y10892D1*
X13391D1*
X13318Y10929D1*
X13245Y11002D1*
X32062Y36533D2*
D57*
Y35512D1*
X32402Y36533D2*
X31722D1*
X31408D2*
X30727Y35512D1*
Y36533D2*
X31408Y35512D1*
X32402Y33506D2*
X31965D1*
X31819Y33556D1*
X31770Y33604D1*
X31722Y33701D1*
Y33798D1*
X31770Y33895D1*
X31819Y33944D1*
X31965Y33993D1*
X32402D1*
Y32972D1*
X32062Y33506D2*
X31722Y32972D1*
X31408Y33993D2*
X30727Y32972D1*
Y33993D2*
X31408Y32972D1*
X32283Y31453D2*
Y30432D1*
X31942D1*
X31796Y30481D1*
X31699Y30578D1*
X31650Y30676D1*
X31602Y30820D1*
Y31064D1*
X31650Y31210D1*
X31699Y31307D1*
X31796Y31404D1*
X31942Y31453D1*
X32283D1*
X31288Y31257D2*
X31191Y31307D1*
X31045Y31452D1*
Y30432D1*
X32402Y28913D2*
Y27892D1*
X32062D1*
X31916Y27941D1*
X31818Y28038D1*
X31770Y28136D1*
X31722Y28280D1*
Y28524D1*
X31770Y28670D1*
X31818Y28767D1*
X31916Y28864D1*
X32062Y28913D1*
X32402D1*
X31358Y28669D2*
Y28717D1*
X31310Y28815D1*
X31262Y28863D1*
X31164Y28912D1*
X30970D1*
X30873Y28863D1*
X30825Y28815D1*
X30776Y28717D1*
Y28621D1*
X30825Y28523D1*
X30922Y28378D1*
X31408Y27892D1*
X30727D1*
X32402Y26373D2*
Y25352D1*
X32062D1*
X31916Y25401D1*
X31818Y25498D1*
X31770Y25596D1*
X31722Y25740D1*
Y25984D1*
X31770Y26130D1*
X31818Y26227D1*
X31916Y26324D1*
X32062Y26373D1*
X32402D1*
X31310Y26372D2*
X30777D1*
X31068Y25983D1*
X30922D1*
X30825Y25935D1*
X30777Y25886D1*
X30727Y25740D1*
Y25644D1*
X30777Y25498D1*
X30873Y25400D1*
X31019Y25352D1*
X31165D1*
X31310Y25400D1*
X31358Y25450D1*
X31408Y25546D1*
X32450Y23833D2*
Y22812D1*
X32110D1*
X31964Y22861D1*
X31866Y22958D1*
X31818Y23056D1*
X31770Y23200D1*
Y23444D1*
X31818Y23590D1*
X31866Y23687D1*
X31964Y23784D1*
X32110Y23833D1*
X32450D1*
X30970Y22812D2*
Y23832D1*
X31456Y23152D1*
X30727D1*
X31680Y21050D2*
X31728Y21147D1*
X31826Y21244D1*
X31922Y21293D1*
X32117D1*
X32214Y21244D1*
X32311Y21147D1*
X32360Y21050D1*
X32409Y20904D1*
Y20660D1*
X32360Y20516D1*
X32311Y20418D1*
X32214Y20321D1*
X32117Y20272D1*
X31922D1*
X31826Y20321D1*
X31728Y20418D1*
X31680Y20516D1*
Y20660D1*
X31922D1*
X32075Y18838D2*
D58*
X32439D1*
X32475Y18510D1*
X32439Y18547D1*
X32330Y18584D1*
X32221D1*
X32112Y18547D1*
X32038Y18474D1*
X32002Y18365D1*
Y18292D1*
X32038Y18183D1*
X32112Y18109D1*
X32221Y18073D1*
X32330D1*
X32439Y18109D1*
X32475Y18147D1*
X32512Y18219D1*
X31767Y18839D2*
X31475Y18073D1*
X31184Y18839D1*
X15616Y36099D2*
D57*
X15180D1*
X15034Y36149D1*
X14984Y36197D1*
X14936Y36293D1*
Y36391D1*
X14984Y36488D1*
X15034Y36537D1*
X15180Y36585D1*
X15616D1*
Y35565D1*
X15276Y36099D2*
X14936Y35565D1*
X13942Y36439D2*
X14038Y36537D1*
X14184Y36585D1*
X14378D1*
X14524Y36537D1*
X14622Y36439D1*
Y36343D1*
X14573Y36245D1*
X14524Y36197D1*
X14428Y36149D1*
X14136Y36051D1*
X14038Y36003D1*
X13990Y35953D1*
X13942Y35857D1*
Y35711D1*
X14038Y35614D1*
X14184Y35565D1*
X14378D1*
X14524Y35614D1*
X14622Y35711D1*
X13288Y36585D2*
Y35565D1*
X13628Y36585D2*
X12947D1*
X13942Y32972D2*
X14331Y33993D1*
X14720Y32972D1*
X14574Y33312D2*
X14088D1*
X13336Y33992D2*
X13482Y33943D1*
X13580Y33797D1*
X13628Y33555D1*
Y33409D1*
X13580Y33166D1*
X13482Y33020D1*
X13336Y32972D1*
X13239D1*
X13093Y33020D1*
X12997Y33166D1*
X12947Y33409D1*
Y33555D1*
X12997Y33797D1*
X13093Y33943D1*
X13239Y33992D1*
X13336D1*
X12997Y33797D2*
X13580Y33166D1*
X14622Y31453D2*
Y30432D1*
X14282D1*
X14136Y30481D1*
X14038Y30578D1*
X13990Y30676D1*
X13942Y30820D1*
Y31064D1*
X13990Y31210D1*
X14038Y31307D1*
X14136Y31404D1*
X14282Y31453D1*
X14622D1*
X13336Y31452D2*
X13482Y31403D1*
X13580Y31257D1*
X13628Y31015D1*
Y30869D1*
X13580Y30626D1*
X13482Y30480D1*
X13336Y30432D1*
X13239D1*
X13093Y30480D1*
X12997Y30626D1*
X12947Y30869D1*
Y31015D1*
X12997Y31257D1*
X13093Y31403D1*
X13239Y31452D1*
X13336D1*
X12997Y31257D2*
X13580Y30626D1*
X14573Y26373D2*
Y25352D1*
X14232D1*
X14086Y25401D1*
X13989Y25498D1*
X13940Y25596D1*
X13892Y25740D1*
Y25984D1*
X13940Y26130D1*
X13989Y26227D1*
X14086Y26324D1*
X14232Y26373D1*
X14573D1*
X12996Y26227D2*
X13044Y26323D1*
X13190Y26372D1*
X13286D1*
X13432Y26323D1*
X13530Y26177D1*
X13578Y25935D1*
Y25692D1*
X13530Y25498D1*
X13432Y25400D1*
X13286Y25352D1*
X13238D1*
X13093Y25400D1*
X12996Y25498D1*
X12947Y25644D1*
Y25692D1*
X12996Y25838D1*
X13093Y25935D1*
X13238Y25983D1*
X13286D1*
X13432Y25935D1*
X13530Y25838D1*
X13578Y25692D1*
X14622Y23833D2*
Y22812D1*
X14282D1*
X14136Y22861D1*
X14038Y22958D1*
X13990Y23056D1*
X13942Y23200D1*
Y23444D1*
X13990Y23590D1*
X14038Y23687D1*
X14136Y23784D1*
X14282Y23833D1*
X14622D1*
X13434Y22812D2*
X12947Y23832D1*
X13628D1*
X14621Y21293D2*
Y20272D1*
X14281D1*
X14135Y20321D1*
X14037Y20418D1*
X13989Y20516D1*
X13940Y20660D1*
Y20904D1*
X13989Y21050D1*
X14037Y21147D1*
X14135Y21244D1*
X14281Y21293D1*
X14621D1*
X13384Y21292D2*
X13529Y21243D1*
X13578Y21147D1*
Y21049D1*
X13529Y20952D1*
X13432Y20903D1*
X13238Y20855D1*
X13092Y20806D1*
X12996Y20709D1*
X12947Y20612D1*
Y20466D1*
X12996Y20370D1*
X13044Y20320D1*
X13190Y20272D1*
X13384D1*
X13529Y20320D1*
X13578Y20370D1*
X13627Y20466D1*
Y20612D1*
X13578Y20709D1*
X13481Y20806D1*
X13336Y20855D1*
X13142Y20903D1*
X13044Y20952D1*
X12996Y21049D1*
Y21147D1*
X13044Y21243D1*
X13190Y21292D1*
X13384D1*
X15615Y18752D2*
X15082D1*
X15373Y18363D1*
X15227D1*
X15130Y18315D1*
X15082Y18266D1*
X15032Y18120D1*
Y18024D1*
X15082Y17878D1*
X15178Y17780D1*
X15324Y17732D1*
X15470D1*
X15615Y17780D1*
X15664Y17830D1*
X15713Y17926D1*
X14719Y18753D2*
X14330Y17732D1*
X13942Y18753D1*
X13530Y18752D2*
X12997D1*
X13288Y18363D1*
X13142D1*
X13045Y18315D1*
X12997Y18266D1*
X12947Y18120D1*
Y18024D1*
X12997Y17878D1*
X13093Y17780D1*
X13239Y17732D1*
X13385D1*
X13530Y17780D1*
X13578Y17830D1*
X13628Y17926D1*
X14622Y28913D2*
Y27892D1*
X14282D1*
X14136Y27941D1*
X14038Y28038D1*
X13990Y28136D1*
X13942Y28280D1*
Y28524D1*
X13990Y28670D1*
X14038Y28767D1*
X14136Y28864D1*
X14282Y28913D1*
X14622D1*
X13045Y28912D2*
X13530D1*
X13578Y28475D1*
X13530Y28523D1*
X13384Y28572D1*
X13239D1*
X13093Y28523D1*
X12996Y28426D1*
X12947Y28280D1*
Y28184D1*
X12996Y28038D1*
X13093Y27940D1*
X13239Y27892D1*
X13384D1*
X13530Y27940D1*
X13578Y27990D1*
X13628Y28086D1*
X26275Y37421D2*
D17*
Y37530D1*
X26166Y37749D1*
X26057Y37858D1*
X25838Y37967D1*
X25400D1*
X25183Y37858D1*
X25074Y37749D1*
X24963Y37530D1*
Y37312D1*
X25074Y37092D1*
X25292Y36766D1*
X26386Y35672D1*
X24855D1*
X23492Y37967D2*
X23820Y37858D1*
X24040Y37530D1*
X24149Y36984D1*
Y36655D1*
X24040Y36109D1*
X23820Y35781D1*
X23492Y35672D1*
X23274D1*
X22946Y35781D1*
X22729Y36109D1*
X22617Y36655D1*
Y36984D1*
X22729Y37530D1*
X22946Y37858D1*
X23274Y37967D1*
X23492D1*
X22729Y37530D2*
X24040Y36109D1*
X21912Y37530D2*
X21692Y37641D1*
X21363Y37967D1*
Y35672D1*
X19346Y37641D2*
X19454Y37858D1*
X19783Y37967D1*
X20000D1*
X20329Y37858D1*
X20549Y37530D1*
X20657Y36984D1*
Y36438D1*
X20549Y36001D1*
X20329Y35781D1*
X20000Y35672D1*
X19892D1*
X19566Y35781D1*
X19346Y36001D1*
X19237Y36329D1*
Y36438D1*
X19346Y36766D1*
X19566Y36984D1*
X19892Y37092D1*
X20000D1*
X20329Y36984D1*
X20549Y36766D1*
X20657Y36438D1*
X28970Y13441D2*
D58*
Y12676D1*
X28642D1*
X28532Y12713D1*
X28496Y12749D1*
X28460Y12821D1*
Y12931D1*
X28496Y13004D1*
X28532Y13040D1*
X28642Y13077D1*
X28532Y13114D1*
X28496Y13150D1*
X28460Y13222D1*
Y13296D1*
X28496Y13368D1*
X28532Y13405D1*
X28642Y13441D1*
X28970D1*
Y13077D2*
X28642D1*
X27788Y13186D2*
Y12676D1*
Y13077D2*
X27860Y13150D1*
X27933Y13186D1*
X28042D1*
X28115Y13150D1*
X28188Y13077D1*
X28225Y12967D1*
Y12895D1*
X28188Y12785D1*
X28115Y12713D1*
X28042Y12676D1*
X27933D1*
X27860Y12713D1*
X27788Y12785D1*
X27552Y13186D2*
Y12676D1*
Y12967D2*
X27515Y13077D1*
X27443Y13150D1*
X27369Y13186D1*
X27260D1*
X26915Y13441D2*
Y12821D1*
X26879Y12713D1*
X26806Y12676D1*
X26733D1*
X27025Y13186D2*
X26769D1*
X25757Y13641D2*
Y12475D1*
X24417Y13441D2*
Y12858D1*
X24453Y12749D1*
X24490Y12713D1*
X24562Y12676D1*
X24636D1*
X24708Y12713D1*
X24744Y12749D1*
X24781Y12858D1*
Y12931D1*
X24181Y12967D2*
X23744D1*
Y13040D1*
X23780Y13114D1*
X23817Y13150D1*
X23890Y13186D1*
X23999D1*
X24072Y13150D1*
X24145Y13077D1*
X24181Y12967D1*
Y12895D1*
X24145Y12785D1*
X24072Y12713D1*
X23999Y12676D1*
X23890D1*
X23817Y12713D1*
X23744Y12785D1*
X23509Y13186D2*
Y12676D1*
Y12967D2*
X23472Y13077D1*
X23399Y13150D1*
X23326Y13186D1*
X23217D1*
X22799D2*
X22872Y13150D1*
X22945Y13077D1*
X22981Y12967D1*
Y12895D1*
X22945Y12785D1*
X22872Y12713D1*
X22799Y12676D1*
X22690D1*
X22617Y12713D1*
X22544Y12785D1*
X22507Y12895D1*
Y12967D1*
X22544Y13077D1*
X22617Y13150D1*
X22690Y13186D1*
X22799D1*
X22272Y12967D2*
X21835D1*
Y13040D1*
X21871Y13114D1*
X21907Y13150D1*
X21980Y13186D1*
X22090D1*
X22162Y13150D1*
X22236Y13077D1*
X22272Y12967D1*
Y12895D1*
X22236Y12785D1*
X22162Y12713D1*
X22090Y12676D1*
X21980D1*
X21907Y12713D1*
X21835Y12785D1*
X21599Y13186D2*
Y12676D1*
Y13040D2*
X21490Y13150D1*
X21416Y13186D1*
X21308D1*
X21235Y13150D1*
X21198Y13040D1*
Y12676D1*
X20222Y13641D2*
Y12475D1*
X18991Y13441D2*
Y12676D1*
X19246Y13441D2*
X18736D1*
X18501D2*
Y12676D1*
Y13040D2*
X18391Y13150D1*
X18318Y13186D1*
X18208D1*
X18136Y13150D1*
X18100Y13040D1*
Y12676D1*
X17864Y13441D2*
X17828Y13405D1*
X17791Y13441D1*
X17828Y13478D1*
X17864Y13441D1*
X17828Y13186D2*
Y12676D1*
X17410Y13442D2*
X17373Y13406D1*
X17337Y13442D1*
X17373Y13478D1*
X17410Y13442D1*
X17373Y13187D2*
Y12567D1*
X17410Y12457D1*
X17483Y12421D1*
X17556D1*
X16701Y13077D2*
X16737Y13150D1*
X16846Y13186D1*
X16956D1*
X17065Y13150D1*
X17102Y13077D1*
X17065Y13004D1*
X16992Y12967D1*
X16810Y12931D1*
X16737Y12895D1*
X16701Y12821D1*
Y12785D1*
X16737Y12713D1*
X16846Y12676D1*
X16956D1*
X17065Y12713D1*
X17102Y12785D1*
M02*
