G04 DipTrace 2.4.0.2*
%INiota.GTS*%
%MOMM*%
%ADD32C,1.8*%
%ADD36R,0.8X2.2*%
%ADD38R,2.2X1.3*%
%ADD40C,2.2*%
%ADD42R,2.2X2.2*%
%ADD44R,1.8X1.2*%
%ADD46R,1.8X1.0*%
%ADD48C,1.7*%
%ADD50R,1.7X1.7*%
%ADD52R,1.7X1.5*%
%ADD54R,1.5X1.7*%
%FSLAX53Y53*%
G04*
G71*
G90*
G75*
G01*
%LNTopMask*%
%LPD*%
D54*
X16661Y36156D3*
X14761D3*
X30661D3*
X28761D3*
D52*
X31711Y14206D3*
Y16106D3*
X22711Y38586D3*
Y36686D3*
D50*
X34141Y18266D3*
D48*
Y20806D3*
Y23346D3*
Y25886D3*
Y28426D3*
Y30966D3*
Y33506D3*
Y36046D3*
D50*
X11281Y18266D3*
D48*
Y20806D3*
Y23346D3*
Y25886D3*
Y28426D3*
Y30966D3*
Y33506D3*
Y36046D3*
D46*
X15936Y14606D3*
Y15706D3*
D44*
X19486Y15156D3*
D52*
X13711Y14206D3*
Y16106D3*
D54*
X23664Y34776D3*
X21764D3*
D42*
X16461Y29656D3*
D40*
X28961D3*
X16461Y24656D3*
X28961D3*
D32*
X22711Y31656D3*
Y22656D3*
D38*
X13311Y41856D3*
Y40156D3*
Y38456D3*
X18111D3*
Y40156D3*
Y41856D3*
X27311D3*
Y40156D3*
Y38456D3*
X32111D3*
Y40156D3*
Y41856D3*
D36*
X29616Y17856D3*
X28346D3*
X27076D3*
X25806D3*
Y12456D3*
X27076D3*
X28346D3*
X29616D3*
M02*
