G04 DipTrace 3.0.0.2*
G04 iota.GTO*
%MOMM*%
G04 #@! TF.FileFunction,Legend,Top*
G04 #@! TF.Part,Single*
%ADD10C,0.25*%
%ADD12C,0.0762*%
%ADD26O,0.60074X0.59977*%
%ADD61C,0.15686*%
%ADD62C,0.35294*%
%FSLAX35Y35*%
G04*
G71*
G90*
G75*
G01*
G04 TopSilk*
%LPD*%
X1771182Y3680579D2*
D10*
Y3550679D1*
X3171182Y3680579D2*
Y3550679D1*
X3236079Y1315575D2*
X3106179D1*
X2206179Y3953575D2*
X2336079D1*
X1485379Y1642629D2*
X2056879D1*
Y1388629D1*
X1485379D1*
Y1642629D1*
X1916169Y2715629D2*
G02X1916169Y2715629I354960J0D01*
G01*
X1671119Y2335589D2*
Y2115629D1*
X2871139D1*
Y2335589D1*
X1671119Y3095669D2*
Y3315629D1*
X2871139D1*
Y3095669D1*
X1671119Y2595629D2*
Y2835629D1*
X2871139D2*
Y2595629D1*
X1841191Y4265621D2*
X1301119D1*
X1841191Y3765627D2*
X1301119D1*
D26*
X1199512Y4280888D3*
X3241191Y4265621D2*
D10*
X2701119D1*
X3241191Y3765627D2*
X2701119D1*
D26*
X2599512Y4280888D3*
X3021134Y1645647D2*
D10*
X2521124D1*
X3021134Y1385611D2*
X2521124D1*
Y1645647D2*
Y1385611D1*
X3021134Y1565653D2*
Y1645647D1*
Y1465605D2*
Y1385611D1*
Y1565653D2*
G03X3021134Y1465605I23J-50024D01*
G01*
X1992999Y4390759D2*
D12*
X2031099D1*
X2084439D2*
X2137779D1*
X2229219D2*
D3*
X2252079D2*
D3*
X1993029Y4383139D2*
X2025495D1*
X2073273D2*
X2153831D1*
X2228638D2*
X2229219D1*
X2252079D2*
D3*
X1993356Y4375519D2*
X2013929D1*
X2063298D2*
X2165909D1*
X2226715D2*
X2252079D1*
X1994160Y4367899D2*
X2000619D1*
X2053959D2*
X2175063D1*
X2223360D2*
X2256181D1*
X1998490Y4360279D2*
X2020973D1*
X2061579D2*
X2179147D1*
X2219776D2*
X2261613D1*
X2012861Y4352659D2*
X2038953D1*
X2069199D2*
X2181536D1*
X2220089D2*
X2268096D1*
X2034860Y4345039D2*
X2051932D1*
X2076819D2*
X2182692D1*
X2225723D2*
X2274927D1*
X2061579Y4337419D2*
X2061219D1*
X2084439D2*
X2183189D1*
X2233595D2*
X2281049D1*
X2046339Y4329799D2*
X2069199D1*
X2092059D2*
X2130159D1*
X2145399D2*
X2183326D1*
X2242715D2*
X2286107D1*
X2053959Y4322179D2*
X2182834D1*
X2252079D2*
X2287428D1*
X2061549Y4314559D2*
X2181528D1*
X2234804D2*
X2284697D1*
X2068879Y4306939D2*
X2176115D1*
X2217030D2*
X2277029D1*
X2075321Y4299319D2*
X2163131D1*
X2200612D2*
X2267384D1*
X2080336Y4291699D2*
X2144634D1*
X2186184D2*
X2255894D1*
X2084439Y4284079D2*
X2122539D1*
X2171544D2*
X2242752D1*
X2154632Y4276459D2*
X2228566D1*
X2135325Y4268839D2*
X2213979D1*
X2114919Y4261219D2*
X2225116D1*
X2328279D2*
X2335899D1*
X2119934Y4253599D2*
X2234925D1*
X2323554D2*
X2338794D1*
X2125256Y4245979D2*
X2243652D1*
X2319208D2*
X2342068D1*
X2131104Y4238359D2*
X2183499D1*
X2198739D2*
X2251763D1*
X2315127D2*
X2345631D1*
X2069199Y4230739D2*
D3*
X2136441D2*
X2259582D1*
X2311185D2*
X2349530D1*
X2069511Y4223119D2*
X2076819D1*
X2114919D2*
D3*
X2140641D2*
X2175879D1*
X2191119D2*
X2267278D1*
X2307125D2*
X2353929D1*
X2389239D2*
D3*
X2070694Y4215499D2*
X2080893D1*
X2112245D2*
X2114919D1*
X2140485D2*
X2175879D1*
X2191119D2*
X2274925D1*
X2302662D2*
X2358759D1*
X2373999D2*
X2381619D1*
X2046339Y4207879D2*
D3*
X2073301D2*
X2086158D1*
X2109654D2*
X2114919D1*
X2139248D2*
X2282559D1*
X2297799D2*
X2385693D1*
X2049264Y4200259D2*
X2061579D1*
X2076819D2*
X2092059D1*
X2107299D2*
X2114919D1*
X2137208D2*
X2167051D1*
X2183819D2*
X2311861D1*
X2337082D2*
X2390958D1*
X2052806Y4192639D2*
X2114919D1*
X2134058D2*
X2164865D1*
X2185093D2*
X2267639D1*
X2281091D2*
X2309972D1*
X2339035D2*
X2396859D1*
X2057316Y4185019D2*
X2114919D1*
X2130159D2*
X2161653D1*
X2188188D2*
X2253673D1*
X2270635D2*
X2307999D1*
X2341323D2*
X2381619D1*
X2062842Y4177399D2*
X2157492D1*
X2193236D2*
X2241528D1*
X2259483D2*
X2306664D1*
X2343519D2*
X2389239D1*
X2068614Y4169779D2*
X2152678D1*
X2199610D2*
X2231328D1*
X2249546D2*
X2306016D1*
X2074299Y4162159D2*
X2147514D1*
X2206674D2*
X2222405D1*
X2241743D2*
X2306228D1*
X2080962Y4154539D2*
X2141093D1*
X2213979D2*
D3*
X2235315D2*
X2307310D1*
X2089680Y4146919D2*
X2132479D1*
X2229568D2*
X2311744D1*
X2412099D2*
X2434959D1*
X2099679Y4139299D2*
X2122539D1*
X2224592D2*
X2316775D1*
X2395159D2*
X2454309D1*
X2220447Y4131679D2*
X2297769D1*
X2313009D2*
X2321584D1*
X2382168D2*
X2470383D1*
X2217328Y4124059D2*
X2297501D1*
X2312741D2*
X2326227D1*
X2372505D2*
X2418119D1*
X2422876D2*
X2483269D1*
X2215237Y4116439D2*
X2296530D1*
X2311770D2*
X2331297D1*
X2368876D2*
X2399897D1*
X2444103D2*
X2493399D1*
X2213362Y4108819D2*
X2252109D1*
X2274626D2*
X2294704D1*
X2309945D2*
X2337319D1*
X2368728D2*
X2386262D1*
X2412099D2*
X2427339D1*
X2460082D2*
X2501055D1*
X2211139Y4101199D2*
X2244816D1*
X2281063D2*
X2292731D1*
X2307991D2*
X2344122D1*
X2370232D2*
X2387282D1*
X2419719D2*
X2429564D1*
X2472265D2*
X2506986D1*
X2208995Y4093579D2*
X2238401D1*
X2286077D2*
X2291286D1*
X2306692D2*
X2351376D1*
X2373184D2*
X2389239D1*
X2412099D2*
X2431210D1*
X2481576D2*
X2509133D1*
X2207315Y4085959D2*
X2232791D1*
X2290179D2*
D3*
X2306253D2*
X2358847D1*
X2377480D2*
X2427985D1*
X2489031D2*
X2510296D1*
X2205408Y4078339D2*
X2236571D1*
X2306931D2*
X2366408D1*
X2383061D2*
X2417322D1*
X2495919D2*
X2510821D1*
X2202459Y4070719D2*
X2249839D1*
X2308950D2*
X2373999D1*
X2389239D2*
X2403860D1*
X2487674D2*
X2511034D1*
X2198739Y4063099D2*
X2268538D1*
X2312389D2*
X2389239D1*
X2477687D2*
X2511115D1*
X2210433Y4055479D2*
X2290179D1*
X2317794D2*
X2404002D1*
X2464855D2*
X2511144D1*
X2223318Y4047859D2*
X2286371D1*
X2325664D2*
X2419719D1*
X2450199D2*
X2511124D1*
X2236839Y4040239D2*
X2283176D1*
X2335613D2*
X2510770D1*
X2229219Y4032619D2*
X2279974D1*
X2347542D2*
X2509879D1*
X2221599Y4024999D2*
X2276552D1*
X2361925D2*
X2505168D1*
X2233743Y4017379D2*
X2273129D1*
X2378741D2*
X2493836D1*
X2244459Y4009759D2*
X2270038D1*
X2396859D2*
X2480679D1*
X2236839Y4002139D2*
X2244459D1*
X2259699D2*
X2267319D1*
X2238109Y2073009D2*
X2306689D1*
X2235504Y2065389D2*
X2306979D1*
X2233236Y2057769D2*
X2307956D1*
X2231762Y2050149D2*
X2309782D1*
X2230747Y2042529D2*
X2311766D1*
X2229321Y2034909D2*
X2313482D1*
X2108569Y2027289D2*
X2123809D1*
X2227127D2*
X2315324D1*
X2413369D2*
X2428609D1*
X2100949Y2019669D2*
X2135503D1*
X2221208D2*
X2321175D1*
X2402947D2*
X2437406D1*
X2093359Y2012049D2*
X2148388D1*
X2208013D2*
X2335557D1*
X2389979D2*
X2446886D1*
X2086036Y2004429D2*
X2161909D1*
X2192389D2*
X2352409D1*
X2375269D2*
X2456151D1*
X2079715Y1996809D2*
X2463539D1*
X2074562Y1989189D2*
X2468929D1*
X2073107Y1981569D2*
X2468742D1*
X2075734Y1973949D2*
X2465190D1*
X2080178Y1966329D2*
X2461014D1*
X2085420Y1958709D2*
X2456094D1*
X2090610Y1951089D2*
X2450387D1*
X2096017Y1943469D2*
X2444880D1*
X2102102Y1935849D2*
X2440177D1*
X2108569Y1928229D2*
X2438699D1*
X2103844Y1920609D2*
X2440249D1*
X2099439Y1912989D2*
X2442877D1*
X2094703Y1905369D2*
X2446550D1*
X2089160Y1897749D2*
X2246339D1*
X2297571D2*
X2451169D1*
X2076461Y1890129D2*
X2233350D1*
X2309618D2*
X2462533D1*
X2060464Y1882509D2*
X2223061D1*
X2319522D2*
X2477609D1*
X2045278Y1874889D2*
X2215121D1*
X2327379D2*
X2492292D1*
X2033091Y1867269D2*
X2208855D1*
X2333411D2*
X2504189D1*
X2028001Y1859649D2*
X2204499D1*
X2338022D2*
X2509211D1*
X2026248Y1852029D2*
X2202036D1*
X2341299D2*
X2510945D1*
X2025356Y1844409D2*
X2200846D1*
X2343164D2*
X2511827D1*
X2024976Y1836789D2*
X2200362D1*
X2343826D2*
X2512203D1*
X2024859Y1829169D2*
X2200425D1*
X2343232D2*
X2512349D1*
X2025223Y1821549D2*
X2201349D1*
X2341272D2*
X2512401D1*
X2026271Y1813929D2*
X2203474D1*
X2338111D2*
X2512420D1*
X2032534Y1806309D2*
X2206955D1*
X2333681D2*
X2512426D1*
X2047531Y1798689D2*
X2212345D1*
X2327697D2*
X2512429D1*
X2063677Y1791069D2*
X2219925D1*
X2320326D2*
X2488424D1*
X2076897Y1783449D2*
X2228595D1*
X2312584D2*
X2470789D1*
X2086996Y1775829D2*
X2237241D1*
X2305487D2*
X2457790D1*
X2091464Y1768209D2*
X2245729D1*
X2302580D2*
X2451613D1*
X2095083Y1760589D2*
X2241004D1*
X2303581D2*
X2446642D1*
X2097573Y1752969D2*
X2236658D1*
X2305892D2*
X2442885D1*
X2098917Y1745349D2*
X2232577D1*
X2309021D2*
X2440141D1*
X2097100Y1737729D2*
X2228659D1*
X2312565D2*
X2441382D1*
X2094113Y1730109D2*
X2224797D1*
X2316266D2*
X2446050D1*
X2089836Y1722489D2*
X2220976D1*
X2320046D2*
X2451259D1*
X2084427Y1714869D2*
X2217184D1*
X2323837D2*
X2456378D1*
X2079045Y1707249D2*
X2213616D1*
X2327619D2*
X2461456D1*
X2074402Y1699629D2*
X2210532D1*
X2331183D2*
X2466052D1*
X2073054Y1692009D2*
X2207844D1*
X2334289D2*
X2469587D1*
X2075741Y1684389D2*
X2205091D1*
X2337183D2*
X2467975D1*
X2080467Y1676769D2*
X2202427D1*
X2340694D2*
X2461080D1*
X2086683Y1669149D2*
X2154289D1*
X2184769D2*
X2200009D1*
X2344789D2*
X2360029D1*
X2381488D2*
X2452936D1*
X2093680Y1661529D2*
X2146669D1*
X2394054D2*
X2444557D1*
X2100949Y1653909D2*
X2139049D1*
X2405749D2*
X2436229D1*
X1992999Y4390759D2*
X1993029Y4383139D1*
X1993356Y4375519D1*
X1994160Y4367899D1*
X1998490Y4360279D1*
X2012861Y4352659D1*
X2034860Y4345039D1*
X2061579Y4337419D1*
X2046339Y4329799D1*
X2053959Y4322179D1*
X2061549Y4314559D1*
X2068879Y4306939D1*
X2075321Y4299319D1*
X2080336Y4291699D1*
X2084439Y4284079D1*
X2031099Y4390759D2*
X2025495Y4383139D1*
X2013929Y4375519D1*
X2000619Y4367899D1*
X2020973Y4360279D1*
X2038953Y4352659D1*
X2051932Y4345039D1*
X2061219Y4337419D1*
X2069199Y4329799D1*
X2084439Y4390759D2*
X2073273Y4383139D1*
X2063298Y4375519D1*
X2053959Y4367899D1*
X2061579Y4360279D1*
X2069199Y4352659D1*
X2076819Y4345039D1*
X2084439Y4337419D1*
X2092059Y4329799D1*
X2137779Y4390759D2*
X2153831Y4383139D1*
X2165909Y4375519D1*
X2175063Y4367899D1*
X2179147Y4360279D1*
X2181536Y4352659D1*
X2182692Y4345039D1*
X2183189Y4337419D1*
X2183326Y4329799D1*
X2182834Y4322179D1*
X2181528Y4314559D1*
X2176115Y4306939D1*
X2163131Y4299319D1*
X2144634Y4291699D1*
X2122539Y4284079D1*
X2229219Y4390759D2*
X2228638Y4383139D1*
X2226715Y4375519D1*
X2223360Y4367899D1*
X2219776Y4360279D1*
X2220089Y4352659D1*
X2225723Y4345039D1*
X2233595Y4337419D1*
X2242715Y4329799D1*
X2252079Y4322179D1*
X2234804Y4314559D1*
X2217030Y4306939D1*
X2200612Y4299319D1*
X2186184Y4291699D1*
X2171544Y4284079D1*
X2154632Y4276459D1*
X2135325Y4268839D1*
X2114919Y4261219D1*
X2119934Y4253599D1*
X2125256Y4245979D1*
X2131104Y4238359D1*
X2136441Y4230739D1*
X2140641Y4223119D1*
X2140485Y4215499D1*
X2139248Y4207879D1*
X2137208Y4200259D1*
X2134058Y4192639D1*
X2130159Y4185019D1*
X2252079Y4390759D2*
Y4383139D1*
Y4375519D2*
X2256181Y4367899D1*
X2261613Y4360279D1*
X2268096Y4352659D1*
X2274927Y4345039D1*
X2281049Y4337419D1*
X2286107Y4329799D1*
X2287428Y4322179D1*
X2284697Y4314559D1*
X2277029Y4306939D1*
X2267384Y4299319D1*
X2255894Y4291699D1*
X2242752Y4284079D1*
X2228566Y4276459D1*
X2213979Y4268839D1*
X2225116Y4261219D1*
X2234925Y4253599D1*
X2243652Y4245979D1*
X2251763Y4238359D1*
X2259582Y4230739D1*
X2267278Y4223119D1*
X2274925Y4215499D1*
X2282559Y4207879D1*
X2137779Y4337419D2*
X2130159Y4329799D1*
X2137779Y4337419D2*
X2145399Y4329799D1*
X2328279Y4261219D2*
X2323554Y4253599D1*
X2319208Y4245979D1*
X2315127Y4238359D1*
X2311185Y4230739D1*
X2307125Y4223119D1*
X2302662Y4215499D1*
X2297799Y4207879D1*
X2335899Y4261219D2*
X2338794Y4253599D1*
X2342068Y4245979D1*
X2345631Y4238359D1*
X2349530Y4230739D1*
X2353929Y4223119D1*
X2358759Y4215499D1*
X2191119Y4245979D2*
X2183499Y4238359D1*
X2191119Y4245979D2*
X2198739Y4238359D1*
X2069199Y4230739D2*
X2069511Y4223119D1*
X2070694Y4215499D1*
X2073301Y4207879D1*
X2076819Y4200259D1*
Y4223119D2*
X2080893Y4215499D1*
X2086158Y4207879D1*
X2092059Y4200259D1*
X2114919Y4223119D2*
X2112245Y4215499D1*
X2109654Y4207879D1*
X2107299Y4200259D1*
X2175879Y4230739D2*
Y4223119D1*
Y4215499D1*
X2191119Y4230739D2*
Y4223119D1*
Y4215499D1*
X2389239Y4223119D2*
X2373999Y4215499D2*
X2381619D2*
X2385693Y4207879D1*
X2390958Y4200259D1*
X2396859Y4192639D1*
X2381619Y4185019D1*
X2389239Y4177399D1*
X2046339Y4207879D2*
X2049264Y4200259D1*
X2052806Y4192639D1*
X2057316Y4185019D1*
X2062842Y4177399D1*
X2068614Y4169779D1*
X2074299Y4162159D1*
X2080962Y4154539D1*
X2089680Y4146919D1*
X2099679Y4139299D1*
X2114919Y4207879D2*
Y4200259D1*
Y4192639D1*
Y4185019D1*
X2061579Y4200259D2*
X2168259Y4207879D2*
X2167051Y4200259D1*
X2164865Y4192639D1*
X2161653Y4185019D1*
X2157492Y4177399D1*
X2152678Y4169779D1*
X2147514Y4162159D1*
X2141093Y4154539D1*
X2132479Y4146919D1*
X2122539Y4139299D1*
X2183499Y4207879D2*
X2183819Y4200259D1*
X2185093Y4192639D1*
X2188188Y4185019D1*
X2193236Y4177399D1*
X2199610Y4169779D1*
X2206674Y4162159D1*
X2213979Y4154539D1*
X2313039Y4207879D2*
X2311861Y4200259D1*
X2309972Y4192639D1*
X2307999Y4185019D1*
X2306664Y4177399D1*
X2306016Y4169779D1*
X2306228Y4162159D1*
X2307310Y4154539D1*
X2311744Y4146919D1*
X2316775Y4139299D1*
X2321584Y4131679D1*
X2326227Y4124059D1*
X2331297Y4116439D1*
X2337319Y4108819D1*
X2344122Y4101199D1*
X2351376Y4093579D1*
X2358847Y4085959D1*
X2366408Y4078339D1*
X2373999Y4070719D1*
X2335899Y4207879D2*
X2337082Y4200259D1*
X2339035Y4192639D1*
X2341323Y4185019D1*
X2343519Y4177399D1*
X2282559Y4200259D2*
X2267639Y4192639D1*
X2253673Y4185019D1*
X2241528Y4177399D1*
X2231328Y4169779D1*
X2222405Y4162159D1*
X2213979Y4154539D1*
X2290179Y4200259D2*
X2281091Y4192639D1*
X2270635Y4185019D1*
X2259483Y4177399D1*
X2249546Y4169779D1*
X2241743Y4162159D1*
X2235315Y4154539D1*
X2229568Y4146919D1*
X2224592Y4139299D1*
X2220447Y4131679D1*
X2217328Y4124059D1*
X2215237Y4116439D1*
X2213362Y4108819D1*
X2211139Y4101199D1*
X2208995Y4093579D1*
X2207315Y4085959D1*
X2205408Y4078339D1*
X2202459Y4070719D1*
X2198739Y4063099D1*
X2210433Y4055479D1*
X2223318Y4047859D1*
X2236839Y4040239D1*
X2229219Y4032619D1*
X2221599Y4024999D1*
X2233743Y4017379D1*
X2244459Y4009759D1*
X2236839Y4002139D1*
X2412099Y4146919D2*
X2395159Y4139299D1*
X2382168Y4131679D1*
X2372505Y4124059D1*
X2368876Y4116439D1*
X2368728Y4108819D1*
X2370232Y4101199D1*
X2373184Y4093579D1*
X2377480Y4085959D1*
X2383061Y4078339D1*
X2389239Y4070719D1*
X2434959Y4146919D2*
X2454309Y4139299D1*
X2470383Y4131679D1*
X2483269Y4124059D1*
X2493399Y4116439D1*
X2501055Y4108819D1*
X2506986Y4101199D1*
X2509133Y4093579D1*
X2510296Y4085959D1*
X2510821Y4078339D1*
X2511034Y4070719D1*
X2511115Y4063099D1*
X2511144Y4055479D1*
X2511124Y4047859D1*
X2510770Y4040239D1*
X2509879Y4032619D1*
X2505168Y4024999D1*
X2493836Y4017379D1*
X2480679Y4009759D1*
X2297799Y4139299D2*
X2297769Y4131679D1*
X2297501Y4124059D1*
X2296530Y4116439D1*
X2294704Y4108819D1*
X2292731Y4101199D1*
X2291286Y4093579D1*
X2290179Y4085959D1*
X2313039Y4139299D2*
X2313009Y4131679D1*
X2312741Y4124059D1*
X2311770Y4116439D1*
X2309945Y4108819D1*
X2307991Y4101199D1*
X2306692Y4093579D1*
X2306253Y4085959D1*
X2306931Y4078339D1*
X2308950Y4070719D1*
X2312389Y4063099D1*
X2317794Y4055479D1*
X2325664Y4047859D1*
X2335613Y4040239D1*
X2347542Y4032619D1*
X2361925Y4024999D1*
X2378741Y4017379D1*
X2396859Y4009759D1*
X2442579Y4131679D2*
X2418119Y4124059D1*
X2399897Y4116439D1*
X2386262Y4108819D1*
X2387282Y4101199D1*
X2389239Y4093579D1*
X2396859Y4131679D2*
X2422876Y4124059D1*
X2444103Y4116439D1*
X2460082Y4108819D1*
X2472265Y4101199D1*
X2481576Y4093579D1*
X2489031Y4085959D1*
X2495919Y4078339D1*
X2487674Y4070719D1*
X2477687Y4063099D1*
X2464855Y4055479D1*
X2450199Y4047859D1*
X2259699Y4116439D2*
X2252109Y4108819D1*
X2244816Y4101199D1*
X2238401Y4093579D1*
X2232791Y4085959D1*
X2236571Y4078339D1*
X2249839Y4070719D1*
X2268538Y4063099D1*
X2290179Y4055479D1*
X2286371Y4047859D1*
X2283176Y4040239D1*
X2279974Y4032619D1*
X2276552Y4024999D1*
X2273129Y4017379D1*
X2270038Y4009759D1*
X2267319Y4002139D1*
Y4116439D2*
X2274626Y4108819D1*
X2281063Y4101199D1*
X2286077Y4093579D1*
X2290179Y4085959D1*
X2412099Y4108819D2*
X2419719Y4101199D1*
X2412099Y4093579D1*
X2427339Y4108819D2*
X2429564Y4101199D1*
X2431210Y4093579D1*
X2427985Y4085959D1*
X2417322Y4078339D1*
X2403860Y4070719D1*
X2389239Y4063099D1*
X2404002Y4055479D1*
X2419719Y4047859D1*
X2244459Y4002139D2*
X2252079Y4009759D2*
X2259699Y4002139D1*
X2238109Y2073009D2*
X2235504Y2065389D1*
X2233236Y2057769D1*
X2231762Y2050149D1*
X2230747Y2042529D1*
X2229321Y2034909D1*
X2227127Y2027289D1*
X2221208Y2019669D1*
X2208013Y2012049D1*
X2192389Y2004429D1*
X2306689Y2073009D2*
X2306979Y2065389D1*
X2307956Y2057769D1*
X2309782Y2050149D1*
X2311766Y2042529D1*
X2313482Y2034909D1*
X2315324Y2027289D1*
X2321175Y2019669D1*
X2335557Y2012049D1*
X2352409Y2004429D1*
X2108569Y2027289D2*
X2100949Y2019669D1*
X2093359Y2012049D1*
X2086036Y2004429D1*
X2079715Y1996809D1*
X2074562Y1989189D1*
X2073107Y1981569D1*
X2075734Y1973949D1*
X2080178Y1966329D1*
X2085420Y1958709D1*
X2090610Y1951089D1*
X2096017Y1943469D1*
X2102102Y1935849D1*
X2108569Y1928229D1*
X2103844Y1920609D1*
X2099439Y1912989D1*
X2094703Y1905369D1*
X2089160Y1897749D1*
X2076461Y1890129D1*
X2060464Y1882509D1*
X2045278Y1874889D1*
X2033091Y1867269D1*
X2028001Y1859649D1*
X2026248Y1852029D1*
X2025356Y1844409D1*
X2024976Y1836789D1*
X2024859Y1829169D1*
X2025223Y1821549D1*
X2026271Y1813929D1*
X2032534Y1806309D1*
X2047531Y1798689D1*
X2063677Y1791069D1*
X2076897Y1783449D1*
X2086996Y1775829D1*
X2091464Y1768209D1*
X2095083Y1760589D1*
X2097573Y1752969D1*
X2098917Y1745349D1*
X2097100Y1737729D1*
X2094113Y1730109D1*
X2089836Y1722489D1*
X2084427Y1714869D1*
X2079045Y1707249D1*
X2074402Y1699629D1*
X2073054Y1692009D1*
X2075741Y1684389D1*
X2080467Y1676769D1*
X2086683Y1669149D1*
X2093680Y1661529D1*
X2100949Y1653909D1*
X2123809Y2027289D2*
X2135503Y2019669D1*
X2148388Y2012049D1*
X2161909Y2004429D1*
X2413369Y2027289D2*
X2402947Y2019669D1*
X2389979Y2012049D1*
X2375269Y2004429D1*
X2428609Y2027289D2*
X2437406Y2019669D1*
X2446886Y2012049D1*
X2456151Y2004429D1*
X2463539Y1996809D1*
X2468929Y1989189D1*
X2468742Y1981569D1*
X2465190Y1973949D1*
X2461014Y1966329D1*
X2456094Y1958709D1*
X2450387Y1951089D1*
X2444880Y1943469D1*
X2440177Y1935849D1*
X2438699Y1928229D1*
X2440249Y1920609D1*
X2442877Y1912989D1*
X2446550Y1905369D1*
X2451169Y1897749D1*
X2462533Y1890129D1*
X2477609Y1882509D1*
X2492292Y1874889D1*
X2504189Y1867269D1*
X2509211Y1859649D1*
X2510945Y1852029D1*
X2511827Y1844409D1*
X2512203Y1836789D1*
X2512349Y1829169D1*
X2512401Y1821549D1*
X2512420Y1813929D1*
X2512426Y1806309D1*
X2512429Y1798689D1*
X2488424Y1791069D1*
X2470789Y1783449D1*
X2457790Y1775829D1*
X2451613Y1768209D1*
X2446642Y1760589D1*
X2442885Y1752969D1*
X2440141Y1745349D1*
X2441382Y1737729D1*
X2446050Y1730109D1*
X2451259Y1722489D1*
X2456378Y1714869D1*
X2461456Y1707249D1*
X2466052Y1699629D1*
X2469587Y1692009D1*
X2467975Y1684389D1*
X2461080Y1676769D1*
X2452936Y1669149D1*
X2444557Y1661529D1*
X2436229Y1653909D1*
X2260969Y1905369D2*
X2246339Y1897749D1*
X2233350Y1890129D1*
X2223061Y1882509D1*
X2215121Y1874889D1*
X2208855Y1867269D1*
X2204499Y1859649D1*
X2202036Y1852029D1*
X2200846Y1844409D1*
X2200362Y1836789D1*
X2200425Y1829169D1*
X2201349Y1821549D1*
X2203474Y1813929D1*
X2206955Y1806309D1*
X2212345Y1798689D1*
X2219925Y1791069D1*
X2228595Y1783449D1*
X2237241Y1775829D1*
X2245729Y1768209D1*
X2241004Y1760589D1*
X2236658Y1752969D1*
X2232577Y1745349D1*
X2228659Y1737729D1*
X2224797Y1730109D1*
X2220976Y1722489D1*
X2217184Y1714869D1*
X2213616Y1707249D1*
X2210532Y1699629D1*
X2207844Y1692009D1*
X2205091Y1684389D1*
X2202427Y1676769D1*
X2200009Y1669149D1*
X2283829Y1905369D2*
X2297571Y1897749D1*
X2309618Y1890129D1*
X2319522Y1882509D1*
X2327379Y1874889D1*
X2333411Y1867269D1*
X2338022Y1859649D1*
X2341299Y1852029D1*
X2343164Y1844409D1*
X2343826Y1836789D1*
X2343232Y1829169D1*
X2341272Y1821549D1*
X2338111Y1813929D1*
X2333681Y1806309D1*
X2327697Y1798689D1*
X2320326Y1791069D1*
X2312584Y1783449D1*
X2305487Y1775829D1*
X2302580Y1768209D1*
X2303581Y1760589D1*
X2305892Y1752969D1*
X2309021Y1745349D1*
X2312565Y1737729D1*
X2316266Y1730109D1*
X2320046Y1722489D1*
X2323837Y1714869D1*
X2327619Y1707249D1*
X2331183Y1699629D1*
X2334289Y1692009D1*
X2337183Y1684389D1*
X2340694Y1676769D1*
X2344789Y1669149D1*
X2161909Y1676769D2*
X2154289Y1669149D1*
X2146669Y1661529D1*
X2139049Y1653909D1*
X2177149Y1676769D2*
X2184769Y1669149D1*
X2367649Y1676769D2*
X2360029Y1669149D1*
X2367649Y1676769D2*
X2381488Y1669149D1*
X2394054Y1661529D1*
X2405749Y1653909D1*
X3072722Y3350646D2*
D61*
X3116410D1*
X3131010Y3355588D1*
X3135951Y3360417D1*
X3140780Y3370075D1*
Y3379846D1*
X3135951Y3389505D1*
X3131010Y3394446D1*
X3116410Y3399275D1*
X3072722D1*
Y3297188D1*
X3106751Y3350646D2*
X3140780Y3297188D1*
X3172153Y3399275D2*
X3240211Y3297188D1*
Y3399275D2*
X3172153Y3297188D1*
X3104472Y3145275D2*
Y3043188D1*
X3138501D1*
X3153101Y3048129D1*
X3162872Y3057788D1*
X3167701Y3067558D1*
X3172530Y3082046D1*
Y3106417D1*
X3167701Y3121017D1*
X3162872Y3130675D1*
X3153101Y3140446D1*
X3138501Y3145275D1*
X3104472D1*
X3203903Y3125734D2*
X3213674Y3130675D1*
X3228274Y3145163D1*
Y3043188D1*
X3072722Y2891275D2*
Y2789188D1*
X3106751D1*
X3121351Y2794129D1*
X3131122Y2803788D1*
X3135951Y2813558D1*
X3140780Y2828046D1*
Y2852417D1*
X3135951Y2867017D1*
X3131122Y2876675D1*
X3121351Y2886446D1*
X3106751Y2891275D1*
X3072722D1*
X3177094Y2866905D2*
Y2871734D1*
X3181924Y2881505D1*
X3186753Y2886334D1*
X3196524Y2891163D1*
X3215953D1*
X3225611Y2886334D1*
X3230441Y2881505D1*
X3235382Y2871734D1*
Y2862075D1*
X3230441Y2852305D1*
X3220782Y2837817D1*
X3172153Y2789188D1*
X3240211D1*
X3072722Y2637275D2*
Y2535188D1*
X3106751D1*
X3121351Y2540129D1*
X3131122Y2549788D1*
X3135951Y2559558D1*
X3140780Y2574046D1*
Y2598417D1*
X3135951Y2613017D1*
X3131122Y2622675D1*
X3121351Y2632446D1*
X3106751Y2637275D1*
X3072722D1*
X3181924Y2637163D2*
X3235270D1*
X3206182Y2598305D1*
X3220782D1*
X3230441Y2593475D1*
X3235270Y2588646D1*
X3240211Y2574046D1*
Y2564388D1*
X3235270Y2549788D1*
X3225611Y2540017D1*
X3211011Y2535188D1*
X3196411D1*
X3181924Y2540017D1*
X3177094Y2544958D1*
X3172153Y2554617D1*
X3072722Y2383275D2*
Y2281188D1*
X3106751D1*
X3121351Y2286129D1*
X3131122Y2295788D1*
X3135951Y2305558D1*
X3140780Y2320046D1*
Y2344417D1*
X3135951Y2359017D1*
X3131122Y2368675D1*
X3121351Y2378446D1*
X3106751Y2383275D1*
X3072722D1*
X3220782Y2281188D2*
Y2383163D1*
X3172153Y2315217D1*
X3245041D1*
X3209110Y2105017D2*
X3204280Y2114675D1*
X3194510Y2124446D1*
X3184851Y2129275D1*
X3165422D1*
X3155651Y2124446D1*
X3145993Y2114675D1*
X3141051Y2105017D1*
X3136222Y2090417D1*
Y2066046D1*
X3141051Y2051558D1*
X3145993Y2041788D1*
X3155651Y2032129D1*
X3165422Y2027188D1*
X3184851D1*
X3194510Y2032129D1*
X3204280Y2041788D1*
X3209110Y2051558D1*
Y2066046D1*
X3184851D1*
X3131010Y1875163D2*
X3082493D1*
X3077663Y1831475D1*
X3082493Y1836305D1*
X3097093Y1841246D1*
X3111580D1*
X3126180Y1836305D1*
X3135951Y1826646D1*
X3140780Y1812046D1*
Y1802388D1*
X3135951Y1787788D1*
X3126180Y1778017D1*
X3111580Y1773188D1*
X3097093D1*
X3082493Y1778017D1*
X3077663Y1782958D1*
X3072722Y1792617D1*
X3172153Y1875275D2*
X3211011Y1773188D1*
X3249870Y1875275D1*
X1372551Y3297188D2*
X1333580Y3399275D1*
X1294722Y3297188D1*
X1309322Y3331217D2*
X1357951D1*
X1433124Y3399163D2*
X1418524Y3394334D1*
X1408753Y3379734D1*
X1403924Y3355475D1*
Y3340875D1*
X1408753Y3316617D1*
X1418524Y3302017D1*
X1433124Y3297188D1*
X1442782D1*
X1457382Y3302017D1*
X1467041Y3316617D1*
X1471982Y3340875D1*
Y3355475D1*
X1467041Y3379734D1*
X1457382Y3394334D1*
X1442782Y3399163D1*
X1433124D1*
X1467041Y3379734D2*
X1408753Y3316617D1*
X1294722Y3145275D2*
Y3043188D1*
X1328751D1*
X1343351Y3048129D1*
X1353122Y3057788D1*
X1357951Y3067558D1*
X1362780Y3082046D1*
Y3106417D1*
X1357951Y3121017D1*
X1353122Y3130675D1*
X1343351Y3140446D1*
X1328751Y3145275D1*
X1294722D1*
X1423353Y3145163D2*
X1408753Y3140334D1*
X1398982Y3125734D1*
X1394153Y3101475D1*
Y3086875D1*
X1398982Y3062617D1*
X1408753Y3048017D1*
X1423353Y3043188D1*
X1433011D1*
X1447611Y3048017D1*
X1457270Y3062617D1*
X1462211Y3086875D1*
Y3101475D1*
X1457270Y3125734D1*
X1447611Y3140334D1*
X1433011Y3145163D1*
X1423353D1*
X1457270Y3125734D2*
X1398982Y3062617D1*
X1294722Y2891275D2*
Y2789188D1*
X1328751D1*
X1343351Y2794129D1*
X1353122Y2803788D1*
X1357951Y2813558D1*
X1362780Y2828046D1*
Y2852417D1*
X1357951Y2867017D1*
X1353122Y2876675D1*
X1343351Y2886446D1*
X1328751Y2891275D1*
X1294722D1*
X1452441Y2891163D2*
X1403924D1*
X1399094Y2847475D1*
X1403924Y2852305D1*
X1418524Y2857246D1*
X1433011D1*
X1447611Y2852305D1*
X1457382Y2842646D1*
X1462211Y2828046D1*
Y2818388D1*
X1457382Y2803788D1*
X1447611Y2794017D1*
X1433011Y2789188D1*
X1418524D1*
X1403924Y2794017D1*
X1399094Y2798958D1*
X1394153Y2808617D1*
X1294722Y2637275D2*
Y2535188D1*
X1328751D1*
X1343351Y2540129D1*
X1353122Y2549788D1*
X1357951Y2559558D1*
X1362780Y2574046D1*
Y2598417D1*
X1357951Y2613017D1*
X1353122Y2622675D1*
X1343351Y2632446D1*
X1328751Y2637275D1*
X1294722D1*
X1452441Y2622675D2*
X1447611Y2632334D1*
X1433011Y2637163D1*
X1423353D1*
X1408753Y2632334D1*
X1398982Y2617734D1*
X1394153Y2593475D1*
Y2569217D1*
X1398982Y2549788D1*
X1408753Y2540017D1*
X1423353Y2535188D1*
X1428182D1*
X1442670Y2540017D1*
X1452441Y2549788D1*
X1457270Y2564388D1*
Y2569217D1*
X1452441Y2583817D1*
X1442670Y2593475D1*
X1428182Y2598305D1*
X1423353D1*
X1408753Y2593475D1*
X1398982Y2583817D1*
X1394153Y2569217D1*
X1294722Y2383275D2*
Y2281188D1*
X1328751D1*
X1343351Y2286129D1*
X1353122Y2295788D1*
X1357951Y2305558D1*
X1362780Y2320046D1*
Y2344417D1*
X1357951Y2359017D1*
X1353122Y2368675D1*
X1343351Y2378446D1*
X1328751Y2383275D1*
X1294722D1*
X1413582Y2281188D2*
X1462211Y2383163D1*
X1394153D1*
X1304493Y1875163D2*
X1357839D1*
X1328751Y1836305D1*
X1343351D1*
X1353010Y1831475D1*
X1357839Y1826646D1*
X1362780Y1812046D1*
Y1802388D1*
X1357839Y1787788D1*
X1348180Y1778017D1*
X1333580Y1773188D1*
X1318980D1*
X1304493Y1778017D1*
X1299663Y1782958D1*
X1294722Y1792617D1*
X1394153Y1875275D2*
X1433011Y1773188D1*
X1471870Y1875275D1*
X1513013Y1875163D2*
X1566359D1*
X1537272Y1836305D1*
X1551872D1*
X1561530Y1831475D1*
X1566359Y1826646D1*
X1571301Y1812046D1*
Y1802388D1*
X1566359Y1787788D1*
X1556701Y1778017D1*
X1542101Y1773188D1*
X1527501D1*
X1513013Y1778017D1*
X1508184Y1782958D1*
X1503242Y1792617D1*
X1570669Y1304594D2*
D62*
Y1074896D1*
X1706957Y1304594D2*
X1684973Y1293728D1*
X1663242Y1271744D1*
X1652123Y1250012D1*
X1641257Y1217162D1*
Y1162328D1*
X1652123Y1129731D1*
X1663242Y1107746D1*
X1684973Y1086015D1*
X1706957Y1074896D1*
X1750673D1*
X1772405Y1086015D1*
X1794389Y1107746D1*
X1805255Y1129731D1*
X1816120Y1162328D1*
Y1217162D1*
X1805255Y1250012D1*
X1794389Y1271744D1*
X1772405Y1293728D1*
X1750673Y1304594D1*
X1706957D1*
X1963274D2*
Y1074896D1*
X1886709Y1304594D2*
X2039840D1*
X2285544Y1074896D2*
X2197860Y1304594D1*
X2110428Y1074896D1*
X2143278Y1151462D2*
X2252694D1*
X1294722Y2129275D2*
D61*
Y2027188D1*
X1328751D1*
X1343351Y2032129D1*
X1353122Y2041788D1*
X1357951Y2051558D1*
X1362780Y2066046D1*
Y2090417D1*
X1357951Y2105017D1*
X1353122Y2114675D1*
X1343351Y2124446D1*
X1328751Y2129275D1*
X1294722D1*
X1418411Y2129163D2*
X1403924Y2124334D1*
X1398982Y2114675D1*
Y2104905D1*
X1403924Y2095246D1*
X1413582Y2090305D1*
X1433011Y2085475D1*
X1447611Y2080646D1*
X1457270Y2070875D1*
X1462099Y2061217D1*
Y2046617D1*
X1457270Y2036958D1*
X1452441Y2032017D1*
X1437841Y2027188D1*
X1418411D1*
X1403924Y2032017D1*
X1398982Y2036958D1*
X1394153Y2046617D1*
Y2061217D1*
X1398982Y2070875D1*
X1408753Y2080646D1*
X1423241Y2085475D1*
X1442670Y2090305D1*
X1452441Y2095246D1*
X1457270Y2104905D1*
Y2114675D1*
X1452441Y2124334D1*
X1437841Y2129163D1*
X1418411D1*
M02*
