G04 DipTrace 3.0.0.2*
G04 iota.GBL*
%MOMM*%
G04 #@! TF.FileFunction,Copper,L2,Bot*
G04 #@! TF.Part,Single*
G04 #@! TA.AperFunction,Conductor*
%ADD14C,0.508*%
%ADD15C,0.3048*%
G04 #@! TA.AperFunction,CopperBalancing*
%ADD16C,0.203*%
%ADD17C,0.356*%
%ADD19R,1.5X1.3*%
G04 #@! TA.AperFunction,ComponentPad*
%ADD20R,1.5X1.5*%
%ADD21C,1.5*%
%ADD24R,2.0X2.0*%
%ADD25C,2.0*%
%ADD30C,1.0*%
G04 #@! TA.AperFunction,ViaPad*
%ADD31C,1.0*%
%FSLAX35Y35*%
G04*
G71*
G90*
G75*
G01*
G04 Bottom*
%LPD*%
X2969628Y1604378D2*
D15*
X2747378D1*
X1985378D1*
X1948628Y1641128D1*
Y1826628D1*
Y3287128D1*
X1666128Y3477628D2*
D14*
X2525128D1*
X3066128D1*
X3414128Y1826628D2*
X3287128D1*
X2969628Y2144128D1*
X2588628D1*
X2525128Y2207628D1*
Y3477628D1*
X1604378Y1699628D2*
D15*
Y1953628D1*
X2896128Y2965628D2*
X3037128D1*
X3414128Y2588628D1*
Y2334628D2*
X3033128Y2715628D1*
X2834628Y1977378D2*
X2747378Y1890128D1*
Y1794378D1*
X2961628Y1977378D2*
X2969628D1*
Y1794378D1*
X1161628Y4015628D2*
X1255128Y3922128D1*
Y2969628D1*
X1128128Y2842628D1*
X1518628Y4185628D2*
X1382128Y4049128D1*
Y2588628D1*
X1128128Y2334628D1*
D31*
X1948628Y1826628D3*
Y3287128D3*
Y1826628D3*
X1666128Y3477628D3*
X3066128D3*
X1604378Y1699628D3*
Y1953628D3*
X3033128Y2715628D3*
X2834628Y1977378D3*
X2961628D3*
X1161628Y4015628D3*
X1518628Y4185628D3*
X2652128Y2715628D3*
X2271128Y1953628D3*
X2652128Y2271128D3*
X1604378Y3858628D3*
X2017128D3*
X2652128Y3287128D3*
X1763128Y1953628D3*
X2937878Y3858628D3*
X2271128Y2715628D3*
X1763128Y3287128D3*
Y1699628D3*
Y2715628D3*
X1445628Y1255128D3*
X3414128Y1604378D3*
X2525128Y3858628D3*
X2271128Y1382128D3*
X1262978Y4374612D2*
D16*
X3479628D1*
X1273168Y4354645D2*
X3495252D1*
X1277848Y4334678D2*
X3502188D1*
X1281018Y4314712D2*
X3503418D1*
X1281495Y4294745D2*
X3503538D1*
X1278362Y4274778D2*
X1496175D1*
X1541075D2*
X3503538D1*
X1274635Y4254812D2*
X1456765D1*
X1580485D2*
X3503538D1*
X1264605Y4234845D2*
X1439518D1*
X1597732D2*
X3503538D1*
X1254298Y4214878D2*
X1429925D1*
X1607325D2*
X3503538D1*
X1235225Y4194912D2*
X1425602D1*
X1611648D2*
X3503538D1*
X1210762Y4174945D2*
X1425762D1*
X1611488D2*
X3503538D1*
X1038728Y4154978D2*
X1097472D1*
X1158785D2*
X1405818D1*
X1606852D2*
X3503538D1*
X1038728Y4135012D2*
X1385835D1*
X1596818D2*
X3503538D1*
X1038728Y4115045D2*
X1365892D1*
X1578818D2*
X3503538D1*
X1038728Y4095078D2*
X1114282D1*
X1208978D2*
X1345908D1*
X1533542D2*
X3503538D1*
X1038728Y4075112D2*
X1090135D1*
X1233125D2*
X1329732D1*
X1490285D2*
X3503538D1*
X1038728Y4055145D2*
X1077132D1*
X1246128D2*
X1323745D1*
X1470302D2*
X3503538D1*
X1038728Y4035178D2*
X1070232D1*
X1252988D2*
X1323428D1*
X1450358D2*
X3503538D1*
X1038728Y4015212D2*
X1068132D1*
X1255128D2*
X1323428D1*
X1440842D2*
X3503538D1*
X1038728Y3995245D2*
X1070432D1*
X1264168D2*
X1323428D1*
X1440842D2*
X3503538D1*
X1038728Y3975278D2*
X1077528D1*
X1284152D2*
X1323428D1*
X1440842D2*
X3503538D1*
X1038728Y3955312D2*
X1090848D1*
X1303105D2*
X1323428D1*
X1440842D2*
X3503538D1*
X1038728Y3935345D2*
X1115788D1*
X1312262D2*
X1323428D1*
X1440842D2*
X3503538D1*
X1038728Y3915378D2*
X1179702D1*
X1440842D2*
X3503538D1*
X1038728Y3895412D2*
X1196435D1*
X1440842D2*
X3503538D1*
X1038728Y3875445D2*
X1196435D1*
X1440842D2*
X3503538D1*
X1038728Y3855478D2*
X1196435D1*
X1440842D2*
X3503538D1*
X1038728Y3835512D2*
X1196435D1*
X1440842D2*
X3503538D1*
X1038728Y3815545D2*
X1196435D1*
X1440842D2*
X3503538D1*
X1038728Y3795578D2*
X1196435D1*
X1440842D2*
X3503538D1*
X1038728Y3775612D2*
X1196435D1*
X1440842D2*
X3503538D1*
X1038728Y3755645D2*
X1196435D1*
X1440842D2*
X3503538D1*
X1038728Y3735678D2*
X1196435D1*
X1440842D2*
X3503538D1*
X1038728Y3715712D2*
X1091128D1*
X1165128D2*
X1196435D1*
X1440842D2*
X3377098D1*
X3451138D2*
X3503538D1*
X1038728Y3695745D2*
X1053562D1*
X1440842D2*
X3339552D1*
X3488685D2*
X3503538D1*
X1440842Y3675778D2*
X3319885D1*
X1440842Y3655812D2*
X3307475D1*
X1440842Y3635845D2*
X3299902D1*
X1440842Y3615878D2*
X3296175D1*
X1440842Y3595912D2*
X3295978D1*
X1440842Y3575945D2*
X3299228D1*
X1440842Y3555978D2*
X1616905D1*
X1715328D2*
X3016932D1*
X3115355D2*
X3306285D1*
X1440842Y3536012D2*
X1593712D1*
X3138548D2*
X3317982D1*
X1440842Y3516045D2*
X1581102D1*
X3151158D2*
X3336498D1*
X3491778D2*
X3503538D1*
X1440842Y3496078D2*
X1574522D1*
X3157738D2*
X3369922D1*
X3458355D2*
X3503538D1*
X1440842Y3476112D2*
X1572658D1*
X3159602D2*
X3503538D1*
X1440842Y3456145D2*
X1575195D1*
X3157065D2*
X3362825D1*
X3465452D2*
X3503538D1*
X1440842Y3436178D2*
X1582568D1*
X3149692D2*
X3333088D1*
X1440842Y3416212D2*
X1596328D1*
X3135932D2*
X3315842D1*
X1440842Y3396245D2*
X1622378D1*
X1709898D2*
X2456262D1*
X2593978D2*
X3022362D1*
X3109882D2*
X3304938D1*
X1440842Y3376278D2*
X1926162D1*
X1971102D2*
X2456262D1*
X2593978D2*
X3298515D1*
X1440842Y3356312D2*
X1886792D1*
X2010472D2*
X2456262D1*
X2593978D2*
X3295778D1*
X1440842Y3336345D2*
X1869505D1*
X2027758D2*
X2456262D1*
X2593978D2*
X3296532D1*
X1440842Y3316378D2*
X1859952D1*
X2037315D2*
X2456262D1*
X2593978D2*
X3300775D1*
X1440842Y3296412D2*
X1855628D1*
X2041635D2*
X2233715D1*
X2308548D2*
X2456262D1*
X2593978D2*
X3309022D1*
X1440842Y3276445D2*
X1855748D1*
X2041478D2*
X2191175D1*
X2351092D2*
X2456262D1*
X2593978D2*
X3322305D1*
X1440842Y3256478D2*
X1860425D1*
X2036838D2*
X2168575D1*
X2373652D2*
X2456262D1*
X2593978D2*
X3343555D1*
X3484718D2*
X3503538D1*
X1440842Y3236512D2*
X1870418D1*
X2026845D2*
X2153625D1*
X2388638D2*
X2456262D1*
X2593978D2*
X3388835D1*
X3439402D2*
X3503538D1*
X1440842Y3216545D2*
X1888418D1*
X2008805D2*
X2143555D1*
X2398708D2*
X2456262D1*
X2593978D2*
X3503538D1*
X1440842Y3196578D2*
X1889925D1*
X2007338D2*
X2137212D1*
X2405052D2*
X2456262D1*
X2593978D2*
X3352318D1*
X3475918D2*
X3503538D1*
X1440842Y3176612D2*
X1889925D1*
X2007338D2*
X2134078D1*
X2408185D2*
X2456262D1*
X2593978D2*
X3327458D1*
X1440842Y3156645D2*
X1889925D1*
X2007338D2*
X2133922D1*
X2408345D2*
X2456262D1*
X2593978D2*
X3312272D1*
X1440842Y3136678D2*
X1889925D1*
X2007338D2*
X2136735D1*
X2405528D2*
X2456262D1*
X2593978D2*
X3302758D1*
X1440842Y3116712D2*
X1889925D1*
X2007338D2*
X2142762D1*
X2399502D2*
X2456262D1*
X2593978D2*
X3297365D1*
X1440842Y3096745D2*
X1502638D1*
X1789628D2*
X1889925D1*
X2007338D2*
X2152438D1*
X2389828D2*
X2456262D1*
X2593978D2*
X2841012D1*
X2951248D2*
X3295622D1*
X1440842Y3076778D2*
X1502638D1*
X1789628D2*
X1889925D1*
X2007338D2*
X2166828D1*
X2375435D2*
X2456262D1*
X2593978D2*
X2806595D1*
X2985665D2*
X3297325D1*
X1440842Y3056812D2*
X1502638D1*
X1789628D2*
X1889925D1*
X2007338D2*
X2188398D1*
X2353868D2*
X2456262D1*
X2593978D2*
X2785938D1*
X3006322D2*
X3302638D1*
X1440842Y3036845D2*
X1502638D1*
X1789628D2*
X1889925D1*
X2007338D2*
X2227015D1*
X2315248D2*
X2456262D1*
X2593978D2*
X2771865D1*
X3020398D2*
X3312155D1*
X1440842Y3016878D2*
X1502638D1*
X1789628D2*
X1889925D1*
X2007338D2*
X2456262D1*
X2593978D2*
X2762228D1*
X3063335D2*
X3327222D1*
X1440842Y2996912D2*
X1502638D1*
X1789628D2*
X1889925D1*
X2007338D2*
X2456262D1*
X2593978D2*
X2756125D1*
X3087998D2*
X3351922D1*
X3476315D2*
X3503538D1*
X1440842Y2976945D2*
X1502638D1*
X1789628D2*
X1889925D1*
X2007338D2*
X2456262D1*
X2593978D2*
X2753072D1*
X3107982D2*
X3503538D1*
X1312382Y2956978D2*
X1323428D1*
X1440842D2*
X1502638D1*
X1789628D2*
X1889925D1*
X2007338D2*
X2456262D1*
X2593978D2*
X2752912D1*
X3127962D2*
X3390022D1*
X3438252D2*
X3503538D1*
X1303502Y2937012D2*
X1323428D1*
X1440842D2*
X1502638D1*
X1789628D2*
X1889925D1*
X2007338D2*
X2456262D1*
X2593978D2*
X2755568D1*
X3147905D2*
X3343872D1*
X3484402D2*
X3503538D1*
X1284708Y2917045D2*
X1323428D1*
X1440842D2*
X1502638D1*
X1789628D2*
X1889925D1*
X2007338D2*
X2456262D1*
X2593978D2*
X2761238D1*
X3167888D2*
X3322502D1*
X1264765Y2897078D2*
X1323428D1*
X1440842D2*
X1502638D1*
X1789628D2*
X1889925D1*
X2007338D2*
X2456262D1*
X2593978D2*
X2770358D1*
X3187832D2*
X3309142D1*
X1244782Y2877112D2*
X1323428D1*
X1440842D2*
X1502638D1*
X1789628D2*
X1889925D1*
X2007338D2*
X2456262D1*
X2593978D2*
X2783758D1*
X3008502D2*
X3043455D1*
X3207815D2*
X3300855D1*
X1245692Y2857145D2*
X1323428D1*
X1440842D2*
X1502638D1*
X1789628D2*
X1889925D1*
X2007338D2*
X2456262D1*
X2593978D2*
X2803305D1*
X2988955D2*
X3063438D1*
X3227798D2*
X3296532D1*
X1246485Y2837178D2*
X1323428D1*
X1440842D2*
X1502638D1*
X1789628D2*
X1889925D1*
X2007338D2*
X2456262D1*
X2593978D2*
X2834825D1*
X2957435D2*
X3083422D1*
X3247742D2*
X3295778D1*
X1243828Y2817212D2*
X1323428D1*
X1440842D2*
X1889925D1*
X2007338D2*
X2456262D1*
X2593978D2*
X3103365D1*
X3267725D2*
X3298435D1*
X1237405Y2797245D2*
X1323428D1*
X1440842D2*
X1889925D1*
X2007338D2*
X2456262D1*
X2593978D2*
X2989812D1*
X3076418D2*
X3123348D1*
X3287668D2*
X3304858D1*
X1226542Y2777278D2*
X1323428D1*
X1440842D2*
X1889925D1*
X2007338D2*
X2456262D1*
X2593978D2*
X2963525D1*
X3102708D2*
X3143292D1*
X1209415Y2757312D2*
X1323428D1*
X1440842D2*
X1889925D1*
X2007338D2*
X2456262D1*
X2593978D2*
X2949688D1*
X3116585D2*
X3163275D1*
X1038728Y2737345D2*
X1076298D1*
X1179955D2*
X1323428D1*
X1440842D2*
X1889925D1*
X2007338D2*
X2456262D1*
X2593978D2*
X2942235D1*
X3123998D2*
X3183255D1*
X3347575D2*
X3362308D1*
X3465925D2*
X3503538D1*
X1038728Y2717378D2*
X1323428D1*
X1440842D2*
X1889925D1*
X2007338D2*
X2456262D1*
X2593978D2*
X2939655D1*
X3126615D2*
X3203198D1*
X3367558D2*
X3503538D1*
X1038728Y2697412D2*
X1084505D1*
X1171748D2*
X1323428D1*
X1440842D2*
X1889925D1*
X2007338D2*
X2456262D1*
X2593978D2*
X2941482D1*
X3133515D2*
X3223182D1*
X3457758D2*
X3503538D1*
X1038728Y2677445D2*
X1050788D1*
X1205488D2*
X1323428D1*
X1440842D2*
X1889925D1*
X2007338D2*
X2456262D1*
X2593978D2*
X2947982D1*
X3153495D2*
X3243125D1*
X3491498D2*
X3503538D1*
X1224085Y2657478D2*
X1323428D1*
X1440842D2*
X1889925D1*
X2007338D2*
X2456262D1*
X2593978D2*
X2960512D1*
X3173438D2*
X3263108D1*
X1235862Y2637512D2*
X1323428D1*
X1440842D2*
X1889925D1*
X2007338D2*
X2456262D1*
X2593978D2*
X2983508D1*
X3193422D2*
X3283092D1*
X1242958Y2617545D2*
X1323428D1*
X1440842D2*
X1889925D1*
X2007338D2*
X2456262D1*
X2593978D2*
X3049048D1*
X3213365D2*
X3299268D1*
X1246288Y2597578D2*
X1308915D1*
X1440842D2*
X1593115D1*
X1699152D2*
X1889925D1*
X2007338D2*
X2456262D1*
X2593978D2*
X2843112D1*
X2949148D2*
X3068988D1*
X3233348D2*
X3295978D1*
X1246088Y2577612D2*
X1288935D1*
X1439732D2*
X1557672D1*
X1734598D2*
X1889925D1*
X2007338D2*
X2456262D1*
X2593978D2*
X2807668D1*
X2984595D2*
X3088972D1*
X3253332D2*
X3296175D1*
X1242442Y2557645D2*
X1268992D1*
X1431605D2*
X1536658D1*
X1755612D2*
X1889925D1*
X2007338D2*
X2456262D1*
X2593978D2*
X2786652D1*
X3005608D2*
X3108955D1*
X3273275D2*
X3299822D1*
X1234868Y2537678D2*
X1249008D1*
X1413365D2*
X1522345D1*
X1769885D2*
X1889925D1*
X2007338D2*
X2456262D1*
X2593978D2*
X2772378D1*
X3019882D2*
X3128898D1*
X3293258D2*
X3307392D1*
X1393385Y2517712D2*
X1512592D1*
X1779678D2*
X1889925D1*
X2007338D2*
X2456262D1*
X2593978D2*
X2762588D1*
X3029675D2*
X3148882D1*
X1038728Y2497745D2*
X1053245D1*
X1373402D2*
X1506325D1*
X1785942D2*
X1889925D1*
X2007338D2*
X2456262D1*
X2593978D2*
X2756322D1*
X3035938D2*
X3168825D1*
X3489002D2*
X3503538D1*
X1038728Y2477778D2*
X1090375D1*
X1165882D2*
X1189098D1*
X1353458D2*
X1503155D1*
X1789115D2*
X1889925D1*
X2007338D2*
X2456262D1*
X2593978D2*
X2753152D1*
X3039112D2*
X3188808D1*
X3353165D2*
X3376385D1*
X3451892D2*
X3503538D1*
X1038728Y2457812D2*
X1169155D1*
X1333475D2*
X1502838D1*
X1789392D2*
X1889925D1*
X2007338D2*
X2456262D1*
X2593978D2*
X2752832D1*
X3039388D2*
X3208792D1*
X3373108D2*
X3503538D1*
X1038728Y2437845D2*
X1072175D1*
X1313532D2*
X1505375D1*
X1786855D2*
X1889925D1*
X2007338D2*
X2456262D1*
X2593978D2*
X2755412D1*
X3036852D2*
X3228735D1*
X3470088D2*
X3503538D1*
X1293548Y2417878D2*
X1510925D1*
X1781305D2*
X1889925D1*
X2007338D2*
X2456262D1*
X2593978D2*
X2760922D1*
X3031302D2*
X3248715D1*
X1273565Y2397912D2*
X1519885D1*
X1772342D2*
X1889925D1*
X2007338D2*
X2239822D1*
X2302442D2*
X2456262D1*
X2593978D2*
X2769882D1*
X3022338D2*
X3268658D1*
X1253622Y2377945D2*
X1533088D1*
X1759178D2*
X1889925D1*
X2007338D2*
X2193315D1*
X2348912D2*
X2456262D1*
X2593978D2*
X2783085D1*
X3009175D2*
X3288642D1*
X1244265Y2357978D2*
X1552318D1*
X1739952D2*
X1889925D1*
X2007338D2*
X2169962D1*
X2372305D2*
X2456262D1*
X2593978D2*
X2802315D1*
X2989948D2*
X3297998D1*
X1246565Y2338012D2*
X1583045D1*
X1709182D2*
X1889925D1*
X2007338D2*
X2154578D1*
X2387688D2*
X2456262D1*
X2593978D2*
X2833082D1*
X2959178D2*
X3295698D1*
X1245415Y2318045D2*
X1889925D1*
X2007338D2*
X2144152D1*
X2398075D2*
X2456262D1*
X2593978D2*
X3296808D1*
X1240738Y2298078D2*
X1889925D1*
X2007338D2*
X2137568D1*
X2404695D2*
X2456262D1*
X2593978D2*
X3301528D1*
X1231975Y2278112D2*
X1889925D1*
X2007338D2*
X2134198D1*
X2408065D2*
X2456262D1*
X2593978D2*
X3310252D1*
X1217978Y2258145D2*
X1889925D1*
X2007338D2*
X2133842D1*
X2408422D2*
X2456262D1*
X2593978D2*
X3324285D1*
X1038728Y2238178D2*
X1060835D1*
X1195418D2*
X1889925D1*
X2007338D2*
X2136418D1*
X2405845D2*
X2456262D1*
X2593978D2*
X3346805D1*
X3481428D2*
X3503538D1*
X1038728Y2218212D2*
X1122845D1*
X1133375D2*
X1889925D1*
X2007338D2*
X2142168D1*
X2400058D2*
X2456262D1*
X2611065D2*
X3408855D1*
X3419408D2*
X3503538D1*
X1038728Y2198245D2*
X1889925D1*
X2007338D2*
X2151565D1*
X2390702D2*
X2456938D1*
X3010882D2*
X3503538D1*
X1038728Y2178278D2*
X1062622D1*
X1193635D2*
X1889925D1*
X2007338D2*
X2165522D1*
X2376705D2*
X2463042D1*
X3032015D2*
X3348632D1*
X3479605D2*
X3503538D1*
X1216908Y2158312D2*
X1889925D1*
X2007338D2*
X2186415D1*
X2355848D2*
X2477912D1*
X3051995D2*
X3325318D1*
X1231302Y2138345D2*
X1889925D1*
X2007338D2*
X2222695D1*
X2319572D2*
X2497855D1*
X3071938D2*
X3310965D1*
X1240342Y2118378D2*
X1889925D1*
X2007338D2*
X2517838D1*
X3091922D2*
X3301925D1*
X1245258Y2098412D2*
X1889925D1*
X2007338D2*
X2537818D1*
X3111865D2*
X3297008D1*
X1246605Y2078445D2*
X1889925D1*
X2007338D2*
X2574295D1*
X3131848D2*
X3295658D1*
X1244505Y2058478D2*
X1889925D1*
X2007338D2*
X2790302D1*
X2878932D2*
X2917295D1*
X3151832D2*
X3297762D1*
X1238755Y2038512D2*
X1568295D1*
X1640472D2*
X1889925D1*
X2007338D2*
X2764568D1*
X3171775D2*
X3303512D1*
X1228685Y2018545D2*
X1537925D1*
X1670842D2*
X1889925D1*
X2007338D2*
X2750932D1*
X3191758D2*
X3313582D1*
X1212825Y1998578D2*
X1522702D1*
X1686068D2*
X1889925D1*
X2007338D2*
X2743635D1*
X3211702D2*
X3329442D1*
X1038728Y1978612D2*
X1069915D1*
X1186338D2*
X1514375D1*
X1694395D2*
X1889925D1*
X2007338D2*
X2741138D1*
X3231682D2*
X3355925D1*
X3472348D2*
X3503538D1*
X1038728Y1958645D2*
X1511045D1*
X1697725D2*
X1889925D1*
X2007338D2*
X2733722D1*
X3251665D2*
X3503538D1*
X1246605Y1938678D2*
X1512115D1*
X1696655D2*
X1889925D1*
X2007338D2*
X2713738D1*
X3046525D2*
X3078545D1*
X3271608D2*
X3295622D1*
X1246605Y1918712D2*
X1517825D1*
X1690945D2*
X1889925D1*
X2007338D2*
X2696415D1*
X3033838D2*
X3098488D1*
X1246605Y1898745D2*
X1529202D1*
X1679565D2*
X1889925D1*
X2007338D2*
X2628892D1*
X3088115D2*
X3118472D1*
X1246605Y1878778D2*
X1545698D1*
X1663072D2*
X1871448D1*
X2025775D2*
X2628892D1*
X3088115D2*
X3138455D1*
X1246605Y1858812D2*
X1545698D1*
X1663072D2*
X1860982D1*
X2036282D2*
X2628892D1*
X3088115D2*
X3158398D1*
X1246605Y1838845D2*
X1545698D1*
X1663072D2*
X1855945D1*
X2041318D2*
X2628892D1*
X3088115D2*
X3178378D1*
X1246605Y1818878D2*
X1545698D1*
X1663072D2*
X1855472D1*
X2041795D2*
X2628892D1*
X3088115D2*
X3198322D1*
X1246605Y1798912D2*
X1545698D1*
X1663072D2*
X1859435D1*
X2037828D2*
X2628892D1*
X3088115D2*
X3218305D1*
X1246605Y1778945D2*
X1545698D1*
X1663072D2*
X1868555D1*
X2028708D2*
X2628892D1*
X3088115D2*
X3238288D1*
X1246605Y1758978D2*
X1532772D1*
X1675998D2*
X1885048D1*
X2012215D2*
X2628892D1*
X3088115D2*
X3295622D1*
X1246605Y1739012D2*
X1519805D1*
X1688962D2*
X1889925D1*
X2007338D2*
X2628892D1*
X3088115D2*
X3295622D1*
X1246605Y1719045D2*
X1512988D1*
X1695782D2*
X1889925D1*
X2007338D2*
X2628892D1*
X3088115D2*
X3295622D1*
X1292715Y1699078D2*
X1510885D1*
X1697885D2*
X1889925D1*
X2007338D2*
X2628892D1*
X3088115D2*
X3503538D1*
X1292715Y1679112D2*
X1513225D1*
X1695545D2*
X1889925D1*
X2007338D2*
X2628892D1*
X3088115D2*
X3503538D1*
X1292715Y1659145D2*
X1520322D1*
X1688408D2*
X1889925D1*
X3088115D2*
X3503538D1*
X1292715Y1639178D2*
X1533722D1*
X1675045D2*
X1889965D1*
X3088115D2*
X3503538D1*
X1292715Y1619212D2*
X1558782D1*
X1649988D2*
X1894325D1*
X3088115D2*
X3503538D1*
X1292715Y1599245D2*
X1908322D1*
X3088115D2*
X3503538D1*
X1292715Y1579278D2*
X1928305D1*
X3088115D2*
X3503538D1*
X1292715Y1559312D2*
X1949002D1*
X3088115D2*
X3503538D1*
X1292715Y1539345D2*
X2628892D1*
X3088115D2*
X3503538D1*
X1292715Y1519378D2*
X2628892D1*
X3088115D2*
X3503538D1*
X1292715Y1499412D2*
X2628892D1*
X3088115D2*
X3503538D1*
X1292715Y1479445D2*
X3503538D1*
X1292715Y1459478D2*
X3503538D1*
X1292715Y1439512D2*
X3503538D1*
X1292715Y1419545D2*
X3503538D1*
X1292715Y1399578D2*
X3503538D1*
X1292715Y1379612D2*
X3503538D1*
X1292715Y1359645D2*
X3503538D1*
X1292715Y1339678D2*
X3503538D1*
X1292715Y1319712D2*
X3503538D1*
X1292715Y1299745D2*
X3503538D1*
X1292715Y1279778D2*
X3405565D1*
X3422698D2*
X3503538D1*
X1292715Y1259812D2*
X3338362D1*
X3489875D2*
X3503538D1*
X1292715Y1239845D2*
X3310528D1*
X1292715Y1219878D2*
X3290625D1*
X1292715Y1199912D2*
X3279405D1*
X1292715Y1179945D2*
X3269255D1*
X1292715Y1159978D2*
X3264455D1*
X1292715Y1140012D2*
X3261285D1*
X1292835Y1120045D2*
X3260692D1*
X1293072Y1100078D2*
X3263862D1*
X1299655Y1080112D2*
X3267508D1*
X1313215Y1060145D2*
X3277502D1*
X1346915Y1040178D2*
X3287768D1*
X3307815Y1943092D2*
X3505622D1*
X3505578Y2008522D1*
X3497985Y1999812D1*
X3490632Y1992818D1*
X3482698Y1986492D1*
X3474245Y1980882D1*
X3465335Y1976028D1*
X3456035Y1971968D1*
X3446418Y1968732D1*
X3436555Y1966345D1*
X3426522Y1964828D1*
X3416395Y1964188D1*
X3406252Y1964432D1*
X3396168Y1965558D1*
X3386222Y1967558D1*
X3376485Y1970418D1*
X3367035Y1974112D1*
X3357942Y1978615D1*
X3349275Y1983895D1*
X3341102Y1989905D1*
X3333482Y1996608D1*
X3326475Y2003945D1*
X3320132Y2011865D1*
X3314505Y2020308D1*
X3309632Y2029208D1*
X3305552Y2038498D1*
X3302298Y2048112D1*
X3299892Y2057968D1*
X3298355Y2067998D1*
X3297692Y2078122D1*
X3297918Y2088268D1*
X3299022Y2098352D1*
X3301002Y2108305D1*
X3303842Y2118045D1*
X3307515Y2127505D1*
X3312002Y2136605D1*
X3317262Y2145282D1*
X3323258Y2153468D1*
X3329942Y2161102D1*
X3337265Y2168125D1*
X3345175Y2174482D1*
X3353605Y2180128D1*
X3362495Y2185018D1*
X3371778Y2189118D1*
X3381382Y2192392D1*
X3391235Y2194818D1*
X3401262Y2196378D1*
X3411385Y2197058D1*
X3421528Y2196855D1*
X3431618Y2195768D1*
X3441575Y2193812D1*
X3451322Y2190992D1*
X3460785Y2187335D1*
X3469898Y2182868D1*
X3478585Y2177628D1*
X3486782Y2171648D1*
X3494432Y2164978D1*
X3501468Y2157668D1*
X3505615Y2152692D1*
X3505578Y2262512D1*
X3496478Y2252278D1*
X3489765Y2246068D1*
X3482582Y2240408D1*
X3474978Y2235328D1*
X3467002Y2230858D1*
X3458695Y2227032D1*
X3450118Y2223865D1*
X3441315Y2221385D1*
X3432348Y2219602D1*
X3423265Y2218525D1*
X3414128Y2218165D1*
X3404992Y2218525D1*
X3395908Y2219602D1*
X3386942Y2221385D1*
X3378138Y2223865D1*
X3369562Y2227032D1*
X3361255Y2230858D1*
X3353278Y2235328D1*
X3345675Y2240408D1*
X3338492Y2246068D1*
X3331778Y2252278D1*
X3325568Y2258992D1*
X3319908Y2266175D1*
X3314828Y2273778D1*
X3310358Y2281755D1*
X3306532Y2290062D1*
X3303365Y2298638D1*
X3300885Y2307442D1*
X3299102Y2316408D1*
X3298025Y2325492D1*
X3297665Y2334628D1*
X3298025Y2343765D1*
X3299102Y2352848D1*
X3302192Y2366458D1*
X3043802Y2624765D1*
X3033128Y2624165D1*
X3025952Y2624448D1*
X3018822Y2625292D1*
X3011778Y2626695D1*
X3004865Y2628642D1*
X2998128Y2631128D1*
X2991605Y2634135D1*
X2985338Y2637645D1*
X2979368Y2641635D1*
X2973728Y2646082D1*
X2968455Y2650955D1*
X2963582Y2656228D1*
X2959135Y2661868D1*
X2955145Y2667838D1*
X2951635Y2674105D1*
X2948628Y2680628D1*
X2946142Y2687365D1*
X2944195Y2694278D1*
X2942792Y2701322D1*
X2941948Y2708452D1*
X2941665Y2715628D1*
X2941948Y2722805D1*
X2942792Y2729935D1*
X2944195Y2736978D1*
X2946142Y2743892D1*
X2948628Y2750628D1*
X2951635Y2757152D1*
X2955145Y2763418D1*
X2959135Y2769388D1*
X2963582Y2775028D1*
X2968455Y2780302D1*
X2973728Y2785175D1*
X2979368Y2789622D1*
X2985338Y2793612D1*
X2991605Y2797122D1*
X2998128Y2800128D1*
X3004865Y2802615D1*
X3011778Y2804562D1*
X3018822Y2805965D1*
X3025952Y2806808D1*
X3033128Y2807092D1*
X3040305Y2806808D1*
X3047435Y2805965D1*
X3054478Y2804562D1*
X3061392Y2802615D1*
X3068128Y2800128D1*
X3074652Y2797122D1*
X3080918Y2793612D1*
X3086888Y2789622D1*
X3092528Y2785175D1*
X3097802Y2780302D1*
X3102675Y2775028D1*
X3107122Y2769388D1*
X3111112Y2763418D1*
X3114622Y2757152D1*
X3117628Y2750628D1*
X3120115Y2743892D1*
X3122062Y2736978D1*
X3123465Y2729935D1*
X3124308Y2722805D1*
X3124592Y2715628D1*
X3123902Y2705025D1*
X3382315Y2446628D1*
X3395908Y2449655D1*
X3404992Y2450732D1*
X3414128Y2451092D1*
X3423265Y2450732D1*
X3432348Y2449655D1*
X3441315Y2447872D1*
X3450118Y2445392D1*
X3458695Y2442225D1*
X3467002Y2438398D1*
X3474978Y2433928D1*
X3482582Y2428848D1*
X3489765Y2423188D1*
X3496478Y2416978D1*
X3505628Y2406535D1*
X3505578Y2516498D1*
X3496478Y2506278D1*
X3489765Y2500068D1*
X3482582Y2494408D1*
X3474978Y2489328D1*
X3467002Y2484858D1*
X3458695Y2481032D1*
X3450118Y2477865D1*
X3441315Y2475385D1*
X3432348Y2473602D1*
X3423265Y2472525D1*
X3414128Y2472165D1*
X3404992Y2472525D1*
X3395908Y2473602D1*
X3386942Y2475385D1*
X3378138Y2477865D1*
X3369562Y2481032D1*
X3361255Y2484858D1*
X3353278Y2489328D1*
X3345675Y2494408D1*
X3338492Y2500068D1*
X3331778Y2506278D1*
X3325568Y2512992D1*
X3319908Y2520175D1*
X3314828Y2527778D1*
X3310358Y2535755D1*
X3306532Y2544062D1*
X3303365Y2552638D1*
X3300885Y2561442D1*
X3299102Y2570408D1*
X3298025Y2579492D1*
X3297665Y2588628D1*
X3298025Y2597765D1*
X3299102Y2606848D1*
X3302192Y2620458D1*
X3021822Y2900745D1*
X3014918Y2888815D1*
X3009105Y2880495D1*
X3002712Y2872615D1*
X2995772Y2865215D1*
X2988315Y2858328D1*
X2980385Y2851995D1*
X2972022Y2846248D1*
X2963268Y2841115D1*
X2954172Y2836622D1*
X2944772Y2832792D1*
X2935125Y2829648D1*
X2925275Y2827202D1*
X2915278Y2825468D1*
X2905182Y2824455D1*
X2895035Y2824172D1*
X2884898Y2824612D1*
X2874818Y2825782D1*
X2864848Y2827668D1*
X2855038Y2830265D1*
X2845438Y2833558D1*
X2836102Y2837535D1*
X2827072Y2842165D1*
X2818398Y2847435D1*
X2810125Y2853312D1*
X2802295Y2859765D1*
X2794948Y2866765D1*
X2788122Y2874272D1*
X2781848Y2882252D1*
X2776165Y2890658D1*
X2771102Y2899452D1*
X2766678Y2908585D1*
X2762922Y2918012D1*
X2759852Y2927682D1*
X2757482Y2937552D1*
X2755825Y2947562D1*
X2754892Y2957665D1*
X2754682Y2967812D1*
X2755205Y2977948D1*
X2756448Y2988018D1*
X2758415Y2997975D1*
X2761088Y3007762D1*
X2764455Y3017335D1*
X2768502Y3026642D1*
X2773202Y3035635D1*
X2778538Y3044268D1*
X2784478Y3052495D1*
X2790992Y3060275D1*
X2798048Y3067568D1*
X2805608Y3074338D1*
X2813635Y3080548D1*
X2822085Y3086165D1*
X2830918Y3091165D1*
X2840085Y3095515D1*
X2849542Y3099198D1*
X2859235Y3102195D1*
X2869122Y3104488D1*
X2879145Y3106068D1*
X2889258Y3106925D1*
X2899405Y3107052D1*
X2909535Y3106455D1*
X2919595Y3105132D1*
X2929535Y3103088D1*
X2939305Y3100342D1*
X2948852Y3096898D1*
X2958125Y3092782D1*
X2967082Y3088008D1*
X2975672Y3082608D1*
X2983855Y3076605D1*
X2991585Y3070032D1*
X2998822Y3062918D1*
X3005532Y3055305D1*
X3011682Y3047232D1*
X3017235Y3038738D1*
X3022162Y3029868D1*
X3025692Y3022285D1*
X3041578Y3022155D1*
X3050365Y3020765D1*
X3058828Y3018015D1*
X3066755Y3013975D1*
X3073955Y3008745D1*
X3084398Y2998545D1*
X3382278Y2700665D1*
X3395908Y2703655D1*
X3404992Y2704732D1*
X3414128Y2705092D1*
X3423265Y2704732D1*
X3432348Y2703655D1*
X3441315Y2701872D1*
X3450118Y2699392D1*
X3458695Y2696225D1*
X3467002Y2692398D1*
X3474978Y2687928D1*
X3482582Y2682848D1*
X3489765Y2677188D1*
X3496478Y2670978D1*
X3505628Y2660535D1*
X3505578Y2770488D1*
X3496478Y2760278D1*
X3489765Y2754068D1*
X3482582Y2748408D1*
X3474978Y2743328D1*
X3467002Y2738858D1*
X3458695Y2735032D1*
X3450118Y2731865D1*
X3441315Y2729385D1*
X3432348Y2727602D1*
X3423265Y2726525D1*
X3414128Y2726165D1*
X3404992Y2726525D1*
X3395908Y2727602D1*
X3386942Y2729385D1*
X3378138Y2731865D1*
X3369562Y2735032D1*
X3361255Y2738858D1*
X3353278Y2743328D1*
X3345675Y2748408D1*
X3338492Y2754068D1*
X3331778Y2760278D1*
X3325568Y2766992D1*
X3319908Y2774175D1*
X3314828Y2781778D1*
X3310358Y2789755D1*
X3306532Y2798062D1*
X3303365Y2806638D1*
X3300885Y2815442D1*
X3299102Y2824408D1*
X3298025Y2833492D1*
X3297665Y2842628D1*
X3298025Y2851765D1*
X3299102Y2860848D1*
X3300885Y2869815D1*
X3303365Y2878618D1*
X3306532Y2887195D1*
X3310358Y2895502D1*
X3314828Y2903478D1*
X3319908Y2911082D1*
X3325568Y2918265D1*
X3331778Y2924978D1*
X3338492Y2931188D1*
X3345675Y2936848D1*
X3353278Y2941928D1*
X3361255Y2946398D1*
X3369562Y2950225D1*
X3378138Y2953392D1*
X3386942Y2955872D1*
X3395908Y2957655D1*
X3404992Y2958732D1*
X3414128Y2959092D1*
X3423265Y2958732D1*
X3432348Y2957655D1*
X3441315Y2955872D1*
X3450118Y2953392D1*
X3458695Y2950225D1*
X3467002Y2946398D1*
X3474978Y2941928D1*
X3482582Y2936848D1*
X3489765Y2931188D1*
X3496478Y2924978D1*
X3505628Y2914535D1*
X3505582Y3024555D1*
X3496478Y3014278D1*
X3489765Y3008068D1*
X3482582Y3002408D1*
X3474978Y2997328D1*
X3467002Y2992858D1*
X3458695Y2989032D1*
X3450118Y2985865D1*
X3441315Y2983385D1*
X3432348Y2981602D1*
X3423265Y2980525D1*
X3414128Y2980165D1*
X3404992Y2980525D1*
X3395908Y2981602D1*
X3386942Y2983385D1*
X3378138Y2985865D1*
X3369562Y2989032D1*
X3361255Y2992858D1*
X3353278Y2997328D1*
X3345675Y3002408D1*
X3338492Y3008068D1*
X3331778Y3014278D1*
X3325568Y3020992D1*
X3319908Y3028175D1*
X3314828Y3035778D1*
X3310358Y3043755D1*
X3306532Y3052062D1*
X3303365Y3060638D1*
X3300885Y3069442D1*
X3299102Y3078408D1*
X3298025Y3087492D1*
X3297665Y3096628D1*
X3298025Y3105765D1*
X3299102Y3114848D1*
X3300885Y3123815D1*
X3303365Y3132618D1*
X3306532Y3141195D1*
X3310358Y3149502D1*
X3314828Y3157478D1*
X3319908Y3165082D1*
X3325568Y3172265D1*
X3331778Y3178978D1*
X3338492Y3185188D1*
X3345675Y3190848D1*
X3353278Y3195928D1*
X3361255Y3200398D1*
X3369562Y3204225D1*
X3378138Y3207392D1*
X3386942Y3209872D1*
X3395908Y3211655D1*
X3404992Y3212732D1*
X3414128Y3213092D1*
X3423265Y3212732D1*
X3432348Y3211655D1*
X3441315Y3209872D1*
X3450118Y3207392D1*
X3458695Y3204225D1*
X3467002Y3200398D1*
X3474978Y3195928D1*
X3482582Y3190848D1*
X3489765Y3185188D1*
X3496478Y3178978D1*
X3505628Y3168535D1*
X3505582Y3278542D1*
X3496478Y3268278D1*
X3489765Y3262068D1*
X3482582Y3256408D1*
X3474978Y3251328D1*
X3467002Y3246858D1*
X3458695Y3243032D1*
X3450118Y3239865D1*
X3441315Y3237385D1*
X3432348Y3235602D1*
X3423265Y3234525D1*
X3414128Y3234165D1*
X3404992Y3234525D1*
X3395908Y3235602D1*
X3386942Y3237385D1*
X3378138Y3239865D1*
X3369562Y3243032D1*
X3361255Y3246858D1*
X3353278Y3251328D1*
X3345675Y3256408D1*
X3338492Y3262068D1*
X3331778Y3268278D1*
X3325568Y3274992D1*
X3319908Y3282175D1*
X3314828Y3289778D1*
X3310358Y3297755D1*
X3306532Y3306062D1*
X3303365Y3314638D1*
X3300885Y3323442D1*
X3299102Y3332408D1*
X3298025Y3341492D1*
X3297665Y3350628D1*
X3298025Y3359765D1*
X3299102Y3368848D1*
X3300885Y3377815D1*
X3303365Y3386618D1*
X3306532Y3395195D1*
X3310358Y3403502D1*
X3314828Y3411478D1*
X3319908Y3419082D1*
X3325568Y3426265D1*
X3331778Y3432978D1*
X3338492Y3439188D1*
X3345675Y3444848D1*
X3353278Y3449928D1*
X3361255Y3454398D1*
X3369562Y3458225D1*
X3378138Y3461392D1*
X3386942Y3463872D1*
X3395908Y3465655D1*
X3404992Y3466732D1*
X3414128Y3467092D1*
X3423265Y3466732D1*
X3432348Y3465655D1*
X3441315Y3463872D1*
X3450118Y3461392D1*
X3458695Y3458225D1*
X3467002Y3454398D1*
X3474978Y3449928D1*
X3482582Y3444848D1*
X3489765Y3439188D1*
X3496478Y3432978D1*
X3505628Y3422535D1*
X3505582Y3532528D1*
X3496478Y3522278D1*
X3489765Y3516068D1*
X3482582Y3510408D1*
X3474978Y3505328D1*
X3467002Y3500858D1*
X3458695Y3497032D1*
X3450118Y3493865D1*
X3441315Y3491385D1*
X3432348Y3489602D1*
X3423265Y3488525D1*
X3414128Y3488165D1*
X3404992Y3488525D1*
X3395908Y3489602D1*
X3386942Y3491385D1*
X3378138Y3493865D1*
X3369562Y3497032D1*
X3361255Y3500858D1*
X3353278Y3505328D1*
X3345675Y3510408D1*
X3338492Y3516068D1*
X3331778Y3522278D1*
X3325568Y3528992D1*
X3319908Y3536175D1*
X3314828Y3543778D1*
X3310358Y3551755D1*
X3306532Y3560062D1*
X3303365Y3568638D1*
X3300885Y3577442D1*
X3299102Y3586408D1*
X3298025Y3595492D1*
X3297665Y3604628D1*
X3298025Y3613765D1*
X3299102Y3622848D1*
X3300885Y3631815D1*
X3303365Y3640618D1*
X3306532Y3649195D1*
X3310358Y3657502D1*
X3314828Y3665478D1*
X3319908Y3673082D1*
X3325568Y3680265D1*
X3331778Y3686978D1*
X3338492Y3693188D1*
X3345675Y3698848D1*
X3353278Y3703928D1*
X3361255Y3708398D1*
X3369562Y3712225D1*
X3378138Y3715392D1*
X3386942Y3717872D1*
X3395908Y3719655D1*
X3404992Y3720732D1*
X3414128Y3721092D1*
X3423265Y3720732D1*
X3432348Y3719655D1*
X3441315Y3717872D1*
X3450118Y3715392D1*
X3458695Y3712225D1*
X3467002Y3708398D1*
X3474978Y3703928D1*
X3482582Y3698848D1*
X3489765Y3693188D1*
X3496478Y3686978D1*
X3505628Y3676535D1*
X3505582Y4302835D1*
X3505215Y4331812D1*
X3497752Y4354085D1*
X3483868Y4373032D1*
X3464878Y4386855D1*
X3442585Y4394252D1*
X3393668Y4394578D1*
X1249918Y4394575D1*
X1252532Y4391048D1*
X1267328Y4362178D1*
X1273068Y4350222D1*
X1274098Y4345505D1*
X1280452Y4305122D1*
X1280215Y4299155D1*
X1280052Y4298322D1*
X1273612Y4257955D1*
X1271545Y4252352D1*
X1271128Y4251612D1*
X1252532Y4215208D1*
X1248835Y4210518D1*
X1248212Y4209942D1*
X1219272Y4181068D1*
X1214308Y4177752D1*
X1213538Y4177395D1*
X1177095Y4158878D1*
X1171348Y4157255D1*
X1170505Y4157158D1*
X1130122Y4150805D1*
X1124155Y4151042D1*
X1123322Y4151205D1*
X1082955Y4157645D1*
X1077352Y4159712D1*
X1076612Y4160128D1*
X1040208Y4178725D1*
X1036645Y4181382D1*
X1036678Y3676722D1*
X1045778Y3686978D1*
X1052492Y3693188D1*
X1059675Y3698848D1*
X1067278Y3703928D1*
X1075255Y3708398D1*
X1083562Y3712225D1*
X1092138Y3715392D1*
X1100942Y3717872D1*
X1109908Y3719655D1*
X1118992Y3720732D1*
X1128128Y3721092D1*
X1137265Y3720732D1*
X1146348Y3719655D1*
X1155315Y3717872D1*
X1164118Y3715392D1*
X1172695Y3712225D1*
X1181002Y3708398D1*
X1188978Y3703928D1*
X1198462Y3697365D1*
X1198425Y3898712D1*
X1172278Y3924788D1*
X1161628Y3924165D1*
X1154452Y3924448D1*
X1147322Y3925292D1*
X1140278Y3926695D1*
X1133365Y3928642D1*
X1126628Y3931128D1*
X1120105Y3934135D1*
X1113838Y3937645D1*
X1107868Y3941635D1*
X1102228Y3946082D1*
X1096955Y3950955D1*
X1092082Y3956228D1*
X1087635Y3961868D1*
X1083645Y3967838D1*
X1080135Y3974105D1*
X1077128Y3980628D1*
X1074642Y3987365D1*
X1072695Y3994278D1*
X1071292Y4001322D1*
X1070448Y4008452D1*
X1070165Y4015628D1*
X1070448Y4022805D1*
X1071292Y4029935D1*
X1072695Y4036978D1*
X1074642Y4043892D1*
X1077128Y4050628D1*
X1080135Y4057152D1*
X1083645Y4063418D1*
X1087635Y4069388D1*
X1092082Y4075028D1*
X1096955Y4080302D1*
X1102228Y4085175D1*
X1107868Y4089622D1*
X1113838Y4093612D1*
X1120105Y4097122D1*
X1126628Y4100128D1*
X1133365Y4102615D1*
X1140278Y4104562D1*
X1147322Y4105965D1*
X1154452Y4106808D1*
X1161628Y4107092D1*
X1168805Y4106808D1*
X1175935Y4105965D1*
X1182978Y4104562D1*
X1189892Y4102615D1*
X1196628Y4100128D1*
X1203152Y4097122D1*
X1209418Y4093612D1*
X1215388Y4089622D1*
X1221028Y4085175D1*
X1226302Y4080302D1*
X1231175Y4075028D1*
X1235622Y4069388D1*
X1239612Y4063418D1*
X1243122Y4057152D1*
X1246128Y4050628D1*
X1248615Y4043892D1*
X1250562Y4036978D1*
X1251965Y4029935D1*
X1252808Y4022805D1*
X1253092Y4015628D1*
X1252402Y4005025D1*
X1298245Y3958955D1*
X1303475Y3951755D1*
X1307515Y3943828D1*
X1310265Y3935365D1*
X1311655Y3926578D1*
X1311832Y3911978D1*
X1311655Y2965178D1*
X1310265Y2956392D1*
X1307515Y2947928D1*
X1303475Y2940002D1*
X1298245Y2932802D1*
X1288045Y2922358D1*
X1240132Y2874445D1*
X1243155Y2860848D1*
X1244232Y2851765D1*
X1244592Y2842628D1*
X1244232Y2833492D1*
X1243155Y2824408D1*
X1241372Y2815442D1*
X1238892Y2806638D1*
X1235725Y2798062D1*
X1231898Y2789755D1*
X1227428Y2781778D1*
X1222348Y2774175D1*
X1216688Y2766992D1*
X1210478Y2760278D1*
X1203765Y2754068D1*
X1196582Y2748408D1*
X1188978Y2743328D1*
X1181002Y2738858D1*
X1172695Y2735032D1*
X1164118Y2731865D1*
X1155315Y2729385D1*
X1146348Y2727602D1*
X1137265Y2726525D1*
X1128128Y2726165D1*
X1118992Y2726525D1*
X1109908Y2727602D1*
X1100942Y2729385D1*
X1092138Y2731865D1*
X1083562Y2735032D1*
X1075255Y2738858D1*
X1067278Y2743328D1*
X1059675Y2748408D1*
X1052492Y2754068D1*
X1045778Y2760278D1*
X1036628Y2770722D1*
X1036682Y2660768D1*
X1045778Y2670978D1*
X1052492Y2677188D1*
X1059675Y2682848D1*
X1067278Y2687928D1*
X1075255Y2692398D1*
X1083562Y2696225D1*
X1092138Y2699392D1*
X1100942Y2701872D1*
X1109908Y2703655D1*
X1118992Y2704732D1*
X1128128Y2705092D1*
X1137265Y2704732D1*
X1146348Y2703655D1*
X1155315Y2701872D1*
X1164118Y2699392D1*
X1172695Y2696225D1*
X1181002Y2692398D1*
X1188978Y2687928D1*
X1196582Y2682848D1*
X1203765Y2677188D1*
X1210478Y2670978D1*
X1216688Y2664265D1*
X1222348Y2657082D1*
X1227428Y2649478D1*
X1231898Y2641502D1*
X1235725Y2633195D1*
X1238892Y2624618D1*
X1241372Y2615815D1*
X1243155Y2606848D1*
X1244232Y2597765D1*
X1244592Y2588628D1*
X1244232Y2579492D1*
X1243155Y2570408D1*
X1241372Y2561442D1*
X1238892Y2552638D1*
X1235725Y2544062D1*
X1231898Y2535755D1*
X1227428Y2527778D1*
X1222348Y2520175D1*
X1216688Y2512992D1*
X1210478Y2506278D1*
X1203765Y2500068D1*
X1196582Y2494408D1*
X1188978Y2489328D1*
X1181002Y2484858D1*
X1172695Y2481032D1*
X1164118Y2477865D1*
X1155315Y2475385D1*
X1146348Y2473602D1*
X1137265Y2472525D1*
X1128128Y2472165D1*
X1118992Y2472525D1*
X1109908Y2473602D1*
X1100942Y2475385D1*
X1092138Y2477865D1*
X1083562Y2481032D1*
X1075255Y2484858D1*
X1067278Y2489328D1*
X1059675Y2494408D1*
X1052492Y2500068D1*
X1045778Y2506278D1*
X1036628Y2516722D1*
X1036682Y2406782D1*
X1045778Y2416978D1*
X1052492Y2423188D1*
X1059675Y2428848D1*
X1067278Y2433928D1*
X1075255Y2438398D1*
X1083562Y2442225D1*
X1092138Y2445392D1*
X1100942Y2447872D1*
X1109908Y2449655D1*
X1118992Y2450732D1*
X1128128Y2451092D1*
X1137265Y2450732D1*
X1146348Y2449655D1*
X1159958Y2446565D1*
X1325468Y2612158D1*
X1325425Y4049128D1*
X1326125Y4057998D1*
X1328202Y4066652D1*
X1331605Y4074872D1*
X1336255Y4082458D1*
X1342035Y4089222D1*
X1342658Y4089802D1*
X1427795Y4174985D1*
X1427165Y4185628D1*
X1427448Y4192805D1*
X1428292Y4199935D1*
X1429695Y4206978D1*
X1431642Y4213892D1*
X1434128Y4220628D1*
X1437135Y4227152D1*
X1440645Y4233418D1*
X1444635Y4239388D1*
X1449082Y4245028D1*
X1453955Y4250302D1*
X1459228Y4255175D1*
X1464868Y4259622D1*
X1470838Y4263612D1*
X1477105Y4267122D1*
X1483628Y4270128D1*
X1490365Y4272615D1*
X1497278Y4274562D1*
X1504322Y4275965D1*
X1511452Y4276808D1*
X1518628Y4277092D1*
X1525805Y4276808D1*
X1532935Y4275965D1*
X1539978Y4274562D1*
X1546892Y4272615D1*
X1553628Y4270128D1*
X1560152Y4267122D1*
X1566418Y4263612D1*
X1572388Y4259622D1*
X1578028Y4255175D1*
X1583302Y4250302D1*
X1588175Y4245028D1*
X1592622Y4239388D1*
X1596612Y4233418D1*
X1600122Y4227152D1*
X1603128Y4220628D1*
X1605615Y4213892D1*
X1607562Y4206978D1*
X1608965Y4199935D1*
X1609808Y4192805D1*
X1610092Y4185628D1*
X1609808Y4178452D1*
X1608965Y4171322D1*
X1607562Y4164278D1*
X1605615Y4157365D1*
X1603128Y4150628D1*
X1600122Y4144105D1*
X1596612Y4137838D1*
X1592622Y4131868D1*
X1588175Y4126228D1*
X1583302Y4120955D1*
X1578028Y4116082D1*
X1572388Y4111635D1*
X1566418Y4107645D1*
X1560152Y4104135D1*
X1553628Y4101128D1*
X1546892Y4098642D1*
X1539978Y4096695D1*
X1532935Y4095292D1*
X1525805Y4094448D1*
X1518628Y4094165D1*
X1508025Y4094855D1*
X1438815Y4025625D1*
X1438655Y2584178D1*
X1437265Y2575392D1*
X1434515Y2566928D1*
X1430475Y2559002D1*
X1425245Y2551802D1*
X1415045Y2541355D1*
X1240132Y2366442D1*
X1243155Y2352848D1*
X1244232Y2343765D1*
X1244592Y2334628D1*
X1244232Y2325492D1*
X1243155Y2316408D1*
X1241372Y2307442D1*
X1238892Y2298638D1*
X1235725Y2290062D1*
X1231898Y2281755D1*
X1227428Y2273778D1*
X1222348Y2266175D1*
X1216688Y2258992D1*
X1210478Y2252278D1*
X1203765Y2246068D1*
X1196582Y2240408D1*
X1188978Y2235328D1*
X1181002Y2230858D1*
X1172695Y2227032D1*
X1164118Y2223865D1*
X1155315Y2221385D1*
X1146348Y2219602D1*
X1137265Y2218525D1*
X1128128Y2218165D1*
X1118992Y2218525D1*
X1109908Y2219602D1*
X1100942Y2221385D1*
X1092138Y2223865D1*
X1083562Y2227032D1*
X1075255Y2230858D1*
X1067278Y2235328D1*
X1059675Y2240408D1*
X1052492Y2246068D1*
X1045778Y2252278D1*
X1036628Y2262722D1*
X1036682Y2152715D1*
X1045778Y2162978D1*
X1052492Y2169188D1*
X1059675Y2174848D1*
X1067278Y2179928D1*
X1075255Y2184398D1*
X1083562Y2188225D1*
X1092138Y2191392D1*
X1100942Y2193872D1*
X1109908Y2195655D1*
X1118992Y2196732D1*
X1128128Y2197092D1*
X1137265Y2196732D1*
X1146348Y2195655D1*
X1155315Y2193872D1*
X1164118Y2191392D1*
X1172695Y2188225D1*
X1181002Y2184398D1*
X1188978Y2179928D1*
X1196582Y2174848D1*
X1203765Y2169188D1*
X1210478Y2162978D1*
X1216688Y2156265D1*
X1222348Y2149082D1*
X1227428Y2141478D1*
X1231898Y2133502D1*
X1235725Y2125195D1*
X1238892Y2116618D1*
X1241372Y2107815D1*
X1243155Y2098848D1*
X1244232Y2089765D1*
X1244592Y2080628D1*
X1244232Y2071492D1*
X1243155Y2062408D1*
X1241372Y2053442D1*
X1238892Y2044638D1*
X1235725Y2036062D1*
X1231898Y2027755D1*
X1227428Y2019778D1*
X1222348Y2012175D1*
X1216688Y2004992D1*
X1210478Y1998278D1*
X1203765Y1992068D1*
X1196582Y1986408D1*
X1188978Y1981328D1*
X1181002Y1976858D1*
X1172695Y1973032D1*
X1164118Y1969865D1*
X1155315Y1967385D1*
X1146348Y1965602D1*
X1137265Y1964525D1*
X1128128Y1964165D1*
X1118992Y1964525D1*
X1109908Y1965602D1*
X1100942Y1967385D1*
X1092138Y1969865D1*
X1083562Y1973032D1*
X1075255Y1976858D1*
X1067278Y1981328D1*
X1059675Y1986408D1*
X1052492Y1992068D1*
X1045778Y1998278D1*
X1036628Y2008722D1*
X1036682Y1943055D1*
X1244592Y1943092D1*
Y1710165D1*
X1041868D1*
X1047538Y1705722D1*
X1053438Y1703792D1*
X1135838Y1703678D1*
X1282115Y1703555D1*
X1285135Y1702572D1*
X1287705Y1700705D1*
X1289572Y1698135D1*
X1290555Y1695115D1*
X1290678Y1693528D1*
X1290808Y1118515D1*
X1291045Y1099692D1*
X1298508Y1077415D1*
X1312392Y1058472D1*
X1331378Y1044648D1*
X1353675Y1037255D1*
X1402592Y1036925D1*
X3292355Y1036692D1*
X3289725Y1040208D1*
X3274928Y1069078D1*
X3269188Y1081035D1*
X3268158Y1085752D1*
X3261805Y1126135D1*
X3262042Y1132102D1*
X3262205Y1132935D1*
X3268645Y1173302D1*
X3270712Y1178905D1*
X3271128Y1179645D1*
X3289725Y1216048D1*
X3293422Y1220738D1*
X3294058Y1221325D1*
X3322985Y1250188D1*
X3327948Y1253505D1*
X3328718Y1253862D1*
X3365162Y1272378D1*
X3370908Y1273998D1*
X3371752Y1274098D1*
X3412135Y1280452D1*
X3418102Y1280215D1*
X3418935Y1280048D1*
X3459302Y1273612D1*
X3464905Y1271545D1*
X3465645Y1271128D1*
X3502048Y1252532D1*
X3505612Y1249875D1*
X3505578Y1710128D1*
X3297665Y1710165D1*
Y1759765D1*
X3281882Y1759972D1*
X3271518Y1761615D1*
X3261542Y1764855D1*
X3252192Y1769618D1*
X3243705Y1775785D1*
X3239848Y1779348D1*
X3052488Y1966712D1*
X3050562Y1956028D1*
X3048615Y1949115D1*
X3046128Y1942378D1*
X3043122Y1935855D1*
X3039612Y1929588D1*
X3035622Y1923618D1*
X3031175Y1917978D1*
X3026282Y1912685D1*
X3026332Y1900818D1*
X3086092Y1900842D1*
Y1497915D1*
X2630915D1*
Y1547675D1*
X1980928Y1547852D1*
X1972142Y1549242D1*
X1963678Y1551992D1*
X1955752Y1556032D1*
X1948552Y1561262D1*
X1938108Y1571462D1*
X1905512Y1604302D1*
X1900282Y1611502D1*
X1896242Y1619428D1*
X1893492Y1627892D1*
X1892102Y1636678D1*
X1891925Y1651278D1*
Y1754878D1*
X1883955Y1761955D1*
X1879082Y1767228D1*
X1874635Y1772868D1*
X1870645Y1778838D1*
X1867135Y1785105D1*
X1864128Y1791628D1*
X1861642Y1798365D1*
X1859695Y1805278D1*
X1858292Y1812322D1*
X1857448Y1819452D1*
X1857165Y1826628D1*
X1857448Y1833805D1*
X1858292Y1840935D1*
X1859695Y1847978D1*
X1861642Y1854892D1*
X1864128Y1861628D1*
X1867135Y1868152D1*
X1870645Y1874418D1*
X1874635Y1880388D1*
X1879082Y1886028D1*
X1883955Y1891302D1*
X1891938Y1898312D1*
X1891925Y3215395D1*
X1883955Y3222455D1*
X1879082Y3227728D1*
X1874635Y3233368D1*
X1870645Y3239338D1*
X1867135Y3245605D1*
X1864128Y3252128D1*
X1861642Y3258865D1*
X1859695Y3265778D1*
X1858292Y3272822D1*
X1857448Y3279952D1*
X1857165Y3287128D1*
X1857448Y3294305D1*
X1858292Y3301435D1*
X1859695Y3308478D1*
X1861642Y3315392D1*
X1864128Y3322128D1*
X1867135Y3328652D1*
X1870645Y3334918D1*
X1874635Y3340888D1*
X1879082Y3346528D1*
X1883955Y3351802D1*
X1889228Y3356675D1*
X1894868Y3361122D1*
X1900838Y3365112D1*
X1907105Y3368622D1*
X1913628Y3371628D1*
X1920365Y3374115D1*
X1927278Y3376062D1*
X1934322Y3377465D1*
X1941452Y3378308D1*
X1948628Y3378592D1*
X1955805Y3378308D1*
X1962935Y3377465D1*
X1969978Y3376062D1*
X1976892Y3374115D1*
X1983628Y3371628D1*
X1990152Y3368622D1*
X1996418Y3365112D1*
X2002388Y3361122D1*
X2008028Y3356675D1*
X2013302Y3351802D1*
X2018175Y3346528D1*
X2022622Y3340888D1*
X2026612Y3334918D1*
X2030122Y3328652D1*
X2033128Y3322128D1*
X2035615Y3315392D1*
X2037562Y3308478D1*
X2038965Y3301435D1*
X2039808Y3294305D1*
X2040092Y3287128D1*
X2039808Y3279952D1*
X2038965Y3272822D1*
X2037562Y3265778D1*
X2035615Y3258865D1*
X2033128Y3252128D1*
X2030122Y3245605D1*
X2026612Y3239338D1*
X2022622Y3233368D1*
X2018175Y3227728D1*
X2013302Y3222455D1*
X2005318Y3215445D1*
X2005332Y1898362D1*
X2013302Y1891302D1*
X2018175Y1886028D1*
X2022622Y1880388D1*
X2026612Y1874418D1*
X2030122Y1868152D1*
X2033128Y1861628D1*
X2035615Y1854892D1*
X2037562Y1847978D1*
X2038965Y1840935D1*
X2039808Y1833805D1*
X2040092Y1826628D1*
X2039808Y1819452D1*
X2038965Y1812322D1*
X2037562Y1805278D1*
X2035615Y1798365D1*
X2033128Y1791628D1*
X2030122Y1785105D1*
X2026612Y1778838D1*
X2022622Y1772868D1*
X2018175Y1767228D1*
X2013302Y1761955D1*
X2005318Y1754945D1*
X2005332Y1664585D1*
X2015828Y1661082D1*
X2630895D1*
X2630915Y1900842D1*
X2691698D1*
X2693452Y1907652D1*
X2696855Y1915872D1*
X2701505Y1923458D1*
X2707285Y1930222D1*
X2743815Y1966752D1*
X2743165Y1977378D1*
X2743448Y1984555D1*
X2744292Y1991685D1*
X2745695Y1998728D1*
X2747642Y2005642D1*
X2750128Y2012378D1*
X2753135Y2018902D1*
X2756645Y2025168D1*
X2760635Y2031138D1*
X2765082Y2036778D1*
X2769955Y2042052D1*
X2775228Y2046925D1*
X2780868Y2051372D1*
X2786838Y2055362D1*
X2793105Y2058872D1*
X2799628Y2061878D1*
X2806365Y2064365D1*
X2813278Y2066312D1*
X2820322Y2067715D1*
X2827452Y2068558D1*
X2834628Y2068842D1*
X2841805Y2068558D1*
X2848935Y2067715D1*
X2855978Y2066312D1*
X2862892Y2064365D1*
X2869628Y2061878D1*
X2876152Y2058872D1*
X2882418Y2055362D1*
X2888388Y2051372D1*
X2898085Y2043175D1*
X2907868Y2051372D1*
X2913838Y2055362D1*
X2920105Y2058872D1*
X2926628Y2061878D1*
X2933365Y2064365D1*
X2940278Y2066312D1*
X2951082Y2068158D1*
X2941915Y2077285D1*
X2588628Y2077265D1*
X2578168Y2078088D1*
X2567968Y2080538D1*
X2558275Y2084555D1*
X2549328Y2090035D1*
X2541348Y2096848D1*
X2540778Y2097468D1*
X2477848Y2160348D1*
X2471035Y2168328D1*
X2465555Y2177275D1*
X2461538Y2186968D1*
X2459088Y2197168D1*
X2458265Y2207628D1*
X2458298Y2208468D1*
X2458265Y3410762D1*
X1728552Y3410765D1*
X1719888Y3403635D1*
X1713918Y3399645D1*
X1707652Y3396135D1*
X1701128Y3393128D1*
X1694392Y3390642D1*
X1687478Y3388695D1*
X1680435Y3387292D1*
X1673305Y3386448D1*
X1666128Y3386165D1*
X1658952Y3386448D1*
X1651822Y3387292D1*
X1644778Y3388695D1*
X1637865Y3390642D1*
X1631128Y3393128D1*
X1624605Y3396135D1*
X1618338Y3399645D1*
X1612368Y3403635D1*
X1606728Y3408082D1*
X1601455Y3412955D1*
X1596582Y3418228D1*
X1592135Y3423868D1*
X1588145Y3429838D1*
X1584635Y3436105D1*
X1581628Y3442628D1*
X1579142Y3449365D1*
X1577195Y3456278D1*
X1575792Y3463322D1*
X1574948Y3470452D1*
X1574665Y3477628D1*
X1574948Y3484805D1*
X1575792Y3491935D1*
X1577195Y3498978D1*
X1579142Y3505892D1*
X1581628Y3512628D1*
X1584635Y3519152D1*
X1588145Y3525418D1*
X1592135Y3531388D1*
X1596582Y3537028D1*
X1601455Y3542302D1*
X1606728Y3547175D1*
X1612368Y3551622D1*
X1618338Y3555612D1*
X1624605Y3559122D1*
X1631128Y3562128D1*
X1637865Y3564615D1*
X1644778Y3566562D1*
X1651822Y3567965D1*
X1658952Y3568808D1*
X1666128Y3569092D1*
X1673305Y3568808D1*
X1680435Y3567965D1*
X1687478Y3566562D1*
X1694392Y3564615D1*
X1701128Y3562128D1*
X1707652Y3559122D1*
X1713918Y3555612D1*
X1719888Y3551622D1*
X1728475Y3544455D1*
X3003725Y3544492D1*
X3012368Y3551622D1*
X3018338Y3555612D1*
X3024605Y3559122D1*
X3031128Y3562128D1*
X3037865Y3564615D1*
X3044778Y3566562D1*
X3051822Y3567965D1*
X3058952Y3568808D1*
X3066128Y3569092D1*
X3073305Y3568808D1*
X3080435Y3567965D1*
X3087478Y3566562D1*
X3094392Y3564615D1*
X3101128Y3562128D1*
X3107652Y3559122D1*
X3113918Y3555612D1*
X3119888Y3551622D1*
X3125528Y3547175D1*
X3130802Y3542302D1*
X3135675Y3537028D1*
X3140122Y3531388D1*
X3144112Y3525418D1*
X3147622Y3519152D1*
X3150628Y3512628D1*
X3153115Y3505892D1*
X3155062Y3498978D1*
X3156465Y3491935D1*
X3157308Y3484805D1*
X3157592Y3477628D1*
X3157308Y3470452D1*
X3156465Y3463322D1*
X3155062Y3456278D1*
X3153115Y3449365D1*
X3150628Y3442628D1*
X3147622Y3436105D1*
X3144112Y3429838D1*
X3140122Y3423868D1*
X3135675Y3418228D1*
X3130802Y3412955D1*
X3125528Y3408082D1*
X3119888Y3403635D1*
X3113918Y3399645D1*
X3107652Y3396135D1*
X3101128Y3393128D1*
X3094392Y3390642D1*
X3087478Y3388695D1*
X3080435Y3387292D1*
X3073305Y3386448D1*
X3066128Y3386165D1*
X3058952Y3386448D1*
X3051822Y3387292D1*
X3044778Y3388695D1*
X3037865Y3390642D1*
X3031128Y3393128D1*
X3024605Y3396135D1*
X3018338Y3399645D1*
X3012368Y3403635D1*
X3003782Y3410802D1*
X2591972Y3410765D1*
X2591992Y2235245D1*
X2616338Y2210975D1*
X2969628Y2210992D1*
X2980088Y2210168D1*
X2990288Y2207718D1*
X2999982Y2203702D1*
X3008928Y2198222D1*
X3016908Y2191408D1*
X3017478Y2190788D1*
X3297685Y1910628D1*
X3297665Y1943092D1*
X3307815D1*
X1514815Y3107092D2*
X1787592D1*
Y2824165D1*
X1504665D1*
Y3107092D1*
X1514815D1*
X1787575Y2463598D2*
X1786878Y2451442D1*
X1785135Y2439392D1*
X1782365Y2427535D1*
X1778585Y2415958D1*
X1773822Y2404755D1*
X1768115Y2393998D1*
X1761502Y2383772D1*
X1754035Y2374155D1*
X1745772Y2365215D1*
X1736765Y2357018D1*
X1727092Y2349625D1*
X1716815Y2343092D1*
X1706015Y2337468D1*
X1694772Y2332792D1*
X1683168Y2329102D1*
X1671292Y2326422D1*
X1659228Y2324775D1*
X1647065Y2324168D1*
X1634898Y2324612D1*
X1622812Y2326102D1*
X1610902Y2328622D1*
X1599248Y2332158D1*
X1587945Y2336685D1*
X1577072Y2342165D1*
X1566712Y2348562D1*
X1556938Y2355825D1*
X1547828Y2363902D1*
X1539442Y2372732D1*
X1531848Y2382252D1*
X1525102Y2392385D1*
X1519252Y2403065D1*
X1514342Y2414208D1*
X1510408Y2425732D1*
X1507482Y2437552D1*
X1505578Y2449578D1*
X1504722Y2461722D1*
X1504908Y2473898D1*
X1506142Y2486012D1*
X1508415Y2497975D1*
X1511705Y2509695D1*
X1515992Y2521092D1*
X1521245Y2532078D1*
X1527422Y2542572D1*
X1534478Y2552495D1*
X1542362Y2561775D1*
X1551015Y2570342D1*
X1560372Y2578132D1*
X1570365Y2585092D1*
X1580918Y2591165D1*
X1591955Y2596305D1*
X1603392Y2600482D1*
X1615148Y2603655D1*
X1627132Y2605808D1*
X1639258Y2606925D1*
X1651432Y2606992D1*
X1663568Y2606012D1*
X1675578Y2603992D1*
X1687368Y2600945D1*
X1698852Y2596898D1*
X1709945Y2591878D1*
X1720565Y2585922D1*
X1730632Y2579075D1*
X1740075Y2571388D1*
X1748822Y2562918D1*
X1756808Y2553728D1*
X1763975Y2543882D1*
X1770268Y2533458D1*
X1775642Y2522532D1*
X1780055Y2511185D1*
X1783475Y2499498D1*
X1785878Y2487562D1*
X1787248Y2475462D1*
X1787575Y2463598D1*
X3037575D2*
X3036878Y2451442D1*
X3035135Y2439392D1*
X3032365Y2427535D1*
X3028585Y2415958D1*
X3023822Y2404755D1*
X3018115Y2393998D1*
X3011502Y2383772D1*
X3004035Y2374155D1*
X2995772Y2365215D1*
X2986765Y2357018D1*
X2977092Y2349625D1*
X2966815Y2343092D1*
X2956015Y2337468D1*
X2944772Y2332792D1*
X2933168Y2329102D1*
X2921292Y2326422D1*
X2909228Y2324775D1*
X2897065Y2324168D1*
X2884898Y2324612D1*
X2872812Y2326102D1*
X2860902Y2328622D1*
X2849248Y2332158D1*
X2837945Y2336685D1*
X2827072Y2342165D1*
X2816712Y2348562D1*
X2806938Y2355825D1*
X2797828Y2363902D1*
X2789442Y2372732D1*
X2781848Y2382252D1*
X2775102Y2392385D1*
X2769252Y2403065D1*
X2764342Y2414208D1*
X2760408Y2425732D1*
X2757482Y2437552D1*
X2755578Y2449578D1*
X2754722Y2461722D1*
X2754908Y2473898D1*
X2756142Y2486012D1*
X2758415Y2497975D1*
X2761705Y2509695D1*
X2765992Y2521092D1*
X2771245Y2532078D1*
X2777422Y2542572D1*
X2784478Y2552495D1*
X2792362Y2561775D1*
X2801015Y2570342D1*
X2810372Y2578132D1*
X2820365Y2585092D1*
X2830918Y2591165D1*
X2841955Y2596305D1*
X2853392Y2600482D1*
X2865148Y2603655D1*
X2877132Y2605808D1*
X2889258Y2606925D1*
X2901432Y2606992D1*
X2913568Y2606012D1*
X2925578Y2603992D1*
X2937368Y2600945D1*
X2948852Y2596898D1*
X2959945Y2591878D1*
X2970565Y2585922D1*
X2980632Y2579075D1*
X2990075Y2571388D1*
X2998822Y2562918D1*
X3006808Y2553728D1*
X3013975Y2543882D1*
X3020268Y2533458D1*
X3025642Y2522532D1*
X3030055Y2511185D1*
X3033475Y2499498D1*
X3035878Y2487562D1*
X3037248Y2475462D1*
X3037575Y2463598D1*
X2406232Y3155488D2*
X2405095Y3145405D1*
X2403205Y3135435D1*
X2400575Y3125632D1*
X2397218Y3116058D1*
X2393152Y3106758D1*
X2388405Y3097792D1*
X2382998Y3089202D1*
X2376965Y3081045D1*
X2370335Y3073358D1*
X2363152Y3066195D1*
X2355452Y3059585D1*
X2347278Y3053572D1*
X2338678Y3048185D1*
X2329698Y3043458D1*
X2320388Y3039418D1*
X2310805Y3036085D1*
X2300998Y3033478D1*
X2291022Y3031615D1*
X2280935Y3030502D1*
X2270795Y3030145D1*
X2260655Y3030552D1*
X2250575Y3031712D1*
X2240608Y3033628D1*
X2230815Y3036282D1*
X2221248Y3039662D1*
X2211958Y3043748D1*
X2203002Y3048518D1*
X2194428Y3053945D1*
X2186285Y3060002D1*
X2178615Y3066648D1*
X2171468Y3073848D1*
X2164878Y3081565D1*
X2158885Y3089755D1*
X2153518Y3098368D1*
X2148815Y3107358D1*
X2144798Y3116678D1*
X2141488Y3126272D1*
X2138905Y3136085D1*
X2137065Y3146065D1*
X2135978Y3156152D1*
X2135645Y3166295D1*
X2136075Y3176435D1*
X2137265Y3186512D1*
X2139202Y3196472D1*
X2141882Y3206258D1*
X2145285Y3215818D1*
X2149395Y3225098D1*
X2154188Y3234042D1*
X2159635Y3242602D1*
X2165708Y3250732D1*
X2172375Y3258385D1*
X2179595Y3265515D1*
X2187328Y3272085D1*
X2195532Y3278058D1*
X2204158Y3283402D1*
X2213162Y3288085D1*
X2222488Y3292078D1*
X2232088Y3295365D1*
X2241908Y3297925D1*
X2251895Y3299738D1*
X2261985Y3300802D1*
X2272128Y3301108D1*
X2282265Y3300652D1*
X2292342Y3299442D1*
X2302295Y3297478D1*
X2312078Y3294775D1*
X2321628Y3291348D1*
X2330898Y3287215D1*
X2339828Y3282402D1*
X2348378Y3276932D1*
X2356492Y3270838D1*
X2364125Y3264152D1*
X2371238Y3256915D1*
X2377792Y3249168D1*
X2383745Y3240948D1*
X2389065Y3232308D1*
X2393725Y3223295D1*
X2397698Y3213958D1*
X2400962Y3204348D1*
X2403495Y3194522D1*
X2405285Y3184532D1*
X2406325Y3174438D1*
X2406612Y3165628D1*
X2406232Y3155488D1*
Y2255488D2*
X2405095Y2245405D1*
X2403205Y2235435D1*
X2400575Y2225632D1*
X2397218Y2216058D1*
X2393152Y2206758D1*
X2388405Y2197792D1*
X2382998Y2189202D1*
X2376965Y2181045D1*
X2370335Y2173358D1*
X2363152Y2166195D1*
X2355452Y2159585D1*
X2347278Y2153572D1*
X2338678Y2148185D1*
X2329698Y2143458D1*
X2320388Y2139418D1*
X2310805Y2136085D1*
X2300998Y2133478D1*
X2291022Y2131615D1*
X2280935Y2130502D1*
X2270795Y2130145D1*
X2260655Y2130552D1*
X2250575Y2131712D1*
X2240608Y2133628D1*
X2230815Y2136282D1*
X2221248Y2139662D1*
X2211958Y2143748D1*
X2203002Y2148518D1*
X2194428Y2153945D1*
X2186285Y2160002D1*
X2178615Y2166648D1*
X2171468Y2173848D1*
X2164878Y2181565D1*
X2158885Y2189755D1*
X2153518Y2198368D1*
X2148815Y2207358D1*
X2144798Y2216678D1*
X2141488Y2226272D1*
X2138905Y2236085D1*
X2137065Y2246065D1*
X2135978Y2256152D1*
X2135645Y2266295D1*
X2136075Y2276435D1*
X2137265Y2286512D1*
X2139202Y2296472D1*
X2141882Y2306258D1*
X2145285Y2315818D1*
X2149395Y2325098D1*
X2154188Y2334042D1*
X2159635Y2342602D1*
X2165708Y2350732D1*
X2172375Y2358385D1*
X2179595Y2365515D1*
X2187328Y2372085D1*
X2195532Y2378058D1*
X2204158Y2383402D1*
X2213162Y2388085D1*
X2222488Y2392078D1*
X2232088Y2395365D1*
X2241908Y2397925D1*
X2251895Y2399738D1*
X2261985Y2400802D1*
X2272128Y2401108D1*
X2282265Y2400652D1*
X2292342Y2399442D1*
X2302295Y2397478D1*
X2312078Y2394775D1*
X2321628Y2391348D1*
X2330898Y2387215D1*
X2339828Y2382402D1*
X2348378Y2376932D1*
X2356492Y2370838D1*
X2364125Y2364152D1*
X2371238Y2356915D1*
X2377792Y2349168D1*
X2383745Y2340948D1*
X2389065Y2332308D1*
X2393725Y2323295D1*
X2397698Y2313958D1*
X2400962Y2304348D1*
X2403495Y2294522D1*
X2405285Y2284532D1*
X2406325Y2274438D1*
X2406612Y2265628D1*
X2406232Y2255488D1*
X1891938Y1754945D2*
X1883955Y1761955D1*
X1879082Y1767228D1*
X1874635Y1772868D1*
X1870645Y1778838D1*
X1867135Y1785105D1*
X1864128Y1791628D1*
X1861642Y1798365D1*
X1859695Y1805278D1*
X1858292Y1812322D1*
X1857448Y1819452D1*
X1857165Y1826628D1*
X1857448Y1833805D1*
X1858292Y1840935D1*
X1859695Y1847978D1*
X1861642Y1854892D1*
X1864128Y1861628D1*
X1867135Y1868152D1*
X1870645Y1874418D1*
X1874635Y1880388D1*
X1879082Y1886028D1*
X1883955Y1891302D1*
X1891938Y1898312D1*
X2005318D2*
X2013302Y1891302D1*
X2018175Y1886028D1*
X2022622Y1880388D1*
X2026612Y1874418D1*
X2030122Y1868152D1*
X2033128Y1861628D1*
X2035615Y1854892D1*
X2037562Y1847978D1*
X2038965Y1840935D1*
X2039808Y1833805D1*
X2040092Y1826628D1*
X2039808Y1819452D1*
X2038965Y1812322D1*
X2037562Y1805278D1*
X2035615Y1798365D1*
X2033128Y1791628D1*
X2030122Y1785105D1*
X2026612Y1778838D1*
X2022622Y1772868D1*
X2018175Y1767228D1*
X2013302Y1761955D1*
X2005318Y1754945D1*
X1547675Y1771432D2*
Y1881892D1*
X1539705Y1888955D1*
X1534832Y1894228D1*
X1530385Y1899868D1*
X1526395Y1905838D1*
X1522885Y1912105D1*
X1519878Y1918628D1*
X1517392Y1925365D1*
X1515445Y1932278D1*
X1514042Y1939322D1*
X1513198Y1946452D1*
X1512915Y1953628D1*
X1513198Y1960805D1*
X1514042Y1967935D1*
X1515445Y1974978D1*
X1517392Y1981892D1*
X1519878Y1988628D1*
X1522885Y1995152D1*
X1526395Y2001418D1*
X1530385Y2007388D1*
X1534832Y2013028D1*
X1539705Y2018302D1*
X1544978Y2023175D1*
X1550618Y2027622D1*
X1556588Y2031612D1*
X1562855Y2035122D1*
X1569378Y2038128D1*
X1576115Y2040615D1*
X1583028Y2042562D1*
X1590072Y2043965D1*
X1597202Y2044808D1*
X1604378Y2045092D1*
X1611555Y2044808D1*
X1618685Y2043965D1*
X1625728Y2042562D1*
X1632642Y2040615D1*
X1639378Y2038128D1*
X1645902Y2035122D1*
X1652168Y2031612D1*
X1658138Y2027622D1*
X1663778Y2023175D1*
X1669052Y2018302D1*
X1673925Y2013028D1*
X1678372Y2007388D1*
X1682362Y2001418D1*
X1685872Y1995152D1*
X1688878Y1988628D1*
X1691365Y1981892D1*
X1693312Y1974978D1*
X1694715Y1967935D1*
X1695558Y1960805D1*
X1695842Y1953628D1*
X1695558Y1946452D1*
X1694715Y1939322D1*
X1693312Y1932278D1*
X1691365Y1925365D1*
X1688878Y1918628D1*
X1685872Y1912105D1*
X1682362Y1905838D1*
X1678372Y1899868D1*
X1673925Y1894228D1*
X1669052Y1888955D1*
X1661068Y1881945D1*
X1661082Y1771365D1*
X1669052Y1764302D1*
X1673925Y1759028D1*
X1678372Y1753388D1*
X1682362Y1747418D1*
X1685872Y1741152D1*
X1688878Y1734628D1*
X1691365Y1727892D1*
X1693312Y1720978D1*
X1694715Y1713935D1*
X1695558Y1706805D1*
X1695842Y1699628D1*
X1695558Y1692452D1*
X1694715Y1685322D1*
X1693312Y1678278D1*
X1691365Y1671365D1*
X1688878Y1664628D1*
X1685872Y1658105D1*
X1682362Y1651838D1*
X1678372Y1645868D1*
X1673925Y1640228D1*
X1669052Y1634955D1*
X1663778Y1630082D1*
X1658138Y1625635D1*
X1652168Y1621645D1*
X1645902Y1618135D1*
X1639378Y1615128D1*
X1632642Y1612642D1*
X1625728Y1610695D1*
X1618685Y1609292D1*
X1611555Y1608448D1*
X1604378Y1608165D1*
X1597202Y1608448D1*
X1590072Y1609292D1*
X1583028Y1610695D1*
X1576115Y1612642D1*
X1569378Y1615128D1*
X1562855Y1618135D1*
X1556588Y1621645D1*
X1550618Y1625635D1*
X1544978Y1630082D1*
X1539705Y1634955D1*
X1534832Y1640228D1*
X1530385Y1645868D1*
X1526395Y1651838D1*
X1522885Y1658105D1*
X1519878Y1664628D1*
X1517392Y1671365D1*
X1515445Y1678278D1*
X1514042Y1685322D1*
X1513198Y1692452D1*
X1512915Y1699628D1*
X1513198Y1706805D1*
X1514042Y1713935D1*
X1515445Y1720978D1*
X1517392Y1727892D1*
X1519878Y1734628D1*
X1522885Y1741152D1*
X1526395Y1747418D1*
X1530385Y1753388D1*
X1534832Y1759028D1*
X1539705Y1764302D1*
X1547688Y1771312D1*
X3331805Y2162952D2*
D17*
X3496452Y1998305D1*
Y2162952D2*
X3331805Y1998305D1*
X1546128Y2565628D2*
X1746128Y2365628D1*
Y2565628D2*
X1546128Y2365628D1*
X2796128Y2565628D2*
X2996128Y2365628D1*
Y2565628D2*
X2796128Y2365628D1*
D20*
X3414128Y1826628D3*
D21*
Y2080628D3*
Y2334628D3*
Y2588628D3*
Y2842628D3*
Y3096628D3*
Y3350628D3*
Y3604628D3*
D20*
X1128128Y1826628D3*
D21*
Y2080628D3*
Y2334628D3*
Y2588628D3*
Y2842628D3*
Y3096628D3*
Y3350628D3*
Y3604628D3*
D19*
X2969628Y1604378D3*
Y1794378D3*
X2747378Y1604378D3*
Y1794378D3*
D24*
X1646128Y2965628D3*
D25*
X2896128D3*
X1646128Y2465628D3*
X2896128D3*
D30*
X3414128Y1128128D3*
X1128128Y4303128D3*
M02*
