G04 DipTrace 3.0.0.2*
G04 iota.GBO*
%MOMM*%
G04 #@! TF.FileFunction,Legend,Bot*
G04 #@! TF.Part,Single*
%ADD10C,0.25*%
%ADD12C,0.0762*%
%ADD61C,0.15686*%
%ADD62C,0.35294*%
%ADD63C,0.11765*%
%FSLAX35Y35*%
G04*
G71*
G90*
G75*
G01*
G04 BotSilk*
%LPD*%
X3541129Y1699629D2*
D10*
Y3731629D1*
X3287129Y1699629D2*
X3541129D1*
X3287129D2*
Y3731629D1*
X3541129D1*
X1255129Y1699629D2*
Y3731629D1*
X1001129Y1699629D2*
X1255129D1*
X1001129D2*
Y3731629D1*
X1255129D1*
X2983599Y2835009D2*
D12*
X3029319D1*
X2968749Y2827389D2*
X3032504D1*
X2343519Y2819769D2*
D3*
X2671179D2*
X2777859D1*
X2955900D2*
X3036725D1*
X2343519Y2812149D2*
D3*
X2404479D2*
D3*
X2644346D2*
X2797392D1*
X2949842D2*
X2983599D1*
X3029349D2*
X3041823D1*
X2343519Y2804529D2*
D3*
X2400696D2*
X2412099D1*
X2619434D2*
X2815957D1*
X2947987D2*
X2975979D1*
X3029616D2*
X3046477D1*
X2343519Y2796909D2*
X2351139D1*
X2396509D2*
X2412099D1*
X2598226D2*
X2832641D1*
X2949216D2*
X2968359D1*
X2998839D2*
D3*
X3030558D2*
X3049472D1*
X2343519Y2789289D2*
X2354686D1*
X2392824D2*
X2412099D1*
X2581663D2*
X2846602D1*
X2950827D2*
X2998839D1*
X3032115D2*
X3051023D1*
X2343519Y2781669D2*
X2357142D1*
X2389772D2*
X2412099D1*
X2569934D2*
X2856790D1*
X2952104D2*
X2995267D1*
X3033068D2*
X3051722D1*
X2343519Y2774049D2*
X2359227D1*
X2386901D2*
X2412099D1*
X2561968D2*
X2864278D1*
X2953119D2*
X2991219D1*
X3032304D2*
X3051979D1*
X2343489Y2766429D2*
X2361607D1*
X2384466D2*
X2412099D1*
X2556257D2*
X2866337D1*
X3030056D2*
X3051791D1*
X2343191Y2758809D2*
X2364080D1*
X2382829D2*
X2412099D1*
X2551645D2*
X2864630D1*
X3026898D2*
X3050562D1*
X2341952Y2751189D2*
X2366379D1*
X2381619D2*
X2412099D1*
X2547531D2*
X2859428D1*
X3022566D2*
X3047482D1*
X2339097Y2743569D2*
X2412099D1*
X2442579D2*
X2457819D1*
X2543631D2*
X2853106D1*
X3016861D2*
X3042409D1*
X2334752Y2735949D2*
X2412099D1*
X2434959D2*
X2453094D1*
X2540055D2*
X2846068D1*
X2997778D2*
X3035766D1*
X2329200Y2728329D2*
X2448719D1*
X2537226D2*
X2838712D1*
X2969250D2*
X3027683D1*
X2321978Y2720709D2*
X2444369D1*
X2535481D2*
X2831419D1*
X2937216D2*
X3017886D1*
X2313005Y2713089D2*
X2439420D1*
X2534350D2*
X2824534D1*
X2909956D2*
X3004594D1*
X2303256Y2705469D2*
X2433198D1*
X2532996D2*
X2817808D1*
X2888915D2*
X2982629D1*
X2294031Y2697849D2*
X2425421D1*
X2531016D2*
X2810559D1*
X2872281D2*
X2947558D1*
X2285756Y2690229D2*
X2416055D1*
X2529004D2*
X2803018D1*
X2858653D2*
X2902456D1*
X2277509Y2682609D2*
X2405365D1*
X2527653D2*
X2648639D1*
X2663529D2*
X2795630D1*
X2846439D2*
X2854059D1*
X2269177Y2674989D2*
X2393410D1*
X2526939D2*
X2642323D1*
X2670822D2*
X2787756D1*
X2261761Y2667369D2*
X2380295D1*
X2526614D2*
X2637172D1*
X2676875D2*
X2779321D1*
X2255556Y2659749D2*
X2366669D1*
X2526509D2*
X2635598D1*
X2681403D2*
X2770997D1*
X2869299D2*
X2892159D1*
X2249948Y2652129D2*
X2352547D1*
X2526725D2*
X2636896D1*
X2680858D2*
X2762931D1*
X2845373D2*
X2884799D1*
X2244545Y2644509D2*
X2337138D1*
X2527648D2*
X2638771D1*
X2676381D2*
X2754819D1*
X2820381D2*
X2877918D1*
X2239487Y2636889D2*
X2320659D1*
X2529198D2*
X2640699D1*
X2671179D2*
X2745935D1*
X2795119D2*
X2871421D1*
X2234458Y2629269D2*
X2330693D1*
X2530149D2*
X2735675D1*
X2770714D2*
X2864901D1*
X2229219Y2621649D2*
X2342657D1*
X2529361D2*
X2724519D1*
X2747379D2*
X2858481D1*
X2239734Y2614029D2*
X2356493D1*
X2526918D2*
X2852193D1*
X2250628Y2606409D2*
X2371969D1*
X2523205D2*
X2845518D1*
X2261787Y2598789D2*
X2389186D1*
X2518779D2*
X2838445D1*
X2273109Y2591169D2*
X2409016D1*
X2534321D2*
X2831334D1*
X2284487Y2583549D2*
X2434911D1*
X2547260D2*
X2824786D1*
X2295906Y2575929D2*
X2470052D1*
X2557569D2*
X2819030D1*
X2307324Y2568309D2*
X2511159D1*
X2567118D2*
X2813408D1*
X2318758Y2560689D2*
X2515261D1*
X2578875D2*
X2807413D1*
X2330211Y2553069D2*
X2520693D1*
X2594369D2*
X2801680D1*
X2341915Y2545449D2*
X2527205D1*
X2613036D2*
X2797002D1*
X2354309Y2537829D2*
X2534364D1*
X2633079D2*
X2793099D1*
X2367571Y2530209D2*
X2542083D1*
X2380978Y2522589D2*
X2550926D1*
X2394011Y2514969D2*
X2561851D1*
X2407113Y2507349D2*
X2575331D1*
X2420667Y2499729D2*
X2591280D1*
X2433910Y2492109D2*
X2610322D1*
X2445756Y2484489D2*
X2633586D1*
X2456050Y2476869D2*
X2660255D1*
X2130159Y2469249D2*
D3*
X2465565D2*
X2688312D1*
X2127234Y2461629D2*
X2137779D1*
X2412099D2*
X2427339D1*
X2474557D2*
X2716899D1*
X2123721Y2454009D2*
X2139247D1*
X2408884D2*
X2437534D1*
X2482512D2*
X2708656D1*
X2119450Y2446389D2*
X2142142D1*
X2404365D2*
X2447154D1*
X2489556D2*
X2702093D1*
X2114656Y2438769D2*
X2146209D1*
X2397999D2*
X2455247D1*
X2496313D2*
X2696636D1*
X2110036Y2431149D2*
X2150499D1*
X2390250D2*
X2461789D1*
X2502588D2*
X2691225D1*
X2105740Y2423529D2*
X2154659D1*
X2382178D2*
X2467762D1*
X2508167D2*
X2685072D1*
X2101465Y2415909D2*
X2158882D1*
X2374013D2*
X2473923D1*
X2513485D2*
X2678221D1*
X2096834Y2408289D2*
X2163494D1*
X2365527D2*
X2479888D1*
X2518742D2*
X2670950D1*
X2091889Y2400669D2*
X2168432D1*
X2356980D2*
X2485081D1*
X2523521D2*
X2663473D1*
X2087239Y2393049D2*
X2173109D1*
X2349172D2*
X2489382D1*
X2527621D2*
X2655908D1*
X2083189Y2385429D2*
X2177397D1*
X2341928D2*
X2492797D1*
X2530951D2*
X2648338D1*
X2846439D2*
D3*
X2079847Y2377809D2*
X2181441D1*
X2334193D2*
X2495646D1*
X2533736D2*
X2641052D1*
X2838819D2*
D3*
X2076801Y2370189D2*
X2185342D1*
X2325834D2*
X2498653D1*
X2536492D2*
X2634971D1*
X2832406D2*
X2838819D1*
X2073076Y2362569D2*
X2189195D1*
X2317303D2*
X2501979D1*
X2539110D2*
X2630355D1*
X2826943D2*
X2836214D1*
X2068633Y2354949D2*
X2193013D1*
X2308565D2*
X2505295D1*
X2541570D2*
X2630695D1*
X2709279D2*
D3*
X2822267D2*
X2833946D1*
X1977759Y2347329D2*
X1985379D1*
X2064220D2*
X2196834D1*
X2299616D2*
X2508016D1*
X2544192D2*
X2632581D1*
X2709279D2*
X2716899D1*
X2817807D2*
X2832501D1*
X1982744Y2339709D2*
X1997700D1*
X2060297D2*
X2200640D1*
X2290825D2*
X2509720D1*
X2546789D2*
X2635279D1*
X2709279D2*
X2718076D1*
X2812878D2*
X2831755D1*
X1987798Y2332089D2*
X2009469D1*
X2057270D2*
X2204457D1*
X2282018D2*
X2510836D1*
X2549498D2*
X2638006D1*
X2709279D2*
X2719995D1*
X2807179D2*
X2831389D1*
X1992735Y2324469D2*
X2020541D1*
X2055344D2*
X2121331D1*
X2136281D2*
X2208290D1*
X2273632D2*
X2512184D1*
X2553055D2*
X2640552D1*
X2709279D2*
X2722266D1*
X2801371D2*
X2830983D1*
X1996805Y2316849D2*
X2031099D1*
X2053959D2*
X2119174D1*
X2148358D2*
X2212374D1*
X2266205D2*
X2514162D1*
X2557206D2*
X2643220D1*
X2709279D2*
X2724839D1*
X2795980D2*
X2829959D1*
X2000226Y2309229D2*
X2116230D1*
X2158500D2*
X2217149D1*
X2263357D2*
X2516174D1*
X2560897D2*
X2645806D1*
X2709279D2*
X2728344D1*
X2790734D2*
X2828115D1*
X2003992Y2301609D2*
X2113041D1*
X2167090D2*
X2222820D1*
X2264886D2*
X2517524D1*
X2563957D2*
X2648285D1*
X2709279D2*
X2732476D1*
X2785472D2*
X2826154D1*
X2892159D2*
X2899779D1*
X2008239Y2293989D2*
X2110111D1*
X2174274D2*
X2228876D1*
X2272207D2*
X2518238D1*
X2566861D2*
X2651142D1*
X2709279D2*
X2736160D1*
X2780434D2*
X2824817D1*
X2876919D2*
X2894764D1*
X1980854Y2286369D2*
X2107487D1*
X2180252D2*
X2235260D1*
X2282735D2*
X2518564D1*
X2569577D2*
X2654411D1*
X2709249D2*
X2739224D1*
X2775389D2*
X2824070D1*
X2861679D2*
X2889441D1*
X1954899Y2278749D2*
X2104792D1*
X2185701D2*
X2242626D1*
X2295934D2*
X2518698D1*
X2572332D2*
X2657735D1*
X2708981D2*
X2742164D1*
X2770418D2*
X2823579D1*
X2846439D2*
X2883534D1*
X1968291Y2271129D2*
X2102196D1*
X2190751D2*
X2251109D1*
X2311125D2*
X2518750D1*
X2575935D2*
X2660747D1*
X2708010D2*
X2744913D1*
X2766203D2*
X2877631D1*
X1978826Y2263509D2*
X2099684D1*
X2194581D2*
X2260570D1*
X2327771D2*
X2518739D1*
X2580331D2*
X2663687D1*
X2706185D2*
X2747379D1*
X2762619D2*
X2872203D1*
X1986508Y2255889D2*
X2096439D1*
X2196833D2*
X2271391D1*
X2344504D2*
X2518418D1*
X2584727D2*
X2667628D1*
X2704231D2*
X2866942D1*
X1987765Y2248269D2*
X2092256D1*
X2197944D2*
X2283245D1*
X2359763D2*
X2517617D1*
X2588702D2*
X2673045D1*
X2702896D2*
X2861675D1*
X1985518Y2240649D2*
X2081370D1*
X2198430D2*
X2295230D1*
X2372615D2*
X2513033D1*
X2592241D2*
X2679520D1*
X2702150D2*
X2856635D1*
X1982025Y2233029D2*
X2065382D1*
X2198625D2*
X2307011D1*
X2383375D2*
X2506261D1*
X2596005D2*
X2686419D1*
X2701659D2*
X2851567D1*
X1977759Y2225409D2*
X2046339D1*
X2198699D2*
X2318598D1*
X2393061D2*
X2498630D1*
X2600817D2*
X2846383D1*
X2198725Y2217789D2*
X2329833D1*
X2402105D2*
X2491331D1*
X2606120D2*
X2841376D1*
X2198734Y2210169D2*
X2340300D1*
X2409835D2*
X2484316D1*
X2611060D2*
X2836320D1*
X2198767Y2202549D2*
X2349643D1*
X2416196D2*
X2477622D1*
X2615756D2*
X2831141D1*
X2199036Y2194929D2*
X2358099D1*
X2422120D2*
X2470939D1*
X2620817D2*
X2826106D1*
X2200007Y2187309D2*
X2365834D1*
X2428512D2*
X2463049D1*
X2626608D2*
X2820782D1*
X2201832Y2179689D2*
X2372639D1*
X2435428D2*
X2453356D1*
X2632709D2*
X2814662D1*
X2203786Y2172069D2*
X2378493D1*
X2442579D2*
D3*
X2639111D2*
X2808040D1*
X2205115Y2164449D2*
X2384150D1*
X2646453D2*
X2801496D1*
X2205822Y2156829D2*
X2390181D1*
X2654671D2*
X2795078D1*
X2206145Y2149209D2*
X2396096D1*
X2663220D2*
X2787987D1*
X2206279Y2141589D2*
X2401301D1*
X2672773D2*
X2778764D1*
X1817739Y2133969D2*
X1932039D1*
X2206330D2*
X2405833D1*
X2684825D2*
X2765186D1*
X1795754Y2126349D2*
X1951679D1*
X2168259D2*
D3*
X2206349D2*
X2409979D1*
X2700008D2*
X2746252D1*
X1777144Y2118729D2*
X1968730D1*
X2164451D2*
X2168259D1*
X2206385D2*
X2413949D1*
X2716899D2*
X2724519D1*
X1761783Y2111109D2*
X1983472D1*
X2161286D2*
X2171776D1*
X2206655D2*
X2418056D1*
X1748545Y2103489D2*
X1995824D1*
X2158322D2*
X2173965D1*
X2207627D2*
X2422582D1*
X1736597Y2095869D2*
X2005810D1*
X2155579D2*
X2175072D1*
X2209452D2*
X2427258D1*
X1725839Y2088249D2*
X1873216D1*
X1915809D2*
X2013686D1*
X2152812D2*
X2175563D1*
X2211436D2*
X2431193D1*
X1716145Y2080629D2*
X1840858D1*
X1942168D2*
X2019722D1*
X2149205D2*
X2175792D1*
X2213063D2*
X2434356D1*
X1706902Y2073009D2*
X1814285D1*
X1962124D2*
X2024332D1*
X2144808D2*
X2176135D1*
X2215008D2*
X2437270D1*
X1697782Y2065389D2*
X1793663D1*
X1976736D2*
X2027609D1*
X2140381D2*
X2177133D1*
X2218128D2*
X2439731D1*
X1689183Y2057769D2*
X1777524D1*
X1982434D2*
X2029504D1*
X2136168D2*
X2178968D1*
X2222040D2*
X2441521D1*
X1681291Y2050149D2*
X1764219D1*
X1986689D2*
X2030404D1*
X2131896D2*
X2180954D1*
X2225374D2*
X2290179D1*
X2325894D2*
X2443301D1*
X1674394Y2042529D2*
X1752895D1*
X1893939D2*
X1901559D1*
X1989455D2*
X2030543D1*
X2127009D2*
X2182552D1*
X2227458D2*
X2282589D1*
X2337058D2*
X2445743D1*
X1668495Y2034909D2*
X1743250D1*
X1883979D2*
X1898041D1*
X1990935D2*
X2029735D1*
X2121068D2*
X2184230D1*
X2228763D2*
X2275236D1*
X2347083D2*
X2448810D1*
X1662818Y2027289D2*
X1734911D1*
X1876089D2*
X1895883D1*
X1989166D2*
X2027942D1*
X2114297D2*
X2186409D1*
X2230193D2*
X2268588D1*
X2356560D2*
X2452019D1*
X1656781Y2019669D2*
X1727836D1*
X1869632D2*
X1895073D1*
X1986456D2*
X2025712D1*
X2107055D2*
X2188764D1*
X2232204D2*
X2262793D1*
X2365307D2*
X2454699D1*
X1650863Y2012049D2*
X1721871D1*
X1864125D2*
X1895176D1*
X1983093D2*
X2023152D1*
X2099618D2*
X2191115D1*
X2234228D2*
X2257156D1*
X2373285D2*
X2456388D1*
X1645657Y2004429D2*
X1716171D1*
X1860108D2*
X1898576D1*
X1978925D2*
X2019652D1*
X2092295D2*
X2193666D1*
X2235582D2*
X2251155D1*
X2380441D2*
X2457498D1*
X1641125Y1996809D2*
X1710154D1*
X1857784D2*
X1903667D1*
X1973041D2*
X2015521D1*
X2085399D2*
X2195949D1*
X2236299D2*
X2245421D1*
X2387020D2*
X2458845D1*
X1636978Y1989189D2*
X1704472D1*
X1856676D2*
X1909988D1*
X1964685D2*
X2011807D1*
X2078640D2*
X2197414D1*
X2236639D2*
X2240742D1*
X2393285D2*
X2460823D1*
X1633038Y1981569D2*
X1699999D1*
X1856539D2*
X1916799D1*
X1954899D2*
X2008452D1*
X2071181D2*
X2198143D1*
X2236839D2*
D3*
X2398452D2*
X2462834D1*
X1629199Y1973949D2*
X1696588D1*
X1857182D2*
X2004309D1*
X2063175D2*
X2198217D1*
X2401622D2*
X2464214D1*
X1625615Y1966329D2*
X1693570D1*
X1861797D2*
X1998798D1*
X2055636D2*
X2197387D1*
X2402953D2*
X2465196D1*
X1622525Y1958709D2*
X1691128D1*
X1872996D2*
X1992237D1*
X2048457D2*
X2195586D1*
X2403143D2*
X2466493D1*
X1619841Y1951089D2*
X1689860D1*
X1886753D2*
X1985100D1*
X2040538D2*
X2193383D1*
X2399767D2*
X2468452D1*
X1617153Y1943469D2*
X1690076D1*
X1901559D2*
X1977759D1*
X2031478D2*
X2191090D1*
X2394368D2*
X2470458D1*
X1614817Y1935849D2*
X1691848D1*
X2022081D2*
X2188531D1*
X2386491D2*
X2471805D1*
X1613333Y1928229D2*
X1694957D1*
X2012966D2*
X2185987D1*
X2375557D2*
X2472548D1*
X1612568Y1920609D2*
X1699593D1*
X2003952D2*
X2183524D1*
X2361686D2*
X2473164D1*
X1612223Y1912989D2*
X1706328D1*
X1994857D2*
X2180643D1*
X2345373D2*
X2474476D1*
X1612082Y1905369D2*
X1715144D1*
X1985723D2*
X2177079D1*
X2326226D2*
X2477134D1*
X1612029Y1897749D2*
X1725640D1*
X1975572D2*
X2172486D1*
X2304753D2*
X2480679D1*
X1612009Y1890129D2*
X1738085D1*
X1963461D2*
X2166410D1*
X2284285D2*
X2463349D1*
X1612002Y1882509D2*
X1753641D1*
X1949296D2*
X2158720D1*
X2268466D2*
X2446299D1*
X1612000Y1874889D2*
X1772893D1*
X1932834D2*
X2149642D1*
X2256420D2*
X2429423D1*
X1611999Y1867269D2*
X1794848D1*
X1913960D2*
X2139930D1*
X2256899D2*
X2413099D1*
X1612029Y1859649D2*
X1817739D1*
X1893939D2*
X2129803D1*
X2258201D2*
X2397256D1*
X1612326Y1852029D2*
X2118642D1*
X2260071D2*
X2381619D1*
X1613595Y1844409D2*
X2106392D1*
X2262674D2*
X2387521D1*
X1616689Y1836789D2*
X2093386D1*
X2265874D2*
X2393756D1*
X1621736Y1829169D2*
X2079732D1*
X2269401D2*
X2399810D1*
X1628142Y1821549D2*
X2065858D1*
X2273074D2*
X2405087D1*
X1635493Y1813929D2*
X2051755D1*
X2276597D2*
X2409856D1*
X1643960Y1806309D2*
X2036486D1*
X2279664D2*
X2366379D1*
X2396859D2*
X2414656D1*
X1654159Y1798689D2*
X2019680D1*
X2282341D2*
X2366379D1*
X2412099D2*
X2419719D1*
X1667034Y1791069D2*
X2001610D1*
X2285055D2*
X2366379D1*
X1683880Y1783449D2*
X1981865D1*
X2287688D2*
X2320659D1*
X2337367D2*
X2366379D1*
X1705901Y1775829D2*
X1958096D1*
X2290411D2*
X2320629D1*
X2340262D2*
X2366379D1*
X1733482Y1768209D2*
X1928065D1*
X2293972D2*
X2320361D1*
X2344359D2*
X2366409D1*
X1764399Y1760589D2*
X1893939D1*
X2298125D2*
X2319390D1*
X2348887D2*
X2366676D1*
X2301817Y1752969D2*
X2317565D1*
X2353750D2*
X2367648D1*
X2304877Y1745349D2*
X2315611D1*
X2358851D2*
X2369474D1*
X2307753Y1737729D2*
X2314282D1*
X2363794D2*
X2371447D1*
X2310190Y1730109D2*
X2313574D1*
X2368780D2*
X2372891D1*
X2311828Y1722489D2*
X2313238D1*
X2373999D2*
D3*
X2313039Y1714869D2*
D3*
X2983599Y2835009D2*
X2968749Y2827389D1*
X2955900Y2819769D1*
X2949842Y2812149D1*
X2947987Y2804529D1*
X2949216Y2796909D1*
X2950827Y2789289D1*
X2952104Y2781669D1*
X2953119Y2774049D1*
X3029319Y2835009D2*
X3032504Y2827389D1*
X3036725Y2819769D1*
X3041823Y2812149D1*
X3046477Y2804529D1*
X3049472Y2796909D1*
X3051023Y2789289D1*
X3051722Y2781669D1*
X3051979Y2774049D1*
X3051791Y2766429D1*
X3050562Y2758809D1*
X3047482Y2751189D1*
X3042409Y2743569D1*
X3035766Y2735949D1*
X3027683Y2728329D1*
X3017886Y2720709D1*
X3004594Y2713089D1*
X2982629Y2705469D1*
X2947558Y2697849D1*
X2902456Y2690229D1*
X2854059Y2682609D1*
X2343519Y2819769D2*
Y2812149D1*
Y2804529D1*
Y2796909D1*
Y2789289D1*
Y2781669D1*
Y2774049D1*
X2343489Y2766429D1*
X2343191Y2758809D1*
X2341952Y2751189D1*
X2339097Y2743569D1*
X2334752Y2735949D1*
X2329200Y2728329D1*
X2321978Y2720709D1*
X2313005Y2713089D1*
X2303256Y2705469D1*
X2294031Y2697849D1*
X2285756Y2690229D1*
X2277509Y2682609D1*
X2269177Y2674989D1*
X2261761Y2667369D1*
X2255556Y2659749D1*
X2249948Y2652129D1*
X2244545Y2644509D1*
X2239487Y2636889D1*
X2234458Y2629269D1*
X2229219Y2621649D1*
X2239734Y2614029D1*
X2250628Y2606409D1*
X2261787Y2598789D1*
X2273109Y2591169D1*
X2284487Y2583549D1*
X2295906Y2575929D1*
X2307324Y2568309D1*
X2318758Y2560689D1*
X2330211Y2553069D1*
X2341915Y2545449D1*
X2354309Y2537829D1*
X2367571Y2530209D1*
X2380978Y2522589D1*
X2394011Y2514969D1*
X2407113Y2507349D1*
X2420667Y2499729D1*
X2433910Y2492109D1*
X2445756Y2484489D1*
X2456050Y2476869D1*
X2465565Y2469249D1*
X2474557Y2461629D1*
X2482512Y2454009D1*
X2489556Y2446389D1*
X2496313Y2438769D1*
X2502588Y2431149D1*
X2508167Y2423529D1*
X2513485Y2415909D1*
X2518742Y2408289D1*
X2523521Y2400669D1*
X2527621Y2393049D1*
X2530951Y2385429D1*
X2533736Y2377809D1*
X2536492Y2370189D1*
X2539110Y2362569D1*
X2541570Y2354949D1*
X2544192Y2347329D1*
X2546789Y2339709D1*
X2549498Y2332089D1*
X2553055Y2324469D1*
X2557206Y2316849D1*
X2560897Y2309229D1*
X2563957Y2301609D1*
X2566861Y2293989D1*
X2569577Y2286369D1*
X2572332Y2278749D1*
X2575935Y2271129D1*
X2580331Y2263509D1*
X2584727Y2255889D1*
X2588702Y2248269D1*
X2592241Y2240649D1*
X2596005Y2233029D1*
X2600817Y2225409D1*
X2606120Y2217789D1*
X2611060Y2210169D1*
X2615756Y2202549D1*
X2620817Y2194929D1*
X2626608Y2187309D1*
X2632709Y2179689D1*
X2639111Y2172069D1*
X2646453Y2164449D1*
X2654671Y2156829D1*
X2663220Y2149209D1*
X2672773Y2141589D1*
X2684825Y2133969D1*
X2700008Y2126349D1*
X2716899Y2118729D1*
X2671179Y2819769D2*
X2644346Y2812149D1*
X2619434Y2804529D1*
X2598226Y2796909D1*
X2581663Y2789289D1*
X2569934Y2781669D1*
X2561968Y2774049D1*
X2556257Y2766429D1*
X2551645Y2758809D1*
X2547531Y2751189D1*
X2543631Y2743569D1*
X2540055Y2735949D1*
X2537226Y2728329D1*
X2535481Y2720709D1*
X2534350Y2713089D1*
X2532996Y2705469D1*
X2531016Y2697849D1*
X2529004Y2690229D1*
X2527653Y2682609D1*
X2526939Y2674989D1*
X2526614Y2667369D1*
X2526509Y2659749D1*
X2526725Y2652129D1*
X2527648Y2644509D1*
X2529198Y2636889D1*
X2530149Y2629269D1*
X2529361Y2621649D1*
X2526918Y2614029D1*
X2523205Y2606409D1*
X2518779Y2598789D1*
X2534321Y2591169D1*
X2547260Y2583549D1*
X2557569Y2575929D1*
X2567118Y2568309D1*
X2578875Y2560689D1*
X2594369Y2553069D1*
X2613036Y2545449D1*
X2633079Y2537829D1*
X2777859Y2819769D2*
X2797392Y2812149D1*
X2815957Y2804529D1*
X2832641Y2796909D1*
X2846602Y2789289D1*
X2856790Y2781669D1*
X2864278Y2774049D1*
X2866337Y2766429D1*
X2864630Y2758809D1*
X2859428Y2751189D1*
X2853106Y2743569D1*
X2846068Y2735949D1*
X2838712Y2728329D1*
X2831419Y2720709D1*
X2824534Y2713089D1*
X2817808Y2705469D1*
X2810559Y2697849D1*
X2803018Y2690229D1*
X2795630Y2682609D1*
X2787756Y2674989D1*
X2779321Y2667369D1*
X2770997Y2659749D1*
X2762931Y2652129D1*
X2754819Y2644509D1*
X2745935Y2636889D1*
X2735675Y2629269D1*
X2724519Y2621649D1*
X2404479Y2812149D2*
X2400696Y2804529D1*
X2396509Y2796909D1*
X2392824Y2789289D1*
X2389772Y2781669D1*
X2386901Y2774049D1*
X2384466Y2766429D1*
X2382829Y2758809D1*
X2381619Y2751189D1*
X2991219Y2819769D2*
X2983599Y2812149D1*
X2975979Y2804529D1*
X2968359Y2796909D1*
X3029319Y2819769D2*
X3029349Y2812149D1*
X3029616Y2804529D1*
X3030558Y2796909D1*
X3032115Y2789289D1*
X3033068Y2781669D1*
X3032304Y2774049D1*
X3030056Y2766429D1*
X3026898Y2758809D1*
X3022566Y2751189D1*
X3016861Y2743569D1*
X2997778Y2735949D1*
X2969250Y2728329D1*
X2937216Y2720709D1*
X2909956Y2713089D1*
X2888915Y2705469D1*
X2872281Y2697849D1*
X2858653Y2690229D1*
X2846439Y2682609D1*
X2412099Y2804529D2*
Y2796909D1*
Y2789289D1*
Y2781669D1*
Y2774049D1*
Y2766429D1*
Y2758809D1*
Y2751189D1*
Y2743569D1*
Y2735949D1*
X2351139Y2796909D2*
X2354686Y2789289D1*
X2357142Y2781669D1*
X2359227Y2774049D1*
X2361607Y2766429D1*
X2364080Y2758809D1*
X2366379Y2751189D1*
X2998839Y2796909D2*
Y2789289D2*
X2995267Y2781669D1*
X2991219Y2774049D1*
X2442579Y2743569D2*
X2434959Y2735949D1*
X2457819Y2743569D2*
X2453094Y2735949D1*
X2448719Y2728329D1*
X2444369Y2720709D1*
X2439420Y2713089D1*
X2433198Y2705469D1*
X2425421Y2697849D1*
X2416055Y2690229D1*
X2405365Y2682609D1*
X2393410Y2674989D1*
X2380295Y2667369D1*
X2366669Y2659749D1*
X2352547Y2652129D1*
X2337138Y2644509D1*
X2320659Y2636889D1*
X2330693Y2629269D1*
X2342657Y2621649D1*
X2356493Y2614029D1*
X2371969Y2606409D1*
X2389186Y2598789D1*
X2409016Y2591169D1*
X2434911Y2583549D1*
X2470052Y2575929D1*
X2511159Y2568309D1*
X2515261Y2560689D1*
X2520693Y2553069D1*
X2527205Y2545449D1*
X2534364Y2537829D1*
X2542083Y2530209D1*
X2550926Y2522589D1*
X2561851Y2514969D1*
X2575331Y2507349D1*
X2591280Y2499729D1*
X2610322Y2492109D1*
X2633586Y2484489D1*
X2660255Y2476869D1*
X2688312Y2469249D1*
X2716899Y2461629D1*
X2708656Y2454009D1*
X2702093Y2446389D1*
X2696636Y2438769D1*
X2691225Y2431149D1*
X2685072Y2423529D1*
X2678221Y2415909D1*
X2670950Y2408289D1*
X2663473Y2400669D1*
X2655908Y2393049D1*
X2648338Y2385429D1*
X2641052Y2377809D1*
X2634971Y2370189D1*
X2630355Y2362569D1*
X2630695Y2354949D1*
X2632581Y2347329D1*
X2635279Y2339709D1*
X2638006Y2332089D1*
X2640552Y2324469D1*
X2643220Y2316849D1*
X2645806Y2309229D1*
X2648285Y2301609D1*
X2651142Y2293989D1*
X2654411Y2286369D1*
X2657735Y2278749D1*
X2660747Y2271129D1*
X2663687Y2263509D1*
X2667628Y2255889D1*
X2673045Y2248269D1*
X2679520Y2240649D1*
X2686419Y2233029D1*
X2655939Y2690229D2*
X2648639Y2682609D1*
X2642323Y2674989D1*
X2637172Y2667369D1*
X2635598Y2659749D1*
X2636896Y2652129D1*
X2638771Y2644509D1*
X2640699Y2636889D1*
X2655939Y2690229D2*
X2663529Y2682609D1*
X2670822Y2674989D1*
X2676875Y2667369D1*
X2681403Y2659749D1*
X2680858Y2652129D1*
X2676381Y2644509D1*
X2671179Y2636889D1*
X2869299Y2659749D2*
X2845373Y2652129D1*
X2820381Y2644509D1*
X2795119Y2636889D1*
X2770714Y2629269D1*
X2747379Y2621649D1*
X2892159Y2659749D2*
X2884799Y2652129D1*
X2877918Y2644509D1*
X2871421Y2636889D1*
X2864901Y2629269D1*
X2858481Y2621649D1*
X2852193Y2614029D1*
X2845518Y2606409D1*
X2838445Y2598789D1*
X2831334Y2591169D1*
X2824786Y2583549D1*
X2819030Y2575929D1*
X2813408Y2568309D1*
X2807413Y2560689D1*
X2801680Y2553069D1*
X2797002Y2545449D1*
X2793099Y2537829D1*
X2130159Y2469249D2*
X2127234Y2461629D1*
X2123721Y2454009D1*
X2119450Y2446389D1*
X2114656Y2438769D1*
X2110036Y2431149D1*
X2105740Y2423529D1*
X2101465Y2415909D1*
X2096834Y2408289D1*
X2091889Y2400669D1*
X2087239Y2393049D1*
X2083189Y2385429D1*
X2079847Y2377809D1*
X2076801Y2370189D1*
X2073076Y2362569D1*
X2068633Y2354949D1*
X2064220Y2347329D1*
X2060297Y2339709D1*
X2057270Y2332089D1*
X2055344Y2324469D1*
X2053959Y2316849D1*
X2137779Y2461629D2*
X2139247Y2454009D1*
X2142142Y2446389D1*
X2146209Y2438769D1*
X2150499Y2431149D1*
X2154659Y2423529D1*
X2158882Y2415909D1*
X2163494Y2408289D1*
X2168432Y2400669D1*
X2173109Y2393049D1*
X2177397Y2385429D1*
X2181441Y2377809D1*
X2185342Y2370189D1*
X2189195Y2362569D1*
X2193013Y2354949D1*
X2196834Y2347329D1*
X2200640Y2339709D1*
X2204457Y2332089D1*
X2208290Y2324469D1*
X2212374Y2316849D1*
X2217149Y2309229D1*
X2222820Y2301609D1*
X2228876Y2293989D1*
X2235260Y2286369D1*
X2242626Y2278749D1*
X2251109Y2271129D1*
X2260570Y2263509D1*
X2271391Y2255889D1*
X2283245Y2248269D1*
X2295230Y2240649D1*
X2307011Y2233029D1*
X2318598Y2225409D1*
X2329833Y2217789D1*
X2340300Y2210169D1*
X2349643Y2202549D1*
X2358099Y2194929D1*
X2365834Y2187309D1*
X2372639Y2179689D1*
X2378493Y2172069D1*
X2384150Y2164449D1*
X2390181Y2156829D1*
X2396096Y2149209D1*
X2401301Y2141589D1*
X2405833Y2133969D1*
X2409979Y2126349D1*
X2413949Y2118729D1*
X2418056Y2111109D1*
X2422582Y2103489D1*
X2427258Y2095869D1*
X2431193Y2088249D1*
X2434356Y2080629D1*
X2437270Y2073009D1*
X2439731Y2065389D1*
X2441521Y2057769D1*
X2443301Y2050149D1*
X2445743Y2042529D1*
X2448810Y2034909D1*
X2452019Y2027289D1*
X2454699Y2019669D1*
X2456388Y2012049D1*
X2457498Y2004429D1*
X2458845Y1996809D1*
X2460823Y1989189D1*
X2462834Y1981569D1*
X2464214Y1973949D1*
X2465196Y1966329D1*
X2466493Y1958709D1*
X2468452Y1951089D1*
X2470458Y1943469D1*
X2471805Y1935849D1*
X2472548Y1928229D1*
X2473164Y1920609D1*
X2474476Y1912989D1*
X2477134Y1905369D1*
X2480679Y1897749D1*
X2463349Y1890129D1*
X2446299Y1882509D1*
X2429423Y1874889D1*
X2413099Y1867269D1*
X2397256Y1859649D1*
X2381619Y1852029D1*
X2387521Y1844409D1*
X2393756Y1836789D1*
X2399810Y1829169D1*
X2405087Y1821549D1*
X2409856Y1813929D1*
X2414656Y1806309D1*
X2419719Y1798689D1*
X2412099Y2461629D2*
X2408884Y2454009D1*
X2404365Y2446389D1*
X2397999Y2438769D1*
X2390250Y2431149D1*
X2382178Y2423529D1*
X2374013Y2415909D1*
X2365527Y2408289D1*
X2356980Y2400669D1*
X2349172Y2393049D1*
X2341928Y2385429D1*
X2334193Y2377809D1*
X2325834Y2370189D1*
X2317303Y2362569D1*
X2308565Y2354949D1*
X2299616Y2347329D1*
X2290825Y2339709D1*
X2282018Y2332089D1*
X2273632Y2324469D1*
X2266205Y2316849D1*
X2263357Y2309229D1*
X2264886Y2301609D1*
X2272207Y2293989D1*
X2282735Y2286369D1*
X2295934Y2278749D1*
X2311125Y2271129D1*
X2327771Y2263509D1*
X2344504Y2255889D1*
X2359763Y2248269D1*
X2372615Y2240649D1*
X2383375Y2233029D1*
X2393061Y2225409D1*
X2402105Y2217789D1*
X2409835Y2210169D1*
X2416196Y2202549D1*
X2422120Y2194929D1*
X2428512Y2187309D1*
X2435428Y2179689D1*
X2442579Y2172069D1*
X2427339Y2461629D2*
X2437534Y2454009D1*
X2447154Y2446389D1*
X2455247Y2438769D1*
X2461789Y2431149D1*
X2467762Y2423529D1*
X2473923Y2415909D1*
X2479888Y2408289D1*
X2485081Y2400669D1*
X2489382Y2393049D1*
X2492797Y2385429D1*
X2495646Y2377809D1*
X2498653Y2370189D1*
X2501979Y2362569D1*
X2505295Y2354949D1*
X2508016Y2347329D1*
X2509720Y2339709D1*
X2510836Y2332089D1*
X2512184Y2324469D1*
X2514162Y2316849D1*
X2516174Y2309229D1*
X2517524Y2301609D1*
X2518238Y2293989D1*
X2518564Y2286369D1*
X2518698Y2278749D1*
X2518750Y2271129D1*
X2518739Y2263509D1*
X2518418Y2255889D1*
X2517617Y2248269D1*
X2513033Y2240649D1*
X2506261Y2233029D1*
X2498630Y2225409D1*
X2491331Y2217789D1*
X2484316Y2210169D1*
X2477622Y2202549D1*
X2470939Y2194929D1*
X2463049Y2187309D1*
X2453356Y2179689D1*
X2442579Y2172069D1*
X2846439Y2385429D2*
X2838819Y2377809D2*
X2832406Y2370189D1*
X2826943Y2362569D1*
X2822267Y2354949D1*
X2817807Y2347329D1*
X2812878Y2339709D1*
X2807179Y2332089D1*
X2801371Y2324469D1*
X2795980Y2316849D1*
X2790734Y2309229D1*
X2785472Y2301609D1*
X2780434Y2293989D1*
X2775389Y2286369D1*
X2770418Y2278749D1*
X2766203Y2271129D1*
X2762619Y2263509D1*
X2838819Y2370189D2*
X2836214Y2362569D1*
X2833946Y2354949D1*
X2832501Y2347329D1*
X2831755Y2339709D1*
X2831389Y2332089D1*
X2830983Y2324469D1*
X2829959Y2316849D1*
X2828115Y2309229D1*
X2826154Y2301609D1*
X2824817Y2293989D1*
X2824070Y2286369D1*
X2823579Y2278749D1*
X2709279Y2354949D2*
Y2347329D1*
Y2339709D1*
Y2332089D1*
Y2324469D1*
Y2316849D1*
Y2309229D1*
Y2301609D1*
Y2293989D1*
X2709249Y2286369D1*
X2708981Y2278749D1*
X2708010Y2271129D1*
X2706185Y2263509D1*
X2704231Y2255889D1*
X2702896Y2248269D1*
X2702150Y2240649D1*
X2701659Y2233029D1*
X1977759Y2347329D2*
X1982744Y2339709D1*
X1987798Y2332089D1*
X1992735Y2324469D1*
X1996805Y2316849D1*
X2000226Y2309229D1*
X2003992Y2301609D1*
X2008239Y2293989D1*
X1980854Y2286369D1*
X1954899Y2278749D1*
X1968291Y2271129D1*
X1978826Y2263509D1*
X1986508Y2255889D1*
X1987765Y2248269D1*
X1985518Y2240649D1*
X1982025Y2233029D1*
X1977759Y2225409D1*
X1985379Y2347329D2*
X1997700Y2339709D1*
X2009469Y2332089D1*
X2020541Y2324469D1*
X2031099Y2316849D1*
X2716899Y2347329D2*
X2718076Y2339709D1*
X2719995Y2332089D1*
X2722266Y2324469D1*
X2724839Y2316849D1*
X2728344Y2309229D1*
X2732476Y2301609D1*
X2736160Y2293989D1*
X2739224Y2286369D1*
X2742164Y2278749D1*
X2744913Y2271129D1*
X2747379Y2263509D1*
X2122539Y2332089D2*
X2121331Y2324469D1*
X2119174Y2316849D1*
X2116230Y2309229D1*
X2113041Y2301609D1*
X2110111Y2293989D1*
X2107487Y2286369D1*
X2104792Y2278749D1*
X2102196Y2271129D1*
X2099684Y2263509D1*
X2096439Y2255889D1*
X2092256Y2248269D1*
X2081370Y2240649D1*
X2065382Y2233029D1*
X2046339Y2225409D1*
X2122539Y2332089D2*
X2136281Y2324469D1*
X2148358Y2316849D1*
X2158500Y2309229D1*
X2167090Y2301609D1*
X2174274Y2293989D1*
X2180252Y2286369D1*
X2185701Y2278749D1*
X2190751Y2271129D1*
X2194581Y2263509D1*
X2196833Y2255889D1*
X2197944Y2248269D1*
X2198430Y2240649D1*
X2198625Y2233029D1*
X2198699Y2225409D1*
X2198725Y2217789D1*
X2198734Y2210169D1*
X2198767Y2202549D1*
X2199036Y2194929D1*
X2200007Y2187309D1*
X2201832Y2179689D1*
X2203786Y2172069D1*
X2205115Y2164449D1*
X2205822Y2156829D1*
X2206145Y2149209D1*
X2206279Y2141589D1*
X2206330Y2133969D1*
X2206349Y2126349D1*
X2206385Y2118729D1*
X2206655Y2111109D1*
X2207627Y2103489D1*
X2209452Y2095869D1*
X2211436Y2088249D1*
X2213063Y2080629D1*
X2215008Y2073009D1*
X2218128Y2065389D1*
X2222040Y2057769D1*
X2225374Y2050149D1*
X2227458Y2042529D1*
X2228763Y2034909D1*
X2230193Y2027289D1*
X2232204Y2019669D1*
X2234228Y2012049D1*
X2235582Y2004429D1*
X2236299Y1996809D1*
X2236639Y1989189D1*
X2236839Y1981569D1*
X2892159Y2301609D2*
X2876919Y2293989D1*
X2861679Y2286369D1*
X2846439Y2278749D1*
X2899779Y2301609D2*
X2894764Y2293989D1*
X2889441Y2286369D1*
X2883534Y2278749D1*
X2877631Y2271129D1*
X2872203Y2263509D1*
X2866942Y2255889D1*
X2861675Y2248269D1*
X2856635Y2240649D1*
X2851567Y2233029D1*
X2846383Y2225409D1*
X2841376Y2217789D1*
X2836320Y2210169D1*
X2831141Y2202549D1*
X2826106Y2194929D1*
X2820782Y2187309D1*
X2814662Y2179689D1*
X2808040Y2172069D1*
X2801496Y2164449D1*
X2795078Y2156829D1*
X2787987Y2149209D1*
X2778764Y2141589D1*
X2765186Y2133969D1*
X2746252Y2126349D1*
X2724519Y2118729D1*
X1817739Y2133969D2*
X1795754Y2126349D1*
X1777144Y2118729D1*
X1761783Y2111109D1*
X1748545Y2103489D1*
X1736597Y2095869D1*
X1725839Y2088249D1*
X1716145Y2080629D1*
X1706902Y2073009D1*
X1697782Y2065389D1*
X1689183Y2057769D1*
X1681291Y2050149D1*
X1674394Y2042529D1*
X1668495Y2034909D1*
X1662818Y2027289D1*
X1656781Y2019669D1*
X1650863Y2012049D1*
X1645657Y2004429D1*
X1641125Y1996809D1*
X1636978Y1989189D1*
X1633038Y1981569D1*
X1629199Y1973949D1*
X1625615Y1966329D1*
X1622525Y1958709D1*
X1619841Y1951089D1*
X1617153Y1943469D1*
X1614817Y1935849D1*
X1613333Y1928229D1*
X1612568Y1920609D1*
X1612223Y1912989D1*
X1612082Y1905369D1*
X1612029Y1897749D1*
X1612009Y1890129D1*
X1612002Y1882509D1*
X1612000Y1874889D1*
X1611999Y1867269D1*
X1612029Y1859649D1*
X1612326Y1852029D1*
X1613595Y1844409D1*
X1616689Y1836789D1*
X1621736Y1829169D1*
X1628142Y1821549D1*
X1635493Y1813929D1*
X1643960Y1806309D1*
X1654159Y1798689D1*
X1667034Y1791069D1*
X1683880Y1783449D1*
X1705901Y1775829D1*
X1733482Y1768209D1*
X1764399Y1760589D1*
X1932039Y2133969D2*
X1951679Y2126349D1*
X1968730Y2118729D1*
X1983472Y2111109D1*
X1995824Y2103489D1*
X2005810Y2095869D1*
X2013686Y2088249D1*
X2019722Y2080629D1*
X2024332Y2073009D1*
X2027609Y2065389D1*
X2029504Y2057769D1*
X2030404Y2050149D1*
X2030543Y2042529D1*
X2029735Y2034909D1*
X2027942Y2027289D1*
X2025712Y2019669D1*
X2023152Y2012049D1*
X2019652Y2004429D1*
X2015521Y1996809D1*
X2011807Y1989189D1*
X2008452Y1981569D1*
X2004309Y1973949D1*
X1998798Y1966329D1*
X1992237Y1958709D1*
X1985100Y1951089D1*
X1977759Y1943469D1*
X2168259Y2126349D2*
X2164451Y2118729D1*
X2161286Y2111109D1*
X2158322Y2103489D1*
X2155579Y2095869D1*
X2152812Y2088249D1*
X2149205Y2080629D1*
X2144808Y2073009D1*
X2140381Y2065389D1*
X2136168Y2057769D1*
X2131896Y2050149D1*
X2127009Y2042529D1*
X2121068Y2034909D1*
X2114297Y2027289D1*
X2107055Y2019669D1*
X2099618Y2012049D1*
X2092295Y2004429D1*
X2085399Y1996809D1*
X2078640Y1989189D1*
X2071181Y1981569D1*
X2063175Y1973949D1*
X2055636Y1966329D1*
X2048457Y1958709D1*
X2040538Y1951089D1*
X2031478Y1943469D1*
X2022081Y1935849D1*
X2012966Y1928229D1*
X2003952Y1920609D1*
X1994857Y1912989D1*
X1985723Y1905369D1*
X1975572Y1897749D1*
X1963461Y1890129D1*
X1949296Y1882509D1*
X1932834Y1874889D1*
X1913960Y1867269D1*
X1893939Y1859649D1*
X2168259Y2118729D2*
X2171776Y2111109D1*
X2173965Y2103489D1*
X2175072Y2095869D1*
X2175563Y2088249D1*
X2175792Y2080629D1*
X2176135Y2073009D1*
X2177133Y2065389D1*
X2178968Y2057769D1*
X2180954Y2050149D1*
X2182552Y2042529D1*
X2184230Y2034909D1*
X2186409Y2027289D1*
X2188764Y2019669D1*
X2191115Y2012049D1*
X2193666Y2004429D1*
X2195949Y1996809D1*
X2197414Y1989189D1*
X2198143Y1981569D1*
X2198217Y1973949D1*
X2197387Y1966329D1*
X2195586Y1958709D1*
X2193383Y1951089D1*
X2191090Y1943469D1*
X2188531Y1935849D1*
X2185987Y1928229D1*
X2183524Y1920609D1*
X2180643Y1912989D1*
X2177079Y1905369D1*
X2172486Y1897749D1*
X2166410Y1890129D1*
X2158720Y1882509D1*
X2149642Y1874889D1*
X2139930Y1867269D1*
X2129803Y1859649D1*
X2118642Y1852029D1*
X2106392Y1844409D1*
X2093386Y1836789D1*
X2079732Y1829169D1*
X2065858Y1821549D1*
X2051755Y1813929D1*
X2036486Y1806309D1*
X2019680Y1798689D1*
X2001610Y1791069D1*
X1981865Y1783449D1*
X1958096Y1775829D1*
X1928065Y1768209D1*
X1893939Y1760589D1*
X1909179Y2095869D2*
X1873216Y2088249D1*
X1840858Y2080629D1*
X1814285Y2073009D1*
X1793663Y2065389D1*
X1777524Y2057769D1*
X1764219Y2050149D1*
X1752895Y2042529D1*
X1743250Y2034909D1*
X1734911Y2027289D1*
X1727836Y2019669D1*
X1721871Y2012049D1*
X1716171Y2004429D1*
X1710154Y1996809D1*
X1704472Y1989189D1*
X1699999Y1981569D1*
X1696588Y1973949D1*
X1693570Y1966329D1*
X1691128Y1958709D1*
X1689860Y1951089D1*
X1690076Y1943469D1*
X1691848Y1935849D1*
X1694957Y1928229D1*
X1699593Y1920609D1*
X1706328Y1912989D1*
X1715144Y1905369D1*
X1725640Y1897749D1*
X1738085Y1890129D1*
X1753641Y1882509D1*
X1772893Y1874889D1*
X1794848Y1867269D1*
X1817739Y1859649D1*
X1886319Y2095869D2*
X1915809Y2088249D1*
X1942168Y2080629D1*
X1962124Y2073009D1*
X1976736Y2065389D1*
X1982434Y2057769D1*
X1986689Y2050149D1*
X1989455Y2042529D1*
X1990935Y2034909D1*
X1989166Y2027289D1*
X1986456Y2019669D1*
X1983093Y2012049D1*
X1978925Y2004429D1*
X1973041Y1996809D1*
X1964685Y1989189D1*
X1954899Y1981569D1*
X2297799Y2057769D2*
X2290179Y2050149D1*
X2282589Y2042529D1*
X2275236Y2034909D1*
X2268588Y2027289D1*
X2262793Y2019669D1*
X2257156Y2012049D1*
X2251155Y2004429D1*
X2245421Y1996809D1*
X2240742Y1989189D1*
X2236839Y1981569D1*
X2313039Y2057769D2*
X2325894Y2050149D1*
X2337058Y2042529D1*
X2347083Y2034909D1*
X2356560Y2027289D1*
X2365307Y2019669D1*
X2373285Y2012049D1*
X2380441Y2004429D1*
X2387020Y1996809D1*
X2393285Y1989189D1*
X2398452Y1981569D1*
X2401622Y1973949D1*
X2402953Y1966329D1*
X2403143Y1958709D1*
X2399767Y1951089D1*
X2394368Y1943469D1*
X2386491Y1935849D1*
X2375557Y1928229D1*
X2361686Y1920609D1*
X2345373Y1912989D1*
X2326226Y1905369D1*
X2304753Y1897749D1*
X2284285Y1890129D1*
X2268466Y1882509D1*
X2256420Y1874889D1*
X2256899Y1867269D1*
X2258201Y1859649D1*
X2260071Y1852029D1*
X2262674Y1844409D1*
X2265874Y1836789D1*
X2269401Y1829169D1*
X2273074Y1821549D1*
X2276597Y1813929D1*
X2279664Y1806309D1*
X2282341Y1798689D1*
X2285055Y1791069D1*
X2287688Y1783449D1*
X2290411Y1775829D1*
X2293972Y1768209D1*
X2298125Y1760589D1*
X2301817Y1752969D1*
X2304877Y1745349D1*
X2307753Y1737729D1*
X2310190Y1730109D1*
X2311828Y1722489D1*
X2313039Y1714869D1*
X1893939Y2042529D2*
X1883979Y2034909D1*
X1876089Y2027289D1*
X1869632Y2019669D1*
X1864125Y2012049D1*
X1860108Y2004429D1*
X1857784Y1996809D1*
X1856676Y1989189D1*
X1856539Y1981569D1*
X1857182Y1973949D1*
X1861797Y1966329D1*
X1872996Y1958709D1*
X1886753Y1951089D1*
X1901559Y1943469D1*
Y2042529D2*
X1898041Y2034909D1*
X1895883Y2027289D1*
X1895073Y2019669D1*
X1895176Y2012049D1*
X1898576Y2004429D1*
X1903667Y1996809D1*
X1909988Y1989189D1*
X1916799Y1981569D1*
X2366379Y1813929D2*
Y1806309D1*
Y1798689D1*
Y1791069D1*
Y1783449D1*
Y1775829D1*
X2366409Y1768209D1*
X2366676Y1760589D1*
X2367648Y1752969D1*
X2369474Y1745349D1*
X2371447Y1737729D1*
X2372891Y1730109D1*
X2373999Y1722489D1*
X2381619Y1813929D2*
X2396859Y1806309D1*
X2412099Y1798689D1*
X2320659Y1791069D2*
Y1783449D1*
X2320629Y1775829D1*
X2320361Y1768209D1*
X2319390Y1760589D1*
X2317565Y1752969D1*
X2315611Y1745349D1*
X2314282Y1737729D1*
X2313574Y1730109D1*
X2313238Y1722489D1*
X2313039Y1714869D1*
X2335899Y1791069D2*
X2337367Y1783449D1*
X2340262Y1775829D1*
X2344359Y1768209D1*
X2348887Y1760589D1*
X2353750Y1752969D1*
X2358851Y1745349D1*
X2363794Y1737729D1*
X2368780Y1730109D1*
X2373999Y1722489D1*
X2805634Y4225590D2*
D62*
Y3995893D1*
X2882200Y4225590D2*
X2729068D1*
X2603899Y4149025D2*
X2625630Y4138159D1*
X2647614Y4116175D1*
X2658480Y4083325D1*
Y4061593D1*
X2647614Y4028743D1*
X2625630Y4007011D1*
X2603899Y3995893D1*
X2571049D1*
X2549064Y4007011D1*
X2527333Y4028743D1*
X2516214Y4061593D1*
Y4083325D1*
X2527333Y4116175D1*
X2549064Y4138159D1*
X2571049Y4149025D1*
X2603899D1*
X2445626D2*
Y3919327D1*
Y4116175D2*
X2423642Y4137906D1*
X2401910Y4149025D1*
X2369060D1*
X2347076Y4137906D1*
X2325345Y4116175D1*
X2314226Y4083325D1*
Y4061340D1*
X2325345Y4028743D1*
X2347076Y4006759D1*
X2369060Y3995893D1*
X2401910D1*
X2423642Y4006759D1*
X2445626Y4028743D1*
X2243638Y4225590D2*
X2232772Y4214725D1*
X2221654Y4225590D1*
X2232772Y4236709D1*
X2243638Y4225590D1*
X2232772Y4149025D2*
Y3995893D1*
X2019665Y4116175D2*
X2041650Y4138159D1*
X2063634Y4149025D1*
X2096231D1*
X2118215Y4138159D1*
X2139947Y4116175D1*
X2151065Y4083325D1*
Y4061593D1*
X2139947Y4028743D1*
X2118215Y4007011D1*
X2096231Y3995893D1*
X2063634D1*
X2041650Y4007011D1*
X2019665Y4028743D1*
X1949077Y4149025D2*
Y4039609D1*
X1938211Y4007011D1*
X1916227Y3995893D1*
X1883377D1*
X1861646Y4007011D1*
X1828796Y4039609D1*
Y4149025D2*
Y3995893D1*
X1637926Y4116175D2*
X1648792Y4138159D1*
X1681642Y4149025D1*
X1714492D1*
X1747342Y4138159D1*
X1758207Y4116175D1*
X1747342Y4094443D1*
X1725357Y4083325D1*
X1670776Y4072459D1*
X1648792Y4061593D1*
X1637926Y4039609D1*
Y4028743D1*
X1648792Y4007011D1*
X1681642Y3995893D1*
X1714492D1*
X1747342Y4007011D1*
X1758207Y4028743D1*
X3206284Y1136640D2*
D63*
Y1078268D1*
X3209906Y1067402D1*
X3213528Y1063696D1*
X3220856Y1060074D1*
X3231806D1*
X3239050Y1063696D1*
X3206284Y1125690D2*
X3213528Y1132934D1*
X3220856Y1136640D1*
X3231806D1*
X3239050Y1132934D1*
X3246378Y1125690D1*
X3250000Y1114740D1*
Y1107412D1*
X3246378Y1096546D1*
X3239050Y1089218D1*
X3231806Y1085596D1*
X3220856D1*
X3213528Y1089218D1*
X3206284Y1096546D1*
X3182755Y1165784D2*
X3179133Y1162162D1*
X3175427Y1165784D1*
X3179133Y1169490D1*
X3182755Y1165784D1*
X3179133Y1140262D2*
Y1089218D1*
X3140947Y1165784D2*
Y1103790D1*
X3137325Y1092924D1*
X3129997Y1089218D1*
X3122753D1*
X3151897Y1140262D2*
X3126375D1*
X3099224Y1165784D2*
Y1089218D1*
Y1125690D2*
X3088274Y1136640D1*
X3080946Y1140262D1*
X3069996D1*
X3062752Y1136640D1*
X3059130Y1125690D1*
Y1089218D1*
X3035601Y1140262D2*
Y1103790D1*
X3031979Y1092924D1*
X3024651Y1089218D1*
X3013701D1*
X3006457Y1092924D1*
X2995507Y1103790D1*
Y1140262D2*
Y1089218D1*
X2971977Y1165784D2*
Y1089218D1*
Y1129312D2*
X2964649Y1136640D1*
X2957405Y1140262D1*
X2946455D1*
X2939212Y1136640D1*
X2931883Y1129312D1*
X2928262Y1118362D1*
Y1111118D1*
X2931883Y1100168D1*
X2939212Y1092924D1*
X2946455Y1089218D1*
X2957405D1*
X2964649Y1092924D1*
X2971977Y1100168D1*
X2901110Y1096546D2*
X2904732Y1092840D1*
X2901110Y1089218D1*
X2897404Y1092840D1*
X2901110Y1096546D1*
X2830075Y1129312D2*
X2837403Y1136640D1*
X2844731Y1140262D1*
X2855597D1*
X2862925Y1136640D1*
X2870169Y1129312D1*
X2873875Y1118362D1*
Y1111118D1*
X2870169Y1100168D1*
X2862925Y1092924D1*
X2855597Y1089218D1*
X2844731D1*
X2837403Y1092924D1*
X2830075Y1100168D1*
X2788351Y1140262D2*
X2795595Y1136640D1*
X2802923Y1129312D1*
X2806545Y1118362D1*
Y1111118D1*
X2802923Y1100168D1*
X2795595Y1092924D1*
X2788351Y1089218D1*
X2777401D1*
X2770073Y1092924D1*
X2762829Y1100168D1*
X2759123Y1111118D1*
Y1118362D1*
X2762829Y1129312D1*
X2770073Y1136640D1*
X2777401Y1140262D1*
X2788351D1*
X2735594D2*
Y1089218D1*
Y1125690D2*
X2724644Y1136640D1*
X2717316Y1140262D1*
X2706450D1*
X2699122Y1136640D1*
X2695500Y1125690D1*
Y1089218D1*
Y1125690D2*
X2684550Y1136640D1*
X2677222Y1140262D1*
X2666356D1*
X2659028Y1136640D1*
X2655322Y1125690D1*
Y1089218D1*
X2631793D2*
X2580749Y1165699D1*
X2546269Y1165784D2*
Y1103790D1*
X2542647Y1092924D1*
X2535319Y1089218D1*
X2528075D1*
X2557219Y1140262D2*
X2531697D1*
X2486352D2*
X2493596Y1136640D1*
X2500924Y1129312D1*
X2504546Y1118362D1*
Y1111118D1*
X2500924Y1100168D1*
X2493596Y1092924D1*
X2486352Y1089218D1*
X2475402D1*
X2468074Y1092924D1*
X2460830Y1100168D1*
X2457124Y1111118D1*
Y1118362D1*
X2460830Y1129312D1*
X2468074Y1136640D1*
X2475402Y1140262D1*
X2486352D1*
X2433595D2*
Y1063696D1*
Y1129312D2*
X2426267Y1136556D1*
X2419023Y1140262D1*
X2408073D1*
X2400745Y1136556D1*
X2393501Y1129312D1*
X2389795Y1118362D1*
Y1111034D1*
X2393501Y1100168D1*
X2400745Y1092840D1*
X2408073Y1089218D1*
X2419023D1*
X2426267Y1092840D1*
X2433595Y1100168D1*
X2366265Y1165784D2*
X2362643Y1162162D1*
X2358937Y1165784D1*
X2362643Y1169490D1*
X2366265Y1165784D1*
X2362643Y1140262D2*
Y1089218D1*
X2291608Y1129312D2*
X2298936Y1136640D1*
X2306264Y1140262D1*
X2317130D1*
X2324458Y1136640D1*
X2331702Y1129312D1*
X2335408Y1118362D1*
Y1111118D1*
X2331702Y1100168D1*
X2324458Y1092924D1*
X2317130Y1089218D1*
X2306264D1*
X2298936Y1092924D1*
X2291608Y1100168D1*
X2268078Y1140262D2*
Y1103790D1*
X2264457Y1092924D1*
X2257128Y1089218D1*
X2246178D1*
X2238935Y1092924D1*
X2227985Y1103790D1*
Y1140262D2*
Y1089218D1*
X2164361Y1129312D2*
X2167983Y1136640D1*
X2178933Y1140262D1*
X2189883D1*
X2200833Y1136640D1*
X2204455Y1129312D1*
X2200833Y1122068D1*
X2193505Y1118362D1*
X2175311Y1114740D1*
X2167983Y1111118D1*
X2164361Y1103790D1*
Y1100168D1*
X2167983Y1092924D1*
X2178933Y1089218D1*
X2189883D1*
X2200833Y1092924D1*
X2204455Y1100168D1*
X2122638Y1140262D2*
X2129882Y1136640D1*
X2137210Y1129312D1*
X2140832Y1118362D1*
Y1111118D1*
X2137210Y1100168D1*
X2129882Y1092924D1*
X2122638Y1089218D1*
X2111688D1*
X2104360Y1092924D1*
X2097116Y1100168D1*
X2093410Y1111118D1*
Y1118362D1*
X2097116Y1129312D1*
X2104360Y1136640D1*
X2111688Y1140262D1*
X2122638D1*
X2069881D2*
Y1089218D1*
Y1125690D2*
X2058931Y1136640D1*
X2051602Y1140262D1*
X2040737D1*
X2033409Y1136640D1*
X2029787Y1125690D1*
Y1089218D1*
X1962542Y1165784D2*
Y1089218D1*
Y1129312D2*
X1969785Y1136640D1*
X1977113Y1140262D1*
X1988063D1*
X1995307Y1136640D1*
X2002635Y1129312D1*
X2006257Y1118362D1*
Y1111118D1*
X2002635Y1100168D1*
X1995307Y1092924D1*
X1988063Y1089218D1*
X1977113D1*
X1969785Y1092924D1*
X1962542Y1100168D1*
X1939012Y1118362D2*
X1895296D1*
Y1125690D1*
X1898918Y1133018D1*
X1902540Y1136640D1*
X1909868Y1140262D1*
X1920818D1*
X1928062Y1136640D1*
X1935390Y1129312D1*
X1939012Y1118362D1*
Y1111118D1*
X1935390Y1100168D1*
X1928062Y1092924D1*
X1920818Y1089218D1*
X1909868D1*
X1902540Y1092924D1*
X1895296Y1100168D1*
X1871767Y1140262D2*
Y1089218D1*
Y1118362D2*
X1868061Y1129312D1*
X1860817Y1136640D1*
X1853489Y1140262D1*
X1842539D1*
X1819009D2*
X1804438Y1089218D1*
X1789866Y1140262D1*
X1775294Y1089218D1*
X1760722Y1140262D1*
X1737192Y1165784D2*
X1733570Y1162162D1*
X1729864Y1165784D1*
X1733570Y1169490D1*
X1737192Y1165784D1*
X1733570Y1140262D2*
Y1089218D1*
X1691763Y1165868D2*
X1688057Y1162246D1*
X1684435Y1165868D1*
X1688057Y1169490D1*
X1691763Y1165868D1*
X1688057Y1140346D2*
Y1078352D1*
X1691763Y1067402D1*
X1699007Y1063780D1*
X1706335D1*
X1620812Y1129312D2*
X1624434Y1136640D1*
X1635384Y1140262D1*
X1646334D1*
X1657284Y1136640D1*
X1660905Y1129312D1*
X1657284Y1122068D1*
X1649955Y1118362D1*
X1631762Y1114740D1*
X1624434Y1111118D1*
X1620812Y1103790D1*
Y1100168D1*
X1624434Y1092924D1*
X1635384Y1089218D1*
X1646334D1*
X1657284Y1092924D1*
X1660905Y1100168D1*
X1597282Y1089218D2*
X1546238Y1165699D1*
X1522709Y1165784D2*
X1519087Y1162162D1*
X1515381Y1165784D1*
X1519087Y1169490D1*
X1522709Y1165784D1*
X1519087Y1140262D2*
Y1089218D1*
X1473658Y1140262D2*
X1480901Y1136640D1*
X1488230Y1129312D1*
X1491851Y1118362D1*
Y1111118D1*
X1488230Y1100168D1*
X1480901Y1092924D1*
X1473658Y1089218D1*
X1462708D1*
X1455380Y1092924D1*
X1448136Y1100168D1*
X1444430Y1111118D1*
Y1118362D1*
X1448136Y1129312D1*
X1455380Y1136640D1*
X1462708Y1140262D1*
X1473658D1*
X1409950Y1165784D2*
Y1103790D1*
X1406328Y1092924D1*
X1399000Y1089218D1*
X1391756D1*
X1420900Y1140262D2*
X1395378D1*
X1324511D2*
Y1089218D1*
Y1129312D2*
X1331755Y1136640D1*
X1339083Y1140262D1*
X1349949D1*
X1357277Y1136640D1*
X1364521Y1129312D1*
X1368227Y1118362D1*
Y1111118D1*
X1364521Y1100168D1*
X1357277Y1092924D1*
X1349949Y1089218D1*
X1339083D1*
X1331755Y1092924D1*
X1324511Y1100168D1*
X3206182Y3653275D2*
D61*
Y3551188D1*
X3240211Y3653275D2*
X3172153D1*
X3140780D2*
X3072722Y3551188D1*
Y3653275D2*
X3140780Y3551188D1*
X3240211Y3350646D2*
X3196524D1*
X3181924Y3355588D1*
X3176982Y3360417D1*
X3172153Y3370075D1*
Y3379846D1*
X3176982Y3389505D1*
X3181924Y3394446D1*
X3196524Y3399275D1*
X3240211D1*
Y3297188D1*
X3206182Y3350646D2*
X3172153Y3297188D1*
X3140780Y3399275D2*
X3072722Y3297188D1*
Y3399275D2*
X3140780Y3297188D1*
X3228274Y3145275D2*
Y3043188D1*
X3194244D1*
X3179644Y3048129D1*
X3169874Y3057788D1*
X3165044Y3067558D1*
X3160215Y3082046D1*
Y3106417D1*
X3165044Y3121017D1*
X3169874Y3130675D1*
X3179644Y3140446D1*
X3194244Y3145275D1*
X3228274D1*
X3128843Y3125734D2*
X3119072Y3130675D1*
X3104472Y3145163D1*
Y3043188D1*
X3240211Y2891275D2*
Y2789188D1*
X3206182D1*
X3191582Y2794129D1*
X3181811Y2803788D1*
X3176982Y2813558D1*
X3172153Y2828046D1*
Y2852417D1*
X3176982Y2867017D1*
X3181811Y2876675D1*
X3191582Y2886446D1*
X3206182Y2891275D1*
X3240211D1*
X3135839Y2866905D2*
Y2871734D1*
X3131010Y2881505D1*
X3126180Y2886334D1*
X3116410Y2891163D1*
X3096980D1*
X3087322Y2886334D1*
X3082493Y2881505D1*
X3077551Y2871734D1*
Y2862075D1*
X3082493Y2852305D1*
X3092151Y2837817D1*
X3140780Y2789188D1*
X3072722D1*
X3240211Y2637275D2*
Y2535188D1*
X3206182D1*
X3191582Y2540129D1*
X3181811Y2549788D1*
X3176982Y2559558D1*
X3172153Y2574046D1*
Y2598417D1*
X3176982Y2613017D1*
X3181811Y2622675D1*
X3191582Y2632446D1*
X3206182Y2637275D1*
X3240211D1*
X3131010Y2637163D2*
X3077663D1*
X3106751Y2598305D1*
X3092151D1*
X3082493Y2593475D1*
X3077663Y2588646D1*
X3072722Y2574046D1*
Y2564388D1*
X3077663Y2549788D1*
X3087322Y2540017D1*
X3101922Y2535188D1*
X3116522D1*
X3131010Y2540017D1*
X3135839Y2544958D1*
X3140780Y2554617D1*
X3245041Y2383275D2*
Y2281188D1*
X3211011D1*
X3196411Y2286129D1*
X3186641Y2295788D1*
X3181811Y2305558D1*
X3176982Y2320046D1*
Y2344417D1*
X3181811Y2359017D1*
X3186641Y2368675D1*
X3196411Y2378446D1*
X3211011Y2383275D1*
X3245041D1*
X3096980Y2281188D2*
Y2383163D1*
X3145610Y2315217D1*
X3072722D1*
X3167972Y2105017D2*
X3172801Y2114675D1*
X3182572Y2124446D1*
X3192230Y2129275D1*
X3211660D1*
X3221430Y2124446D1*
X3231089Y2114675D1*
X3236030Y2105017D1*
X3240860Y2090417D1*
Y2066046D1*
X3236030Y2051558D1*
X3231089Y2041788D1*
X3221430Y2032129D1*
X3211660Y2027188D1*
X3192230D1*
X3182572Y2032129D1*
X3172801Y2041788D1*
X3167972Y2051558D1*
Y2066046D1*
X3192230D1*
X3191582Y1875163D2*
X3240099D1*
X3244928Y1831475D1*
X3240099Y1836305D1*
X3225499Y1841246D1*
X3211011D1*
X3196411Y1836305D1*
X3186641Y1826646D1*
X3181811Y1812046D1*
Y1802388D1*
X3186641Y1787788D1*
X3196411Y1778017D1*
X3211011Y1773188D1*
X3225499D1*
X3240099Y1778017D1*
X3244928Y1782958D1*
X3249870Y1792617D1*
X3150439Y1875275D2*
X3111580Y1773188D1*
X3072722Y1875275D1*
X1561642Y3609916D2*
X1517955D1*
X1503355Y3614858D1*
X1498413Y3619687D1*
X1493584Y3629345D1*
Y3639116D1*
X1498413Y3648775D1*
X1503355Y3653716D1*
X1517955Y3658545D1*
X1561642D1*
Y3556458D1*
X1527613Y3609916D2*
X1493584Y3556458D1*
X1394153Y3643945D2*
X1403811Y3653716D1*
X1418411Y3658545D1*
X1437841D1*
X1452441Y3653716D1*
X1462211Y3643945D1*
Y3634287D1*
X1457270Y3624516D1*
X1452441Y3619687D1*
X1442782Y3614858D1*
X1413582Y3605087D1*
X1403811Y3600258D1*
X1398982Y3595316D1*
X1394153Y3585658D1*
Y3571058D1*
X1403811Y3561399D1*
X1418411Y3556458D1*
X1437841D1*
X1452441Y3561399D1*
X1462211Y3571058D1*
X1328751Y3658545D2*
Y3556458D1*
X1362780Y3658545D2*
X1294722D1*
X1394153Y3297188D2*
X1433124Y3399275D1*
X1471982Y3297188D1*
X1457382Y3331217D2*
X1408753D1*
X1333580Y3399163D2*
X1348180Y3394334D1*
X1357951Y3379734D1*
X1362780Y3355475D1*
Y3340875D1*
X1357951Y3316617D1*
X1348180Y3302017D1*
X1333580Y3297188D1*
X1323922D1*
X1309322Y3302017D1*
X1299663Y3316617D1*
X1294722Y3340875D1*
Y3355475D1*
X1299663Y3379734D1*
X1309322Y3394334D1*
X1323922Y3399163D1*
X1333580D1*
X1299663Y3379734D2*
X1357951Y3316617D1*
X1462211Y3145275D2*
Y3043188D1*
X1428182D1*
X1413582Y3048129D1*
X1403811Y3057788D1*
X1398982Y3067558D1*
X1394153Y3082046D1*
Y3106417D1*
X1398982Y3121017D1*
X1403811Y3130675D1*
X1413582Y3140446D1*
X1428182Y3145275D1*
X1462211D1*
X1333580Y3145163D2*
X1348180Y3140334D1*
X1357951Y3125734D1*
X1362780Y3101475D1*
Y3086875D1*
X1357951Y3062617D1*
X1348180Y3048017D1*
X1333580Y3043188D1*
X1323922D1*
X1309322Y3048017D1*
X1299663Y3062617D1*
X1294722Y3086875D1*
Y3101475D1*
X1299663Y3125734D1*
X1309322Y3140334D1*
X1323922Y3145163D1*
X1333580D1*
X1299663Y3125734D2*
X1357951Y3062617D1*
X1457270Y2637275D2*
Y2535188D1*
X1423241D1*
X1408641Y2540129D1*
X1398870Y2549788D1*
X1394041Y2559558D1*
X1389211Y2574046D1*
Y2598417D1*
X1394041Y2613017D1*
X1398870Y2622675D1*
X1408641Y2632446D1*
X1423241Y2637275D1*
X1457270D1*
X1299551Y2622675D2*
X1304380Y2632334D1*
X1318980Y2637163D1*
X1328639D1*
X1343239Y2632334D1*
X1353010Y2617734D1*
X1357839Y2593475D1*
Y2569217D1*
X1353010Y2549788D1*
X1343239Y2540017D1*
X1328639Y2535188D1*
X1323810D1*
X1309322Y2540017D1*
X1299551Y2549788D1*
X1294722Y2564388D1*
Y2569217D1*
X1299551Y2583817D1*
X1309322Y2593475D1*
X1323810Y2598305D1*
X1328639D1*
X1343239Y2593475D1*
X1353010Y2583817D1*
X1357839Y2569217D1*
X1462211Y2383275D2*
Y2281188D1*
X1428182D1*
X1413582Y2286129D1*
X1403811Y2295788D1*
X1398982Y2305558D1*
X1394153Y2320046D1*
Y2344417D1*
X1398982Y2359017D1*
X1403811Y2368675D1*
X1413582Y2378446D1*
X1428182Y2383275D1*
X1462211D1*
X1343351Y2281188D2*
X1294722Y2383163D1*
X1362780D1*
X1462099Y2129275D2*
Y2027188D1*
X1428070D1*
X1413470Y2032129D1*
X1403699Y2041788D1*
X1398870Y2051558D1*
X1394041Y2066046D1*
Y2090417D1*
X1398870Y2105017D1*
X1403699Y2114675D1*
X1413470Y2124446D1*
X1428070Y2129275D1*
X1462099D1*
X1338410Y2129163D2*
X1352897Y2124334D1*
X1357839Y2114675D1*
Y2104905D1*
X1352897Y2095246D1*
X1343239Y2090305D1*
X1323810Y2085475D1*
X1309210Y2080646D1*
X1299551Y2070875D1*
X1294722Y2061217D1*
Y2046617D1*
X1299551Y2036958D1*
X1304380Y2032017D1*
X1318980Y2027188D1*
X1338410D1*
X1352897Y2032017D1*
X1357839Y2036958D1*
X1362668Y2046617D1*
Y2061217D1*
X1357839Y2070875D1*
X1348068Y2080646D1*
X1333580Y2085475D1*
X1314151Y2090305D1*
X1304380Y2095246D1*
X1299551Y2104905D1*
Y2114675D1*
X1304380Y2124334D1*
X1318980Y2129163D1*
X1338410D1*
X1561530Y1875163D2*
X1508184D1*
X1537272Y1836305D1*
X1522672D1*
X1513013Y1831475D1*
X1508184Y1826646D1*
X1503242Y1812046D1*
Y1802388D1*
X1508184Y1787788D1*
X1517842Y1778017D1*
X1532442Y1773188D1*
X1547042D1*
X1561530Y1778017D1*
X1566359Y1782958D1*
X1571301Y1792617D1*
X1471870Y1875275D2*
X1433011Y1773188D1*
X1394153Y1875275D1*
X1353010Y1875163D2*
X1299663D1*
X1328751Y1836305D1*
X1314151D1*
X1304493Y1831475D1*
X1299663Y1826646D1*
X1294722Y1812046D1*
Y1802388D1*
X1299663Y1787788D1*
X1309322Y1778017D1*
X1323922Y1773188D1*
X1338522D1*
X1353010Y1778017D1*
X1357839Y1782958D1*
X1362780Y1792617D1*
X1462211Y2891275D2*
Y2789188D1*
X1428182D1*
X1413582Y2794129D1*
X1403811Y2803788D1*
X1398982Y2813558D1*
X1394153Y2828046D1*
Y2852417D1*
X1398982Y2867017D1*
X1403811Y2876675D1*
X1413582Y2886446D1*
X1428182Y2891275D1*
X1462211D1*
X1304493Y2891163D2*
X1353010D1*
X1357839Y2847475D1*
X1353010Y2852305D1*
X1338410Y2857246D1*
X1323922D1*
X1309322Y2852305D1*
X1299551Y2842646D1*
X1294722Y2828046D1*
Y2818388D1*
X1299551Y2803788D1*
X1309322Y2794017D1*
X1323922Y2789188D1*
X1338410D1*
X1353010Y2794017D1*
X1357839Y2798958D1*
X1362780Y2808617D1*
X2627472Y3742086D2*
D62*
Y3752952D1*
X2616607Y3774936D1*
X2605741Y3785802D1*
X2583757Y3796668D1*
X2540041D1*
X2518309Y3785802D1*
X2507444Y3774936D1*
X2496325Y3752952D1*
Y3731220D1*
X2507444Y3709236D1*
X2529175Y3676639D1*
X2638591Y3567223D1*
X2485459D1*
X2349171Y3796668D2*
X2382021Y3785802D1*
X2404005Y3752952D1*
X2414871Y3698370D1*
Y3665520D1*
X2404005Y3610939D1*
X2382021Y3578089D1*
X2349171Y3567223D1*
X2327440D1*
X2294590Y3578089D1*
X2272858Y3610939D1*
X2261740Y3665520D1*
Y3698370D1*
X2272858Y3752952D1*
X2294590Y3785802D1*
X2327440Y3796668D1*
X2349171D1*
X2272858Y3752952D2*
X2404005Y3610939D1*
X2191151Y3752952D2*
X2169167Y3764070D1*
X2136317Y3796668D1*
Y3567223D1*
X1934582Y3764070D2*
X1945447Y3785802D1*
X1978297Y3796668D1*
X2000029D1*
X2032879Y3785802D1*
X2054863Y3752952D1*
X2065729Y3698370D1*
Y3643789D1*
X2054863Y3600073D1*
X2032879Y3578089D1*
X2000029Y3567223D1*
X1989163D1*
X1956566Y3578089D1*
X1934582Y3600073D1*
X1923716Y3632923D1*
Y3643789D1*
X1934582Y3676639D1*
X1956566Y3698370D1*
X1989163Y3709236D1*
X2000029D1*
X2032879Y3698370D1*
X2054863Y3676639D1*
X2065729Y3643789D1*
X2897042Y1344124D2*
D63*
Y1267558D1*
X2864192D1*
X2853242Y1271264D1*
X2849620Y1274886D1*
X2845998Y1282130D1*
Y1293080D1*
X2849620Y1300408D1*
X2853242Y1304030D1*
X2864192Y1307652D1*
X2853242Y1311358D1*
X2849620Y1314980D1*
X2845998Y1322224D1*
Y1329552D1*
X2849620Y1336796D1*
X2853242Y1340502D1*
X2864192Y1344124D1*
X2897042D1*
Y1307652D2*
X2864192D1*
X2778753Y1318602D2*
Y1267558D1*
Y1307652D2*
X2785996Y1314980D1*
X2793325Y1318602D1*
X2804190D1*
X2811518Y1314980D1*
X2818762Y1307652D1*
X2822468Y1296702D1*
Y1289458D1*
X2818762Y1278508D1*
X2811518Y1271264D1*
X2804190Y1267558D1*
X2793325D1*
X2785996Y1271264D1*
X2778753Y1278508D1*
X2755223Y1318602D2*
Y1267558D1*
Y1296702D2*
X2751517Y1307652D1*
X2744273Y1314980D1*
X2736945Y1318602D1*
X2725995D1*
X2691516Y1344124D2*
Y1282130D1*
X2687894Y1271264D1*
X2680566Y1267558D1*
X2673322D1*
X2702466Y1318602D2*
X2676944D1*
X2575725Y1364086D2*
Y1247511D1*
X2441655Y1344124D2*
Y1285836D1*
X2445277Y1274886D1*
X2448983Y1271264D1*
X2456227Y1267558D1*
X2463555D1*
X2470799Y1271264D1*
X2474421Y1274886D1*
X2478127Y1285836D1*
Y1293080D1*
X2418126Y1296702D2*
X2374410D1*
Y1304030D1*
X2378032Y1311358D1*
X2381654Y1314980D1*
X2388982Y1318602D1*
X2399932D1*
X2407176Y1314980D1*
X2414504Y1307652D1*
X2418126Y1296702D1*
Y1289458D1*
X2414504Y1278508D1*
X2407176Y1271264D1*
X2399932Y1267558D1*
X2388982D1*
X2381654Y1271264D1*
X2374410Y1278508D1*
X2350881Y1318602D2*
Y1267558D1*
Y1296702D2*
X2347175Y1307652D1*
X2339931Y1314980D1*
X2332603Y1318602D1*
X2321653D1*
X2279929D2*
X2287173Y1314980D1*
X2294501Y1307652D1*
X2298123Y1296702D1*
Y1289458D1*
X2294501Y1278508D1*
X2287173Y1271264D1*
X2279929Y1267558D1*
X2268979D1*
X2261651Y1271264D1*
X2254408Y1278508D1*
X2250701Y1289458D1*
Y1296702D1*
X2254408Y1307652D1*
X2261651Y1314980D1*
X2268979Y1318602D1*
X2279929D1*
X2227172Y1296702D2*
X2183456D1*
Y1304030D1*
X2187078Y1311358D1*
X2190700Y1314980D1*
X2198028Y1318602D1*
X2208978D1*
X2216222Y1314980D1*
X2223550Y1307652D1*
X2227172Y1296702D1*
Y1289458D1*
X2223550Y1278508D1*
X2216222Y1271264D1*
X2208978Y1267558D1*
X2198028D1*
X2190700Y1271264D1*
X2183456Y1278508D1*
X2159927Y1318602D2*
Y1267558D1*
Y1304030D2*
X2148977Y1314980D1*
X2141649Y1318602D1*
X2130783D1*
X2123455Y1314980D1*
X2119833Y1304030D1*
Y1267558D1*
X2022236Y1364086D2*
Y1247511D1*
X1899116Y1344124D2*
Y1267558D1*
X1924638Y1344124D2*
X1873595D1*
X1850065D2*
Y1267558D1*
Y1304030D2*
X1839115Y1314980D1*
X1831787Y1318602D1*
X1820837D1*
X1813593Y1314980D1*
X1809971Y1304030D1*
Y1267558D1*
X1786442Y1344124D2*
X1782820Y1340502D1*
X1779114Y1344124D1*
X1782820Y1347830D1*
X1786442Y1344124D1*
X1782820Y1318602D2*
Y1267558D1*
X1741012Y1344208D2*
X1737306Y1340586D1*
X1733684Y1344208D1*
X1737306Y1347830D1*
X1741012Y1344208D1*
X1737306Y1318686D2*
Y1256692D1*
X1741012Y1245742D1*
X1748256Y1242120D1*
X1755584D1*
X1670061Y1307652D2*
X1673683Y1314980D1*
X1684633Y1318602D1*
X1695583D1*
X1706533Y1314980D1*
X1710155Y1307652D1*
X1706533Y1300408D1*
X1699205Y1296702D1*
X1681011Y1293080D1*
X1673683Y1289458D1*
X1670061Y1282130D1*
Y1278508D1*
X1673683Y1271264D1*
X1684633Y1267558D1*
X1695583D1*
X1706533Y1271264D1*
X1710155Y1278508D1*
M02*
