G04 DipTrace 3.0.0.2*
G04 iota.GTS*
%MOMM*%
G04 #@! TF.FileFunction,Soldermask,Top*
G04 #@! TF.Part,Single*
%ADD29C,2.54*%
%ADD33C,1.8*%
%ADD38C,1.2*%
%ADD40R,0.8X2.2*%
%ADD42R,2.2X1.3*%
%ADD44C,2.2*%
%ADD46R,2.2X2.2*%
%ADD48R,1.8X1.2*%
%ADD50R,1.8X1.0*%
%ADD52C,1.7*%
%ADD54R,1.7X1.7*%
%ADD56R,1.7X1.5*%
%ADD58R,1.5X1.7*%
%FSLAX35Y35*%
G04*
G71*
G90*
G75*
G01*
G04 TopMask*
%LPD*%
D58*
X1666128Y3615628D3*
X1476128D3*
X3066128D3*
X2876128D3*
D56*
X3171128Y1420628D3*
Y1610628D3*
X2271128Y3858628D3*
Y3668628D3*
D54*
X3414128Y1826628D3*
D52*
Y2080628D3*
Y2334628D3*
Y2588628D3*
Y2842628D3*
Y3096628D3*
Y3350628D3*
Y3604628D3*
D54*
X1128128Y1826628D3*
D52*
Y2080628D3*
Y2334628D3*
Y2588628D3*
Y2842628D3*
Y3096628D3*
Y3350628D3*
Y3604628D3*
D50*
X1593628Y1460628D3*
Y1570628D3*
D48*
X1948628Y1515628D3*
D56*
X1371128Y1420628D3*
Y1610628D3*
D58*
X2366378Y3477628D3*
X2176378D3*
D46*
X1646128Y2965628D3*
D44*
X2896128D3*
X1646128Y2465628D3*
X2896128D3*
D33*
X2271128Y3165628D3*
Y2265628D3*
D42*
X1331128Y4185628D3*
Y4015628D3*
Y3845628D3*
X1811128D3*
Y4015628D3*
Y4185628D3*
X2731128D3*
Y4015628D3*
Y3845628D3*
X3211128D3*
Y4015628D3*
Y4185628D3*
D40*
X2961628Y1785628D3*
X2834628D3*
X2707628D3*
X2580628D3*
Y1245628D3*
X2707628D3*
X2834628D3*
X2961628D3*
D29*
X3414128Y1128128D3*
D38*
D3*
D29*
X1128128Y4303128D3*
D38*
D3*
M02*
