M48
METRIC,0000.00
T01C0.5
T02C0.9
%
T01
X+002779Y+002716
X+003033Y+002493
X+003062Y+002941
X+002970Y+003128
X+003066Y+003478
X+002938Y+003859
X+002525Y+003859
X+002017Y+003859
X+001604Y+003859
X+001509Y+004186
X+001162Y+004016
X+001666Y+003478
X+001620Y+003160
X+002017Y+003160
X+002176Y+003160
X+002525Y+003160
X+002287Y+002716
X+002049Y+002716
X+002049Y+002017
X+002176Y+001827
X+002049Y+001716
X+002287Y+002017
X+002835Y+002009
X+002962Y+002009
X+003414Y+001255
X+002271Y+001382
X+001620Y+001716
X+001446Y+001255
T02
X+003414Y+001827
X+003414Y+002081
X+003414Y+002335
X+003414Y+002589
X+003414Y+002843
X+003414Y+003097
X+003414Y+003351
X+003414Y+003605
X+001128Y+003605
X+001128Y+003351
X+001128Y+003097
X+001128Y+002843
X+001128Y+002589
X+001128Y+002335
X+001128Y+002081
X+001128Y+001827
T00
M30
