G04 DipTrace 2.4.0.2*
%INiota.GTL*%
%MOMM*%
%ADD14C,0.508*%
%ADD15C,0.305*%
%ADD16C,0.203*%
%ADD17C,0.356*%
%ADD19R,1.3X1.5*%
%ADD20R,1.5X1.3*%
%ADD21R,1.5X1.5*%
%ADD22C,1.5*%
%ADD23R,1.6X0.8*%
%ADD24R,1.6X1.0*%
%ADD25R,2.1X1.4*%
%ADD27R,2.0X1.1*%
%ADD28R,0.6X2.0*%
%ADD29C,1.0*%
%FSLAX53Y53*%
G04*
G71*
G90*
G75*
G01*
%LNTop*%
%LPD*%
X16661Y34776D2*
D14*
Y36156D1*
X30661Y34776D2*
Y36156D1*
X18111Y38456D2*
Y36685D1*
X17631Y36205D1*
X16613D1*
X16661Y36156D1*
X32111Y38456D2*
Y36715D1*
X31601Y36205D1*
X30710D1*
X30661Y36156D1*
X27261Y29406D2*
D15*
X18161D1*
X27261D2*
X30621D1*
X29616Y17856D2*
Y20091D1*
X32871Y23346D1*
Y27156D1*
X34141Y28426D1*
X28346Y17856D2*
Y20091D1*
X32236Y23981D1*
Y29061D1*
X34141Y30966D1*
X19486Y15156D2*
D14*
X21759D1*
Y18266D1*
X11281D1*
X19486Y15156D2*
X29473D1*
X30490Y14139D1*
X31644D1*
X31711Y14206D1*
X29616Y12456D2*
X31189D1*
X31760Y13028D1*
Y14158D1*
X31711Y14206D1*
X21761Y31601D2*
D15*
Y33191D1*
X13311Y41856D2*
X15091D1*
X13311Y40156D2*
X11616D1*
X15936Y15706D2*
X16203D1*
Y17155D1*
Y31601D2*
X13186D1*
X11281Y33506D1*
X13311Y15706D2*
X13711Y16106D1*
X15936Y15706D2*
X14111D1*
X13711Y16106D1*
X22711Y37106D2*
X23874D1*
X29696Y31284D1*
X18111Y41856D2*
X27311D1*
X18111Y40156D2*
X27311D1*
X23661Y33191D2*
Y34210D1*
X22665Y35206D1*
X22711D1*
D29*
X16661Y34776D3*
X30661D3*
X30621Y29406D3*
X29616Y20091D3*
X28346D3*
X21761Y31601D3*
X21759Y18266D3*
D3*
X15091Y41856D3*
X11616Y40156D3*
X16203Y17155D3*
Y31601D3*
X29696Y31284D3*
X27791Y27156D3*
X22870Y20171D3*
X30331Y24934D3*
X16044Y38586D3*
X20171D3*
X25251Y31601D3*
X20489Y20171D3*
X29379Y38586D3*
X20489Y27156D3*
X20171Y31601D3*
X20489Y17155D3*
X22870Y27156D3*
X14456Y12551D3*
X34141D3*
X25251Y38586D3*
X22711Y13821D3*
X10627Y43746D2*
D16*
X34797D1*
X10468Y43546D2*
X34952D1*
X10401Y43347D2*
X35022D1*
X10389Y43147D2*
X35035D1*
X10389Y42947D2*
X35035D1*
X10389Y42748D2*
X11877D1*
X14747D2*
X14868D1*
X15315D2*
X16676D1*
X19546D2*
X25878D1*
X28744D2*
X30677D1*
X33547D2*
X35035D1*
X10389Y42548D2*
X11877D1*
X15708D2*
X16676D1*
X19546D2*
X25878D1*
X28744D2*
X30677D1*
X33547D2*
X35035D1*
X10389Y42348D2*
X11877D1*
X15882D2*
X16676D1*
X28744D2*
X30677D1*
X33547D2*
X35035D1*
X10389Y42149D2*
X11877D1*
X15978D2*
X16676D1*
X28744D2*
X30677D1*
X33547D2*
X35035D1*
X10389Y41949D2*
X11877D1*
X16022D2*
X16676D1*
X28744D2*
X30677D1*
X33547D2*
X35035D1*
X10389Y41749D2*
X11877D1*
X16019D2*
X16676D1*
X28744D2*
X30677D1*
X33547D2*
X35035D1*
X10389Y41550D2*
X11877D1*
X15974D2*
X16676D1*
X28744D2*
X30677D1*
X33547D2*
X35035D1*
X10389Y41350D2*
X11877D1*
X15873D2*
X16676D1*
X28744D2*
X30677D1*
X33547D2*
X35035D1*
X10389Y41150D2*
X11877D1*
X15692D2*
X16676D1*
X28744D2*
X30677D1*
X33547D2*
X35035D1*
X10389Y40951D2*
X11144D1*
X14747D2*
X14944D1*
X15238D2*
X16676D1*
X28744D2*
X30677D1*
X33547D2*
X35035D1*
X10389Y40751D2*
X10903D1*
X14747D2*
X16676D1*
X28744D2*
X30677D1*
X33547D2*
X35035D1*
X10389Y40551D2*
X10770D1*
X14747D2*
X16676D1*
X28744D2*
X30677D1*
X33547D2*
X35035D1*
X10389Y40352D2*
X10703D1*
X14747D2*
X16676D1*
X28744D2*
X30677D1*
X33547D2*
X35035D1*
X10389Y40152D2*
X10681D1*
X14747D2*
X16676D1*
X28744D2*
X30677D1*
X33547D2*
X35035D1*
X10389Y39952D2*
X10703D1*
X14747D2*
X16676D1*
X28744D2*
X30677D1*
X33547D2*
X35035D1*
X10389Y39753D2*
X10776D1*
X14747D2*
X16676D1*
X28744D2*
X30677D1*
X33547D2*
X35035D1*
X10389Y39553D2*
X10909D1*
X14747D2*
X16676D1*
X19546D2*
X25878D1*
X28744D2*
X30677D1*
X33547D2*
X35035D1*
X10389Y39353D2*
X11160D1*
X14747D2*
X16676D1*
X19546D2*
X25878D1*
X28744D2*
X30677D1*
X33547D2*
X35035D1*
X10389Y39154D2*
X11877D1*
X14747D2*
X16676D1*
X19546D2*
X25878D1*
X28744D2*
X30677D1*
X33547D2*
X35035D1*
X10389Y38954D2*
X11877D1*
X14747D2*
X16676D1*
X19546D2*
X25878D1*
X28744D2*
X30677D1*
X33547D2*
X35035D1*
X10389Y38754D2*
X11877D1*
X14747D2*
X16676D1*
X19546D2*
X25878D1*
X28744D2*
X30677D1*
X33547D2*
X35035D1*
X10389Y38555D2*
X11877D1*
X14747D2*
X16676D1*
X19546D2*
X25878D1*
X28744D2*
X30677D1*
X33547D2*
X35035D1*
X10389Y38355D2*
X11877D1*
X14747D2*
X16676D1*
X19546D2*
X25878D1*
X28744D2*
X30677D1*
X33547D2*
X35035D1*
X10389Y38155D2*
X11877D1*
X14747D2*
X16676D1*
X19546D2*
X21526D1*
X23895D2*
X25878D1*
X28744D2*
X30677D1*
X33547D2*
X35035D1*
X10389Y37956D2*
X11877D1*
X14747D2*
X16676D1*
X19546D2*
X21526D1*
X23895D2*
X25878D1*
X28744D2*
X30677D1*
X33547D2*
X35035D1*
X10389Y37756D2*
X11877D1*
X14747D2*
X16676D1*
X19546D2*
X21526D1*
X23895D2*
X25878D1*
X28744D2*
X30677D1*
X33547D2*
X35035D1*
X10389Y37556D2*
X11877D1*
X14747D2*
X16676D1*
X19546D2*
X21526D1*
X24237D2*
X25878D1*
X28744D2*
X30677D1*
X33547D2*
X35035D1*
X10389Y37357D2*
X17421D1*
X18800D2*
X21526D1*
X24446D2*
X31422D1*
X32801D2*
X35035D1*
X10389Y37157D2*
X10913D1*
X11651D2*
X13675D1*
X18800D2*
X21526D1*
X24646D2*
X27676D1*
X32801D2*
X33772D1*
X34511D2*
X35035D1*
X10389Y36957D2*
X10534D1*
X12025D2*
X13675D1*
X18800D2*
X21526D1*
X24843D2*
X27676D1*
X32801D2*
X33395D1*
X34885D2*
X35035D1*
X12222Y36758D2*
X13675D1*
X18800D2*
X21526D1*
X25043D2*
X27676D1*
X32801D2*
X33198D1*
X12349Y36558D2*
X13675D1*
X18788D2*
X21526D1*
X25243D2*
X27676D1*
X32782D2*
X33075D1*
X12422Y36358D2*
X13675D1*
X18715D2*
X21526D1*
X25442D2*
X27676D1*
X32696D2*
X32998D1*
X12460Y36159D2*
X13675D1*
X18550D2*
X21526D1*
X23895D2*
X23997D1*
X25642D2*
X27676D1*
X32522D2*
X32964D1*
X12463Y35959D2*
X13675D1*
X18350D2*
X21526D1*
X23895D2*
X24200D1*
X25842D2*
X27676D1*
X32322D2*
X32960D1*
X12431Y35759D2*
X13675D1*
X18150D2*
X21526D1*
X23895D2*
X24399D1*
X26042D2*
X27676D1*
X32122D2*
X32992D1*
X12358Y35560D2*
X13675D1*
X17827D2*
X21526D1*
X23895D2*
X24599D1*
X26242D2*
X27676D1*
X31796D2*
X33062D1*
X12241Y35360D2*
X13675D1*
X17747D2*
X21526D1*
X23895D2*
X24799D1*
X26442D2*
X27676D1*
X31745D2*
X33179D1*
X10389Y35160D2*
X10509D1*
X12057D2*
X13675D1*
X17747D2*
X21526D1*
X23895D2*
X24999D1*
X26641D2*
X27676D1*
X31745D2*
X33366D1*
X34917D2*
X35035D1*
X10389Y34961D2*
X10840D1*
X11724D2*
X15747D1*
X17576D2*
X21526D1*
X23895D2*
X25199D1*
X26841D2*
X29744D1*
X31577D2*
X33699D1*
X34584D2*
X35035D1*
X10389Y34761D2*
X15728D1*
X17595D2*
X21526D1*
X23933D2*
X25399D1*
X27041D2*
X29728D1*
X31596D2*
X35035D1*
X10389Y34561D2*
X10770D1*
X11794D2*
X15753D1*
X17570D2*
X21526D1*
X24126D2*
X25598D1*
X27241D2*
X29754D1*
X31570D2*
X33630D1*
X34654D2*
X35035D1*
X12092Y34362D2*
X15826D1*
X17497D2*
X21526D1*
X24228D2*
X25795D1*
X27441D2*
X29827D1*
X31497D2*
X33331D1*
X12263Y34162D2*
X15962D1*
X17360D2*
X20676D1*
X24745D2*
X25995D1*
X27640D2*
X29963D1*
X31358D2*
X33160D1*
X12374Y33962D2*
X16226D1*
X17097D2*
X20676D1*
X24745D2*
X26195D1*
X27840D2*
X30223D1*
X31098D2*
X33049D1*
X12438Y33763D2*
X20676D1*
X24745D2*
X26395D1*
X28040D2*
X32986D1*
X12463Y33563D2*
X20676D1*
X24745D2*
X26594D1*
X28240D2*
X32957D1*
X12457Y33363D2*
X20676D1*
X24745D2*
X26794D1*
X28440D2*
X32967D1*
X12444Y33164D2*
X20676D1*
X24745D2*
X26994D1*
X28636D2*
X33008D1*
X12644Y32964D2*
X20676D1*
X24745D2*
X27194D1*
X28836D2*
X33090D1*
X12844Y32764D2*
X20676D1*
X24745D2*
X27394D1*
X29036D2*
X33224D1*
X10389Y32565D2*
X10576D1*
X13044D2*
X20676D1*
X24745D2*
X27594D1*
X29236D2*
X33436D1*
X34847D2*
X35035D1*
X10389Y32365D2*
X11030D1*
X13243D2*
X15680D1*
X16726D2*
X20676D1*
X24745D2*
X27793D1*
X29436D2*
X33890D1*
X34393D2*
X35035D1*
X10389Y32165D2*
X11801D1*
X16942D2*
X20676D1*
X24745D2*
X27993D1*
X29959D2*
X35035D1*
X10389Y31966D2*
X10665D1*
X11898D2*
X12001D1*
X17062D2*
X20904D1*
X22619D2*
X28193D1*
X30327D2*
X33525D1*
X34758D2*
X35035D1*
X17123Y31766D2*
X20841D1*
X22680D2*
X28393D1*
X30492D2*
X33274D1*
X12298Y31566D2*
X12400D1*
X17135D2*
X20828D1*
X22696D2*
X28593D1*
X30587D2*
X33122D1*
X12393Y31367D2*
X12600D1*
X17107D2*
X20856D1*
X22664D2*
X28764D1*
X30628D2*
X33027D1*
X12447Y31167D2*
X12803D1*
X17027D2*
X20936D1*
X22588D2*
X28770D1*
X30622D2*
X32973D1*
X12466Y30967D2*
X15525D1*
X16881D2*
X21082D1*
X22442D2*
X28818D1*
X30574D2*
X32957D1*
X12450Y30768D2*
X15807D1*
X16599D2*
X21364D1*
X22156D2*
X28923D1*
X30470D2*
X32973D1*
X12396Y30568D2*
X29107D1*
X30286D2*
X32922D1*
X12301Y30368D2*
X16676D1*
X19647D2*
X25776D1*
X28744D2*
X32722D1*
X12149Y30169D2*
X16676D1*
X19647D2*
X25776D1*
X28744D2*
X30096D1*
X31145D2*
X32523D1*
X10389Y29969D2*
X10659D1*
X11902D2*
X16676D1*
X31361D2*
X32323D1*
X10389Y29769D2*
X16676D1*
X31482D2*
X32123D1*
X10389Y29570D2*
X11043D1*
X11521D2*
X16676D1*
X31542D2*
X31923D1*
X10389Y29370D2*
X10580D1*
X11984D2*
X16676D1*
X31555D2*
X31742D1*
X12197Y29170D2*
X16676D1*
X31526D2*
X31659D1*
X12330Y28971D2*
X16676D1*
X31447D2*
X31650D1*
X12412Y28771D2*
X16676D1*
X19647D2*
X25776D1*
X28744D2*
X29944D1*
X31298D2*
X31650D1*
X12457Y28571D2*
X16676D1*
X19647D2*
X25776D1*
X28744D2*
X30229D1*
X31015D2*
X31650D1*
X12463Y28372D2*
X16676D1*
X19647D2*
X25776D1*
X28744D2*
X31650D1*
X12438Y28172D2*
X31650D1*
X12374Y27972D2*
X31650D1*
X12266Y27773D2*
X31650D1*
X12095Y27573D2*
X31650D1*
X10389Y27373D2*
X10764D1*
X11800D2*
X31650D1*
X10389Y27174D2*
X31650D1*
X10389Y26974D2*
X10846D1*
X11718D2*
X31650D1*
X10389Y26774D2*
X10509D1*
X12054D2*
X31650D1*
X12241Y26575D2*
X31650D1*
X12358Y26375D2*
X31650D1*
X12428Y26175D2*
X31650D1*
X12463Y25976D2*
X16676D1*
X19647D2*
X25776D1*
X28744D2*
X31650D1*
X12460Y25776D2*
X16676D1*
X19647D2*
X25776D1*
X28744D2*
X31650D1*
X12425Y25576D2*
X16676D1*
X19647D2*
X25776D1*
X28744D2*
X31650D1*
X12349Y25377D2*
X16676D1*
X19647D2*
X25776D1*
X28744D2*
X31650D1*
X12225Y25177D2*
X16676D1*
X19647D2*
X25776D1*
X28744D2*
X31650D1*
X10389Y24977D2*
X10534D1*
X12029D2*
X16676D1*
X19647D2*
X25776D1*
X28744D2*
X31650D1*
X10389Y24778D2*
X10906D1*
X11657D2*
X16676D1*
X19647D2*
X25776D1*
X28744D2*
X31650D1*
X10389Y24578D2*
X16676D1*
X19647D2*
X25776D1*
X28744D2*
X31650D1*
X10389Y24378D2*
X10722D1*
X11841D2*
X16676D1*
X19647D2*
X25776D1*
X28744D2*
X31650D1*
X12114Y24179D2*
X16676D1*
X19647D2*
X25776D1*
X28744D2*
X31612D1*
X12279Y23979D2*
X16676D1*
X19647D2*
X25776D1*
X28744D2*
X31412D1*
X12384Y23779D2*
X31213D1*
X12441Y23580D2*
X31013D1*
X12466Y23380D2*
X30813D1*
X12454Y23180D2*
X30613D1*
X12406Y22981D2*
X30413D1*
X12320Y22781D2*
X30214D1*
X12181Y22581D2*
X30014D1*
X32928D2*
X33243D1*
X10389Y22382D2*
X10608D1*
X11952D2*
X29814D1*
X32728D2*
X33468D1*
X34815D2*
X35035D1*
X10389Y22182D2*
X11246D1*
X11317D2*
X29614D1*
X32528D2*
X35035D1*
X10389Y21982D2*
X29414D1*
X32329D2*
X35035D1*
X10389Y21783D2*
X10627D1*
X11937D2*
X29218D1*
X32129D2*
X33487D1*
X34796D2*
X35035D1*
X12168Y21583D2*
X29018D1*
X31929D2*
X33252D1*
X12314Y21383D2*
X28818D1*
X31729D2*
X33109D1*
X12403Y21184D2*
X28618D1*
X31529D2*
X33021D1*
X12454Y20984D2*
X28130D1*
X31329D2*
X32970D1*
X12466Y20784D2*
X27730D1*
X31133D2*
X32957D1*
X12444Y20585D2*
X27555D1*
X30933D2*
X32979D1*
X12387Y20385D2*
X27460D1*
X30733D2*
X33036D1*
X12285Y20185D2*
X27416D1*
X30546D2*
X33135D1*
X12127Y19986D2*
X27419D1*
X30546D2*
X33293D1*
X10389Y19786D2*
X10700D1*
X11864D2*
X27464D1*
X30498D2*
X33560D1*
X34723D2*
X35035D1*
X10389Y19586D2*
X27565D1*
X30400D2*
X35035D1*
X12466Y19387D2*
X27743D1*
X30219D2*
X32957D1*
X12466Y19187D2*
X25072D1*
X30352D2*
X32957D1*
X12466Y18987D2*
X21177D1*
X22340D2*
X25072D1*
X30352D2*
X32957D1*
X22531Y18788D2*
X25072D1*
X30352D2*
X32957D1*
X22635Y18588D2*
X25072D1*
X30352D2*
X32957D1*
X22686Y18388D2*
X25072D1*
X30352D2*
X32957D1*
X22689Y18189D2*
X25072D1*
X30352D2*
X32957D1*
X22651Y17989D2*
X25072D1*
X30352D2*
X32957D1*
X22559Y17789D2*
X25072D1*
X30352D2*
X32957D1*
X17027Y17590D2*
X21069D1*
X22448D2*
X25072D1*
X30352D2*
X32957D1*
X17107Y17390D2*
X21069D1*
X22448D2*
X25072D1*
X30352D2*
X32957D1*
X17135Y17190D2*
X21069D1*
X22448D2*
X25072D1*
X30352D2*
X32957D1*
X17123Y16991D2*
X21069D1*
X22448D2*
X25072D1*
X30352D2*
X30528D1*
X32896D2*
X35035D1*
X17062Y16791D2*
X21069D1*
X22448D2*
X25072D1*
X30352D2*
X30528D1*
X32896D2*
X35035D1*
X16942Y16591D2*
X21069D1*
X22448D2*
X25072D1*
X30352D2*
X30528D1*
X32896D2*
X35035D1*
X17170Y16392D2*
X21069D1*
X22448D2*
X30528D1*
X32896D2*
X35035D1*
X17170Y16192D2*
X21069D1*
X22448D2*
X30528D1*
X32896D2*
X35035D1*
X17170Y15992D2*
X18252D1*
X20719D2*
X21069D1*
X22448D2*
X30528D1*
X32896D2*
X35035D1*
X17170Y15793D2*
X18252D1*
X29696D2*
X30528D1*
X32896D2*
X35035D1*
X17170Y15593D2*
X18252D1*
X30000D2*
X30528D1*
X32896D2*
X35035D1*
X17170Y15393D2*
X18252D1*
X30200D2*
X30528D1*
X32896D2*
X35035D1*
X17170Y15194D2*
X18252D1*
X30400D2*
X30525D1*
X32896D2*
X35035D1*
X17170Y14994D2*
X18252D1*
X32896D2*
X35035D1*
X17170Y14794D2*
X18252D1*
X32896D2*
X35035D1*
X17170Y14595D2*
X18252D1*
X32896D2*
X35035D1*
X17170Y14395D2*
X18252D1*
X20719D2*
X29268D1*
X32896D2*
X35035D1*
X17170Y14195D2*
X29468D1*
X32896D2*
X35035D1*
X17170Y13996D2*
X29668D1*
X32896D2*
X35035D1*
X17170Y13796D2*
X25072D1*
X32896D2*
X35035D1*
X14896Y13596D2*
X25072D1*
X32896D2*
X35035D1*
X14896Y13397D2*
X25072D1*
X32896D2*
X35035D1*
X14896Y13197D2*
X25072D1*
X32896D2*
X35035D1*
X12926Y12997D2*
X25072D1*
X32449D2*
X35035D1*
X12926Y12798D2*
X25072D1*
X32408D2*
X35035D1*
X12926Y12598D2*
X25072D1*
X32294D2*
X35035D1*
X12926Y12398D2*
X25072D1*
X32097D2*
X35035D1*
X12926Y12199D2*
X25072D1*
X31897D2*
X35035D1*
X12926Y11999D2*
X25072D1*
X31697D2*
X35035D1*
X12926Y11799D2*
X25072D1*
X31333D2*
X35035D1*
X12926Y11600D2*
X25072D1*
X30352D2*
X35035D1*
X12926Y11400D2*
X25072D1*
X30352D2*
X35035D1*
X12929Y11200D2*
X25072D1*
X30352D2*
X35035D1*
X12929Y11001D2*
X35032D1*
X12996Y10801D2*
X34968D1*
X13132Y10601D2*
X34832D1*
X13469Y10402D2*
X34502D1*
X15698Y37321D2*
X17446D1*
X17443Y37494D1*
X16697Y37492D1*
X16700Y39421D1*
X16697Y39496D1*
X16700Y41121D1*
X16697Y41196D1*
Y42821D1*
X19526D1*
Y42424D1*
X25419Y42423D1*
X25898D1*
X25897Y42821D1*
X28726D1*
X28723Y40892D1*
X28726Y40816D1*
X28723Y39192D1*
X28726Y39177D1*
Y37492D1*
X25897D1*
Y39588D1*
X20003Y39589D1*
X19524D1*
X19523Y39192D1*
X19526Y39116D1*
Y37492D1*
X18781D1*
X18780Y36685D1*
X18772Y36584D1*
X18749Y36485D1*
X18712Y36391D1*
X18660Y36304D1*
X18584Y36212D1*
X18104Y35732D1*
X18027Y35666D1*
X17941Y35613D1*
X17848Y35572D1*
X17747Y35547D1*
X17798Y35558D1*
X17726Y35494D1*
Y34992D1*
X17551D1*
X17574Y34839D1*
X17570Y34675D1*
X17553Y34575D1*
X17526Y34477D1*
X17487Y34383D1*
X17439Y34294D1*
X17381Y34211D1*
X17314Y34135D1*
X17239Y34067D1*
X17156Y34007D1*
X17068Y33957D1*
X16975Y33917D1*
X16878Y33888D1*
X16778Y33869D1*
X16677Y33862D1*
X16576Y33866D1*
X16475Y33881D1*
X16377Y33907D1*
X16283Y33944D1*
X16193Y33991D1*
X16109Y34047D1*
X16031Y34113D1*
X15962Y34187D1*
X15901Y34268D1*
X15849Y34355D1*
X15808Y34448D1*
X15777Y34544D1*
X15756Y34644D1*
X15747Y34745D1*
X15749Y34846D1*
X15774Y34993D1*
X15055Y34992D1*
X13697D1*
Y37321D1*
X15826Y37320D1*
X29698Y37321D2*
X31443Y37324D1*
Y37492D1*
X30697D1*
X30700Y39421D1*
X30697Y39496D1*
X30700Y41121D1*
X30697Y41196D1*
Y42821D1*
X33526D1*
X33523Y40892D1*
X33526Y40816D1*
X33523Y39192D1*
X33526Y39116D1*
Y37492D1*
X32781D1*
X32780Y36715D1*
X32772Y36614D1*
X32749Y36515D1*
X32712Y36421D1*
X32660Y36334D1*
X32584Y36242D1*
X32074Y35732D1*
X31997Y35666D1*
X31911Y35613D1*
X31768Y35558D1*
X31726Y35494D1*
Y34992D1*
X31551D1*
X31574Y34839D1*
X31570Y34675D1*
X31553Y34575D1*
X31526Y34477D1*
X31487Y34383D1*
X31439Y34294D1*
X31381Y34211D1*
X31314Y34135D1*
X31239Y34067D1*
X31156Y34007D1*
X31068Y33957D1*
X30975Y33917D1*
X30878Y33888D1*
X30778Y33869D1*
X30677Y33862D1*
X30576Y33866D1*
X30475Y33881D1*
X30377Y33907D1*
X30283Y33944D1*
X30193Y33991D1*
X30109Y34047D1*
X30031Y34113D1*
X29962Y34187D1*
X29901Y34268D1*
X29849Y34355D1*
X29808Y34448D1*
X29777Y34544D1*
X29756Y34644D1*
X29747Y34745D1*
X29749Y34846D1*
X29774Y34993D1*
X29055Y34992D1*
X27697D1*
Y37321D1*
X29826Y37320D1*
X32873Y15271D2*
X32876Y15068D1*
Y13142D1*
X32429D1*
X32421Y12926D1*
X32398Y12828D1*
X32361Y12733D1*
X32309Y12646D1*
X32233Y12555D1*
X31662Y11983D1*
X31585Y11917D1*
X31499Y11864D1*
X31405Y11824D1*
X31307Y11798D1*
X31189Y11788D1*
X30329D1*
X30331Y11042D1*
X28902Y11045D1*
X28858Y11042D1*
X25092D1*
Y13871D1*
X29812D1*
X29194Y14489D1*
X26631Y14488D1*
X20702D1*
X20701Y14242D1*
X18272D1*
Y16071D1*
X20701D1*
X20704Y15825D1*
X21088D1*
X21090Y16780D1*
Y17595D1*
X20236Y17598D1*
X17004D1*
X17079Y17417D1*
X17102Y17318D1*
X17117Y17155D1*
X17112Y17054D1*
X17095Y16954D1*
X17067Y16856D1*
X17028Y16762D1*
X16980Y16673D1*
X16922Y16590D1*
X16861Y16521D1*
X17151D1*
X17148Y14892D1*
X17151Y14812D1*
Y13792D1*
X14876Y13789D1*
Y13142D1*
X12906D1*
X12907Y11287D1*
X12910Y10998D1*
X12985Y10773D1*
X13124Y10584D1*
X13314Y10446D1*
X13537Y10372D1*
X14026Y10369D1*
X34240Y10368D1*
X34427Y10370D1*
X34652Y10445D1*
X34841Y10584D1*
X34979Y10774D1*
X35053Y10997D1*
X35056Y11486D1*
Y17103D1*
X32977Y17102D1*
Y19431D1*
X35054D1*
X35056Y20085D1*
X34951Y19969D1*
X34827Y19865D1*
X34689Y19779D1*
X34541Y19713D1*
X34385Y19668D1*
X34225Y19645D1*
X34063Y19644D1*
X33902Y19667D1*
X33746Y19711D1*
X33597Y19777D1*
X33459Y19862D1*
X33335Y19966D1*
X33226Y20086D1*
X33135Y20221D1*
X33063Y20366D1*
X33012Y20520D1*
X32984Y20680D1*
X32977Y20842D1*
X32993Y21004D1*
X33032Y21161D1*
X33092Y21312D1*
X33173Y21453D1*
X33272Y21581D1*
X33388Y21695D1*
X33519Y21791D1*
X33662Y21868D1*
X33814Y21924D1*
X33972Y21959D1*
X34134Y21971D1*
X34296Y21961D1*
X34455Y21928D1*
X34608Y21873D1*
X34752Y21798D1*
X34884Y21704D1*
X35001Y21592D1*
X35056Y21526D1*
Y22629D1*
X34966Y22524D1*
X34810Y22393D1*
X34635Y22292D1*
X34445Y22222D1*
X34245Y22186D1*
X34042D1*
X33843Y22221D1*
X33652Y22289D1*
X33476Y22390D1*
X33320Y22520D1*
X33189Y22675D1*
X33118Y22791D1*
X30525Y20198D1*
X30531Y20091D1*
X30525Y19990D1*
X30508Y19890D1*
X30481Y19792D1*
X30442Y19698D1*
X30394Y19609D1*
X30336Y19526D1*
X30269Y19450D1*
X30181Y19373D1*
X30183Y19270D1*
X30331Y19271D1*
Y16442D1*
X28902Y16445D1*
X28553Y16442D1*
X27632Y16445D1*
X27283Y16442D1*
X26362Y16445D1*
X26318Y16442D1*
X25092D1*
Y19271D1*
X27779D1*
Y19376D1*
X27716Y19428D1*
X27647Y19502D1*
X27586Y19583D1*
X27534Y19670D1*
X27493Y19763D1*
X27462Y19859D1*
X27441Y19959D1*
X27432Y20060D1*
X27434Y20161D1*
X27448Y20262D1*
X27472Y20360D1*
X27507Y20456D1*
X27553Y20546D1*
X27608Y20631D1*
X27672Y20710D1*
X27745Y20781D1*
X27825Y20843D1*
X27912Y20896D1*
X28003Y20939D1*
X28099Y20972D1*
X28198Y20994D1*
X28299Y21005D1*
X28454Y20998D1*
X29524Y22071D1*
X31671Y24218D1*
X31669Y28143D1*
Y29061D1*
X31678Y29162D1*
X31705Y29260D1*
X31749Y29351D1*
X31798Y29421D1*
X32194Y29821D1*
X33022Y30649D1*
X32995Y30760D1*
X32977Y30962D1*
X32993Y31164D1*
X33045Y31360D1*
X33130Y31544D1*
X33245Y31710D1*
X33388Y31855D1*
X33553Y31972D1*
X33737Y32058D1*
X33932Y32112D1*
X34134Y32131D1*
X34336Y32114D1*
X34532Y32063D1*
X34717Y31979D1*
X34884Y31864D1*
X35028Y31721D1*
X35057Y31684D1*
X35056Y32785D1*
X34966Y32684D1*
X34810Y32553D1*
X34635Y32452D1*
X34445Y32382D1*
X34245Y32346D1*
X34042D1*
X33843Y32381D1*
X33652Y32449D1*
X33476Y32550D1*
X33320Y32680D1*
X33189Y32835D1*
X33088Y33010D1*
X33017Y33201D1*
X32982Y33400D1*
X32981Y33603D1*
X33015Y33803D1*
X33083Y33994D1*
X33184Y34170D1*
X33314Y34326D1*
X33468Y34457D1*
X33643Y34559D1*
X33833Y34629D1*
X34033Y34666D1*
X34236Y34667D1*
X34435Y34633D1*
X34626Y34565D1*
X34803Y34465D1*
X34959Y34336D1*
X35057Y34224D1*
X35056Y35329D1*
X34966Y35224D1*
X34810Y35093D1*
X34635Y34992D1*
X34445Y34922D1*
X34245Y34886D1*
X34042D1*
X33843Y34921D1*
X33652Y34989D1*
X33476Y35090D1*
X33320Y35220D1*
X33189Y35375D1*
X33088Y35550D1*
X33017Y35741D1*
X32982Y35940D1*
X32981Y36143D1*
X33015Y36343D1*
X33083Y36534D1*
X33184Y36710D1*
X33314Y36866D1*
X33468Y36997D1*
X33643Y37099D1*
X33833Y37169D1*
X34033Y37206D1*
X34236Y37207D1*
X34435Y37173D1*
X34626Y37105D1*
X34803Y37005D1*
X34959Y36876D1*
X35057Y36764D1*
X35056Y42443D1*
X35053Y43231D1*
X35052Y43317D1*
X34977Y43542D1*
X34838Y43731D1*
X34648Y43869D1*
X34425Y43943D1*
X33937Y43946D1*
X11183Y43944D1*
X10996Y43942D1*
X10771Y43867D1*
X10582Y43728D1*
X10444Y43538D1*
X10370Y43315D1*
X10367Y42827D1*
Y36765D1*
X10454Y36866D1*
X10608Y36997D1*
X10783Y37099D1*
X10973Y37169D1*
X11173Y37206D1*
X11376Y37207D1*
X11575Y37173D1*
X11766Y37105D1*
X11943Y37005D1*
X12099Y36876D1*
X12230Y36721D1*
X12333Y36546D1*
X12404Y36357D1*
X12441Y36157D1*
X12446Y36046D1*
X12428Y35844D1*
X12376Y35648D1*
X12290Y35465D1*
X12174Y35298D1*
X12031Y35155D1*
X11865Y35038D1*
X11681Y34953D1*
X11486Y34900D1*
X11284Y34882D1*
X11082Y34899D1*
X10886Y34951D1*
X10702Y35036D1*
X10535Y35152D1*
X10392Y35295D1*
X10366Y35327D1*
X10367Y34228D1*
X10454Y34326D1*
X10608Y34457D1*
X10783Y34559D1*
X10973Y34629D1*
X11173Y34666D1*
X11376Y34667D1*
X11575Y34633D1*
X11766Y34565D1*
X11943Y34465D1*
X12099Y34336D1*
X12230Y34181D1*
X12333Y34006D1*
X12404Y33817D1*
X12441Y33617D1*
X12446Y33506D1*
X12428Y33304D1*
X12402Y33190D1*
X13420Y32169D1*
X15486Y32168D1*
X15601Y32291D1*
X15681Y32353D1*
X15768Y32406D1*
X15860Y32449D1*
X15956Y32482D1*
X16055Y32504D1*
X16155Y32515D1*
X16257Y32514D1*
X16358Y32503D1*
X16457Y32480D1*
X16552Y32446D1*
X16644Y32402D1*
X16730Y32349D1*
X16809Y32286D1*
X16881Y32214D1*
X16945Y32135D1*
X17000Y32050D1*
X17044Y31959D1*
X17079Y31863D1*
X17102Y31765D1*
X17117Y31601D1*
X17112Y31500D1*
X17095Y31400D1*
X17067Y31302D1*
X17028Y31208D1*
X16980Y31119D1*
X16922Y31036D1*
X16855Y30960D1*
X16780Y30892D1*
X16698Y30832D1*
X16609Y30782D1*
X16516Y30742D1*
X16419Y30713D1*
X16319Y30694D1*
X16218Y30687D1*
X16117Y30691D1*
X16017Y30706D1*
X15918Y30732D1*
X15824Y30769D1*
X15734Y30816D1*
X15650Y30872D1*
X15573Y30938D1*
X15486Y31035D1*
X13186Y31034D1*
X13085Y31043D1*
X12988Y31070D1*
X12896Y31114D1*
X12827Y31163D1*
X12426Y31559D1*
X11599Y32387D1*
X11486Y32360D1*
X11284Y32342D1*
X11082Y32359D1*
X10886Y32411D1*
X10702Y32496D1*
X10535Y32612D1*
X10392Y32755D1*
X10366Y32787D1*
X10367Y31684D1*
X10454Y31786D1*
X10608Y31917D1*
X10783Y32019D1*
X10973Y32089D1*
X11173Y32126D1*
X11376Y32127D1*
X11575Y32093D1*
X11766Y32025D1*
X11943Y31925D1*
X12099Y31796D1*
X12230Y31641D1*
X12333Y31466D1*
X12404Y31277D1*
X12441Y31077D1*
X12446Y30966D1*
X12428Y30764D1*
X12376Y30568D1*
X12290Y30385D1*
X12174Y30218D1*
X12031Y30075D1*
X11865Y29958D1*
X11681Y29873D1*
X11486Y29820D1*
X11284Y29802D1*
X11082Y29819D1*
X10886Y29871D1*
X10702Y29956D1*
X10535Y30072D1*
X10392Y30215D1*
X10367Y30241D1*
Y29146D1*
X10454Y29246D1*
X10608Y29377D1*
X10783Y29479D1*
X10973Y29549D1*
X11173Y29586D1*
X11376Y29587D1*
X11575Y29553D1*
X11766Y29485D1*
X11943Y29385D1*
X12099Y29256D1*
X12230Y29101D1*
X12333Y28926D1*
X12404Y28737D1*
X12441Y28537D1*
X12446Y28426D1*
X12428Y28224D1*
X12376Y28028D1*
X12290Y27845D1*
X12174Y27678D1*
X12031Y27535D1*
X11865Y27418D1*
X11681Y27333D1*
X11486Y27280D1*
X11284Y27262D1*
X11082Y27279D1*
X10886Y27331D1*
X10702Y27416D1*
X10535Y27532D1*
X10392Y27675D1*
X10367Y27703D1*
Y26609D1*
X10454Y26706D1*
X10608Y26837D1*
X10783Y26939D1*
X10973Y27009D1*
X11173Y27046D1*
X11376Y27047D1*
X11575Y27013D1*
X11766Y26945D1*
X11943Y26845D1*
X12099Y26716D1*
X12230Y26561D1*
X12333Y26386D1*
X12404Y26197D1*
X12441Y25997D1*
X12446Y25886D1*
X12428Y25684D1*
X12376Y25488D1*
X12290Y25305D1*
X12174Y25138D1*
X12031Y24995D1*
X11865Y24878D1*
X11681Y24793D1*
X11486Y24740D1*
X11284Y24722D1*
X11082Y24739D1*
X10886Y24791D1*
X10702Y24876D1*
X10535Y24992D1*
X10392Y25135D1*
X10366Y25167D1*
X10367Y24065D1*
X10454Y24166D1*
X10608Y24297D1*
X10783Y24399D1*
X10973Y24469D1*
X11173Y24506D1*
X11376Y24507D1*
X11575Y24473D1*
X11766Y24405D1*
X11943Y24305D1*
X12099Y24176D1*
X12230Y24021D1*
X12333Y23846D1*
X12404Y23657D1*
X12441Y23457D1*
X12446Y23346D1*
X12428Y23144D1*
X12376Y22948D1*
X12290Y22765D1*
X12174Y22598D1*
X12031Y22455D1*
X11865Y22338D1*
X11681Y22253D1*
X11486Y22200D1*
X11284Y22182D1*
X11082Y22199D1*
X10886Y22251D1*
X10702Y22336D1*
X10535Y22452D1*
X10392Y22595D1*
X10366Y22627D1*
X10367Y21528D1*
X10454Y21626D1*
X10608Y21757D1*
X10783Y21859D1*
X10973Y21929D1*
X11173Y21966D1*
X11376Y21967D1*
X11575Y21933D1*
X11766Y21865D1*
X11943Y21765D1*
X12099Y21636D1*
X12230Y21481D1*
X12333Y21306D1*
X12404Y21117D1*
X12441Y20917D1*
X12446Y20806D1*
X12428Y20604D1*
X12376Y20408D1*
X12290Y20225D1*
X12174Y20058D1*
X12031Y19915D1*
X11865Y19798D1*
X11681Y19713D1*
X11486Y19660D1*
X11284Y19642D1*
X11082Y19659D1*
X10886Y19711D1*
X10702Y19796D1*
X10535Y19912D1*
X10392Y20055D1*
X10366Y20087D1*
X10367Y19428D1*
X10827Y19431D1*
X12446D1*
Y18933D1*
X13717Y18935D1*
X21136D1*
X21238Y19018D1*
X21324Y19071D1*
X21416Y19114D1*
X21512Y19147D1*
X21611Y19169D1*
X21712Y19180D1*
X21813Y19179D1*
X21914Y19168D1*
X22013Y19145D1*
X22109Y19111D1*
X22200Y19067D1*
X22286Y19014D1*
X22366Y18951D1*
X22438Y18879D1*
X22501Y18800D1*
X22556Y18715D1*
X22601Y18624D1*
X22635Y18528D1*
X22659Y18430D1*
X22673Y18266D1*
X22668Y18165D1*
X22651Y18065D1*
X22623Y17967D1*
X22585Y17873D1*
X22536Y17784D1*
X22426Y17642D1*
X22427Y15827D1*
X22937Y15825D1*
X29473D1*
X29574Y15817D1*
X29672Y15794D1*
X29767Y15757D1*
X29854Y15705D1*
X29945Y15629D1*
X30549Y15026D1*
X30547Y15366D1*
Y17171D1*
X32876D1*
X32875Y15042D1*
X21648Y38171D2*
X23876D1*
Y37673D1*
X23958Y37667D1*
X24057Y37643D1*
X24150Y37602D1*
X24275Y37507D1*
X29588Y32194D1*
X29751Y32197D1*
X29851Y32185D1*
X29950Y32162D1*
X30046Y32129D1*
X30138Y32085D1*
X30224Y32031D1*
X30303Y31968D1*
X30375Y31897D1*
X30439Y31818D1*
X30493Y31732D1*
X30538Y31641D1*
X30573Y31546D1*
X30596Y31447D1*
X30611Y31284D1*
X30605Y31182D1*
X30588Y31082D1*
X30561Y30985D1*
X30522Y30891D1*
X30474Y30802D1*
X30416Y30719D1*
X30349Y30643D1*
X30274Y30574D1*
X30191Y30515D1*
X30103Y30465D1*
X30010Y30425D1*
X29913Y30395D1*
X29813Y30377D1*
X29712Y30369D1*
X29611Y30373D1*
X29510Y30388D1*
X29412Y30414D1*
X29318Y30451D1*
X29228Y30498D1*
X29144Y30555D1*
X29066Y30621D1*
X28997Y30694D1*
X28936Y30776D1*
X28884Y30863D1*
X28843Y30955D1*
X28812Y31052D1*
X28791Y31151D1*
X28782Y31252D1*
X28789Y31388D1*
X23874Y36304D1*
X23876Y34796D1*
X24062Y34611D1*
X24127Y34533D1*
X24170Y34460D1*
X24207Y34362D1*
X24221Y34356D1*
X24726D1*
Y32027D1*
X22597Y32030D1*
X22623Y32027D1*
X22569D1*
X22603Y31959D1*
X22638Y31863D1*
X22661Y31765D1*
X22676Y31601D1*
X22670Y31500D1*
X22653Y31400D1*
X22626Y31302D1*
X22587Y31208D1*
X22539Y31119D1*
X22481Y31036D1*
X22414Y30960D1*
X22339Y30892D1*
X22256Y30832D1*
X22168Y30782D1*
X22075Y30742D1*
X21978Y30713D1*
X21878Y30694D1*
X21777Y30687D1*
X21676Y30691D1*
X21575Y30706D1*
X21477Y30732D1*
X21383Y30769D1*
X21293Y30816D1*
X21209Y30872D1*
X21131Y30938D1*
X21062Y31012D1*
X21001Y31093D1*
X20949Y31180D1*
X20908Y31273D1*
X20877Y31369D1*
X20856Y31469D1*
X20847Y31570D1*
X20849Y31671D1*
X20863Y31772D1*
X20887Y31870D1*
X20952Y32025D1*
X20697Y32027D1*
Y34356D1*
X21550D1*
X21547Y34954D1*
X21550Y36271D1*
X21547Y36346D1*
Y38171D1*
X21648D1*
X25817Y26021D2*
X28726D1*
Y23792D1*
X25797D1*
Y26021D1*
X25817D1*
X16717D2*
X19626D1*
Y23792D1*
X16697D1*
Y26021D1*
X16717D1*
X25898Y30521D2*
X28726D1*
Y29972D1*
X29903Y29973D1*
X30020Y30096D1*
X30100Y30158D1*
X30187Y30211D1*
X30278Y30254D1*
X30374Y30287D1*
X30473Y30309D1*
X30574Y30320D1*
X30676Y30319D1*
X30776Y30308D1*
X30875Y30285D1*
X30971Y30251D1*
X31063Y30207D1*
X31149Y30154D1*
X31228Y30091D1*
X31300Y30019D1*
X31364Y29940D1*
X31418Y29855D1*
X31463Y29764D1*
X31498Y29668D1*
X31521Y29570D1*
X31536Y29406D1*
X31530Y29305D1*
X31513Y29205D1*
X31486Y29107D1*
X31447Y29013D1*
X31399Y28924D1*
X31341Y28841D1*
X31274Y28765D1*
X31199Y28697D1*
X31116Y28637D1*
X31028Y28587D1*
X30935Y28547D1*
X30838Y28518D1*
X30738Y28499D1*
X30637Y28492D1*
X30536Y28496D1*
X30435Y28511D1*
X30337Y28537D1*
X30243Y28574D1*
X30153Y28621D1*
X30069Y28677D1*
X29991Y28743D1*
X29905Y28840D1*
X28728Y28839D1*
X28726Y28292D1*
X25797D1*
Y28840D1*
X19627Y28839D1*
X19626Y28292D1*
X16697D1*
Y30521D1*
X19626D1*
Y29972D1*
X25796Y29973D1*
X25797Y30521D1*
X25898D1*
X11998Y42821D2*
X14726D1*
Y42697D1*
X14844Y42737D1*
X14943Y42759D1*
X15044Y42770D1*
X15146Y42769D1*
X15246Y42758D1*
X15345Y42735D1*
X15441Y42701D1*
X15533Y42657D1*
X15619Y42604D1*
X15698Y42541D1*
X15770Y42469D1*
X15834Y42390D1*
X15888Y42305D1*
X15933Y42214D1*
X15968Y42118D1*
X15991Y42020D1*
X16006Y41856D1*
X16000Y41755D1*
X15983Y41655D1*
X15956Y41557D1*
X15917Y41463D1*
X15869Y41374D1*
X15811Y41291D1*
X15744Y41215D1*
X15669Y41147D1*
X15586Y41087D1*
X15498Y41037D1*
X15405Y40997D1*
X15308Y40968D1*
X15208Y40949D1*
X15107Y40942D1*
X15006Y40946D1*
X14905Y40961D1*
X14807Y40987D1*
X14727Y41018D1*
X14723Y40892D1*
X14726Y40816D1*
X14723Y39192D1*
X14726Y39177D1*
Y37492D1*
X11897D1*
Y39286D1*
X11733Y39249D1*
X11632Y39242D1*
X11531Y39246D1*
X11430Y39261D1*
X11332Y39287D1*
X11238Y39324D1*
X11148Y39371D1*
X11064Y39427D1*
X10986Y39493D1*
X10917Y39567D1*
X10856Y39648D1*
X10804Y39735D1*
X10763Y39828D1*
X10732Y39924D1*
X10711Y40024D1*
X10702Y40125D1*
X10704Y40226D1*
X10718Y40327D1*
X10742Y40425D1*
X10777Y40521D1*
X10823Y40611D1*
X10878Y40696D1*
X10942Y40775D1*
X11015Y40846D1*
X11095Y40908D1*
X11182Y40961D1*
X11273Y41004D1*
X11369Y41037D1*
X11468Y41059D1*
X11569Y41070D1*
X11671Y41069D1*
X11771Y41058D1*
X11897Y41025D1*
Y42821D1*
X11998D1*
X21137Y18936D2*
X21238Y19018D1*
X21324Y19071D1*
X21416Y19114D1*
X21512Y19147D1*
X21611Y19169D1*
X21712Y19180D1*
X21813Y19179D1*
X21914Y19168D1*
X22013Y19145D1*
X22109Y19111D1*
X22200Y19067D1*
X22286Y19014D1*
X22366Y18951D1*
X22438Y18879D1*
X22501Y18800D1*
X22556Y18715D1*
X22601Y18624D1*
X22635Y18528D1*
X22659Y18430D1*
X22673Y18266D1*
X22668Y18165D1*
X22651Y18065D1*
X22623Y17967D1*
X22585Y17873D1*
X22536Y17784D1*
X22426Y17642D1*
X14761Y37321D2*
D17*
Y34992D1*
X13697Y36156D2*
X14761D1*
X28761Y37321D2*
Y34992D1*
X27697Y36156D2*
X28761D1*
X31711Y17171D2*
Y16106D1*
X30547D2*
X32876D1*
X33318Y21630D2*
X34965Y19983D1*
Y21630D2*
X33318Y19983D1*
X13711Y14206D2*
Y13142D1*
X27261Y26021D2*
Y23792D1*
X25797Y24906D2*
X28726D1*
X18161Y26021D2*
Y23792D1*
X16697Y24906D2*
X19626D1*
X13311Y38456D2*
Y37492D1*
X11897Y38456D2*
X14726D1*
X27311D2*
Y37492D1*
X25897Y38456D2*
X28726D1*
X25806Y19271D2*
Y16442D1*
X25092Y17856D2*
X25806D1*
Y13871D2*
Y11042D1*
X25092Y12456D2*
X25806D1*
X27076Y13871D2*
Y11042D1*
X28346Y13871D2*
Y11042D1*
D19*
X16661Y36156D3*
X14761D3*
X30661D3*
X28761D3*
D20*
X31711Y14206D3*
Y16106D3*
X22711Y37106D3*
Y35206D3*
D21*
X34141Y18266D3*
D22*
Y20806D3*
Y23346D3*
Y25886D3*
Y28426D3*
Y30966D3*
Y33506D3*
Y36046D3*
D21*
X11281Y18266D3*
D22*
Y20806D3*
Y23346D3*
Y25886D3*
Y28426D3*
Y30966D3*
Y33506D3*
Y36046D3*
D23*
X15936Y14606D3*
Y15706D3*
D24*
X19486Y15156D3*
D20*
X13711Y14206D3*
Y16106D3*
D19*
X23661Y33191D3*
X21761D3*
D25*
X27261Y24906D3*
X18161D3*
X27261Y29406D3*
X18161D3*
D27*
X13311Y41856D3*
Y40156D3*
Y38456D3*
X18111D3*
Y40156D3*
Y41856D3*
X27311D3*
Y40156D3*
Y38456D3*
X32111D3*
Y40156D3*
Y41856D3*
D28*
X29616Y17856D3*
X28346D3*
X27076D3*
X25806D3*
Y12456D3*
X27076D3*
X28346D3*
X29616D3*
M02*
